ISO-10303-21;
HEADER;
FILE_DESCRIPTION(('FreeCAD Model'),'2;1');
FILE_NAME('Open CASCADE Shape Model','2026-10-07T09:17:59',('Author'),(
    ''),'Open CASCADE STEP processor 7.8','FreeCAD','Unknown');
FILE_SCHEMA(('AUTOMOTIVE_DESIGN { 1 0 10303 214 1 1 1 1 }'));
ENDSEC;
DATA;
#1 = APPLICATION_PROTOCOL_DEFINITION('international standard',
  'automotive_design',2000,#2);
#2 = APPLICATION_CONTEXT(
  'core data for automotive mechanical design processes');
#3 = SHAPE_DEFINITION_REPRESENTATION(#4,#10);
#4 = PRODUCT_DEFINITION_SHAPE('','',#5);
#5 = PRODUCT_DEFINITION('design','',#6,#9);
#6 = PRODUCT_DEFINITION_FORMATION('','',#7);
#7 = PRODUCT('diode-sod123','diode-sod123','',(#8));
#8 = PRODUCT_CONTEXT('',#2,'mechanical');
#9 = PRODUCT_DEFINITION_CONTEXT('part definition',#2,'design');
#10 = ADVANCED_BREP_SHAPE_REPRESENTATION('',(#11,#15),#1703);
#11 = AXIS2_PLACEMENT_3D('',#12,#13,#14);
#12 = CARTESIAN_POINT('',(0.,0.,0.));
#13 = DIRECTION('',(0.,0.,1.));
#14 = DIRECTION('',(1.,0.,-0.));
#15 = MANIFOLD_SOLID_BREP('',#16);
#16 = CLOSED_SHELL('',(#17,#71,#134,#157,#187,#220,#250,#273,#296,#319,
    #342,#365,#398,#421,#444,#532,#607,#631,#699,#787,#803,#819,#835,
    #851,#868,#901,#918,#940,#971,#994,#1017,#1040,#1070,#1087,#1104,
    #1121,#1138,#1155,#1172,#1189,#1201,#1224,#1247,#1264,#1339,#1363,
    #1431,#1448,#1498,#1515,#1532,#1549,#1566,#1583,#1595,#1626,#1650,
    #1674,#1691));
#17 = ADVANCED_FACE('',(#18),#66,.F.);
#18 = FACE_BOUND('',#19,.F.);
#19 = EDGE_LOOP('',(#20,#30,#37,#45,#53,#61));
#20 = ORIENTED_EDGE('',*,*,#21,.T.);
#21 = EDGE_CURVE('',#22,#24,#26,.T.);
#22 = VERTEX_POINT('',#23);
#23 = CARTESIAN_POINT('',(-1.308243103516,-0.671621551758,6.E-02));
#24 = VERTEX_POINT('',#25);
#25 = CARTESIAN_POINT('',(-1.308243103516,0.671621551758,6.E-02));
#26 = LINE('',#27,#28);
#27 = CARTESIAN_POINT('',(-1.308243103516,-0.671621551758,6.E-02));
#28 = VECTOR('',#29,1.);
#29 = DIRECTION('',(0.,1.,0.));
#30 = ORIENTED_EDGE('',*,*,#31,.T.);
#31 = EDGE_CURVE('',#24,#32,#34,.T.);
#32 = VERTEX_POINT('',#33);
#33 = CARTESIAN_POINT('',(-1.375,0.705,0.535));
#34 = B_SPLINE_CURVE_WITH_KNOTS('',1,(#35,#36),.UNSPECIFIED.,.F.,.F.,(2,
    2),(0.,1.),.PIECEWISE_BEZIER_KNOTS.);
#35 = CARTESIAN_POINT('',(-1.308243103516,0.671621551758,6.E-02));
#36 = CARTESIAN_POINT('',(-1.375,0.705,0.535));
#37 = ORIENTED_EDGE('',*,*,#38,.F.);
#38 = EDGE_CURVE('',#39,#32,#41,.T.);
#39 = VERTEX_POINT('',#40);
#40 = CARTESIAN_POINT('',(-1.375,0.325,0.535));
#41 = LINE('',#42,#43);
#42 = CARTESIAN_POINT('',(-1.375,-0.705,0.535));
#43 = VECTOR('',#44,1.);
#44 = DIRECTION('',(0.,1.,0.));
#45 = ORIENTED_EDGE('',*,*,#46,.F.);
#46 = EDGE_CURVE('',#47,#39,#49,.T.);
#47 = VERTEX_POINT('',#48);
#48 = CARTESIAN_POINT('',(-1.375,-0.325,0.535));
#49 = LINE('',#50,#51);
#50 = CARTESIAN_POINT('',(-1.375,-0.325,0.535));
#51 = VECTOR('',#52,1.);
#52 = DIRECTION('',(1.110223024625E-16,1.,0.));
#53 = ORIENTED_EDGE('',*,*,#54,.F.);
#54 = EDGE_CURVE('',#55,#47,#57,.T.);
#55 = VERTEX_POINT('',#56);
#56 = CARTESIAN_POINT('',(-1.375,-0.705,0.535));
#57 = LINE('',#58,#59);
#58 = CARTESIAN_POINT('',(-1.375,-0.705,0.535));
#59 = VECTOR('',#60,1.);
#60 = DIRECTION('',(0.,1.,0.));
#61 = ORIENTED_EDGE('',*,*,#62,.F.);
#62 = EDGE_CURVE('',#22,#55,#63,.T.);
#63 = B_SPLINE_CURVE_WITH_KNOTS('',1,(#64,#65),.UNSPECIFIED.,.F.,.F.,(2,
    2),(0.,1.),.PIECEWISE_BEZIER_KNOTS.);
#64 = CARTESIAN_POINT('',(-1.308243103516,-0.671621551758,6.E-02));
#65 = CARTESIAN_POINT('',(-1.375,-0.705,0.535));
#66 = B_SPLINE_SURFACE_WITH_KNOTS('',1,1,(
    (#67,#68)
    ,(#69,#70)),.UNSPECIFIED.,.F.,.F.,.F.,(2,2),(2,2),(0.,1.41),(0.,1.),
  .PIECEWISE_BEZIER_KNOTS.);
#67 = CARTESIAN_POINT('',(-1.308243103516,-0.671621551758,6.E-02));
#68 = CARTESIAN_POINT('',(-1.375,-0.705,0.535));
#69 = CARTESIAN_POINT('',(-1.308243103516,0.671621551758,6.E-02));
#70 = CARTESIAN_POINT('',(-1.375,0.705,0.535));
#71 = ADVANCED_FACE('',(#72),#129,.F.);
#72 = FACE_BOUND('',#73,.T.);
#73 = EDGE_LOOP('',(#74,#75,#83,#91,#99,#107,#115,#123));
#74 = ORIENTED_EDGE('',*,*,#21,.T.);
#75 = ORIENTED_EDGE('',*,*,#76,.T.);
#76 = EDGE_CURVE('',#24,#77,#79,.T.);
#77 = VERTEX_POINT('',#78);
#78 = CARTESIAN_POINT('',(-1.246621551758,0.733243103516,6.E-02));
#79 = LINE('',#80,#81);
#80 = CARTESIAN_POINT('',(-1.308243103516,0.671621551758,6.E-02));
#81 = VECTOR('',#82,1.);
#82 = DIRECTION('',(0.707106781187,0.707106781187,0.));
#83 = ORIENTED_EDGE('',*,*,#84,.T.);
#84 = EDGE_CURVE('',#77,#85,#87,.T.);
#85 = VERTEX_POINT('',#86);
#86 = CARTESIAN_POINT('',(1.246621551758,0.733243103516,6.E-02));
#87 = LINE('',#88,#89);
#88 = CARTESIAN_POINT('',(-1.246621551758,0.733243103516,6.E-02));
#89 = VECTOR('',#90,1.);
#90 = DIRECTION('',(1.,0.,0.));
#91 = ORIENTED_EDGE('',*,*,#92,.T.);
#92 = EDGE_CURVE('',#85,#93,#95,.T.);
#93 = VERTEX_POINT('',#94);
#94 = CARTESIAN_POINT('',(1.308243103516,0.671621551758,6.E-02));
#95 = LINE('',#96,#97);
#96 = CARTESIAN_POINT('',(1.246621551758,0.733243103516,6.E-02));
#97 = VECTOR('',#98,1.);
#98 = DIRECTION('',(0.707106781187,-0.707106781187,0.));
#99 = ORIENTED_EDGE('',*,*,#100,.T.);
#100 = EDGE_CURVE('',#93,#101,#103,.T.);
#101 = VERTEX_POINT('',#102);
#102 = CARTESIAN_POINT('',(1.308243103516,-0.671621551758,6.E-02));
#103 = LINE('',#104,#105);
#104 = CARTESIAN_POINT('',(1.308243103516,0.671621551758,6.E-02));
#105 = VECTOR('',#106,1.);
#106 = DIRECTION('',(0.,-1.,0.));
#107 = ORIENTED_EDGE('',*,*,#108,.T.);
#108 = EDGE_CURVE('',#101,#109,#111,.T.);
#109 = VERTEX_POINT('',#110);
#110 = CARTESIAN_POINT('',(1.246621551758,-0.733243103516,6.E-02));
#111 = LINE('',#112,#113);
#112 = CARTESIAN_POINT('',(1.308243103516,-0.671621551758,6.E-02));
#113 = VECTOR('',#114,1.);
#114 = DIRECTION('',(-0.707106781187,-0.707106781187,0.));
#115 = ORIENTED_EDGE('',*,*,#116,.T.);
#116 = EDGE_CURVE('',#109,#117,#119,.T.);
#117 = VERTEX_POINT('',#118);
#118 = CARTESIAN_POINT('',(-1.246621551758,-0.733243103516,6.E-02));
#119 = LINE('',#120,#121);
#120 = CARTESIAN_POINT('',(1.246621551758,-0.733243103516,6.E-02));
#121 = VECTOR('',#122,1.);
#122 = DIRECTION('',(-1.,0.,0.));
#123 = ORIENTED_EDGE('',*,*,#124,.T.);
#124 = EDGE_CURVE('',#117,#22,#125,.T.);
#125 = LINE('',#126,#127);
#126 = CARTESIAN_POINT('',(-1.246621551758,-0.733243103516,6.E-02));
#127 = VECTOR('',#128,1.);
#128 = DIRECTION('',(-0.707106781187,0.707106781187,0.));
#129 = PLANE('',#130);
#130 = AXIS2_PLACEMENT_3D('',#131,#132,#133);
#131 = CARTESIAN_POINT('',(-1.308243103516,-0.671621551758,6.E-02));
#132 = DIRECTION('',(0.,0.,1.));
#133 = DIRECTION('',(0.889616464678,0.456708381546,0.));
#134 = ADVANCED_FACE('',(#135),#152,.F.);
#135 = FACE_BOUND('',#136,.F.);
#136 = EDGE_LOOP('',(#137,#138,#145,#151));
#137 = ORIENTED_EDGE('',*,*,#76,.T.);
#138 = ORIENTED_EDGE('',*,*,#139,.T.);
#139 = EDGE_CURVE('',#77,#140,#142,.T.);
#140 = VERTEX_POINT('',#141);
#141 = CARTESIAN_POINT('',(-1.28,0.8,0.535));
#142 = B_SPLINE_CURVE_WITH_KNOTS('',1,(#143,#144),.UNSPECIFIED.,.F.,.F.,
  (2,2),(0.,1.),.PIECEWISE_BEZIER_KNOTS.);
#143 = CARTESIAN_POINT('',(-1.246621551758,0.733243103516,6.E-02));
#144 = CARTESIAN_POINT('',(-1.28,0.8,0.535));
#145 = ORIENTED_EDGE('',*,*,#146,.F.);
#146 = EDGE_CURVE('',#32,#140,#147,.T.);
#147 = LINE('',#148,#149);
#148 = CARTESIAN_POINT('',(-1.375,0.705,0.535));
#149 = VECTOR('',#150,1.);
#150 = DIRECTION('',(0.707106781187,0.707106781187,0.));
#151 = ORIENTED_EDGE('',*,*,#31,.F.);
#152 = B_SPLINE_SURFACE_WITH_KNOTS('',1,1,(
    (#153,#154)
    ,(#155,#156
    )),.UNSPECIFIED.,.F.,.F.,.F.,(2,2),(2,2),(0.,0.134350288425),(0.,1.)
  ,.PIECEWISE_BEZIER_KNOTS.);
#153 = CARTESIAN_POINT('',(-1.308243103516,0.671621551758,6.E-02));
#154 = CARTESIAN_POINT('',(-1.375,0.705,0.535));
#155 = CARTESIAN_POINT('',(-1.246621551758,0.733243103516,6.E-02));
#156 = CARTESIAN_POINT('',(-1.28,0.8,0.535));
#157 = ADVANCED_FACE('',(#158),#182,.F.);
#158 = FACE_BOUND('',#159,.F.);
#159 = EDGE_LOOP('',(#160,#167,#168,#176));
#160 = ORIENTED_EDGE('',*,*,#161,.F.);
#161 = EDGE_CURVE('',#55,#162,#164,.T.);
#162 = VERTEX_POINT('',#163);
#163 = CARTESIAN_POINT('',(-1.375,-0.705,0.735));
#164 = B_SPLINE_CURVE_WITH_KNOTS('',1,(#165,#166),.UNSPECIFIED.,.F.,.F.,
  (2,2),(0.,1.),.PIECEWISE_BEZIER_KNOTS.);
#165 = CARTESIAN_POINT('',(-1.375,-0.705,0.535));
#166 = CARTESIAN_POINT('',(-1.375,-0.705,0.735));
#167 = ORIENTED_EDGE('',*,*,#54,.T.);
#168 = ORIENTED_EDGE('',*,*,#169,.T.);
#169 = EDGE_CURVE('',#47,#170,#172,.T.);
#170 = VERTEX_POINT('',#171);
#171 = CARTESIAN_POINT('',(-1.375,-0.325,0.735));
#172 = LINE('',#173,#174);
#173 = CARTESIAN_POINT('',(-1.375,-0.325,0.539830288983));
#174 = VECTOR('',#175,1.);
#175 = DIRECTION('',(0.,0.,1.));
#176 = ORIENTED_EDGE('',*,*,#177,.F.);
#177 = EDGE_CURVE('',#162,#170,#178,.T.);
#178 = LINE('',#179,#180);
#179 = CARTESIAN_POINT('',(-1.375,-0.705,0.735));
#180 = VECTOR('',#181,1.);
#181 = DIRECTION('',(0.,1.,0.));
#182 = PLANE('',#183);
#183 = AXIS2_PLACEMENT_3D('',#184,#185,#186);
#184 = CARTESIAN_POINT('',(-1.375,-0.705,0.735));
#185 = DIRECTION('',(1.,0.,0.));
#186 = DIRECTION('',(0.,1.,0.));
#187 = ADVANCED_FACE('',(#188),#215,.F.);
#188 = FACE_BOUND('',#189,.F.);
#189 = EDGE_LOOP('',(#190,#191,#200,#208));
#190 = ORIENTED_EDGE('',*,*,#46,.T.);
#191 = ORIENTED_EDGE('',*,*,#192,.T.);
#192 = EDGE_CURVE('',#39,#193,#195,.T.);
#193 = VERTEX_POINT('',#194);
#194 = CARTESIAN_POINT('',(-1.493176930361,0.325,0.43583778132));
#195 = CIRCLE('',#196,0.12);
#196 = AXIS2_PLACEMENT_3D('',#197,#198,#199);
#197 = CARTESIAN_POINT('',(-1.375,0.325,0.415));
#198 = DIRECTION('',(-1.110223024625E-16,-1.,-1.003534056487E-47));
#199 = DIRECTION('',(9.251858538543E-16,-1.027162637006E-31,1.));
#200 = ORIENTED_EDGE('',*,*,#201,.F.);
#201 = EDGE_CURVE('',#202,#193,#204,.T.);
#202 = VERTEX_POINT('',#203);
#203 = CARTESIAN_POINT('',(-1.493176930361,-0.325,0.43583778132));
#204 = LINE('',#205,#206);
#205 = CARTESIAN_POINT('',(-1.493176930361,-0.325,0.43583778132));
#206 = VECTOR('',#207,1.);
#207 = DIRECTION('',(1.110223024625E-16,1.,0.));
#208 = ORIENTED_EDGE('',*,*,#209,.F.);
#209 = EDGE_CURVE('',#47,#202,#210,.T.);
#210 = CIRCLE('',#211,0.12);
#211 = AXIS2_PLACEMENT_3D('',#212,#213,#214);
#212 = CARTESIAN_POINT('',(-1.375,-0.325,0.415));
#213 = DIRECTION('',(-1.110223024625E-16,-1.,-1.003534056487E-47));
#214 = DIRECTION('',(9.251858538543E-16,-1.027162637006E-31,1.));
#215 = CYLINDRICAL_SURFACE('',#216,0.12);
#216 = AXIS2_PLACEMENT_3D('',#217,#218,#219);
#217 = CARTESIAN_POINT('',(-1.375,-0.325,0.415));
#218 = DIRECTION('',(-1.110223024625E-16,-1.,0.));
#219 = DIRECTION('',(9.251858538543E-16,-1.027162637006E-31,1.));
#220 = ADVANCED_FACE('',(#221),#245,.F.);
#221 = FACE_BOUND('',#222,.F.);
#222 = EDGE_LOOP('',(#223,#231,#232,#239));
#223 = ORIENTED_EDGE('',*,*,#224,.F.);
#224 = EDGE_CURVE('',#39,#225,#227,.T.);
#225 = VERTEX_POINT('',#226);
#226 = CARTESIAN_POINT('',(-1.375,0.325,0.735));
#227 = LINE('',#228,#229);
#228 = CARTESIAN_POINT('',(-1.375,0.325,0.539830288983));
#229 = VECTOR('',#230,1.);
#230 = DIRECTION('',(0.,0.,1.));
#231 = ORIENTED_EDGE('',*,*,#38,.T.);
#232 = ORIENTED_EDGE('',*,*,#233,.T.);
#233 = EDGE_CURVE('',#32,#234,#236,.T.);
#234 = VERTEX_POINT('',#235);
#235 = CARTESIAN_POINT('',(-1.375,0.705,0.735));
#236 = B_SPLINE_CURVE_WITH_KNOTS('',1,(#237,#238),.UNSPECIFIED.,.F.,.F.,
  (2,2),(0.,1.),.PIECEWISE_BEZIER_KNOTS.);
#237 = CARTESIAN_POINT('',(-1.375,0.705,0.535));
#238 = CARTESIAN_POINT('',(-1.375,0.705,0.735));
#239 = ORIENTED_EDGE('',*,*,#240,.F.);
#240 = EDGE_CURVE('',#225,#234,#241,.T.);
#241 = LINE('',#242,#243);
#242 = CARTESIAN_POINT('',(-1.375,-0.705,0.735));
#243 = VECTOR('',#244,1.);
#244 = DIRECTION('',(0.,1.,0.));
#245 = PLANE('',#246);
#246 = AXIS2_PLACEMENT_3D('',#247,#248,#249);
#247 = CARTESIAN_POINT('',(-1.375,-0.705,0.735));
#248 = DIRECTION('',(1.,0.,0.));
#249 = DIRECTION('',(0.,1.,0.));
#250 = ADVANCED_FACE('',(#251),#268,.F.);
#251 = FACE_BOUND('',#252,.F.);
#252 = EDGE_LOOP('',(#253,#254,#255,#263));
#253 = ORIENTED_EDGE('',*,*,#124,.T.);
#254 = ORIENTED_EDGE('',*,*,#62,.T.);
#255 = ORIENTED_EDGE('',*,*,#256,.F.);
#256 = EDGE_CURVE('',#257,#55,#259,.T.);
#257 = VERTEX_POINT('',#258);
#258 = CARTESIAN_POINT('',(-1.28,-0.8,0.535));
#259 = LINE('',#260,#261);
#260 = CARTESIAN_POINT('',(-1.28,-0.8,0.535));
#261 = VECTOR('',#262,1.);
#262 = DIRECTION('',(-0.707106781187,0.707106781187,0.));
#263 = ORIENTED_EDGE('',*,*,#264,.F.);
#264 = EDGE_CURVE('',#117,#257,#265,.T.);
#265 = B_SPLINE_CURVE_WITH_KNOTS('',1,(#266,#267),.UNSPECIFIED.,.F.,.F.,
  (2,2),(0.,1.),.PIECEWISE_BEZIER_KNOTS.);
#266 = CARTESIAN_POINT('',(-1.246621551758,-0.733243103516,6.E-02));
#267 = CARTESIAN_POINT('',(-1.28,-0.8,0.535));
#268 = B_SPLINE_SURFACE_WITH_KNOTS('',1,1,(
    (#269,#270)
    ,(#271,#272
    )),.UNSPECIFIED.,.F.,.F.,.F.,(2,2),(2,2),(0.,0.134350288425),(0.,1.)
  ,.PIECEWISE_BEZIER_KNOTS.);
#269 = CARTESIAN_POINT('',(-1.246621551758,-0.733243103516,6.E-02));
#270 = CARTESIAN_POINT('',(-1.28,-0.8,0.535));
#271 = CARTESIAN_POINT('',(-1.308243103516,-0.671621551758,6.E-02));
#272 = CARTESIAN_POINT('',(-1.375,-0.705,0.535));
#273 = ADVANCED_FACE('',(#274),#291,.F.);
#274 = FACE_BOUND('',#275,.F.);
#275 = EDGE_LOOP('',(#276,#277,#278,#286));
#276 = ORIENTED_EDGE('',*,*,#116,.T.);
#277 = ORIENTED_EDGE('',*,*,#264,.T.);
#278 = ORIENTED_EDGE('',*,*,#279,.F.);
#279 = EDGE_CURVE('',#280,#257,#282,.T.);
#280 = VERTEX_POINT('',#281);
#281 = CARTESIAN_POINT('',(1.28,-0.8,0.535));
#282 = LINE('',#283,#284);
#283 = CARTESIAN_POINT('',(1.28,-0.8,0.535));
#284 = VECTOR('',#285,1.);
#285 = DIRECTION('',(-1.,0.,0.));
#286 = ORIENTED_EDGE('',*,*,#287,.F.);
#287 = EDGE_CURVE('',#109,#280,#288,.T.);
#288 = B_SPLINE_CURVE_WITH_KNOTS('',1,(#289,#290),.UNSPECIFIED.,.F.,.F.,
  (2,2),(0.,1.),.PIECEWISE_BEZIER_KNOTS.);
#289 = CARTESIAN_POINT('',(1.246621551758,-0.733243103516,6.E-02));
#290 = CARTESIAN_POINT('',(1.28,-0.8,0.535));
#291 = B_SPLINE_SURFACE_WITH_KNOTS('',1,1,(
    (#292,#293)
    ,(#294,#295
    )),.UNSPECIFIED.,.F.,.F.,.F.,(2,2),(2,2),(0.,2.56),(0.,1.),
  .PIECEWISE_BEZIER_KNOTS.);
#292 = CARTESIAN_POINT('',(1.246621551758,-0.733243103516,6.E-02));
#293 = CARTESIAN_POINT('',(1.28,-0.8,0.535));
#294 = CARTESIAN_POINT('',(-1.246621551758,-0.733243103516,6.E-02));
#295 = CARTESIAN_POINT('',(-1.28,-0.8,0.535));
#296 = ADVANCED_FACE('',(#297),#314,.F.);
#297 = FACE_BOUND('',#298,.F.);
#298 = EDGE_LOOP('',(#299,#300,#307,#313));
#299 = ORIENTED_EDGE('',*,*,#84,.T.);
#300 = ORIENTED_EDGE('',*,*,#301,.T.);
#301 = EDGE_CURVE('',#85,#302,#304,.T.);
#302 = VERTEX_POINT('',#303);
#303 = CARTESIAN_POINT('',(1.28,0.8,0.535));
#304 = B_SPLINE_CURVE_WITH_KNOTS('',1,(#305,#306),.UNSPECIFIED.,.F.,.F.,
  (2,2),(0.,1.),.PIECEWISE_BEZIER_KNOTS.);
#305 = CARTESIAN_POINT('',(1.246621551758,0.733243103516,6.E-02));
#306 = CARTESIAN_POINT('',(1.28,0.8,0.535));
#307 = ORIENTED_EDGE('',*,*,#308,.F.);
#308 = EDGE_CURVE('',#140,#302,#309,.T.);
#309 = LINE('',#310,#311);
#310 = CARTESIAN_POINT('',(-1.28,0.8,0.535));
#311 = VECTOR('',#312,1.);
#312 = DIRECTION('',(1.,0.,0.));
#313 = ORIENTED_EDGE('',*,*,#139,.F.);
#314 = B_SPLINE_SURFACE_WITH_KNOTS('',1,1,(
    (#315,#316)
    ,(#317,#318
    )),.UNSPECIFIED.,.F.,.F.,.F.,(2,2),(2,2),(0.,2.56),(0.,1.),
  .PIECEWISE_BEZIER_KNOTS.);
#315 = CARTESIAN_POINT('',(-1.246621551758,0.733243103516,6.E-02));
#316 = CARTESIAN_POINT('',(-1.28,0.8,0.535));
#317 = CARTESIAN_POINT('',(1.246621551758,0.733243103516,6.E-02));
#318 = CARTESIAN_POINT('',(1.28,0.8,0.535));
#319 = ADVANCED_FACE('',(#320),#337,.F.);
#320 = FACE_BOUND('',#321,.F.);
#321 = EDGE_LOOP('',(#322,#323,#324,#332));
#322 = ORIENTED_EDGE('',*,*,#108,.T.);
#323 = ORIENTED_EDGE('',*,*,#287,.T.);
#324 = ORIENTED_EDGE('',*,*,#325,.F.);
#325 = EDGE_CURVE('',#326,#280,#328,.T.);
#326 = VERTEX_POINT('',#327);
#327 = CARTESIAN_POINT('',(1.375,-0.705,0.535));
#328 = LINE('',#329,#330);
#329 = CARTESIAN_POINT('',(1.375,-0.705,0.535));
#330 = VECTOR('',#331,1.);
#331 = DIRECTION('',(-0.707106781187,-0.707106781187,0.));
#332 = ORIENTED_EDGE('',*,*,#333,.F.);
#333 = EDGE_CURVE('',#101,#326,#334,.T.);
#334 = B_SPLINE_CURVE_WITH_KNOTS('',1,(#335,#336),.UNSPECIFIED.,.F.,.F.,
  (2,2),(0.,1.),.PIECEWISE_BEZIER_KNOTS.);
#335 = CARTESIAN_POINT('',(1.308243103516,-0.671621551758,6.E-02));
#336 = CARTESIAN_POINT('',(1.375,-0.705,0.535));
#337 = B_SPLINE_SURFACE_WITH_KNOTS('',1,1,(
    (#338,#339)
    ,(#340,#341
    )),.UNSPECIFIED.,.F.,.F.,.F.,(2,2),(2,2),(0.,0.134350288425),(0.,1.)
  ,.PIECEWISE_BEZIER_KNOTS.);
#338 = CARTESIAN_POINT('',(1.308243103516,-0.671621551758,6.E-02));
#339 = CARTESIAN_POINT('',(1.375,-0.705,0.535));
#340 = CARTESIAN_POINT('',(1.246621551758,-0.733243103516,6.E-02));
#341 = CARTESIAN_POINT('',(1.28,-0.8,0.535));
#342 = ADVANCED_FACE('',(#343),#360,.F.);
#343 = FACE_BOUND('',#344,.F.);
#344 = EDGE_LOOP('',(#345,#346,#353,#359));
#345 = ORIENTED_EDGE('',*,*,#92,.T.);
#346 = ORIENTED_EDGE('',*,*,#347,.T.);
#347 = EDGE_CURVE('',#93,#348,#350,.T.);
#348 = VERTEX_POINT('',#349);
#349 = CARTESIAN_POINT('',(1.375,0.705,0.535));
#350 = B_SPLINE_CURVE_WITH_KNOTS('',1,(#351,#352),.UNSPECIFIED.,.F.,.F.,
  (2,2),(0.,1.),.PIECEWISE_BEZIER_KNOTS.);
#351 = CARTESIAN_POINT('',(1.308243103516,0.671621551758,6.E-02));
#352 = CARTESIAN_POINT('',(1.375,0.705,0.535));
#353 = ORIENTED_EDGE('',*,*,#354,.F.);
#354 = EDGE_CURVE('',#302,#348,#355,.T.);
#355 = LINE('',#356,#357);
#356 = CARTESIAN_POINT('',(1.28,0.8,0.535));
#357 = VECTOR('',#358,1.);
#358 = DIRECTION('',(0.707106781187,-0.707106781187,0.));
#359 = ORIENTED_EDGE('',*,*,#301,.F.);
#360 = B_SPLINE_SURFACE_WITH_KNOTS('',1,1,(
    (#361,#362)
    ,(#363,#364
    )),.UNSPECIFIED.,.F.,.F.,.F.,(2,2),(2,2),(0.,0.134350288425),(0.,1.)
  ,.PIECEWISE_BEZIER_KNOTS.);
#361 = CARTESIAN_POINT('',(1.246621551758,0.733243103516,6.E-02));
#362 = CARTESIAN_POINT('',(1.28,0.8,0.535));
#363 = CARTESIAN_POINT('',(1.308243103516,0.671621551758,6.E-02));
#364 = CARTESIAN_POINT('',(1.375,0.705,0.535));
#365 = ADVANCED_FACE('',(#366),#393,.F.);
#366 = FACE_BOUND('',#367,.F.);
#367 = EDGE_LOOP('',(#368,#369,#370,#378,#386,#392));
#368 = ORIENTED_EDGE('',*,*,#100,.T.);
#369 = ORIENTED_EDGE('',*,*,#333,.T.);
#370 = ORIENTED_EDGE('',*,*,#371,.F.);
#371 = EDGE_CURVE('',#372,#326,#374,.T.);
#372 = VERTEX_POINT('',#373);
#373 = CARTESIAN_POINT('',(1.375,-0.325,0.535));
#374 = LINE('',#375,#376);
#375 = CARTESIAN_POINT('',(1.375,0.705,0.535));
#376 = VECTOR('',#377,1.);
#377 = DIRECTION('',(0.,-1.,0.));
#378 = ORIENTED_EDGE('',*,*,#379,.F.);
#379 = EDGE_CURVE('',#380,#372,#382,.T.);
#380 = VERTEX_POINT('',#381);
#381 = CARTESIAN_POINT('',(1.375,0.325,0.535));
#382 = LINE('',#383,#384);
#383 = CARTESIAN_POINT('',(1.375,0.325,0.535));
#384 = VECTOR('',#385,1.);
#385 = DIRECTION('',(-2.22044604925E-16,-1.,0.));
#386 = ORIENTED_EDGE('',*,*,#387,.F.);
#387 = EDGE_CURVE('',#348,#380,#388,.T.);
#388 = LINE('',#389,#390);
#389 = CARTESIAN_POINT('',(1.375,0.705,0.535));
#390 = VECTOR('',#391,1.);
#391 = DIRECTION('',(0.,-1.,0.));
#392 = ORIENTED_EDGE('',*,*,#347,.F.);
#393 = B_SPLINE_SURFACE_WITH_KNOTS('',1,1,(
    (#394,#395)
    ,(#396,#397
    )),.UNSPECIFIED.,.F.,.F.,.F.,(2,2),(2,2),(0.,1.41),(0.,1.),
  .PIECEWISE_BEZIER_KNOTS.);
#394 = CARTESIAN_POINT('',(1.308243103516,0.671621551758,6.E-02));
#395 = CARTESIAN_POINT('',(1.375,0.705,0.535));
#396 = CARTESIAN_POINT('',(1.308243103516,-0.671621551758,6.E-02));
#397 = CARTESIAN_POINT('',(1.375,-0.705,0.535));
#398 = ADVANCED_FACE('',(#399),#416,.F.);
#399 = FACE_BOUND('',#400,.F.);
#400 = EDGE_LOOP('',(#401,#402,#409,#415));
#401 = ORIENTED_EDGE('',*,*,#146,.T.);
#402 = ORIENTED_EDGE('',*,*,#403,.T.);
#403 = EDGE_CURVE('',#140,#404,#406,.T.);
#404 = VERTEX_POINT('',#405);
#405 = CARTESIAN_POINT('',(-1.28,0.8,0.735));
#406 = B_SPLINE_CURVE_WITH_KNOTS('',1,(#407,#408),.UNSPECIFIED.,.F.,.F.,
  (2,2),(0.,1.),.PIECEWISE_BEZIER_KNOTS.);
#407 = CARTESIAN_POINT('',(-1.28,0.8,0.535));
#408 = CARTESIAN_POINT('',(-1.28,0.8,0.735));
#409 = ORIENTED_EDGE('',*,*,#410,.F.);
#410 = EDGE_CURVE('',#234,#404,#411,.T.);
#411 = LINE('',#412,#413);
#412 = CARTESIAN_POINT('',(-1.375,0.705,0.735));
#413 = VECTOR('',#414,1.);
#414 = DIRECTION('',(0.707106781187,0.707106781187,0.));
#415 = ORIENTED_EDGE('',*,*,#233,.F.);
#416 = PLANE('',#417);
#417 = AXIS2_PLACEMENT_3D('',#418,#419,#420);
#418 = CARTESIAN_POINT('',(-1.375,0.705,0.735));
#419 = DIRECTION('',(0.707106781187,-0.707106781187,0.));
#420 = DIRECTION('',(0.707106781187,0.707106781187,0.));
#421 = ADVANCED_FACE('',(#422),#439,.F.);
#422 = FACE_BOUND('',#423,.F.);
#423 = EDGE_LOOP('',(#424,#425,#426,#434));
#424 = ORIENTED_EDGE('',*,*,#256,.T.);
#425 = ORIENTED_EDGE('',*,*,#161,.T.);
#426 = ORIENTED_EDGE('',*,*,#427,.F.);
#427 = EDGE_CURVE('',#428,#162,#430,.T.);
#428 = VERTEX_POINT('',#429);
#429 = CARTESIAN_POINT('',(-1.28,-0.8,0.735));
#430 = LINE('',#431,#432);
#431 = CARTESIAN_POINT('',(-1.28,-0.8,0.735));
#432 = VECTOR('',#433,1.);
#433 = DIRECTION('',(-0.707106781187,0.707106781187,0.));
#434 = ORIENTED_EDGE('',*,*,#435,.F.);
#435 = EDGE_CURVE('',#257,#428,#436,.T.);
#436 = B_SPLINE_CURVE_WITH_KNOTS('',1,(#437,#438),.UNSPECIFIED.,.F.,.F.,
  (2,2),(0.,1.),.PIECEWISE_BEZIER_KNOTS.);
#437 = CARTESIAN_POINT('',(-1.28,-0.8,0.535));
#438 = CARTESIAN_POINT('',(-1.28,-0.8,0.735));
#439 = PLANE('',#440);
#440 = AXIS2_PLACEMENT_3D('',#441,#442,#443);
#441 = CARTESIAN_POINT('',(-1.28,-0.8,0.735));
#442 = DIRECTION('',(0.707106781187,0.707106781187,0.));
#443 = DIRECTION('',(-0.707106781187,0.707106781187,0.));
#444 = ADVANCED_FACE('',(#445),#527,.F.);
#445 = FACE_BOUND('',#446,.F.);
#446 = EDGE_LOOP('',(#447,#448,#449,#457,#465,#473,#481,#489,#497,#505,
    #513,#521));
#447 = ORIENTED_EDGE('',*,*,#427,.T.);
#448 = ORIENTED_EDGE('',*,*,#177,.T.);
#449 = ORIENTED_EDGE('',*,*,#450,.T.);
#450 = EDGE_CURVE('',#170,#451,#453,.T.);
#451 = VERTEX_POINT('',#452);
#452 = CARTESIAN_POINT('',(-1.35,-0.325,0.735));
#453 = LINE('',#454,#455);
#454 = CARTESIAN_POINT('',(-1.375,-0.325,0.735));
#455 = VECTOR('',#456,1.);
#456 = DIRECTION('',(1.,-1.110223024625E-16,0.));
#457 = ORIENTED_EDGE('',*,*,#458,.F.);
#458 = EDGE_CURVE('',#459,#451,#461,.T.);
#459 = VERTEX_POINT('',#460);
#460 = CARTESIAN_POINT('',(-1.35,-0.6925,0.735));
#461 = LINE('',#462,#463);
#462 = CARTESIAN_POINT('',(-1.35,-0.6925,0.735));
#463 = VECTOR('',#464,1.);
#464 = DIRECTION('',(0.,1.,0.));
#465 = ORIENTED_EDGE('',*,*,#466,.F.);
#466 = EDGE_CURVE('',#467,#459,#469,.T.);
#467 = VERTEX_POINT('',#468);
#468 = CARTESIAN_POINT('',(-1.2675,-0.775,0.735));
#469 = LINE('',#470,#471);
#470 = CARTESIAN_POINT('',(-1.2675,-0.775,0.735));
#471 = VECTOR('',#472,1.);
#472 = DIRECTION('',(-0.707106781187,0.707106781187,0.));
#473 = ORIENTED_EDGE('',*,*,#474,.F.);
#474 = EDGE_CURVE('',#475,#467,#477,.T.);
#475 = VERTEX_POINT('',#476);
#476 = CARTESIAN_POINT('',(1.2675,-0.775,0.735));
#477 = LINE('',#478,#479);
#478 = CARTESIAN_POINT('',(1.2675,-0.775,0.735));
#479 = VECTOR('',#480,1.);
#480 = DIRECTION('',(-1.,0.,0.));
#481 = ORIENTED_EDGE('',*,*,#482,.F.);
#482 = EDGE_CURVE('',#483,#475,#485,.T.);
#483 = VERTEX_POINT('',#484);
#484 = CARTESIAN_POINT('',(1.35,-0.6925,0.735));
#485 = LINE('',#486,#487);
#486 = CARTESIAN_POINT('',(1.35,-0.6925,0.735));
#487 = VECTOR('',#488,1.);
#488 = DIRECTION('',(-0.707106781187,-0.707106781187,0.));
#489 = ORIENTED_EDGE('',*,*,#490,.F.);
#490 = EDGE_CURVE('',#491,#483,#493,.T.);
#491 = VERTEX_POINT('',#492);
#492 = CARTESIAN_POINT('',(1.35,-0.325,0.735));
#493 = LINE('',#494,#495);
#494 = CARTESIAN_POINT('',(1.35,0.6925,0.735));
#495 = VECTOR('',#496,1.);
#496 = DIRECTION('',(0.,-1.,0.));
#497 = ORIENTED_EDGE('',*,*,#498,.F.);
#498 = EDGE_CURVE('',#499,#491,#501,.T.);
#499 = VERTEX_POINT('',#500);
#500 = CARTESIAN_POINT('',(1.375,-0.325,0.735));
#501 = LINE('',#502,#503);
#502 = CARTESIAN_POINT('',(1.375,-0.325,0.735));
#503 = VECTOR('',#504,1.);
#504 = DIRECTION('',(-1.,2.22044604925E-16,0.));
#505 = ORIENTED_EDGE('',*,*,#506,.T.);
#506 = EDGE_CURVE('',#499,#507,#509,.T.);
#507 = VERTEX_POINT('',#508);
#508 = CARTESIAN_POINT('',(1.375,-0.705,0.735));
#509 = LINE('',#510,#511);
#510 = CARTESIAN_POINT('',(1.375,0.705,0.735));
#511 = VECTOR('',#512,1.);
#512 = DIRECTION('',(0.,-1.,0.));
#513 = ORIENTED_EDGE('',*,*,#514,.T.);
#514 = EDGE_CURVE('',#507,#515,#517,.T.);
#515 = VERTEX_POINT('',#516);
#516 = CARTESIAN_POINT('',(1.28,-0.8,0.735));
#517 = LINE('',#518,#519);
#518 = CARTESIAN_POINT('',(1.375,-0.705,0.735));
#519 = VECTOR('',#520,1.);
#520 = DIRECTION('',(-0.707106781187,-0.707106781187,0.));
#521 = ORIENTED_EDGE('',*,*,#522,.T.);
#522 = EDGE_CURVE('',#515,#428,#523,.T.);
#523 = LINE('',#524,#525);
#524 = CARTESIAN_POINT('',(1.28,-0.8,0.735));
#525 = VECTOR('',#526,1.);
#526 = DIRECTION('',(-1.,0.,0.));
#527 = PLANE('',#528);
#528 = AXIS2_PLACEMENT_3D('',#529,#530,#531);
#529 = CARTESIAN_POINT('',(-1.3625,-4.954714324773E-17,0.735));
#530 = DIRECTION('',(-7.340317518656E-17,9.85275154485E-18,-1.));
#531 = DIRECTION('',(7.342878714278E-20,1.,9.85275154485E-18));
#532 = ADVANCED_FACE('',(#533),#602,.F.);
#533 = FACE_BOUND('',#534,.F.);
#534 = EDGE_LOOP('',(#535,#536,#537,#545,#554,#562,#570,#578,#587,#595)
  );
#535 = ORIENTED_EDGE('',*,*,#169,.F.);
#536 = ORIENTED_EDGE('',*,*,#209,.T.);
#537 = ORIENTED_EDGE('',*,*,#538,.T.);
#538 = EDGE_CURVE('',#202,#539,#541,.T.);
#539 = VERTEX_POINT('',#540);
#540 = CARTESIAN_POINT('',(-1.523665661432,-0.325,0.224432583147));
#541 = LINE('',#542,#543);
#542 = CARTESIAN_POINT('',(-1.493176930361,-0.325,0.43583778132));
#543 = VECTOR('',#544,1.);
#544 = DIRECTION('',(-0.142742572604,1.584760906992E-17,-0.989759848633)
  );
#545 = ORIENTED_EDGE('',*,*,#546,.T.);
#546 = EDGE_CURVE('',#539,#547,#549,.T.);
#547 = VERTEX_POINT('',#548);
#548 = CARTESIAN_POINT('',(-1.838804142396,-0.325,-4.E-02));
#549 = CIRCLE('',#550,0.32);
#550 = AXIS2_PLACEMENT_3D('',#551,#552,#553);
#551 = CARTESIAN_POINT('',(-1.838804142396,-0.325,0.28));
#552 = DIRECTION('',(1.110223024625E-16,1.,6.255634725081E-34));
#553 = DIRECTION('',(0.984807753012,-1.093356242223E-16,-0.173648177667)
  );
#554 = ORIENTED_EDGE('',*,*,#555,.T.);
#555 = EDGE_CURVE('',#547,#556,#558,.T.);
#556 = VERTEX_POINT('',#557);
#557 = CARTESIAN_POINT('',(-1.9,-0.325,-4.E-02));
#558 = LINE('',#559,#560);
#559 = CARTESIAN_POINT('',(-1.838804142396,-0.325,-4.E-02));
#560 = VECTOR('',#561,1.);
#561 = DIRECTION('',(-1.,1.110223024625E-16,0.));
#562 = ORIENTED_EDGE('',*,*,#563,.T.);
#563 = EDGE_CURVE('',#556,#564,#566,.T.);
#564 = VERTEX_POINT('',#565);
#565 = CARTESIAN_POINT('',(-1.9,-0.325,0.16));
#566 = LINE('',#567,#568);
#567 = CARTESIAN_POINT('',(-1.9,-0.325,-4.E-02));
#568 = VECTOR('',#569,1.);
#569 = DIRECTION('',(0.,0.,1.));
#570 = ORIENTED_EDGE('',*,*,#571,.T.);
#571 = EDGE_CURVE('',#564,#572,#574,.T.);
#572 = VERTEX_POINT('',#573);
#573 = CARTESIAN_POINT('',(-1.838804142396,-0.325,0.16));
#574 = LINE('',#575,#576);
#575 = CARTESIAN_POINT('',(-1.9,-0.325,0.16));
#576 = VECTOR('',#577,1.);
#577 = DIRECTION('',(1.,-1.110223024625E-16,0.));
#578 = ORIENTED_EDGE('',*,*,#579,.T.);
#579 = EDGE_CURVE('',#572,#580,#582,.T.);
#580 = VERTEX_POINT('',#581);
#581 = CARTESIAN_POINT('',(-1.720627212034,-0.325,0.25916221868));
#582 = CIRCLE('',#583,0.12);
#583 = AXIS2_PLACEMENT_3D('',#584,#585,#586);
#584 = CARTESIAN_POINT('',(-1.838804142396,-0.325,0.28));
#585 = DIRECTION('',(-1.110223024625E-16,-1.,2.0070681136E-47));
#586 = DIRECTION('',(1.850371707709E-15,-2.054325274013E-31,-1.));
#587 = ORIENTED_EDGE('',*,*,#588,.T.);
#588 = EDGE_CURVE('',#580,#589,#591,.T.);
#589 = VERTEX_POINT('',#590);
#590 = CARTESIAN_POINT('',(-1.690138480964,-0.325,0.470567416853));
#591 = LINE('',#592,#593);
#592 = CARTESIAN_POINT('',(-1.720627212034,-0.325,0.25916221868));
#593 = VECTOR('',#594,1.);
#594 = DIRECTION('',(0.142742572604,-1.584760906992E-17,0.989759848633)
  );
#595 = ORIENTED_EDGE('',*,*,#596,.T.);
#596 = EDGE_CURVE('',#589,#170,#597,.T.);
#597 = CIRCLE('',#598,0.32);
#598 = AXIS2_PLACEMENT_3D('',#599,#600,#601);
#599 = CARTESIAN_POINT('',(-1.375,-0.325,0.415));
#600 = DIRECTION('',(1.110223024625E-16,1.,6.255634725081E-34));
#601 = DIRECTION('',(-0.984807753012,1.093356242223E-16,0.173648177667)
  );
#602 = PLANE('',#603);
#603 = AXIS2_PLACEMENT_3D('',#604,#605,#606);
#604 = CARTESIAN_POINT('',(-1.610729118287,-0.325,0.344660577966));
#605 = DIRECTION('',(1.110223024625E-16,1.,0.));
#606 = DIRECTION('',(0.,0.,1.));
#607 = ADVANCED_FACE('',(#608),#626,.F.);
#608 = FACE_BOUND('',#609,.F.);
#609 = EDGE_LOOP('',(#610,#611,#619,#625));
#610 = ORIENTED_EDGE('',*,*,#201,.T.);
#611 = ORIENTED_EDGE('',*,*,#612,.T.);
#612 = EDGE_CURVE('',#193,#613,#615,.T.);
#613 = VERTEX_POINT('',#614);
#614 = CARTESIAN_POINT('',(-1.523665661432,0.325,0.224432583147));
#615 = LINE('',#616,#617);
#616 = CARTESIAN_POINT('',(-1.493176930361,0.325,0.43583778132));
#617 = VECTOR('',#618,1.);
#618 = DIRECTION('',(-0.142742572604,1.584760906992E-17,-0.989759848633)
  );
#619 = ORIENTED_EDGE('',*,*,#620,.F.);
#620 = EDGE_CURVE('',#539,#613,#621,.T.);
#621 = LINE('',#622,#623);
#622 = CARTESIAN_POINT('',(-1.523665661432,-0.325,0.224432583147));
#623 = VECTOR('',#624,1.);
#624 = DIRECTION('',(1.110223024625E-16,1.,0.));
#625 = ORIENTED_EDGE('',*,*,#538,.F.);
#626 = PLANE('',#627);
#627 = AXIS2_PLACEMENT_3D('',#628,#629,#630);
#628 = CARTESIAN_POINT('',(-1.493176930361,-0.325,0.43583778132));
#629 = DIRECTION('',(-0.989759848633,1.098854172802E-16,0.142742572604)
  );
#630 = DIRECTION('',(-0.142742572604,1.584760906992E-17,-0.989759848633)
  );
#631 = ADVANCED_FACE('',(#632),#694,.T.);
#632 = FACE_BOUND('',#633,.T.);
#633 = EDGE_LOOP('',(#634,#635,#636,#637,#646,#654,#662,#670,#679,#687)
  );
#634 = ORIENTED_EDGE('',*,*,#224,.F.);
#635 = ORIENTED_EDGE('',*,*,#192,.T.);
#636 = ORIENTED_EDGE('',*,*,#612,.T.);
#637 = ORIENTED_EDGE('',*,*,#638,.T.);
#638 = EDGE_CURVE('',#613,#639,#641,.T.);
#639 = VERTEX_POINT('',#640);
#640 = CARTESIAN_POINT('',(-1.838804142396,0.325,-4.E-02));
#641 = CIRCLE('',#642,0.32);
#642 = AXIS2_PLACEMENT_3D('',#643,#644,#645);
#643 = CARTESIAN_POINT('',(-1.838804142396,0.325,0.28));
#644 = DIRECTION('',(1.110223024625E-16,1.,6.255634725081E-34));
#645 = DIRECTION('',(0.984807753012,-1.093356242223E-16,-0.173648177667)
  );
#646 = ORIENTED_EDGE('',*,*,#647,.T.);
#647 = EDGE_CURVE('',#639,#648,#650,.T.);
#648 = VERTEX_POINT('',#649);
#649 = CARTESIAN_POINT('',(-1.9,0.325,-4.E-02));
#650 = LINE('',#651,#652);
#651 = CARTESIAN_POINT('',(-1.838804142396,0.325,-4.E-02));
#652 = VECTOR('',#653,1.);
#653 = DIRECTION('',(-1.,1.110223024625E-16,0.));
#654 = ORIENTED_EDGE('',*,*,#655,.T.);
#655 = EDGE_CURVE('',#648,#656,#658,.T.);
#656 = VERTEX_POINT('',#657);
#657 = CARTESIAN_POINT('',(-1.9,0.325,0.16));
#658 = LINE('',#659,#660);
#659 = CARTESIAN_POINT('',(-1.9,0.325,-4.E-02));
#660 = VECTOR('',#661,1.);
#661 = DIRECTION('',(0.,0.,1.));
#662 = ORIENTED_EDGE('',*,*,#663,.T.);
#663 = EDGE_CURVE('',#656,#664,#666,.T.);
#664 = VERTEX_POINT('',#665);
#665 = CARTESIAN_POINT('',(-1.838804142396,0.325,0.16));
#666 = LINE('',#667,#668);
#667 = CARTESIAN_POINT('',(-1.9,0.325,0.16));
#668 = VECTOR('',#669,1.);
#669 = DIRECTION('',(1.,-1.110223024625E-16,0.));
#670 = ORIENTED_EDGE('',*,*,#671,.T.);
#671 = EDGE_CURVE('',#664,#672,#674,.T.);
#672 = VERTEX_POINT('',#673);
#673 = CARTESIAN_POINT('',(-1.720627212034,0.325,0.25916221868));
#674 = CIRCLE('',#675,0.12);
#675 = AXIS2_PLACEMENT_3D('',#676,#677,#678);
#676 = CARTESIAN_POINT('',(-1.838804142396,0.325,0.28));
#677 = DIRECTION('',(-1.110223024625E-16,-1.,2.0070681136E-47));
#678 = DIRECTION('',(1.850371707709E-15,-2.054325274013E-31,-1.));
#679 = ORIENTED_EDGE('',*,*,#680,.T.);
#680 = EDGE_CURVE('',#672,#681,#683,.T.);
#681 = VERTEX_POINT('',#682);
#682 = CARTESIAN_POINT('',(-1.690138480964,0.325,0.470567416853));
#683 = LINE('',#684,#685);
#684 = CARTESIAN_POINT('',(-1.720627212034,0.325,0.25916221868));
#685 = VECTOR('',#686,1.);
#686 = DIRECTION('',(0.142742572604,-1.584760906992E-17,0.989759848633)
  );
#687 = ORIENTED_EDGE('',*,*,#688,.T.);
#688 = EDGE_CURVE('',#681,#225,#689,.T.);
#689 = CIRCLE('',#690,0.32);
#690 = AXIS2_PLACEMENT_3D('',#691,#692,#693);
#691 = CARTESIAN_POINT('',(-1.375,0.325,0.415));
#692 = DIRECTION('',(1.110223024625E-16,1.,6.255634725081E-34));
#693 = DIRECTION('',(-0.984807753012,1.093356242223E-16,0.173648177667)
  );
#694 = PLANE('',#695);
#695 = AXIS2_PLACEMENT_3D('',#696,#697,#698);
#696 = CARTESIAN_POINT('',(-1.610729118287,0.325,0.344660577966));
#697 = DIRECTION('',(1.110223024625E-16,1.,0.));
#698 = DIRECTION('',(0.,0.,1.));
#699 = ADVANCED_FACE('',(#700),#782,.F.);
#700 = FACE_BOUND('',#701,.F.);
#701 = EDGE_LOOP('',(#702,#710,#711,#712,#720,#728,#736,#744,#752,#760,
    #768,#776));
#702 = ORIENTED_EDGE('',*,*,#703,.F.);
#703 = EDGE_CURVE('',#225,#704,#706,.T.);
#704 = VERTEX_POINT('',#705);
#705 = CARTESIAN_POINT('',(-1.35,0.325,0.735));
#706 = LINE('',#707,#708);
#707 = CARTESIAN_POINT('',(-1.375,0.325,0.735));
#708 = VECTOR('',#709,1.);
#709 = DIRECTION('',(1.,-1.110223024625E-16,0.));
#710 = ORIENTED_EDGE('',*,*,#240,.T.);
#711 = ORIENTED_EDGE('',*,*,#410,.T.);
#712 = ORIENTED_EDGE('',*,*,#713,.T.);
#713 = EDGE_CURVE('',#404,#714,#716,.T.);
#714 = VERTEX_POINT('',#715);
#715 = CARTESIAN_POINT('',(1.28,0.8,0.735));
#716 = LINE('',#717,#718);
#717 = CARTESIAN_POINT('',(-1.28,0.8,0.735));
#718 = VECTOR('',#719,1.);
#719 = DIRECTION('',(1.,0.,0.));
#720 = ORIENTED_EDGE('',*,*,#721,.T.);
#721 = EDGE_CURVE('',#714,#722,#724,.T.);
#722 = VERTEX_POINT('',#723);
#723 = CARTESIAN_POINT('',(1.375,0.705,0.735));
#724 = LINE('',#725,#726);
#725 = CARTESIAN_POINT('',(1.28,0.8,0.735));
#726 = VECTOR('',#727,1.);
#727 = DIRECTION('',(0.707106781187,-0.707106781187,0.));
#728 = ORIENTED_EDGE('',*,*,#729,.T.);
#729 = EDGE_CURVE('',#722,#730,#732,.T.);
#730 = VERTEX_POINT('',#731);
#731 = CARTESIAN_POINT('',(1.375,0.325,0.735));
#732 = LINE('',#733,#734);
#733 = CARTESIAN_POINT('',(1.375,0.705,0.735));
#734 = VECTOR('',#735,1.);
#735 = DIRECTION('',(0.,-1.,0.));
#736 = ORIENTED_EDGE('',*,*,#737,.T.);
#737 = EDGE_CURVE('',#730,#738,#740,.T.);
#738 = VERTEX_POINT('',#739);
#739 = CARTESIAN_POINT('',(1.35,0.325,0.735));
#740 = LINE('',#741,#742);
#741 = CARTESIAN_POINT('',(1.375,0.325,0.735));
#742 = VECTOR('',#743,1.);
#743 = DIRECTION('',(-1.,2.22044604925E-16,0.));
#744 = ORIENTED_EDGE('',*,*,#745,.F.);
#745 = EDGE_CURVE('',#746,#738,#748,.T.);
#746 = VERTEX_POINT('',#747);
#747 = CARTESIAN_POINT('',(1.35,0.6925,0.735));
#748 = LINE('',#749,#750);
#749 = CARTESIAN_POINT('',(1.35,0.6925,0.735));
#750 = VECTOR('',#751,1.);
#751 = DIRECTION('',(0.,-1.,0.));
#752 = ORIENTED_EDGE('',*,*,#753,.F.);
#753 = EDGE_CURVE('',#754,#746,#756,.T.);
#754 = VERTEX_POINT('',#755);
#755 = CARTESIAN_POINT('',(1.2675,0.775,0.735));
#756 = LINE('',#757,#758);
#757 = CARTESIAN_POINT('',(1.2675,0.775,0.735));
#758 = VECTOR('',#759,1.);
#759 = DIRECTION('',(0.707106781187,-0.707106781187,0.));
#760 = ORIENTED_EDGE('',*,*,#761,.F.);
#761 = EDGE_CURVE('',#762,#754,#764,.T.);
#762 = VERTEX_POINT('',#763);
#763 = CARTESIAN_POINT('',(-1.2675,0.775,0.735));
#764 = LINE('',#765,#766);
#765 = CARTESIAN_POINT('',(-1.2675,0.775,0.735));
#766 = VECTOR('',#767,1.);
#767 = DIRECTION('',(1.,0.,0.));
#768 = ORIENTED_EDGE('',*,*,#769,.F.);
#769 = EDGE_CURVE('',#770,#762,#772,.T.);
#770 = VERTEX_POINT('',#771);
#771 = CARTESIAN_POINT('',(-1.35,0.6925,0.735));
#772 = LINE('',#773,#774);
#773 = CARTESIAN_POINT('',(-1.35,0.6925,0.735));
#774 = VECTOR('',#775,1.);
#775 = DIRECTION('',(0.707106781187,0.707106781187,0.));
#776 = ORIENTED_EDGE('',*,*,#777,.F.);
#777 = EDGE_CURVE('',#704,#770,#778,.T.);
#778 = LINE('',#779,#780);
#779 = CARTESIAN_POINT('',(-1.35,-0.6925,0.735));
#780 = VECTOR('',#781,1.);
#781 = DIRECTION('',(0.,1.,0.));
#782 = PLANE('',#783);
#783 = AXIS2_PLACEMENT_3D('',#784,#785,#786);
#784 = CARTESIAN_POINT('',(-1.3625,-4.954714324773E-17,0.735));
#785 = DIRECTION('',(-7.340317518656E-17,9.85275154485E-18,-1.));
#786 = DIRECTION('',(7.342878714278E-20,1.,9.85275154485E-18));
#787 = ADVANCED_FACE('',(#788),#798,.F.);
#788 = FACE_BOUND('',#789,.F.);
#789 = EDGE_LOOP('',(#790,#791,#792,#793));
#790 = ORIENTED_EDGE('',*,*,#279,.T.);
#791 = ORIENTED_EDGE('',*,*,#435,.T.);
#792 = ORIENTED_EDGE('',*,*,#522,.F.);
#793 = ORIENTED_EDGE('',*,*,#794,.F.);
#794 = EDGE_CURVE('',#280,#515,#795,.T.);
#795 = B_SPLINE_CURVE_WITH_KNOTS('',1,(#796,#797),.UNSPECIFIED.,.F.,.F.,
  (2,2),(0.,1.),.PIECEWISE_BEZIER_KNOTS.);
#796 = CARTESIAN_POINT('',(1.28,-0.8,0.535));
#797 = CARTESIAN_POINT('',(1.28,-0.8,0.735));
#798 = PLANE('',#799);
#799 = AXIS2_PLACEMENT_3D('',#800,#801,#802);
#800 = CARTESIAN_POINT('',(1.28,-0.8,0.735));
#801 = DIRECTION('',(0.,1.,0.));
#802 = DIRECTION('',(-1.,0.,0.));
#803 = ADVANCED_FACE('',(#804),#814,.F.);
#804 = FACE_BOUND('',#805,.F.);
#805 = EDGE_LOOP('',(#806,#807,#812,#813));
#806 = ORIENTED_EDGE('',*,*,#308,.T.);
#807 = ORIENTED_EDGE('',*,*,#808,.T.);
#808 = EDGE_CURVE('',#302,#714,#809,.T.);
#809 = B_SPLINE_CURVE_WITH_KNOTS('',1,(#810,#811),.UNSPECIFIED.,.F.,.F.,
  (2,2),(0.,1.),.PIECEWISE_BEZIER_KNOTS.);
#810 = CARTESIAN_POINT('',(1.28,0.8,0.535));
#811 = CARTESIAN_POINT('',(1.28,0.8,0.735));
#812 = ORIENTED_EDGE('',*,*,#713,.F.);
#813 = ORIENTED_EDGE('',*,*,#403,.F.);
#814 = PLANE('',#815);
#815 = AXIS2_PLACEMENT_3D('',#816,#817,#818);
#816 = CARTESIAN_POINT('',(-1.28,0.8,0.735));
#817 = DIRECTION('',(0.,-1.,0.));
#818 = DIRECTION('',(1.,0.,0.));
#819 = ADVANCED_FACE('',(#820),#830,.F.);
#820 = FACE_BOUND('',#821,.F.);
#821 = EDGE_LOOP('',(#822,#823,#824,#825));
#822 = ORIENTED_EDGE('',*,*,#325,.T.);
#823 = ORIENTED_EDGE('',*,*,#794,.T.);
#824 = ORIENTED_EDGE('',*,*,#514,.F.);
#825 = ORIENTED_EDGE('',*,*,#826,.F.);
#826 = EDGE_CURVE('',#326,#507,#827,.T.);
#827 = B_SPLINE_CURVE_WITH_KNOTS('',1,(#828,#829),.UNSPECIFIED.,.F.,.F.,
  (2,2),(0.,1.),.PIECEWISE_BEZIER_KNOTS.);
#828 = CARTESIAN_POINT('',(1.375,-0.705,0.535));
#829 = CARTESIAN_POINT('',(1.375,-0.705,0.735));
#830 = PLANE('',#831);
#831 = AXIS2_PLACEMENT_3D('',#832,#833,#834);
#832 = CARTESIAN_POINT('',(1.375,-0.705,0.735));
#833 = DIRECTION('',(-0.707106781187,0.707106781187,0.));
#834 = DIRECTION('',(-0.707106781187,-0.707106781187,0.));
#835 = ADVANCED_FACE('',(#836),#846,.F.);
#836 = FACE_BOUND('',#837,.F.);
#837 = EDGE_LOOP('',(#838,#839,#844,#845));
#838 = ORIENTED_EDGE('',*,*,#354,.T.);
#839 = ORIENTED_EDGE('',*,*,#840,.T.);
#840 = EDGE_CURVE('',#348,#722,#841,.T.);
#841 = B_SPLINE_CURVE_WITH_KNOTS('',1,(#842,#843),.UNSPECIFIED.,.F.,.F.,
  (2,2),(0.,1.),.PIECEWISE_BEZIER_KNOTS.);
#842 = CARTESIAN_POINT('',(1.375,0.705,0.535));
#843 = CARTESIAN_POINT('',(1.375,0.705,0.735));
#844 = ORIENTED_EDGE('',*,*,#721,.F.);
#845 = ORIENTED_EDGE('',*,*,#808,.F.);
#846 = PLANE('',#847);
#847 = AXIS2_PLACEMENT_3D('',#848,#849,#850);
#848 = CARTESIAN_POINT('',(1.28,0.8,0.735));
#849 = DIRECTION('',(-0.707106781187,-0.707106781187,0.));
#850 = DIRECTION('',(0.707106781187,-0.707106781187,0.));
#851 = ADVANCED_FACE('',(#852),#863,.F.);
#852 = FACE_BOUND('',#853,.F.);
#853 = EDGE_LOOP('',(#854,#855,#856,#862));
#854 = ORIENTED_EDGE('',*,*,#840,.F.);
#855 = ORIENTED_EDGE('',*,*,#387,.T.);
#856 = ORIENTED_EDGE('',*,*,#857,.T.);
#857 = EDGE_CURVE('',#380,#730,#858,.T.);
#858 = LINE('',#859,#860);
#859 = CARTESIAN_POINT('',(1.375,0.325,0.539830288983));
#860 = VECTOR('',#861,1.);
#861 = DIRECTION('',(0.,0.,1.));
#862 = ORIENTED_EDGE('',*,*,#729,.F.);
#863 = PLANE('',#864);
#864 = AXIS2_PLACEMENT_3D('',#865,#866,#867);
#865 = CARTESIAN_POINT('',(1.375,0.705,0.735));
#866 = DIRECTION('',(-1.,0.,0.));
#867 = DIRECTION('',(0.,-1.,0.));
#868 = ADVANCED_FACE('',(#869),#896,.F.);
#869 = FACE_BOUND('',#870,.F.);
#870 = EDGE_LOOP('',(#871,#872,#881,#889));
#871 = ORIENTED_EDGE('',*,*,#379,.T.);
#872 = ORIENTED_EDGE('',*,*,#873,.T.);
#873 = EDGE_CURVE('',#372,#874,#876,.T.);
#874 = VERTEX_POINT('',#875);
#875 = CARTESIAN_POINT('',(1.493176930361,-0.325,0.43583778132));
#876 = CIRCLE('',#877,0.12);
#877 = AXIS2_PLACEMENT_3D('',#878,#879,#880);
#878 = CARTESIAN_POINT('',(1.375,-0.325,0.415));
#879 = DIRECTION('',(2.22044604925E-16,1.,-2.007068112974E-47));
#880 = DIRECTION('',(-9.251858538543E-16,2.054325274013E-31,1.));
#881 = ORIENTED_EDGE('',*,*,#882,.F.);
#882 = EDGE_CURVE('',#883,#874,#885,.T.);
#883 = VERTEX_POINT('',#884);
#884 = CARTESIAN_POINT('',(1.493176930361,0.325,0.43583778132));
#885 = LINE('',#886,#887);
#886 = CARTESIAN_POINT('',(1.493176930361,0.325,0.43583778132));
#887 = VECTOR('',#888,1.);
#888 = DIRECTION('',(-2.22044604925E-16,-1.,0.));
#889 = ORIENTED_EDGE('',*,*,#890,.F.);
#890 = EDGE_CURVE('',#380,#883,#891,.T.);
#891 = CIRCLE('',#892,0.12);
#892 = AXIS2_PLACEMENT_3D('',#893,#894,#895);
#893 = CARTESIAN_POINT('',(1.375,0.325,0.415));
#894 = DIRECTION('',(2.22044604925E-16,1.,-2.007068112974E-47));
#895 = DIRECTION('',(-9.251858538543E-16,2.054325274013E-31,1.));
#896 = CYLINDRICAL_SURFACE('',#897,0.12);
#897 = AXIS2_PLACEMENT_3D('',#898,#899,#900);
#898 = CARTESIAN_POINT('',(1.375,0.325,0.415));
#899 = DIRECTION('',(2.22044604925E-16,1.,0.));
#900 = DIRECTION('',(-9.251858538543E-16,2.054325274013E-31,1.));
#901 = ADVANCED_FACE('',(#902),#913,.F.);
#902 = FACE_BOUND('',#903,.F.);
#903 = EDGE_LOOP('',(#904,#910,#911,#912));
#904 = ORIENTED_EDGE('',*,*,#905,.F.);
#905 = EDGE_CURVE('',#372,#499,#906,.T.);
#906 = LINE('',#907,#908);
#907 = CARTESIAN_POINT('',(1.375,-0.325,0.539830288983));
#908 = VECTOR('',#909,1.);
#909 = DIRECTION('',(0.,0.,1.));
#910 = ORIENTED_EDGE('',*,*,#371,.T.);
#911 = ORIENTED_EDGE('',*,*,#826,.T.);
#912 = ORIENTED_EDGE('',*,*,#506,.F.);
#913 = PLANE('',#914);
#914 = AXIS2_PLACEMENT_3D('',#915,#916,#917);
#915 = CARTESIAN_POINT('',(1.375,0.705,0.735));
#916 = DIRECTION('',(-1.,0.,0.));
#917 = DIRECTION('',(0.,-1.,0.));
#918 = ADVANCED_FACE('',(#919),#935,.F.);
#919 = FACE_BOUND('',#920,.F.);
#920 = EDGE_LOOP('',(#921,#922,#928,#929));
#921 = ORIENTED_EDGE('',*,*,#737,.F.);
#922 = ORIENTED_EDGE('',*,*,#923,.T.);
#923 = EDGE_CURVE('',#730,#499,#924,.T.);
#924 = LINE('',#925,#926);
#925 = CARTESIAN_POINT('',(1.375,0.325,0.735));
#926 = VECTOR('',#927,1.);
#927 = DIRECTION('',(-2.22044604925E-16,-1.,0.));
#928 = ORIENTED_EDGE('',*,*,#498,.T.);
#929 = ORIENTED_EDGE('',*,*,#930,.F.);
#930 = EDGE_CURVE('',#738,#491,#931,.T.);
#931 = LINE('',#932,#933);
#932 = CARTESIAN_POINT('',(1.35,0.6925,0.735));
#933 = VECTOR('',#934,1.);
#934 = DIRECTION('',(0.,-1.,0.));
#935 = PLANE('',#936);
#936 = AXIS2_PLACEMENT_3D('',#937,#938,#939);
#937 = CARTESIAN_POINT('',(1.375,0.325,0.735));
#938 = DIRECTION('',(0.,0.,-1.));
#939 = DIRECTION('',(-1.,2.22044604925E-16,0.));
#940 = ADVANCED_FACE('',(#941),#966,.F.);
#941 = FACE_BOUND('',#942,.F.);
#942 = EDGE_LOOP('',(#943,#944,#945,#946,#953,#961));
#943 = ORIENTED_EDGE('',*,*,#745,.T.);
#944 = ORIENTED_EDGE('',*,*,#930,.T.);
#945 = ORIENTED_EDGE('',*,*,#490,.T.);
#946 = ORIENTED_EDGE('',*,*,#947,.T.);
#947 = EDGE_CURVE('',#483,#948,#950,.T.);
#948 = VERTEX_POINT('',#949);
#949 = CARTESIAN_POINT('',(1.283243103516,-0.659121551758,1.21));
#950 = B_SPLINE_CURVE_WITH_KNOTS('',1,(#951,#952),.UNSPECIFIED.,.F.,.F.,
  (2,2),(0.,1.),.PIECEWISE_BEZIER_KNOTS.);
#951 = CARTESIAN_POINT('',(1.35,-0.6925,0.735));
#952 = CARTESIAN_POINT('',(1.283243103516,-0.659121551758,1.21));
#953 = ORIENTED_EDGE('',*,*,#954,.F.);
#954 = EDGE_CURVE('',#955,#948,#957,.T.);
#955 = VERTEX_POINT('',#956);
#956 = CARTESIAN_POINT('',(1.283243103516,0.659121551758,1.21));
#957 = LINE('',#958,#959);
#958 = CARTESIAN_POINT('',(1.283243103516,0.659121551758,1.21));
#959 = VECTOR('',#960,1.);
#960 = DIRECTION('',(0.,-1.,0.));
#961 = ORIENTED_EDGE('',*,*,#962,.F.);
#962 = EDGE_CURVE('',#746,#955,#963,.T.);
#963 = B_SPLINE_CURVE_WITH_KNOTS('',1,(#964,#965),.UNSPECIFIED.,.F.,.F.,
  (2,2),(0.,1.),.PIECEWISE_BEZIER_KNOTS.);
#964 = CARTESIAN_POINT('',(1.35,0.6925,0.735));
#965 = CARTESIAN_POINT('',(1.283243103516,0.659121551758,1.21));
#966 = B_SPLINE_SURFACE_WITH_KNOTS('',1,1,(
    (#967,#968)
    ,(#969,#970
    )),.UNSPECIFIED.,.F.,.F.,.F.,(2,2),(2,2),(0.,1.385),(0.,1.),
  .PIECEWISE_BEZIER_KNOTS.);
#967 = CARTESIAN_POINT('',(1.35,0.6925,0.735));
#968 = CARTESIAN_POINT('',(1.283243103516,0.659121551758,1.21));
#969 = CARTESIAN_POINT('',(1.35,-0.6925,0.735));
#970 = CARTESIAN_POINT('',(1.283243103516,-0.659121551758,1.21));
#971 = ADVANCED_FACE('',(#972),#989,.F.);
#972 = FACE_BOUND('',#973,.F.);
#973 = EDGE_LOOP('',(#974,#975,#982,#988));
#974 = ORIENTED_EDGE('',*,*,#482,.T.);
#975 = ORIENTED_EDGE('',*,*,#976,.T.);
#976 = EDGE_CURVE('',#475,#977,#979,.T.);
#977 = VERTEX_POINT('',#978);
#978 = CARTESIAN_POINT('',(1.234121551758,-0.708243103516,1.21));
#979 = B_SPLINE_CURVE_WITH_KNOTS('',1,(#980,#981),.UNSPECIFIED.,.F.,.F.,
  (2,2),(0.,1.),.PIECEWISE_BEZIER_KNOTS.);
#980 = CARTESIAN_POINT('',(1.2675,-0.775,0.735));
#981 = CARTESIAN_POINT('',(1.234121551758,-0.708243103516,1.21));
#982 = ORIENTED_EDGE('',*,*,#983,.F.);
#983 = EDGE_CURVE('',#948,#977,#984,.T.);
#984 = LINE('',#985,#986);
#985 = CARTESIAN_POINT('',(1.283243103516,-0.659121551758,1.21));
#986 = VECTOR('',#987,1.);
#987 = DIRECTION('',(-0.707106781187,-0.707106781187,0.));
#988 = ORIENTED_EDGE('',*,*,#947,.F.);
#989 = B_SPLINE_SURFACE_WITH_KNOTS('',1,1,(
    (#990,#991)
    ,(#992,#993
    )),.UNSPECIFIED.,.F.,.F.,.F.,(2,2),(2,2),(0.,0.116672618896),(0.,1.)
  ,.PIECEWISE_BEZIER_KNOTS.);
#990 = CARTESIAN_POINT('',(1.35,-0.6925,0.735));
#991 = CARTESIAN_POINT('',(1.283243103516,-0.659121551758,1.21));
#992 = CARTESIAN_POINT('',(1.2675,-0.775,0.735));
#993 = CARTESIAN_POINT('',(1.234121551758,-0.708243103516,1.21));
#994 = ADVANCED_FACE('',(#995),#1012,.F.);
#995 = FACE_BOUND('',#996,.F.);
#996 = EDGE_LOOP('',(#997,#998,#1005,#1011));
#997 = ORIENTED_EDGE('',*,*,#474,.T.);
#998 = ORIENTED_EDGE('',*,*,#999,.T.);
#999 = EDGE_CURVE('',#467,#1000,#1002,.T.);
#1000 = VERTEX_POINT('',#1001);
#1001 = CARTESIAN_POINT('',(-1.234121551758,-0.708243103516,1.21));
#1002 = B_SPLINE_CURVE_WITH_KNOTS('',1,(#1003,#1004),.UNSPECIFIED.,.F.,
  .F.,(2,2),(0.,1.),.PIECEWISE_BEZIER_KNOTS.);
#1003 = CARTESIAN_POINT('',(-1.2675,-0.775,0.735));
#1004 = CARTESIAN_POINT('',(-1.234121551758,-0.708243103516,1.21));
#1005 = ORIENTED_EDGE('',*,*,#1006,.F.);
#1006 = EDGE_CURVE('',#977,#1000,#1007,.T.);
#1007 = LINE('',#1008,#1009);
#1008 = CARTESIAN_POINT('',(1.234121551758,-0.708243103516,1.21));
#1009 = VECTOR('',#1010,1.);
#1010 = DIRECTION('',(-1.,0.,0.));
#1011 = ORIENTED_EDGE('',*,*,#976,.F.);
#1012 = B_SPLINE_SURFACE_WITH_KNOTS('',1,1,(
    (#1013,#1014)
    ,(#1015,#1016
    )),.UNSPECIFIED.,.F.,.F.,.F.,(2,2),(2,2),(0.,2.535),(0.,1.),
  .PIECEWISE_BEZIER_KNOTS.);
#1013 = CARTESIAN_POINT('',(1.2675,-0.775,0.735));
#1014 = CARTESIAN_POINT('',(1.234121551758,-0.708243103516,1.21));
#1015 = CARTESIAN_POINT('',(-1.2675,-0.775,0.735));
#1016 = CARTESIAN_POINT('',(-1.234121551758,-0.708243103516,1.21));
#1017 = ADVANCED_FACE('',(#1018),#1035,.F.);
#1018 = FACE_BOUND('',#1019,.F.);
#1019 = EDGE_LOOP('',(#1020,#1021,#1028,#1034));
#1020 = ORIENTED_EDGE('',*,*,#466,.T.);
#1021 = ORIENTED_EDGE('',*,*,#1022,.T.);
#1022 = EDGE_CURVE('',#459,#1023,#1025,.T.);
#1023 = VERTEX_POINT('',#1024);
#1024 = CARTESIAN_POINT('',(-1.283243103516,-0.659121551758,1.21));
#1025 = B_SPLINE_CURVE_WITH_KNOTS('',1,(#1026,#1027),.UNSPECIFIED.,.F.,
  .F.,(2,2),(0.,1.),.PIECEWISE_BEZIER_KNOTS.);
#1026 = CARTESIAN_POINT('',(-1.35,-0.6925,0.735));
#1027 = CARTESIAN_POINT('',(-1.283243103516,-0.659121551758,1.21));
#1028 = ORIENTED_EDGE('',*,*,#1029,.F.);
#1029 = EDGE_CURVE('',#1000,#1023,#1030,.T.);
#1030 = LINE('',#1031,#1032);
#1031 = CARTESIAN_POINT('',(-1.234121551758,-0.708243103516,1.21));
#1032 = VECTOR('',#1033,1.);
#1033 = DIRECTION('',(-0.707106781187,0.707106781187,0.));
#1034 = ORIENTED_EDGE('',*,*,#999,.F.);
#1035 = B_SPLINE_SURFACE_WITH_KNOTS('',1,1,(
    (#1036,#1037)
    ,(#1038,#1039
    )),.UNSPECIFIED.,.F.,.F.,.F.,(2,2),(2,2),(0.,0.116672618896),(0.,1.)
  ,.PIECEWISE_BEZIER_KNOTS.);
#1036 = CARTESIAN_POINT('',(-1.2675,-0.775,0.735));
#1037 = CARTESIAN_POINT('',(-1.234121551758,-0.708243103516,1.21));
#1038 = CARTESIAN_POINT('',(-1.35,-0.6925,0.735));
#1039 = CARTESIAN_POINT('',(-1.283243103516,-0.659121551758,1.21));
#1040 = ADVANCED_FACE('',(#1041),#1065,.F.);
#1041 = FACE_BOUND('',#1042,.F.);
#1042 = EDGE_LOOP('',(#1043,#1044,#1050,#1051,#1058,#1064));
#1043 = ORIENTED_EDGE('',*,*,#458,.T.);
#1044 = ORIENTED_EDGE('',*,*,#1045,.T.);
#1045 = EDGE_CURVE('',#451,#704,#1046,.T.);
#1046 = LINE('',#1047,#1048);
#1047 = CARTESIAN_POINT('',(-1.35,-0.6925,0.735));
#1048 = VECTOR('',#1049,1.);
#1049 = DIRECTION('',(0.,1.,0.));
#1050 = ORIENTED_EDGE('',*,*,#777,.T.);
#1051 = ORIENTED_EDGE('',*,*,#1052,.T.);
#1052 = EDGE_CURVE('',#770,#1053,#1055,.T.);
#1053 = VERTEX_POINT('',#1054);
#1054 = CARTESIAN_POINT('',(-1.283243103516,0.659121551758,1.21));
#1055 = B_SPLINE_CURVE_WITH_KNOTS('',1,(#1056,#1057),.UNSPECIFIED.,.F.,
  .F.,(2,2),(0.,1.),.PIECEWISE_BEZIER_KNOTS.);
#1056 = CARTESIAN_POINT('',(-1.35,0.6925,0.735));
#1057 = CARTESIAN_POINT('',(-1.283243103516,0.659121551758,1.21));
#1058 = ORIENTED_EDGE('',*,*,#1059,.F.);
#1059 = EDGE_CURVE('',#1023,#1053,#1060,.T.);
#1060 = LINE('',#1061,#1062);
#1061 = CARTESIAN_POINT('',(-1.283243103516,-0.659121551758,1.21));
#1062 = VECTOR('',#1063,1.);
#1063 = DIRECTION('',(0.,1.,0.));
#1064 = ORIENTED_EDGE('',*,*,#1022,.F.);
#1065 = B_SPLINE_SURFACE_WITH_KNOTS('',1,1,(
    (#1066,#1067)
    ,(#1068,#1069
    )),.UNSPECIFIED.,.F.,.F.,.F.,(2,2),(2,2),(0.,1.385),(0.,1.),
  .PIECEWISE_BEZIER_KNOTS.);
#1066 = CARTESIAN_POINT('',(-1.35,-0.6925,0.735));
#1067 = CARTESIAN_POINT('',(-1.283243103516,-0.659121551758,1.21));
#1068 = CARTESIAN_POINT('',(-1.35,0.6925,0.735));
#1069 = CARTESIAN_POINT('',(-1.283243103516,0.659121551758,1.21));
#1070 = ADVANCED_FACE('',(#1071),#1082,.F.);
#1071 = FACE_BOUND('',#1072,.F.);
#1072 = EDGE_LOOP('',(#1073,#1074,#1080,#1081));
#1073 = ORIENTED_EDGE('',*,*,#450,.F.);
#1074 = ORIENTED_EDGE('',*,*,#1075,.T.);
#1075 = EDGE_CURVE('',#170,#225,#1076,.T.);
#1076 = LINE('',#1077,#1078);
#1077 = CARTESIAN_POINT('',(-1.375,-0.325,0.735));
#1078 = VECTOR('',#1079,1.);
#1079 = DIRECTION('',(1.110223024625E-16,1.,0.));
#1080 = ORIENTED_EDGE('',*,*,#703,.T.);
#1081 = ORIENTED_EDGE('',*,*,#1045,.F.);
#1082 = PLANE('',#1083);
#1083 = AXIS2_PLACEMENT_3D('',#1084,#1085,#1086);
#1084 = CARTESIAN_POINT('',(-1.375,-0.325,0.735));
#1085 = DIRECTION('',(0.,0.,-1.));
#1086 = DIRECTION('',(1.,-1.110223024625E-16,0.));
#1087 = ADVANCED_FACE('',(#1088),#1099,.T.);
#1088 = FACE_BOUND('',#1089,.T.);
#1089 = EDGE_LOOP('',(#1090,#1091,#1092,#1093));
#1090 = ORIENTED_EDGE('',*,*,#596,.T.);
#1091 = ORIENTED_EDGE('',*,*,#1075,.T.);
#1092 = ORIENTED_EDGE('',*,*,#688,.F.);
#1093 = ORIENTED_EDGE('',*,*,#1094,.F.);
#1094 = EDGE_CURVE('',#589,#681,#1095,.T.);
#1095 = LINE('',#1096,#1097);
#1096 = CARTESIAN_POINT('',(-1.690138480964,-0.325,0.470567416853));
#1097 = VECTOR('',#1098,1.);
#1098 = DIRECTION('',(1.110223024625E-16,1.,0.));
#1099 = CYLINDRICAL_SURFACE('',#1100,0.32);
#1100 = AXIS2_PLACEMENT_3D('',#1101,#1102,#1103);
#1101 = CARTESIAN_POINT('',(-1.375,-0.325,0.415));
#1102 = DIRECTION('',(-1.110223024625E-16,-1.,-0.));
#1103 = DIRECTION('',(-0.984807753012,1.093356242223E-16,0.173648177667)
  );
#1104 = ADVANCED_FACE('',(#1105),#1116,.F.);
#1105 = FACE_BOUND('',#1106,.F.);
#1106 = EDGE_LOOP('',(#1107,#1113,#1114,#1115));
#1107 = ORIENTED_EDGE('',*,*,#1108,.T.);
#1108 = EDGE_CURVE('',#580,#672,#1109,.T.);
#1109 = LINE('',#1110,#1111);
#1110 = CARTESIAN_POINT('',(-1.720627212034,-0.325,0.25916221868));
#1111 = VECTOR('',#1112,1.);
#1112 = DIRECTION('',(1.110223024625E-16,1.,0.));
#1113 = ORIENTED_EDGE('',*,*,#680,.T.);
#1114 = ORIENTED_EDGE('',*,*,#1094,.F.);
#1115 = ORIENTED_EDGE('',*,*,#588,.F.);
#1116 = PLANE('',#1117);
#1117 = AXIS2_PLACEMENT_3D('',#1118,#1119,#1120);
#1118 = CARTESIAN_POINT('',(-1.720627212034,-0.325,0.25916221868));
#1119 = DIRECTION('',(0.989759848633,-1.098854172802E-16,-0.142742572604
    ));
#1120 = DIRECTION('',(0.142742572604,-1.584760906992E-17,0.989759848633)
  );
#1121 = ADVANCED_FACE('',(#1122),#1133,.F.);
#1122 = FACE_BOUND('',#1123,.F.);
#1123 = EDGE_LOOP('',(#1124,#1130,#1131,#1132));
#1124 = ORIENTED_EDGE('',*,*,#1125,.T.);
#1125 = EDGE_CURVE('',#572,#664,#1126,.T.);
#1126 = LINE('',#1127,#1128);
#1127 = CARTESIAN_POINT('',(-1.838804142396,-0.325,0.16));
#1128 = VECTOR('',#1129,1.);
#1129 = DIRECTION('',(1.110223024625E-16,1.,0.));
#1130 = ORIENTED_EDGE('',*,*,#671,.T.);
#1131 = ORIENTED_EDGE('',*,*,#1108,.F.);
#1132 = ORIENTED_EDGE('',*,*,#579,.F.);
#1133 = CYLINDRICAL_SURFACE('',#1134,0.12);
#1134 = AXIS2_PLACEMENT_3D('',#1135,#1136,#1137);
#1135 = CARTESIAN_POINT('',(-1.838804142396,-0.325,0.28));
#1136 = DIRECTION('',(-1.110223024625E-16,-1.,0.));
#1137 = DIRECTION('',(1.850371707709E-15,-2.054325274013E-31,-1.));
#1138 = ADVANCED_FACE('',(#1139),#1150,.F.);
#1139 = FACE_BOUND('',#1140,.F.);
#1140 = EDGE_LOOP('',(#1141,#1147,#1148,#1149));
#1141 = ORIENTED_EDGE('',*,*,#1142,.T.);
#1142 = EDGE_CURVE('',#564,#656,#1143,.T.);
#1143 = LINE('',#1144,#1145);
#1144 = CARTESIAN_POINT('',(-1.9,-0.325,0.16));
#1145 = VECTOR('',#1146,1.);
#1146 = DIRECTION('',(1.110223024625E-16,1.,0.));
#1147 = ORIENTED_EDGE('',*,*,#663,.T.);
#1148 = ORIENTED_EDGE('',*,*,#1125,.F.);
#1149 = ORIENTED_EDGE('',*,*,#571,.F.);
#1150 = PLANE('',#1151);
#1151 = AXIS2_PLACEMENT_3D('',#1152,#1153,#1154);
#1152 = CARTESIAN_POINT('',(-1.9,-0.325,0.16));
#1153 = DIRECTION('',(0.,0.,-1.));
#1154 = DIRECTION('',(1.,-1.110223024625E-16,0.));
#1155 = ADVANCED_FACE('',(#1156),#1167,.F.);
#1156 = FACE_BOUND('',#1157,.F.);
#1157 = EDGE_LOOP('',(#1158,#1164,#1165,#1166));
#1158 = ORIENTED_EDGE('',*,*,#1159,.T.);
#1159 = EDGE_CURVE('',#556,#648,#1160,.T.);
#1160 = LINE('',#1161,#1162);
#1161 = CARTESIAN_POINT('',(-1.9,-0.325,-4.E-02));
#1162 = VECTOR('',#1163,1.);
#1163 = DIRECTION('',(1.110223024625E-16,1.,0.));
#1164 = ORIENTED_EDGE('',*,*,#655,.T.);
#1165 = ORIENTED_EDGE('',*,*,#1142,.F.);
#1166 = ORIENTED_EDGE('',*,*,#563,.F.);
#1167 = PLANE('',#1168);
#1168 = AXIS2_PLACEMENT_3D('',#1169,#1170,#1171);
#1169 = CARTESIAN_POINT('',(-1.9,-0.325,-4.E-02));
#1170 = DIRECTION('',(1.,-1.110223024625E-16,0.));
#1171 = DIRECTION('',(0.,0.,1.));
#1172 = ADVANCED_FACE('',(#1173),#1184,.F.);
#1173 = FACE_BOUND('',#1174,.F.);
#1174 = EDGE_LOOP('',(#1175,#1181,#1182,#1183));
#1175 = ORIENTED_EDGE('',*,*,#1176,.T.);
#1176 = EDGE_CURVE('',#547,#639,#1177,.T.);
#1177 = LINE('',#1178,#1179);
#1178 = CARTESIAN_POINT('',(-1.838804142396,-0.325,-4.E-02));
#1179 = VECTOR('',#1180,1.);
#1180 = DIRECTION('',(1.110223024625E-16,1.,0.));
#1181 = ORIENTED_EDGE('',*,*,#647,.T.);
#1182 = ORIENTED_EDGE('',*,*,#1159,.F.);
#1183 = ORIENTED_EDGE('',*,*,#555,.F.);
#1184 = PLANE('',#1185);
#1185 = AXIS2_PLACEMENT_3D('',#1186,#1187,#1188);
#1186 = CARTESIAN_POINT('',(-1.838804142396,-0.325,-4.E-02));
#1187 = DIRECTION('',(0.,0.,1.));
#1188 = DIRECTION('',(-1.,1.110223024625E-16,0.));
#1189 = ADVANCED_FACE('',(#1190),#1196,.T.);
#1190 = FACE_BOUND('',#1191,.T.);
#1191 = EDGE_LOOP('',(#1192,#1193,#1194,#1195));
#1192 = ORIENTED_EDGE('',*,*,#546,.T.);
#1193 = ORIENTED_EDGE('',*,*,#1176,.T.);
#1194 = ORIENTED_EDGE('',*,*,#638,.F.);
#1195 = ORIENTED_EDGE('',*,*,#620,.F.);
#1196 = CYLINDRICAL_SURFACE('',#1197,0.32);
#1197 = AXIS2_PLACEMENT_3D('',#1198,#1199,#1200);
#1198 = CARTESIAN_POINT('',(-1.838804142396,-0.325,0.28));
#1199 = DIRECTION('',(-1.110223024625E-16,-1.,-0.));
#1200 = DIRECTION('',(0.984807753012,-1.093356242223E-16,-0.173648177667
    ));
#1201 = ADVANCED_FACE('',(#1202),#1219,.F.);
#1202 = FACE_BOUND('',#1203,.F.);
#1203 = EDGE_LOOP('',(#1204,#1205,#1212,#1218));
#1204 = ORIENTED_EDGE('',*,*,#769,.T.);
#1205 = ORIENTED_EDGE('',*,*,#1206,.T.);
#1206 = EDGE_CURVE('',#762,#1207,#1209,.T.);
#1207 = VERTEX_POINT('',#1208);
#1208 = CARTESIAN_POINT('',(-1.234121551758,0.708243103516,1.21));
#1209 = B_SPLINE_CURVE_WITH_KNOTS('',1,(#1210,#1211),.UNSPECIFIED.,.F.,
  .F.,(2,2),(0.,1.),.PIECEWISE_BEZIER_KNOTS.);
#1210 = CARTESIAN_POINT('',(-1.2675,0.775,0.735));
#1211 = CARTESIAN_POINT('',(-1.234121551758,0.708243103516,1.21));
#1212 = ORIENTED_EDGE('',*,*,#1213,.F.);
#1213 = EDGE_CURVE('',#1053,#1207,#1214,.T.);
#1214 = LINE('',#1215,#1216);
#1215 = CARTESIAN_POINT('',(-1.283243103516,0.659121551758,1.21));
#1216 = VECTOR('',#1217,1.);
#1217 = DIRECTION('',(0.707106781187,0.707106781187,0.));
#1218 = ORIENTED_EDGE('',*,*,#1052,.F.);
#1219 = B_SPLINE_SURFACE_WITH_KNOTS('',1,1,(
    (#1220,#1221)
    ,(#1222,#1223
    )),.UNSPECIFIED.,.F.,.F.,.F.,(2,2),(2,2),(0.,0.116672618896),(0.,1.)
  ,.PIECEWISE_BEZIER_KNOTS.);
#1220 = CARTESIAN_POINT('',(-1.35,0.6925,0.735));
#1221 = CARTESIAN_POINT('',(-1.283243103516,0.659121551758,1.21));
#1222 = CARTESIAN_POINT('',(-1.2675,0.775,0.735));
#1223 = CARTESIAN_POINT('',(-1.234121551758,0.708243103516,1.21));
#1224 = ADVANCED_FACE('',(#1225),#1242,.F.);
#1225 = FACE_BOUND('',#1226,.F.);
#1226 = EDGE_LOOP('',(#1227,#1228,#1235,#1241));
#1227 = ORIENTED_EDGE('',*,*,#761,.T.);
#1228 = ORIENTED_EDGE('',*,*,#1229,.T.);
#1229 = EDGE_CURVE('',#754,#1230,#1232,.T.);
#1230 = VERTEX_POINT('',#1231);
#1231 = CARTESIAN_POINT('',(1.234121551758,0.708243103516,1.21));
#1232 = B_SPLINE_CURVE_WITH_KNOTS('',1,(#1233,#1234),.UNSPECIFIED.,.F.,
  .F.,(2,2),(0.,1.),.PIECEWISE_BEZIER_KNOTS.);
#1233 = CARTESIAN_POINT('',(1.2675,0.775,0.735));
#1234 = CARTESIAN_POINT('',(1.234121551758,0.708243103516,1.21));
#1235 = ORIENTED_EDGE('',*,*,#1236,.F.);
#1236 = EDGE_CURVE('',#1207,#1230,#1237,.T.);
#1237 = LINE('',#1238,#1239);
#1238 = CARTESIAN_POINT('',(-1.234121551758,0.708243103516,1.21));
#1239 = VECTOR('',#1240,1.);
#1240 = DIRECTION('',(1.,0.,0.));
#1241 = ORIENTED_EDGE('',*,*,#1206,.F.);
#1242 = B_SPLINE_SURFACE_WITH_KNOTS('',1,1,(
    (#1243,#1244)
    ,(#1245,#1246
    )),.UNSPECIFIED.,.F.,.F.,.F.,(2,2),(2,2),(0.,2.535),(0.,1.),
  .PIECEWISE_BEZIER_KNOTS.);
#1243 = CARTESIAN_POINT('',(-1.2675,0.775,0.735));
#1244 = CARTESIAN_POINT('',(-1.234121551758,0.708243103516,1.21));
#1245 = CARTESIAN_POINT('',(1.2675,0.775,0.735));
#1246 = CARTESIAN_POINT('',(1.234121551758,0.708243103516,1.21));
#1247 = ADVANCED_FACE('',(#1248),#1259,.F.);
#1248 = FACE_BOUND('',#1249,.F.);
#1249 = EDGE_LOOP('',(#1250,#1251,#1252,#1258));
#1250 = ORIENTED_EDGE('',*,*,#753,.T.);
#1251 = ORIENTED_EDGE('',*,*,#962,.T.);
#1252 = ORIENTED_EDGE('',*,*,#1253,.F.);
#1253 = EDGE_CURVE('',#1230,#955,#1254,.T.);
#1254 = LINE('',#1255,#1256);
#1255 = CARTESIAN_POINT('',(1.234121551758,0.708243103516,1.21));
#1256 = VECTOR('',#1257,1.);
#1257 = DIRECTION('',(0.707106781187,-0.707106781187,0.));
#1258 = ORIENTED_EDGE('',*,*,#1229,.F.);
#1259 = B_SPLINE_SURFACE_WITH_KNOTS('',1,1,(
    (#1260,#1261)
    ,(#1262,#1263
    )),.UNSPECIFIED.,.F.,.F.,.F.,(2,2),(2,2),(0.,0.116672618896),(0.,1.)
  ,.PIECEWISE_BEZIER_KNOTS.);
#1260 = CARTESIAN_POINT('',(1.2675,0.775,0.735));
#1261 = CARTESIAN_POINT('',(1.234121551758,0.708243103516,1.21));
#1262 = CARTESIAN_POINT('',(1.35,0.6925,0.735));
#1263 = CARTESIAN_POINT('',(1.283243103516,0.659121551758,1.21));
#1264 = ADVANCED_FACE('',(#1265),#1334,.F.);
#1265 = FACE_BOUND('',#1266,.F.);
#1266 = EDGE_LOOP('',(#1267,#1268,#1269,#1277,#1286,#1294,#1302,#1310,
    #1319,#1327));
#1267 = ORIENTED_EDGE('',*,*,#857,.F.);
#1268 = ORIENTED_EDGE('',*,*,#890,.T.);
#1269 = ORIENTED_EDGE('',*,*,#1270,.T.);
#1270 = EDGE_CURVE('',#883,#1271,#1273,.T.);
#1271 = VERTEX_POINT('',#1272);
#1272 = CARTESIAN_POINT('',(1.523665661432,0.325,0.224432583147));
#1273 = LINE('',#1274,#1275);
#1274 = CARTESIAN_POINT('',(1.493176930361,0.325,0.43583778132));
#1275 = VECTOR('',#1276,1.);
#1276 = DIRECTION('',(0.142742572604,-3.169521813984E-17,-0.989759848633
    ));
#1277 = ORIENTED_EDGE('',*,*,#1278,.T.);
#1278 = EDGE_CURVE('',#1271,#1279,#1281,.T.);
#1279 = VERTEX_POINT('',#1280);
#1280 = CARTESIAN_POINT('',(1.838804142396,0.325,-4.E-02));
#1281 = CIRCLE('',#1282,0.32);
#1282 = AXIS2_PLACEMENT_3D('',#1283,#1284,#1285);
#1283 = CARTESIAN_POINT('',(1.838804142396,0.325,0.28));
#1284 = DIRECTION('',(-2.22044604925E-16,-1.,1.251126945016E-33));
#1285 = DIRECTION('',(-0.984807753012,2.186712484447E-16,-0.173648177667
    ));
#1286 = ORIENTED_EDGE('',*,*,#1287,.T.);
#1287 = EDGE_CURVE('',#1279,#1288,#1290,.T.);
#1288 = VERTEX_POINT('',#1289);
#1289 = CARTESIAN_POINT('',(1.9,0.325,-4.E-02));
#1290 = LINE('',#1291,#1292);
#1291 = CARTESIAN_POINT('',(1.838804142396,0.325,-4.E-02));
#1292 = VECTOR('',#1293,1.);
#1293 = DIRECTION('',(1.,-2.22044604925E-16,0.));
#1294 = ORIENTED_EDGE('',*,*,#1295,.T.);
#1295 = EDGE_CURVE('',#1288,#1296,#1298,.T.);
#1296 = VERTEX_POINT('',#1297);
#1297 = CARTESIAN_POINT('',(1.9,0.325,0.16));
#1298 = LINE('',#1299,#1300);
#1299 = CARTESIAN_POINT('',(1.9,0.325,-4.E-02));
#1300 = VECTOR('',#1301,1.);
#1301 = DIRECTION('',(0.,0.,1.));
#1302 = ORIENTED_EDGE('',*,*,#1303,.T.);
#1303 = EDGE_CURVE('',#1296,#1304,#1306,.T.);
#1304 = VERTEX_POINT('',#1305);
#1305 = CARTESIAN_POINT('',(1.838804142396,0.325,0.16));
#1306 = LINE('',#1307,#1308);
#1307 = CARTESIAN_POINT('',(1.9,0.325,0.16));
#1308 = VECTOR('',#1309,1.);
#1309 = DIRECTION('',(-1.,2.22044604925E-16,0.));
#1310 = ORIENTED_EDGE('',*,*,#1311,.T.);
#1311 = EDGE_CURVE('',#1304,#1312,#1314,.T.);
#1312 = VERTEX_POINT('',#1313);
#1313 = CARTESIAN_POINT('',(1.720627212034,0.325,0.25916221868));
#1314 = CIRCLE('',#1315,0.12);
#1315 = AXIS2_PLACEMENT_3D('',#1316,#1317,#1318);
#1316 = CARTESIAN_POINT('',(1.838804142396,0.325,0.28));
#1317 = DIRECTION('',(2.22044604925E-16,1.,4.0141362272E-47));
#1318 = DIRECTION('',(-1.850371707709E-15,4.108650548026E-31,-1.));
#1319 = ORIENTED_EDGE('',*,*,#1320,.T.);
#1320 = EDGE_CURVE('',#1312,#1321,#1323,.T.);
#1321 = VERTEX_POINT('',#1322);
#1322 = CARTESIAN_POINT('',(1.690138480964,0.325,0.470567416853));
#1323 = LINE('',#1324,#1325);
#1324 = CARTESIAN_POINT('',(1.720627212034,0.325,0.25916221868));
#1325 = VECTOR('',#1326,1.);
#1326 = DIRECTION('',(-0.142742572604,3.169521813984E-17,0.989759848633)
  );
#1327 = ORIENTED_EDGE('',*,*,#1328,.T.);
#1328 = EDGE_CURVE('',#1321,#730,#1329,.T.);
#1329 = CIRCLE('',#1330,0.32);
#1330 = AXIS2_PLACEMENT_3D('',#1331,#1332,#1333);
#1331 = CARTESIAN_POINT('',(1.375,0.325,0.415));
#1332 = DIRECTION('',(-2.22044604925E-16,-1.,1.251126945016E-33));
#1333 = DIRECTION('',(0.984807753012,-2.186712484447E-16,0.173648177667)
  );
#1334 = PLANE('',#1335);
#1335 = AXIS2_PLACEMENT_3D('',#1336,#1337,#1338);
#1336 = CARTESIAN_POINT('',(1.610729118287,0.325,0.344660577966));
#1337 = DIRECTION('',(-2.22044604925E-16,-1.,0.));
#1338 = DIRECTION('',(0.,0.,1.));
#1339 = ADVANCED_FACE('',(#1340),#1358,.F.);
#1340 = FACE_BOUND('',#1341,.F.);
#1341 = EDGE_LOOP('',(#1342,#1343,#1351,#1357));
#1342 = ORIENTED_EDGE('',*,*,#882,.T.);
#1343 = ORIENTED_EDGE('',*,*,#1344,.T.);
#1344 = EDGE_CURVE('',#874,#1345,#1347,.T.);
#1345 = VERTEX_POINT('',#1346);
#1346 = CARTESIAN_POINT('',(1.523665661432,-0.325,0.224432583147));
#1347 = LINE('',#1348,#1349);
#1348 = CARTESIAN_POINT('',(1.493176930361,-0.325,0.43583778132));
#1349 = VECTOR('',#1350,1.);
#1350 = DIRECTION('',(0.142742572604,-3.169521813984E-17,-0.989759848633
    ));
#1351 = ORIENTED_EDGE('',*,*,#1352,.F.);
#1352 = EDGE_CURVE('',#1271,#1345,#1353,.T.);
#1353 = LINE('',#1354,#1355);
#1354 = CARTESIAN_POINT('',(1.523665661432,0.325,0.224432583147));
#1355 = VECTOR('',#1356,1.);
#1356 = DIRECTION('',(-2.22044604925E-16,-1.,0.));
#1357 = ORIENTED_EDGE('',*,*,#1270,.F.);
#1358 = PLANE('',#1359);
#1359 = AXIS2_PLACEMENT_3D('',#1360,#1361,#1362);
#1360 = CARTESIAN_POINT('',(1.493176930361,0.325,0.43583778132));
#1361 = DIRECTION('',(0.989759848633,-2.197708345604E-16,0.142742572604)
  );
#1362 = DIRECTION('',(0.142742572604,-3.169521813984E-17,-0.989759848633
    ));
#1363 = ADVANCED_FACE('',(#1364),#1426,.T.);
#1364 = FACE_BOUND('',#1365,.T.);
#1365 = EDGE_LOOP('',(#1366,#1367,#1368,#1369,#1378,#1386,#1394,#1402,
    #1411,#1419));
#1366 = ORIENTED_EDGE('',*,*,#905,.F.);
#1367 = ORIENTED_EDGE('',*,*,#873,.T.);
#1368 = ORIENTED_EDGE('',*,*,#1344,.T.);
#1369 = ORIENTED_EDGE('',*,*,#1370,.T.);
#1370 = EDGE_CURVE('',#1345,#1371,#1373,.T.);
#1371 = VERTEX_POINT('',#1372);
#1372 = CARTESIAN_POINT('',(1.838804142396,-0.325,-4.E-02));
#1373 = CIRCLE('',#1374,0.32);
#1374 = AXIS2_PLACEMENT_3D('',#1375,#1376,#1377);
#1375 = CARTESIAN_POINT('',(1.838804142396,-0.325,0.28));
#1376 = DIRECTION('',(-2.22044604925E-16,-1.,1.251126945016E-33));
#1377 = DIRECTION('',(-0.984807753012,2.186712484447E-16,-0.173648177667
    ));
#1378 = ORIENTED_EDGE('',*,*,#1379,.T.);
#1379 = EDGE_CURVE('',#1371,#1380,#1382,.T.);
#1380 = VERTEX_POINT('',#1381);
#1381 = CARTESIAN_POINT('',(1.9,-0.325,-4.E-02));
#1382 = LINE('',#1383,#1384);
#1383 = CARTESIAN_POINT('',(1.838804142396,-0.325,-4.E-02));
#1384 = VECTOR('',#1385,1.);
#1385 = DIRECTION('',(1.,-2.22044604925E-16,0.));
#1386 = ORIENTED_EDGE('',*,*,#1387,.T.);
#1387 = EDGE_CURVE('',#1380,#1388,#1390,.T.);
#1388 = VERTEX_POINT('',#1389);
#1389 = CARTESIAN_POINT('',(1.9,-0.325,0.16));
#1390 = LINE('',#1391,#1392);
#1391 = CARTESIAN_POINT('',(1.9,-0.325,-4.E-02));
#1392 = VECTOR('',#1393,1.);
#1393 = DIRECTION('',(0.,0.,1.));
#1394 = ORIENTED_EDGE('',*,*,#1395,.T.);
#1395 = EDGE_CURVE('',#1388,#1396,#1398,.T.);
#1396 = VERTEX_POINT('',#1397);
#1397 = CARTESIAN_POINT('',(1.838804142396,-0.325,0.16));
#1398 = LINE('',#1399,#1400);
#1399 = CARTESIAN_POINT('',(1.9,-0.325,0.16));
#1400 = VECTOR('',#1401,1.);
#1401 = DIRECTION('',(-1.,2.22044604925E-16,0.));
#1402 = ORIENTED_EDGE('',*,*,#1403,.T.);
#1403 = EDGE_CURVE('',#1396,#1404,#1406,.T.);
#1404 = VERTEX_POINT('',#1405);
#1405 = CARTESIAN_POINT('',(1.720627212034,-0.325,0.25916221868));
#1406 = CIRCLE('',#1407,0.12);
#1407 = AXIS2_PLACEMENT_3D('',#1408,#1409,#1410);
#1408 = CARTESIAN_POINT('',(1.838804142396,-0.325,0.28));
#1409 = DIRECTION('',(2.22044604925E-16,1.,4.0141362272E-47));
#1410 = DIRECTION('',(-1.850371707709E-15,4.108650548026E-31,-1.));
#1411 = ORIENTED_EDGE('',*,*,#1412,.T.);
#1412 = EDGE_CURVE('',#1404,#1413,#1415,.T.);
#1413 = VERTEX_POINT('',#1414);
#1414 = CARTESIAN_POINT('',(1.690138480964,-0.325,0.470567416853));
#1415 = LINE('',#1416,#1417);
#1416 = CARTESIAN_POINT('',(1.720627212034,-0.325,0.25916221868));
#1417 = VECTOR('',#1418,1.);
#1418 = DIRECTION('',(-0.142742572604,3.169521813984E-17,0.989759848633)
  );
#1419 = ORIENTED_EDGE('',*,*,#1420,.T.);
#1420 = EDGE_CURVE('',#1413,#499,#1421,.T.);
#1421 = CIRCLE('',#1422,0.32);
#1422 = AXIS2_PLACEMENT_3D('',#1423,#1424,#1425);
#1423 = CARTESIAN_POINT('',(1.375,-0.325,0.415));
#1424 = DIRECTION('',(-2.22044604925E-16,-1.,1.251126945016E-33));
#1425 = DIRECTION('',(0.984807753012,-2.186712484447E-16,0.173648177667)
  );
#1426 = PLANE('',#1427);
#1427 = AXIS2_PLACEMENT_3D('',#1428,#1429,#1430);
#1428 = CARTESIAN_POINT('',(1.610729118287,-0.325,0.344660577966));
#1429 = DIRECTION('',(-2.22044604925E-16,-1.,0.));
#1430 = DIRECTION('',(0.,0.,1.));
#1431 = ADVANCED_FACE('',(#1432),#1443,.T.);
#1432 = FACE_BOUND('',#1433,.T.);
#1433 = EDGE_LOOP('',(#1434,#1435,#1436,#1437));
#1434 = ORIENTED_EDGE('',*,*,#1328,.T.);
#1435 = ORIENTED_EDGE('',*,*,#923,.T.);
#1436 = ORIENTED_EDGE('',*,*,#1420,.F.);
#1437 = ORIENTED_EDGE('',*,*,#1438,.F.);
#1438 = EDGE_CURVE('',#1321,#1413,#1439,.T.);
#1439 = LINE('',#1440,#1441);
#1440 = CARTESIAN_POINT('',(1.690138480964,0.325,0.470567416853));
#1441 = VECTOR('',#1442,1.);
#1442 = DIRECTION('',(-2.22044604925E-16,-1.,0.));
#1443 = CYLINDRICAL_SURFACE('',#1444,0.32);
#1444 = AXIS2_PLACEMENT_3D('',#1445,#1446,#1447);
#1445 = CARTESIAN_POINT('',(1.375,0.325,0.415));
#1446 = DIRECTION('',(2.22044604925E-16,1.,0.));
#1447 = DIRECTION('',(0.984807753012,-2.186712484447E-16,0.173648177667)
  );
#1448 = ADVANCED_FACE('',(#1449,#1459),#1493,.T.);
#1449 = FACE_BOUND('',#1450,.T.);
#1450 = EDGE_LOOP('',(#1451,#1452,#1453,#1454,#1455,#1456,#1457,#1458));
#1451 = ORIENTED_EDGE('',*,*,#1059,.F.);
#1452 = ORIENTED_EDGE('',*,*,#1029,.F.);
#1453 = ORIENTED_EDGE('',*,*,#1006,.F.);
#1454 = ORIENTED_EDGE('',*,*,#983,.F.);
#1455 = ORIENTED_EDGE('',*,*,#954,.F.);
#1456 = ORIENTED_EDGE('',*,*,#1253,.F.);
#1457 = ORIENTED_EDGE('',*,*,#1236,.F.);
#1458 = ORIENTED_EDGE('',*,*,#1213,.F.);
#1459 = FACE_BOUND('',#1460,.T.);
#1460 = EDGE_LOOP('',(#1461,#1471,#1479,#1487));
#1461 = ORIENTED_EDGE('',*,*,#1462,.T.);
#1462 = EDGE_CURVE('',#1463,#1465,#1467,.T.);
#1463 = VERTEX_POINT('',#1464);
#1464 = CARTESIAN_POINT('',(-0.683243103516,-0.608243103516,1.21));
#1465 = VERTEX_POINT('',#1466);
#1466 = CARTESIAN_POINT('',(-1.183243103516,-0.608243103516,1.21));
#1467 = LINE('',#1468,#1469);
#1468 = CARTESIAN_POINT('',(-1.233243103516,-0.608243103516,1.21));
#1469 = VECTOR('',#1470,1.);
#1470 = DIRECTION('',(-1.,0.,0.));
#1471 = ORIENTED_EDGE('',*,*,#1472,.T.);
#1472 = EDGE_CURVE('',#1465,#1473,#1475,.T.);
#1473 = VERTEX_POINT('',#1474);
#1474 = CARTESIAN_POINT('',(-1.183243103516,0.608243103516,1.21));
#1475 = LINE('',#1476,#1477);
#1476 = CARTESIAN_POINT('',(-1.183243103516,-0.633682327637,1.21));
#1477 = VECTOR('',#1478,1.);
#1478 = DIRECTION('',(0.,1.,0.));
#1479 = ORIENTED_EDGE('',*,*,#1480,.F.);
#1480 = EDGE_CURVE('',#1481,#1473,#1483,.T.);
#1481 = VERTEX_POINT('',#1482);
#1482 = CARTESIAN_POINT('',(-0.683243103516,0.608243103516,1.21));
#1483 = LINE('',#1484,#1485);
#1484 = CARTESIAN_POINT('',(-1.233243103516,0.608243103516,1.21));
#1485 = VECTOR('',#1486,1.);
#1486 = DIRECTION('',(-1.,0.,0.));
#1487 = ORIENTED_EDGE('',*,*,#1488,.F.);
#1488 = EDGE_CURVE('',#1463,#1481,#1489,.T.);
#1489 = LINE('',#1490,#1491);
#1490 = CARTESIAN_POINT('',(-0.683243103516,-0.633682327637,1.21));
#1491 = VECTOR('',#1492,1.);
#1492 = DIRECTION('',(0.,1.,0.));
#1493 = PLANE('',#1494);
#1494 = AXIS2_PLACEMENT_3D('',#1495,#1496,#1497);
#1495 = CARTESIAN_POINT('',(-1.283243103516,-0.659121551758,1.21));
#1496 = DIRECTION('',(0.,0.,1.));
#1497 = DIRECTION('',(0.889522261294,0.456891832562,0.));
#1498 = ADVANCED_FACE('',(#1499),#1510,.F.);
#1499 = FACE_BOUND('',#1500,.F.);
#1500 = EDGE_LOOP('',(#1501,#1507,#1508,#1509));
#1501 = ORIENTED_EDGE('',*,*,#1502,.T.);
#1502 = EDGE_CURVE('',#1312,#1404,#1503,.T.);
#1503 = LINE('',#1504,#1505);
#1504 = CARTESIAN_POINT('',(1.720627212034,0.325,0.25916221868));
#1505 = VECTOR('',#1506,1.);
#1506 = DIRECTION('',(-2.22044604925E-16,-1.,0.));
#1507 = ORIENTED_EDGE('',*,*,#1412,.T.);
#1508 = ORIENTED_EDGE('',*,*,#1438,.F.);
#1509 = ORIENTED_EDGE('',*,*,#1320,.F.);
#1510 = PLANE('',#1511);
#1511 = AXIS2_PLACEMENT_3D('',#1512,#1513,#1514);
#1512 = CARTESIAN_POINT('',(1.720627212034,0.325,0.25916221868));
#1513 = DIRECTION('',(-0.989759848633,2.197708345604E-16,-0.142742572604
    ));
#1514 = DIRECTION('',(-0.142742572604,3.169521813984E-17,0.989759848633)
  );
#1515 = ADVANCED_FACE('',(#1516),#1527,.F.);
#1516 = FACE_BOUND('',#1517,.F.);
#1517 = EDGE_LOOP('',(#1518,#1524,#1525,#1526));
#1518 = ORIENTED_EDGE('',*,*,#1519,.T.);
#1519 = EDGE_CURVE('',#1304,#1396,#1520,.T.);
#1520 = LINE('',#1521,#1522);
#1521 = CARTESIAN_POINT('',(1.838804142396,0.325,0.16));
#1522 = VECTOR('',#1523,1.);
#1523 = DIRECTION('',(-2.22044604925E-16,-1.,0.));
#1524 = ORIENTED_EDGE('',*,*,#1403,.T.);
#1525 = ORIENTED_EDGE('',*,*,#1502,.F.);
#1526 = ORIENTED_EDGE('',*,*,#1311,.F.);
#1527 = CYLINDRICAL_SURFACE('',#1528,0.12);
#1528 = AXIS2_PLACEMENT_3D('',#1529,#1530,#1531);
#1529 = CARTESIAN_POINT('',(1.838804142396,0.325,0.28));
#1530 = DIRECTION('',(2.22044604925E-16,1.,0.));
#1531 = DIRECTION('',(-1.850371707709E-15,4.108650548026E-31,-1.));
#1532 = ADVANCED_FACE('',(#1533),#1544,.F.);
#1533 = FACE_BOUND('',#1534,.F.);
#1534 = EDGE_LOOP('',(#1535,#1541,#1542,#1543));
#1535 = ORIENTED_EDGE('',*,*,#1536,.T.);
#1536 = EDGE_CURVE('',#1296,#1388,#1537,.T.);
#1537 = LINE('',#1538,#1539);
#1538 = CARTESIAN_POINT('',(1.9,0.325,0.16));
#1539 = VECTOR('',#1540,1.);
#1540 = DIRECTION('',(-2.22044604925E-16,-1.,0.));
#1541 = ORIENTED_EDGE('',*,*,#1395,.T.);
#1542 = ORIENTED_EDGE('',*,*,#1519,.F.);
#1543 = ORIENTED_EDGE('',*,*,#1303,.F.);
#1544 = PLANE('',#1545);
#1545 = AXIS2_PLACEMENT_3D('',#1546,#1547,#1548);
#1546 = CARTESIAN_POINT('',(1.9,0.325,0.16));
#1547 = DIRECTION('',(0.,0.,-1.));
#1548 = DIRECTION('',(-1.,2.22044604925E-16,0.));
#1549 = ADVANCED_FACE('',(#1550),#1561,.F.);
#1550 = FACE_BOUND('',#1551,.F.);
#1551 = EDGE_LOOP('',(#1552,#1558,#1559,#1560));
#1552 = ORIENTED_EDGE('',*,*,#1553,.T.);
#1553 = EDGE_CURVE('',#1288,#1380,#1554,.T.);
#1554 = LINE('',#1555,#1556);
#1555 = CARTESIAN_POINT('',(1.9,0.325,-4.E-02));
#1556 = VECTOR('',#1557,1.);
#1557 = DIRECTION('',(-2.22044604925E-16,-1.,0.));
#1558 = ORIENTED_EDGE('',*,*,#1387,.T.);
#1559 = ORIENTED_EDGE('',*,*,#1536,.F.);
#1560 = ORIENTED_EDGE('',*,*,#1295,.F.);
#1561 = PLANE('',#1562);
#1562 = AXIS2_PLACEMENT_3D('',#1563,#1564,#1565);
#1563 = CARTESIAN_POINT('',(1.9,0.325,-4.E-02));
#1564 = DIRECTION('',(-1.,2.22044604925E-16,0.));
#1565 = DIRECTION('',(0.,0.,1.));
#1566 = ADVANCED_FACE('',(#1567),#1578,.F.);
#1567 = FACE_BOUND('',#1568,.F.);
#1568 = EDGE_LOOP('',(#1569,#1575,#1576,#1577));
#1569 = ORIENTED_EDGE('',*,*,#1570,.T.);
#1570 = EDGE_CURVE('',#1279,#1371,#1571,.T.);
#1571 = LINE('',#1572,#1573);
#1572 = CARTESIAN_POINT('',(1.838804142396,0.325,-4.E-02));
#1573 = VECTOR('',#1574,1.);
#1574 = DIRECTION('',(-2.22044604925E-16,-1.,0.));
#1575 = ORIENTED_EDGE('',*,*,#1379,.T.);
#1576 = ORIENTED_EDGE('',*,*,#1553,.F.);
#1577 = ORIENTED_EDGE('',*,*,#1287,.F.);
#1578 = PLANE('',#1579);
#1579 = AXIS2_PLACEMENT_3D('',#1580,#1581,#1582);
#1580 = CARTESIAN_POINT('',(1.838804142396,0.325,-4.E-02));
#1581 = DIRECTION('',(0.,0.,1.));
#1582 = DIRECTION('',(1.,-2.22044604925E-16,0.));
#1583 = ADVANCED_FACE('',(#1584),#1590,.T.);
#1584 = FACE_BOUND('',#1585,.T.);
#1585 = EDGE_LOOP('',(#1586,#1587,#1588,#1589));
#1586 = ORIENTED_EDGE('',*,*,#1278,.T.);
#1587 = ORIENTED_EDGE('',*,*,#1570,.T.);
#1588 = ORIENTED_EDGE('',*,*,#1370,.F.);
#1589 = ORIENTED_EDGE('',*,*,#1352,.F.);
#1590 = CYLINDRICAL_SURFACE('',#1591,0.32);
#1591 = AXIS2_PLACEMENT_3D('',#1592,#1593,#1594);
#1592 = CARTESIAN_POINT('',(1.838804142396,0.325,0.28));
#1593 = DIRECTION('',(2.22044604925E-16,1.,0.));
#1594 = DIRECTION('',(-0.984807753012,2.186712484447E-16,-0.173648177667
    ));
#1595 = ADVANCED_FACE('',(#1596),#1621,.F.);
#1596 = FACE_BOUND('',#1597,.F.);
#1597 = EDGE_LOOP('',(#1598,#1599,#1607,#1615));
#1598 = ORIENTED_EDGE('',*,*,#1462,.T.);
#1599 = ORIENTED_EDGE('',*,*,#1600,.T.);
#1600 = EDGE_CURVE('',#1465,#1601,#1603,.T.);
#1601 = VERTEX_POINT('',#1602);
#1602 = CARTESIAN_POINT('',(-1.183243103516,-0.608243103516,1.22));
#1603 = LINE('',#1604,#1605);
#1604 = CARTESIAN_POINT('',(-1.183243103516,-0.608243103516,1.2));
#1605 = VECTOR('',#1606,1.);
#1606 = DIRECTION('',(0.,0.,1.));
#1607 = ORIENTED_EDGE('',*,*,#1608,.T.);
#1608 = EDGE_CURVE('',#1601,#1609,#1611,.T.);
#1609 = VERTEX_POINT('',#1610);
#1610 = CARTESIAN_POINT('',(-0.683243103516,-0.608243103516,1.22));
#1611 = LINE('',#1612,#1613);
#1612 = CARTESIAN_POINT('',(-1.183243103516,-0.608243103516,1.22));
#1613 = VECTOR('',#1614,1.);
#1614 = DIRECTION('',(1.,0.,0.));
#1615 = ORIENTED_EDGE('',*,*,#1616,.F.);
#1616 = EDGE_CURVE('',#1463,#1609,#1617,.T.);
#1617 = LINE('',#1618,#1619);
#1618 = CARTESIAN_POINT('',(-0.683243103516,-0.608243103516,1.2));
#1619 = VECTOR('',#1620,1.);
#1620 = DIRECTION('',(0.,0.,1.));
#1621 = PLANE('',#1622);
#1622 = AXIS2_PLACEMENT_3D('',#1623,#1624,#1625);
#1623 = CARTESIAN_POINT('',(-1.183243103516,-0.608243103516,1.2));
#1624 = DIRECTION('',(0.,1.,0.));
#1625 = DIRECTION('',(0.,0.,1.));
#1626 = ADVANCED_FACE('',(#1627),#1645,.T.);
#1627 = FACE_BOUND('',#1628,.T.);
#1628 = EDGE_LOOP('',(#1629,#1630,#1631,#1639));
#1629 = ORIENTED_EDGE('',*,*,#1616,.F.);
#1630 = ORIENTED_EDGE('',*,*,#1488,.T.);
#1631 = ORIENTED_EDGE('',*,*,#1632,.T.);
#1632 = EDGE_CURVE('',#1481,#1633,#1635,.T.);
#1633 = VERTEX_POINT('',#1634);
#1634 = CARTESIAN_POINT('',(-0.683243103516,0.608243103516,1.22));
#1635 = LINE('',#1636,#1637);
#1636 = CARTESIAN_POINT('',(-0.683243103516,0.608243103516,1.2));
#1637 = VECTOR('',#1638,1.);
#1638 = DIRECTION('',(0.,0.,1.));
#1639 = ORIENTED_EDGE('',*,*,#1640,.F.);
#1640 = EDGE_CURVE('',#1609,#1633,#1641,.T.);
#1641 = LINE('',#1642,#1643);
#1642 = CARTESIAN_POINT('',(-0.683243103516,-0.608243103516,1.22));
#1643 = VECTOR('',#1644,1.);
#1644 = DIRECTION('',(0.,1.,0.));
#1645 = PLANE('',#1646);
#1646 = AXIS2_PLACEMENT_3D('',#1647,#1648,#1649);
#1647 = CARTESIAN_POINT('',(-0.683243103516,-0.608243103516,1.2));
#1648 = DIRECTION('',(1.,0.,0.));
#1649 = DIRECTION('',(0.,0.,1.));
#1650 = ADVANCED_FACE('',(#1651),#1669,.T.);
#1651 = FACE_BOUND('',#1652,.T.);
#1652 = EDGE_LOOP('',(#1653,#1654,#1662,#1668));
#1653 = ORIENTED_EDGE('',*,*,#1480,.T.);
#1654 = ORIENTED_EDGE('',*,*,#1655,.T.);
#1655 = EDGE_CURVE('',#1473,#1656,#1658,.T.);
#1656 = VERTEX_POINT('',#1657);
#1657 = CARTESIAN_POINT('',(-1.183243103516,0.608243103516,1.22));
#1658 = LINE('',#1659,#1660);
#1659 = CARTESIAN_POINT('',(-1.183243103516,0.608243103516,1.2));
#1660 = VECTOR('',#1661,1.);
#1661 = DIRECTION('',(0.,0.,1.));
#1662 = ORIENTED_EDGE('',*,*,#1663,.T.);
#1663 = EDGE_CURVE('',#1656,#1633,#1664,.T.);
#1664 = LINE('',#1665,#1666);
#1665 = CARTESIAN_POINT('',(-1.183243103516,0.608243103516,1.22));
#1666 = VECTOR('',#1667,1.);
#1667 = DIRECTION('',(1.,0.,0.));
#1668 = ORIENTED_EDGE('',*,*,#1632,.F.);
#1669 = PLANE('',#1670);
#1670 = AXIS2_PLACEMENT_3D('',#1671,#1672,#1673);
#1671 = CARTESIAN_POINT('',(-1.183243103516,0.608243103516,1.2));
#1672 = DIRECTION('',(0.,1.,0.));
#1673 = DIRECTION('',(0.,0.,1.));
#1674 = ADVANCED_FACE('',(#1675),#1686,.F.);
#1675 = FACE_BOUND('',#1676,.F.);
#1676 = EDGE_LOOP('',(#1677,#1678,#1679,#1680));
#1677 = ORIENTED_EDGE('',*,*,#1600,.F.);
#1678 = ORIENTED_EDGE('',*,*,#1472,.T.);
#1679 = ORIENTED_EDGE('',*,*,#1655,.T.);
#1680 = ORIENTED_EDGE('',*,*,#1681,.F.);
#1681 = EDGE_CURVE('',#1601,#1656,#1682,.T.);
#1682 = LINE('',#1683,#1684);
#1683 = CARTESIAN_POINT('',(-1.183243103516,-0.608243103516,1.22));
#1684 = VECTOR('',#1685,1.);
#1685 = DIRECTION('',(0.,1.,0.));
#1686 = PLANE('',#1687);
#1687 = AXIS2_PLACEMENT_3D('',#1688,#1689,#1690);
#1688 = CARTESIAN_POINT('',(-1.183243103516,-0.608243103516,1.2));
#1689 = DIRECTION('',(1.,0.,0.));
#1690 = DIRECTION('',(0.,0.,1.));
#1691 = ADVANCED_FACE('',(#1692),#1698,.T.);
#1692 = FACE_BOUND('',#1693,.T.);
#1693 = EDGE_LOOP('',(#1694,#1695,#1696,#1697));
#1694 = ORIENTED_EDGE('',*,*,#1681,.F.);
#1695 = ORIENTED_EDGE('',*,*,#1608,.T.);
#1696 = ORIENTED_EDGE('',*,*,#1640,.T.);
#1697 = ORIENTED_EDGE('',*,*,#1663,.F.);
#1698 = PLANE('',#1699);
#1699 = AXIS2_PLACEMENT_3D('',#1700,#1701,#1702);
#1700 = CARTESIAN_POINT('',(-1.183243103516,-0.608243103516,1.22));
#1701 = DIRECTION('',(0.,0.,1.));
#1702 = DIRECTION('',(1.,0.,0.));
#1703 = ( GEOMETRIC_REPRESENTATION_CONTEXT(3) 
GLOBAL_UNCERTAINTY_ASSIGNED_CONTEXT((#1707)) 
GLOBAL_UNIT_ASSIGNED_CONTEXT((#1704,#1705,#1706)) REPRESENTATION_CONTEXT
('Context #1','3D Context with UNIT and UNCERTAINTY') );
#1704 = ( LENGTH_UNIT() NAMED_UNIT(*) SI_UNIT(.MILLI.,.METRE.) );
#1705 = ( NAMED_UNIT(*) PLANE_ANGLE_UNIT() SI_UNIT($,.RADIAN.) );
#1706 = ( NAMED_UNIT(*) SI_UNIT($,.STERADIAN.) SOLID_ANGLE_UNIT() );
#1707 = UNCERTAINTY_MEASURE_WITH_UNIT(LENGTH_MEASURE(1.E-07),#1704,
  'distance_accuracy_value','confusion accuracy');
#1708 = PRODUCT_RELATED_PRODUCT_CATEGORY('part',$,(#7));
#1709 = MECHANICAL_DESIGN_GEOMETRIC_PRESENTATION_REPRESENTATION('',(
    #1710,#1721,#1729,#1736,#1743,#1750,#1757,#1764,#1771,#1778,#1785,
    #1792,#1799,#1806,#1813,#1820,#1827,#1834,#1841,#1848,#1855,#1862,
    #1869,#1876,#1883,#1890,#1898,#1905,#1912,#1919),#1703);
#1710 = STYLED_ITEM('color',(#1711),#15);
#1711 = PRESENTATION_STYLE_ASSIGNMENT((#1712,#1718));
#1712 = SURFACE_STYLE_USAGE(.BOTH.,#1713);
#1713 = SURFACE_SIDE_STYLE('',(#1714));
#1714 = SURFACE_STYLE_FILL_AREA(#1715);
#1715 = FILL_AREA_STYLE('',(#1716));
#1716 = FILL_AREA_STYLE_COLOUR('',#1717);
#1717 = COLOUR_RGB('',0.147999998088,0.144999993226,0.144999993226);
#1718 = CURVE_STYLE('',#1719,POSITIVE_LENGTH_MEASURE(0.1),#1720);
#1719 = DRAUGHTING_PRE_DEFINED_CURVE_FONT('continuous');
#1720 = COLOUR_RGB('',9.803921802644E-02,9.803921802644E-02,
  9.803921802644E-02);
#1721 = OVER_RIDING_STYLED_ITEM('overriding color',(#1722),#187,#1710);
#1722 = PRESENTATION_STYLE_ASSIGNMENT((#1723));
#1723 = SURFACE_STYLE_USAGE(.BOTH.,#1724);
#1724 = SURFACE_SIDE_STYLE('',(#1725));
#1725 = SURFACE_STYLE_FILL_AREA(#1726);
#1726 = FILL_AREA_STYLE('',(#1727));
#1727 = FILL_AREA_STYLE_COLOUR('',#1728);
#1728 = COLOUR_RGB('',0.823999987314,0.819999987296,0.781000009244);
#1729 = OVER_RIDING_STYLED_ITEM('overriding color',(#1730),#532,#1710);
#1730 = PRESENTATION_STYLE_ASSIGNMENT((#1731));
#1731 = SURFACE_STYLE_USAGE(.BOTH.,#1732);
#1732 = SURFACE_SIDE_STYLE('',(#1733));
#1733 = SURFACE_STYLE_FILL_AREA(#1734);
#1734 = FILL_AREA_STYLE('',(#1735));
#1735 = FILL_AREA_STYLE_COLOUR('',#1728);
#1736 = OVER_RIDING_STYLED_ITEM('overriding color',(#1737),#607,#1710);
#1737 = PRESENTATION_STYLE_ASSIGNMENT((#1738));
#1738 = SURFACE_STYLE_USAGE(.BOTH.,#1739);
#1739 = SURFACE_SIDE_STYLE('',(#1740));
#1740 = SURFACE_STYLE_FILL_AREA(#1741);
#1741 = FILL_AREA_STYLE('',(#1742));
#1742 = FILL_AREA_STYLE_COLOUR('',#1728);
#1743 = OVER_RIDING_STYLED_ITEM('overriding color',(#1744),#631,#1710);
#1744 = PRESENTATION_STYLE_ASSIGNMENT((#1745));
#1745 = SURFACE_STYLE_USAGE(.BOTH.,#1746);
#1746 = SURFACE_SIDE_STYLE('',(#1747));
#1747 = SURFACE_STYLE_FILL_AREA(#1748);
#1748 = FILL_AREA_STYLE('',(#1749));
#1749 = FILL_AREA_STYLE_COLOUR('',#1728);
#1750 = OVER_RIDING_STYLED_ITEM('overriding color',(#1751),#868,#1710);
#1751 = PRESENTATION_STYLE_ASSIGNMENT((#1752));
#1752 = SURFACE_STYLE_USAGE(.BOTH.,#1753);
#1753 = SURFACE_SIDE_STYLE('',(#1754));
#1754 = SURFACE_STYLE_FILL_AREA(#1755);
#1755 = FILL_AREA_STYLE('',(#1756));
#1756 = FILL_AREA_STYLE_COLOUR('',#1728);
#1757 = OVER_RIDING_STYLED_ITEM('overriding color',(#1758),#918,#1710);
#1758 = PRESENTATION_STYLE_ASSIGNMENT((#1759));
#1759 = SURFACE_STYLE_USAGE(.BOTH.,#1760);
#1760 = SURFACE_SIDE_STYLE('',(#1761));
#1761 = SURFACE_STYLE_FILL_AREA(#1762);
#1762 = FILL_AREA_STYLE('',(#1763));
#1763 = FILL_AREA_STYLE_COLOUR('',#1728);
#1764 = OVER_RIDING_STYLED_ITEM('overriding color',(#1765),#1070,#1710);
#1765 = PRESENTATION_STYLE_ASSIGNMENT((#1766));
#1766 = SURFACE_STYLE_USAGE(.BOTH.,#1767);
#1767 = SURFACE_SIDE_STYLE('',(#1768));
#1768 = SURFACE_STYLE_FILL_AREA(#1769);
#1769 = FILL_AREA_STYLE('',(#1770));
#1770 = FILL_AREA_STYLE_COLOUR('',#1728);
#1771 = OVER_RIDING_STYLED_ITEM('overriding color',(#1772),#1087,#1710);
#1772 = PRESENTATION_STYLE_ASSIGNMENT((#1773));
#1773 = SURFACE_STYLE_USAGE(.BOTH.,#1774);
#1774 = SURFACE_SIDE_STYLE('',(#1775));
#1775 = SURFACE_STYLE_FILL_AREA(#1776);
#1776 = FILL_AREA_STYLE('',(#1777));
#1777 = FILL_AREA_STYLE_COLOUR('',#1728);
#1778 = OVER_RIDING_STYLED_ITEM('overriding color',(#1779),#1104,#1710);
#1779 = PRESENTATION_STYLE_ASSIGNMENT((#1780));
#1780 = SURFACE_STYLE_USAGE(.BOTH.,#1781);
#1781 = SURFACE_SIDE_STYLE('',(#1782));
#1782 = SURFACE_STYLE_FILL_AREA(#1783);
#1783 = FILL_AREA_STYLE('',(#1784));
#1784 = FILL_AREA_STYLE_COLOUR('',#1728);
#1785 = OVER_RIDING_STYLED_ITEM('overriding color',(#1786),#1121,#1710);
#1786 = PRESENTATION_STYLE_ASSIGNMENT((#1787));
#1787 = SURFACE_STYLE_USAGE(.BOTH.,#1788);
#1788 = SURFACE_SIDE_STYLE('',(#1789));
#1789 = SURFACE_STYLE_FILL_AREA(#1790);
#1790 = FILL_AREA_STYLE('',(#1791));
#1791 = FILL_AREA_STYLE_COLOUR('',#1728);
#1792 = OVER_RIDING_STYLED_ITEM('overriding color',(#1793),#1138,#1710);
#1793 = PRESENTATION_STYLE_ASSIGNMENT((#1794));
#1794 = SURFACE_STYLE_USAGE(.BOTH.,#1795);
#1795 = SURFACE_SIDE_STYLE('',(#1796));
#1796 = SURFACE_STYLE_FILL_AREA(#1797);
#1797 = FILL_AREA_STYLE('',(#1798));
#1798 = FILL_AREA_STYLE_COLOUR('',#1728);
#1799 = OVER_RIDING_STYLED_ITEM('overriding color',(#1800),#1155,#1710);
#1800 = PRESENTATION_STYLE_ASSIGNMENT((#1801));
#1801 = SURFACE_STYLE_USAGE(.BOTH.,#1802);
#1802 = SURFACE_SIDE_STYLE('',(#1803));
#1803 = SURFACE_STYLE_FILL_AREA(#1804);
#1804 = FILL_AREA_STYLE('',(#1805));
#1805 = FILL_AREA_STYLE_COLOUR('',#1728);
#1806 = OVER_RIDING_STYLED_ITEM('overriding color',(#1807),#1172,#1710);
#1807 = PRESENTATION_STYLE_ASSIGNMENT((#1808));
#1808 = SURFACE_STYLE_USAGE(.BOTH.,#1809);
#1809 = SURFACE_SIDE_STYLE('',(#1810));
#1810 = SURFACE_STYLE_FILL_AREA(#1811);
#1811 = FILL_AREA_STYLE('',(#1812));
#1812 = FILL_AREA_STYLE_COLOUR('',#1728);
#1813 = OVER_RIDING_STYLED_ITEM('overriding color',(#1814),#1189,#1710);
#1814 = PRESENTATION_STYLE_ASSIGNMENT((#1815));
#1815 = SURFACE_STYLE_USAGE(.BOTH.,#1816);
#1816 = SURFACE_SIDE_STYLE('',(#1817));
#1817 = SURFACE_STYLE_FILL_AREA(#1818);
#1818 = FILL_AREA_STYLE('',(#1819));
#1819 = FILL_AREA_STYLE_COLOUR('',#1728);
#1820 = OVER_RIDING_STYLED_ITEM('overriding color',(#1821),#1264,#1710);
#1821 = PRESENTATION_STYLE_ASSIGNMENT((#1822));
#1822 = SURFACE_STYLE_USAGE(.BOTH.,#1823);
#1823 = SURFACE_SIDE_STYLE('',(#1824));
#1824 = SURFACE_STYLE_FILL_AREA(#1825);
#1825 = FILL_AREA_STYLE('',(#1826));
#1826 = FILL_AREA_STYLE_COLOUR('',#1728);
#1827 = OVER_RIDING_STYLED_ITEM('overriding color',(#1828),#1339,#1710);
#1828 = PRESENTATION_STYLE_ASSIGNMENT((#1829));
#1829 = SURFACE_STYLE_USAGE(.BOTH.,#1830);
#1830 = SURFACE_SIDE_STYLE('',(#1831));
#1831 = SURFACE_STYLE_FILL_AREA(#1832);
#1832 = FILL_AREA_STYLE('',(#1833));
#1833 = FILL_AREA_STYLE_COLOUR('',#1728);
#1834 = OVER_RIDING_STYLED_ITEM('overriding color',(#1835),#1363,#1710);
#1835 = PRESENTATION_STYLE_ASSIGNMENT((#1836));
#1836 = SURFACE_STYLE_USAGE(.BOTH.,#1837);
#1837 = SURFACE_SIDE_STYLE('',(#1838));
#1838 = SURFACE_STYLE_FILL_AREA(#1839);
#1839 = FILL_AREA_STYLE('',(#1840));
#1840 = FILL_AREA_STYLE_COLOUR('',#1728);
#1841 = OVER_RIDING_STYLED_ITEM('overriding color',(#1842),#1431,#1710);
#1842 = PRESENTATION_STYLE_ASSIGNMENT((#1843));
#1843 = SURFACE_STYLE_USAGE(.BOTH.,#1844);
#1844 = SURFACE_SIDE_STYLE('',(#1845));
#1845 = SURFACE_STYLE_FILL_AREA(#1846);
#1846 = FILL_AREA_STYLE('',(#1847));
#1847 = FILL_AREA_STYLE_COLOUR('',#1728);
#1848 = OVER_RIDING_STYLED_ITEM('overriding color',(#1849),#1498,#1710);
#1849 = PRESENTATION_STYLE_ASSIGNMENT((#1850));
#1850 = SURFACE_STYLE_USAGE(.BOTH.,#1851);
#1851 = SURFACE_SIDE_STYLE('',(#1852));
#1852 = SURFACE_STYLE_FILL_AREA(#1853);
#1853 = FILL_AREA_STYLE('',(#1854));
#1854 = FILL_AREA_STYLE_COLOUR('',#1728);
#1855 = OVER_RIDING_STYLED_ITEM('overriding color',(#1856),#1515,#1710);
#1856 = PRESENTATION_STYLE_ASSIGNMENT((#1857));
#1857 = SURFACE_STYLE_USAGE(.BOTH.,#1858);
#1858 = SURFACE_SIDE_STYLE('',(#1859));
#1859 = SURFACE_STYLE_FILL_AREA(#1860);
#1860 = FILL_AREA_STYLE('',(#1861));
#1861 = FILL_AREA_STYLE_COLOUR('',#1728);
#1862 = OVER_RIDING_STYLED_ITEM('overriding color',(#1863),#1532,#1710);
#1863 = PRESENTATION_STYLE_ASSIGNMENT((#1864));
#1864 = SURFACE_STYLE_USAGE(.BOTH.,#1865);
#1865 = SURFACE_SIDE_STYLE('',(#1866));
#1866 = SURFACE_STYLE_FILL_AREA(#1867);
#1867 = FILL_AREA_STYLE('',(#1868));
#1868 = FILL_AREA_STYLE_COLOUR('',#1728);
#1869 = OVER_RIDING_STYLED_ITEM('overriding color',(#1870),#1549,#1710);
#1870 = PRESENTATION_STYLE_ASSIGNMENT((#1871));
#1871 = SURFACE_STYLE_USAGE(.BOTH.,#1872);
#1872 = SURFACE_SIDE_STYLE('',(#1873));
#1873 = SURFACE_STYLE_FILL_AREA(#1874);
#1874 = FILL_AREA_STYLE('',(#1875));
#1875 = FILL_AREA_STYLE_COLOUR('',#1728);
#1876 = OVER_RIDING_STYLED_ITEM('overriding color',(#1877),#1566,#1710);
#1877 = PRESENTATION_STYLE_ASSIGNMENT((#1878));
#1878 = SURFACE_STYLE_USAGE(.BOTH.,#1879);
#1879 = SURFACE_SIDE_STYLE('',(#1880));
#1880 = SURFACE_STYLE_FILL_AREA(#1881);
#1881 = FILL_AREA_STYLE('',(#1882));
#1882 = FILL_AREA_STYLE_COLOUR('',#1728);
#1883 = OVER_RIDING_STYLED_ITEM('overriding color',(#1884),#1583,#1710);
#1884 = PRESENTATION_STYLE_ASSIGNMENT((#1885));
#1885 = SURFACE_STYLE_USAGE(.BOTH.,#1886);
#1886 = SURFACE_SIDE_STYLE('',(#1887));
#1887 = SURFACE_STYLE_FILL_AREA(#1888);
#1888 = FILL_AREA_STYLE('',(#1889));
#1889 = FILL_AREA_STYLE_COLOUR('',#1728);
#1890 = OVER_RIDING_STYLED_ITEM('overriding color',(#1891),#1595,#1710);
#1891 = PRESENTATION_STYLE_ASSIGNMENT((#1892));
#1892 = SURFACE_STYLE_USAGE(.BOTH.,#1893);
#1893 = SURFACE_SIDE_STYLE('',(#1894));
#1894 = SURFACE_STYLE_FILL_AREA(#1895);
#1895 = FILL_AREA_STYLE('',(#1896));
#1896 = FILL_AREA_STYLE_COLOUR('',#1897);
#1897 = COLOUR_RGB('',0.690999977303,0.664000029585,0.597999987832);
#1898 = OVER_RIDING_STYLED_ITEM('overriding color',(#1899),#1626,#1710);
#1899 = PRESENTATION_STYLE_ASSIGNMENT((#1900));
#1900 = SURFACE_STYLE_USAGE(.BOTH.,#1901);
#1901 = SURFACE_SIDE_STYLE('',(#1902));
#1902 = SURFACE_STYLE_FILL_AREA(#1903);
#1903 = FILL_AREA_STYLE('',(#1904));
#1904 = FILL_AREA_STYLE_COLOUR('',#1897);
#1905 = OVER_RIDING_STYLED_ITEM('overriding color',(#1906),#1650,#1710);
#1906 = PRESENTATION_STYLE_ASSIGNMENT((#1907));
#1907 = SURFACE_STYLE_USAGE(.BOTH.,#1908);
#1908 = SURFACE_SIDE_STYLE('',(#1909));
#1909 = SURFACE_STYLE_FILL_AREA(#1910);
#1910 = FILL_AREA_STYLE('',(#1911));
#1911 = FILL_AREA_STYLE_COLOUR('',#1897);
#1912 = OVER_RIDING_STYLED_ITEM('overriding color',(#1913),#1674,#1710);
#1913 = PRESENTATION_STYLE_ASSIGNMENT((#1914));
#1914 = SURFACE_STYLE_USAGE(.BOTH.,#1915);
#1915 = SURFACE_SIDE_STYLE('',(#1916));
#1916 = SURFACE_STYLE_FILL_AREA(#1917);
#1917 = FILL_AREA_STYLE('',(#1918));
#1918 = FILL_AREA_STYLE_COLOUR('',#1897);
#1919 = OVER_RIDING_STYLED_ITEM('overriding color',(#1920),#1691,#1710);
#1920 = PRESENTATION_STYLE_ASSIGNMENT((#1921));
#1921 = SURFACE_STYLE_USAGE(.BOTH.,#1922);
#1922 = SURFACE_SIDE_STYLE('',(#1923));
#1923 = SURFACE_STYLE_FILL_AREA(#1924);
#1924 = FILL_AREA_STYLE('',(#1925));
#1925 = FILL_AREA_STYLE_COLOUR('',#1897);
ENDSEC;
END-ISO-10303-21;
