ISO-10303-21;
HEADER;
FILE_DESCRIPTION(('FreeCAD Model'),'2;1');
FILE_NAME('Open CASCADE Shape Model','2026-09-27T16:51:36',('Author'),(
    ''),'Open CASCADE STEP processor 7.8','FreeCAD','Unknown');
FILE_SCHEMA(('AUTOMOTIVE_DESIGN { 1 0 10303 214 1 1 1 1 }'));
ENDSEC;
DATA;
#1 = APPLICATION_PROTOCOL_DEFINITION('international standard',
  'automotive_design',2000,#2);
#2 = APPLICATION_CONTEXT(
  'core data for automotive mechanical design processes');
#3 = SHAPE_DEFINITION_REPRESENTATION(#4,#10);
#4 = PRODUCT_DEFINITION_SHAPE('','',#5);
#5 = PRODUCT_DEFINITION('design','',#6,#9);
#6 = PRODUCT_DEFINITION_FORMATION('','',#7);
#7 = PRODUCT('left-jst','left-jst','',(#8));
#8 = PRODUCT_CONTEXT('',#2,'mechanical');
#9 = PRODUCT_DEFINITION_CONTEXT('part definition',#2,'design');
#10 = SHAPE_REPRESENTATION('',(#11,#15,#353,#645,#795),#945);
#11 = AXIS2_PLACEMENT_3D('',#12,#13,#14);
#12 = CARTESIAN_POINT('',(0.,0.,0.));
#13 = DIRECTION('',(0.,0.,1.));
#14 = DIRECTION('',(1.,0.,-0.));
#15 = MANIFOLD_SOLID_BREP('',#16);
#16 = CLOSED_SHELL('',(#17,#57,#88,#112,#170,#187,#199,#245,#276,#300,
    #324,#341));
#17 = ADVANCED_FACE('',(#18),#52,.F.);
#18 = FACE_BOUND('',#19,.F.);
#19 = EDGE_LOOP('',(#20,#30,#38,#46));
#20 = ORIENTED_EDGE('',*,*,#21,.F.);
#21 = EDGE_CURVE('',#22,#24,#26,.T.);
#22 = VERTEX_POINT('',#23);
#23 = CARTESIAN_POINT('',(3.95,1.35,-4.E-02));
#24 = VERTEX_POINT('',#25);
#25 = CARTESIAN_POINT('',(3.95,1.35,4.76));
#26 = LINE('',#27,#28);
#27 = CARTESIAN_POINT('',(3.95,1.35,-4.E-02));
#28 = VECTOR('',#29,1.);
#29 = DIRECTION('',(0.,0.,1.));
#30 = ORIENTED_EDGE('',*,*,#31,.T.);
#31 = EDGE_CURVE('',#22,#32,#34,.T.);
#32 = VERTEX_POINT('',#33);
#33 = CARTESIAN_POINT('',(3.95,-6.25,-4.E-02));
#34 = LINE('',#35,#36);
#35 = CARTESIAN_POINT('',(3.95,1.35,-4.E-02));
#36 = VECTOR('',#37,1.);
#37 = DIRECTION('',(2.22044604925E-16,-1.,0.));
#38 = ORIENTED_EDGE('',*,*,#39,.T.);
#39 = EDGE_CURVE('',#32,#40,#42,.T.);
#40 = VERTEX_POINT('',#41);
#41 = CARTESIAN_POINT('',(3.95,-6.25,4.76));
#42 = LINE('',#43,#44);
#43 = CARTESIAN_POINT('',(3.95,-6.25,-4.E-02));
#44 = VECTOR('',#45,1.);
#45 = DIRECTION('',(0.,0.,1.));
#46 = ORIENTED_EDGE('',*,*,#47,.F.);
#47 = EDGE_CURVE('',#24,#40,#48,.T.);
#48 = LINE('',#49,#50);
#49 = CARTESIAN_POINT('',(3.95,1.35,4.76));
#50 = VECTOR('',#51,1.);
#51 = DIRECTION('',(2.22044604925E-16,-1.,0.));
#52 = PLANE('',#53);
#53 = AXIS2_PLACEMENT_3D('',#54,#55,#56);
#54 = CARTESIAN_POINT('',(3.95,1.35,-4.E-02));
#55 = DIRECTION('',(-1.,-2.22044604925E-16,0.));
#56 = DIRECTION('',(0.,0.,1.));
#57 = ADVANCED_FACE('',(#58),#83,.F.);
#58 = FACE_BOUND('',#59,.F.);
#59 = EDGE_LOOP('',(#60,#68,#69,#77));
#60 = ORIENTED_EDGE('',*,*,#61,.F.);
#61 = EDGE_CURVE('',#22,#62,#64,.T.);
#62 = VERTEX_POINT('',#63);
#63 = CARTESIAN_POINT('',(-1.95,1.35,-4.E-02));
#64 = LINE('',#65,#66);
#65 = CARTESIAN_POINT('',(3.95,1.35,-4.E-02));
#66 = VECTOR('',#67,1.);
#67 = DIRECTION('',(-1.,-2.22044604925E-16,0.));
#68 = ORIENTED_EDGE('',*,*,#21,.T.);
#69 = ORIENTED_EDGE('',*,*,#70,.T.);
#70 = EDGE_CURVE('',#24,#71,#73,.T.);
#71 = VERTEX_POINT('',#72);
#72 = CARTESIAN_POINT('',(-1.95,1.35,4.76));
#73 = LINE('',#74,#75);
#74 = CARTESIAN_POINT('',(3.95,1.35,4.76));
#75 = VECTOR('',#76,1.);
#76 = DIRECTION('',(-1.,-2.22044604925E-16,0.));
#77 = ORIENTED_EDGE('',*,*,#78,.F.);
#78 = EDGE_CURVE('',#62,#71,#79,.T.);
#79 = LINE('',#80,#81);
#80 = CARTESIAN_POINT('',(-1.95,1.35,-4.E-02));
#81 = VECTOR('',#82,1.);
#82 = DIRECTION('',(0.,0.,1.));
#83 = PLANE('',#84);
#84 = AXIS2_PLACEMENT_3D('',#85,#86,#87);
#85 = CARTESIAN_POINT('',(3.95,1.35,-4.E-02));
#86 = DIRECTION('',(2.22044604925E-16,-1.,0.));
#87 = DIRECTION('',(0.,0.,1.));
#88 = ADVANCED_FACE('',(#89),#107,.T.);
#89 = FACE_BOUND('',#90,.T.);
#90 = EDGE_LOOP('',(#91,#92,#93,#101));
#91 = ORIENTED_EDGE('',*,*,#47,.F.);
#92 = ORIENTED_EDGE('',*,*,#70,.T.);
#93 = ORIENTED_EDGE('',*,*,#94,.T.);
#94 = EDGE_CURVE('',#71,#95,#97,.T.);
#95 = VERTEX_POINT('',#96);
#96 = CARTESIAN_POINT('',(-1.95,-6.25,4.76));
#97 = LINE('',#98,#99);
#98 = CARTESIAN_POINT('',(-1.95,1.35,4.76));
#99 = VECTOR('',#100,1.);
#100 = DIRECTION('',(2.22044604925E-16,-1.,0.));
#101 = ORIENTED_EDGE('',*,*,#102,.F.);
#102 = EDGE_CURVE('',#40,#95,#103,.T.);
#103 = LINE('',#104,#105);
#104 = CARTESIAN_POINT('',(3.95,-6.25,4.76));
#105 = VECTOR('',#106,1.);
#106 = DIRECTION('',(-1.,-2.22044604925E-16,0.));
#107 = PLANE('',#108);
#108 = AXIS2_PLACEMENT_3D('',#109,#110,#111);
#109 = CARTESIAN_POINT('',(3.95,1.35,4.76));
#110 = DIRECTION('',(0.,0.,1.));
#111 = DIRECTION('',(-1.,-2.22044604925E-16,0.));
#112 = ADVANCED_FACE('',(#113,#131),#165,.T.);
#113 = FACE_BOUND('',#114,.T.);
#114 = EDGE_LOOP('',(#115,#123,#124,#125));
#115 = ORIENTED_EDGE('',*,*,#116,.F.);
#116 = EDGE_CURVE('',#32,#117,#119,.T.);
#117 = VERTEX_POINT('',#118);
#118 = CARTESIAN_POINT('',(-1.95,-6.25,-4.E-02));
#119 = LINE('',#120,#121);
#120 = CARTESIAN_POINT('',(3.95,-6.25,-4.E-02));
#121 = VECTOR('',#122,1.);
#122 = DIRECTION('',(-1.,-2.22044604925E-16,0.));
#123 = ORIENTED_EDGE('',*,*,#39,.T.);
#124 = ORIENTED_EDGE('',*,*,#102,.T.);
#125 = ORIENTED_EDGE('',*,*,#126,.F.);
#126 = EDGE_CURVE('',#117,#95,#127,.T.);
#127 = LINE('',#128,#129);
#128 = CARTESIAN_POINT('',(-1.95,-6.25,-4.E-02));
#129 = VECTOR('',#130,1.);
#130 = DIRECTION('',(0.,0.,1.));
#131 = FACE_BOUND('',#132,.T.);
#132 = EDGE_LOOP('',(#133,#143,#151,#159));
#133 = ORIENTED_EDGE('',*,*,#134,.F.);
#134 = EDGE_CURVE('',#135,#137,#139,.T.);
#135 = VERTEX_POINT('',#136);
#136 = CARTESIAN_POINT('',(3.9,-6.25,0.11));
#137 = VERTEX_POINT('',#138);
#138 = CARTESIAN_POINT('',(3.9,-6.25,4.61));
#139 = LINE('',#140,#141);
#140 = CARTESIAN_POINT('',(3.9,-6.25,0.11));
#141 = VECTOR('',#142,1.);
#142 = DIRECTION('',(0.,0.,1.));
#143 = ORIENTED_EDGE('',*,*,#144,.T.);
#144 = EDGE_CURVE('',#135,#145,#147,.T.);
#145 = VERTEX_POINT('',#146);
#146 = CARTESIAN_POINT('',(-1.9,-6.25,0.11));
#147 = LINE('',#148,#149);
#148 = CARTESIAN_POINT('',(3.9,-6.25,0.11));
#149 = VECTOR('',#150,1.);
#150 = DIRECTION('',(-1.,-2.22044604925E-16,0.));
#151 = ORIENTED_EDGE('',*,*,#152,.T.);
#152 = EDGE_CURVE('',#145,#153,#155,.T.);
#153 = VERTEX_POINT('',#154);
#154 = CARTESIAN_POINT('',(-1.9,-6.25,4.61));
#155 = LINE('',#156,#157);
#156 = CARTESIAN_POINT('',(-1.9,-6.25,0.11));
#157 = VECTOR('',#158,1.);
#158 = DIRECTION('',(0.,0.,1.));
#159 = ORIENTED_EDGE('',*,*,#160,.F.);
#160 = EDGE_CURVE('',#137,#153,#161,.T.);
#161 = LINE('',#162,#163);
#162 = CARTESIAN_POINT('',(3.9,-6.25,4.61));
#163 = VECTOR('',#164,1.);
#164 = DIRECTION('',(-1.,-2.22044604925E-16,0.));
#165 = PLANE('',#166);
#166 = AXIS2_PLACEMENT_3D('',#167,#168,#169);
#167 = CARTESIAN_POINT('',(3.95,-6.25,-4.E-02));
#168 = DIRECTION('',(2.22044604925E-16,-1.,0.));
#169 = DIRECTION('',(0.,0.,1.));
#170 = ADVANCED_FACE('',(#171),#182,.F.);
#171 = FACE_BOUND('',#172,.F.);
#172 = EDGE_LOOP('',(#173,#174,#175,#181));
#173 = ORIENTED_EDGE('',*,*,#31,.F.);
#174 = ORIENTED_EDGE('',*,*,#61,.T.);
#175 = ORIENTED_EDGE('',*,*,#176,.T.);
#176 = EDGE_CURVE('',#62,#117,#177,.T.);
#177 = LINE('',#178,#179);
#178 = CARTESIAN_POINT('',(-1.95,1.35,-4.E-02));
#179 = VECTOR('',#180,1.);
#180 = DIRECTION('',(2.22044604925E-16,-1.,0.));
#181 = ORIENTED_EDGE('',*,*,#116,.F.);
#182 = PLANE('',#183);
#183 = AXIS2_PLACEMENT_3D('',#184,#185,#186);
#184 = CARTESIAN_POINT('',(3.95,1.35,-4.E-02));
#185 = DIRECTION('',(0.,0.,1.));
#186 = DIRECTION('',(-1.,-2.22044604925E-16,0.));
#187 = ADVANCED_FACE('',(#188),#194,.T.);
#188 = FACE_BOUND('',#189,.T.);
#189 = EDGE_LOOP('',(#190,#191,#192,#193));
#190 = ORIENTED_EDGE('',*,*,#78,.F.);
#191 = ORIENTED_EDGE('',*,*,#176,.T.);
#192 = ORIENTED_EDGE('',*,*,#126,.T.);
#193 = ORIENTED_EDGE('',*,*,#94,.F.);
#194 = PLANE('',#195);
#195 = AXIS2_PLACEMENT_3D('',#196,#197,#198);
#196 = CARTESIAN_POINT('',(-1.95,1.35,-4.E-02));
#197 = DIRECTION('',(-1.,-2.22044604925E-16,0.));
#198 = DIRECTION('',(0.,0.,1.));
#199 = ADVANCED_FACE('',(#200,#206),#240,.T.);
#200 = FACE_BOUND('',#201,.T.);
#201 = EDGE_LOOP('',(#202,#203,#204,#205));
#202 = ORIENTED_EDGE('',*,*,#144,.F.);
#203 = ORIENTED_EDGE('',*,*,#134,.T.);
#204 = ORIENTED_EDGE('',*,*,#160,.T.);
#205 = ORIENTED_EDGE('',*,*,#152,.F.);
#206 = FACE_BOUND('',#207,.T.);
#207 = EDGE_LOOP('',(#208,#218,#226,#234));
#208 = ORIENTED_EDGE('',*,*,#209,.F.);
#209 = EDGE_CURVE('',#210,#212,#214,.T.);
#210 = VERTEX_POINT('',#211);
#211 = CARTESIAN_POINT('',(3.1,-6.25,0.41));
#212 = VERTEX_POINT('',#213);
#213 = CARTESIAN_POINT('',(3.1,-6.25,4.31));
#214 = LINE('',#215,#216);
#215 = CARTESIAN_POINT('',(3.1,-6.25,0.41));
#216 = VECTOR('',#217,1.);
#217 = DIRECTION('',(0.,0.,1.));
#218 = ORIENTED_EDGE('',*,*,#219,.T.);
#219 = EDGE_CURVE('',#210,#220,#222,.T.);
#220 = VERTEX_POINT('',#221);
#221 = CARTESIAN_POINT('',(-1.1,-6.25,0.41));
#222 = LINE('',#223,#224);
#223 = CARTESIAN_POINT('',(3.1,-6.25,0.41));
#224 = VECTOR('',#225,1.);
#225 = DIRECTION('',(-1.,-2.22044604925E-16,0.));
#226 = ORIENTED_EDGE('',*,*,#227,.T.);
#227 = EDGE_CURVE('',#220,#228,#230,.T.);
#228 = VERTEX_POINT('',#229);
#229 = CARTESIAN_POINT('',(-1.1,-6.25,4.31));
#230 = LINE('',#231,#232);
#231 = CARTESIAN_POINT('',(-1.1,-6.25,0.41));
#232 = VECTOR('',#233,1.);
#233 = DIRECTION('',(0.,0.,1.));
#234 = ORIENTED_EDGE('',*,*,#235,.F.);
#235 = EDGE_CURVE('',#212,#228,#236,.T.);
#236 = LINE('',#237,#238);
#237 = CARTESIAN_POINT('',(3.1,-6.25,4.31));
#238 = VECTOR('',#239,1.);
#239 = DIRECTION('',(-1.,-2.22044604925E-16,0.));
#240 = PLANE('',#241);
#241 = AXIS2_PLACEMENT_3D('',#242,#243,#244);
#242 = CARTESIAN_POINT('',(3.95,-6.25,-4.E-02));
#243 = DIRECTION('',(2.22044604925E-16,-1.,0.));
#244 = DIRECTION('',(0.,0.,1.));
#245 = ADVANCED_FACE('',(#246),#271,.T.);
#246 = FACE_BOUND('',#247,.T.);
#247 = EDGE_LOOP('',(#248,#258,#264,#265));
#248 = ORIENTED_EDGE('',*,*,#249,.F.);
#249 = EDGE_CURVE('',#250,#252,#254,.T.);
#250 = VERTEX_POINT('',#251);
#251 = CARTESIAN_POINT('',(3.1,-1.4,0.41));
#252 = VERTEX_POINT('',#253);
#253 = CARTESIAN_POINT('',(3.1,-1.4,4.31));
#254 = LINE('',#255,#256);
#255 = CARTESIAN_POINT('',(3.1,-1.4,0.41));
#256 = VECTOR('',#257,1.);
#257 = DIRECTION('',(0.,0.,1.));
#258 = ORIENTED_EDGE('',*,*,#259,.T.);
#259 = EDGE_CURVE('',#250,#210,#260,.T.);
#260 = LINE('',#261,#262);
#261 = CARTESIAN_POINT('',(3.1,-1.4,0.41));
#262 = VECTOR('',#263,1.);
#263 = DIRECTION('',(2.22044604925E-16,-1.,0.));
#264 = ORIENTED_EDGE('',*,*,#209,.T.);
#265 = ORIENTED_EDGE('',*,*,#266,.F.);
#266 = EDGE_CURVE('',#252,#212,#267,.T.);
#267 = LINE('',#268,#269);
#268 = CARTESIAN_POINT('',(3.1,-1.4,4.31));
#269 = VECTOR('',#270,1.);
#270 = DIRECTION('',(2.22044604925E-16,-1.,0.));
#271 = PLANE('',#272);
#272 = AXIS2_PLACEMENT_3D('',#273,#274,#275);
#273 = CARTESIAN_POINT('',(3.1,-1.4,0.41));
#274 = DIRECTION('',(-1.,-2.22044604925E-16,0.));
#275 = DIRECTION('',(0.,0.,1.));
#276 = ADVANCED_FACE('',(#277),#295,.F.);
#277 = FACE_BOUND('',#278,.F.);
#278 = EDGE_LOOP('',(#279,#280,#288,#294));
#279 = ORIENTED_EDGE('',*,*,#266,.F.);
#280 = ORIENTED_EDGE('',*,*,#281,.T.);
#281 = EDGE_CURVE('',#252,#282,#284,.T.);
#282 = VERTEX_POINT('',#283);
#283 = CARTESIAN_POINT('',(-1.1,-1.4,4.31));
#284 = LINE('',#285,#286);
#285 = CARTESIAN_POINT('',(3.1,-1.4,4.31));
#286 = VECTOR('',#287,1.);
#287 = DIRECTION('',(-1.,-2.22044604925E-16,0.));
#288 = ORIENTED_EDGE('',*,*,#289,.T.);
#289 = EDGE_CURVE('',#282,#228,#290,.T.);
#290 = LINE('',#291,#292);
#291 = CARTESIAN_POINT('',(-1.1,-1.4,4.31));
#292 = VECTOR('',#293,1.);
#293 = DIRECTION('',(2.22044604925E-16,-1.,0.));
#294 = ORIENTED_EDGE('',*,*,#235,.F.);
#295 = PLANE('',#296);
#296 = AXIS2_PLACEMENT_3D('',#297,#298,#299);
#297 = CARTESIAN_POINT('',(3.1,-1.4,4.31));
#298 = DIRECTION('',(0.,0.,1.));
#299 = DIRECTION('',(-1.,-2.22044604925E-16,0.));
#300 = ADVANCED_FACE('',(#301),#319,.F.);
#301 = FACE_BOUND('',#302,.F.);
#302 = EDGE_LOOP('',(#303,#311,#317,#318));
#303 = ORIENTED_EDGE('',*,*,#304,.F.);
#304 = EDGE_CURVE('',#305,#282,#307,.T.);
#305 = VERTEX_POINT('',#306);
#306 = CARTESIAN_POINT('',(-1.1,-1.4,0.41));
#307 = LINE('',#308,#309);
#308 = CARTESIAN_POINT('',(-1.1,-1.4,0.41));
#309 = VECTOR('',#310,1.);
#310 = DIRECTION('',(0.,0.,1.));
#311 = ORIENTED_EDGE('',*,*,#312,.T.);
#312 = EDGE_CURVE('',#305,#220,#313,.T.);
#313 = LINE('',#314,#315);
#314 = CARTESIAN_POINT('',(-1.1,-1.4,0.41));
#315 = VECTOR('',#316,1.);
#316 = DIRECTION('',(2.22044604925E-16,-1.,0.));
#317 = ORIENTED_EDGE('',*,*,#227,.T.);
#318 = ORIENTED_EDGE('',*,*,#289,.F.);
#319 = PLANE('',#320);
#320 = AXIS2_PLACEMENT_3D('',#321,#322,#323);
#321 = CARTESIAN_POINT('',(-1.1,-1.4,0.41));
#322 = DIRECTION('',(-1.,-2.22044604925E-16,0.));
#323 = DIRECTION('',(0.,0.,1.));
#324 = ADVANCED_FACE('',(#325),#336,.T.);
#325 = FACE_BOUND('',#326,.T.);
#326 = EDGE_LOOP('',(#327,#328,#334,#335));
#327 = ORIENTED_EDGE('',*,*,#259,.F.);
#328 = ORIENTED_EDGE('',*,*,#329,.T.);
#329 = EDGE_CURVE('',#250,#305,#330,.T.);
#330 = LINE('',#331,#332);
#331 = CARTESIAN_POINT('',(3.1,-1.4,0.41));
#332 = VECTOR('',#333,1.);
#333 = DIRECTION('',(-1.,-2.22044604925E-16,0.));
#334 = ORIENTED_EDGE('',*,*,#312,.T.);
#335 = ORIENTED_EDGE('',*,*,#219,.F.);
#336 = PLANE('',#337);
#337 = AXIS2_PLACEMENT_3D('',#338,#339,#340);
#338 = CARTESIAN_POINT('',(3.1,-1.4,0.41));
#339 = DIRECTION('',(0.,0.,1.));
#340 = DIRECTION('',(-1.,-2.22044604925E-16,0.));
#341 = ADVANCED_FACE('',(#342),#348,.T.);
#342 = FACE_BOUND('',#343,.T.);
#343 = EDGE_LOOP('',(#344,#345,#346,#347));
#344 = ORIENTED_EDGE('',*,*,#329,.F.);
#345 = ORIENTED_EDGE('',*,*,#249,.T.);
#346 = ORIENTED_EDGE('',*,*,#281,.T.);
#347 = ORIENTED_EDGE('',*,*,#304,.F.);
#348 = PLANE('',#349);
#349 = AXIS2_PLACEMENT_3D('',#350,#351,#352);
#350 = CARTESIAN_POINT('',(3.1,-1.4,0.41));
#351 = DIRECTION('',(2.22044604925E-16,-1.,0.));
#352 = DIRECTION('',(0.,0.,1.));
#353 = MANIFOLD_SOLID_BREP('',#354);
#354 = CLOSED_SHELL('',(#355,#395,#426,#450,#508,#525,#537,#568,#592,
    #616,#633));
#355 = ADVANCED_FACE('',(#356),#390,.F.);
#356 = FACE_BOUND('',#357,.F.);
#357 = EDGE_LOOP('',(#358,#368,#376,#384));
#358 = ORIENTED_EDGE('',*,*,#359,.F.);
#359 = EDGE_CURVE('',#360,#362,#364,.T.);
#360 = VERTEX_POINT('',#361);
#361 = CARTESIAN_POINT('',(3.1,-1.4,0.41));
#362 = VERTEX_POINT('',#363);
#363 = CARTESIAN_POINT('',(3.1,-1.4,4.31));
#364 = LINE('',#365,#366);
#365 = CARTESIAN_POINT('',(3.1,-1.4,0.41));
#366 = VECTOR('',#367,1.);
#367 = DIRECTION('',(0.,0.,1.));
#368 = ORIENTED_EDGE('',*,*,#369,.T.);
#369 = EDGE_CURVE('',#360,#370,#372,.T.);
#370 = VERTEX_POINT('',#371);
#371 = CARTESIAN_POINT('',(3.1,-6.25,0.41));
#372 = LINE('',#373,#374);
#373 = CARTESIAN_POINT('',(3.1,-1.4,0.41));
#374 = VECTOR('',#375,1.);
#375 = DIRECTION('',(2.22044604925E-16,-1.,0.));
#376 = ORIENTED_EDGE('',*,*,#377,.T.);
#377 = EDGE_CURVE('',#370,#378,#380,.T.);
#378 = VERTEX_POINT('',#379);
#379 = CARTESIAN_POINT('',(3.1,-6.25,4.31));
#380 = LINE('',#381,#382);
#381 = CARTESIAN_POINT('',(3.1,-6.25,0.41));
#382 = VECTOR('',#383,1.);
#383 = DIRECTION('',(0.,0.,1.));
#384 = ORIENTED_EDGE('',*,*,#385,.F.);
#385 = EDGE_CURVE('',#362,#378,#386,.T.);
#386 = LINE('',#387,#388);
#387 = CARTESIAN_POINT('',(3.1,-1.4,4.31));
#388 = VECTOR('',#389,1.);
#389 = DIRECTION('',(2.22044604925E-16,-1.,0.));
#390 = PLANE('',#391);
#391 = AXIS2_PLACEMENT_3D('',#392,#393,#394);
#392 = CARTESIAN_POINT('',(3.1,-1.4,0.41));
#393 = DIRECTION('',(-1.,-2.22044604925E-16,0.));
#394 = DIRECTION('',(0.,0.,1.));
#395 = ADVANCED_FACE('',(#396),#421,.F.);
#396 = FACE_BOUND('',#397,.F.);
#397 = EDGE_LOOP('',(#398,#406,#407,#415));
#398 = ORIENTED_EDGE('',*,*,#399,.F.);
#399 = EDGE_CURVE('',#360,#400,#402,.T.);
#400 = VERTEX_POINT('',#401);
#401 = CARTESIAN_POINT('',(-1.1,-1.4,0.41));
#402 = LINE('',#403,#404);
#403 = CARTESIAN_POINT('',(3.1,-1.4,0.41));
#404 = VECTOR('',#405,1.);
#405 = DIRECTION('',(-1.,-2.22044604925E-16,0.));
#406 = ORIENTED_EDGE('',*,*,#359,.T.);
#407 = ORIENTED_EDGE('',*,*,#408,.T.);
#408 = EDGE_CURVE('',#362,#409,#411,.T.);
#409 = VERTEX_POINT('',#410);
#410 = CARTESIAN_POINT('',(-1.1,-1.4,4.31));
#411 = LINE('',#412,#413);
#412 = CARTESIAN_POINT('',(3.1,-1.4,4.31));
#413 = VECTOR('',#414,1.);
#414 = DIRECTION('',(-1.,-2.22044604925E-16,0.));
#415 = ORIENTED_EDGE('',*,*,#416,.F.);
#416 = EDGE_CURVE('',#400,#409,#417,.T.);
#417 = LINE('',#418,#419);
#418 = CARTESIAN_POINT('',(-1.1,-1.4,0.41));
#419 = VECTOR('',#420,1.);
#420 = DIRECTION('',(0.,0.,1.));
#421 = PLANE('',#422);
#422 = AXIS2_PLACEMENT_3D('',#423,#424,#425);
#423 = CARTESIAN_POINT('',(3.1,-1.4,0.41));
#424 = DIRECTION('',(2.22044604925E-16,-1.,0.));
#425 = DIRECTION('',(0.,0.,1.));
#426 = ADVANCED_FACE('',(#427),#445,.T.);
#427 = FACE_BOUND('',#428,.T.);
#428 = EDGE_LOOP('',(#429,#430,#431,#439));
#429 = ORIENTED_EDGE('',*,*,#385,.F.);
#430 = ORIENTED_EDGE('',*,*,#408,.T.);
#431 = ORIENTED_EDGE('',*,*,#432,.T.);
#432 = EDGE_CURVE('',#409,#433,#435,.T.);
#433 = VERTEX_POINT('',#434);
#434 = CARTESIAN_POINT('',(-1.1,-6.25,4.31));
#435 = LINE('',#436,#437);
#436 = CARTESIAN_POINT('',(-1.1,-1.4,4.31));
#437 = VECTOR('',#438,1.);
#438 = DIRECTION('',(2.22044604925E-16,-1.,0.));
#439 = ORIENTED_EDGE('',*,*,#440,.F.);
#440 = EDGE_CURVE('',#378,#433,#441,.T.);
#441 = LINE('',#442,#443);
#442 = CARTESIAN_POINT('',(3.1,-6.25,4.31));
#443 = VECTOR('',#444,1.);
#444 = DIRECTION('',(-1.,-2.22044604925E-16,0.));
#445 = PLANE('',#446);
#446 = AXIS2_PLACEMENT_3D('',#447,#448,#449);
#447 = CARTESIAN_POINT('',(3.1,-1.4,4.31));
#448 = DIRECTION('',(0.,0.,1.));
#449 = DIRECTION('',(-1.,-2.22044604925E-16,0.));
#450 = ADVANCED_FACE('',(#451,#485),#503,.F.);
#451 = FACE_BOUND('',#452,.F.);
#452 = EDGE_LOOP('',(#453,#463,#471,#479));
#453 = ORIENTED_EDGE('',*,*,#454,.F.);
#454 = EDGE_CURVE('',#455,#457,#459,.T.);
#455 = VERTEX_POINT('',#456);
#456 = CARTESIAN_POINT('',(3.9,-6.25,0.11));
#457 = VERTEX_POINT('',#458);
#458 = CARTESIAN_POINT('',(-1.9,-6.25,0.11));
#459 = LINE('',#460,#461);
#460 = CARTESIAN_POINT('',(3.9,-6.25,0.11));
#461 = VECTOR('',#462,1.);
#462 = DIRECTION('',(-1.,-2.22044604925E-16,0.));
#463 = ORIENTED_EDGE('',*,*,#464,.T.);
#464 = EDGE_CURVE('',#455,#465,#467,.T.);
#465 = VERTEX_POINT('',#466);
#466 = CARTESIAN_POINT('',(3.9,-6.25,4.61));
#467 = LINE('',#468,#469);
#468 = CARTESIAN_POINT('',(3.9,-6.25,0.11));
#469 = VECTOR('',#470,1.);
#470 = DIRECTION('',(0.,0.,1.));
#471 = ORIENTED_EDGE('',*,*,#472,.T.);
#472 = EDGE_CURVE('',#465,#473,#475,.T.);
#473 = VERTEX_POINT('',#474);
#474 = CARTESIAN_POINT('',(-1.9,-6.25,4.61));
#475 = LINE('',#476,#477);
#476 = CARTESIAN_POINT('',(3.9,-6.25,4.61));
#477 = VECTOR('',#478,1.);
#478 = DIRECTION('',(-1.,-2.22044604925E-16,0.));
#479 = ORIENTED_EDGE('',*,*,#480,.F.);
#480 = EDGE_CURVE('',#457,#473,#481,.T.);
#481 = LINE('',#482,#483);
#482 = CARTESIAN_POINT('',(-1.9,-6.25,0.11));
#483 = VECTOR('',#484,1.);
#484 = DIRECTION('',(0.,0.,1.));
#485 = FACE_BOUND('',#486,.F.);
#486 = EDGE_LOOP('',(#487,#488,#496,#502));
#487 = ORIENTED_EDGE('',*,*,#377,.F.);
#488 = ORIENTED_EDGE('',*,*,#489,.T.);
#489 = EDGE_CURVE('',#370,#490,#492,.T.);
#490 = VERTEX_POINT('',#491);
#491 = CARTESIAN_POINT('',(-1.1,-6.25,0.41));
#492 = LINE('',#493,#494);
#493 = CARTESIAN_POINT('',(3.1,-6.25,0.41));
#494 = VECTOR('',#495,1.);
#495 = DIRECTION('',(-1.,-2.22044604925E-16,0.));
#496 = ORIENTED_EDGE('',*,*,#497,.T.);
#497 = EDGE_CURVE('',#490,#433,#498,.T.);
#498 = LINE('',#499,#500);
#499 = CARTESIAN_POINT('',(-1.1,-6.25,0.41));
#500 = VECTOR('',#501,1.);
#501 = DIRECTION('',(0.,0.,1.));
#502 = ORIENTED_EDGE('',*,*,#440,.F.);
#503 = PLANE('',#504);
#504 = AXIS2_PLACEMENT_3D('',#505,#506,#507);
#505 = CARTESIAN_POINT('',(3.9,-6.25,0.11));
#506 = DIRECTION('',(2.22044604925E-16,-1.,0.));
#507 = DIRECTION('',(0.,0.,1.));
#508 = ADVANCED_FACE('',(#509),#520,.F.);
#509 = FACE_BOUND('',#510,.F.);
#510 = EDGE_LOOP('',(#511,#512,#513,#519));
#511 = ORIENTED_EDGE('',*,*,#369,.F.);
#512 = ORIENTED_EDGE('',*,*,#399,.T.);
#513 = ORIENTED_EDGE('',*,*,#514,.T.);
#514 = EDGE_CURVE('',#400,#490,#515,.T.);
#515 = LINE('',#516,#517);
#516 = CARTESIAN_POINT('',(-1.1,-1.4,0.41));
#517 = VECTOR('',#518,1.);
#518 = DIRECTION('',(2.22044604925E-16,-1.,0.));
#519 = ORIENTED_EDGE('',*,*,#489,.F.);
#520 = PLANE('',#521);
#521 = AXIS2_PLACEMENT_3D('',#522,#523,#524);
#522 = CARTESIAN_POINT('',(3.1,-1.4,0.41));
#523 = DIRECTION('',(0.,0.,1.));
#524 = DIRECTION('',(-1.,-2.22044604925E-16,0.));
#525 = ADVANCED_FACE('',(#526),#532,.T.);
#526 = FACE_BOUND('',#527,.T.);
#527 = EDGE_LOOP('',(#528,#529,#530,#531));
#528 = ORIENTED_EDGE('',*,*,#416,.F.);
#529 = ORIENTED_EDGE('',*,*,#514,.T.);
#530 = ORIENTED_EDGE('',*,*,#497,.T.);
#531 = ORIENTED_EDGE('',*,*,#432,.F.);
#532 = PLANE('',#533);
#533 = AXIS2_PLACEMENT_3D('',#534,#535,#536);
#534 = CARTESIAN_POINT('',(-1.1,-1.4,0.41));
#535 = DIRECTION('',(-1.,-2.22044604925E-16,0.));
#536 = DIRECTION('',(0.,0.,1.));
#537 = ADVANCED_FACE('',(#538),#563,.F.);
#538 = FACE_BOUND('',#539,.F.);
#539 = EDGE_LOOP('',(#540,#548,#549,#557));
#540 = ORIENTED_EDGE('',*,*,#541,.F.);
#541 = EDGE_CURVE('',#455,#542,#544,.T.);
#542 = VERTEX_POINT('',#543);
#543 = CARTESIAN_POINT('',(3.9,-8.25,0.11));
#544 = LINE('',#545,#546);
#545 = CARTESIAN_POINT('',(3.9,-6.25,0.11));
#546 = VECTOR('',#547,1.);
#547 = DIRECTION('',(2.22044604925E-16,-1.,0.));
#548 = ORIENTED_EDGE('',*,*,#454,.T.);
#549 = ORIENTED_EDGE('',*,*,#550,.T.);
#550 = EDGE_CURVE('',#457,#551,#553,.T.);
#551 = VERTEX_POINT('',#552);
#552 = CARTESIAN_POINT('',(-1.9,-8.25,0.11));
#553 = LINE('',#554,#555);
#554 = CARTESIAN_POINT('',(-1.9,-6.25,0.11));
#555 = VECTOR('',#556,1.);
#556 = DIRECTION('',(2.22044604925E-16,-1.,0.));
#557 = ORIENTED_EDGE('',*,*,#558,.F.);
#558 = EDGE_CURVE('',#542,#551,#559,.T.);
#559 = LINE('',#560,#561);
#560 = CARTESIAN_POINT('',(3.9,-8.25,0.11));
#561 = VECTOR('',#562,1.);
#562 = DIRECTION('',(-1.,-2.22044604925E-16,0.));
#563 = PLANE('',#564);
#564 = AXIS2_PLACEMENT_3D('',#565,#566,#567);
#565 = CARTESIAN_POINT('',(3.9,-6.25,0.11));
#566 = DIRECTION('',(0.,0.,1.));
#567 = DIRECTION('',(-1.,-2.22044604925E-16,0.));
#568 = ADVANCED_FACE('',(#569),#587,.T.);
#569 = FACE_BOUND('',#570,.T.);
#570 = EDGE_LOOP('',(#571,#572,#573,#581));
#571 = ORIENTED_EDGE('',*,*,#480,.F.);
#572 = ORIENTED_EDGE('',*,*,#550,.T.);
#573 = ORIENTED_EDGE('',*,*,#574,.T.);
#574 = EDGE_CURVE('',#551,#575,#577,.T.);
#575 = VERTEX_POINT('',#576);
#576 = CARTESIAN_POINT('',(-1.9,-8.25,4.61));
#577 = LINE('',#578,#579);
#578 = CARTESIAN_POINT('',(-1.9,-8.25,0.11));
#579 = VECTOR('',#580,1.);
#580 = DIRECTION('',(0.,0.,1.));
#581 = ORIENTED_EDGE('',*,*,#582,.F.);
#582 = EDGE_CURVE('',#473,#575,#583,.T.);
#583 = LINE('',#584,#585);
#584 = CARTESIAN_POINT('',(-1.9,-6.25,4.61));
#585 = VECTOR('',#586,1.);
#586 = DIRECTION('',(2.22044604925E-16,-1.,0.));
#587 = PLANE('',#588);
#588 = AXIS2_PLACEMENT_3D('',#589,#590,#591);
#589 = CARTESIAN_POINT('',(-1.9,-6.25,0.11));
#590 = DIRECTION('',(-1.,-2.22044604925E-16,0.));
#591 = DIRECTION('',(0.,0.,1.));
#592 = ADVANCED_FACE('',(#593),#611,.F.);
#593 = FACE_BOUND('',#594,.F.);
#594 = EDGE_LOOP('',(#595,#596,#597,#605));
#595 = ORIENTED_EDGE('',*,*,#464,.F.);
#596 = ORIENTED_EDGE('',*,*,#541,.T.);
#597 = ORIENTED_EDGE('',*,*,#598,.T.);
#598 = EDGE_CURVE('',#542,#599,#601,.T.);
#599 = VERTEX_POINT('',#600);
#600 = CARTESIAN_POINT('',(3.9,-8.25,4.61));
#601 = LINE('',#602,#603);
#602 = CARTESIAN_POINT('',(3.9,-8.25,0.11));
#603 = VECTOR('',#604,1.);
#604 = DIRECTION('',(0.,0.,1.));
#605 = ORIENTED_EDGE('',*,*,#606,.F.);
#606 = EDGE_CURVE('',#465,#599,#607,.T.);
#607 = LINE('',#608,#609);
#608 = CARTESIAN_POINT('',(3.9,-6.25,4.61));
#609 = VECTOR('',#610,1.);
#610 = DIRECTION('',(2.22044604925E-16,-1.,0.));
#611 = PLANE('',#612);
#612 = AXIS2_PLACEMENT_3D('',#613,#614,#615);
#613 = CARTESIAN_POINT('',(3.9,-6.25,0.11));
#614 = DIRECTION('',(-1.,-2.22044604925E-16,0.));
#615 = DIRECTION('',(0.,0.,1.));
#616 = ADVANCED_FACE('',(#617),#628,.T.);
#617 = FACE_BOUND('',#618,.T.);
#618 = EDGE_LOOP('',(#619,#620,#621,#622));
#619 = ORIENTED_EDGE('',*,*,#606,.F.);
#620 = ORIENTED_EDGE('',*,*,#472,.T.);
#621 = ORIENTED_EDGE('',*,*,#582,.T.);
#622 = ORIENTED_EDGE('',*,*,#623,.F.);
#623 = EDGE_CURVE('',#599,#575,#624,.T.);
#624 = LINE('',#625,#626);
#625 = CARTESIAN_POINT('',(3.9,-8.25,4.61));
#626 = VECTOR('',#627,1.);
#627 = DIRECTION('',(-1.,-2.22044604925E-16,0.));
#628 = PLANE('',#629);
#629 = AXIS2_PLACEMENT_3D('',#630,#631,#632);
#630 = CARTESIAN_POINT('',(3.9,-6.25,4.61));
#631 = DIRECTION('',(0.,0.,1.));
#632 = DIRECTION('',(-1.,-2.22044604925E-16,0.));
#633 = ADVANCED_FACE('',(#634),#640,.T.);
#634 = FACE_BOUND('',#635,.T.);
#635 = EDGE_LOOP('',(#636,#637,#638,#639));
#636 = ORIENTED_EDGE('',*,*,#558,.F.);
#637 = ORIENTED_EDGE('',*,*,#598,.T.);
#638 = ORIENTED_EDGE('',*,*,#623,.T.);
#639 = ORIENTED_EDGE('',*,*,#574,.F.);
#640 = PLANE('',#641);
#641 = AXIS2_PLACEMENT_3D('',#642,#643,#644);
#642 = CARTESIAN_POINT('',(3.9,-8.25,0.11));
#643 = DIRECTION('',(2.22044604925E-16,-1.,0.));
#644 = DIRECTION('',(0.,0.,1.));
#645 = MANIFOLD_SOLID_BREP('',#646);
#646 = CLOSED_SHELL('',(#647,#687,#727,#749,#771,#783));
#647 = ADVANCED_FACE('',(#648),#682,.F.);
#648 = FACE_BOUND('',#649,.F.);
#649 = EDGE_LOOP('',(#650,#660,#668,#676));
#650 = ORIENTED_EDGE('',*,*,#651,.F.);
#651 = EDGE_CURVE('',#652,#654,#656,.T.);
#652 = VERTEX_POINT('',#653);
#653 = CARTESIAN_POINT('',(0.25,-0.25,-3.44));
#654 = VERTEX_POINT('',#655);
#655 = CARTESIAN_POINT('',(0.25,-0.25,-4.E-02));
#656 = LINE('',#657,#658);
#657 = CARTESIAN_POINT('',(0.25,-0.25,-3.44));
#658 = VECTOR('',#659,1.);
#659 = DIRECTION('',(0.,0.,1.));
#660 = ORIENTED_EDGE('',*,*,#661,.T.);
#661 = EDGE_CURVE('',#652,#662,#664,.T.);
#662 = VERTEX_POINT('',#663);
#663 = CARTESIAN_POINT('',(-0.25,-0.25,-3.44));
#664 = LINE('',#665,#666);
#665 = CARTESIAN_POINT('',(0.25,-0.25,-3.44));
#666 = VECTOR('',#667,1.);
#667 = DIRECTION('',(-1.,-2.22044604925E-16,0.));
#668 = ORIENTED_EDGE('',*,*,#669,.T.);
#669 = EDGE_CURVE('',#662,#670,#672,.T.);
#670 = VERTEX_POINT('',#671);
#671 = CARTESIAN_POINT('',(-0.25,-0.25,-4.E-02));
#672 = LINE('',#673,#674);
#673 = CARTESIAN_POINT('',(-0.25,-0.25,-3.44));
#674 = VECTOR('',#675,1.);
#675 = DIRECTION('',(0.,0.,1.));
#676 = ORIENTED_EDGE('',*,*,#677,.F.);
#677 = EDGE_CURVE('',#654,#670,#678,.T.);
#678 = LINE('',#679,#680);
#679 = CARTESIAN_POINT('',(0.25,-0.25,-4.E-02));
#680 = VECTOR('',#681,1.);
#681 = DIRECTION('',(-1.,-2.22044604925E-16,0.));
#682 = PLANE('',#683);
#683 = AXIS2_PLACEMENT_3D('',#684,#685,#686);
#684 = CARTESIAN_POINT('',(0.25,-0.25,-3.44));
#685 = DIRECTION('',(-2.22044604925E-16,1.,0.));
#686 = DIRECTION('',(0.,0.,1.));
#687 = ADVANCED_FACE('',(#688),#722,.T.);
#688 = FACE_BOUND('',#689,.T.);
#689 = EDGE_LOOP('',(#690,#700,#708,#716));
#690 = ORIENTED_EDGE('',*,*,#691,.F.);
#691 = EDGE_CURVE('',#692,#694,#696,.T.);
#692 = VERTEX_POINT('',#693);
#693 = CARTESIAN_POINT('',(0.25,0.25,-3.44));
#694 = VERTEX_POINT('',#695);
#695 = CARTESIAN_POINT('',(0.25,0.25,-4.E-02));
#696 = LINE('',#697,#698);
#697 = CARTESIAN_POINT('',(0.25,0.25,-3.44));
#698 = VECTOR('',#699,1.);
#699 = DIRECTION('',(0.,0.,1.));
#700 = ORIENTED_EDGE('',*,*,#701,.T.);
#701 = EDGE_CURVE('',#692,#702,#704,.T.);
#702 = VERTEX_POINT('',#703);
#703 = CARTESIAN_POINT('',(-0.25,0.25,-3.44));
#704 = LINE('',#705,#706);
#705 = CARTESIAN_POINT('',(0.25,0.25,-3.44));
#706 = VECTOR('',#707,1.);
#707 = DIRECTION('',(-1.,-2.22044604925E-16,0.));
#708 = ORIENTED_EDGE('',*,*,#709,.T.);
#709 = EDGE_CURVE('',#702,#710,#712,.T.);
#710 = VERTEX_POINT('',#711);
#711 = CARTESIAN_POINT('',(-0.25,0.25,-4.E-02));
#712 = LINE('',#713,#714);
#713 = CARTESIAN_POINT('',(-0.25,0.25,-3.44));
#714 = VECTOR('',#715,1.);
#715 = DIRECTION('',(0.,0.,1.));
#716 = ORIENTED_EDGE('',*,*,#717,.F.);
#717 = EDGE_CURVE('',#694,#710,#718,.T.);
#718 = LINE('',#719,#720);
#719 = CARTESIAN_POINT('',(0.25,0.25,-4.E-02));
#720 = VECTOR('',#721,1.);
#721 = DIRECTION('',(-1.,-2.22044604925E-16,0.));
#722 = PLANE('',#723);
#723 = AXIS2_PLACEMENT_3D('',#724,#725,#726);
#724 = CARTESIAN_POINT('',(0.25,0.25,-3.44));
#725 = DIRECTION('',(-2.22044604925E-16,1.,0.));
#726 = DIRECTION('',(0.,0.,1.));
#727 = ADVANCED_FACE('',(#728),#744,.F.);
#728 = FACE_BOUND('',#729,.F.);
#729 = EDGE_LOOP('',(#730,#736,#737,#743));
#730 = ORIENTED_EDGE('',*,*,#731,.F.);
#731 = EDGE_CURVE('',#652,#692,#732,.T.);
#732 = LINE('',#733,#734);
#733 = CARTESIAN_POINT('',(0.25,-0.25,-3.44));
#734 = VECTOR('',#735,1.);
#735 = DIRECTION('',(-2.22044604925E-16,1.,0.));
#736 = ORIENTED_EDGE('',*,*,#651,.T.);
#737 = ORIENTED_EDGE('',*,*,#738,.T.);
#738 = EDGE_CURVE('',#654,#694,#739,.T.);
#739 = LINE('',#740,#741);
#740 = CARTESIAN_POINT('',(0.25,-0.25,-4.E-02));
#741 = VECTOR('',#742,1.);
#742 = DIRECTION('',(-2.22044604925E-16,1.,0.));
#743 = ORIENTED_EDGE('',*,*,#691,.F.);
#744 = PLANE('',#745);
#745 = AXIS2_PLACEMENT_3D('',#746,#747,#748);
#746 = CARTESIAN_POINT('',(0.25,-0.25,-3.44));
#747 = DIRECTION('',(-1.,-2.22044604925E-16,0.));
#748 = DIRECTION('',(0.,0.,1.));
#749 = ADVANCED_FACE('',(#750),#766,.T.);
#750 = FACE_BOUND('',#751,.T.);
#751 = EDGE_LOOP('',(#752,#758,#759,#765));
#752 = ORIENTED_EDGE('',*,*,#753,.F.);
#753 = EDGE_CURVE('',#662,#702,#754,.T.);
#754 = LINE('',#755,#756);
#755 = CARTESIAN_POINT('',(-0.25,-0.25,-3.44));
#756 = VECTOR('',#757,1.);
#757 = DIRECTION('',(-2.22044604925E-16,1.,0.));
#758 = ORIENTED_EDGE('',*,*,#669,.T.);
#759 = ORIENTED_EDGE('',*,*,#760,.T.);
#760 = EDGE_CURVE('',#670,#710,#761,.T.);
#761 = LINE('',#762,#763);
#762 = CARTESIAN_POINT('',(-0.25,-0.25,-4.E-02));
#763 = VECTOR('',#764,1.);
#764 = DIRECTION('',(-2.22044604925E-16,1.,0.));
#765 = ORIENTED_EDGE('',*,*,#709,.F.);
#766 = PLANE('',#767);
#767 = AXIS2_PLACEMENT_3D('',#768,#769,#770);
#768 = CARTESIAN_POINT('',(-0.25,-0.25,-3.44));
#769 = DIRECTION('',(-1.,-2.22044604925E-16,0.));
#770 = DIRECTION('',(0.,0.,1.));
#771 = ADVANCED_FACE('',(#772),#778,.F.);
#772 = FACE_BOUND('',#773,.F.);
#773 = EDGE_LOOP('',(#774,#775,#776,#777));
#774 = ORIENTED_EDGE('',*,*,#661,.F.);
#775 = ORIENTED_EDGE('',*,*,#731,.T.);
#776 = ORIENTED_EDGE('',*,*,#701,.T.);
#777 = ORIENTED_EDGE('',*,*,#753,.F.);
#778 = PLANE('',#779);
#779 = AXIS2_PLACEMENT_3D('',#780,#781,#782);
#780 = CARTESIAN_POINT('',(0.25,-0.25,-3.44));
#781 = DIRECTION('',(0.,0.,1.));
#782 = DIRECTION('',(-2.22044604925E-16,1.,0.));
#783 = ADVANCED_FACE('',(#784),#790,.T.);
#784 = FACE_BOUND('',#785,.T.);
#785 = EDGE_LOOP('',(#786,#787,#788,#789));
#786 = ORIENTED_EDGE('',*,*,#677,.F.);
#787 = ORIENTED_EDGE('',*,*,#738,.T.);
#788 = ORIENTED_EDGE('',*,*,#717,.T.);
#789 = ORIENTED_EDGE('',*,*,#760,.F.);
#790 = PLANE('',#791);
#791 = AXIS2_PLACEMENT_3D('',#792,#793,#794);
#792 = CARTESIAN_POINT('',(0.25,-0.25,-4.E-02));
#793 = DIRECTION('',(0.,0.,1.));
#794 = DIRECTION('',(-2.22044604925E-16,1.,0.));
#795 = MANIFOLD_SOLID_BREP('',#796);
#796 = CLOSED_SHELL('',(#797,#837,#877,#899,#921,#933));
#797 = ADVANCED_FACE('',(#798),#832,.F.);
#798 = FACE_BOUND('',#799,.F.);
#799 = EDGE_LOOP('',(#800,#810,#818,#826));
#800 = ORIENTED_EDGE('',*,*,#801,.F.);
#801 = EDGE_CURVE('',#802,#804,#806,.T.);
#802 = VERTEX_POINT('',#803);
#803 = CARTESIAN_POINT('',(2.25,-0.25,-3.44));
#804 = VERTEX_POINT('',#805);
#805 = CARTESIAN_POINT('',(2.25,-0.25,-4.E-02));
#806 = LINE('',#807,#808);
#807 = CARTESIAN_POINT('',(2.25,-0.25,-3.44));
#808 = VECTOR('',#809,1.);
#809 = DIRECTION('',(0.,0.,1.));
#810 = ORIENTED_EDGE('',*,*,#811,.T.);
#811 = EDGE_CURVE('',#802,#812,#814,.T.);
#812 = VERTEX_POINT('',#813);
#813 = CARTESIAN_POINT('',(1.75,-0.25,-3.44));
#814 = LINE('',#815,#816);
#815 = CARTESIAN_POINT('',(2.25,-0.25,-3.44));
#816 = VECTOR('',#817,1.);
#817 = DIRECTION('',(-1.,-2.22044604925E-16,0.));
#818 = ORIENTED_EDGE('',*,*,#819,.T.);
#819 = EDGE_CURVE('',#812,#820,#822,.T.);
#820 = VERTEX_POINT('',#821);
#821 = CARTESIAN_POINT('',(1.75,-0.25,-4.E-02));
#822 = LINE('',#823,#824);
#823 = CARTESIAN_POINT('',(1.75,-0.25,-3.44));
#824 = VECTOR('',#825,1.);
#825 = DIRECTION('',(0.,0.,1.));
#826 = ORIENTED_EDGE('',*,*,#827,.F.);
#827 = EDGE_CURVE('',#804,#820,#828,.T.);
#828 = LINE('',#829,#830);
#829 = CARTESIAN_POINT('',(2.25,-0.25,-4.E-02));
#830 = VECTOR('',#831,1.);
#831 = DIRECTION('',(-1.,-2.22044604925E-16,0.));
#832 = PLANE('',#833);
#833 = AXIS2_PLACEMENT_3D('',#834,#835,#836);
#834 = CARTESIAN_POINT('',(2.25,-0.25,-3.44));
#835 = DIRECTION('',(-2.22044604925E-16,1.,0.));
#836 = DIRECTION('',(0.,0.,1.));
#837 = ADVANCED_FACE('',(#838),#872,.T.);
#838 = FACE_BOUND('',#839,.T.);
#839 = EDGE_LOOP('',(#840,#850,#858,#866));
#840 = ORIENTED_EDGE('',*,*,#841,.F.);
#841 = EDGE_CURVE('',#842,#844,#846,.T.);
#842 = VERTEX_POINT('',#843);
#843 = CARTESIAN_POINT('',(2.25,0.25,-3.44));
#844 = VERTEX_POINT('',#845);
#845 = CARTESIAN_POINT('',(2.25,0.25,-4.E-02));
#846 = LINE('',#847,#848);
#847 = CARTESIAN_POINT('',(2.25,0.25,-3.44));
#848 = VECTOR('',#849,1.);
#849 = DIRECTION('',(0.,0.,1.));
#850 = ORIENTED_EDGE('',*,*,#851,.T.);
#851 = EDGE_CURVE('',#842,#852,#854,.T.);
#852 = VERTEX_POINT('',#853);
#853 = CARTESIAN_POINT('',(1.75,0.25,-3.44));
#854 = LINE('',#855,#856);
#855 = CARTESIAN_POINT('',(2.25,0.25,-3.44));
#856 = VECTOR('',#857,1.);
#857 = DIRECTION('',(-1.,-2.22044604925E-16,0.));
#858 = ORIENTED_EDGE('',*,*,#859,.T.);
#859 = EDGE_CURVE('',#852,#860,#862,.T.);
#860 = VERTEX_POINT('',#861);
#861 = CARTESIAN_POINT('',(1.75,0.25,-4.E-02));
#862 = LINE('',#863,#864);
#863 = CARTESIAN_POINT('',(1.75,0.25,-3.44));
#864 = VECTOR('',#865,1.);
#865 = DIRECTION('',(0.,0.,1.));
#866 = ORIENTED_EDGE('',*,*,#867,.F.);
#867 = EDGE_CURVE('',#844,#860,#868,.T.);
#868 = LINE('',#869,#870);
#869 = CARTESIAN_POINT('',(2.25,0.25,-4.E-02));
#870 = VECTOR('',#871,1.);
#871 = DIRECTION('',(-1.,-2.22044604925E-16,0.));
#872 = PLANE('',#873);
#873 = AXIS2_PLACEMENT_3D('',#874,#875,#876);
#874 = CARTESIAN_POINT('',(2.25,0.25,-3.44));
#875 = DIRECTION('',(-2.22044604925E-16,1.,0.));
#876 = DIRECTION('',(0.,0.,1.));
#877 = ADVANCED_FACE('',(#878),#894,.F.);
#878 = FACE_BOUND('',#879,.F.);
#879 = EDGE_LOOP('',(#880,#886,#887,#893));
#880 = ORIENTED_EDGE('',*,*,#881,.F.);
#881 = EDGE_CURVE('',#802,#842,#882,.T.);
#882 = LINE('',#883,#884);
#883 = CARTESIAN_POINT('',(2.25,-0.25,-3.44));
#884 = VECTOR('',#885,1.);
#885 = DIRECTION('',(-2.22044604925E-16,1.,0.));
#886 = ORIENTED_EDGE('',*,*,#801,.T.);
#887 = ORIENTED_EDGE('',*,*,#888,.T.);
#888 = EDGE_CURVE('',#804,#844,#889,.T.);
#889 = LINE('',#890,#891);
#890 = CARTESIAN_POINT('',(2.25,-0.25,-4.E-02));
#891 = VECTOR('',#892,1.);
#892 = DIRECTION('',(-2.22044604925E-16,1.,0.));
#893 = ORIENTED_EDGE('',*,*,#841,.F.);
#894 = PLANE('',#895);
#895 = AXIS2_PLACEMENT_3D('',#896,#897,#898);
#896 = CARTESIAN_POINT('',(2.25,-0.25,-3.44));
#897 = DIRECTION('',(-1.,-2.22044604925E-16,0.));
#898 = DIRECTION('',(0.,0.,1.));
#899 = ADVANCED_FACE('',(#900),#916,.T.);
#900 = FACE_BOUND('',#901,.T.);
#901 = EDGE_LOOP('',(#902,#908,#909,#915));
#902 = ORIENTED_EDGE('',*,*,#903,.F.);
#903 = EDGE_CURVE('',#812,#852,#904,.T.);
#904 = LINE('',#905,#906);
#905 = CARTESIAN_POINT('',(1.75,-0.25,-3.44));
#906 = VECTOR('',#907,1.);
#907 = DIRECTION('',(-2.22044604925E-16,1.,0.));
#908 = ORIENTED_EDGE('',*,*,#819,.T.);
#909 = ORIENTED_EDGE('',*,*,#910,.T.);
#910 = EDGE_CURVE('',#820,#860,#911,.T.);
#911 = LINE('',#912,#913);
#912 = CARTESIAN_POINT('',(1.75,-0.25,-4.E-02));
#913 = VECTOR('',#914,1.);
#914 = DIRECTION('',(-2.22044604925E-16,1.,0.));
#915 = ORIENTED_EDGE('',*,*,#859,.F.);
#916 = PLANE('',#917);
#917 = AXIS2_PLACEMENT_3D('',#918,#919,#920);
#918 = CARTESIAN_POINT('',(1.75,-0.25,-3.44));
#919 = DIRECTION('',(-1.,-2.22044604925E-16,0.));
#920 = DIRECTION('',(0.,0.,1.));
#921 = ADVANCED_FACE('',(#922),#928,.F.);
#922 = FACE_BOUND('',#923,.F.);
#923 = EDGE_LOOP('',(#924,#925,#926,#927));
#924 = ORIENTED_EDGE('',*,*,#811,.F.);
#925 = ORIENTED_EDGE('',*,*,#881,.T.);
#926 = ORIENTED_EDGE('',*,*,#851,.T.);
#927 = ORIENTED_EDGE('',*,*,#903,.F.);
#928 = PLANE('',#929);
#929 = AXIS2_PLACEMENT_3D('',#930,#931,#932);
#930 = CARTESIAN_POINT('',(2.25,-0.25,-3.44));
#931 = DIRECTION('',(0.,0.,1.));
#932 = DIRECTION('',(-2.22044604925E-16,1.,0.));
#933 = ADVANCED_FACE('',(#934),#940,.T.);
#934 = FACE_BOUND('',#935,.T.);
#935 = EDGE_LOOP('',(#936,#937,#938,#939));
#936 = ORIENTED_EDGE('',*,*,#827,.F.);
#937 = ORIENTED_EDGE('',*,*,#888,.T.);
#938 = ORIENTED_EDGE('',*,*,#867,.T.);
#939 = ORIENTED_EDGE('',*,*,#910,.F.);
#940 = PLANE('',#941);
#941 = AXIS2_PLACEMENT_3D('',#942,#943,#944);
#942 = CARTESIAN_POINT('',(2.25,-0.25,-4.E-02));
#943 = DIRECTION('',(0.,0.,1.));
#944 = DIRECTION('',(-2.22044604925E-16,1.,0.));
#945 = ( GEOMETRIC_REPRESENTATION_CONTEXT(3) 
GLOBAL_UNCERTAINTY_ASSIGNED_CONTEXT((#949)) GLOBAL_UNIT_ASSIGNED_CONTEXT
((#946,#947,#948)) REPRESENTATION_CONTEXT('Context #1',
  '3D Context with UNIT and UNCERTAINTY') );
#946 = ( LENGTH_UNIT() NAMED_UNIT(*) SI_UNIT(.MILLI.,.METRE.) );
#947 = ( NAMED_UNIT(*) PLANE_ANGLE_UNIT() SI_UNIT($,.RADIAN.) );
#948 = ( NAMED_UNIT(*) SI_UNIT($,.STERADIAN.) SOLID_ANGLE_UNIT() );
#949 = UNCERTAINTY_MEASURE_WITH_UNIT(LENGTH_MEASURE(1.E-07),#946,
  'distance_accuracy_value','confusion accuracy');
#950 = PRODUCT_RELATED_PRODUCT_CATEGORY('part',$,(#7));
#951 = MECHANICAL_DESIGN_GEOMETRIC_PRESENTATION_REPRESENTATION('',(#952,
    #963,#972,#981),#945);
#952 = STYLED_ITEM('color',(#953),#15);
#953 = PRESENTATION_STYLE_ASSIGNMENT((#954,#960));
#954 = SURFACE_STYLE_USAGE(.BOTH.,#955);
#955 = SURFACE_SIDE_STYLE('',(#956));
#956 = SURFACE_STYLE_FILL_AREA(#957);
#957 = FILL_AREA_STYLE('',(#958));
#958 = FILL_AREA_STYLE_COLOUR('',#959);
#959 = COLOUR_RGB('',0.447058818107,0.474509808674,0.501960817233);
#960 = CURVE_STYLE('',#961,POSITIVE_LENGTH_MEASURE(0.1),#962);
#961 = DRAUGHTING_PRE_DEFINED_CURVE_FONT('continuous');
#962 = COLOUR_RGB('',9.803921802644E-02,9.803921802644E-02,
  9.803921802644E-02);
#963 = STYLED_ITEM('color',(#964),#353);
#964 = PRESENTATION_STYLE_ASSIGNMENT((#965,#970));
#965 = SURFACE_STYLE_USAGE(.BOTH.,#966);
#966 = SURFACE_SIDE_STYLE('',(#967));
#967 = SURFACE_STYLE_FILL_AREA(#968);
#968 = FILL_AREA_STYLE('',(#969));
#969 = FILL_AREA_STYLE_COLOUR('',#959);
#970 = CURVE_STYLE('',#971,POSITIVE_LENGTH_MEASURE(0.1),#962);
#971 = DRAUGHTING_PRE_DEFINED_CURVE_FONT('continuous');
#972 = STYLED_ITEM('color',(#973),#645);
#973 = PRESENTATION_STYLE_ASSIGNMENT((#974,#979));
#974 = SURFACE_STYLE_USAGE(.BOTH.,#975);
#975 = SURFACE_SIDE_STYLE('',(#976));
#976 = SURFACE_STYLE_FILL_AREA(#977);
#977 = FILL_AREA_STYLE('',(#978));
#978 = FILL_AREA_STYLE_COLOUR('',#959);
#979 = CURVE_STYLE('',#980,POSITIVE_LENGTH_MEASURE(0.1),#962);
#980 = DRAUGHTING_PRE_DEFINED_CURVE_FONT('continuous');
#981 = STYLED_ITEM('color',(#982),#795);
#982 = PRESENTATION_STYLE_ASSIGNMENT((#983,#988));
#983 = SURFACE_STYLE_USAGE(.BOTH.,#984);
#984 = SURFACE_SIDE_STYLE('',(#985));
#985 = SURFACE_STYLE_FILL_AREA(#986);
#986 = FILL_AREA_STYLE('',(#987));
#987 = FILL_AREA_STYLE_COLOUR('',#959);
#988 = CURVE_STYLE('',#989,POSITIVE_LENGTH_MEASURE(0.1),#962);
#989 = DRAUGHTING_PRE_DEFINED_CURVE_FONT('continuous');
ENDSEC;
END-ISO-10303-21;
