<svg xmlns="http://www.w3.org/2000/svg" width="24mm" height="56mm" viewBox="0 0 24 56"><metadata>FLAN36 R3 / master SHA256 3e74ccf87921e9326e96c4f42d718a41e308b786972898cc232d057b8ba54abc / PROPOSED NOT APPROVED</metadata><path d="M 1.2 0 L 21.6 0 A 2.4 2.4 0 0 1 24 2.4 L 24 54.8 A 1.2 1.2 0 0 1 22.8 56 L 1.2 56 A 1.2 1.2 0 0 1 0 54.8 L 0 1.2 A 1.2 1.2 0 0 1 1.2 0 Z  M 4.55 7.35 L 19.05 7.35 L 19.05 38.45 L 4.55 38.45 Z " fill="#F0EEE5" fill-rule="evenodd" id="ipod-body"/><path d="M 2.9 1.2 L 21.1 1.2 A 1.7 1.7 0 0 1 22.8 2.9 L 22.8 39.9 A 1.7 1.7 0 0 1 21.1 41.6 L 2.9 41.6 A 1.7 1.7 0 0 1 1.2 39.9 L 1.2 2.9 A 1.7 1.7 0 0 1 2.9 1.2 Z  M 4.55 7.35 L 19.05 7.35 L 19.05 38.45 L 4.55 38.45 Z " fill="#656F79" fill-rule="evenodd" id="ipod-ScreenField"/><path d="M 6.5 48.8 A 5.5 5.5 0 1 1 17.5 48.8 A 5.5 5.5 0 1 1 6.5 48.8 Z " fill="#AFB4B1" fill-rule="evenodd" id="ipod-Wheel"/><path d="M 8.2 48.8 A 3.8 3.8 0 1 1 15.8 48.8 A 3.8 3.8 0 1 1 8.2 48.8 Z " fill="#F0EEE5" fill-rule="evenodd" id="ipod-WheelVoid"/><path d="M 9.8 48.8 A 2.2 2.2 0 1 1 14.2 48.8 A 2.2 2.2 0 1 1 9.8 48.8 Z " fill="#D8D9D2" fill-rule="evenodd" id="ipod-Center"/><path d="M 10.6 2.5 L 13.4 2.5 A 0.6 0.6 0 0 1 14 3.1 L 14 3.3 A 0.6 0.6 0 0 1 13.4 3.9 L 10.6 3.9 A 0.6 0.6 0 0 1 10 3.3 L 10 3.1 A 0.6 0.6 0 0 1 10.6 2.5 Z " fill="#D8D9D2" fill-rule="evenodd" id="ipod-Hold"/></svg>
