<svg xmlns="http://www.w3.org/2000/svg" width="1280" height="1000" viewBox="0 0 1280 1000"><rect width="1280" height="1000" fill="#F6F5F0"/><text x="40" y="45" font-family="Arial, sans-serif" font-size="27" fill="#233D39" font-weight="bold">2000S PHONE / DIMENSIONED APPROVAL ARTWORK</text><text x="40" y="78" font-family="Arial, sans-serif" font-size="18" fill="#233D39" >24 × 56 mm · aperture 14.50 × 31.10 mm · origin top-left · X right / Y down</text><g transform="translate(75,145) scale(10)"><path d="M 1.2 0 L 21.6 0 A 2.4 2.4 0 0 1 24 2.4 L 24 54.8 A 1.2 1.2 0 0 1 22.8 56 L 1.2 56 A 1.2 1.2 0 0 1 0 54.8 L 0 1.2 A 1.2 1.2 0 0 1 1.2 0 Z  M 4.55 7.35 L 19.05 7.35 L 19.05 38.45 L 4.55 38.45 Z " fill="#263C55" fill-rule="evenodd" id="phone-body"/><path d="M 2.9 1.2 L 21.1 1.2 A 1.7 1.7 0 0 1 22.8 2.9 L 22.8 39.9 A 1.7 1.7 0 0 1 21.1 41.6 L 2.9 41.6 A 1.7 1.7 0 0 1 1.2 39.9 L 1.2 2.9 A 1.7 1.7 0 0 1 2.9 1.2 Z  M 4.55 7.35 L 19.05 7.35 L 19.05 38.45 L 4.55 38.45 Z " fill="#B8BBB5" fill-rule="evenodd" id="phone-ScreenField"/><path d="M 8.6 2.8 L 15.4 2.8 A 0.6 0.6 0 0 1 16 3.4 L 16 3.5 A 0.6 0.6 0 0 1 15.4 4.1 L 8.6 4.1 A 0.6 0.6 0 0 1 8 3.5 L 8 3.4 A 0.6 0.6 0 0 1 8.6 2.8 Z " fill="#263C55" fill-rule="evenodd" id="phone-Earpiece"/><path d="M 10.1 42.7 L 13.9 42.7 A 1.1 1.1 0 0 1 15 43.8 L 15 43.8 A 1.1 1.1 0 0 1 13.9 44.9 L 10.1 44.9 A 1.1 1.1 0 0 1 9 43.8 L 9 43.8 A 1.1 1.1 0 0 1 10.1 42.7 Z " fill="#455469" fill-rule="evenodd" id="phone-Nav"/><path d="M 3.8 42.7 L 6.4 42.7 A 1.1 1.1 0 0 1 7.5 43.8 L 7.5 43.8 A 1.1 1.1 0 0 1 6.4 44.9 L 3.8 44.9 A 1.1 1.1 0 0 1 2.7 43.8 L 2.7 43.8 A 1.1 1.1 0 0 1 3.8 42.7 Z " fill="#87AD67" fill-rule="evenodd" id="phone-Call"/><path d="M 17.6 42.7 L 20.2 42.7 A 1.1 1.1 0 0 1 21.3 43.8 L 21.3 43.8 A 1.1 1.1 0 0 1 20.2 44.9 L 17.6 44.9 A 1.1 1.1 0 0 1 16.5 43.8 L 16.5 43.8 A 1.1 1.1 0 0 1 17.6 42.7 Z " fill="#B8BBB5" fill-rule="evenodd" id="phone-End"/><path d="M 3.8 46 L 6.6 46 A 0.8 0.8 0 0 1 7.4 46.8 L 7.4 47.3 A 0.8 0.8 0 0 1 6.6 48.1 L 3.8 48.1 A 0.8 0.8 0 0 1 3 47.3 L 3 46.8 A 0.8 0.8 0 0 1 3.8 46 Z " fill="#B8BBB5" fill-rule="evenodd" id="phone-Key00"/><path d="M 10.1 46 L 12.9 46 A 0.8 0.8 0 0 1 13.7 46.8 L 13.7 47.3 A 0.8 0.8 0 0 1 12.9 48.1 L 10.1 48.1 A 0.8 0.8 0 0 1 9.3 47.3 L 9.3 46.8 A 0.8 0.8 0 0 1 10.1 46 Z " fill="#B8BBB5" fill-rule="evenodd" id="phone-Key01"/><path d="M 16.4 46 L 19.2 46 A 0.8 0.8 0 0 1 20 46.8 L 20 47.3 A 0.8 0.8 0 0 1 19.2 48.1 L 16.4 48.1 A 0.8 0.8 0 0 1 15.6 47.3 L 15.6 46.8 A 0.8 0.8 0 0 1 16.4 46 Z " fill="#B8BBB5" fill-rule="evenodd" id="phone-Key02"/><path d="M 3.8 49.1 L 6.6 49.1 A 0.8 0.8 0 0 1 7.4 49.9 L 7.4 50.4 A 0.8 0.8 0 0 1 6.6 51.2 L 3.8 51.2 A 0.8 0.8 0 0 1 3 50.4 L 3 49.9 A 0.8 0.8 0 0 1 3.8 49.1 Z " fill="#B8BBB5" fill-rule="evenodd" id="phone-Key10"/><path d="M 10.1 49.1 L 12.9 49.1 A 0.8 0.8 0 0 1 13.7 49.9 L 13.7 50.4 A 0.8 0.8 0 0 1 12.9 51.2 L 10.1 51.2 A 0.8 0.8 0 0 1 9.3 50.4 L 9.3 49.9 A 0.8 0.8 0 0 1 10.1 49.1 Z " fill="#B8BBB5" fill-rule="evenodd" id="phone-Key11"/><path d="M 16.4 49.1 L 19.2 49.1 A 0.8 0.8 0 0 1 20 49.9 L 20 50.4 A 0.8 0.8 0 0 1 19.2 51.2 L 16.4 51.2 A 0.8 0.8 0 0 1 15.6 50.4 L 15.6 49.9 A 0.8 0.8 0 0 1 16.4 49.1 Z " fill="#B8BBB5" fill-rule="evenodd" id="phone-Key12"/><path d="M 3.8 52.2 L 6.6 52.2 A 0.8 0.8 0 0 1 7.4 53 L 7.4 53.5 A 0.8 0.8 0 0 1 6.6 54.3 L 3.8 54.3 A 0.8 0.8 0 0 1 3 53.5 L 3 53 A 0.8 0.8 0 0 1 3.8 52.2 Z " fill="#B8BBB5" fill-rule="evenodd" id="phone-Key20"/><path d="M 10.1 52.2 L 12.9 52.2 A 0.8 0.8 0 0 1 13.7 53 L 13.7 53.5 A 0.8 0.8 0 0 1 12.9 54.3 L 10.1 54.3 A 0.8 0.8 0 0 1 9.3 53.5 L 9.3 53 A 0.8 0.8 0 0 1 10.1 52.2 Z " fill="#B8BBB5" fill-rule="evenodd" id="phone-Key21"/><path d="M 16.4 52.2 L 19.2 52.2 A 0.8 0.8 0 0 1 20 53 L 20 53.5 A 0.8 0.8 0 0 1 19.2 54.3 L 16.4 54.3 A 0.8 0.8 0 0 1 15.6 53.5 L 15.6 53 A 0.8 0.8 0 0 1 16.4 52.2 Z " fill="#B8BBB5" fill-rule="evenodd" id="phone-Key22"/></g><path d="M75 129 L315 129 M59 145 L59 705" fill="none" stroke="#70837D"/><text x="157" y="118" font-family="Arial, sans-serif" font-size="17" fill="#233D39" >24.00 mm</text><text x="12" y="438" font-family="Arial, sans-serif" font-size="15" fill="#233D39" >56.00</text><text x="380" y="138" font-family="Arial, sans-serif" font-size="18" fill="#233D39" font-weight="bold">FEATURE BOUNDS / mm</text><text x="380" y="165" font-family="Arial, sans-serif" font-size="14" fill="#233D39" >Curves are authoritative in master.json. Bounds below are rounded to 0.01 mm.</text><text x="380" y="197" font-family="Arial, sans-serif" font-size="15" fill="#233D39" font-weight="bold">Feature / painter order</text><text x="715" y="197" font-family="Arial, sans-serif" font-size="15" fill="#233D39" font-weight="bold">X min</text><text x="835" y="197" font-family="Arial, sans-serif" font-size="15" fill="#233D39" font-weight="bold">Y min</text><text x="955" y="197" font-family="Arial, sans-serif" font-size="15" fill="#233D39" font-weight="bold">Width</text><text x="1080" y="197" font-family="Arial, sans-serif" font-size="15" fill="#233D39" font-weight="bold">Height</text><text x="380" y="230" font-family="Arial, sans-serif" font-size="15" fill="#233D39" >01  ScreenField</text><text x="715" y="230" font-family="Arial, sans-serif" font-size="15" fill="#233D39" >1.20</text><text x="835" y="230" font-family="Arial, sans-serif" font-size="15" fill="#233D39" >1.20</text><text x="955" y="230" font-family="Arial, sans-serif" font-size="15" fill="#233D39" >21.60</text><text x="1080" y="230" font-family="Arial, sans-serif" font-size="15" fill="#233D39" >40.40</text><text x="380" y="259" font-family="Arial, sans-serif" font-size="15" fill="#233D39" >02  Earpiece</text><text x="715" y="259" font-family="Arial, sans-serif" font-size="15" fill="#233D39" >8.00</text><text x="835" y="259" font-family="Arial, sans-serif" font-size="15" fill="#233D39" >2.80</text><text x="955" y="259" font-family="Arial, sans-serif" font-size="15" fill="#233D39" >8.00</text><text x="1080" y="259" font-family="Arial, sans-serif" font-size="15" fill="#233D39" >1.30</text><text x="380" y="288" font-family="Arial, sans-serif" font-size="15" fill="#233D39" >03  Nav</text><text x="715" y="288" font-family="Arial, sans-serif" font-size="15" fill="#233D39" >9.00</text><text x="835" y="288" font-family="Arial, sans-serif" font-size="15" fill="#233D39" >42.70</text><text x="955" y="288" font-family="Arial, sans-serif" font-size="15" fill="#233D39" >6.00</text><text x="1080" y="288" font-family="Arial, sans-serif" font-size="15" fill="#233D39" >2.20</text><text x="380" y="317" font-family="Arial, sans-serif" font-size="15" fill="#233D39" >04  Call</text><text x="715" y="317" font-family="Arial, sans-serif" font-size="15" fill="#233D39" >2.70</text><text x="835" y="317" font-family="Arial, sans-serif" font-size="15" fill="#233D39" >42.70</text><text x="955" y="317" font-family="Arial, sans-serif" font-size="15" fill="#233D39" >4.80</text><text x="1080" y="317" font-family="Arial, sans-serif" font-size="15" fill="#233D39" >2.20</text><text x="380" y="346" font-family="Arial, sans-serif" font-size="15" fill="#233D39" >05  End</text><text x="715" y="346" font-family="Arial, sans-serif" font-size="15" fill="#233D39" >16.50</text><text x="835" y="346" font-family="Arial, sans-serif" font-size="15" fill="#233D39" >42.70</text><text x="955" y="346" font-family="Arial, sans-serif" font-size="15" fill="#233D39" >4.80</text><text x="1080" y="346" font-family="Arial, sans-serif" font-size="15" fill="#233D39" >2.20</text><text x="380" y="375" font-family="Arial, sans-serif" font-size="15" fill="#233D39" >06  Key00</text><text x="715" y="375" font-family="Arial, sans-serif" font-size="15" fill="#233D39" >3.00</text><text x="835" y="375" font-family="Arial, sans-serif" font-size="15" fill="#233D39" >46.00</text><text x="955" y="375" font-family="Arial, sans-serif" font-size="15" fill="#233D39" >4.40</text><text x="1080" y="375" font-family="Arial, sans-serif" font-size="15" fill="#233D39" >2.10</text><text x="380" y="404" font-family="Arial, sans-serif" font-size="15" fill="#233D39" >07  Key01</text><text x="715" y="404" font-family="Arial, sans-serif" font-size="15" fill="#233D39" >9.30</text><text x="835" y="404" font-family="Arial, sans-serif" font-size="15" fill="#233D39" >46.00</text><text x="955" y="404" font-family="Arial, sans-serif" font-size="15" fill="#233D39" >4.40</text><text x="1080" y="404" font-family="Arial, sans-serif" font-size="15" fill="#233D39" >2.10</text><text x="380" y="433" font-family="Arial, sans-serif" font-size="15" fill="#233D39" >08  Key02</text><text x="715" y="433" font-family="Arial, sans-serif" font-size="15" fill="#233D39" >15.60</text><text x="835" y="433" font-family="Arial, sans-serif" font-size="15" fill="#233D39" >46.00</text><text x="955" y="433" font-family="Arial, sans-serif" font-size="15" fill="#233D39" >4.40</text><text x="1080" y="433" font-family="Arial, sans-serif" font-size="15" fill="#233D39" >2.10</text><text x="380" y="462" font-family="Arial, sans-serif" font-size="15" fill="#233D39" >09  Key10</text><text x="715" y="462" font-family="Arial, sans-serif" font-size="15" fill="#233D39" >3.00</text><text x="835" y="462" font-family="Arial, sans-serif" font-size="15" fill="#233D39" >49.10</text><text x="955" y="462" font-family="Arial, sans-serif" font-size="15" fill="#233D39" >4.40</text><text x="1080" y="462" font-family="Arial, sans-serif" font-size="15" fill="#233D39" >2.10</text><text x="380" y="491" font-family="Arial, sans-serif" font-size="15" fill="#233D39" >10  Key11</text><text x="715" y="491" font-family="Arial, sans-serif" font-size="15" fill="#233D39" >9.30</text><text x="835" y="491" font-family="Arial, sans-serif" font-size="15" fill="#233D39" >49.10</text><text x="955" y="491" font-family="Arial, sans-serif" font-size="15" fill="#233D39" >4.40</text><text x="1080" y="491" font-family="Arial, sans-serif" font-size="15" fill="#233D39" >2.10</text><text x="380" y="520" font-family="Arial, sans-serif" font-size="15" fill="#233D39" >11  Key12</text><text x="715" y="520" font-family="Arial, sans-serif" font-size="15" fill="#233D39" >15.60</text><text x="835" y="520" font-family="Arial, sans-serif" font-size="15" fill="#233D39" >49.10</text><text x="955" y="520" font-family="Arial, sans-serif" font-size="15" fill="#233D39" >4.40</text><text x="1080" y="520" font-family="Arial, sans-serif" font-size="15" fill="#233D39" >2.10</text><text x="380" y="549" font-family="Arial, sans-serif" font-size="15" fill="#233D39" >12  Key20</text><text x="715" y="549" font-family="Arial, sans-serif" font-size="15" fill="#233D39" >3.00</text><text x="835" y="549" font-family="Arial, sans-serif" font-size="15" fill="#233D39" >52.20</text><text x="955" y="549" font-family="Arial, sans-serif" font-size="15" fill="#233D39" >4.40</text><text x="1080" y="549" font-family="Arial, sans-serif" font-size="15" fill="#233D39" >2.10</text><text x="380" y="578" font-family="Arial, sans-serif" font-size="15" fill="#233D39" >13  Key21</text><text x="715" y="578" font-family="Arial, sans-serif" font-size="15" fill="#233D39" >9.30</text><text x="835" y="578" font-family="Arial, sans-serif" font-size="15" fill="#233D39" >52.20</text><text x="955" y="578" font-family="Arial, sans-serif" font-size="15" fill="#233D39" >4.40</text><text x="1080" y="578" font-family="Arial, sans-serif" font-size="15" fill="#233D39" >2.10</text><text x="380" y="607" font-family="Arial, sans-serif" font-size="15" fill="#233D39" >14  Key22</text><text x="715" y="607" font-family="Arial, sans-serif" font-size="15" fill="#233D39" >15.60</text><text x="835" y="607" font-family="Arial, sans-serif" font-size="15" fill="#233D39" >52.20</text><text x="955" y="607" font-family="Arial, sans-serif" font-size="15" fill="#233D39" >4.40</text><text x="1080" y="607" font-family="Arial, sans-serif" font-size="15" fill="#233D39" >2.10</text><text x="380" y="780" font-family="Arial, sans-serif" font-size="15" fill="#233D39" >OUTER RADII: TL / BL / BR R1.20; TR R2.40. Aperture: X4.55 / Y7.35.</text><rect x="40" y="838" width="24" height="24" rx="3" fill="#263C55" stroke="#BAC2B8"/><text x="72" y="856" font-family="Arial, sans-serif" font-size="16" fill="#233D39" >body #263C55</text><rect x="346" y="838" width="24" height="24" rx="3" fill="#B8BBB5" stroke="#BAC2B8"/><text x="378" y="856" font-family="Arial, sans-serif" font-size="16" fill="#233D39" >detail #B8BBB5</text><rect x="652" y="838" width="24" height="24" rx="3" fill="#87AD67" stroke="#BAC2B8"/><text x="684" y="856" font-family="Arial, sans-serif" font-size="16" fill="#233D39" >accent #87AD67</text><rect x="958" y="838" width="24" height="24" rx="3" fill="#455469" stroke="#BAC2B8"/><text x="990" y="856" font-family="Arial, sans-serif" font-size="16" fill="#233D39" >secondary #455469</text><text x="40" y="901" font-family="Arial, sans-serif" font-size="17" fill="#233D39" >Unapproved 2D artwork. A: face Z13.39 / 0.20 mm cover. B: face Z13.59 / 0.40 mm cover.</text><text x="40" y="935" font-family="Arial, sans-serif" font-size="17" fill="#233D39" >Color regions remain flush. Pin-cover selection and physical print/fit qualification are pending.</text><text x="40" y="976" font-family="Arial, sans-serif" font-size="12" fill="#233D39" >MASTER 3e74ccf87921e9326e96c4f42d718a41e308b786972898cc232d057b8ba54abc</text></svg>
