<svg xmlns="http://www.w3.org/2000/svg" width="1280" height="1000" viewBox="0 0 1280 1000"><rect width="1280" height="1000" fill="#F6F5F0"/><text x="40" y="45" font-family="Arial, sans-serif" font-size="27" fill="#233D39" font-weight="bold">SNES / DIMENSIONED APPROVAL ARTWORK</text><text x="40" y="78" font-family="Arial, sans-serif" font-size="18" fill="#233D39" >24 × 56 mm · aperture 14.50 × 31.10 mm · origin top-left · X right / Y down</text><g transform="translate(75,145) scale(10)"><path d="M 1.2 0 L 21.6 0 A 2.4 2.4 0 0 1 24 2.4 L 24 54.8 A 1.2 1.2 0 0 1 22.8 56 L 1.2 56 A 1.2 1.2 0 0 1 0 54.8 L 0 1.2 A 1.2 1.2 0 0 1 1.2 0 Z  M 4.55 7.35 L 19.05 7.35 L 19.05 38.45 L 4.55 38.45 Z " fill="#D1D0C9" fill-rule="evenodd" id="snes-body"/><path d="M 2.9 1.2 L 21.1 1.2 A 1.7 1.7 0 0 1 22.8 2.9 L 22.8 39.9 A 1.7 1.7 0 0 1 21.1 41.6 L 2.9 41.6 A 1.7 1.7 0 0 1 1.2 39.9 L 1.2 2.9 A 1.7 1.7 0 0 1 2.9 1.2 Z  M 4.55 7.35 L 19.05 7.35 L 19.05 38.45 L 4.55 38.45 Z " fill="#464751" fill-rule="evenodd" id="snes-ScreenField"/><path d="M 4.9 44 L 7.1 44 L 7.1 46.2 L 9.3 46.2 L 9.3 48.4 L 7.1 48.4 L 7.1 50.6 L 4.9 50.6 L 4.9 48.4 L 2.7 48.4 L 2.7 46.2 L 4.9 46.2 Z " fill="#464751" fill-rule="evenodd" id="snes-Dpad"/><path d="M 18.4 48 A 1.7 1.7 0 1 1 21.8 48 A 1.7 1.7 0 1 1 18.4 48 Z " fill="#746198" fill-rule="evenodd" id="snes-A"/><path d="M 15.1 51.3 A 1.7 1.7 0 1 1 18.5 51.3 A 1.7 1.7 0 1 1 15.1 51.3 Z " fill="#746198" fill-rule="evenodd" id="snes-B"/><path d="M 15.1 44.7 A 1.7 1.7 0 1 1 18.5 44.7 A 1.7 1.7 0 1 1 15.1 44.7 Z " fill="#ACA0C2" fill-rule="evenodd" id="snes-X"/><path d="M 11.8 48 A 1.7 1.7 0 1 1 15.2 48 A 1.7 1.7 0 1 1 11.8 48 Z " fill="#ACA0C2" fill-rule="evenodd" id="snes-Y"/><path d="M 3.9 2.5 L 9.5 2.5 A 0.7 0.7 0 0 1 10.2 3.2 L 10.2 3.2 A 0.7 0.7 0 0 1 9.5 3.9 L 3.9 3.9 A 0.7 0.7 0 0 1 3.2 3.2 L 3.2 3.2 A 0.7 0.7 0 0 1 3.9 2.5 Z " fill="#746198" fill-rule="evenodd" id="snes-Power"/><path d="M 14.2 2.5 L 19.8 2.5 A 0.7 0.7 0 0 1 20.5 3.2 L 20.5 3.2 A 0.7 0.7 0 0 1 19.8 3.9 L 14.2 3.9 A 0.7 0.7 0 0 1 13.5 3.2 L 13.5 3.2 A 0.7 0.7 0 0 1 14.2 2.5 Z " fill="#ACA0C2" fill-rule="evenodd" id="snes-Reset"/><path d="M 3.8 53 L 10.3 53 A 0.6 0.6 0 0 1 10.9 53.6 L 10.9 53.6 A 0.6 0.6 0 0 1 10.3 54.2 L 3.8 54.2 A 0.6 0.6 0 0 1 3.2 53.6 L 3.2 53.6 A 0.6 0.6 0 0 1 3.8 53 Z " fill="#ACA0C2" fill-rule="evenodd" id="snes-Select"/></g><path d="M75 129 L315 129 M59 145 L59 705" fill="none" stroke="#70837D"/><text x="157" y="118" font-family="Arial, sans-serif" font-size="17" fill="#233D39" >24.00 mm</text><text x="12" y="438" font-family="Arial, sans-serif" font-size="15" fill="#233D39" >56.00</text><text x="380" y="138" font-family="Arial, sans-serif" font-size="18" fill="#233D39" font-weight="bold">FEATURE BOUNDS / mm</text><text x="380" y="165" font-family="Arial, sans-serif" font-size="14" fill="#233D39" >Curves are authoritative in master.json. Bounds below are rounded to 0.01 mm.</text><text x="380" y="197" font-family="Arial, sans-serif" font-size="15" fill="#233D39" font-weight="bold">Feature / painter order</text><text x="715" y="197" font-family="Arial, sans-serif" font-size="15" fill="#233D39" font-weight="bold">X min</text><text x="835" y="197" font-family="Arial, sans-serif" font-size="15" fill="#233D39" font-weight="bold">Y min</text><text x="955" y="197" font-family="Arial, sans-serif" font-size="15" fill="#233D39" font-weight="bold">Width</text><text x="1080" y="197" font-family="Arial, sans-serif" font-size="15" fill="#233D39" font-weight="bold">Height</text><text x="380" y="230" font-family="Arial, sans-serif" font-size="15" fill="#233D39" >01  ScreenField</text><text x="715" y="230" font-family="Arial, sans-serif" font-size="15" fill="#233D39" >1.20</text><text x="835" y="230" font-family="Arial, sans-serif" font-size="15" fill="#233D39" >1.20</text><text x="955" y="230" font-family="Arial, sans-serif" font-size="15" fill="#233D39" >21.60</text><text x="1080" y="230" font-family="Arial, sans-serif" font-size="15" fill="#233D39" >40.40</text><text x="380" y="259" font-family="Arial, sans-serif" font-size="15" fill="#233D39" >02  Dpad</text><text x="715" y="259" font-family="Arial, sans-serif" font-size="15" fill="#233D39" >2.70</text><text x="835" y="259" font-family="Arial, sans-serif" font-size="15" fill="#233D39" >44.00</text><text x="955" y="259" font-family="Arial, sans-serif" font-size="15" fill="#233D39" >6.60</text><text x="1080" y="259" font-family="Arial, sans-serif" font-size="15" fill="#233D39" >6.60</text><text x="380" y="288" font-family="Arial, sans-serif" font-size="15" fill="#233D39" >03  A</text><text x="715" y="288" font-family="Arial, sans-serif" font-size="15" fill="#233D39" >18.40</text><text x="835" y="288" font-family="Arial, sans-serif" font-size="15" fill="#233D39" >46.30</text><text x="955" y="288" font-family="Arial, sans-serif" font-size="15" fill="#233D39" >3.40</text><text x="1080" y="288" font-family="Arial, sans-serif" font-size="15" fill="#233D39" >3.40</text><text x="380" y="317" font-family="Arial, sans-serif" font-size="15" fill="#233D39" >04  B</text><text x="715" y="317" font-family="Arial, sans-serif" font-size="15" fill="#233D39" >15.10</text><text x="835" y="317" font-family="Arial, sans-serif" font-size="15" fill="#233D39" >49.60</text><text x="955" y="317" font-family="Arial, sans-serif" font-size="15" fill="#233D39" >3.40</text><text x="1080" y="317" font-family="Arial, sans-serif" font-size="15" fill="#233D39" >3.40</text><text x="380" y="346" font-family="Arial, sans-serif" font-size="15" fill="#233D39" >05  X</text><text x="715" y="346" font-family="Arial, sans-serif" font-size="15" fill="#233D39" >15.10</text><text x="835" y="346" font-family="Arial, sans-serif" font-size="15" fill="#233D39" >43.00</text><text x="955" y="346" font-family="Arial, sans-serif" font-size="15" fill="#233D39" >3.40</text><text x="1080" y="346" font-family="Arial, sans-serif" font-size="15" fill="#233D39" >3.40</text><text x="380" y="375" font-family="Arial, sans-serif" font-size="15" fill="#233D39" >06  Y</text><text x="715" y="375" font-family="Arial, sans-serif" font-size="15" fill="#233D39" >11.80</text><text x="835" y="375" font-family="Arial, sans-serif" font-size="15" fill="#233D39" >46.30</text><text x="955" y="375" font-family="Arial, sans-serif" font-size="15" fill="#233D39" >3.40</text><text x="1080" y="375" font-family="Arial, sans-serif" font-size="15" fill="#233D39" >3.40</text><text x="380" y="404" font-family="Arial, sans-serif" font-size="15" fill="#233D39" >07  Power</text><text x="715" y="404" font-family="Arial, sans-serif" font-size="15" fill="#233D39" >3.20</text><text x="835" y="404" font-family="Arial, sans-serif" font-size="15" fill="#233D39" >2.50</text><text x="955" y="404" font-family="Arial, sans-serif" font-size="15" fill="#233D39" >7.00</text><text x="1080" y="404" font-family="Arial, sans-serif" font-size="15" fill="#233D39" >1.40</text><text x="380" y="433" font-family="Arial, sans-serif" font-size="15" fill="#233D39" >08  Reset</text><text x="715" y="433" font-family="Arial, sans-serif" font-size="15" fill="#233D39" >13.50</text><text x="835" y="433" font-family="Arial, sans-serif" font-size="15" fill="#233D39" >2.50</text><text x="955" y="433" font-family="Arial, sans-serif" font-size="15" fill="#233D39" >7.00</text><text x="1080" y="433" font-family="Arial, sans-serif" font-size="15" fill="#233D39" >1.40</text><text x="380" y="462" font-family="Arial, sans-serif" font-size="15" fill="#233D39" >09  Select</text><text x="715" y="462" font-family="Arial, sans-serif" font-size="15" fill="#233D39" >3.20</text><text x="835" y="462" font-family="Arial, sans-serif" font-size="15" fill="#233D39" >53.00</text><text x="955" y="462" font-family="Arial, sans-serif" font-size="15" fill="#233D39" >7.70</text><text x="1080" y="462" font-family="Arial, sans-serif" font-size="15" fill="#233D39" >1.20</text><text x="380" y="780" font-family="Arial, sans-serif" font-size="15" fill="#233D39" >OUTER RADII: TL / BL / BR R1.20; TR R2.40. Aperture: X4.55 / Y7.35.</text><rect x="40" y="838" width="24" height="24" rx="3" fill="#D1D0C9" stroke="#BAC2B8"/><text x="72" y="856" font-family="Arial, sans-serif" font-size="16" fill="#233D39" >body #D1D0C9</text><rect x="346" y="838" width="24" height="24" rx="3" fill="#464751" stroke="#BAC2B8"/><text x="378" y="856" font-family="Arial, sans-serif" font-size="16" fill="#233D39" >detail #464751</text><rect x="652" y="838" width="24" height="24" rx="3" fill="#746198" stroke="#BAC2B8"/><text x="684" y="856" font-family="Arial, sans-serif" font-size="16" fill="#233D39" >accent #746198</text><rect x="958" y="838" width="24" height="24" rx="3" fill="#ACA0C2" stroke="#BAC2B8"/><text x="990" y="856" font-family="Arial, sans-serif" font-size="16" fill="#233D39" >secondary #ACA0C2</text><text x="40" y="901" font-family="Arial, sans-serif" font-size="17" fill="#233D39" >Unapproved 2D artwork. A: face Z13.39 / 0.20 mm cover. B: face Z13.59 / 0.40 mm cover.</text><text x="40" y="935" font-family="Arial, sans-serif" font-size="17" fill="#233D39" >Color regions remain flush. Pin-cover selection and physical print/fit qualification are pending.</text><text x="40" y="976" font-family="Arial, sans-serif" font-size="12" fill="#233D39" >MASTER 3e74ccf87921e9326e96c4f42d718a41e308b786972898cc232d057b8ba54abc</text></svg>
