<svg xmlns="http://www.w3.org/2000/svg" width="1280" height="1040" viewBox="0 0 1280 1040"><metadata>Flan36 R8; exact artwork, selection status in master; master SHA256 291e9fb40634246b8a4f0733fed7e240ec94295adab2540a9e5445ea9057555e</metadata><rect width="1280" height="1040" fill="#F6F3E9"/><text x="40" y="50" font-family="Arial,sans-serif" font-size="30" font-weight="bold" fill="#253936">GAME BOY / EXACT ARTWORK</text><text x="40" y="84" font-family="Arial,sans-serif" font-size="18" font-weight="normal" fill="#253936">R8 · 24 × 56 mm · four solid-color roles · no raised decoration</text><g transform="translate(85,163) scale(11)"><path d="M 5 5.1 L 19 5.1 L 19 41.1 L 5 41.1 Z " fill="#111915" fill-rule="evenodd"/><path d="M 5.15 7.65 L 18.85 7.65 L 18.85 37.95 L 5.15 37.95 Z " fill="#303836" fill-rule="evenodd"/><path d="M 6.628 10.26 L 17.372 10.26 L 17.372 35.54 L 6.628 35.54 Z " fill="#BFC8AD" fill-rule="evenodd"/><g fill="#4C5949" font-family="monospace" font-size="1.5" text-anchor="middle"><text x="12" y="21">BASE</text><text x="12" y="27">BLE</text></g><path d="M 1.2 0 L 21.6 0 A 2.4 2.4 0 0 1 24 2.4 L 24 54.8 A 1.2 1.2 0 0 1 22.8 56 L 1.2 56 A 1.2 1.2 0 0 1 0 54.8 L 0 1.2 A 1.2 1.2 0 0 1 1.2 0 Z  M 5.05 7.55 L 18.95 7.55 L 18.95 38.05 L 5.05 38.05 Z " fill="#DCD6BA" fill-rule="evenodd"/><path d="M 5.05 5.15 L 18.95 5.15 A 2.4 2.4 0 0 1 21.35 7.55 L 21.35 38.05 A 2.4 2.4 0 0 1 18.95 40.45 L 5.05 40.45 A 2.4 2.4 0 0 1 2.65 38.05 L 2.65 7.55 A 2.4 2.4 0 0 1 5.05 5.15 Z  M 5.05 7.55 L 18.95 7.55 L 18.95 38.05 L 5.05 38.05 Z " fill="#42454D" fill-rule="evenodd"/><path d="M 5.2 42.85 L 7.6 42.85 L 7.6 45.25 L 10 45.25 L 10 47.65 L 7.6 47.65 L 7.6 50.05 L 5.2 50.05 L 5.2 47.65 L 2.8 47.65 L 2.8 45.25 L 5.2 45.25 Z " fill="#42454D" fill-rule="evenodd"/><path d="M 17.3 44.7 A 1.9 1.9 0 1 1 21.1 44.7 A 1.9 1.9 0 1 1 17.3 44.7 Z " fill="#973C60" fill-rule="evenodd"/><path d="M 13.6 47.9 A 1.9 1.9 0 1 1 17.4 47.9 A 1.9 1.9 0 1 1 13.6 47.9 Z " fill="#973C60" fill-rule="evenodd"/><path d="M 4.1 52.45 L 7.6 52.45 A 0.6 0.6 0 0 1 8.2 53.05 L 8.2 53.05 A 0.6 0.6 0 0 1 7.6 53.65 L 4.1 53.65 A 0.6 0.6 0 0 1 3.5 53.05 L 3.5 53.05 A 0.6 0.6 0 0 1 4.1 52.45 Z " fill="#A6A392" fill-rule="evenodd"/><path d="M 13.3 51.5 L 14.4 51.5 L 15.5 54.5 L 14.4 54.5 Z " fill="#A6A392" fill-rule="evenodd"/><path d="M 15.85 51.5 L 16.95 51.5 L 18.05 54.5 L 16.95 54.5 Z " fill="#A6A392" fill-rule="evenodd"/><path d="M 18.4 51.5 L 19.5 51.5 L 20.6 54.5 L 19.5 54.5 Z " fill="#A6A392" fill-rule="evenodd"/></g><path d="M85 140H349 M62 163V779" stroke="#647D74" fill="none"/><text x="170" y="129" font-family="Arial,sans-serif" font-size="17" font-weight="normal" fill="#253936">24.00 mm</text><text x="7" y="480" font-family="Arial,sans-serif" font-size="16" font-weight="normal" fill="#253936">56.00</text><text x="425" y="164" font-family="Arial,sans-serif" font-size="20" font-weight="bold" fill="#253936">COMPOSITION</text><text x="425" y="199" font-family="Arial,sans-serif" font-size="18" font-weight="normal" fill="#253936">Uniform graphite bezel, berry buttons and three wider diagonal speaker</text><text x="425" y="227" font-family="Arial,sans-serif" font-size="18" font-weight="normal" fill="#253936">marks.</text><text x="425" y="320" font-family="Arial,sans-serif" font-size="20" font-weight="bold" fill="#253936">FIXED INTERFACE</text><text x="425" y="357" font-family="Arial,sans-serif" font-size="18" font-weight="normal" fill="#253936">The current corrected mechanical blank is unchanged.</text><text x="425" y="386" font-family="Arial,sans-serif" font-size="18" font-weight="normal" fill="#253936">Opening: 13.90 × 30.50 mm, centered on the glass.</text><text x="425" y="415" font-family="Arial,sans-serif" font-size="18" font-weight="normal" fill="#253936">Nominal glass clearance: 0.10 mm on each side.</text><text x="425" y="444" font-family="Arial,sans-serif" font-size="18" font-weight="normal" fill="#253936">Frame face: Z13.59 mm. Glass top: Z13.39 mm.</text><text x="425" y="473" font-family="Arial,sans-serif" font-size="18" font-weight="normal" fill="#253936">Screen bezel: exact 2.40 mm outward offset.</text><text x="425" y="502" font-family="Arial,sans-serif" font-size="18" font-weight="normal" fill="#253936">Body corners: TL / BL / BR R1.20, TR R2.40.</text><text x="425" y="531" font-family="Arial,sans-serif" font-size="18" font-weight="normal" fill="#253936">Four complementary color volumes, flush at the face.</text><text x="425" y="560" font-family="Arial,sans-serif" font-size="18" font-weight="normal" fill="#253936">All paths and colors come directly from master.json.</text><text x="425" y="639" font-family="Arial,sans-serif" font-size="20" font-weight="bold" fill="#253936">PALETTE</text><rect x="425" y="666" width="21" height="21" rx="3" fill="#DCD6BA" stroke="#ABB4AA"/><text x="455" y="684" font-family="Arial,sans-serif" font-size="17" font-weight="normal" fill="#253936">#DCD6BA</text><rect x="695" y="666" width="21" height="21" rx="3" fill="#42454D" stroke="#ABB4AA"/><text x="725" y="684" font-family="Arial,sans-serif" font-size="17" font-weight="normal" fill="#253936">#42454D</text><rect x="425" y="696" width="21" height="21" rx="3" fill="#973C60" stroke="#ABB4AA"/><text x="455" y="714" font-family="Arial,sans-serif" font-size="17" font-weight="normal" fill="#253936">#973C60</text><rect x="695" y="696" width="21" height="21" rx="3" fill="#A6A392" stroke="#ABB4AA"/><text x="725" y="714" font-family="Arial,sans-serif" font-size="17" font-weight="normal" fill="#253936">#A6A392</text><text x="40" y="845" font-family="Arial,sans-serif" font-size="20" font-weight="bold" fill="#253936">SELECTED ARTWORK / NOT A PRINT RELEASE</text><text x="40" y="881" font-family="Arial,sans-serif" font-size="18" font-weight="normal" fill="#253936">0.4 mm nozzle target. Exact paths do not qualify slicing, thin tips, bonding or physical fit.</text><text x="40" y="914" font-family="Arial,sans-serif" font-size="18" font-weight="normal" fill="#253936">Display context uses real modeled footprints. LCD content is illustrative.</text><text x="40" y="1004" font-family="Arial,sans-serif" font-size="13" font-weight="normal" fill="#253936">MASTER SHA256 291e9fb40634246b8a4f0733fed7e240ec94295adab2540a9e5445ea9057555e</text></svg>
