ISO-10303-21;
HEADER;
FILE_DESCRIPTION(('FreeCAD Model'),'2;1');
FILE_NAME('Open CASCADE Shape Model','2026-09-28T15:54:04',('FreeCAD'),(
    'FreeCAD'),'Open CASCADE STEP processor 7.8','FreeCAD','Unknown');
FILE_SCHEMA(('AUTOMOTIVE_DESIGN { 1 0 10303 214 1 1 1 1 }'));
ENDSEC;
DATA;
#1 = APPLICATION_PROTOCOL_DEFINITION('international standard',
  'automotive_design',2000,#2);
#2 = APPLICATION_CONTEXT(
  'core data for automotive mechanical design processes');
#3 = SHAPE_DEFINITION_REPRESENTATION(#4,#10);
#4 = PRODUCT_DEFINITION_SHAPE('','',#5);
#5 = PRODUCT_DEFINITION('design','',#6,#9);
#6 = PRODUCT_DEFINITION_FORMATION('','',#7);
#7 = PRODUCT('Open CASCADE STEP translator 7.8 19',
  'Open CASCADE STEP translator 7.8 19','',(#8));
#8 = PRODUCT_CONTEXT('',#2,'mechanical');
#9 = PRODUCT_DEFINITION_CONTEXT('part definition',#2,'design');
#10 = SHAPE_REPRESENTATION('',(#11,#15,#335),#625);
#11 = AXIS2_PLACEMENT_3D('',#12,#13,#14);
#12 = CARTESIAN_POINT('',(0.,0.,0.));
#13 = DIRECTION('',(0.,0.,1.));
#14 = DIRECTION('',(1.,0.,-0.));
#15 = MANIFOLD_SOLID_BREP('',#16);
#16 = CLOSED_SHELL('',(#17,#57,#90,#121,#163,#194,#236,#267,#300,#316));
#17 = ADVANCED_FACE('',(#18),#52,.T.);
#18 = FACE_BOUND('',#19,.T.);
#19 = EDGE_LOOP('',(#20,#30,#38,#46));
#20 = ORIENTED_EDGE('',*,*,#21,.T.);
#21 = EDGE_CURVE('',#22,#24,#26,.T.);
#22 = VERTEX_POINT('',#23);
#23 = CARTESIAN_POINT('',(112.5,-12.4,12.99));
#24 = VERTEX_POINT('',#25);
#25 = CARTESIAN_POINT('',(112.5,-12.4,13.39));
#26 = LINE('',#27,#28);
#27 = CARTESIAN_POINT('',(112.5,-12.4,12.99));
#28 = VECTOR('',#29,1.);
#29 = DIRECTION('',(0.,0.,1.));
#30 = ORIENTED_EDGE('',*,*,#31,.T.);
#31 = EDGE_CURVE('',#24,#32,#34,.T.);
#32 = VERTEX_POINT('',#33);
#33 = CARTESIAN_POINT('',(133.5,-12.4,13.39));
#34 = LINE('',#35,#36);
#35 = CARTESIAN_POINT('',(112.5,-12.4,13.39));
#36 = VECTOR('',#37,1.);
#37 = DIRECTION('',(1.,0.,0.));
#38 = ORIENTED_EDGE('',*,*,#39,.F.);
#39 = EDGE_CURVE('',#40,#32,#42,.T.);
#40 = VERTEX_POINT('',#41);
#41 = CARTESIAN_POINT('',(133.5,-12.4,12.99));
#42 = LINE('',#43,#44);
#43 = CARTESIAN_POINT('',(133.5,-12.4,12.99));
#44 = VECTOR('',#45,1.);
#45 = DIRECTION('',(0.,0.,1.));
#46 = ORIENTED_EDGE('',*,*,#47,.F.);
#47 = EDGE_CURVE('',#22,#40,#48,.T.);
#48 = LINE('',#49,#50);
#49 = CARTESIAN_POINT('',(112.5,-12.4,12.99));
#50 = VECTOR('',#51,1.);
#51 = DIRECTION('',(1.,0.,0.));
#52 = PLANE('',#53);
#53 = AXIS2_PLACEMENT_3D('',#54,#55,#56);
#54 = CARTESIAN_POINT('',(112.5,-12.4,12.99));
#55 = DIRECTION('',(0.,1.,0.));
#56 = DIRECTION('',(1.,0.,0.));
#57 = ADVANCED_FACE('',(#58),#85,.T.);
#58 = FACE_BOUND('',#59,.T.);
#59 = EDGE_LOOP('',(#60,#61,#70,#78));
#60 = ORIENTED_EDGE('',*,*,#39,.T.);
#61 = ORIENTED_EDGE('',*,*,#62,.T.);
#62 = EDGE_CURVE('',#32,#63,#65,.T.);
#63 = VERTEX_POINT('',#64);
#64 = CARTESIAN_POINT('',(134.,-12.9,13.39));
#65 = CIRCLE('',#66,0.5);
#66 = AXIS2_PLACEMENT_3D('',#67,#68,#69);
#67 = CARTESIAN_POINT('',(133.5,-12.9,13.39));
#68 = DIRECTION('',(0.,0.,-1.));
#69 = DIRECTION('',(0.,1.,0.));
#70 = ORIENTED_EDGE('',*,*,#71,.F.);
#71 = EDGE_CURVE('',#72,#63,#74,.T.);
#72 = VERTEX_POINT('',#73);
#73 = CARTESIAN_POINT('',(134.,-12.9,12.99));
#74 = LINE('',#75,#76);
#75 = CARTESIAN_POINT('',(134.,-12.9,12.99));
#76 = VECTOR('',#77,1.);
#77 = DIRECTION('',(0.,0.,1.));
#78 = ORIENTED_EDGE('',*,*,#79,.F.);
#79 = EDGE_CURVE('',#40,#72,#80,.T.);
#80 = CIRCLE('',#81,0.5);
#81 = AXIS2_PLACEMENT_3D('',#82,#83,#84);
#82 = CARTESIAN_POINT('',(133.5,-12.9,12.99));
#83 = DIRECTION('',(0.,0.,-1.));
#84 = DIRECTION('',(0.,1.,0.));
#85 = CYLINDRICAL_SURFACE('',#86,0.5);
#86 = AXIS2_PLACEMENT_3D('',#87,#88,#89);
#87 = CARTESIAN_POINT('',(133.5,-12.9,12.99));
#88 = DIRECTION('',(0.,0.,-1.));
#89 = DIRECTION('',(0.,1.,0.));
#90 = ADVANCED_FACE('',(#91),#116,.T.);
#91 = FACE_BOUND('',#92,.T.);
#92 = EDGE_LOOP('',(#93,#94,#102,#110));
#93 = ORIENTED_EDGE('',*,*,#71,.T.);
#94 = ORIENTED_EDGE('',*,*,#95,.T.);
#95 = EDGE_CURVE('',#63,#96,#98,.T.);
#96 = VERTEX_POINT('',#97);
#97 = CARTESIAN_POINT('',(134.,-14.5,13.39));
#98 = LINE('',#99,#100);
#99 = CARTESIAN_POINT('',(134.,-12.9,13.39));
#100 = VECTOR('',#101,1.);
#101 = DIRECTION('',(0.,-1.,0.));
#102 = ORIENTED_EDGE('',*,*,#103,.F.);
#103 = EDGE_CURVE('',#104,#96,#106,.T.);
#104 = VERTEX_POINT('',#105);
#105 = CARTESIAN_POINT('',(134.,-14.5,12.99));
#106 = LINE('',#107,#108);
#107 = CARTESIAN_POINT('',(134.,-14.5,12.99));
#108 = VECTOR('',#109,1.);
#109 = DIRECTION('',(0.,0.,1.));
#110 = ORIENTED_EDGE('',*,*,#111,.F.);
#111 = EDGE_CURVE('',#72,#104,#112,.T.);
#112 = LINE('',#113,#114);
#113 = CARTESIAN_POINT('',(134.,-12.9,12.99));
#114 = VECTOR('',#115,1.);
#115 = DIRECTION('',(0.,-1.,0.));
#116 = PLANE('',#117);
#117 = AXIS2_PLACEMENT_3D('',#118,#119,#120);
#118 = CARTESIAN_POINT('',(134.,-12.9,12.99));
#119 = DIRECTION('',(1.,0.,0.));
#120 = DIRECTION('',(0.,-1.,0.));
#121 = ADVANCED_FACE('',(#122),#158,.T.);
#122 = FACE_BOUND('',#123,.T.);
#123 = EDGE_LOOP('',(#124,#125,#134,#142,#151));
#124 = ORIENTED_EDGE('',*,*,#103,.T.);
#125 = ORIENTED_EDGE('',*,*,#126,.T.);
#126 = EDGE_CURVE('',#96,#127,#129,.T.);
#127 = VERTEX_POINT('',#128);
#128 = CARTESIAN_POINT('',(133.5,-15.,13.39));
#129 = CIRCLE('',#130,0.5);
#130 = AXIS2_PLACEMENT_3D('',#131,#132,#133);
#131 = CARTESIAN_POINT('',(133.5,-14.5,13.39));
#132 = DIRECTION('',(0.,0.,-1.));
#133 = DIRECTION('',(1.,7.11E-15,0.));
#134 = ORIENTED_EDGE('',*,*,#135,.F.);
#135 = EDGE_CURVE('',#136,#127,#138,.T.);
#136 = VERTEX_POINT('',#137);
#137 = CARTESIAN_POINT('',(133.5,-15.,12.99));
#138 = LINE('',#139,#140);
#139 = CARTESIAN_POINT('',(133.5,-15.,12.99));
#140 = VECTOR('',#141,1.);
#141 = DIRECTION('',(0.,0.,1.));
#142 = ORIENTED_EDGE('',*,*,#143,.F.);
#143 = EDGE_CURVE('',#144,#136,#146,.T.);
#144 = VERTEX_POINT('',#145);
#145 = CARTESIAN_POINT('',(133.8,-14.9,12.99));
#146 = CIRCLE('',#147,0.5);
#147 = AXIS2_PLACEMENT_3D('',#148,#149,#150);
#148 = CARTESIAN_POINT('',(133.5,-14.5,12.99));
#149 = DIRECTION('',(0.,0.,-1.));
#150 = DIRECTION('',(1.,7.11E-15,0.));
#151 = ORIENTED_EDGE('',*,*,#152,.F.);
#152 = EDGE_CURVE('',#104,#144,#153,.T.);
#153 = CIRCLE('',#154,0.5);
#154 = AXIS2_PLACEMENT_3D('',#155,#156,#157);
#155 = CARTESIAN_POINT('',(133.5,-14.5,12.99));
#156 = DIRECTION('',(0.,0.,-1.));
#157 = DIRECTION('',(1.,7.11E-15,0.));
#158 = CYLINDRICAL_SURFACE('',#159,0.5);
#159 = AXIS2_PLACEMENT_3D('',#160,#161,#162);
#160 = CARTESIAN_POINT('',(133.5,-14.5,12.99));
#161 = DIRECTION('',(0.,0.,-1.));
#162 = DIRECTION('',(1.,7.11E-15,0.));
#163 = ADVANCED_FACE('',(#164),#189,.T.);
#164 = FACE_BOUND('',#165,.T.);
#165 = EDGE_LOOP('',(#166,#167,#175,#183));
#166 = ORIENTED_EDGE('',*,*,#135,.T.);
#167 = ORIENTED_EDGE('',*,*,#168,.T.);
#168 = EDGE_CURVE('',#127,#169,#171,.T.);
#169 = VERTEX_POINT('',#170);
#170 = CARTESIAN_POINT('',(112.5,-15.,13.39));
#171 = LINE('',#172,#173);
#172 = CARTESIAN_POINT('',(133.5,-15.,13.39));
#173 = VECTOR('',#174,1.);
#174 = DIRECTION('',(-1.,0.,0.));
#175 = ORIENTED_EDGE('',*,*,#176,.F.);
#176 = EDGE_CURVE('',#177,#169,#179,.T.);
#177 = VERTEX_POINT('',#178);
#178 = CARTESIAN_POINT('',(112.5,-15.,12.99));
#179 = LINE('',#180,#181);
#180 = CARTESIAN_POINT('',(112.5,-15.,12.99));
#181 = VECTOR('',#182,1.);
#182 = DIRECTION('',(0.,0.,1.));
#183 = ORIENTED_EDGE('',*,*,#184,.F.);
#184 = EDGE_CURVE('',#136,#177,#185,.T.);
#185 = LINE('',#186,#187);
#186 = CARTESIAN_POINT('',(133.5,-15.,12.99));
#187 = VECTOR('',#188,1.);
#188 = DIRECTION('',(-1.,0.,0.));
#189 = PLANE('',#190);
#190 = AXIS2_PLACEMENT_3D('',#191,#192,#193);
#191 = CARTESIAN_POINT('',(133.5,-15.,12.99));
#192 = DIRECTION('',(0.,-1.,0.));
#193 = DIRECTION('',(-1.,0.,0.));
#194 = ADVANCED_FACE('',(#195),#231,.T.);
#195 = FACE_BOUND('',#196,.T.);
#196 = EDGE_LOOP('',(#197,#198,#207,#215,#224));
#197 = ORIENTED_EDGE('',*,*,#176,.T.);
#198 = ORIENTED_EDGE('',*,*,#199,.T.);
#199 = EDGE_CURVE('',#169,#200,#202,.T.);
#200 = VERTEX_POINT('',#201);
#201 = CARTESIAN_POINT('',(112.,-14.5,13.39));
#202 = CIRCLE('',#203,0.5);
#203 = AXIS2_PLACEMENT_3D('',#204,#205,#206);
#204 = CARTESIAN_POINT('',(112.5,-14.5,13.39));
#205 = DIRECTION('',(0.,0.,-1.));
#206 = DIRECTION('',(0.,-1.,0.));
#207 = ORIENTED_EDGE('',*,*,#208,.F.);
#208 = EDGE_CURVE('',#209,#200,#211,.T.);
#209 = VERTEX_POINT('',#210);
#210 = CARTESIAN_POINT('',(112.,-14.5,12.99));
#211 = LINE('',#212,#213);
#212 = CARTESIAN_POINT('',(112.,-14.5,12.99));
#213 = VECTOR('',#214,1.);
#214 = DIRECTION('',(0.,0.,1.));
#215 = ORIENTED_EDGE('',*,*,#216,.F.);
#216 = EDGE_CURVE('',#217,#209,#219,.T.);
#217 = VERTEX_POINT('',#218);
#218 = CARTESIAN_POINT('',(112.2,-14.9,12.99));
#219 = CIRCLE('',#220,0.5);
#220 = AXIS2_PLACEMENT_3D('',#221,#222,#223);
#221 = CARTESIAN_POINT('',(112.5,-14.5,12.99));
#222 = DIRECTION('',(0.,0.,-1.));
#223 = DIRECTION('',(0.,-1.,0.));
#224 = ORIENTED_EDGE('',*,*,#225,.F.);
#225 = EDGE_CURVE('',#177,#217,#226,.T.);
#226 = CIRCLE('',#227,0.5);
#227 = AXIS2_PLACEMENT_3D('',#228,#229,#230);
#228 = CARTESIAN_POINT('',(112.5,-14.5,12.99));
#229 = DIRECTION('',(0.,0.,-1.));
#230 = DIRECTION('',(0.,-1.,0.));
#231 = CYLINDRICAL_SURFACE('',#232,0.5);
#232 = AXIS2_PLACEMENT_3D('',#233,#234,#235);
#233 = CARTESIAN_POINT('',(112.5,-14.5,12.99));
#234 = DIRECTION('',(0.,0.,-1.));
#235 = DIRECTION('',(0.,-1.,0.));
#236 = ADVANCED_FACE('',(#237),#262,.T.);
#237 = FACE_BOUND('',#238,.T.);
#238 = EDGE_LOOP('',(#239,#240,#248,#256));
#239 = ORIENTED_EDGE('',*,*,#208,.T.);
#240 = ORIENTED_EDGE('',*,*,#241,.T.);
#241 = EDGE_CURVE('',#200,#242,#244,.T.);
#242 = VERTEX_POINT('',#243);
#243 = CARTESIAN_POINT('',(112.,-12.9,13.39));
#244 = LINE('',#245,#246);
#245 = CARTESIAN_POINT('',(112.,-14.5,13.39));
#246 = VECTOR('',#247,1.);
#247 = DIRECTION('',(0.,1.,0.));
#248 = ORIENTED_EDGE('',*,*,#249,.F.);
#249 = EDGE_CURVE('',#250,#242,#252,.T.);
#250 = VERTEX_POINT('',#251);
#251 = CARTESIAN_POINT('',(112.,-12.9,12.99));
#252 = LINE('',#253,#254);
#253 = CARTESIAN_POINT('',(112.,-12.9,12.99));
#254 = VECTOR('',#255,1.);
#255 = DIRECTION('',(0.,0.,1.));
#256 = ORIENTED_EDGE('',*,*,#257,.F.);
#257 = EDGE_CURVE('',#209,#250,#258,.T.);
#258 = LINE('',#259,#260);
#259 = CARTESIAN_POINT('',(112.,-14.5,12.99));
#260 = VECTOR('',#261,1.);
#261 = DIRECTION('',(0.,1.,0.));
#262 = PLANE('',#263);
#263 = AXIS2_PLACEMENT_3D('',#264,#265,#266);
#264 = CARTESIAN_POINT('',(112.,-14.5,12.99));
#265 = DIRECTION('',(-1.,0.,0.));
#266 = DIRECTION('',(0.,1.,0.));
#267 = ADVANCED_FACE('',(#268),#295,.T.);
#268 = FACE_BOUND('',#269,.T.);
#269 = EDGE_LOOP('',(#270,#271,#278,#279,#288));
#270 = ORIENTED_EDGE('',*,*,#249,.T.);
#271 = ORIENTED_EDGE('',*,*,#272,.T.);
#272 = EDGE_CURVE('',#242,#24,#273,.T.);
#273 = CIRCLE('',#274,0.5);
#274 = AXIS2_PLACEMENT_3D('',#275,#276,#277);
#275 = CARTESIAN_POINT('',(112.5,-12.9,13.39));
#276 = DIRECTION('',(0.,0.,-1.));
#277 = DIRECTION('',(-1.,-7.11E-15,-0.));
#278 = ORIENTED_EDGE('',*,*,#21,.F.);
#279 = ORIENTED_EDGE('',*,*,#280,.F.);
#280 = EDGE_CURVE('',#281,#22,#283,.T.);
#281 = VERTEX_POINT('',#282);
#282 = CARTESIAN_POINT('',(112.2,-12.5,12.99));
#283 = CIRCLE('',#284,0.5);
#284 = AXIS2_PLACEMENT_3D('',#285,#286,#287);
#285 = CARTESIAN_POINT('',(112.5,-12.9,12.99));
#286 = DIRECTION('',(0.,0.,-1.));
#287 = DIRECTION('',(-1.,-7.11E-15,-0.));
#288 = ORIENTED_EDGE('',*,*,#289,.F.);
#289 = EDGE_CURVE('',#250,#281,#290,.T.);
#290 = CIRCLE('',#291,0.5);
#291 = AXIS2_PLACEMENT_3D('',#292,#293,#294);
#292 = CARTESIAN_POINT('',(112.5,-12.9,12.99));
#293 = DIRECTION('',(0.,0.,-1.));
#294 = DIRECTION('',(-1.,-7.11E-15,-0.));
#295 = CYLINDRICAL_SURFACE('',#296,0.5);
#296 = AXIS2_PLACEMENT_3D('',#297,#298,#299);
#297 = CARTESIAN_POINT('',(112.5,-12.9,12.99));
#298 = DIRECTION('',(0.,0.,-1.));
#299 = DIRECTION('',(-1.,-7.11E-15,-0.));
#300 = ADVANCED_FACE('',(#301),#311,.T.);
#301 = FACE_BOUND('',#302,.F.);
#302 = EDGE_LOOP('',(#303,#304,#305,#306,#307,#308,#309,#310));
#303 = ORIENTED_EDGE('',*,*,#31,.T.);
#304 = ORIENTED_EDGE('',*,*,#62,.T.);
#305 = ORIENTED_EDGE('',*,*,#95,.T.);
#306 = ORIENTED_EDGE('',*,*,#126,.T.);
#307 = ORIENTED_EDGE('',*,*,#168,.T.);
#308 = ORIENTED_EDGE('',*,*,#199,.T.);
#309 = ORIENTED_EDGE('',*,*,#241,.T.);
#310 = ORIENTED_EDGE('',*,*,#272,.T.);
#311 = PLANE('',#312);
#312 = AXIS2_PLACEMENT_3D('',#313,#314,#315);
#313 = CARTESIAN_POINT('',(123.,-13.7,13.39));
#314 = DIRECTION('',(0.,0.,1.));
#315 = DIRECTION('',(1.,0.,0.));
#316 = ADVANCED_FACE('',(#317),#330,.T.);
#317 = FACE_BOUND('',#318,.T.);
#318 = EDGE_LOOP('',(#319,#320,#321,#322,#323,#324,#325,#326,#327,#328,
    #329));
#319 = ORIENTED_EDGE('',*,*,#47,.T.);
#320 = ORIENTED_EDGE('',*,*,#79,.T.);
#321 = ORIENTED_EDGE('',*,*,#111,.T.);
#322 = ORIENTED_EDGE('',*,*,#152,.T.);
#323 = ORIENTED_EDGE('',*,*,#143,.T.);
#324 = ORIENTED_EDGE('',*,*,#184,.T.);
#325 = ORIENTED_EDGE('',*,*,#225,.T.);
#326 = ORIENTED_EDGE('',*,*,#216,.T.);
#327 = ORIENTED_EDGE('',*,*,#257,.T.);
#328 = ORIENTED_EDGE('',*,*,#289,.T.);
#329 = ORIENTED_EDGE('',*,*,#280,.T.);
#330 = PLANE('',#331);
#331 = AXIS2_PLACEMENT_3D('',#332,#333,#334);
#332 = CARTESIAN_POINT('',(122.99847081761,-13.70024106625,12.99));
#333 = DIRECTION('',(-0.,-0.,-1.));
#334 = DIRECTION('',(-1.,0.,0.));
#335 = MANIFOLD_SOLID_BREP('',#336);
#336 = CLOSED_SHELL('',(#337,#377,#410,#441,#474,#505,#538,#569,#593,
    #609));
#337 = ADVANCED_FACE('',(#338),#372,.T.);
#338 = FACE_BOUND('',#339,.T.);
#339 = EDGE_LOOP('',(#340,#350,#358,#366));
#340 = ORIENTED_EDGE('',*,*,#341,.T.);
#341 = EDGE_CURVE('',#342,#344,#346,.T.);
#342 = VERTEX_POINT('',#343);
#343 = CARTESIAN_POINT('',(114.2,-63.,12.99));
#344 = VERTEX_POINT('',#345);
#345 = CARTESIAN_POINT('',(114.2,-63.,13.39));
#346 = LINE('',#347,#348);
#347 = CARTESIAN_POINT('',(114.2,-63.,12.99));
#348 = VECTOR('',#349,1.);
#349 = DIRECTION('',(0.,0.,1.));
#350 = ORIENTED_EDGE('',*,*,#351,.T.);
#351 = EDGE_CURVE('',#344,#352,#354,.T.);
#352 = VERTEX_POINT('',#353);
#353 = CARTESIAN_POINT('',(123.8,-63.,13.39));
#354 = LINE('',#355,#356);
#355 = CARTESIAN_POINT('',(114.2,-63.,13.39));
#356 = VECTOR('',#357,1.);
#357 = DIRECTION('',(1.,0.,0.));
#358 = ORIENTED_EDGE('',*,*,#359,.F.);
#359 = EDGE_CURVE('',#360,#352,#362,.T.);
#360 = VERTEX_POINT('',#361);
#361 = CARTESIAN_POINT('',(123.8,-63.,12.99));
#362 = LINE('',#363,#364);
#363 = CARTESIAN_POINT('',(123.8,-63.,12.99));
#364 = VECTOR('',#365,1.);
#365 = DIRECTION('',(0.,0.,1.));
#366 = ORIENTED_EDGE('',*,*,#367,.F.);
#367 = EDGE_CURVE('',#342,#360,#368,.T.);
#368 = LINE('',#369,#370);
#369 = CARTESIAN_POINT('',(114.2,-63.,12.99));
#370 = VECTOR('',#371,1.);
#371 = DIRECTION('',(1.,0.,0.));
#372 = PLANE('',#373);
#373 = AXIS2_PLACEMENT_3D('',#374,#375,#376);
#374 = CARTESIAN_POINT('',(114.2,-63.,12.99));
#375 = DIRECTION('',(0.,1.,0.));
#376 = DIRECTION('',(1.,0.,0.));
#377 = ADVANCED_FACE('',(#378),#405,.T.);
#378 = FACE_BOUND('',#379,.T.);
#379 = EDGE_LOOP('',(#380,#381,#390,#398));
#380 = ORIENTED_EDGE('',*,*,#359,.T.);
#381 = ORIENTED_EDGE('',*,*,#382,.T.);
#382 = EDGE_CURVE('',#352,#383,#385,.T.);
#383 = VERTEX_POINT('',#384);
#384 = CARTESIAN_POINT('',(124.5,-63.7,13.39));
#385 = CIRCLE('',#386,0.7);
#386 = AXIS2_PLACEMENT_3D('',#387,#388,#389);
#387 = CARTESIAN_POINT('',(123.8,-63.7,13.39));
#388 = DIRECTION('',(0.,0.,-1.));
#389 = DIRECTION('',(-2.03E-14,1.,0.));
#390 = ORIENTED_EDGE('',*,*,#391,.F.);
#391 = EDGE_CURVE('',#392,#383,#394,.T.);
#392 = VERTEX_POINT('',#393);
#393 = CARTESIAN_POINT('',(124.5,-63.7,12.99));
#394 = LINE('',#395,#396);
#395 = CARTESIAN_POINT('',(124.5,-63.7,12.99));
#396 = VECTOR('',#397,1.);
#397 = DIRECTION('',(0.,0.,1.));
#398 = ORIENTED_EDGE('',*,*,#399,.F.);
#399 = EDGE_CURVE('',#360,#392,#400,.T.);
#400 = CIRCLE('',#401,0.7);
#401 = AXIS2_PLACEMENT_3D('',#402,#403,#404);
#402 = CARTESIAN_POINT('',(123.8,-63.7,12.99));
#403 = DIRECTION('',(0.,0.,-1.));
#404 = DIRECTION('',(-2.03E-14,1.,0.));
#405 = CYLINDRICAL_SURFACE('',#406,0.7);
#406 = AXIS2_PLACEMENT_3D('',#407,#408,#409);
#407 = CARTESIAN_POINT('',(123.8,-63.7,12.99));
#408 = DIRECTION('',(0.,0.,-1.));
#409 = DIRECTION('',(-2.03E-14,1.,0.));
#410 = ADVANCED_FACE('',(#411),#436,.T.);
#411 = FACE_BOUND('',#412,.T.);
#412 = EDGE_LOOP('',(#413,#414,#422,#430));
#413 = ORIENTED_EDGE('',*,*,#391,.T.);
#414 = ORIENTED_EDGE('',*,*,#415,.T.);
#415 = EDGE_CURVE('',#383,#416,#418,.T.);
#416 = VERTEX_POINT('',#417);
#417 = CARTESIAN_POINT('',(124.5,-63.8,13.39));
#418 = LINE('',#419,#420);
#419 = CARTESIAN_POINT('',(124.5,-63.7,13.39));
#420 = VECTOR('',#421,1.);
#421 = DIRECTION('',(0.,-1.,0.));
#422 = ORIENTED_EDGE('',*,*,#423,.F.);
#423 = EDGE_CURVE('',#424,#416,#426,.T.);
#424 = VERTEX_POINT('',#425);
#425 = CARTESIAN_POINT('',(124.5,-63.8,12.99));
#426 = LINE('',#427,#428);
#427 = CARTESIAN_POINT('',(124.5,-63.8,12.99));
#428 = VECTOR('',#429,1.);
#429 = DIRECTION('',(0.,0.,1.));
#430 = ORIENTED_EDGE('',*,*,#431,.F.);
#431 = EDGE_CURVE('',#392,#424,#432,.T.);
#432 = LINE('',#433,#434);
#433 = CARTESIAN_POINT('',(124.5,-63.7,12.99));
#434 = VECTOR('',#435,1.);
#435 = DIRECTION('',(0.,-1.,0.));
#436 = PLANE('',#437);
#437 = AXIS2_PLACEMENT_3D('',#438,#439,#440);
#438 = CARTESIAN_POINT('',(124.5,-63.7,12.99));
#439 = DIRECTION('',(1.,0.,0.));
#440 = DIRECTION('',(0.,-1.,0.));
#441 = ADVANCED_FACE('',(#442),#469,.T.);
#442 = FACE_BOUND('',#443,.T.);
#443 = EDGE_LOOP('',(#444,#445,#454,#462));
#444 = ORIENTED_EDGE('',*,*,#423,.T.);
#445 = ORIENTED_EDGE('',*,*,#446,.T.);
#446 = EDGE_CURVE('',#416,#447,#449,.T.);
#447 = VERTEX_POINT('',#448);
#448 = CARTESIAN_POINT('',(123.8,-64.5,13.39));
#449 = CIRCLE('',#450,0.7);
#450 = AXIS2_PLACEMENT_3D('',#451,#452,#453);
#451 = CARTESIAN_POINT('',(123.8,-63.8,13.39));
#452 = DIRECTION('',(0.,0.,-1.));
#453 = DIRECTION('',(1.,4.06E-14,0.));
#454 = ORIENTED_EDGE('',*,*,#455,.F.);
#455 = EDGE_CURVE('',#456,#447,#458,.T.);
#456 = VERTEX_POINT('',#457);
#457 = CARTESIAN_POINT('',(123.8,-64.5,12.99));
#458 = LINE('',#459,#460);
#459 = CARTESIAN_POINT('',(123.8,-64.5,12.99));
#460 = VECTOR('',#461,1.);
#461 = DIRECTION('',(0.,0.,1.));
#462 = ORIENTED_EDGE('',*,*,#463,.F.);
#463 = EDGE_CURVE('',#424,#456,#464,.T.);
#464 = CIRCLE('',#465,0.7);
#465 = AXIS2_PLACEMENT_3D('',#466,#467,#468);
#466 = CARTESIAN_POINT('',(123.8,-63.8,12.99));
#467 = DIRECTION('',(0.,0.,-1.));
#468 = DIRECTION('',(1.,4.06E-14,0.));
#469 = CYLINDRICAL_SURFACE('',#470,0.7);
#470 = AXIS2_PLACEMENT_3D('',#471,#472,#473);
#471 = CARTESIAN_POINT('',(123.8,-63.8,12.99));
#472 = DIRECTION('',(0.,0.,-1.));
#473 = DIRECTION('',(1.,4.06E-14,0.));
#474 = ADVANCED_FACE('',(#475),#500,.T.);
#475 = FACE_BOUND('',#476,.T.);
#476 = EDGE_LOOP('',(#477,#478,#486,#494));
#477 = ORIENTED_EDGE('',*,*,#455,.T.);
#478 = ORIENTED_EDGE('',*,*,#479,.T.);
#479 = EDGE_CURVE('',#447,#480,#482,.T.);
#480 = VERTEX_POINT('',#481);
#481 = CARTESIAN_POINT('',(114.2,-64.5,13.39));
#482 = LINE('',#483,#484);
#483 = CARTESIAN_POINT('',(123.8,-64.5,13.39));
#484 = VECTOR('',#485,1.);
#485 = DIRECTION('',(-1.,0.,0.));
#486 = ORIENTED_EDGE('',*,*,#487,.F.);
#487 = EDGE_CURVE('',#488,#480,#490,.T.);
#488 = VERTEX_POINT('',#489);
#489 = CARTESIAN_POINT('',(114.2,-64.5,12.99));
#490 = LINE('',#491,#492);
#491 = CARTESIAN_POINT('',(114.2,-64.5,12.99));
#492 = VECTOR('',#493,1.);
#493 = DIRECTION('',(0.,0.,1.));
#494 = ORIENTED_EDGE('',*,*,#495,.F.);
#495 = EDGE_CURVE('',#456,#488,#496,.T.);
#496 = LINE('',#497,#498);
#497 = CARTESIAN_POINT('',(123.8,-64.5,12.99));
#498 = VECTOR('',#499,1.);
#499 = DIRECTION('',(-1.,0.,0.));
#500 = PLANE('',#501);
#501 = AXIS2_PLACEMENT_3D('',#502,#503,#504);
#502 = CARTESIAN_POINT('',(123.8,-64.5,12.99));
#503 = DIRECTION('',(0.,-1.,0.));
#504 = DIRECTION('',(-1.,0.,0.));
#505 = ADVANCED_FACE('',(#506),#533,.T.);
#506 = FACE_BOUND('',#507,.T.);
#507 = EDGE_LOOP('',(#508,#509,#518,#526));
#508 = ORIENTED_EDGE('',*,*,#487,.T.);
#509 = ORIENTED_EDGE('',*,*,#510,.T.);
#510 = EDGE_CURVE('',#480,#511,#513,.T.);
#511 = VERTEX_POINT('',#512);
#512 = CARTESIAN_POINT('',(113.5,-63.8,13.39));
#513 = CIRCLE('',#514,0.7);
#514 = AXIS2_PLACEMENT_3D('',#515,#516,#517);
#515 = CARTESIAN_POINT('',(114.2,-63.8,13.39));
#516 = DIRECTION('',(0.,0.,-1.));
#517 = DIRECTION('',(4.06E-14,-1.,0.));
#518 = ORIENTED_EDGE('',*,*,#519,.F.);
#519 = EDGE_CURVE('',#520,#511,#522,.T.);
#520 = VERTEX_POINT('',#521);
#521 = CARTESIAN_POINT('',(113.5,-63.8,12.99));
#522 = LINE('',#523,#524);
#523 = CARTESIAN_POINT('',(113.5,-63.8,12.99));
#524 = VECTOR('',#525,1.);
#525 = DIRECTION('',(0.,0.,1.));
#526 = ORIENTED_EDGE('',*,*,#527,.F.);
#527 = EDGE_CURVE('',#488,#520,#528,.T.);
#528 = CIRCLE('',#529,0.7);
#529 = AXIS2_PLACEMENT_3D('',#530,#531,#532);
#530 = CARTESIAN_POINT('',(114.2,-63.8,12.99));
#531 = DIRECTION('',(0.,0.,-1.));
#532 = DIRECTION('',(4.06E-14,-1.,0.));
#533 = CYLINDRICAL_SURFACE('',#534,0.7);
#534 = AXIS2_PLACEMENT_3D('',#535,#536,#537);
#535 = CARTESIAN_POINT('',(114.2,-63.8,12.99));
#536 = DIRECTION('',(0.,0.,-1.));
#537 = DIRECTION('',(4.06E-14,-1.,0.));
#538 = ADVANCED_FACE('',(#539),#564,.T.);
#539 = FACE_BOUND('',#540,.T.);
#540 = EDGE_LOOP('',(#541,#542,#550,#558));
#541 = ORIENTED_EDGE('',*,*,#519,.T.);
#542 = ORIENTED_EDGE('',*,*,#543,.T.);
#543 = EDGE_CURVE('',#511,#544,#546,.T.);
#544 = VERTEX_POINT('',#545);
#545 = CARTESIAN_POINT('',(113.5,-63.7,13.39));
#546 = LINE('',#547,#548);
#547 = CARTESIAN_POINT('',(113.5,-63.8,13.39));
#548 = VECTOR('',#549,1.);
#549 = DIRECTION('',(0.,1.,0.));
#550 = ORIENTED_EDGE('',*,*,#551,.F.);
#551 = EDGE_CURVE('',#552,#544,#554,.T.);
#552 = VERTEX_POINT('',#553);
#553 = CARTESIAN_POINT('',(113.5,-63.7,12.99));
#554 = LINE('',#555,#556);
#555 = CARTESIAN_POINT('',(113.5,-63.7,12.99));
#556 = VECTOR('',#557,1.);
#557 = DIRECTION('',(0.,0.,1.));
#558 = ORIENTED_EDGE('',*,*,#559,.F.);
#559 = EDGE_CURVE('',#520,#552,#560,.T.);
#560 = LINE('',#561,#562);
#561 = CARTESIAN_POINT('',(113.5,-63.8,12.99));
#562 = VECTOR('',#563,1.);
#563 = DIRECTION('',(0.,1.,0.));
#564 = PLANE('',#565);
#565 = AXIS2_PLACEMENT_3D('',#566,#567,#568);
#566 = CARTESIAN_POINT('',(113.5,-63.8,12.99));
#567 = DIRECTION('',(-1.,0.,0.));
#568 = DIRECTION('',(0.,1.,0.));
#569 = ADVANCED_FACE('',(#570),#588,.T.);
#570 = FACE_BOUND('',#571,.T.);
#571 = EDGE_LOOP('',(#572,#573,#580,#581));
#572 = ORIENTED_EDGE('',*,*,#551,.T.);
#573 = ORIENTED_EDGE('',*,*,#574,.T.);
#574 = EDGE_CURVE('',#544,#344,#575,.T.);
#575 = CIRCLE('',#576,0.7);
#576 = AXIS2_PLACEMENT_3D('',#577,#578,#579);
#577 = CARTESIAN_POINT('',(114.2,-63.7,13.39));
#578 = DIRECTION('',(0.,0.,-1.));
#579 = DIRECTION('',(-1.,-3.045E-14,-0.));
#580 = ORIENTED_EDGE('',*,*,#341,.F.);
#581 = ORIENTED_EDGE('',*,*,#582,.F.);
#582 = EDGE_CURVE('',#552,#342,#583,.T.);
#583 = CIRCLE('',#584,0.7);
#584 = AXIS2_PLACEMENT_3D('',#585,#586,#587);
#585 = CARTESIAN_POINT('',(114.2,-63.7,12.99));
#586 = DIRECTION('',(0.,0.,-1.));
#587 = DIRECTION('',(-1.,-3.045E-14,-0.));
#588 = CYLINDRICAL_SURFACE('',#589,0.7);
#589 = AXIS2_PLACEMENT_3D('',#590,#591,#592);
#590 = CARTESIAN_POINT('',(114.2,-63.7,12.99));
#591 = DIRECTION('',(0.,0.,-1.));
#592 = DIRECTION('',(-1.,-3.045E-14,-0.));
#593 = ADVANCED_FACE('',(#594),#604,.F.);
#594 = FACE_BOUND('',#595,.T.);
#595 = EDGE_LOOP('',(#596,#597,#598,#599,#600,#601,#602,#603));
#596 = ORIENTED_EDGE('',*,*,#367,.T.);
#597 = ORIENTED_EDGE('',*,*,#399,.T.);
#598 = ORIENTED_EDGE('',*,*,#431,.T.);
#599 = ORIENTED_EDGE('',*,*,#463,.T.);
#600 = ORIENTED_EDGE('',*,*,#495,.T.);
#601 = ORIENTED_EDGE('',*,*,#527,.T.);
#602 = ORIENTED_EDGE('',*,*,#559,.T.);
#603 = ORIENTED_EDGE('',*,*,#582,.T.);
#604 = PLANE('',#605);
#605 = AXIS2_PLACEMENT_3D('',#606,#607,#608);
#606 = CARTESIAN_POINT('',(119.,-63.75,12.99));
#607 = DIRECTION('',(0.,0.,1.));
#608 = DIRECTION('',(1.,0.,0.));
#609 = ADVANCED_FACE('',(#610),#620,.T.);
#610 = FACE_BOUND('',#611,.F.);
#611 = EDGE_LOOP('',(#612,#613,#614,#615,#616,#617,#618,#619));
#612 = ORIENTED_EDGE('',*,*,#351,.T.);
#613 = ORIENTED_EDGE('',*,*,#382,.T.);
#614 = ORIENTED_EDGE('',*,*,#415,.T.);
#615 = ORIENTED_EDGE('',*,*,#446,.T.);
#616 = ORIENTED_EDGE('',*,*,#479,.T.);
#617 = ORIENTED_EDGE('',*,*,#510,.T.);
#618 = ORIENTED_EDGE('',*,*,#543,.T.);
#619 = ORIENTED_EDGE('',*,*,#574,.T.);
#620 = PLANE('',#621);
#621 = AXIS2_PLACEMENT_3D('',#622,#623,#624);
#622 = CARTESIAN_POINT('',(119.,-63.75,13.39));
#623 = DIRECTION('',(0.,0.,1.));
#624 = DIRECTION('',(1.,0.,0.));
#625 = ( GEOMETRIC_REPRESENTATION_CONTEXT(3) 
GLOBAL_UNCERTAINTY_ASSIGNED_CONTEXT((#629)) GLOBAL_UNIT_ASSIGNED_CONTEXT
((#626,#627,#628)) REPRESENTATION_CONTEXT('Context #1',
  '3D Context with UNIT and UNCERTAINTY') );
#626 = ( LENGTH_UNIT() NAMED_UNIT(*) SI_UNIT(.MILLI.,.METRE.) );
#627 = ( NAMED_UNIT(*) PLANE_ANGLE_UNIT() SI_UNIT($,.RADIAN.) );
#628 = ( NAMED_UNIT(*) SI_UNIT($,.STERADIAN.) SOLID_ANGLE_UNIT() );
#629 = UNCERTAINTY_MEASURE_WITH_UNIT(LENGTH_MEASURE(1.E-06),#626,
  'distance_accuracy_value','confusion accuracy');
#630 = PRODUCT_RELATED_PRODUCT_CATEGORY('part',$,(#7));
ENDSEC;
END-ISO-10303-21;
