ISO-10303-21;
HEADER;
FILE_DESCRIPTION(('FreeCAD Model'),'2;1');
FILE_NAME('Open CASCADE Shape Model','2026-09-28T15:54:10',('FreeCAD'),(
    'FreeCAD'),'Open CASCADE STEP processor 7.8','FreeCAD','Unknown');
FILE_SCHEMA(('AUTOMOTIVE_DESIGN { 1 0 10303 214 1 1 1 1 }'));
ENDSEC;
DATA;
#1 = APPLICATION_PROTOCOL_DEFINITION('international standard',
  'automotive_design',2000,#2);
#2 = APPLICATION_CONTEXT(
  'core data for automotive mechanical design processes');
#3 = SHAPE_DEFINITION_REPRESENTATION(#4,#10);
#4 = PRODUCT_DEFINITION_SHAPE('','',#5);
#5 = PRODUCT_DEFINITION('design','',#6,#9);
#6 = PRODUCT_DEFINITION_FORMATION('','',#7);
#7 = PRODUCT('Open CASCADE STEP translator 7.8 40',
  'Open CASCADE STEP translator 7.8 40','',(#8));
#8 = PRODUCT_CONTEXT('',#2,'mechanical');
#9 = PRODUCT_DEFINITION_CONTEXT('part definition',#2,'design');
#10 = SHAPE_REPRESENTATION('',(#11,#15,#189,#363,#537,#711),#905);
#11 = AXIS2_PLACEMENT_3D('',#12,#13,#14);
#12 = CARTESIAN_POINT('',(0.,0.,0.));
#13 = DIRECTION('',(0.,0.,1.));
#14 = DIRECTION('',(1.,0.,-0.));
#15 = MANIFOLD_SOLID_BREP('',#16);
#16 = CLOSED_SHELL('',(#17,#57,#90,#121,#148,#175));
#17 = ADVANCED_FACE('',(#18),#52,.F.);
#18 = FACE_BOUND('',#19,.F.);
#19 = EDGE_LOOP('',(#20,#30,#38,#46));
#20 = ORIENTED_EDGE('',*,*,#21,.T.);
#21 = EDGE_CURVE('',#22,#24,#26,.T.);
#22 = VERTEX_POINT('',#23);
#23 = CARTESIAN_POINT('',(123.59750776405,-63.20124611797,12.99));
#24 = VERTEX_POINT('',#25);
#25 = CARTESIAN_POINT('',(123.59750776405,-63.20124611797,13.39));
#26 = LINE('',#27,#28);
#27 = CARTESIAN_POINT('',(123.59750776405,-63.20124611797,12.99));
#28 = VECTOR('',#29,1.);
#29 = DIRECTION('',(0.,0.,1.));
#30 = ORIENTED_EDGE('',*,*,#31,.T.);
#31 = EDGE_CURVE('',#24,#32,#34,.T.);
#32 = VERTEX_POINT('',#33);
#33 = CARTESIAN_POINT('',(124.59750776405,-65.20124611797,13.39));
#34 = LINE('',#35,#36);
#35 = CARTESIAN_POINT('',(123.59750776405,-63.20124611797,13.39));
#36 = VECTOR('',#37,1.);
#37 = DIRECTION('',(0.4472135955,-0.894427191,0.));
#38 = ORIENTED_EDGE('',*,*,#39,.F.);
#39 = EDGE_CURVE('',#40,#32,#42,.T.);
#40 = VERTEX_POINT('',#41);
#41 = CARTESIAN_POINT('',(124.59750776405,-65.20124611797,12.99));
#42 = LINE('',#43,#44);
#43 = CARTESIAN_POINT('',(124.59750776405,-65.20124611797,12.99));
#44 = VECTOR('',#45,1.);
#45 = DIRECTION('',(0.,0.,1.));
#46 = ORIENTED_EDGE('',*,*,#47,.F.);
#47 = EDGE_CURVE('',#22,#40,#48,.T.);
#48 = LINE('',#49,#50);
#49 = CARTESIAN_POINT('',(123.59750776405,-63.20124611797,12.99));
#50 = VECTOR('',#51,1.);
#51 = DIRECTION('',(0.4472135955,-0.894427191,0.));
#52 = PLANE('',#53);
#53 = AXIS2_PLACEMENT_3D('',#54,#55,#56);
#54 = CARTESIAN_POINT('',(123.59750776405,-63.20124611797,12.99));
#55 = DIRECTION('',(0.894427191,0.4472135955,0.));
#56 = DIRECTION('',(0.4472135955,-0.894427191,0.));
#57 = ADVANCED_FACE('',(#58),#85,.T.);
#58 = FACE_BOUND('',#59,.F.);
#59 = EDGE_LOOP('',(#60,#69,#77,#84));
#60 = ORIENTED_EDGE('',*,*,#61,.F.);
#61 = EDGE_CURVE('',#62,#22,#64,.T.);
#62 = VERTEX_POINT('',#63);
#63 = CARTESIAN_POINT('',(124.40249223595,-62.79875388202,12.99));
#64 = CIRCLE('',#65,0.45);
#65 = AXIS2_PLACEMENT_3D('',#66,#67,#68);
#66 = CARTESIAN_POINT('',(124.,-63.,12.99));
#67 = DIRECTION('',(0.,0.,1.));
#68 = DIRECTION('',(1.,0.,0.));
#69 = ORIENTED_EDGE('',*,*,#70,.T.);
#70 = EDGE_CURVE('',#62,#71,#73,.T.);
#71 = VERTEX_POINT('',#72);
#72 = CARTESIAN_POINT('',(124.40249223595,-62.79875388202,13.39));
#73 = LINE('',#74,#75);
#74 = CARTESIAN_POINT('',(124.40249223595,-62.79875388202,12.99));
#75 = VECTOR('',#76,1.);
#76 = DIRECTION('',(0.,0.,1.));
#77 = ORIENTED_EDGE('',*,*,#78,.T.);
#78 = EDGE_CURVE('',#71,#24,#79,.T.);
#79 = CIRCLE('',#80,0.45);
#80 = AXIS2_PLACEMENT_3D('',#81,#82,#83);
#81 = CARTESIAN_POINT('',(124.,-63.,13.39));
#82 = DIRECTION('',(0.,0.,1.));
#83 = DIRECTION('',(1.,0.,0.));
#84 = ORIENTED_EDGE('',*,*,#21,.F.);
#85 = CYLINDRICAL_SURFACE('',#86,0.45);
#86 = AXIS2_PLACEMENT_3D('',#87,#88,#89);
#87 = CARTESIAN_POINT('',(124.,-63.,12.99));
#88 = DIRECTION('',(-0.,-0.,-1.));
#89 = DIRECTION('',(1.,0.,0.));
#90 = ADVANCED_FACE('',(#91),#116,.F.);
#91 = FACE_BOUND('',#92,.F.);
#92 = EDGE_LOOP('',(#93,#103,#109,#110));
#93 = ORIENTED_EDGE('',*,*,#94,.T.);
#94 = EDGE_CURVE('',#95,#97,#99,.T.);
#95 = VERTEX_POINT('',#96);
#96 = CARTESIAN_POINT('',(125.40249223595,-64.79875388202,12.99));
#97 = VERTEX_POINT('',#98);
#98 = CARTESIAN_POINT('',(125.40249223595,-64.79875388202,13.39));
#99 = LINE('',#100,#101);
#100 = CARTESIAN_POINT('',(125.40249223595,-64.79875388202,12.99));
#101 = VECTOR('',#102,1.);
#102 = DIRECTION('',(0.,0.,1.));
#103 = ORIENTED_EDGE('',*,*,#104,.T.);
#104 = EDGE_CURVE('',#97,#71,#105,.T.);
#105 = LINE('',#106,#107);
#106 = CARTESIAN_POINT('',(125.40249223595,-64.79875388202,13.39));
#107 = VECTOR('',#108,1.);
#108 = DIRECTION('',(-0.4472135955,0.894427191,0.));
#109 = ORIENTED_EDGE('',*,*,#70,.F.);
#110 = ORIENTED_EDGE('',*,*,#111,.F.);
#111 = EDGE_CURVE('',#95,#62,#112,.T.);
#112 = LINE('',#113,#114);
#113 = CARTESIAN_POINT('',(125.40249223595,-64.79875388202,12.99));
#114 = VECTOR('',#115,1.);
#115 = DIRECTION('',(-0.4472135955,0.894427191,0.));
#116 = PLANE('',#117);
#117 = AXIS2_PLACEMENT_3D('',#118,#119,#120);
#118 = CARTESIAN_POINT('',(125.40249223595,-64.79875388202,12.99));
#119 = DIRECTION('',(-0.894427191,-0.4472135955,0.));
#120 = DIRECTION('',(-0.4472135955,0.894427191,0.));
#121 = ADVANCED_FACE('',(#122),#143,.T.);
#122 = FACE_BOUND('',#123,.T.);
#123 = EDGE_LOOP('',(#124,#125,#134,#141,#142));
#124 = ORIENTED_EDGE('',*,*,#111,.F.);
#125 = ORIENTED_EDGE('',*,*,#126,.F.);
#126 = EDGE_CURVE('',#127,#95,#129,.T.);
#127 = VERTEX_POINT('',#128);
#128 = CARTESIAN_POINT('',(125.45,-65.,12.99));
#129 = CIRCLE('',#130,0.45);
#130 = AXIS2_PLACEMENT_3D('',#131,#132,#133);
#131 = CARTESIAN_POINT('',(125.,-65.,12.99));
#132 = DIRECTION('',(0.,0.,1.));
#133 = DIRECTION('',(1.,0.,0.));
#134 = ORIENTED_EDGE('',*,*,#135,.F.);
#135 = EDGE_CURVE('',#40,#127,#136,.T.);
#136 = CIRCLE('',#137,0.45);
#137 = AXIS2_PLACEMENT_3D('',#138,#139,#140);
#138 = CARTESIAN_POINT('',(125.,-65.,12.99));
#139 = DIRECTION('',(0.,0.,1.));
#140 = DIRECTION('',(1.,0.,0.));
#141 = ORIENTED_EDGE('',*,*,#47,.F.);
#142 = ORIENTED_EDGE('',*,*,#61,.F.);
#143 = PLANE('',#144);
#144 = AXIS2_PLACEMENT_3D('',#145,#146,#147);
#145 = CARTESIAN_POINT('',(124.5037620974,-64.00485152387,12.99));
#146 = DIRECTION('',(-0.,-0.,-1.));
#147 = DIRECTION('',(-1.,0.,0.));
#148 = ADVANCED_FACE('',(#149),#170,.T.);
#149 = FACE_BOUND('',#150,.T.);
#150 = EDGE_LOOP('',(#151,#152,#153,#154,#163));
#151 = ORIENTED_EDGE('',*,*,#104,.T.);
#152 = ORIENTED_EDGE('',*,*,#78,.T.);
#153 = ORIENTED_EDGE('',*,*,#31,.T.);
#154 = ORIENTED_EDGE('',*,*,#155,.T.);
#155 = EDGE_CURVE('',#32,#156,#158,.T.);
#156 = VERTEX_POINT('',#157);
#157 = CARTESIAN_POINT('',(125.45,-65.,13.39));
#158 = CIRCLE('',#159,0.45);
#159 = AXIS2_PLACEMENT_3D('',#160,#161,#162);
#160 = CARTESIAN_POINT('',(125.,-65.,13.39));
#161 = DIRECTION('',(0.,0.,1.));
#162 = DIRECTION('',(1.,0.,0.));
#163 = ORIENTED_EDGE('',*,*,#164,.T.);
#164 = EDGE_CURVE('',#156,#97,#165,.T.);
#165 = CIRCLE('',#166,0.45);
#166 = AXIS2_PLACEMENT_3D('',#167,#168,#169);
#167 = CARTESIAN_POINT('',(125.,-65.,13.39));
#168 = DIRECTION('',(0.,0.,1.));
#169 = DIRECTION('',(1.,0.,0.));
#170 = PLANE('',#171);
#171 = AXIS2_PLACEMENT_3D('',#172,#173,#174);
#172 = CARTESIAN_POINT('',(124.5037620974,-64.00485152387,13.39));
#173 = DIRECTION('',(0.,0.,1.));
#174 = DIRECTION('',(1.,0.,0.));
#175 = ADVANCED_FACE('',(#176),#184,.T.);
#176 = FACE_BOUND('',#177,.F.);
#177 = EDGE_LOOP('',(#178,#179,#180,#181,#182,#183));
#178 = ORIENTED_EDGE('',*,*,#94,.F.);
#179 = ORIENTED_EDGE('',*,*,#126,.F.);
#180 = ORIENTED_EDGE('',*,*,#135,.F.);
#181 = ORIENTED_EDGE('',*,*,#39,.T.);
#182 = ORIENTED_EDGE('',*,*,#155,.T.);
#183 = ORIENTED_EDGE('',*,*,#164,.T.);
#184 = CYLINDRICAL_SURFACE('',#185,0.45);
#185 = AXIS2_PLACEMENT_3D('',#186,#187,#188);
#186 = CARTESIAN_POINT('',(125.,-65.,12.99));
#187 = DIRECTION('',(-0.,-0.,-1.));
#188 = DIRECTION('',(1.,0.,0.));
#189 = MANIFOLD_SOLID_BREP('',#190);
#190 = CLOSED_SHELL('',(#191,#231,#264,#295,#322,#349));
#191 = ADVANCED_FACE('',(#192),#226,.F.);
#192 = FACE_BOUND('',#193,.F.);
#193 = EDGE_LOOP('',(#194,#204,#212,#220));
#194 = ORIENTED_EDGE('',*,*,#195,.T.);
#195 = EDGE_CURVE('',#196,#198,#200,.T.);
#196 = VERTEX_POINT('',#197);
#197 = CARTESIAN_POINT('',(126.09750776405,-63.20124611797,12.99));
#198 = VERTEX_POINT('',#199);
#199 = CARTESIAN_POINT('',(126.09750776405,-63.20124611797,13.39));
#200 = LINE('',#201,#202);
#201 = CARTESIAN_POINT('',(126.09750776405,-63.20124611797,12.99));
#202 = VECTOR('',#203,1.);
#203 = DIRECTION('',(0.,0.,1.));
#204 = ORIENTED_EDGE('',*,*,#205,.T.);
#205 = EDGE_CURVE('',#198,#206,#208,.T.);
#206 = VERTEX_POINT('',#207);
#207 = CARTESIAN_POINT('',(127.09750776405,-65.20124611797,13.39));
#208 = LINE('',#209,#210);
#209 = CARTESIAN_POINT('',(126.09750776405,-63.20124611797,13.39));
#210 = VECTOR('',#211,1.);
#211 = DIRECTION('',(0.4472135955,-0.894427191,0.));
#212 = ORIENTED_EDGE('',*,*,#213,.F.);
#213 = EDGE_CURVE('',#214,#206,#216,.T.);
#214 = VERTEX_POINT('',#215);
#215 = CARTESIAN_POINT('',(127.09750776405,-65.20124611797,12.99));
#216 = LINE('',#217,#218);
#217 = CARTESIAN_POINT('',(127.09750776405,-65.20124611797,12.99));
#218 = VECTOR('',#219,1.);
#219 = DIRECTION('',(0.,0.,1.));
#220 = ORIENTED_EDGE('',*,*,#221,.F.);
#221 = EDGE_CURVE('',#196,#214,#222,.T.);
#222 = LINE('',#223,#224);
#223 = CARTESIAN_POINT('',(126.09750776405,-63.20124611797,12.99));
#224 = VECTOR('',#225,1.);
#225 = DIRECTION('',(0.4472135955,-0.894427191,0.));
#226 = PLANE('',#227);
#227 = AXIS2_PLACEMENT_3D('',#228,#229,#230);
#228 = CARTESIAN_POINT('',(126.09750776405,-63.20124611797,12.99));
#229 = DIRECTION('',(0.894427191,0.4472135955,0.));
#230 = DIRECTION('',(0.4472135955,-0.894427191,0.));
#231 = ADVANCED_FACE('',(#232),#259,.T.);
#232 = FACE_BOUND('',#233,.F.);
#233 = EDGE_LOOP('',(#234,#243,#251,#258));
#234 = ORIENTED_EDGE('',*,*,#235,.F.);
#235 = EDGE_CURVE('',#236,#196,#238,.T.);
#236 = VERTEX_POINT('',#237);
#237 = CARTESIAN_POINT('',(126.90249223595,-62.79875388202,12.99));
#238 = CIRCLE('',#239,0.45);
#239 = AXIS2_PLACEMENT_3D('',#240,#241,#242);
#240 = CARTESIAN_POINT('',(126.5,-63.,12.99));
#241 = DIRECTION('',(0.,0.,1.));
#242 = DIRECTION('',(1.,0.,0.));
#243 = ORIENTED_EDGE('',*,*,#244,.T.);
#244 = EDGE_CURVE('',#236,#245,#247,.T.);
#245 = VERTEX_POINT('',#246);
#246 = CARTESIAN_POINT('',(126.90249223595,-62.79875388202,13.39));
#247 = LINE('',#248,#249);
#248 = CARTESIAN_POINT('',(126.90249223595,-62.79875388202,12.99));
#249 = VECTOR('',#250,1.);
#250 = DIRECTION('',(0.,0.,1.));
#251 = ORIENTED_EDGE('',*,*,#252,.T.);
#252 = EDGE_CURVE('',#245,#198,#253,.T.);
#253 = CIRCLE('',#254,0.45);
#254 = AXIS2_PLACEMENT_3D('',#255,#256,#257);
#255 = CARTESIAN_POINT('',(126.5,-63.,13.39));
#256 = DIRECTION('',(0.,0.,1.));
#257 = DIRECTION('',(1.,0.,0.));
#258 = ORIENTED_EDGE('',*,*,#195,.F.);
#259 = CYLINDRICAL_SURFACE('',#260,0.45);
#260 = AXIS2_PLACEMENT_3D('',#261,#262,#263);
#261 = CARTESIAN_POINT('',(126.5,-63.,12.99));
#262 = DIRECTION('',(-0.,-0.,-1.));
#263 = DIRECTION('',(1.,0.,0.));
#264 = ADVANCED_FACE('',(#265),#290,.F.);
#265 = FACE_BOUND('',#266,.F.);
#266 = EDGE_LOOP('',(#267,#277,#283,#284));
#267 = ORIENTED_EDGE('',*,*,#268,.T.);
#268 = EDGE_CURVE('',#269,#271,#273,.T.);
#269 = VERTEX_POINT('',#270);
#270 = CARTESIAN_POINT('',(127.90249223595,-64.79875388202,12.99));
#271 = VERTEX_POINT('',#272);
#272 = CARTESIAN_POINT('',(127.90249223595,-64.79875388202,13.39));
#273 = LINE('',#274,#275);
#274 = CARTESIAN_POINT('',(127.90249223595,-64.79875388202,12.99));
#275 = VECTOR('',#276,1.);
#276 = DIRECTION('',(0.,0.,1.));
#277 = ORIENTED_EDGE('',*,*,#278,.T.);
#278 = EDGE_CURVE('',#271,#245,#279,.T.);
#279 = LINE('',#280,#281);
#280 = CARTESIAN_POINT('',(127.90249223595,-64.79875388202,13.39));
#281 = VECTOR('',#282,1.);
#282 = DIRECTION('',(-0.4472135955,0.894427191,0.));
#283 = ORIENTED_EDGE('',*,*,#244,.F.);
#284 = ORIENTED_EDGE('',*,*,#285,.F.);
#285 = EDGE_CURVE('',#269,#236,#286,.T.);
#286 = LINE('',#287,#288);
#287 = CARTESIAN_POINT('',(127.90249223595,-64.79875388202,12.99));
#288 = VECTOR('',#289,1.);
#289 = DIRECTION('',(-0.4472135955,0.894427191,0.));
#290 = PLANE('',#291);
#291 = AXIS2_PLACEMENT_3D('',#292,#293,#294);
#292 = CARTESIAN_POINT('',(127.90249223595,-64.79875388202,12.99));
#293 = DIRECTION('',(-0.894427191,-0.4472135955,0.));
#294 = DIRECTION('',(-0.4472135955,0.894427191,0.));
#295 = ADVANCED_FACE('',(#296),#317,.T.);
#296 = FACE_BOUND('',#297,.T.);
#297 = EDGE_LOOP('',(#298,#299,#308,#315,#316));
#298 = ORIENTED_EDGE('',*,*,#285,.F.);
#299 = ORIENTED_EDGE('',*,*,#300,.F.);
#300 = EDGE_CURVE('',#301,#269,#303,.T.);
#301 = VERTEX_POINT('',#302);
#302 = CARTESIAN_POINT('',(127.95,-65.,12.99));
#303 = CIRCLE('',#304,0.45);
#304 = AXIS2_PLACEMENT_3D('',#305,#306,#307);
#305 = CARTESIAN_POINT('',(127.5,-65.,12.99));
#306 = DIRECTION('',(0.,0.,1.));
#307 = DIRECTION('',(1.,0.,0.));
#308 = ORIENTED_EDGE('',*,*,#309,.F.);
#309 = EDGE_CURVE('',#214,#301,#310,.T.);
#310 = CIRCLE('',#311,0.45);
#311 = AXIS2_PLACEMENT_3D('',#312,#313,#314);
#312 = CARTESIAN_POINT('',(127.5,-65.,12.99));
#313 = DIRECTION('',(0.,0.,1.));
#314 = DIRECTION('',(1.,0.,0.));
#315 = ORIENTED_EDGE('',*,*,#221,.F.);
#316 = ORIENTED_EDGE('',*,*,#235,.F.);
#317 = PLANE('',#318);
#318 = AXIS2_PLACEMENT_3D('',#319,#320,#321);
#319 = CARTESIAN_POINT('',(127.0037620974,-64.00485152387,12.99));
#320 = DIRECTION('',(-0.,-0.,-1.));
#321 = DIRECTION('',(-1.,0.,0.));
#322 = ADVANCED_FACE('',(#323),#344,.T.);
#323 = FACE_BOUND('',#324,.T.);
#324 = EDGE_LOOP('',(#325,#326,#327,#328,#337));
#325 = ORIENTED_EDGE('',*,*,#278,.T.);
#326 = ORIENTED_EDGE('',*,*,#252,.T.);
#327 = ORIENTED_EDGE('',*,*,#205,.T.);
#328 = ORIENTED_EDGE('',*,*,#329,.T.);
#329 = EDGE_CURVE('',#206,#330,#332,.T.);
#330 = VERTEX_POINT('',#331);
#331 = CARTESIAN_POINT('',(127.95,-65.,13.39));
#332 = CIRCLE('',#333,0.45);
#333 = AXIS2_PLACEMENT_3D('',#334,#335,#336);
#334 = CARTESIAN_POINT('',(127.5,-65.,13.39));
#335 = DIRECTION('',(0.,0.,1.));
#336 = DIRECTION('',(1.,0.,0.));
#337 = ORIENTED_EDGE('',*,*,#338,.T.);
#338 = EDGE_CURVE('',#330,#271,#339,.T.);
#339 = CIRCLE('',#340,0.45);
#340 = AXIS2_PLACEMENT_3D('',#341,#342,#343);
#341 = CARTESIAN_POINT('',(127.5,-65.,13.39));
#342 = DIRECTION('',(0.,0.,1.));
#343 = DIRECTION('',(1.,0.,0.));
#344 = PLANE('',#345);
#345 = AXIS2_PLACEMENT_3D('',#346,#347,#348);
#346 = CARTESIAN_POINT('',(127.0037620974,-64.00485152387,13.39));
#347 = DIRECTION('',(0.,0.,1.));
#348 = DIRECTION('',(1.,0.,0.));
#349 = ADVANCED_FACE('',(#350),#358,.T.);
#350 = FACE_BOUND('',#351,.F.);
#351 = EDGE_LOOP('',(#352,#353,#354,#355,#356,#357));
#352 = ORIENTED_EDGE('',*,*,#268,.F.);
#353 = ORIENTED_EDGE('',*,*,#300,.F.);
#354 = ORIENTED_EDGE('',*,*,#309,.F.);
#355 = ORIENTED_EDGE('',*,*,#213,.T.);
#356 = ORIENTED_EDGE('',*,*,#329,.T.);
#357 = ORIENTED_EDGE('',*,*,#338,.T.);
#358 = CYLINDRICAL_SURFACE('',#359,0.45);
#359 = AXIS2_PLACEMENT_3D('',#360,#361,#362);
#360 = CARTESIAN_POINT('',(127.5,-65.,12.99));
#361 = DIRECTION('',(-0.,-0.,-1.));
#362 = DIRECTION('',(1.,0.,0.));
#363 = MANIFOLD_SOLID_BREP('',#364);
#364 = CLOSED_SHELL('',(#365,#405,#438,#469,#496,#523));
#365 = ADVANCED_FACE('',(#366),#400,.F.);
#366 = FACE_BOUND('',#367,.F.);
#367 = EDGE_LOOP('',(#368,#378,#386,#394));
#368 = ORIENTED_EDGE('',*,*,#369,.T.);
#369 = EDGE_CURVE('',#370,#372,#374,.T.);
#370 = VERTEX_POINT('',#371);
#371 = CARTESIAN_POINT('',(128.59750776405,-63.20124611797,12.99));
#372 = VERTEX_POINT('',#373);
#373 = CARTESIAN_POINT('',(128.59750776405,-63.20124611797,13.39));
#374 = LINE('',#375,#376);
#375 = CARTESIAN_POINT('',(128.59750776405,-63.20124611797,12.99));
#376 = VECTOR('',#377,1.);
#377 = DIRECTION('',(0.,0.,1.));
#378 = ORIENTED_EDGE('',*,*,#379,.T.);
#379 = EDGE_CURVE('',#372,#380,#382,.T.);
#380 = VERTEX_POINT('',#381);
#381 = CARTESIAN_POINT('',(129.59750776405,-65.20124611797,13.39));
#382 = LINE('',#383,#384);
#383 = CARTESIAN_POINT('',(128.59750776405,-63.20124611797,13.39));
#384 = VECTOR('',#385,1.);
#385 = DIRECTION('',(0.4472135955,-0.894427191,0.));
#386 = ORIENTED_EDGE('',*,*,#387,.F.);
#387 = EDGE_CURVE('',#388,#380,#390,.T.);
#388 = VERTEX_POINT('',#389);
#389 = CARTESIAN_POINT('',(129.59750776405,-65.20124611797,12.99));
#390 = LINE('',#391,#392);
#391 = CARTESIAN_POINT('',(129.59750776405,-65.20124611797,12.99));
#392 = VECTOR('',#393,1.);
#393 = DIRECTION('',(0.,0.,1.));
#394 = ORIENTED_EDGE('',*,*,#395,.F.);
#395 = EDGE_CURVE('',#370,#388,#396,.T.);
#396 = LINE('',#397,#398);
#397 = CARTESIAN_POINT('',(128.59750776405,-63.20124611797,12.99));
#398 = VECTOR('',#399,1.);
#399 = DIRECTION('',(0.4472135955,-0.894427191,0.));
#400 = PLANE('',#401);
#401 = AXIS2_PLACEMENT_3D('',#402,#403,#404);
#402 = CARTESIAN_POINT('',(128.59750776405,-63.20124611797,12.99));
#403 = DIRECTION('',(0.894427191,0.4472135955,0.));
#404 = DIRECTION('',(0.4472135955,-0.894427191,0.));
#405 = ADVANCED_FACE('',(#406),#433,.T.);
#406 = FACE_BOUND('',#407,.F.);
#407 = EDGE_LOOP('',(#408,#417,#425,#432));
#408 = ORIENTED_EDGE('',*,*,#409,.F.);
#409 = EDGE_CURVE('',#410,#370,#412,.T.);
#410 = VERTEX_POINT('',#411);
#411 = CARTESIAN_POINT('',(129.40249223595,-62.79875388202,12.99));
#412 = CIRCLE('',#413,0.45);
#413 = AXIS2_PLACEMENT_3D('',#414,#415,#416);
#414 = CARTESIAN_POINT('',(129.,-63.,12.99));
#415 = DIRECTION('',(0.,0.,1.));
#416 = DIRECTION('',(1.,0.,0.));
#417 = ORIENTED_EDGE('',*,*,#418,.T.);
#418 = EDGE_CURVE('',#410,#419,#421,.T.);
#419 = VERTEX_POINT('',#420);
#420 = CARTESIAN_POINT('',(129.40249223595,-62.79875388202,13.39));
#421 = LINE('',#422,#423);
#422 = CARTESIAN_POINT('',(129.40249223595,-62.79875388202,12.99));
#423 = VECTOR('',#424,1.);
#424 = DIRECTION('',(0.,0.,1.));
#425 = ORIENTED_EDGE('',*,*,#426,.T.);
#426 = EDGE_CURVE('',#419,#372,#427,.T.);
#427 = CIRCLE('',#428,0.45);
#428 = AXIS2_PLACEMENT_3D('',#429,#430,#431);
#429 = CARTESIAN_POINT('',(129.,-63.,13.39));
#430 = DIRECTION('',(0.,0.,1.));
#431 = DIRECTION('',(1.,0.,0.));
#432 = ORIENTED_EDGE('',*,*,#369,.F.);
#433 = CYLINDRICAL_SURFACE('',#434,0.45);
#434 = AXIS2_PLACEMENT_3D('',#435,#436,#437);
#435 = CARTESIAN_POINT('',(129.,-63.,12.99));
#436 = DIRECTION('',(-0.,-0.,-1.));
#437 = DIRECTION('',(1.,0.,0.));
#438 = ADVANCED_FACE('',(#439),#464,.F.);
#439 = FACE_BOUND('',#440,.F.);
#440 = EDGE_LOOP('',(#441,#451,#457,#458));
#441 = ORIENTED_EDGE('',*,*,#442,.T.);
#442 = EDGE_CURVE('',#443,#445,#447,.T.);
#443 = VERTEX_POINT('',#444);
#444 = CARTESIAN_POINT('',(130.40249223595,-64.79875388202,12.99));
#445 = VERTEX_POINT('',#446);
#446 = CARTESIAN_POINT('',(130.40249223595,-64.79875388202,13.39));
#447 = LINE('',#448,#449);
#448 = CARTESIAN_POINT('',(130.40249223595,-64.79875388202,12.99));
#449 = VECTOR('',#450,1.);
#450 = DIRECTION('',(0.,0.,1.));
#451 = ORIENTED_EDGE('',*,*,#452,.T.);
#452 = EDGE_CURVE('',#445,#419,#453,.T.);
#453 = LINE('',#454,#455);
#454 = CARTESIAN_POINT('',(130.40249223595,-64.79875388202,13.39));
#455 = VECTOR('',#456,1.);
#456 = DIRECTION('',(-0.4472135955,0.894427191,0.));
#457 = ORIENTED_EDGE('',*,*,#418,.F.);
#458 = ORIENTED_EDGE('',*,*,#459,.F.);
#459 = EDGE_CURVE('',#443,#410,#460,.T.);
#460 = LINE('',#461,#462);
#461 = CARTESIAN_POINT('',(130.40249223595,-64.79875388202,12.99));
#462 = VECTOR('',#463,1.);
#463 = DIRECTION('',(-0.4472135955,0.894427191,0.));
#464 = PLANE('',#465);
#465 = AXIS2_PLACEMENT_3D('',#466,#467,#468);
#466 = CARTESIAN_POINT('',(130.40249223595,-64.79875388202,12.99));
#467 = DIRECTION('',(-0.894427191,-0.4472135955,0.));
#468 = DIRECTION('',(-0.4472135955,0.894427191,0.));
#469 = ADVANCED_FACE('',(#470),#491,.T.);
#470 = FACE_BOUND('',#471,.T.);
#471 = EDGE_LOOP('',(#472,#473,#482,#489,#490));
#472 = ORIENTED_EDGE('',*,*,#459,.F.);
#473 = ORIENTED_EDGE('',*,*,#474,.F.);
#474 = EDGE_CURVE('',#475,#443,#477,.T.);
#475 = VERTEX_POINT('',#476);
#476 = CARTESIAN_POINT('',(130.45,-65.,12.99));
#477 = CIRCLE('',#478,0.45);
#478 = AXIS2_PLACEMENT_3D('',#479,#480,#481);
#479 = CARTESIAN_POINT('',(130.,-65.,12.99));
#480 = DIRECTION('',(0.,0.,1.));
#481 = DIRECTION('',(1.,0.,0.));
#482 = ORIENTED_EDGE('',*,*,#483,.F.);
#483 = EDGE_CURVE('',#388,#475,#484,.T.);
#484 = CIRCLE('',#485,0.45);
#485 = AXIS2_PLACEMENT_3D('',#486,#487,#488);
#486 = CARTESIAN_POINT('',(130.,-65.,12.99));
#487 = DIRECTION('',(0.,0.,1.));
#488 = DIRECTION('',(1.,0.,0.));
#489 = ORIENTED_EDGE('',*,*,#395,.F.);
#490 = ORIENTED_EDGE('',*,*,#409,.F.);
#491 = PLANE('',#492);
#492 = AXIS2_PLACEMENT_3D('',#493,#494,#495);
#493 = CARTESIAN_POINT('',(129.5037620974,-64.00485152387,12.99));
#494 = DIRECTION('',(-0.,-0.,-1.));
#495 = DIRECTION('',(-1.,0.,0.));
#496 = ADVANCED_FACE('',(#497),#518,.T.);
#497 = FACE_BOUND('',#498,.T.);
#498 = EDGE_LOOP('',(#499,#500,#501,#502,#511));
#499 = ORIENTED_EDGE('',*,*,#452,.T.);
#500 = ORIENTED_EDGE('',*,*,#426,.T.);
#501 = ORIENTED_EDGE('',*,*,#379,.T.);
#502 = ORIENTED_EDGE('',*,*,#503,.T.);
#503 = EDGE_CURVE('',#380,#504,#506,.T.);
#504 = VERTEX_POINT('',#505);
#505 = CARTESIAN_POINT('',(130.45,-65.,13.39));
#506 = CIRCLE('',#507,0.45);
#507 = AXIS2_PLACEMENT_3D('',#508,#509,#510);
#508 = CARTESIAN_POINT('',(130.,-65.,13.39));
#509 = DIRECTION('',(0.,0.,1.));
#510 = DIRECTION('',(1.,0.,0.));
#511 = ORIENTED_EDGE('',*,*,#512,.T.);
#512 = EDGE_CURVE('',#504,#445,#513,.T.);
#513 = CIRCLE('',#514,0.45);
#514 = AXIS2_PLACEMENT_3D('',#515,#516,#517);
#515 = CARTESIAN_POINT('',(130.,-65.,13.39));
#516 = DIRECTION('',(0.,0.,1.));
#517 = DIRECTION('',(1.,0.,0.));
#518 = PLANE('',#519);
#519 = AXIS2_PLACEMENT_3D('',#520,#521,#522);
#520 = CARTESIAN_POINT('',(129.5037620974,-64.00485152387,13.39));
#521 = DIRECTION('',(0.,0.,1.));
#522 = DIRECTION('',(1.,0.,0.));
#523 = ADVANCED_FACE('',(#524),#532,.T.);
#524 = FACE_BOUND('',#525,.F.);
#525 = EDGE_LOOP('',(#526,#527,#528,#529,#530,#531));
#526 = ORIENTED_EDGE('',*,*,#442,.F.);
#527 = ORIENTED_EDGE('',*,*,#474,.F.);
#528 = ORIENTED_EDGE('',*,*,#483,.F.);
#529 = ORIENTED_EDGE('',*,*,#387,.T.);
#530 = ORIENTED_EDGE('',*,*,#503,.T.);
#531 = ORIENTED_EDGE('',*,*,#512,.T.);
#532 = CYLINDRICAL_SURFACE('',#533,0.45);
#533 = AXIS2_PLACEMENT_3D('',#534,#535,#536);
#534 = CARTESIAN_POINT('',(130.,-65.,12.99));
#535 = DIRECTION('',(-0.,-0.,-1.));
#536 = DIRECTION('',(1.,0.,0.));
#537 = MANIFOLD_SOLID_BREP('',#538);
#538 = CLOSED_SHELL('',(#539,#579,#612,#643,#670,#697));
#539 = ADVANCED_FACE('',(#540),#574,.F.);
#540 = FACE_BOUND('',#541,.F.);
#541 = EDGE_LOOP('',(#542,#552,#560,#568));
#542 = ORIENTED_EDGE('',*,*,#543,.T.);
#543 = EDGE_CURVE('',#544,#546,#548,.T.);
#544 = VERTEX_POINT('',#545);
#545 = CARTESIAN_POINT('',(131.09750776405,-63.20124611797,12.99));
#546 = VERTEX_POINT('',#547);
#547 = CARTESIAN_POINT('',(131.09750776405,-63.20124611797,13.39));
#548 = LINE('',#549,#550);
#549 = CARTESIAN_POINT('',(131.09750776405,-63.20124611797,12.99));
#550 = VECTOR('',#551,1.);
#551 = DIRECTION('',(0.,0.,1.));
#552 = ORIENTED_EDGE('',*,*,#553,.T.);
#553 = EDGE_CURVE('',#546,#554,#556,.T.);
#554 = VERTEX_POINT('',#555);
#555 = CARTESIAN_POINT('',(132.09750776405,-65.20124611797,13.39));
#556 = LINE('',#557,#558);
#557 = CARTESIAN_POINT('',(131.09750776405,-63.20124611797,13.39));
#558 = VECTOR('',#559,1.);
#559 = DIRECTION('',(0.4472135955,-0.894427191,0.));
#560 = ORIENTED_EDGE('',*,*,#561,.F.);
#561 = EDGE_CURVE('',#562,#554,#564,.T.);
#562 = VERTEX_POINT('',#563);
#563 = CARTESIAN_POINT('',(132.09750776405,-65.20124611797,12.99));
#564 = LINE('',#565,#566);
#565 = CARTESIAN_POINT('',(132.09750776405,-65.20124611797,12.99));
#566 = VECTOR('',#567,1.);
#567 = DIRECTION('',(0.,0.,1.));
#568 = ORIENTED_EDGE('',*,*,#569,.F.);
#569 = EDGE_CURVE('',#544,#562,#570,.T.);
#570 = LINE('',#571,#572);
#571 = CARTESIAN_POINT('',(131.09750776405,-63.20124611797,12.99));
#572 = VECTOR('',#573,1.);
#573 = DIRECTION('',(0.4472135955,-0.894427191,0.));
#574 = PLANE('',#575);
#575 = AXIS2_PLACEMENT_3D('',#576,#577,#578);
#576 = CARTESIAN_POINT('',(131.09750776405,-63.20124611797,12.99));
#577 = DIRECTION('',(0.894427191,0.4472135955,0.));
#578 = DIRECTION('',(0.4472135955,-0.894427191,0.));
#579 = ADVANCED_FACE('',(#580),#607,.T.);
#580 = FACE_BOUND('',#581,.F.);
#581 = EDGE_LOOP('',(#582,#591,#599,#606));
#582 = ORIENTED_EDGE('',*,*,#583,.F.);
#583 = EDGE_CURVE('',#584,#544,#586,.T.);
#584 = VERTEX_POINT('',#585);
#585 = CARTESIAN_POINT('',(131.90249223595,-62.79875388202,12.99));
#586 = CIRCLE('',#587,0.45);
#587 = AXIS2_PLACEMENT_3D('',#588,#589,#590);
#588 = CARTESIAN_POINT('',(131.5,-63.,12.99));
#589 = DIRECTION('',(0.,0.,1.));
#590 = DIRECTION('',(1.,0.,0.));
#591 = ORIENTED_EDGE('',*,*,#592,.T.);
#592 = EDGE_CURVE('',#584,#593,#595,.T.);
#593 = VERTEX_POINT('',#594);
#594 = CARTESIAN_POINT('',(131.90249223595,-62.79875388202,13.39));
#595 = LINE('',#596,#597);
#596 = CARTESIAN_POINT('',(131.90249223595,-62.79875388202,12.99));
#597 = VECTOR('',#598,1.);
#598 = DIRECTION('',(0.,0.,1.));
#599 = ORIENTED_EDGE('',*,*,#600,.T.);
#600 = EDGE_CURVE('',#593,#546,#601,.T.);
#601 = CIRCLE('',#602,0.45);
#602 = AXIS2_PLACEMENT_3D('',#603,#604,#605);
#603 = CARTESIAN_POINT('',(131.5,-63.,13.39));
#604 = DIRECTION('',(0.,0.,1.));
#605 = DIRECTION('',(1.,0.,0.));
#606 = ORIENTED_EDGE('',*,*,#543,.F.);
#607 = CYLINDRICAL_SURFACE('',#608,0.45);
#608 = AXIS2_PLACEMENT_3D('',#609,#610,#611);
#609 = CARTESIAN_POINT('',(131.5,-63.,12.99));
#610 = DIRECTION('',(-0.,-0.,-1.));
#611 = DIRECTION('',(1.,0.,0.));
#612 = ADVANCED_FACE('',(#613),#638,.F.);
#613 = FACE_BOUND('',#614,.F.);
#614 = EDGE_LOOP('',(#615,#625,#631,#632));
#615 = ORIENTED_EDGE('',*,*,#616,.T.);
#616 = EDGE_CURVE('',#617,#619,#621,.T.);
#617 = VERTEX_POINT('',#618);
#618 = CARTESIAN_POINT('',(132.90249223595,-64.79875388202,12.99));
#619 = VERTEX_POINT('',#620);
#620 = CARTESIAN_POINT('',(132.90249223595,-64.79875388202,13.39));
#621 = LINE('',#622,#623);
#622 = CARTESIAN_POINT('',(132.90249223595,-64.79875388202,12.99));
#623 = VECTOR('',#624,1.);
#624 = DIRECTION('',(0.,0.,1.));
#625 = ORIENTED_EDGE('',*,*,#626,.T.);
#626 = EDGE_CURVE('',#619,#593,#627,.T.);
#627 = LINE('',#628,#629);
#628 = CARTESIAN_POINT('',(132.90249223595,-64.79875388202,13.39));
#629 = VECTOR('',#630,1.);
#630 = DIRECTION('',(-0.4472135955,0.894427191,0.));
#631 = ORIENTED_EDGE('',*,*,#592,.F.);
#632 = ORIENTED_EDGE('',*,*,#633,.F.);
#633 = EDGE_CURVE('',#617,#584,#634,.T.);
#634 = LINE('',#635,#636);
#635 = CARTESIAN_POINT('',(132.90249223595,-64.79875388202,12.99));
#636 = VECTOR('',#637,1.);
#637 = DIRECTION('',(-0.4472135955,0.894427191,0.));
#638 = PLANE('',#639);
#639 = AXIS2_PLACEMENT_3D('',#640,#641,#642);
#640 = CARTESIAN_POINT('',(132.90249223595,-64.79875388202,12.99));
#641 = DIRECTION('',(-0.894427191,-0.4472135955,0.));
#642 = DIRECTION('',(-0.4472135955,0.894427191,0.));
#643 = ADVANCED_FACE('',(#644),#665,.T.);
#644 = FACE_BOUND('',#645,.T.);
#645 = EDGE_LOOP('',(#646,#647,#656,#663,#664));
#646 = ORIENTED_EDGE('',*,*,#633,.F.);
#647 = ORIENTED_EDGE('',*,*,#648,.F.);
#648 = EDGE_CURVE('',#649,#617,#651,.T.);
#649 = VERTEX_POINT('',#650);
#650 = CARTESIAN_POINT('',(132.95,-65.,12.99));
#651 = CIRCLE('',#652,0.45);
#652 = AXIS2_PLACEMENT_3D('',#653,#654,#655);
#653 = CARTESIAN_POINT('',(132.5,-65.,12.99));
#654 = DIRECTION('',(0.,0.,1.));
#655 = DIRECTION('',(1.,0.,0.));
#656 = ORIENTED_EDGE('',*,*,#657,.F.);
#657 = EDGE_CURVE('',#562,#649,#658,.T.);
#658 = CIRCLE('',#659,0.45);
#659 = AXIS2_PLACEMENT_3D('',#660,#661,#662);
#660 = CARTESIAN_POINT('',(132.5,-65.,12.99));
#661 = DIRECTION('',(0.,0.,1.));
#662 = DIRECTION('',(1.,0.,0.));
#663 = ORIENTED_EDGE('',*,*,#569,.F.);
#664 = ORIENTED_EDGE('',*,*,#583,.F.);
#665 = PLANE('',#666);
#666 = AXIS2_PLACEMENT_3D('',#667,#668,#669);
#667 = CARTESIAN_POINT('',(132.0037620974,-64.00485152387,12.99));
#668 = DIRECTION('',(-0.,-0.,-1.));
#669 = DIRECTION('',(-1.,0.,0.));
#670 = ADVANCED_FACE('',(#671),#692,.T.);
#671 = FACE_BOUND('',#672,.T.);
#672 = EDGE_LOOP('',(#673,#674,#675,#676,#685));
#673 = ORIENTED_EDGE('',*,*,#626,.T.);
#674 = ORIENTED_EDGE('',*,*,#600,.T.);
#675 = ORIENTED_EDGE('',*,*,#553,.T.);
#676 = ORIENTED_EDGE('',*,*,#677,.T.);
#677 = EDGE_CURVE('',#554,#678,#680,.T.);
#678 = VERTEX_POINT('',#679);
#679 = CARTESIAN_POINT('',(132.95,-65.,13.39));
#680 = CIRCLE('',#681,0.45);
#681 = AXIS2_PLACEMENT_3D('',#682,#683,#684);
#682 = CARTESIAN_POINT('',(132.5,-65.,13.39));
#683 = DIRECTION('',(0.,0.,1.));
#684 = DIRECTION('',(1.,0.,0.));
#685 = ORIENTED_EDGE('',*,*,#686,.T.);
#686 = EDGE_CURVE('',#678,#619,#687,.T.);
#687 = CIRCLE('',#688,0.45);
#688 = AXIS2_PLACEMENT_3D('',#689,#690,#691);
#689 = CARTESIAN_POINT('',(132.5,-65.,13.39));
#690 = DIRECTION('',(0.,0.,1.));
#691 = DIRECTION('',(1.,0.,0.));
#692 = PLANE('',#693);
#693 = AXIS2_PLACEMENT_3D('',#694,#695,#696);
#694 = CARTESIAN_POINT('',(132.0037620974,-64.00485152387,13.39));
#695 = DIRECTION('',(0.,0.,1.));
#696 = DIRECTION('',(1.,0.,0.));
#697 = ADVANCED_FACE('',(#698),#706,.T.);
#698 = FACE_BOUND('',#699,.F.);
#699 = EDGE_LOOP('',(#700,#701,#702,#703,#704,#705));
#700 = ORIENTED_EDGE('',*,*,#616,.F.);
#701 = ORIENTED_EDGE('',*,*,#648,.F.);
#702 = ORIENTED_EDGE('',*,*,#657,.F.);
#703 = ORIENTED_EDGE('',*,*,#561,.T.);
#704 = ORIENTED_EDGE('',*,*,#677,.T.);
#705 = ORIENTED_EDGE('',*,*,#686,.T.);
#706 = CYLINDRICAL_SURFACE('',#707,0.45);
#707 = AXIS2_PLACEMENT_3D('',#708,#709,#710);
#708 = CARTESIAN_POINT('',(132.5,-65.,12.99));
#709 = DIRECTION('',(-0.,-0.,-1.));
#710 = DIRECTION('',(1.,0.,0.));
#711 = MANIFOLD_SOLID_BREP('',#712);
#712 = CLOSED_SHELL('',(#713,#753,#804,#835,#877,#891));
#713 = ADVANCED_FACE('',(#714),#748,.T.);
#714 = FACE_BOUND('',#715,.T.);
#715 = EDGE_LOOP('',(#716,#726,#734,#742));
#716 = ORIENTED_EDGE('',*,*,#717,.T.);
#717 = EDGE_CURVE('',#718,#720,#722,.T.);
#718 = VERTEX_POINT('',#719);
#719 = CARTESIAN_POINT('',(114.7,-63.4,12.99));
#720 = VERTEX_POINT('',#721);
#721 = CARTESIAN_POINT('',(114.7,-63.4,13.39));
#722 = LINE('',#723,#724);
#723 = CARTESIAN_POINT('',(114.7,-63.4,12.99));
#724 = VECTOR('',#725,1.);
#725 = DIRECTION('',(0.,0.,1.));
#726 = ORIENTED_EDGE('',*,*,#727,.T.);
#727 = EDGE_CURVE('',#720,#728,#730,.T.);
#728 = VERTEX_POINT('',#729);
#729 = CARTESIAN_POINT('',(118.5,-63.4,13.39));
#730 = LINE('',#731,#732);
#731 = CARTESIAN_POINT('',(114.7,-63.4,13.39));
#732 = VECTOR('',#733,1.);
#733 = DIRECTION('',(1.,0.,0.));
#734 = ORIENTED_EDGE('',*,*,#735,.F.);
#735 = EDGE_CURVE('',#736,#728,#738,.T.);
#736 = VERTEX_POINT('',#737);
#737 = CARTESIAN_POINT('',(118.5,-63.4,12.99));
#738 = LINE('',#739,#740);
#739 = CARTESIAN_POINT('',(118.5,-63.4,12.99));
#740 = VECTOR('',#741,1.);
#741 = DIRECTION('',(0.,0.,1.));
#742 = ORIENTED_EDGE('',*,*,#743,.F.);
#743 = EDGE_CURVE('',#718,#736,#744,.T.);
#744 = LINE('',#745,#746);
#745 = CARTESIAN_POINT('',(114.7,-63.4,12.99));
#746 = VECTOR('',#747,1.);
#747 = DIRECTION('',(1.,0.,0.));
#748 = PLANE('',#749);
#749 = AXIS2_PLACEMENT_3D('',#750,#751,#752);
#750 = CARTESIAN_POINT('',(114.7,-63.4,12.99));
#751 = DIRECTION('',(0.,1.,0.));
#752 = DIRECTION('',(1.,0.,0.));
#753 = ADVANCED_FACE('',(#754),#799,.F.);
#754 = FACE_BOUND('',#755,.T.);
#755 = EDGE_LOOP('',(#756,#757,#766,#775,#783,#792));
#756 = ORIENTED_EDGE('',*,*,#743,.T.);
#757 = ORIENTED_EDGE('',*,*,#758,.T.);
#758 = EDGE_CURVE('',#736,#759,#761,.T.);
#759 = VERTEX_POINT('',#760);
#760 = CARTESIAN_POINT('',(119.,-63.9,12.99));
#761 = CIRCLE('',#762,0.5);
#762 = AXIS2_PLACEMENT_3D('',#763,#764,#765);
#763 = CARTESIAN_POINT('',(118.5,-63.9,12.99));
#764 = DIRECTION('',(0.,0.,-1.));
#765 = DIRECTION('',(-2.842E-14,1.,0.));
#766 = ORIENTED_EDGE('',*,*,#767,.T.);
#767 = EDGE_CURVE('',#759,#768,#770,.T.);
#768 = VERTEX_POINT('',#769);
#769 = CARTESIAN_POINT('',(118.5,-64.4,12.99));
#770 = CIRCLE('',#771,0.5);
#771 = AXIS2_PLACEMENT_3D('',#772,#773,#774);
#772 = CARTESIAN_POINT('',(118.5,-63.9,12.99));
#773 = DIRECTION('',(0.,0.,-1.));
#774 = DIRECTION('',(1.,1.421E-14,0.));
#775 = ORIENTED_EDGE('',*,*,#776,.T.);
#776 = EDGE_CURVE('',#768,#777,#779,.T.);
#777 = VERTEX_POINT('',#778);
#778 = CARTESIAN_POINT('',(114.7,-64.4,12.99));
#779 = LINE('',#780,#781);
#780 = CARTESIAN_POINT('',(118.5,-64.4,12.99));
#781 = VECTOR('',#782,1.);
#782 = DIRECTION('',(-1.,0.,0.));
#783 = ORIENTED_EDGE('',*,*,#784,.T.);
#784 = EDGE_CURVE('',#777,#785,#787,.T.);
#785 = VERTEX_POINT('',#786);
#786 = CARTESIAN_POINT('',(114.2,-63.9,12.99));
#787 = CIRCLE('',#788,0.5);
#788 = AXIS2_PLACEMENT_3D('',#789,#790,#791);
#789 = CARTESIAN_POINT('',(114.7,-63.9,12.99));
#790 = DIRECTION('',(0.,0.,-1.));
#791 = DIRECTION('',(2.842E-14,-1.,0.));
#792 = ORIENTED_EDGE('',*,*,#793,.T.);
#793 = EDGE_CURVE('',#785,#718,#794,.T.);
#794 = CIRCLE('',#795,0.5);
#795 = AXIS2_PLACEMENT_3D('',#796,#797,#798);
#796 = CARTESIAN_POINT('',(114.7,-63.9,12.99));
#797 = DIRECTION('',(0.,0.,-1.));
#798 = DIRECTION('',(-1.,-1.421E-14,-0.));
#799 = PLANE('',#800);
#800 = AXIS2_PLACEMENT_3D('',#801,#802,#803);
#801 = CARTESIAN_POINT('',(116.6,-63.9,12.99));
#802 = DIRECTION('',(0.,0.,1.));
#803 = DIRECTION('',(1.,0.,0.));
#804 = ADVANCED_FACE('',(#805),#830,.T.);
#805 = FACE_BOUND('',#806,.T.);
#806 = EDGE_LOOP('',(#807,#815,#823,#829));
#807 = ORIENTED_EDGE('',*,*,#808,.T.);
#808 = EDGE_CURVE('',#768,#809,#811,.T.);
#809 = VERTEX_POINT('',#810);
#810 = CARTESIAN_POINT('',(118.5,-64.4,13.39));
#811 = LINE('',#812,#813);
#812 = CARTESIAN_POINT('',(118.5,-64.4,12.99));
#813 = VECTOR('',#814,1.);
#814 = DIRECTION('',(0.,0.,1.));
#815 = ORIENTED_EDGE('',*,*,#816,.T.);
#816 = EDGE_CURVE('',#809,#817,#819,.T.);
#817 = VERTEX_POINT('',#818);
#818 = CARTESIAN_POINT('',(114.7,-64.4,13.39));
#819 = LINE('',#820,#821);
#820 = CARTESIAN_POINT('',(118.5,-64.4,13.39));
#821 = VECTOR('',#822,1.);
#822 = DIRECTION('',(-1.,0.,0.));
#823 = ORIENTED_EDGE('',*,*,#824,.F.);
#824 = EDGE_CURVE('',#777,#817,#825,.T.);
#825 = LINE('',#826,#827);
#826 = CARTESIAN_POINT('',(114.7,-64.4,12.99));
#827 = VECTOR('',#828,1.);
#828 = DIRECTION('',(0.,0.,1.));
#829 = ORIENTED_EDGE('',*,*,#776,.F.);
#830 = PLANE('',#831);
#831 = AXIS2_PLACEMENT_3D('',#832,#833,#834);
#832 = CARTESIAN_POINT('',(118.5,-64.4,12.99));
#833 = DIRECTION('',(0.,-1.,0.));
#834 = DIRECTION('',(-1.,0.,0.));
#835 = ADVANCED_FACE('',(#836),#872,.T.);
#836 = FACE_BOUND('',#837,.F.);
#837 = EDGE_LOOP('',(#838,#839,#848,#855,#856,#865));
#838 = ORIENTED_EDGE('',*,*,#727,.T.);
#839 = ORIENTED_EDGE('',*,*,#840,.T.);
#840 = EDGE_CURVE('',#728,#841,#843,.T.);
#841 = VERTEX_POINT('',#842);
#842 = CARTESIAN_POINT('',(119.,-63.9,13.39));
#843 = CIRCLE('',#844,0.5);
#844 = AXIS2_PLACEMENT_3D('',#845,#846,#847);
#845 = CARTESIAN_POINT('',(118.5,-63.9,13.39));
#846 = DIRECTION('',(0.,0.,-1.));
#847 = DIRECTION('',(-2.842E-14,1.,0.));
#848 = ORIENTED_EDGE('',*,*,#849,.T.);
#849 = EDGE_CURVE('',#841,#809,#850,.T.);
#850 = CIRCLE('',#851,0.5);
#851 = AXIS2_PLACEMENT_3D('',#852,#853,#854);
#852 = CARTESIAN_POINT('',(118.5,-63.9,13.39));
#853 = DIRECTION('',(0.,0.,-1.));
#854 = DIRECTION('',(1.,1.421E-14,0.));
#855 = ORIENTED_EDGE('',*,*,#816,.T.);
#856 = ORIENTED_EDGE('',*,*,#857,.T.);
#857 = EDGE_CURVE('',#817,#858,#860,.T.);
#858 = VERTEX_POINT('',#859);
#859 = CARTESIAN_POINT('',(114.2,-63.9,13.39));
#860 = CIRCLE('',#861,0.5);
#861 = AXIS2_PLACEMENT_3D('',#862,#863,#864);
#862 = CARTESIAN_POINT('',(114.7,-63.9,13.39));
#863 = DIRECTION('',(0.,0.,-1.));
#864 = DIRECTION('',(2.842E-14,-1.,0.));
#865 = ORIENTED_EDGE('',*,*,#866,.T.);
#866 = EDGE_CURVE('',#858,#720,#867,.T.);
#867 = CIRCLE('',#868,0.5);
#868 = AXIS2_PLACEMENT_3D('',#869,#870,#871);
#869 = CARTESIAN_POINT('',(114.7,-63.9,13.39));
#870 = DIRECTION('',(0.,0.,-1.));
#871 = DIRECTION('',(-1.,-1.421E-14,-0.));
#872 = PLANE('',#873);
#873 = AXIS2_PLACEMENT_3D('',#874,#875,#876);
#874 = CARTESIAN_POINT('',(116.6,-63.9,13.39));
#875 = DIRECTION('',(0.,0.,1.));
#876 = DIRECTION('',(1.,0.,0.));
#877 = ADVANCED_FACE('',(#878),#886,.T.);
#878 = FACE_BOUND('',#879,.T.);
#879 = EDGE_LOOP('',(#880,#881,#882,#883,#884,#885));
#880 = ORIENTED_EDGE('',*,*,#849,.T.);
#881 = ORIENTED_EDGE('',*,*,#808,.F.);
#882 = ORIENTED_EDGE('',*,*,#767,.F.);
#883 = ORIENTED_EDGE('',*,*,#758,.F.);
#884 = ORIENTED_EDGE('',*,*,#735,.T.);
#885 = ORIENTED_EDGE('',*,*,#840,.T.);
#886 = CYLINDRICAL_SURFACE('',#887,0.5);
#887 = AXIS2_PLACEMENT_3D('',#888,#889,#890);
#888 = CARTESIAN_POINT('',(118.5,-63.9,12.99));
#889 = DIRECTION('',(0.,0.,-1.));
#890 = DIRECTION('',(-2.842E-14,1.,0.));
#891 = ADVANCED_FACE('',(#892),#900,.T.);
#892 = FACE_BOUND('',#893,.T.);
#893 = EDGE_LOOP('',(#894,#895,#896,#897,#898,#899));
#894 = ORIENTED_EDGE('',*,*,#866,.T.);
#895 = ORIENTED_EDGE('',*,*,#717,.F.);
#896 = ORIENTED_EDGE('',*,*,#793,.F.);
#897 = ORIENTED_EDGE('',*,*,#784,.F.);
#898 = ORIENTED_EDGE('',*,*,#824,.T.);
#899 = ORIENTED_EDGE('',*,*,#857,.T.);
#900 = CYLINDRICAL_SURFACE('',#901,0.5);
#901 = AXIS2_PLACEMENT_3D('',#902,#903,#904);
#902 = CARTESIAN_POINT('',(114.7,-63.9,12.99));
#903 = DIRECTION('',(0.,0.,-1.));
#904 = DIRECTION('',(2.842E-14,-1.,0.));
#905 = ( GEOMETRIC_REPRESENTATION_CONTEXT(3) 
GLOBAL_UNCERTAINTY_ASSIGNED_CONTEXT((#909)) GLOBAL_UNIT_ASSIGNED_CONTEXT
((#906,#907,#908)) REPRESENTATION_CONTEXT('Context #1',
  '3D Context with UNIT and UNCERTAINTY') );
#906 = ( LENGTH_UNIT() NAMED_UNIT(*) SI_UNIT(.MILLI.,.METRE.) );
#907 = ( NAMED_UNIT(*) PLANE_ANGLE_UNIT() SI_UNIT($,.RADIAN.) );
#908 = ( NAMED_UNIT(*) SI_UNIT($,.STERADIAN.) SOLID_ANGLE_UNIT() );
#909 = UNCERTAINTY_MEASURE_WITH_UNIT(LENGTH_MEASURE(1.E-07),#906,
  'distance_accuracy_value','confusion accuracy');
#910 = PRODUCT_RELATED_PRODUCT_CATEGORY('part',$,(#7));
ENDSEC;
END-ISO-10303-21;
