ISO-10303-21;
HEADER;
FILE_DESCRIPTION(('FreeCAD Model'),'2;1');
FILE_NAME('Open CASCADE Shape Model','2026-09-28T20:31:43',('FreeCAD'),(
    'FreeCAD'),'Open CASCADE STEP processor 7.8','FreeCAD','Unknown');
FILE_SCHEMA(('AUTOMOTIVE_DESIGN { 1 0 10303 214 1 1 1 1 }'));
ENDSEC;
DATA;
#1 = APPLICATION_PROTOCOL_DEFINITION('international standard',
  'automotive_design',2000,#2);
#2 = APPLICATION_CONTEXT(
  'core data for automotive mechanical design processes');
#3 = SHAPE_DEFINITION_REPRESENTATION(#4,#10);
#4 = PRODUCT_DEFINITION_SHAPE('','',#5);
#5 = PRODUCT_DEFINITION('design','',#6,#9);
#6 = PRODUCT_DEFINITION_FORMATION('','',#7);
#7 = PRODUCT('Open CASCADE STEP translator 7.8 23',
  'Open CASCADE STEP translator 7.8 23','',(#8));
#8 = PRODUCT_CONTEXT('',#2,'mechanical');
#9 = PRODUCT_DEFINITION_CONTEXT('part definition',#2,'design');
#10 = ADVANCED_BREP_SHAPE_REPRESENTATION('',(#11,#15),#922);
#11 = AXIS2_PLACEMENT_3D('',#12,#13,#14);
#12 = CARTESIAN_POINT('',(0.,0.,0.));
#13 = DIRECTION('',(0.,0.,1.));
#14 = DIRECTION('',(1.,0.,-0.));
#15 = MANIFOLD_SOLID_BREP('',#16);
#16 = CLOSED_SHELL('',(#17,#57,#90,#123,#324,#525,#542,#559,#576,#593,
    #605,#629,#649,#669,#689,#709,#726,#746,#766,#786,#808,#825,#842,
    #859,#876,#893,#910));
#17 = ADVANCED_FACE('',(#18),#52,.T.);
#18 = FACE_BOUND('',#19,.T.);
#19 = EDGE_LOOP('',(#20,#30,#38,#46));
#20 = ORIENTED_EDGE('',*,*,#21,.T.);
#21 = EDGE_CURVE('',#22,#24,#26,.T.);
#22 = VERTEX_POINT('',#23);
#23 = CARTESIAN_POINT('',(113.3,-12.2,13.19));
#24 = VERTEX_POINT('',#25);
#25 = CARTESIAN_POINT('',(113.3,-12.2,13.59));
#26 = LINE('',#27,#28);
#27 = CARTESIAN_POINT('',(113.3,-12.2,13.19));
#28 = VECTOR('',#29,1.);
#29 = DIRECTION('',(0.,0.,1.));
#30 = ORIENTED_EDGE('',*,*,#31,.T.);
#31 = EDGE_CURVE('',#24,#32,#34,.T.);
#32 = VERTEX_POINT('',#33);
#33 = CARTESIAN_POINT('',(132.7,-12.2,13.59));
#34 = LINE('',#35,#36);
#35 = CARTESIAN_POINT('',(113.3,-12.2,13.59));
#36 = VECTOR('',#37,1.);
#37 = DIRECTION('',(1.,0.,0.));
#38 = ORIENTED_EDGE('',*,*,#39,.F.);
#39 = EDGE_CURVE('',#40,#32,#42,.T.);
#40 = VERTEX_POINT('',#41);
#41 = CARTESIAN_POINT('',(132.7,-12.2,13.19));
#42 = LINE('',#43,#44);
#43 = CARTESIAN_POINT('',(132.7,-12.2,13.19));
#44 = VECTOR('',#45,1.);
#45 = DIRECTION('',(0.,0.,1.));
#46 = ORIENTED_EDGE('',*,*,#47,.F.);
#47 = EDGE_CURVE('',#22,#40,#48,.T.);
#48 = LINE('',#49,#50);
#49 = CARTESIAN_POINT('',(113.3,-12.2,13.19));
#50 = VECTOR('',#51,1.);
#51 = DIRECTION('',(1.,0.,0.));
#52 = PLANE('',#53);
#53 = AXIS2_PLACEMENT_3D('',#54,#55,#56);
#54 = CARTESIAN_POINT('',(113.3,-12.2,13.19));
#55 = DIRECTION('',(0.,1.,0.));
#56 = DIRECTION('',(1.,0.,0.));
#57 = ADVANCED_FACE('',(#58),#85,.T.);
#58 = FACE_BOUND('',#59,.T.);
#59 = EDGE_LOOP('',(#60,#70,#77,#78));
#60 = ORIENTED_EDGE('',*,*,#61,.T.);
#61 = EDGE_CURVE('',#62,#64,#66,.T.);
#62 = VERTEX_POINT('',#63);
#63 = CARTESIAN_POINT('',(112.2,-13.3,13.19));
#64 = VERTEX_POINT('',#65);
#65 = CARTESIAN_POINT('',(112.2,-13.3,13.59));
#66 = LINE('',#67,#68);
#67 = CARTESIAN_POINT('',(112.2,-13.3,13.19));
#68 = VECTOR('',#69,1.);
#69 = DIRECTION('',(0.,0.,1.));
#70 = ORIENTED_EDGE('',*,*,#71,.T.);
#71 = EDGE_CURVE('',#64,#24,#72,.T.);
#72 = CIRCLE('',#73,1.1);
#73 = AXIS2_PLACEMENT_3D('',#74,#75,#76);
#74 = CARTESIAN_POINT('',(113.3,-13.3,13.59));
#75 = DIRECTION('',(0.,0.,-1.));
#76 = DIRECTION('',(-1.,0.,0.));
#77 = ORIENTED_EDGE('',*,*,#21,.F.);
#78 = ORIENTED_EDGE('',*,*,#79,.F.);
#79 = EDGE_CURVE('',#62,#22,#80,.T.);
#80 = CIRCLE('',#81,1.1);
#81 = AXIS2_PLACEMENT_3D('',#82,#83,#84);
#82 = CARTESIAN_POINT('',(113.3,-13.3,13.19));
#83 = DIRECTION('',(0.,0.,-1.));
#84 = DIRECTION('',(-1.,0.,0.));
#85 = CYLINDRICAL_SURFACE('',#86,1.1);
#86 = AXIS2_PLACEMENT_3D('',#87,#88,#89);
#87 = CARTESIAN_POINT('',(113.3,-13.3,13.19));
#88 = DIRECTION('',(0.,0.,-1.));
#89 = DIRECTION('',(-1.,0.,0.));
#90 = ADVANCED_FACE('',(#91),#118,.T.);
#91 = FACE_BOUND('',#92,.T.);
#92 = EDGE_LOOP('',(#93,#94,#103,#111));
#93 = ORIENTED_EDGE('',*,*,#39,.T.);
#94 = ORIENTED_EDGE('',*,*,#95,.T.);
#95 = EDGE_CURVE('',#32,#96,#98,.T.);
#96 = VERTEX_POINT('',#97);
#97 = CARTESIAN_POINT('',(133.8,-13.3,13.59));
#98 = CIRCLE('',#99,1.1);
#99 = AXIS2_PLACEMENT_3D('',#100,#101,#102);
#100 = CARTESIAN_POINT('',(132.7,-13.3,13.59));
#101 = DIRECTION('',(0.,0.,-1.));
#102 = DIRECTION('',(0.,1.,0.));
#103 = ORIENTED_EDGE('',*,*,#104,.F.);
#104 = EDGE_CURVE('',#105,#96,#107,.T.);
#105 = VERTEX_POINT('',#106);
#106 = CARTESIAN_POINT('',(133.8,-13.3,13.19));
#107 = LINE('',#108,#109);
#108 = CARTESIAN_POINT('',(133.8,-13.3,13.19));
#109 = VECTOR('',#110,1.);
#110 = DIRECTION('',(0.,0.,1.));
#111 = ORIENTED_EDGE('',*,*,#112,.F.);
#112 = EDGE_CURVE('',#40,#105,#113,.T.);
#113 = CIRCLE('',#114,1.1);
#114 = AXIS2_PLACEMENT_3D('',#115,#116,#117);
#115 = CARTESIAN_POINT('',(132.7,-13.3,13.19));
#116 = DIRECTION('',(0.,0.,-1.));
#117 = DIRECTION('',(0.,1.,0.));
#118 = CYLINDRICAL_SURFACE('',#119,1.1);
#119 = AXIS2_PLACEMENT_3D('',#120,#121,#122);
#120 = CARTESIAN_POINT('',(132.7,-13.3,13.19));
#121 = DIRECTION('',(0.,0.,-1.));
#122 = DIRECTION('',(0.,1.,0.));
#123 = ADVANCED_FACE('',(#124,#169),#319,.F.);
#124 = FACE_BOUND('',#125,.F.);
#125 = EDGE_LOOP('',(#126,#127,#128,#136,#145,#153,#162,#168));
#126 = ORIENTED_EDGE('',*,*,#47,.F.);
#127 = ORIENTED_EDGE('',*,*,#79,.F.);
#128 = ORIENTED_EDGE('',*,*,#129,.F.);
#129 = EDGE_CURVE('',#130,#62,#132,.T.);
#130 = VERTEX_POINT('',#131);
#131 = CARTESIAN_POINT('',(112.2,-64.7,13.19));
#132 = LINE('',#133,#134);
#133 = CARTESIAN_POINT('',(112.2,-64.7,13.19));
#134 = VECTOR('',#135,1.);
#135 = DIRECTION('',(0.,1.,0.));
#136 = ORIENTED_EDGE('',*,*,#137,.F.);
#137 = EDGE_CURVE('',#138,#130,#140,.T.);
#138 = VERTEX_POINT('',#139);
#139 = CARTESIAN_POINT('',(113.3,-65.8,13.19));
#140 = CIRCLE('',#141,1.1);
#141 = AXIS2_PLACEMENT_3D('',#142,#143,#144);
#142 = CARTESIAN_POINT('',(113.3,-64.7,13.19));
#143 = DIRECTION('',(0.,0.,-1.));
#144 = DIRECTION('',(0.,-1.,0.));
#145 = ORIENTED_EDGE('',*,*,#146,.F.);
#146 = EDGE_CURVE('',#147,#138,#149,.T.);
#147 = VERTEX_POINT('',#148);
#148 = CARTESIAN_POINT('',(132.7,-65.8,13.19));
#149 = LINE('',#150,#151);
#150 = CARTESIAN_POINT('',(132.7,-65.8,13.19));
#151 = VECTOR('',#152,1.);
#152 = DIRECTION('',(-1.,0.,0.));
#153 = ORIENTED_EDGE('',*,*,#154,.F.);
#154 = EDGE_CURVE('',#155,#147,#157,.T.);
#155 = VERTEX_POINT('',#156);
#156 = CARTESIAN_POINT('',(133.8,-64.7,13.19));
#157 = CIRCLE('',#158,1.1);
#158 = AXIS2_PLACEMENT_3D('',#159,#160,#161);
#159 = CARTESIAN_POINT('',(132.7,-64.7,13.19));
#160 = DIRECTION('',(0.,0.,-1.));
#161 = DIRECTION('',(1.,0.,0.));
#162 = ORIENTED_EDGE('',*,*,#163,.F.);
#163 = EDGE_CURVE('',#105,#155,#164,.T.);
#164 = LINE('',#165,#166);
#165 = CARTESIAN_POINT('',(133.8,-13.3,13.19));
#166 = VECTOR('',#167,1.);
#167 = DIRECTION('',(0.,-1.,0.));
#168 = ORIENTED_EDGE('',*,*,#112,.F.);
#169 = FACE_BOUND('',#170,.F.);
#170 = EDGE_LOOP('',(#171,#181,#190,#198,#207,#215,#224,#232,#241,#250,
    #259,#268,#277,#285,#294,#303,#312));
#171 = ORIENTED_EDGE('',*,*,#172,.T.);
#172 = EDGE_CURVE('',#173,#175,#177,.T.);
#173 = VERTEX_POINT('',#174);
#174 = CARTESIAN_POINT('',(114.45,-52.57528221325,13.19));
#175 = VERTEX_POINT('',#176);
#176 = CARTESIAN_POINT('',(114.45,-14.95,13.19));
#177 = LINE('',#178,#179);
#178 = CARTESIAN_POINT('',(114.45,-52.95,13.19));
#179 = VECTOR('',#180,1.);
#180 = DIRECTION('',(0.,1.,0.));
#181 = ORIENTED_EDGE('',*,*,#182,.T.);
#182 = EDGE_CURVE('',#175,#183,#185,.T.);
#183 = VERTEX_POINT('',#184);
#184 = CARTESIAN_POINT('',(114.75,-14.65,13.19));
#185 = CIRCLE('',#186,0.3);
#186 = AXIS2_PLACEMENT_3D('',#187,#188,#189);
#187 = CARTESIAN_POINT('',(114.75,-14.95,13.19));
#188 = DIRECTION('',(0.,0.,-1.));
#189 = DIRECTION('',(-1.,-5.92E-15,-0.));
#190 = ORIENTED_EDGE('',*,*,#191,.T.);
#191 = EDGE_CURVE('',#183,#192,#194,.T.);
#192 = VERTEX_POINT('',#193);
#193 = CARTESIAN_POINT('',(130.85,-14.65,13.19));
#194 = LINE('',#195,#196);
#195 = CARTESIAN_POINT('',(114.75,-14.65,13.19));
#196 = VECTOR('',#197,1.);
#197 = DIRECTION('',(1.,0.,0.));
#198 = ORIENTED_EDGE('',*,*,#199,.T.);
#199 = EDGE_CURVE('',#192,#200,#202,.T.);
#200 = VERTEX_POINT('',#201);
#201 = CARTESIAN_POINT('',(131.15,-14.95,13.19));
#202 = CIRCLE('',#203,0.3);
#203 = AXIS2_PLACEMENT_3D('',#204,#205,#206);
#204 = CARTESIAN_POINT('',(130.85,-14.95,13.19));
#205 = DIRECTION('',(0.,0.,-1.));
#206 = DIRECTION('',(-9.474E-14,1.,0.));
#207 = ORIENTED_EDGE('',*,*,#208,.T.);
#208 = EDGE_CURVE('',#200,#209,#211,.T.);
#209 = VERTEX_POINT('',#210);
#210 = CARTESIAN_POINT('',(131.15,-52.95,13.19));
#211 = LINE('',#212,#213);
#212 = CARTESIAN_POINT('',(131.15,-14.95,13.19));
#213 = VECTOR('',#214,1.);
#214 = DIRECTION('',(0.,-1.,0.));
#215 = ORIENTED_EDGE('',*,*,#216,.T.);
#216 = EDGE_CURVE('',#209,#217,#219,.T.);
#217 = VERTEX_POINT('',#218);
#218 = CARTESIAN_POINT('',(130.85,-53.25,13.19));
#219 = CIRCLE('',#220,0.3);
#220 = AXIS2_PLACEMENT_3D('',#221,#222,#223);
#221 = CARTESIAN_POINT('',(130.85,-52.95,13.19));
#222 = DIRECTION('',(0.,0.,-1.));
#223 = DIRECTION('',(1.,4.737E-14,0.));
#224 = ORIENTED_EDGE('',*,*,#225,.T.);
#225 = EDGE_CURVE('',#217,#226,#228,.T.);
#226 = VERTEX_POINT('',#227);
#227 = CARTESIAN_POINT('',(114.75,-53.25,13.19));
#228 = LINE('',#229,#230);
#229 = CARTESIAN_POINT('',(130.85,-53.25,13.19));
#230 = VECTOR('',#231,1.);
#231 = DIRECTION('',(-1.,0.,0.));
#232 = ORIENTED_EDGE('',*,*,#233,.T.);
#233 = EDGE_CURVE('',#226,#234,#236,.T.);
#234 = VERTEX_POINT('',#235);
#235 = CARTESIAN_POINT('',(114.6767424653,-53.24091808745,13.19));
#236 = CIRCLE('',#237,0.3);
#237 = AXIS2_PLACEMENT_3D('',#238,#239,#240);
#238 = CARTESIAN_POINT('',(114.75,-52.95,13.19));
#239 = DIRECTION('',(0.,0.,-1.));
#240 = DIRECTION('',(0.,-1.,0.));
#241 = ORIENTED_EDGE('',*,*,#242,.F.);
#242 = EDGE_CURVE('',#243,#234,#245,.T.);
#243 = VERTEX_POINT('',#244);
#244 = CARTESIAN_POINT('',(117.8,-57.5,13.19));
#245 = B_SPLINE_CURVE_WITH_KNOTS('',3,(#246,#247,#248,#249),
  .UNSPECIFIED.,.F.,.F.,(4,4),(0.,1.),.PIECEWISE_BEZIER_KNOTS.);
#246 = CARTESIAN_POINT('',(117.8,-57.5,13.19));
#247 = CARTESIAN_POINT('',(113.5,-54.5,13.19));
#248 = CARTESIAN_POINT('',(113.2,-48.4,13.19));
#249 = CARTESIAN_POINT('',(112.45,-32.5,13.19));
#250 = ORIENTED_EDGE('',*,*,#251,.F.);
#251 = EDGE_CURVE('',#252,#243,#254,.T.);
#252 = VERTEX_POINT('',#253);
#253 = CARTESIAN_POINT('',(122.5,-56.5,13.19));
#254 = B_SPLINE_CURVE_WITH_KNOTS('',3,(#255,#256,#257,#258),
  .UNSPECIFIED.,.F.,.F.,(4,4),(0.,1.),.PIECEWISE_BEZIER_KNOTS.);
#255 = CARTESIAN_POINT('',(122.5,-56.5,13.19));
#256 = CARTESIAN_POINT('',(119.4,-56.5,13.19));
#257 = CARTESIAN_POINT('',(119.6,-59.5,13.19));
#258 = CARTESIAN_POINT('',(117.8,-57.5,13.19));
#259 = ORIENTED_EDGE('',*,*,#260,.F.);
#260 = EDGE_CURVE('',#261,#252,#263,.T.);
#261 = VERTEX_POINT('',#262);
#262 = CARTESIAN_POINT('',(126.7,-60.7,13.19));
#263 = B_SPLINE_CURVE_WITH_KNOTS('',3,(#264,#265,#266,#267),
  .UNSPECIFIED.,.F.,.F.,(4,4),(0.,1.),.PIECEWISE_BEZIER_KNOTS.);
#264 = CARTESIAN_POINT('',(126.7,-60.7,13.19));
#265 = CARTESIAN_POINT('',(125.6,-60.5,13.19));
#266 = CARTESIAN_POINT('',(125.9,-56.5,13.19));
#267 = CARTESIAN_POINT('',(122.5,-56.5,13.19));
#268 = ORIENTED_EDGE('',*,*,#269,.F.);
#269 = EDGE_CURVE('',#270,#261,#272,.T.);
#270 = VERTEX_POINT('',#271);
#271 = CARTESIAN_POINT('',(133.5,-55.8,13.19));
#272 = B_SPLINE_CURVE_WITH_KNOTS('',3,(#273,#274,#275,#276),
  .UNSPECIFIED.,.F.,.F.,(4,4),(0.,1.),.PIECEWISE_BEZIER_KNOTS.);
#273 = CARTESIAN_POINT('',(133.5,-55.8,13.19));
#274 = CARTESIAN_POINT('',(131.6,-59.8,13.19));
#275 = CARTESIAN_POINT('',(129.1,-61.1,13.19));
#276 = CARTESIAN_POINT('',(126.7,-60.7,13.19));
#277 = ORIENTED_EDGE('',*,*,#278,.F.);
#278 = EDGE_CURVE('',#279,#270,#281,.T.);
#279 = VERTEX_POINT('',#280);
#280 = CARTESIAN_POINT('',(133.5,-61.1,13.19));
#281 = LINE('',#282,#283);
#282 = CARTESIAN_POINT('',(133.5,-61.1,13.19));
#283 = VECTOR('',#284,1.);
#284 = DIRECTION('',(0.,1.,0.));
#285 = ORIENTED_EDGE('',*,*,#286,.F.);
#286 = EDGE_CURVE('',#287,#279,#289,.T.);
#287 = VERTEX_POINT('',#288);
#288 = CARTESIAN_POINT('',(128.,-64.1,13.19));
#289 = B_SPLINE_CURVE_WITH_KNOTS('',3,(#290,#291,#292,#293),
  .UNSPECIFIED.,.F.,.F.,(4,4),(0.,1.),.PIECEWISE_BEZIER_KNOTS.);
#290 = CARTESIAN_POINT('',(128.,-64.1,13.19));
#291 = CARTESIAN_POINT('',(130.2,-63.6,13.19));
#292 = CARTESIAN_POINT('',(132.5,-62.5,13.19));
#293 = CARTESIAN_POINT('',(133.5,-61.1,13.19));
#294 = ORIENTED_EDGE('',*,*,#295,.F.);
#295 = EDGE_CURVE('',#296,#287,#298,.T.);
#296 = VERTEX_POINT('',#297);
#297 = CARTESIAN_POINT('',(114.15,-54.5,13.19));
#298 = B_SPLINE_CURVE_WITH_KNOTS('',3,(#299,#300,#301,#302),
  .UNSPECIFIED.,.F.,.F.,(4,4),(0.,1.),.PIECEWISE_BEZIER_KNOTS.);
#299 = CARTESIAN_POINT('',(114.15,-54.5,13.19));
#300 = CARTESIAN_POINT('',(116.5,-62.9,13.19));
#301 = CARTESIAN_POINT('',(121.1,-66.1,13.19));
#302 = CARTESIAN_POINT('',(128.,-64.1,13.19));
#303 = ORIENTED_EDGE('',*,*,#304,.F.);
#304 = EDGE_CURVE('',#305,#296,#307,.T.);
#305 = VERTEX_POINT('',#306);
#306 = CARTESIAN_POINT('',(112.45,-32.5,13.19));
#307 = B_SPLINE_CURVE_WITH_KNOTS('',3,(#308,#309,#310,#311),
  .UNSPECIFIED.,.F.,.F.,(4,4),(0.,1.),.PIECEWISE_BEZIER_KNOTS.);
#308 = CARTESIAN_POINT('',(112.45,-32.5,13.19));
#309 = CARTESIAN_POINT('',(112.5,-44.,13.19));
#310 = CARTESIAN_POINT('',(112.9,-50.9,13.19));
#311 = CARTESIAN_POINT('',(114.15,-54.5,13.19));
#312 = ORIENTED_EDGE('',*,*,#313,.F.);
#313 = EDGE_CURVE('',#173,#305,#314,.T.);
#314 = B_SPLINE_CURVE_WITH_KNOTS('',3,(#315,#316,#317,#318),
  .UNSPECIFIED.,.F.,.F.,(4,4),(0.,1.),.PIECEWISE_BEZIER_KNOTS.);
#315 = CARTESIAN_POINT('',(117.8,-57.5,13.19));
#316 = CARTESIAN_POINT('',(113.5,-54.5,13.19));
#317 = CARTESIAN_POINT('',(113.2,-48.4,13.19));
#318 = CARTESIAN_POINT('',(112.45,-32.5,13.19));
#319 = PLANE('',#320);
#320 = AXIS2_PLACEMENT_3D('',#321,#322,#323);
#321 = CARTESIAN_POINT('',(123.,-39.,13.19));
#322 = DIRECTION('',(0.,0.,1.));
#323 = DIRECTION('',(1.,0.,0.));
#324 = ADVANCED_FACE('',(#325,#370),#520,.T.);
#325 = FACE_BOUND('',#326,.T.);
#326 = EDGE_LOOP('',(#327,#328,#329,#337,#346,#354,#363,#369));
#327 = ORIENTED_EDGE('',*,*,#31,.F.);
#328 = ORIENTED_EDGE('',*,*,#71,.F.);
#329 = ORIENTED_EDGE('',*,*,#330,.F.);
#330 = EDGE_CURVE('',#331,#64,#333,.T.);
#331 = VERTEX_POINT('',#332);
#332 = CARTESIAN_POINT('',(112.2,-64.7,13.59));
#333 = LINE('',#334,#335);
#334 = CARTESIAN_POINT('',(112.2,-64.7,13.59));
#335 = VECTOR('',#336,1.);
#336 = DIRECTION('',(0.,1.,0.));
#337 = ORIENTED_EDGE('',*,*,#338,.F.);
#338 = EDGE_CURVE('',#339,#331,#341,.T.);
#339 = VERTEX_POINT('',#340);
#340 = CARTESIAN_POINT('',(113.3,-65.8,13.59));
#341 = CIRCLE('',#342,1.1);
#342 = AXIS2_PLACEMENT_3D('',#343,#344,#345);
#343 = CARTESIAN_POINT('',(113.3,-64.7,13.59));
#344 = DIRECTION('',(0.,0.,-1.));
#345 = DIRECTION('',(0.,-1.,0.));
#346 = ORIENTED_EDGE('',*,*,#347,.F.);
#347 = EDGE_CURVE('',#348,#339,#350,.T.);
#348 = VERTEX_POINT('',#349);
#349 = CARTESIAN_POINT('',(132.7,-65.8,13.59));
#350 = LINE('',#351,#352);
#351 = CARTESIAN_POINT('',(132.7,-65.8,13.59));
#352 = VECTOR('',#353,1.);
#353 = DIRECTION('',(-1.,0.,0.));
#354 = ORIENTED_EDGE('',*,*,#355,.F.);
#355 = EDGE_CURVE('',#356,#348,#358,.T.);
#356 = VERTEX_POINT('',#357);
#357 = CARTESIAN_POINT('',(133.8,-64.7,13.59));
#358 = CIRCLE('',#359,1.1);
#359 = AXIS2_PLACEMENT_3D('',#360,#361,#362);
#360 = CARTESIAN_POINT('',(132.7,-64.7,13.59));
#361 = DIRECTION('',(0.,0.,-1.));
#362 = DIRECTION('',(1.,0.,0.));
#363 = ORIENTED_EDGE('',*,*,#364,.F.);
#364 = EDGE_CURVE('',#96,#356,#365,.T.);
#365 = LINE('',#366,#367);
#366 = CARTESIAN_POINT('',(133.8,-13.3,13.59));
#367 = VECTOR('',#368,1.);
#368 = DIRECTION('',(0.,-1.,0.));
#369 = ORIENTED_EDGE('',*,*,#95,.F.);
#370 = FACE_BOUND('',#371,.T.);
#371 = EDGE_LOOP('',(#372,#382,#391,#399,#408,#416,#425,#433,#442,#451,
    #460,#469,#478,#486,#495,#504,#513));
#372 = ORIENTED_EDGE('',*,*,#373,.T.);
#373 = EDGE_CURVE('',#374,#376,#378,.T.);
#374 = VERTEX_POINT('',#375);
#375 = CARTESIAN_POINT('',(114.45,-52.57528221325,13.59));
#376 = VERTEX_POINT('',#377);
#377 = CARTESIAN_POINT('',(114.45,-14.95,13.59));
#378 = LINE('',#379,#380);
#379 = CARTESIAN_POINT('',(114.45,-52.95,13.59));
#380 = VECTOR('',#381,1.);
#381 = DIRECTION('',(0.,1.,0.));
#382 = ORIENTED_EDGE('',*,*,#383,.T.);
#383 = EDGE_CURVE('',#376,#384,#386,.T.);
#384 = VERTEX_POINT('',#385);
#385 = CARTESIAN_POINT('',(114.75,-14.65,13.59));
#386 = CIRCLE('',#387,0.3);
#387 = AXIS2_PLACEMENT_3D('',#388,#389,#390);
#388 = CARTESIAN_POINT('',(114.75,-14.95,13.59));
#389 = DIRECTION('',(0.,0.,-1.));
#390 = DIRECTION('',(-1.,-5.92E-15,-0.));
#391 = ORIENTED_EDGE('',*,*,#392,.T.);
#392 = EDGE_CURVE('',#384,#393,#395,.T.);
#393 = VERTEX_POINT('',#394);
#394 = CARTESIAN_POINT('',(130.85,-14.65,13.59));
#395 = LINE('',#396,#397);
#396 = CARTESIAN_POINT('',(114.75,-14.65,13.59));
#397 = VECTOR('',#398,1.);
#398 = DIRECTION('',(1.,0.,0.));
#399 = ORIENTED_EDGE('',*,*,#400,.T.);
#400 = EDGE_CURVE('',#393,#401,#403,.T.);
#401 = VERTEX_POINT('',#402);
#402 = CARTESIAN_POINT('',(131.15,-14.95,13.59));
#403 = CIRCLE('',#404,0.3);
#404 = AXIS2_PLACEMENT_3D('',#405,#406,#407);
#405 = CARTESIAN_POINT('',(130.85,-14.95,13.59));
#406 = DIRECTION('',(0.,0.,-1.));
#407 = DIRECTION('',(-9.474E-14,1.,0.));
#408 = ORIENTED_EDGE('',*,*,#409,.T.);
#409 = EDGE_CURVE('',#401,#410,#412,.T.);
#410 = VERTEX_POINT('',#411);
#411 = CARTESIAN_POINT('',(131.15,-52.95,13.59));
#412 = LINE('',#413,#414);
#413 = CARTESIAN_POINT('',(131.15,-14.95,13.59));
#414 = VECTOR('',#415,1.);
#415 = DIRECTION('',(0.,-1.,0.));
#416 = ORIENTED_EDGE('',*,*,#417,.T.);
#417 = EDGE_CURVE('',#410,#418,#420,.T.);
#418 = VERTEX_POINT('',#419);
#419 = CARTESIAN_POINT('',(130.85,-53.25,13.59));
#420 = CIRCLE('',#421,0.3);
#421 = AXIS2_PLACEMENT_3D('',#422,#423,#424);
#422 = CARTESIAN_POINT('',(130.85,-52.95,13.59));
#423 = DIRECTION('',(0.,0.,-1.));
#424 = DIRECTION('',(1.,4.737E-14,0.));
#425 = ORIENTED_EDGE('',*,*,#426,.T.);
#426 = EDGE_CURVE('',#418,#427,#429,.T.);
#427 = VERTEX_POINT('',#428);
#428 = CARTESIAN_POINT('',(114.75,-53.25,13.59));
#429 = LINE('',#430,#431);
#430 = CARTESIAN_POINT('',(130.85,-53.25,13.59));
#431 = VECTOR('',#432,1.);
#432 = DIRECTION('',(-1.,0.,0.));
#433 = ORIENTED_EDGE('',*,*,#434,.T.);
#434 = EDGE_CURVE('',#427,#435,#437,.T.);
#435 = VERTEX_POINT('',#436);
#436 = CARTESIAN_POINT('',(114.6767424653,-53.24091808745,13.59));
#437 = CIRCLE('',#438,0.3);
#438 = AXIS2_PLACEMENT_3D('',#439,#440,#441);
#439 = CARTESIAN_POINT('',(114.75,-52.95,13.59));
#440 = DIRECTION('',(0.,0.,-1.));
#441 = DIRECTION('',(0.,-1.,0.));
#442 = ORIENTED_EDGE('',*,*,#443,.F.);
#443 = EDGE_CURVE('',#444,#435,#446,.T.);
#444 = VERTEX_POINT('',#445);
#445 = CARTESIAN_POINT('',(117.8,-57.5,13.59));
#446 = B_SPLINE_CURVE_WITH_KNOTS('',3,(#447,#448,#449,#450),
  .UNSPECIFIED.,.F.,.F.,(4,4),(0.,1.),.PIECEWISE_BEZIER_KNOTS.);
#447 = CARTESIAN_POINT('',(117.8,-57.5,13.59));
#448 = CARTESIAN_POINT('',(113.5,-54.5,13.59));
#449 = CARTESIAN_POINT('',(113.2,-48.4,13.59));
#450 = CARTESIAN_POINT('',(112.45,-32.5,13.59));
#451 = ORIENTED_EDGE('',*,*,#452,.F.);
#452 = EDGE_CURVE('',#453,#444,#455,.T.);
#453 = VERTEX_POINT('',#454);
#454 = CARTESIAN_POINT('',(122.5,-56.5,13.59));
#455 = B_SPLINE_CURVE_WITH_KNOTS('',3,(#456,#457,#458,#459),
  .UNSPECIFIED.,.F.,.F.,(4,4),(0.,1.),.PIECEWISE_BEZIER_KNOTS.);
#456 = CARTESIAN_POINT('',(122.5,-56.5,13.59));
#457 = CARTESIAN_POINT('',(119.4,-56.5,13.59));
#458 = CARTESIAN_POINT('',(119.6,-59.5,13.59));
#459 = CARTESIAN_POINT('',(117.8,-57.5,13.59));
#460 = ORIENTED_EDGE('',*,*,#461,.F.);
#461 = EDGE_CURVE('',#462,#453,#464,.T.);
#462 = VERTEX_POINT('',#463);
#463 = CARTESIAN_POINT('',(126.7,-60.7,13.59));
#464 = B_SPLINE_CURVE_WITH_KNOTS('',3,(#465,#466,#467,#468),
  .UNSPECIFIED.,.F.,.F.,(4,4),(0.,1.),.PIECEWISE_BEZIER_KNOTS.);
#465 = CARTESIAN_POINT('',(126.7,-60.7,13.59));
#466 = CARTESIAN_POINT('',(125.6,-60.5,13.59));
#467 = CARTESIAN_POINT('',(125.9,-56.5,13.59));
#468 = CARTESIAN_POINT('',(122.5,-56.5,13.59));
#469 = ORIENTED_EDGE('',*,*,#470,.F.);
#470 = EDGE_CURVE('',#471,#462,#473,.T.);
#471 = VERTEX_POINT('',#472);
#472 = CARTESIAN_POINT('',(133.5,-55.8,13.59));
#473 = B_SPLINE_CURVE_WITH_KNOTS('',3,(#474,#475,#476,#477),
  .UNSPECIFIED.,.F.,.F.,(4,4),(0.,1.),.PIECEWISE_BEZIER_KNOTS.);
#474 = CARTESIAN_POINT('',(133.5,-55.8,13.59));
#475 = CARTESIAN_POINT('',(131.6,-59.8,13.59));
#476 = CARTESIAN_POINT('',(129.1,-61.1,13.59));
#477 = CARTESIAN_POINT('',(126.7,-60.7,13.59));
#478 = ORIENTED_EDGE('',*,*,#479,.F.);
#479 = EDGE_CURVE('',#480,#471,#482,.T.);
#480 = VERTEX_POINT('',#481);
#481 = CARTESIAN_POINT('',(133.5,-61.1,13.59));
#482 = LINE('',#483,#484);
#483 = CARTESIAN_POINT('',(133.5,-61.1,13.59));
#484 = VECTOR('',#485,1.);
#485 = DIRECTION('',(0.,1.,0.));
#486 = ORIENTED_EDGE('',*,*,#487,.F.);
#487 = EDGE_CURVE('',#488,#480,#490,.T.);
#488 = VERTEX_POINT('',#489);
#489 = CARTESIAN_POINT('',(128.,-64.1,13.59));
#490 = B_SPLINE_CURVE_WITH_KNOTS('',3,(#491,#492,#493,#494),
  .UNSPECIFIED.,.F.,.F.,(4,4),(0.,1.),.PIECEWISE_BEZIER_KNOTS.);
#491 = CARTESIAN_POINT('',(128.,-64.1,13.59));
#492 = CARTESIAN_POINT('',(130.2,-63.6,13.59));
#493 = CARTESIAN_POINT('',(132.5,-62.5,13.59));
#494 = CARTESIAN_POINT('',(133.5,-61.1,13.59));
#495 = ORIENTED_EDGE('',*,*,#496,.F.);
#496 = EDGE_CURVE('',#497,#488,#499,.T.);
#497 = VERTEX_POINT('',#498);
#498 = CARTESIAN_POINT('',(114.15,-54.5,13.59));
#499 = B_SPLINE_CURVE_WITH_KNOTS('',3,(#500,#501,#502,#503),
  .UNSPECIFIED.,.F.,.F.,(4,4),(0.,1.),.PIECEWISE_BEZIER_KNOTS.);
#500 = CARTESIAN_POINT('',(114.15,-54.5,13.59));
#501 = CARTESIAN_POINT('',(116.5,-62.9,13.59));
#502 = CARTESIAN_POINT('',(121.1,-66.1,13.59));
#503 = CARTESIAN_POINT('',(128.,-64.1,13.59));
#504 = ORIENTED_EDGE('',*,*,#505,.F.);
#505 = EDGE_CURVE('',#506,#497,#508,.T.);
#506 = VERTEX_POINT('',#507);
#507 = CARTESIAN_POINT('',(112.45,-32.5,13.59));
#508 = B_SPLINE_CURVE_WITH_KNOTS('',3,(#509,#510,#511,#512),
  .UNSPECIFIED.,.F.,.F.,(4,4),(0.,1.),.PIECEWISE_BEZIER_KNOTS.);
#509 = CARTESIAN_POINT('',(112.45,-32.5,13.59));
#510 = CARTESIAN_POINT('',(112.5,-44.,13.59));
#511 = CARTESIAN_POINT('',(112.9,-50.9,13.59));
#512 = CARTESIAN_POINT('',(114.15,-54.5,13.59));
#513 = ORIENTED_EDGE('',*,*,#514,.F.);
#514 = EDGE_CURVE('',#374,#506,#515,.T.);
#515 = B_SPLINE_CURVE_WITH_KNOTS('',3,(#516,#517,#518,#519),
  .UNSPECIFIED.,.F.,.F.,(4,4),(0.,1.),.PIECEWISE_BEZIER_KNOTS.);
#516 = CARTESIAN_POINT('',(117.8,-57.5,13.59));
#517 = CARTESIAN_POINT('',(113.5,-54.5,13.59));
#518 = CARTESIAN_POINT('',(113.2,-48.4,13.59));
#519 = CARTESIAN_POINT('',(112.45,-32.5,13.59));
#520 = PLANE('',#521);
#521 = AXIS2_PLACEMENT_3D('',#522,#523,#524);
#522 = CARTESIAN_POINT('',(123.,-39.,13.59));
#523 = DIRECTION('',(0.,0.,1.));
#524 = DIRECTION('',(1.,0.,0.));
#525 = ADVANCED_FACE('',(#526),#537,.T.);
#526 = FACE_BOUND('',#527,.T.);
#527 = EDGE_LOOP('',(#528,#534,#535,#536));
#528 = ORIENTED_EDGE('',*,*,#529,.T.);
#529 = EDGE_CURVE('',#130,#331,#530,.T.);
#530 = LINE('',#531,#532);
#531 = CARTESIAN_POINT('',(112.2,-64.7,13.19));
#532 = VECTOR('',#533,1.);
#533 = DIRECTION('',(0.,0.,1.));
#534 = ORIENTED_EDGE('',*,*,#330,.T.);
#535 = ORIENTED_EDGE('',*,*,#61,.F.);
#536 = ORIENTED_EDGE('',*,*,#129,.F.);
#537 = PLANE('',#538);
#538 = AXIS2_PLACEMENT_3D('',#539,#540,#541);
#539 = CARTESIAN_POINT('',(112.2,-64.7,13.19));
#540 = DIRECTION('',(-1.,0.,0.));
#541 = DIRECTION('',(0.,1.,0.));
#542 = ADVANCED_FACE('',(#543),#554,.T.);
#543 = FACE_BOUND('',#544,.T.);
#544 = EDGE_LOOP('',(#545,#546,#547,#553));
#545 = ORIENTED_EDGE('',*,*,#104,.T.);
#546 = ORIENTED_EDGE('',*,*,#364,.T.);
#547 = ORIENTED_EDGE('',*,*,#548,.F.);
#548 = EDGE_CURVE('',#155,#356,#549,.T.);
#549 = LINE('',#550,#551);
#550 = CARTESIAN_POINT('',(133.8,-64.7,13.19));
#551 = VECTOR('',#552,1.);
#552 = DIRECTION('',(0.,0.,1.));
#553 = ORIENTED_EDGE('',*,*,#163,.F.);
#554 = PLANE('',#555);
#555 = AXIS2_PLACEMENT_3D('',#556,#557,#558);
#556 = CARTESIAN_POINT('',(133.8,-13.3,13.19));
#557 = DIRECTION('',(1.,0.,0.));
#558 = DIRECTION('',(0.,-1.,0.));
#559 = ADVANCED_FACE('',(#560),#571,.T.);
#560 = FACE_BOUND('',#561,.T.);
#561 = EDGE_LOOP('',(#562,#568,#569,#570));
#562 = ORIENTED_EDGE('',*,*,#563,.T.);
#563 = EDGE_CURVE('',#138,#339,#564,.T.);
#564 = LINE('',#565,#566);
#565 = CARTESIAN_POINT('',(113.3,-65.8,13.19));
#566 = VECTOR('',#567,1.);
#567 = DIRECTION('',(0.,0.,1.));
#568 = ORIENTED_EDGE('',*,*,#338,.T.);
#569 = ORIENTED_EDGE('',*,*,#529,.F.);
#570 = ORIENTED_EDGE('',*,*,#137,.F.);
#571 = CYLINDRICAL_SURFACE('',#572,1.1);
#572 = AXIS2_PLACEMENT_3D('',#573,#574,#575);
#573 = CARTESIAN_POINT('',(113.3,-64.7,13.19));
#574 = DIRECTION('',(0.,0.,-1.));
#575 = DIRECTION('',(0.,-1.,0.));
#576 = ADVANCED_FACE('',(#577),#588,.T.);
#577 = FACE_BOUND('',#578,.T.);
#578 = EDGE_LOOP('',(#579,#580,#581,#587));
#579 = ORIENTED_EDGE('',*,*,#548,.T.);
#580 = ORIENTED_EDGE('',*,*,#355,.T.);
#581 = ORIENTED_EDGE('',*,*,#582,.F.);
#582 = EDGE_CURVE('',#147,#348,#583,.T.);
#583 = LINE('',#584,#585);
#584 = CARTESIAN_POINT('',(132.7,-65.8,13.19));
#585 = VECTOR('',#586,1.);
#586 = DIRECTION('',(0.,0.,1.));
#587 = ORIENTED_EDGE('',*,*,#154,.F.);
#588 = CYLINDRICAL_SURFACE('',#589,1.1);
#589 = AXIS2_PLACEMENT_3D('',#590,#591,#592);
#590 = CARTESIAN_POINT('',(132.7,-64.7,13.19));
#591 = DIRECTION('',(0.,0.,-1.));
#592 = DIRECTION('',(1.,0.,0.));
#593 = ADVANCED_FACE('',(#594),#600,.T.);
#594 = FACE_BOUND('',#595,.T.);
#595 = EDGE_LOOP('',(#596,#597,#598,#599));
#596 = ORIENTED_EDGE('',*,*,#582,.T.);
#597 = ORIENTED_EDGE('',*,*,#347,.T.);
#598 = ORIENTED_EDGE('',*,*,#563,.F.);
#599 = ORIENTED_EDGE('',*,*,#146,.F.);
#600 = PLANE('',#601);
#601 = AXIS2_PLACEMENT_3D('',#602,#603,#604);
#602 = CARTESIAN_POINT('',(132.7,-65.8,13.19));
#603 = DIRECTION('',(0.,-1.,0.));
#604 = DIRECTION('',(-1.,0.,0.));
#605 = ADVANCED_FACE('',(#606),#624,.F.);
#606 = FACE_BOUND('',#607,.F.);
#607 = EDGE_LOOP('',(#608,#609,#617,#618));
#608 = ORIENTED_EDGE('',*,*,#172,.F.);
#609 = ORIENTED_EDGE('',*,*,#610,.F.);
#610 = EDGE_CURVE('',#374,#173,#611,.T.);
#611 = B_SPLINE_CURVE_WITH_KNOTS('',4,(#612,#613,#614,#615,#616),
  .UNSPECIFIED.,.F.,.F.,(5,5),(0.,1.),.PIECEWISE_BEZIER_KNOTS.);
#612 = CARTESIAN_POINT('',(114.45,-52.57528221325,13.59));
#613 = CARTESIAN_POINT('',(114.45,-52.57528221325,13.490000000007));
#614 = CARTESIAN_POINT('',(114.45,-52.57528221325,13.39));
#615 = CARTESIAN_POINT('',(114.45,-52.57528221325,13.289999999993));
#616 = CARTESIAN_POINT('',(114.45,-52.57528221325,13.19));
#617 = ORIENTED_EDGE('',*,*,#373,.T.);
#618 = ORIENTED_EDGE('',*,*,#619,.F.);
#619 = EDGE_CURVE('',#175,#376,#620,.T.);
#620 = LINE('',#621,#622);
#621 = CARTESIAN_POINT('',(114.45,-14.95,13.19));
#622 = VECTOR('',#623,1.);
#623 = DIRECTION('',(0.,0.,1.));
#624 = PLANE('',#625);
#625 = AXIS2_PLACEMENT_3D('',#626,#627,#628);
#626 = CARTESIAN_POINT('',(114.45,-52.95,13.19));
#627 = DIRECTION('',(-1.,0.,0.));
#628 = DIRECTION('',(0.,1.,0.));
#629 = ADVANCED_FACE('',(#630),#641,.T.);
#630 = FACE_BOUND('',#631,.T.);
#631 = EDGE_LOOP('',(#632,#633,#634,#635));
#632 = ORIENTED_EDGE('',*,*,#313,.F.);
#633 = ORIENTED_EDGE('',*,*,#610,.F.);
#634 = ORIENTED_EDGE('',*,*,#514,.T.);
#635 = ORIENTED_EDGE('',*,*,#636,.F.);
#636 = EDGE_CURVE('',#305,#506,#637,.T.);
#637 = LINE('',#638,#639);
#638 = CARTESIAN_POINT('',(112.45,-32.5,13.19));
#639 = VECTOR('',#640,1.);
#640 = DIRECTION('',(0.,0.,1.));
#641 = SURFACE_OF_LINEAR_EXTRUSION('',#642,#647);
#642 = B_SPLINE_CURVE_WITH_KNOTS('',3,(#643,#644,#645,#646),
  .UNSPECIFIED.,.F.,.F.,(4,4),(0.,1.),.PIECEWISE_BEZIER_KNOTS.);
#643 = CARTESIAN_POINT('',(117.8,-57.5,13.19));
#644 = CARTESIAN_POINT('',(113.5,-54.5,13.19));
#645 = CARTESIAN_POINT('',(113.2,-48.4,13.19));
#646 = CARTESIAN_POINT('',(112.45,-32.5,13.19));
#647 = VECTOR('',#648,1.);
#648 = DIRECTION('',(-0.,-0.,-1.));
#649 = ADVANCED_FACE('',(#650),#661,.T.);
#650 = FACE_BOUND('',#651,.T.);
#651 = EDGE_LOOP('',(#652,#653,#654,#660));
#652 = ORIENTED_EDGE('',*,*,#636,.T.);
#653 = ORIENTED_EDGE('',*,*,#505,.T.);
#654 = ORIENTED_EDGE('',*,*,#655,.F.);
#655 = EDGE_CURVE('',#296,#497,#656,.T.);
#656 = LINE('',#657,#658);
#657 = CARTESIAN_POINT('',(114.15,-54.5,13.19));
#658 = VECTOR('',#659,1.);
#659 = DIRECTION('',(0.,0.,1.));
#660 = ORIENTED_EDGE('',*,*,#304,.F.);
#661 = SURFACE_OF_LINEAR_EXTRUSION('',#662,#667);
#662 = B_SPLINE_CURVE_WITH_KNOTS('',3,(#663,#664,#665,#666),
  .UNSPECIFIED.,.F.,.F.,(4,4),(0.,1.),.PIECEWISE_BEZIER_KNOTS.);
#663 = CARTESIAN_POINT('',(112.45,-32.5,13.19));
#664 = CARTESIAN_POINT('',(112.5,-44.,13.19));
#665 = CARTESIAN_POINT('',(112.9,-50.9,13.19));
#666 = CARTESIAN_POINT('',(114.15,-54.5,13.19));
#667 = VECTOR('',#668,1.);
#668 = DIRECTION('',(-0.,-0.,-1.));
#669 = ADVANCED_FACE('',(#670),#681,.T.);
#670 = FACE_BOUND('',#671,.T.);
#671 = EDGE_LOOP('',(#672,#673,#674,#680));
#672 = ORIENTED_EDGE('',*,*,#655,.T.);
#673 = ORIENTED_EDGE('',*,*,#496,.T.);
#674 = ORIENTED_EDGE('',*,*,#675,.F.);
#675 = EDGE_CURVE('',#287,#488,#676,.T.);
#676 = LINE('',#677,#678);
#677 = CARTESIAN_POINT('',(128.,-64.1,13.19));
#678 = VECTOR('',#679,1.);
#679 = DIRECTION('',(0.,0.,1.));
#680 = ORIENTED_EDGE('',*,*,#295,.F.);
#681 = SURFACE_OF_LINEAR_EXTRUSION('',#682,#687);
#682 = B_SPLINE_CURVE_WITH_KNOTS('',3,(#683,#684,#685,#686),
  .UNSPECIFIED.,.F.,.F.,(4,4),(0.,1.),.PIECEWISE_BEZIER_KNOTS.);
#683 = CARTESIAN_POINT('',(114.15,-54.5,13.19));
#684 = CARTESIAN_POINT('',(116.5,-62.9,13.19));
#685 = CARTESIAN_POINT('',(121.1,-66.1,13.19));
#686 = CARTESIAN_POINT('',(128.,-64.1,13.19));
#687 = VECTOR('',#688,1.);
#688 = DIRECTION('',(-0.,-0.,-1.));
#689 = ADVANCED_FACE('',(#690),#701,.T.);
#690 = FACE_BOUND('',#691,.T.);
#691 = EDGE_LOOP('',(#692,#693,#694,#700));
#692 = ORIENTED_EDGE('',*,*,#675,.T.);
#693 = ORIENTED_EDGE('',*,*,#487,.T.);
#694 = ORIENTED_EDGE('',*,*,#695,.F.);
#695 = EDGE_CURVE('',#279,#480,#696,.T.);
#696 = LINE('',#697,#698);
#697 = CARTESIAN_POINT('',(133.5,-61.1,13.19));
#698 = VECTOR('',#699,1.);
#699 = DIRECTION('',(0.,0.,1.));
#700 = ORIENTED_EDGE('',*,*,#286,.F.);
#701 = SURFACE_OF_LINEAR_EXTRUSION('',#702,#707);
#702 = B_SPLINE_CURVE_WITH_KNOTS('',3,(#703,#704,#705,#706),
  .UNSPECIFIED.,.F.,.F.,(4,4),(0.,1.),.PIECEWISE_BEZIER_KNOTS.);
#703 = CARTESIAN_POINT('',(128.,-64.1,13.19));
#704 = CARTESIAN_POINT('',(130.2,-63.6,13.19));
#705 = CARTESIAN_POINT('',(132.5,-62.5,13.19));
#706 = CARTESIAN_POINT('',(133.5,-61.1,13.19));
#707 = VECTOR('',#708,1.);
#708 = DIRECTION('',(-0.,-0.,-1.));
#709 = ADVANCED_FACE('',(#710),#721,.T.);
#710 = FACE_BOUND('',#711,.T.);
#711 = EDGE_LOOP('',(#712,#713,#714,#720));
#712 = ORIENTED_EDGE('',*,*,#695,.T.);
#713 = ORIENTED_EDGE('',*,*,#479,.T.);
#714 = ORIENTED_EDGE('',*,*,#715,.F.);
#715 = EDGE_CURVE('',#270,#471,#716,.T.);
#716 = LINE('',#717,#718);
#717 = CARTESIAN_POINT('',(133.5,-55.8,13.19));
#718 = VECTOR('',#719,1.);
#719 = DIRECTION('',(0.,0.,1.));
#720 = ORIENTED_EDGE('',*,*,#278,.F.);
#721 = PLANE('',#722);
#722 = AXIS2_PLACEMENT_3D('',#723,#724,#725);
#723 = CARTESIAN_POINT('',(133.5,-61.1,13.19));
#724 = DIRECTION('',(-1.,0.,0.));
#725 = DIRECTION('',(0.,1.,0.));
#726 = ADVANCED_FACE('',(#727),#738,.T.);
#727 = FACE_BOUND('',#728,.T.);
#728 = EDGE_LOOP('',(#729,#730,#731,#737));
#729 = ORIENTED_EDGE('',*,*,#715,.T.);
#730 = ORIENTED_EDGE('',*,*,#470,.T.);
#731 = ORIENTED_EDGE('',*,*,#732,.F.);
#732 = EDGE_CURVE('',#261,#462,#733,.T.);
#733 = LINE('',#734,#735);
#734 = CARTESIAN_POINT('',(126.7,-60.7,13.19));
#735 = VECTOR('',#736,1.);
#736 = DIRECTION('',(0.,0.,1.));
#737 = ORIENTED_EDGE('',*,*,#269,.F.);
#738 = SURFACE_OF_LINEAR_EXTRUSION('',#739,#744);
#739 = B_SPLINE_CURVE_WITH_KNOTS('',3,(#740,#741,#742,#743),
  .UNSPECIFIED.,.F.,.F.,(4,4),(0.,1.),.PIECEWISE_BEZIER_KNOTS.);
#740 = CARTESIAN_POINT('',(133.5,-55.8,13.19));
#741 = CARTESIAN_POINT('',(131.6,-59.8,13.19));
#742 = CARTESIAN_POINT('',(129.1,-61.1,13.19));
#743 = CARTESIAN_POINT('',(126.7,-60.7,13.19));
#744 = VECTOR('',#745,1.);
#745 = DIRECTION('',(-0.,-0.,-1.));
#746 = ADVANCED_FACE('',(#747),#758,.T.);
#747 = FACE_BOUND('',#748,.T.);
#748 = EDGE_LOOP('',(#749,#750,#751,#757));
#749 = ORIENTED_EDGE('',*,*,#732,.T.);
#750 = ORIENTED_EDGE('',*,*,#461,.T.);
#751 = ORIENTED_EDGE('',*,*,#752,.F.);
#752 = EDGE_CURVE('',#252,#453,#753,.T.);
#753 = LINE('',#754,#755);
#754 = CARTESIAN_POINT('',(122.5,-56.5,13.19));
#755 = VECTOR('',#756,1.);
#756 = DIRECTION('',(0.,0.,1.));
#757 = ORIENTED_EDGE('',*,*,#260,.F.);
#758 = SURFACE_OF_LINEAR_EXTRUSION('',#759,#764);
#759 = B_SPLINE_CURVE_WITH_KNOTS('',3,(#760,#761,#762,#763),
  .UNSPECIFIED.,.F.,.F.,(4,4),(0.,1.),.PIECEWISE_BEZIER_KNOTS.);
#760 = CARTESIAN_POINT('',(126.7,-60.7,13.19));
#761 = CARTESIAN_POINT('',(125.6,-60.5,13.19));
#762 = CARTESIAN_POINT('',(125.9,-56.5,13.19));
#763 = CARTESIAN_POINT('',(122.5,-56.5,13.19));
#764 = VECTOR('',#765,1.);
#765 = DIRECTION('',(-0.,-0.,-1.));
#766 = ADVANCED_FACE('',(#767),#778,.T.);
#767 = FACE_BOUND('',#768,.T.);
#768 = EDGE_LOOP('',(#769,#770,#771,#777));
#769 = ORIENTED_EDGE('',*,*,#752,.T.);
#770 = ORIENTED_EDGE('',*,*,#452,.T.);
#771 = ORIENTED_EDGE('',*,*,#772,.F.);
#772 = EDGE_CURVE('',#243,#444,#773,.T.);
#773 = LINE('',#774,#775);
#774 = CARTESIAN_POINT('',(117.8,-57.5,13.19));
#775 = VECTOR('',#776,1.);
#776 = DIRECTION('',(0.,0.,1.));
#777 = ORIENTED_EDGE('',*,*,#251,.F.);
#778 = SURFACE_OF_LINEAR_EXTRUSION('',#779,#784);
#779 = B_SPLINE_CURVE_WITH_KNOTS('',3,(#780,#781,#782,#783),
  .UNSPECIFIED.,.F.,.F.,(4,4),(0.,1.),.PIECEWISE_BEZIER_KNOTS.);
#780 = CARTESIAN_POINT('',(122.5,-56.5,13.19));
#781 = CARTESIAN_POINT('',(119.4,-56.5,13.19));
#782 = CARTESIAN_POINT('',(119.6,-59.5,13.19));
#783 = CARTESIAN_POINT('',(117.8,-57.5,13.19));
#784 = VECTOR('',#785,1.);
#785 = DIRECTION('',(-0.,-0.,-1.));
#786 = ADVANCED_FACE('',(#787),#800,.T.);
#787 = FACE_BOUND('',#788,.T.);
#788 = EDGE_LOOP('',(#789,#790,#791,#792));
#789 = ORIENTED_EDGE('',*,*,#242,.F.);
#790 = ORIENTED_EDGE('',*,*,#772,.T.);
#791 = ORIENTED_EDGE('',*,*,#443,.T.);
#792 = ORIENTED_EDGE('',*,*,#793,.T.);
#793 = EDGE_CURVE('',#435,#234,#794,.T.);
#794 = B_SPLINE_CURVE_WITH_KNOTS('',4,(#795,#796,#797,#798,#799),
  .UNSPECIFIED.,.F.,.F.,(5,5),(0.,1.),.PIECEWISE_BEZIER_KNOTS.);
#795 = CARTESIAN_POINT('',(114.6767424653,-53.24091808745,13.59011597993
    ));
#796 = CARTESIAN_POINT('',(114.6767424653,-53.24091808745,
    13.490057989965));
#797 = CARTESIAN_POINT('',(114.6767424653,-53.24091808745,13.39));
#798 = CARTESIAN_POINT('',(114.6767424653,-53.24091808745,
    13.289942010035));
#799 = CARTESIAN_POINT('',(114.6767424653,-53.24091808745,13.18988402007
    ));
#800 = SURFACE_OF_LINEAR_EXTRUSION('',#801,#806);
#801 = B_SPLINE_CURVE_WITH_KNOTS('',3,(#802,#803,#804,#805),
  .UNSPECIFIED.,.F.,.F.,(4,4),(0.,1.),.PIECEWISE_BEZIER_KNOTS.);
#802 = CARTESIAN_POINT('',(117.8,-57.5,13.19));
#803 = CARTESIAN_POINT('',(113.5,-54.5,13.19));
#804 = CARTESIAN_POINT('',(113.2,-48.4,13.19));
#805 = CARTESIAN_POINT('',(112.45,-32.5,13.19));
#806 = VECTOR('',#807,1.);
#807 = DIRECTION('',(-0.,-0.,-1.));
#808 = ADVANCED_FACE('',(#809),#820,.F.);
#809 = FACE_BOUND('',#810,.F.);
#810 = EDGE_LOOP('',(#811,#812,#818,#819));
#811 = ORIENTED_EDGE('',*,*,#233,.F.);
#812 = ORIENTED_EDGE('',*,*,#813,.T.);
#813 = EDGE_CURVE('',#226,#427,#814,.T.);
#814 = LINE('',#815,#816);
#815 = CARTESIAN_POINT('',(114.75,-53.25,13.19));
#816 = VECTOR('',#817,1.);
#817 = DIRECTION('',(0.,0.,1.));
#818 = ORIENTED_EDGE('',*,*,#434,.T.);
#819 = ORIENTED_EDGE('',*,*,#793,.T.);
#820 = CYLINDRICAL_SURFACE('',#821,0.3);
#821 = AXIS2_PLACEMENT_3D('',#822,#823,#824);
#822 = CARTESIAN_POINT('',(114.75,-52.95,13.19));
#823 = DIRECTION('',(0.,0.,-1.));
#824 = DIRECTION('',(0.,-1.,0.));
#825 = ADVANCED_FACE('',(#826),#837,.F.);
#826 = FACE_BOUND('',#827,.F.);
#827 = EDGE_LOOP('',(#828,#834,#835,#836));
#828 = ORIENTED_EDGE('',*,*,#829,.T.);
#829 = EDGE_CURVE('',#217,#418,#830,.T.);
#830 = LINE('',#831,#832);
#831 = CARTESIAN_POINT('',(130.85,-53.25,13.19));
#832 = VECTOR('',#833,1.);
#833 = DIRECTION('',(0.,0.,1.));
#834 = ORIENTED_EDGE('',*,*,#426,.T.);
#835 = ORIENTED_EDGE('',*,*,#813,.F.);
#836 = ORIENTED_EDGE('',*,*,#225,.F.);
#837 = PLANE('',#838);
#838 = AXIS2_PLACEMENT_3D('',#839,#840,#841);
#839 = CARTESIAN_POINT('',(130.85,-53.25,13.19));
#840 = DIRECTION('',(0.,-1.,0.));
#841 = DIRECTION('',(-1.,0.,0.));
#842 = ADVANCED_FACE('',(#843),#854,.F.);
#843 = FACE_BOUND('',#844,.F.);
#844 = EDGE_LOOP('',(#845,#851,#852,#853));
#845 = ORIENTED_EDGE('',*,*,#846,.T.);
#846 = EDGE_CURVE('',#209,#410,#847,.T.);
#847 = LINE('',#848,#849);
#848 = CARTESIAN_POINT('',(131.15,-52.95,13.19));
#849 = VECTOR('',#850,1.);
#850 = DIRECTION('',(0.,0.,1.));
#851 = ORIENTED_EDGE('',*,*,#417,.T.);
#852 = ORIENTED_EDGE('',*,*,#829,.F.);
#853 = ORIENTED_EDGE('',*,*,#216,.F.);
#854 = CYLINDRICAL_SURFACE('',#855,0.3);
#855 = AXIS2_PLACEMENT_3D('',#856,#857,#858);
#856 = CARTESIAN_POINT('',(130.85,-52.95,13.19));
#857 = DIRECTION('',(0.,0.,-1.));
#858 = DIRECTION('',(1.,4.737E-14,0.));
#859 = ADVANCED_FACE('',(#860),#871,.F.);
#860 = FACE_BOUND('',#861,.F.);
#861 = EDGE_LOOP('',(#862,#868,#869,#870));
#862 = ORIENTED_EDGE('',*,*,#863,.T.);
#863 = EDGE_CURVE('',#200,#401,#864,.T.);
#864 = LINE('',#865,#866);
#865 = CARTESIAN_POINT('',(131.15,-14.95,13.19));
#866 = VECTOR('',#867,1.);
#867 = DIRECTION('',(0.,0.,1.));
#868 = ORIENTED_EDGE('',*,*,#409,.T.);
#869 = ORIENTED_EDGE('',*,*,#846,.F.);
#870 = ORIENTED_EDGE('',*,*,#208,.F.);
#871 = PLANE('',#872);
#872 = AXIS2_PLACEMENT_3D('',#873,#874,#875);
#873 = CARTESIAN_POINT('',(131.15,-14.95,13.19));
#874 = DIRECTION('',(1.,0.,0.));
#875 = DIRECTION('',(0.,-1.,0.));
#876 = ADVANCED_FACE('',(#877),#888,.F.);
#877 = FACE_BOUND('',#878,.F.);
#878 = EDGE_LOOP('',(#879,#885,#886,#887));
#879 = ORIENTED_EDGE('',*,*,#880,.T.);
#880 = EDGE_CURVE('',#192,#393,#881,.T.);
#881 = LINE('',#882,#883);
#882 = CARTESIAN_POINT('',(130.85,-14.65,13.19));
#883 = VECTOR('',#884,1.);
#884 = DIRECTION('',(0.,0.,1.));
#885 = ORIENTED_EDGE('',*,*,#400,.T.);
#886 = ORIENTED_EDGE('',*,*,#863,.F.);
#887 = ORIENTED_EDGE('',*,*,#199,.F.);
#888 = CYLINDRICAL_SURFACE('',#889,0.3);
#889 = AXIS2_PLACEMENT_3D('',#890,#891,#892);
#890 = CARTESIAN_POINT('',(130.85,-14.95,13.19));
#891 = DIRECTION('',(0.,0.,-1.));
#892 = DIRECTION('',(-9.474E-14,1.,0.));
#893 = ADVANCED_FACE('',(#894),#905,.F.);
#894 = FACE_BOUND('',#895,.F.);
#895 = EDGE_LOOP('',(#896,#902,#903,#904));
#896 = ORIENTED_EDGE('',*,*,#897,.T.);
#897 = EDGE_CURVE('',#183,#384,#898,.T.);
#898 = LINE('',#899,#900);
#899 = CARTESIAN_POINT('',(114.75,-14.65,13.19));
#900 = VECTOR('',#901,1.);
#901 = DIRECTION('',(0.,0.,1.));
#902 = ORIENTED_EDGE('',*,*,#392,.T.);
#903 = ORIENTED_EDGE('',*,*,#880,.F.);
#904 = ORIENTED_EDGE('',*,*,#191,.F.);
#905 = PLANE('',#906);
#906 = AXIS2_PLACEMENT_3D('',#907,#908,#909);
#907 = CARTESIAN_POINT('',(114.75,-14.65,13.19));
#908 = DIRECTION('',(0.,1.,0.));
#909 = DIRECTION('',(1.,0.,0.));
#910 = ADVANCED_FACE('',(#911),#917,.F.);
#911 = FACE_BOUND('',#912,.F.);
#912 = EDGE_LOOP('',(#913,#914,#915,#916));
#913 = ORIENTED_EDGE('',*,*,#619,.T.);
#914 = ORIENTED_EDGE('',*,*,#383,.T.);
#915 = ORIENTED_EDGE('',*,*,#897,.F.);
#916 = ORIENTED_EDGE('',*,*,#182,.F.);
#917 = CYLINDRICAL_SURFACE('',#918,0.3);
#918 = AXIS2_PLACEMENT_3D('',#919,#920,#921);
#919 = CARTESIAN_POINT('',(114.75,-14.95,13.19));
#920 = DIRECTION('',(0.,0.,-1.));
#921 = DIRECTION('',(-1.,-5.92E-15,-0.));
#922 = ( GEOMETRIC_REPRESENTATION_CONTEXT(3) 
GLOBAL_UNCERTAINTY_ASSIGNED_CONTEXT((#926)) GLOBAL_UNIT_ASSIGNED_CONTEXT
((#923,#924,#925)) REPRESENTATION_CONTEXT('Context #1',
  '3D Context with UNIT and UNCERTAINTY') );
#923 = ( LENGTH_UNIT() NAMED_UNIT(*) SI_UNIT(.MILLI.,.METRE.) );
#924 = ( NAMED_UNIT(*) PLANE_ANGLE_UNIT() SI_UNIT($,.RADIAN.) );
#925 = ( NAMED_UNIT(*) SI_UNIT($,.STERADIAN.) SOLID_ANGLE_UNIT() );
#926 = UNCERTAINTY_MEASURE_WITH_UNIT(LENGTH_MEASURE(5.E-07),#923,
  'distance_accuracy_value','confusion accuracy');
#927 = PRODUCT_RELATED_PRODUCT_CATEGORY('part',$,(#7));
ENDSEC;
END-ISO-10303-21;
