ISO-10303-21;
HEADER;
FILE_DESCRIPTION(('FreeCAD Model'),'2;1');
FILE_NAME('Open CASCADE Shape Model','2026-09-28T17:20:09',('FreeCAD'),(
    'FreeCAD'),'Open CASCADE STEP processor 7.8','FreeCAD','Unknown');
FILE_SCHEMA(('AUTOMOTIVE_DESIGN { 1 0 10303 214 1 1 1 1 }'));
ENDSEC;
DATA;
#1 = APPLICATION_PROTOCOL_DEFINITION('international standard',
  'automotive_design',2000,#2);
#2 = APPLICATION_CONTEXT(
  'core data for automotive mechanical design processes');
#3 = SHAPE_DEFINITION_REPRESENTATION(#4,#10);
#4 = PRODUCT_DEFINITION_SHAPE('','',#5);
#5 = PRODUCT_DEFINITION('design','',#6,#9);
#6 = PRODUCT_DEFINITION_FORMATION('','',#7);
#7 = PRODUCT('Open CASCADE STEP translator 7.8 60',
  'Open CASCADE STEP translator 7.8 60','',(#8));
#8 = PRODUCT_CONTEXT('',#2,'mechanical');
#9 = PRODUCT_DEFINITION_CONTEXT('part definition',#2,'design');
#10 = SHAPE_REPRESENTATION('',(#11,#15,#132),#422);
#11 = AXIS2_PLACEMENT_3D('',#12,#13,#14);
#12 = CARTESIAN_POINT('',(0.,0.,0.));
#13 = DIRECTION('',(0.,0.,1.));
#14 = DIRECTION('',(1.,0.,-0.));
#15 = MANIFOLD_SOLID_BREP('',#16);
#16 = CLOSED_SHELL('',(#17,#57,#88,#110,#121));
#17 = ADVANCED_FACE('',(#18),#52,.T.);
#18 = FACE_BOUND('',#19,.T.);
#19 = EDGE_LOOP('',(#20,#30,#38,#46));
#20 = ORIENTED_EDGE('',*,*,#21,.T.);
#21 = EDGE_CURVE('',#22,#24,#26,.T.);
#22 = VERTEX_POINT('',#23);
#23 = CARTESIAN_POINT('',(128.3,-56.3,12.99));
#24 = VERTEX_POINT('',#25);
#25 = CARTESIAN_POINT('',(128.3,-56.3,13.39));
#26 = LINE('',#27,#28);
#27 = CARTESIAN_POINT('',(128.3,-56.3,12.99));
#28 = VECTOR('',#29,1.);
#29 = DIRECTION('',(0.,0.,1.));
#30 = ORIENTED_EDGE('',*,*,#31,.T.);
#31 = EDGE_CURVE('',#24,#32,#34,.T.);
#32 = VERTEX_POINT('',#33);
#33 = CARTESIAN_POINT('',(131.4,-57.9,13.39));
#34 = LINE('',#35,#36);
#35 = CARTESIAN_POINT('',(128.3,-56.3,13.39));
#36 = VECTOR('',#37,1.);
#37 = DIRECTION('',(0.888620657055,-0.45864291977,0.));
#38 = ORIENTED_EDGE('',*,*,#39,.F.);
#39 = EDGE_CURVE('',#40,#32,#42,.T.);
#40 = VERTEX_POINT('',#41);
#41 = CARTESIAN_POINT('',(131.4,-57.9,12.99));
#42 = LINE('',#43,#44);
#43 = CARTESIAN_POINT('',(131.4,-57.9,12.99));
#44 = VECTOR('',#45,1.);
#45 = DIRECTION('',(0.,0.,1.));
#46 = ORIENTED_EDGE('',*,*,#47,.F.);
#47 = EDGE_CURVE('',#22,#40,#48,.T.);
#48 = LINE('',#49,#50);
#49 = CARTESIAN_POINT('',(128.3,-56.3,12.99));
#50 = VECTOR('',#51,1.);
#51 = DIRECTION('',(0.888620657055,-0.45864291977,0.));
#52 = PLANE('',#53);
#53 = AXIS2_PLACEMENT_3D('',#54,#55,#56);
#54 = CARTESIAN_POINT('',(128.3,-56.3,12.99));
#55 = DIRECTION('',(0.45864291977,0.888620657055,0.));
#56 = DIRECTION('',(0.888620657055,-0.45864291977,0.));
#57 = ADVANCED_FACE('',(#58),#83,.T.);
#58 = FACE_BOUND('',#59,.T.);
#59 = EDGE_LOOP('',(#60,#61,#69,#77));
#60 = ORIENTED_EDGE('',*,*,#39,.T.);
#61 = ORIENTED_EDGE('',*,*,#62,.T.);
#62 = EDGE_CURVE('',#32,#63,#65,.T.);
#63 = VERTEX_POINT('',#64);
#64 = CARTESIAN_POINT('',(128.3,-59.5,13.39));
#65 = LINE('',#66,#67);
#66 = CARTESIAN_POINT('',(131.4,-57.9,13.39));
#67 = VECTOR('',#68,1.);
#68 = DIRECTION('',(-0.888620657055,-0.45864291977,0.));
#69 = ORIENTED_EDGE('',*,*,#70,.F.);
#70 = EDGE_CURVE('',#71,#63,#73,.T.);
#71 = VERTEX_POINT('',#72);
#72 = CARTESIAN_POINT('',(128.3,-59.5,12.99));
#73 = LINE('',#74,#75);
#74 = CARTESIAN_POINT('',(128.3,-59.5,12.99));
#75 = VECTOR('',#76,1.);
#76 = DIRECTION('',(0.,0.,1.));
#77 = ORIENTED_EDGE('',*,*,#78,.F.);
#78 = EDGE_CURVE('',#40,#71,#79,.T.);
#79 = LINE('',#80,#81);
#80 = CARTESIAN_POINT('',(131.4,-57.9,12.99));
#81 = VECTOR('',#82,1.);
#82 = DIRECTION('',(-0.888620657055,-0.45864291977,0.));
#83 = PLANE('',#84);
#84 = AXIS2_PLACEMENT_3D('',#85,#86,#87);
#85 = CARTESIAN_POINT('',(131.4,-57.9,12.99));
#86 = DIRECTION('',(0.45864291977,-0.888620657055,0.));
#87 = DIRECTION('',(-0.888620657055,-0.45864291977,0.));
#88 = ADVANCED_FACE('',(#89),#105,.T.);
#89 = FACE_BOUND('',#90,.T.);
#90 = EDGE_LOOP('',(#91,#92,#98,#99));
#91 = ORIENTED_EDGE('',*,*,#70,.T.);
#92 = ORIENTED_EDGE('',*,*,#93,.T.);
#93 = EDGE_CURVE('',#63,#24,#94,.T.);
#94 = LINE('',#95,#96);
#95 = CARTESIAN_POINT('',(128.3,-59.5,13.39));
#96 = VECTOR('',#97,1.);
#97 = DIRECTION('',(0.,1.,0.));
#98 = ORIENTED_EDGE('',*,*,#21,.F.);
#99 = ORIENTED_EDGE('',*,*,#100,.F.);
#100 = EDGE_CURVE('',#71,#22,#101,.T.);
#101 = LINE('',#102,#103);
#102 = CARTESIAN_POINT('',(128.3,-59.5,12.99));
#103 = VECTOR('',#104,1.);
#104 = DIRECTION('',(0.,1.,0.));
#105 = PLANE('',#106);
#106 = AXIS2_PLACEMENT_3D('',#107,#108,#109);
#107 = CARTESIAN_POINT('',(128.3,-59.5,12.99));
#108 = DIRECTION('',(-1.,0.,0.));
#109 = DIRECTION('',(0.,1.,0.));
#110 = ADVANCED_FACE('',(#111),#116,.F.);
#111 = FACE_BOUND('',#112,.T.);
#112 = EDGE_LOOP('',(#113,#114,#115));
#113 = ORIENTED_EDGE('',*,*,#47,.T.);
#114 = ORIENTED_EDGE('',*,*,#78,.T.);
#115 = ORIENTED_EDGE('',*,*,#100,.T.);
#116 = PLANE('',#117);
#117 = AXIS2_PLACEMENT_3D('',#118,#119,#120);
#118 = CARTESIAN_POINT('',(129.36263155909,-57.9,12.99));
#119 = DIRECTION('',(0.,0.,1.));
#120 = DIRECTION('',(1.,0.,0.));
#121 = ADVANCED_FACE('',(#122),#127,.T.);
#122 = FACE_BOUND('',#123,.F.);
#123 = EDGE_LOOP('',(#124,#125,#126));
#124 = ORIENTED_EDGE('',*,*,#31,.T.);
#125 = ORIENTED_EDGE('',*,*,#62,.T.);
#126 = ORIENTED_EDGE('',*,*,#93,.T.);
#127 = PLANE('',#128);
#128 = AXIS2_PLACEMENT_3D('',#129,#130,#131);
#129 = CARTESIAN_POINT('',(129.36263155909,-57.9,13.39));
#130 = DIRECTION('',(0.,0.,1.));
#131 = DIRECTION('',(1.,0.,0.));
#132 = MANIFOLD_SOLID_BREP('',#133);
#133 = CLOSED_SHELL('',(#134,#174,#207,#238,#271,#302,#335,#366,#390,
    #406));
#134 = ADVANCED_FACE('',(#135),#169,.T.);
#135 = FACE_BOUND('',#136,.T.);
#136 = EDGE_LOOP('',(#137,#147,#155,#163));
#137 = ORIENTED_EDGE('',*,*,#138,.T.);
#138 = EDGE_CURVE('',#139,#141,#143,.T.);
#139 = VERTEX_POINT('',#140);
#140 = CARTESIAN_POINT('',(128.9,-61.7,12.99));
#141 = VERTEX_POINT('',#142);
#142 = CARTESIAN_POINT('',(128.9,-61.7,13.39));
#143 = LINE('',#144,#145);
#144 = CARTESIAN_POINT('',(128.9,-61.7,12.99));
#145 = VECTOR('',#146,1.);
#146 = DIRECTION('',(0.,0.,1.));
#147 = ORIENTED_EDGE('',*,*,#148,.T.);
#148 = EDGE_CURVE('',#141,#149,#151,.T.);
#149 = VERTEX_POINT('',#150);
#150 = CARTESIAN_POINT('',(130.6,-61.7,13.39));
#151 = LINE('',#152,#153);
#152 = CARTESIAN_POINT('',(128.9,-61.7,13.39));
#153 = VECTOR('',#154,1.);
#154 = DIRECTION('',(1.,0.,0.));
#155 = ORIENTED_EDGE('',*,*,#156,.F.);
#156 = EDGE_CURVE('',#157,#149,#159,.T.);
#157 = VERTEX_POINT('',#158);
#158 = CARTESIAN_POINT('',(130.6,-61.7,12.99));
#159 = LINE('',#160,#161);
#160 = CARTESIAN_POINT('',(130.6,-61.7,12.99));
#161 = VECTOR('',#162,1.);
#162 = DIRECTION('',(0.,0.,1.));
#163 = ORIENTED_EDGE('',*,*,#164,.F.);
#164 = EDGE_CURVE('',#139,#157,#165,.T.);
#165 = LINE('',#166,#167);
#166 = CARTESIAN_POINT('',(128.9,-61.7,12.99));
#167 = VECTOR('',#168,1.);
#168 = DIRECTION('',(1.,0.,0.));
#169 = PLANE('',#170);
#170 = AXIS2_PLACEMENT_3D('',#171,#172,#173);
#171 = CARTESIAN_POINT('',(128.9,-61.7,12.99));
#172 = DIRECTION('',(0.,1.,0.));
#173 = DIRECTION('',(1.,0.,0.));
#174 = ADVANCED_FACE('',(#175),#202,.T.);
#175 = FACE_BOUND('',#176,.T.);
#176 = EDGE_LOOP('',(#177,#178,#187,#195));
#177 = ORIENTED_EDGE('',*,*,#156,.T.);
#178 = ORIENTED_EDGE('',*,*,#179,.T.);
#179 = EDGE_CURVE('',#149,#180,#182,.T.);
#180 = VERTEX_POINT('',#181);
#181 = CARTESIAN_POINT('',(131.,-62.1,13.39));
#182 = CIRCLE('',#183,0.4);
#183 = AXIS2_PLACEMENT_3D('',#184,#185,#186);
#184 = CARTESIAN_POINT('',(130.6,-62.1,13.39));
#185 = DIRECTION('',(0.,0.,-1.));
#186 = DIRECTION('',(-7.105E-14,1.,0.));
#187 = ORIENTED_EDGE('',*,*,#188,.F.);
#188 = EDGE_CURVE('',#189,#180,#191,.T.);
#189 = VERTEX_POINT('',#190);
#190 = CARTESIAN_POINT('',(131.,-62.1,12.99));
#191 = LINE('',#192,#193);
#192 = CARTESIAN_POINT('',(131.,-62.1,12.99));
#193 = VECTOR('',#194,1.);
#194 = DIRECTION('',(0.,0.,1.));
#195 = ORIENTED_EDGE('',*,*,#196,.F.);
#196 = EDGE_CURVE('',#157,#189,#197,.T.);
#197 = CIRCLE('',#198,0.4);
#198 = AXIS2_PLACEMENT_3D('',#199,#200,#201);
#199 = CARTESIAN_POINT('',(130.6,-62.1,12.99));
#200 = DIRECTION('',(0.,0.,-1.));
#201 = DIRECTION('',(-7.105E-14,1.,0.));
#202 = CYLINDRICAL_SURFACE('',#203,0.4);
#203 = AXIS2_PLACEMENT_3D('',#204,#205,#206);
#204 = CARTESIAN_POINT('',(130.6,-62.1,12.99));
#205 = DIRECTION('',(0.,0.,-1.));
#206 = DIRECTION('',(-7.105E-14,1.,0.));
#207 = ADVANCED_FACE('',(#208),#233,.T.);
#208 = FACE_BOUND('',#209,.T.);
#209 = EDGE_LOOP('',(#210,#211,#219,#227));
#210 = ORIENTED_EDGE('',*,*,#188,.T.);
#211 = ORIENTED_EDGE('',*,*,#212,.T.);
#212 = EDGE_CURVE('',#180,#213,#215,.T.);
#213 = VERTEX_POINT('',#214);
#214 = CARTESIAN_POINT('',(131.,-63.8,13.39));
#215 = LINE('',#216,#217);
#216 = CARTESIAN_POINT('',(131.,-62.1,13.39));
#217 = VECTOR('',#218,1.);
#218 = DIRECTION('',(0.,-1.,0.));
#219 = ORIENTED_EDGE('',*,*,#220,.F.);
#220 = EDGE_CURVE('',#221,#213,#223,.T.);
#221 = VERTEX_POINT('',#222);
#222 = CARTESIAN_POINT('',(131.,-63.8,12.99));
#223 = LINE('',#224,#225);
#224 = CARTESIAN_POINT('',(131.,-63.8,12.99));
#225 = VECTOR('',#226,1.);
#226 = DIRECTION('',(0.,0.,1.));
#227 = ORIENTED_EDGE('',*,*,#228,.F.);
#228 = EDGE_CURVE('',#189,#221,#229,.T.);
#229 = LINE('',#230,#231);
#230 = CARTESIAN_POINT('',(131.,-62.1,12.99));
#231 = VECTOR('',#232,1.);
#232 = DIRECTION('',(0.,-1.,0.));
#233 = PLANE('',#234);
#234 = AXIS2_PLACEMENT_3D('',#235,#236,#237);
#235 = CARTESIAN_POINT('',(131.,-62.1,12.99));
#236 = DIRECTION('',(1.,0.,0.));
#237 = DIRECTION('',(0.,-1.,0.));
#238 = ADVANCED_FACE('',(#239),#266,.T.);
#239 = FACE_BOUND('',#240,.T.);
#240 = EDGE_LOOP('',(#241,#242,#251,#259));
#241 = ORIENTED_EDGE('',*,*,#220,.T.);
#242 = ORIENTED_EDGE('',*,*,#243,.T.);
#243 = EDGE_CURVE('',#213,#244,#246,.T.);
#244 = VERTEX_POINT('',#245);
#245 = CARTESIAN_POINT('',(130.6,-64.2,13.39));
#246 = CIRCLE('',#247,0.4);
#247 = AXIS2_PLACEMENT_3D('',#248,#249,#250);
#248 = CARTESIAN_POINT('',(130.6,-63.8,13.39));
#249 = DIRECTION('',(0.,0.,-1.));
#250 = DIRECTION('',(1.,3.553E-14,0.));
#251 = ORIENTED_EDGE('',*,*,#252,.F.);
#252 = EDGE_CURVE('',#253,#244,#255,.T.);
#253 = VERTEX_POINT('',#254);
#254 = CARTESIAN_POINT('',(130.6,-64.2,12.99));
#255 = LINE('',#256,#257);
#256 = CARTESIAN_POINT('',(130.6,-64.2,12.99));
#257 = VECTOR('',#258,1.);
#258 = DIRECTION('',(0.,0.,1.));
#259 = ORIENTED_EDGE('',*,*,#260,.F.);
#260 = EDGE_CURVE('',#221,#253,#261,.T.);
#261 = CIRCLE('',#262,0.4);
#262 = AXIS2_PLACEMENT_3D('',#263,#264,#265);
#263 = CARTESIAN_POINT('',(130.6,-63.8,12.99));
#264 = DIRECTION('',(0.,0.,-1.));
#265 = DIRECTION('',(1.,3.553E-14,0.));
#266 = CYLINDRICAL_SURFACE('',#267,0.4);
#267 = AXIS2_PLACEMENT_3D('',#268,#269,#270);
#268 = CARTESIAN_POINT('',(130.6,-63.8,12.99));
#269 = DIRECTION('',(0.,0.,-1.));
#270 = DIRECTION('',(1.,3.553E-14,0.));
#271 = ADVANCED_FACE('',(#272),#297,.T.);
#272 = FACE_BOUND('',#273,.T.);
#273 = EDGE_LOOP('',(#274,#275,#283,#291));
#274 = ORIENTED_EDGE('',*,*,#252,.T.);
#275 = ORIENTED_EDGE('',*,*,#276,.T.);
#276 = EDGE_CURVE('',#244,#277,#279,.T.);
#277 = VERTEX_POINT('',#278);
#278 = CARTESIAN_POINT('',(128.9,-64.2,13.39));
#279 = LINE('',#280,#281);
#280 = CARTESIAN_POINT('',(130.6,-64.2,13.39));
#281 = VECTOR('',#282,1.);
#282 = DIRECTION('',(-1.,0.,0.));
#283 = ORIENTED_EDGE('',*,*,#284,.F.);
#284 = EDGE_CURVE('',#285,#277,#287,.T.);
#285 = VERTEX_POINT('',#286);
#286 = CARTESIAN_POINT('',(128.9,-64.2,12.99));
#287 = LINE('',#288,#289);
#288 = CARTESIAN_POINT('',(128.9,-64.2,12.99));
#289 = VECTOR('',#290,1.);
#290 = DIRECTION('',(0.,0.,1.));
#291 = ORIENTED_EDGE('',*,*,#292,.F.);
#292 = EDGE_CURVE('',#253,#285,#293,.T.);
#293 = LINE('',#294,#295);
#294 = CARTESIAN_POINT('',(130.6,-64.2,12.99));
#295 = VECTOR('',#296,1.);
#296 = DIRECTION('',(-1.,0.,0.));
#297 = PLANE('',#298);
#298 = AXIS2_PLACEMENT_3D('',#299,#300,#301);
#299 = CARTESIAN_POINT('',(130.6,-64.2,12.99));
#300 = DIRECTION('',(0.,-1.,0.));
#301 = DIRECTION('',(-1.,0.,0.));
#302 = ADVANCED_FACE('',(#303),#330,.T.);
#303 = FACE_BOUND('',#304,.T.);
#304 = EDGE_LOOP('',(#305,#306,#315,#323));
#305 = ORIENTED_EDGE('',*,*,#284,.T.);
#306 = ORIENTED_EDGE('',*,*,#307,.T.);
#307 = EDGE_CURVE('',#277,#308,#310,.T.);
#308 = VERTEX_POINT('',#309);
#309 = CARTESIAN_POINT('',(128.5,-63.8,13.39));
#310 = CIRCLE('',#311,0.4);
#311 = AXIS2_PLACEMENT_3D('',#312,#313,#314);
#312 = CARTESIAN_POINT('',(128.9,-63.8,13.39));
#313 = DIRECTION('',(0.,0.,-1.));
#314 = DIRECTION('',(0.,-1.,0.));
#315 = ORIENTED_EDGE('',*,*,#316,.F.);
#316 = EDGE_CURVE('',#317,#308,#319,.T.);
#317 = VERTEX_POINT('',#318);
#318 = CARTESIAN_POINT('',(128.5,-63.8,12.99));
#319 = LINE('',#320,#321);
#320 = CARTESIAN_POINT('',(128.5,-63.8,12.99));
#321 = VECTOR('',#322,1.);
#322 = DIRECTION('',(0.,0.,1.));
#323 = ORIENTED_EDGE('',*,*,#324,.F.);
#324 = EDGE_CURVE('',#285,#317,#325,.T.);
#325 = CIRCLE('',#326,0.4);
#326 = AXIS2_PLACEMENT_3D('',#327,#328,#329);
#327 = CARTESIAN_POINT('',(128.9,-63.8,12.99));
#328 = DIRECTION('',(0.,0.,-1.));
#329 = DIRECTION('',(0.,-1.,0.));
#330 = CYLINDRICAL_SURFACE('',#331,0.4);
#331 = AXIS2_PLACEMENT_3D('',#332,#333,#334);
#332 = CARTESIAN_POINT('',(128.9,-63.8,12.99));
#333 = DIRECTION('',(0.,0.,-1.));
#334 = DIRECTION('',(0.,-1.,0.));
#335 = ADVANCED_FACE('',(#336),#361,.T.);
#336 = FACE_BOUND('',#337,.T.);
#337 = EDGE_LOOP('',(#338,#339,#347,#355));
#338 = ORIENTED_EDGE('',*,*,#316,.T.);
#339 = ORIENTED_EDGE('',*,*,#340,.T.);
#340 = EDGE_CURVE('',#308,#341,#343,.T.);
#341 = VERTEX_POINT('',#342);
#342 = CARTESIAN_POINT('',(128.5,-62.1,13.39));
#343 = LINE('',#344,#345);
#344 = CARTESIAN_POINT('',(128.5,-63.8,13.39));
#345 = VECTOR('',#346,1.);
#346 = DIRECTION('',(0.,1.,0.));
#347 = ORIENTED_EDGE('',*,*,#348,.F.);
#348 = EDGE_CURVE('',#349,#341,#351,.T.);
#349 = VERTEX_POINT('',#350);
#350 = CARTESIAN_POINT('',(128.5,-62.1,12.99));
#351 = LINE('',#352,#353);
#352 = CARTESIAN_POINT('',(128.5,-62.1,12.99));
#353 = VECTOR('',#354,1.);
#354 = DIRECTION('',(0.,0.,1.));
#355 = ORIENTED_EDGE('',*,*,#356,.F.);
#356 = EDGE_CURVE('',#317,#349,#357,.T.);
#357 = LINE('',#358,#359);
#358 = CARTESIAN_POINT('',(128.5,-63.8,12.99));
#359 = VECTOR('',#360,1.);
#360 = DIRECTION('',(0.,1.,0.));
#361 = PLANE('',#362);
#362 = AXIS2_PLACEMENT_3D('',#363,#364,#365);
#363 = CARTESIAN_POINT('',(128.5,-63.8,12.99));
#364 = DIRECTION('',(-1.,0.,0.));
#365 = DIRECTION('',(0.,1.,0.));
#366 = ADVANCED_FACE('',(#367),#385,.T.);
#367 = FACE_BOUND('',#368,.T.);
#368 = EDGE_LOOP('',(#369,#370,#377,#378));
#369 = ORIENTED_EDGE('',*,*,#348,.T.);
#370 = ORIENTED_EDGE('',*,*,#371,.T.);
#371 = EDGE_CURVE('',#341,#141,#372,.T.);
#372 = CIRCLE('',#373,0.4);
#373 = AXIS2_PLACEMENT_3D('',#374,#375,#376);
#374 = CARTESIAN_POINT('',(128.9,-62.1,13.39));
#375 = DIRECTION('',(0.,0.,-1.));
#376 = DIRECTION('',(-1.,-5.329E-14,-0.));
#377 = ORIENTED_EDGE('',*,*,#138,.F.);
#378 = ORIENTED_EDGE('',*,*,#379,.F.);
#379 = EDGE_CURVE('',#349,#139,#380,.T.);
#380 = CIRCLE('',#381,0.4);
#381 = AXIS2_PLACEMENT_3D('',#382,#383,#384);
#382 = CARTESIAN_POINT('',(128.9,-62.1,12.99));
#383 = DIRECTION('',(0.,0.,-1.));
#384 = DIRECTION('',(-1.,-5.329E-14,-0.));
#385 = CYLINDRICAL_SURFACE('',#386,0.4);
#386 = AXIS2_PLACEMENT_3D('',#387,#388,#389);
#387 = CARTESIAN_POINT('',(128.9,-62.1,12.99));
#388 = DIRECTION('',(0.,0.,-1.));
#389 = DIRECTION('',(-1.,-5.329E-14,-0.));
#390 = ADVANCED_FACE('',(#391),#401,.F.);
#391 = FACE_BOUND('',#392,.T.);
#392 = EDGE_LOOP('',(#393,#394,#395,#396,#397,#398,#399,#400));
#393 = ORIENTED_EDGE('',*,*,#164,.T.);
#394 = ORIENTED_EDGE('',*,*,#196,.T.);
#395 = ORIENTED_EDGE('',*,*,#228,.T.);
#396 = ORIENTED_EDGE('',*,*,#260,.T.);
#397 = ORIENTED_EDGE('',*,*,#292,.T.);
#398 = ORIENTED_EDGE('',*,*,#324,.T.);
#399 = ORIENTED_EDGE('',*,*,#356,.T.);
#400 = ORIENTED_EDGE('',*,*,#379,.T.);
#401 = PLANE('',#402);
#402 = AXIS2_PLACEMENT_3D('',#403,#404,#405);
#403 = CARTESIAN_POINT('',(129.75,-62.95,12.99));
#404 = DIRECTION('',(0.,0.,1.));
#405 = DIRECTION('',(1.,0.,0.));
#406 = ADVANCED_FACE('',(#407),#417,.T.);
#407 = FACE_BOUND('',#408,.F.);
#408 = EDGE_LOOP('',(#409,#410,#411,#412,#413,#414,#415,#416));
#409 = ORIENTED_EDGE('',*,*,#148,.T.);
#410 = ORIENTED_EDGE('',*,*,#179,.T.);
#411 = ORIENTED_EDGE('',*,*,#212,.T.);
#412 = ORIENTED_EDGE('',*,*,#243,.T.);
#413 = ORIENTED_EDGE('',*,*,#276,.T.);
#414 = ORIENTED_EDGE('',*,*,#307,.T.);
#415 = ORIENTED_EDGE('',*,*,#340,.T.);
#416 = ORIENTED_EDGE('',*,*,#371,.T.);
#417 = PLANE('',#418);
#418 = AXIS2_PLACEMENT_3D('',#419,#420,#421);
#419 = CARTESIAN_POINT('',(129.75,-62.95,13.39));
#420 = DIRECTION('',(0.,0.,1.));
#421 = DIRECTION('',(1.,0.,0.));
#422 = ( GEOMETRIC_REPRESENTATION_CONTEXT(3) 
GLOBAL_UNCERTAINTY_ASSIGNED_CONTEXT((#426)) GLOBAL_UNIT_ASSIGNED_CONTEXT
((#423,#424,#425)) REPRESENTATION_CONTEXT('Context #1',
  '3D Context with UNIT and UNCERTAINTY') );
#423 = ( LENGTH_UNIT() NAMED_UNIT(*) SI_UNIT(.MILLI.,.METRE.) );
#424 = ( NAMED_UNIT(*) PLANE_ANGLE_UNIT() SI_UNIT($,.RADIAN.) );
#425 = ( NAMED_UNIT(*) SI_UNIT($,.STERADIAN.) SOLID_ANGLE_UNIT() );
#426 = UNCERTAINTY_MEASURE_WITH_UNIT(LENGTH_MEASURE(1.E-07),#423,
  'distance_accuracy_value','confusion accuracy');
#427 = PRODUCT_RELATED_PRODUCT_CATEGORY('part',$,(#7));
ENDSEC;
END-ISO-10303-21;
