ISO-10303-21;
HEADER;
FILE_DESCRIPTION(('FreeCAD Model'),'2;1');
FILE_NAME('Open CASCADE Shape Model','2026-09-28T15:53:59',('FreeCAD'),(
    'FreeCAD'),'Open CASCADE STEP processor 7.8','FreeCAD','Unknown');
FILE_SCHEMA(('AUTOMOTIVE_DESIGN { 1 0 10303 214 1 1 1 1 }'));
ENDSEC;
DATA;
#1 = APPLICATION_PROTOCOL_DEFINITION('international standard',
  'automotive_design',2000,#2);
#2 = APPLICATION_CONTEXT(
  'core data for automotive mechanical design processes');
#3 = SHAPE_DEFINITION_REPRESENTATION(#4,#10);
#4 = PRODUCT_DEFINITION_SHAPE('','',#5);
#5 = PRODUCT_DEFINITION('design','',#6,#9);
#6 = PRODUCT_DEFINITION_FORMATION('','',#7);
#7 = PRODUCT('Open CASCADE STEP translator 7.8 14',
  'Open CASCADE STEP translator 7.8 14','',(#8));
#8 = PRODUCT_CONTEXT('',#2,'mechanical');
#9 = PRODUCT_DEFINITION_CONTEXT('part definition',#2,'design');
#10 = SHAPE_REPRESENTATION('',(#11,#15,#579),#869);
#11 = AXIS2_PLACEMENT_3D('',#12,#13,#14);
#12 = CARTESIAN_POINT('',(0.,0.,0.));
#13 = DIRECTION('',(0.,0.,1.));
#14 = DIRECTION('',(1.,0.,-0.));
#15 = MANIFOLD_SOLID_BREP('',#16);
#16 = CLOSED_SHELL('',(#17,#57,#88,#212,#237,#261,#285,#310,#334,#358,
    #382,#406,#430,#454,#478,#503,#527,#554));
#17 = ADVANCED_FACE('',(#18),#52,.F.);
#18 = FACE_BOUND('',#19,.F.);
#19 = EDGE_LOOP('',(#20,#30,#38,#46));
#20 = ORIENTED_EDGE('',*,*,#21,.F.);
#21 = EDGE_CURVE('',#22,#24,#26,.T.);
#22 = VERTEX_POINT('',#23);
#23 = CARTESIAN_POINT('',(111.,-15.5,12.99));
#24 = VERTEX_POINT('',#25);
#25 = CARTESIAN_POINT('',(111.,-15.5,13.39));
#26 = LINE('',#27,#28);
#27 = CARTESIAN_POINT('',(111.,-15.5,12.99));
#28 = VECTOR('',#29,1.);
#29 = DIRECTION('',(0.,0.,1.));
#30 = ORIENTED_EDGE('',*,*,#31,.T.);
#31 = EDGE_CURVE('',#22,#32,#34,.T.);
#32 = VERTEX_POINT('',#33);
#33 = CARTESIAN_POINT('',(111.,-12.2,12.99));
#34 = LINE('',#35,#36);
#35 = CARTESIAN_POINT('',(111.,-15.5,12.99));
#36 = VECTOR('',#37,1.);
#37 = DIRECTION('',(0.,1.,0.));
#38 = ORIENTED_EDGE('',*,*,#39,.T.);
#39 = EDGE_CURVE('',#32,#40,#42,.T.);
#40 = VERTEX_POINT('',#41);
#41 = CARTESIAN_POINT('',(111.,-12.2,13.39));
#42 = LINE('',#43,#44);
#43 = CARTESIAN_POINT('',(111.,-12.2,6.3));
#44 = VECTOR('',#45,1.);
#45 = DIRECTION('',(0.,0.,1.));
#46 = ORIENTED_EDGE('',*,*,#47,.F.);
#47 = EDGE_CURVE('',#24,#40,#48,.T.);
#48 = LINE('',#49,#50);
#49 = CARTESIAN_POINT('',(111.,-15.5,13.39));
#50 = VECTOR('',#51,1.);
#51 = DIRECTION('',(0.,1.,0.));
#52 = PLANE('',#53);
#53 = AXIS2_PLACEMENT_3D('',#54,#55,#56);
#54 = CARTESIAN_POINT('',(111.,-15.5,12.99));
#55 = DIRECTION('',(1.,0.,0.));
#56 = DIRECTION('',(0.,0.,1.));
#57 = ADVANCED_FACE('',(#58),#83,.F.);
#58 = FACE_BOUND('',#59,.F.);
#59 = EDGE_LOOP('',(#60,#68,#69,#77));
#60 = ORIENTED_EDGE('',*,*,#61,.F.);
#61 = EDGE_CURVE('',#22,#62,#64,.T.);
#62 = VERTEX_POINT('',#63);
#63 = CARTESIAN_POINT('',(111.8,-15.5,12.99));
#64 = LINE('',#65,#66);
#65 = CARTESIAN_POINT('',(111.,-15.5,12.99));
#66 = VECTOR('',#67,1.);
#67 = DIRECTION('',(1.,0.,0.));
#68 = ORIENTED_EDGE('',*,*,#21,.T.);
#69 = ORIENTED_EDGE('',*,*,#70,.T.);
#70 = EDGE_CURVE('',#24,#71,#73,.T.);
#71 = VERTEX_POINT('',#72);
#72 = CARTESIAN_POINT('',(111.8,-15.5,13.39));
#73 = LINE('',#74,#75);
#74 = CARTESIAN_POINT('',(111.,-15.5,13.39));
#75 = VECTOR('',#76,1.);
#76 = DIRECTION('',(1.,0.,0.));
#77 = ORIENTED_EDGE('',*,*,#78,.F.);
#78 = EDGE_CURVE('',#62,#71,#79,.T.);
#79 = LINE('',#80,#81);
#80 = CARTESIAN_POINT('',(111.8,-15.5,12.99));
#81 = VECTOR('',#82,1.);
#82 = DIRECTION('',(0.,0.,1.));
#83 = PLANE('',#84);
#84 = AXIS2_PLACEMENT_3D('',#85,#86,#87);
#85 = CARTESIAN_POINT('',(111.,-15.5,12.99));
#86 = DIRECTION('',(0.,1.,0.));
#87 = DIRECTION('',(0.,0.,1.));
#88 = ADVANCED_FACE('',(#89),#207,.T.);
#89 = FACE_BOUND('',#90,.T.);
#90 = EDGE_LOOP('',(#91,#101,#108,#109,#110,#118,#127,#135,#144,#152,
    #160,#168,#176,#184,#192,#200));
#91 = ORIENTED_EDGE('',*,*,#92,.F.);
#92 = EDGE_CURVE('',#93,#95,#97,.T.);
#93 = VERTEX_POINT('',#94);
#94 = CARTESIAN_POINT('',(112.2,-11.,13.39));
#95 = VERTEX_POINT('',#96);
#96 = CARTESIAN_POINT('',(132.6,-11.,13.39));
#97 = LINE('',#98,#99);
#98 = CARTESIAN_POINT('',(111.,-11.,13.39));
#99 = VECTOR('',#100,1.);
#100 = DIRECTION('',(1.,0.,0.));
#101 = ORIENTED_EDGE('',*,*,#102,.F.);
#102 = EDGE_CURVE('',#40,#93,#103,.T.);
#103 = CIRCLE('',#104,1.2);
#104 = AXIS2_PLACEMENT_3D('',#105,#106,#107);
#105 = CARTESIAN_POINT('',(112.2,-12.2,13.39));
#106 = DIRECTION('',(0.,0.,-1.));
#107 = DIRECTION('',(-1.,4.44E-15,0.));
#108 = ORIENTED_EDGE('',*,*,#47,.F.);
#109 = ORIENTED_EDGE('',*,*,#70,.T.);
#110 = ORIENTED_EDGE('',*,*,#111,.F.);
#111 = EDGE_CURVE('',#112,#71,#114,.T.);
#112 = VERTEX_POINT('',#113);
#113 = CARTESIAN_POINT('',(111.8,-24.3,13.39));
#114 = LINE('',#115,#116);
#115 = CARTESIAN_POINT('',(111.8,-24.3,13.39));
#116 = VECTOR('',#117,1.);
#117 = DIRECTION('',(0.,1.,0.));
#118 = ORIENTED_EDGE('',*,*,#119,.F.);
#119 = EDGE_CURVE('',#120,#112,#122,.T.);
#120 = VERTEX_POINT('',#121);
#121 = CARTESIAN_POINT('',(113.,-25.5,13.39));
#122 = CIRCLE('',#123,1.2);
#123 = AXIS2_PLACEMENT_3D('',#124,#125,#126);
#124 = CARTESIAN_POINT('',(113.,-24.3,13.39));
#125 = DIRECTION('',(0.,0.,-1.));
#126 = DIRECTION('',(-1.184E-14,-1.,-0.));
#127 = ORIENTED_EDGE('',*,*,#128,.F.);
#128 = EDGE_CURVE('',#129,#120,#131,.T.);
#129 = VERTEX_POINT('',#130);
#130 = CARTESIAN_POINT('',(113.1,-25.5,13.39));
#131 = LINE('',#132,#133);
#132 = CARTESIAN_POINT('',(113.1,-25.5,13.39));
#133 = VECTOR('',#134,1.);
#134 = DIRECTION('',(-1.,0.,0.));
#135 = ORIENTED_EDGE('',*,*,#136,.F.);
#136 = EDGE_CURVE('',#137,#129,#139,.T.);
#137 = VERTEX_POINT('',#138);
#138 = CARTESIAN_POINT('',(114.3,-24.3,13.39));
#139 = CIRCLE('',#140,1.2);
#140 = AXIS2_PLACEMENT_3D('',#141,#142,#143);
#141 = CARTESIAN_POINT('',(113.1,-24.3,13.39));
#142 = DIRECTION('',(0.,0.,-1.));
#143 = DIRECTION('',(1.,-1.184E-14,0.));
#144 = ORIENTED_EDGE('',*,*,#145,.F.);
#145 = EDGE_CURVE('',#146,#137,#148,.T.);
#146 = VERTEX_POINT('',#147);
#147 = CARTESIAN_POINT('',(114.3,-15.5,13.39));
#148 = LINE('',#149,#150);
#149 = CARTESIAN_POINT('',(114.3,-14.7,13.39));
#150 = VECTOR('',#151,1.);
#151 = DIRECTION('',(0.,-1.,0.));
#152 = ORIENTED_EDGE('',*,*,#153,.T.);
#153 = EDGE_CURVE('',#146,#154,#156,.T.);
#154 = VERTEX_POINT('',#155);
#155 = CARTESIAN_POINT('',(114.85,-15.5,13.39));
#156 = LINE('',#157,#158);
#157 = CARTESIAN_POINT('',(111.,-15.5,13.39));
#158 = VECTOR('',#159,1.);
#159 = DIRECTION('',(1.,0.,0.));
#160 = ORIENTED_EDGE('',*,*,#161,.T.);
#161 = EDGE_CURVE('',#154,#162,#164,.T.);
#162 = VERTEX_POINT('',#163);
#163 = CARTESIAN_POINT('',(114.85,-15.1,13.39));
#164 = LINE('',#165,#166);
#165 = CARTESIAN_POINT('',(114.85,-46.04893884022,13.39));
#166 = VECTOR('',#167,1.);
#167 = DIRECTION('',(0.,1.,0.));
#168 = ORIENTED_EDGE('',*,*,#169,.F.);
#169 = EDGE_CURVE('',#170,#162,#172,.T.);
#170 = VERTEX_POINT('',#171);
#171 = CARTESIAN_POINT('',(130.75,-15.1,13.39));
#172 = LINE('',#173,#174);
#173 = CARTESIAN_POINT('',(118.90334371508,-15.1,13.39));
#174 = VECTOR('',#175,1.);
#175 = DIRECTION('',(-1.,0.,0.));
#176 = ORIENTED_EDGE('',*,*,#177,.F.);
#177 = EDGE_CURVE('',#178,#170,#180,.T.);
#178 = VERTEX_POINT('',#179);
#179 = CARTESIAN_POINT('',(130.75,-15.5,13.39));
#180 = LINE('',#181,#182);
#181 = CARTESIAN_POINT('',(130.75,-46.04893884022,13.39));
#182 = VECTOR('',#183,1.);
#183 = DIRECTION('',(0.,1.,0.));
#184 = ORIENTED_EDGE('',*,*,#185,.T.);
#185 = EDGE_CURVE('',#178,#186,#188,.T.);
#186 = VERTEX_POINT('',#187);
#187 = CARTESIAN_POINT('',(135.,-15.5,13.39));
#188 = LINE('',#189,#190);
#189 = CARTESIAN_POINT('',(111.,-15.5,13.39));
#190 = VECTOR('',#191,1.);
#191 = DIRECTION('',(1.,0.,0.));
#192 = ORIENTED_EDGE('',*,*,#193,.T.);
#193 = EDGE_CURVE('',#186,#194,#196,.T.);
#194 = VERTEX_POINT('',#195);
#195 = CARTESIAN_POINT('',(135.,-13.4,13.39));
#196 = LINE('',#197,#198);
#197 = CARTESIAN_POINT('',(135.,-15.5,13.39));
#198 = VECTOR('',#199,1.);
#199 = DIRECTION('',(0.,1.,0.));
#200 = ORIENTED_EDGE('',*,*,#201,.F.);
#201 = EDGE_CURVE('',#95,#194,#202,.T.);
#202 = CIRCLE('',#203,2.4);
#203 = AXIS2_PLACEMENT_3D('',#204,#205,#206);
#204 = CARTESIAN_POINT('',(132.6,-13.4,13.39));
#205 = DIRECTION('',(0.,0.,-1.));
#206 = DIRECTION('',(0.,1.,0.));
#207 = PLANE('',#208);
#208 = AXIS2_PLACEMENT_3D('',#209,#210,#211);
#209 = CARTESIAN_POINT('',(120.51967538496,-15.31257543031,13.39));
#210 = DIRECTION('',(0.,0.,1.));
#211 = DIRECTION('',(1.,0.,0.));
#212 = ADVANCED_FACE('',(#213),#232,.T.);
#213 = FACE_BOUND('',#214,.T.);
#214 = EDGE_LOOP('',(#215,#224,#225,#226));
#215 = ORIENTED_EDGE('',*,*,#216,.F.);
#216 = EDGE_CURVE('',#32,#217,#219,.T.);
#217 = VERTEX_POINT('',#218);
#218 = CARTESIAN_POINT('',(112.2,-11.,12.99));
#219 = CIRCLE('',#220,1.2);
#220 = AXIS2_PLACEMENT_3D('',#221,#222,#223);
#221 = CARTESIAN_POINT('',(112.2,-12.2,12.99));
#222 = DIRECTION('',(0.,0.,-1.));
#223 = DIRECTION('',(-1.,4.44E-15,0.));
#224 = ORIENTED_EDGE('',*,*,#39,.T.);
#225 = ORIENTED_EDGE('',*,*,#102,.T.);
#226 = ORIENTED_EDGE('',*,*,#227,.F.);
#227 = EDGE_CURVE('',#217,#93,#228,.T.);
#228 = LINE('',#229,#230);
#229 = CARTESIAN_POINT('',(112.2,-11.,6.3));
#230 = VECTOR('',#231,1.);
#231 = DIRECTION('',(0.,0.,1.));
#232 = CYLINDRICAL_SURFACE('',#233,1.2);
#233 = AXIS2_PLACEMENT_3D('',#234,#235,#236);
#234 = CARTESIAN_POINT('',(112.2,-12.2,6.3));
#235 = DIRECTION('',(0.,0.,-1.));
#236 = DIRECTION('',(-1.,4.44E-15,0.));
#237 = ADVANCED_FACE('',(#238),#256,.T.);
#238 = FACE_BOUND('',#239,.T.);
#239 = EDGE_LOOP('',(#240,#248,#254,#255));
#240 = ORIENTED_EDGE('',*,*,#241,.F.);
#241 = EDGE_CURVE('',#242,#62,#244,.T.);
#242 = VERTEX_POINT('',#243);
#243 = CARTESIAN_POINT('',(111.8,-24.3,12.99));
#244 = LINE('',#245,#246);
#245 = CARTESIAN_POINT('',(111.8,-24.3,12.99));
#246 = VECTOR('',#247,1.);
#247 = DIRECTION('',(0.,1.,0.));
#248 = ORIENTED_EDGE('',*,*,#249,.T.);
#249 = EDGE_CURVE('',#242,#112,#250,.T.);
#250 = LINE('',#251,#252);
#251 = CARTESIAN_POINT('',(111.8,-24.3,12.99));
#252 = VECTOR('',#253,1.);
#253 = DIRECTION('',(0.,0.,1.));
#254 = ORIENTED_EDGE('',*,*,#111,.T.);
#255 = ORIENTED_EDGE('',*,*,#78,.F.);
#256 = PLANE('',#257);
#257 = AXIS2_PLACEMENT_3D('',#258,#259,#260);
#258 = CARTESIAN_POINT('',(111.8,-24.3,12.99));
#259 = DIRECTION('',(-1.,0.,0.));
#260 = DIRECTION('',(0.,1.,0.));
#261 = ADVANCED_FACE('',(#262),#280,.T.);
#262 = FACE_BOUND('',#263,.T.);
#263 = EDGE_LOOP('',(#264,#272,#273,#274));
#264 = ORIENTED_EDGE('',*,*,#265,.F.);
#265 = EDGE_CURVE('',#217,#266,#268,.T.);
#266 = VERTEX_POINT('',#267);
#267 = CARTESIAN_POINT('',(132.6,-11.,12.99));
#268 = LINE('',#269,#270);
#269 = CARTESIAN_POINT('',(111.,-11.,12.99));
#270 = VECTOR('',#271,1.);
#271 = DIRECTION('',(1.,0.,0.));
#272 = ORIENTED_EDGE('',*,*,#227,.T.);
#273 = ORIENTED_EDGE('',*,*,#92,.T.);
#274 = ORIENTED_EDGE('',*,*,#275,.F.);
#275 = EDGE_CURVE('',#266,#95,#276,.T.);
#276 = LINE('',#277,#278);
#277 = CARTESIAN_POINT('',(132.6,-11.,6.3));
#278 = VECTOR('',#279,1.);
#279 = DIRECTION('',(0.,0.,1.));
#280 = PLANE('',#281);
#281 = AXIS2_PLACEMENT_3D('',#282,#283,#284);
#282 = CARTESIAN_POINT('',(111.,-11.,12.99));
#283 = DIRECTION('',(0.,1.,0.));
#284 = DIRECTION('',(0.,0.,1.));
#285 = ADVANCED_FACE('',(#286),#305,.T.);
#286 = FACE_BOUND('',#287,.T.);
#287 = EDGE_LOOP('',(#288,#297,#298,#299));
#288 = ORIENTED_EDGE('',*,*,#289,.F.);
#289 = EDGE_CURVE('',#266,#290,#292,.T.);
#290 = VERTEX_POINT('',#291);
#291 = CARTESIAN_POINT('',(135.,-13.4,12.99));
#292 = CIRCLE('',#293,2.4);
#293 = AXIS2_PLACEMENT_3D('',#294,#295,#296);
#294 = CARTESIAN_POINT('',(132.6,-13.4,12.99));
#295 = DIRECTION('',(0.,0.,-1.));
#296 = DIRECTION('',(0.,1.,0.));
#297 = ORIENTED_EDGE('',*,*,#275,.T.);
#298 = ORIENTED_EDGE('',*,*,#201,.T.);
#299 = ORIENTED_EDGE('',*,*,#300,.F.);
#300 = EDGE_CURVE('',#290,#194,#301,.T.);
#301 = LINE('',#302,#303);
#302 = CARTESIAN_POINT('',(135.,-13.4,6.3));
#303 = VECTOR('',#304,1.);
#304 = DIRECTION('',(0.,0.,1.));
#305 = CYLINDRICAL_SURFACE('',#306,2.4);
#306 = AXIS2_PLACEMENT_3D('',#307,#308,#309);
#307 = CARTESIAN_POINT('',(132.6,-13.4,6.3));
#308 = DIRECTION('',(0.,0.,-1.));
#309 = DIRECTION('',(0.,1.,0.));
#310 = ADVANCED_FACE('',(#311),#329,.T.);
#311 = FACE_BOUND('',#312,.T.);
#312 = EDGE_LOOP('',(#313,#321,#327,#328));
#313 = ORIENTED_EDGE('',*,*,#314,.F.);
#314 = EDGE_CURVE('',#315,#186,#317,.T.);
#315 = VERTEX_POINT('',#316);
#316 = CARTESIAN_POINT('',(135.,-15.5,12.99));
#317 = LINE('',#318,#319);
#318 = CARTESIAN_POINT('',(135.,-15.5,12.99));
#319 = VECTOR('',#320,1.);
#320 = DIRECTION('',(0.,0.,1.));
#321 = ORIENTED_EDGE('',*,*,#322,.T.);
#322 = EDGE_CURVE('',#315,#290,#323,.T.);
#323 = LINE('',#324,#325);
#324 = CARTESIAN_POINT('',(135.,-15.5,12.99));
#325 = VECTOR('',#326,1.);
#326 = DIRECTION('',(0.,1.,0.));
#327 = ORIENTED_EDGE('',*,*,#300,.T.);
#328 = ORIENTED_EDGE('',*,*,#193,.F.);
#329 = PLANE('',#330);
#330 = AXIS2_PLACEMENT_3D('',#331,#332,#333);
#331 = CARTESIAN_POINT('',(135.,-15.5,12.99));
#332 = DIRECTION('',(1.,0.,0.));
#333 = DIRECTION('',(0.,0.,1.));
#334 = ADVANCED_FACE('',(#335),#353,.F.);
#335 = FACE_BOUND('',#336,.F.);
#336 = EDGE_LOOP('',(#337,#345,#351,#352));
#337 = ORIENTED_EDGE('',*,*,#338,.F.);
#338 = EDGE_CURVE('',#339,#315,#341,.T.);
#339 = VERTEX_POINT('',#340);
#340 = CARTESIAN_POINT('',(130.75,-15.5,12.99));
#341 = LINE('',#342,#343);
#342 = CARTESIAN_POINT('',(111.,-15.5,12.99));
#343 = VECTOR('',#344,1.);
#344 = DIRECTION('',(1.,0.,0.));
#345 = ORIENTED_EDGE('',*,*,#346,.F.);
#346 = EDGE_CURVE('',#178,#339,#347,.T.);
#347 = LINE('',#348,#349);
#348 = CARTESIAN_POINT('',(130.75,-15.5,12.345));
#349 = VECTOR('',#350,1.);
#350 = DIRECTION('',(0.,0.,-1.));
#351 = ORIENTED_EDGE('',*,*,#185,.T.);
#352 = ORIENTED_EDGE('',*,*,#314,.F.);
#353 = PLANE('',#354);
#354 = AXIS2_PLACEMENT_3D('',#355,#356,#357);
#355 = CARTESIAN_POINT('',(111.,-15.5,12.99));
#356 = DIRECTION('',(0.,1.,0.));
#357 = DIRECTION('',(0.,0.,1.));
#358 = ADVANCED_FACE('',(#359),#377,.F.);
#359 = FACE_BOUND('',#360,.F.);
#360 = EDGE_LOOP('',(#361,#362,#370,#376));
#361 = ORIENTED_EDGE('',*,*,#346,.T.);
#362 = ORIENTED_EDGE('',*,*,#363,.T.);
#363 = EDGE_CURVE('',#339,#364,#366,.T.);
#364 = VERTEX_POINT('',#365);
#365 = CARTESIAN_POINT('',(130.75,-15.1,12.99));
#366 = LINE('',#367,#368);
#367 = CARTESIAN_POINT('',(130.75,-46.04641870115,12.99));
#368 = VECTOR('',#369,1.);
#369 = DIRECTION('',(0.,1.,0.));
#370 = ORIENTED_EDGE('',*,*,#371,.T.);
#371 = EDGE_CURVE('',#364,#170,#372,.T.);
#372 = LINE('',#373,#374);
#373 = CARTESIAN_POINT('',(130.75,-15.1,11.7));
#374 = VECTOR('',#375,1.);
#375 = DIRECTION('',(0.,0.,1.));
#376 = ORIENTED_EDGE('',*,*,#177,.F.);
#377 = PLANE('',#378);
#378 = AXIS2_PLACEMENT_3D('',#379,#380,#381);
#379 = CARTESIAN_POINT('',(130.75,-53.,11.7));
#380 = DIRECTION('',(1.,0.,0.));
#381 = DIRECTION('',(0.,0.,1.));
#382 = ADVANCED_FACE('',(#383),#401,.F.);
#383 = FACE_BOUND('',#384,.F.);
#384 = EDGE_LOOP('',(#385,#386,#394,#400));
#385 = ORIENTED_EDGE('',*,*,#371,.F.);
#386 = ORIENTED_EDGE('',*,*,#387,.T.);
#387 = EDGE_CURVE('',#364,#388,#390,.T.);
#388 = VERTEX_POINT('',#389);
#389 = CARTESIAN_POINT('',(114.85,-15.1,12.99));
#390 = LINE('',#391,#392);
#391 = CARTESIAN_POINT('',(118.90608769591,-15.1,12.99));
#392 = VECTOR('',#393,1.);
#393 = DIRECTION('',(-1.,0.,0.));
#394 = ORIENTED_EDGE('',*,*,#395,.T.);
#395 = EDGE_CURVE('',#388,#162,#396,.T.);
#396 = LINE('',#397,#398);
#397 = CARTESIAN_POINT('',(114.85,-15.1,11.7));
#398 = VECTOR('',#399,1.);
#399 = DIRECTION('',(0.,0.,1.));
#400 = ORIENTED_EDGE('',*,*,#169,.F.);
#401 = PLANE('',#402);
#402 = AXIS2_PLACEMENT_3D('',#403,#404,#405);
#403 = CARTESIAN_POINT('',(114.85,-15.1,11.7));
#404 = DIRECTION('',(0.,1.,0.));
#405 = DIRECTION('',(0.,0.,1.));
#406 = ADVANCED_FACE('',(#407),#425,.T.);
#407 = FACE_BOUND('',#408,.T.);
#408 = EDGE_LOOP('',(#409,#417,#423,#424));
#409 = ORIENTED_EDGE('',*,*,#410,.T.);
#410 = EDGE_CURVE('',#154,#411,#413,.T.);
#411 = VERTEX_POINT('',#412);
#412 = CARTESIAN_POINT('',(114.85,-15.5,12.99));
#413 = LINE('',#414,#415);
#414 = CARTESIAN_POINT('',(114.85,-15.5,12.345));
#415 = VECTOR('',#416,1.);
#416 = DIRECTION('',(0.,0.,-1.));
#417 = ORIENTED_EDGE('',*,*,#418,.T.);
#418 = EDGE_CURVE('',#411,#388,#419,.T.);
#419 = LINE('',#420,#421);
#420 = CARTESIAN_POINT('',(114.85,-46.04641870115,12.99));
#421 = VECTOR('',#422,1.);
#422 = DIRECTION('',(0.,1.,0.));
#423 = ORIENTED_EDGE('',*,*,#395,.T.);
#424 = ORIENTED_EDGE('',*,*,#161,.F.);
#425 = PLANE('',#426);
#426 = AXIS2_PLACEMENT_3D('',#427,#428,#429);
#427 = CARTESIAN_POINT('',(114.85,-53.,11.7));
#428 = DIRECTION('',(1.,0.,0.));
#429 = DIRECTION('',(0.,0.,1.));
#430 = ADVANCED_FACE('',(#431),#449,.F.);
#431 = FACE_BOUND('',#432,.F.);
#432 = EDGE_LOOP('',(#433,#441,#447,#448));
#433 = ORIENTED_EDGE('',*,*,#434,.F.);
#434 = EDGE_CURVE('',#435,#411,#437,.T.);
#435 = VERTEX_POINT('',#436);
#436 = CARTESIAN_POINT('',(114.3,-15.5,12.99));
#437 = LINE('',#438,#439);
#438 = CARTESIAN_POINT('',(111.,-15.5,12.99));
#439 = VECTOR('',#440,1.);
#440 = DIRECTION('',(1.,0.,0.));
#441 = ORIENTED_EDGE('',*,*,#442,.F.);
#442 = EDGE_CURVE('',#146,#435,#443,.T.);
#443 = LINE('',#444,#445);
#444 = CARTESIAN_POINT('',(114.3,-15.5,12.99));
#445 = VECTOR('',#446,1.);
#446 = DIRECTION('',(0.,0.,-1.));
#447 = ORIENTED_EDGE('',*,*,#153,.T.);
#448 = ORIENTED_EDGE('',*,*,#410,.T.);
#449 = PLANE('',#450);
#450 = AXIS2_PLACEMENT_3D('',#451,#452,#453);
#451 = CARTESIAN_POINT('',(111.,-15.5,12.99));
#452 = DIRECTION('',(0.,1.,0.));
#453 = DIRECTION('',(0.,0.,1.));
#454 = ADVANCED_FACE('',(#455),#473,.T.);
#455 = FACE_BOUND('',#456,.T.);
#456 = EDGE_LOOP('',(#457,#465,#466,#467));
#457 = ORIENTED_EDGE('',*,*,#458,.F.);
#458 = EDGE_CURVE('',#435,#459,#461,.T.);
#459 = VERTEX_POINT('',#460);
#460 = CARTESIAN_POINT('',(114.3,-24.3,12.99));
#461 = LINE('',#462,#463);
#462 = CARTESIAN_POINT('',(114.3,-14.7,12.99));
#463 = VECTOR('',#464,1.);
#464 = DIRECTION('',(0.,-1.,0.));
#465 = ORIENTED_EDGE('',*,*,#442,.F.);
#466 = ORIENTED_EDGE('',*,*,#145,.T.);
#467 = ORIENTED_EDGE('',*,*,#468,.F.);
#468 = EDGE_CURVE('',#459,#137,#469,.T.);
#469 = LINE('',#470,#471);
#470 = CARTESIAN_POINT('',(114.3,-24.3,12.99));
#471 = VECTOR('',#472,1.);
#472 = DIRECTION('',(0.,0.,1.));
#473 = PLANE('',#474);
#474 = AXIS2_PLACEMENT_3D('',#475,#476,#477);
#475 = CARTESIAN_POINT('',(114.3,-14.7,12.99));
#476 = DIRECTION('',(1.,0.,0.));
#477 = DIRECTION('',(0.,-1.,0.));
#478 = ADVANCED_FACE('',(#479),#498,.T.);
#479 = FACE_BOUND('',#480,.T.);
#480 = EDGE_LOOP('',(#481,#482,#483,#491));
#481 = ORIENTED_EDGE('',*,*,#468,.T.);
#482 = ORIENTED_EDGE('',*,*,#136,.T.);
#483 = ORIENTED_EDGE('',*,*,#484,.F.);
#484 = EDGE_CURVE('',#485,#129,#487,.T.);
#485 = VERTEX_POINT('',#486);
#486 = CARTESIAN_POINT('',(113.1,-25.5,12.99));
#487 = LINE('',#488,#489);
#488 = CARTESIAN_POINT('',(113.1,-25.5,12.99));
#489 = VECTOR('',#490,1.);
#490 = DIRECTION('',(0.,0.,1.));
#491 = ORIENTED_EDGE('',*,*,#492,.F.);
#492 = EDGE_CURVE('',#459,#485,#493,.T.);
#493 = CIRCLE('',#494,1.2);
#494 = AXIS2_PLACEMENT_3D('',#495,#496,#497);
#495 = CARTESIAN_POINT('',(113.1,-24.3,12.99));
#496 = DIRECTION('',(0.,0.,-1.));
#497 = DIRECTION('',(1.,-1.184E-14,0.));
#498 = CYLINDRICAL_SURFACE('',#499,1.2);
#499 = AXIS2_PLACEMENT_3D('',#500,#501,#502);
#500 = CARTESIAN_POINT('',(113.1,-24.3,12.99));
#501 = DIRECTION('',(0.,0.,-1.));
#502 = DIRECTION('',(1.,-1.184E-14,0.));
#503 = ADVANCED_FACE('',(#504),#522,.T.);
#504 = FACE_BOUND('',#505,.T.);
#505 = EDGE_LOOP('',(#506,#507,#508,#516));
#506 = ORIENTED_EDGE('',*,*,#484,.T.);
#507 = ORIENTED_EDGE('',*,*,#128,.T.);
#508 = ORIENTED_EDGE('',*,*,#509,.F.);
#509 = EDGE_CURVE('',#510,#120,#512,.T.);
#510 = VERTEX_POINT('',#511);
#511 = CARTESIAN_POINT('',(113.,-25.5,12.99));
#512 = LINE('',#513,#514);
#513 = CARTESIAN_POINT('',(113.,-25.5,12.99));
#514 = VECTOR('',#515,1.);
#515 = DIRECTION('',(0.,0.,1.));
#516 = ORIENTED_EDGE('',*,*,#517,.F.);
#517 = EDGE_CURVE('',#485,#510,#518,.T.);
#518 = LINE('',#519,#520);
#519 = CARTESIAN_POINT('',(113.1,-25.5,12.99));
#520 = VECTOR('',#521,1.);
#521 = DIRECTION('',(-1.,0.,0.));
#522 = PLANE('',#523);
#523 = AXIS2_PLACEMENT_3D('',#524,#525,#526);
#524 = CARTESIAN_POINT('',(113.1,-25.5,12.99));
#525 = DIRECTION('',(0.,-1.,0.));
#526 = DIRECTION('',(-1.,0.,0.));
#527 = ADVANCED_FACE('',(#528),#549,.T.);
#528 = FACE_BOUND('',#529,.T.);
#529 = EDGE_LOOP('',(#530,#531,#532,#533,#542));
#530 = ORIENTED_EDGE('',*,*,#509,.T.);
#531 = ORIENTED_EDGE('',*,*,#119,.T.);
#532 = ORIENTED_EDGE('',*,*,#249,.F.);
#533 = ORIENTED_EDGE('',*,*,#534,.F.);
#534 = EDGE_CURVE('',#535,#242,#537,.T.);
#535 = VERTEX_POINT('',#536);
#536 = CARTESIAN_POINT('',(112.2,-25.194427191,12.99));
#537 = CIRCLE('',#538,1.2);
#538 = AXIS2_PLACEMENT_3D('',#539,#540,#541);
#539 = CARTESIAN_POINT('',(113.,-24.3,12.99));
#540 = DIRECTION('',(0.,0.,-1.));
#541 = DIRECTION('',(-1.184E-14,-1.,-0.));
#542 = ORIENTED_EDGE('',*,*,#543,.F.);
#543 = EDGE_CURVE('',#510,#535,#544,.T.);
#544 = CIRCLE('',#545,1.2);
#545 = AXIS2_PLACEMENT_3D('',#546,#547,#548);
#546 = CARTESIAN_POINT('',(113.,-24.3,12.99));
#547 = DIRECTION('',(0.,0.,-1.));
#548 = DIRECTION('',(-1.184E-14,-1.,-0.));
#549 = CYLINDRICAL_SURFACE('',#550,1.2);
#550 = AXIS2_PLACEMENT_3D('',#551,#552,#553);
#551 = CARTESIAN_POINT('',(113.,-24.3,12.99));
#552 = DIRECTION('',(0.,0.,-1.));
#553 = DIRECTION('',(-1.184E-14,-1.,-0.));
#554 = ADVANCED_FACE('',(#555),#574,.T.);
#555 = FACE_BOUND('',#556,.T.);
#556 = EDGE_LOOP('',(#557,#558,#559,#560,#561,#562,#563,#564,#565,#566,
    #567,#568,#569,#570,#571,#572,#573));
#557 = ORIENTED_EDGE('',*,*,#216,.T.);
#558 = ORIENTED_EDGE('',*,*,#265,.T.);
#559 = ORIENTED_EDGE('',*,*,#289,.T.);
#560 = ORIENTED_EDGE('',*,*,#322,.F.);
#561 = ORIENTED_EDGE('',*,*,#338,.F.);
#562 = ORIENTED_EDGE('',*,*,#363,.T.);
#563 = ORIENTED_EDGE('',*,*,#387,.T.);
#564 = ORIENTED_EDGE('',*,*,#418,.F.);
#565 = ORIENTED_EDGE('',*,*,#434,.F.);
#566 = ORIENTED_EDGE('',*,*,#458,.T.);
#567 = ORIENTED_EDGE('',*,*,#492,.T.);
#568 = ORIENTED_EDGE('',*,*,#517,.T.);
#569 = ORIENTED_EDGE('',*,*,#543,.T.);
#570 = ORIENTED_EDGE('',*,*,#534,.T.);
#571 = ORIENTED_EDGE('',*,*,#241,.T.);
#572 = ORIENTED_EDGE('',*,*,#61,.F.);
#573 = ORIENTED_EDGE('',*,*,#31,.T.);
#574 = PLANE('',#575);
#575 = AXIS2_PLACEMENT_3D('',#576,#577,#578);
#576 = CARTESIAN_POINT('',(120.39805441529,-15.33092200545,12.99));
#577 = DIRECTION('',(-0.,-0.,-1.));
#578 = DIRECTION('',(-1.,0.,0.));
#579 = MANIFOLD_SOLID_BREP('',#580);
#580 = CLOSED_SHELL('',(#581,#621,#654,#685,#718,#749,#782,#813,#837,
    #853));
#581 = ADVANCED_FACE('',(#582),#616,.T.);
#582 = FACE_BOUND('',#583,.T.);
#583 = EDGE_LOOP('',(#584,#594,#602,#610));
#584 = ORIENTED_EDGE('',*,*,#585,.T.);
#585 = EDGE_CURVE('',#586,#588,#590,.T.);
#586 = VERTEX_POINT('',#587);
#587 = CARTESIAN_POINT('',(118.8,-54.,12.99));
#588 = VERTEX_POINT('',#589);
#589 = CARTESIAN_POINT('',(118.8,-54.,13.39));
#590 = LINE('',#591,#592);
#591 = CARTESIAN_POINT('',(118.8,-54.,12.99));
#592 = VECTOR('',#593,1.);
#593 = DIRECTION('',(0.,0.,1.));
#594 = ORIENTED_EDGE('',*,*,#595,.T.);
#595 = EDGE_CURVE('',#588,#596,#598,.T.);
#596 = VERTEX_POINT('',#597);
#597 = CARTESIAN_POINT('',(127.2,-54.,13.39));
#598 = LINE('',#599,#600);
#599 = CARTESIAN_POINT('',(118.8,-54.,13.39));
#600 = VECTOR('',#601,1.);
#601 = DIRECTION('',(1.,0.,0.));
#602 = ORIENTED_EDGE('',*,*,#603,.F.);
#603 = EDGE_CURVE('',#604,#596,#606,.T.);
#604 = VERTEX_POINT('',#605);
#605 = CARTESIAN_POINT('',(127.2,-54.,12.99));
#606 = LINE('',#607,#608);
#607 = CARTESIAN_POINT('',(127.2,-54.,12.99));
#608 = VECTOR('',#609,1.);
#609 = DIRECTION('',(0.,0.,1.));
#610 = ORIENTED_EDGE('',*,*,#611,.F.);
#611 = EDGE_CURVE('',#586,#604,#612,.T.);
#612 = LINE('',#613,#614);
#613 = CARTESIAN_POINT('',(118.8,-54.,12.99));
#614 = VECTOR('',#615,1.);
#615 = DIRECTION('',(1.,0.,0.));
#616 = PLANE('',#617);
#617 = AXIS2_PLACEMENT_3D('',#618,#619,#620);
#618 = CARTESIAN_POINT('',(118.8,-54.,12.99));
#619 = DIRECTION('',(0.,1.,0.));
#620 = DIRECTION('',(1.,0.,0.));
#621 = ADVANCED_FACE('',(#622),#649,.T.);
#622 = FACE_BOUND('',#623,.T.);
#623 = EDGE_LOOP('',(#624,#625,#634,#642));
#624 = ORIENTED_EDGE('',*,*,#603,.T.);
#625 = ORIENTED_EDGE('',*,*,#626,.T.);
#626 = EDGE_CURVE('',#596,#627,#629,.T.);
#627 = VERTEX_POINT('',#628);
#628 = CARTESIAN_POINT('',(128.2,-55.,13.39));
#629 = CIRCLE('',#630,1.);
#630 = AXIS2_PLACEMENT_3D('',#631,#632,#633);
#631 = CARTESIAN_POINT('',(127.2,-55.,13.39));
#632 = DIRECTION('',(0.,0.,-1.));
#633 = DIRECTION('',(-1.421E-14,1.,0.));
#634 = ORIENTED_EDGE('',*,*,#635,.F.);
#635 = EDGE_CURVE('',#636,#627,#638,.T.);
#636 = VERTEX_POINT('',#637);
#637 = CARTESIAN_POINT('',(128.2,-55.,12.99));
#638 = LINE('',#639,#640);
#639 = CARTESIAN_POINT('',(128.2,-55.,12.99));
#640 = VECTOR('',#641,1.);
#641 = DIRECTION('',(0.,0.,1.));
#642 = ORIENTED_EDGE('',*,*,#643,.F.);
#643 = EDGE_CURVE('',#604,#636,#644,.T.);
#644 = CIRCLE('',#645,1.);
#645 = AXIS2_PLACEMENT_3D('',#646,#647,#648);
#646 = CARTESIAN_POINT('',(127.2,-55.,12.99));
#647 = DIRECTION('',(0.,0.,-1.));
#648 = DIRECTION('',(-1.421E-14,1.,0.));
#649 = CYLINDRICAL_SURFACE('',#650,1.);
#650 = AXIS2_PLACEMENT_3D('',#651,#652,#653);
#651 = CARTESIAN_POINT('',(127.2,-55.,12.99));
#652 = DIRECTION('',(0.,0.,-1.));
#653 = DIRECTION('',(-1.421E-14,1.,0.));
#654 = ADVANCED_FACE('',(#655),#680,.T.);
#655 = FACE_BOUND('',#656,.T.);
#656 = EDGE_LOOP('',(#657,#658,#666,#674));
#657 = ORIENTED_EDGE('',*,*,#635,.T.);
#658 = ORIENTED_EDGE('',*,*,#659,.T.);
#659 = EDGE_CURVE('',#627,#660,#662,.T.);
#660 = VERTEX_POINT('',#661);
#661 = CARTESIAN_POINT('',(128.2,-55.2,13.39));
#662 = LINE('',#663,#664);
#663 = CARTESIAN_POINT('',(128.2,-55.,13.39));
#664 = VECTOR('',#665,1.);
#665 = DIRECTION('',(0.,-1.,0.));
#666 = ORIENTED_EDGE('',*,*,#667,.F.);
#667 = EDGE_CURVE('',#668,#660,#670,.T.);
#668 = VERTEX_POINT('',#669);
#669 = CARTESIAN_POINT('',(128.2,-55.2,12.99));
#670 = LINE('',#671,#672);
#671 = CARTESIAN_POINT('',(128.2,-55.2,12.99));
#672 = VECTOR('',#673,1.);
#673 = DIRECTION('',(0.,0.,1.));
#674 = ORIENTED_EDGE('',*,*,#675,.F.);
#675 = EDGE_CURVE('',#636,#668,#676,.T.);
#676 = LINE('',#677,#678);
#677 = CARTESIAN_POINT('',(128.2,-55.,12.99));
#678 = VECTOR('',#679,1.);
#679 = DIRECTION('',(0.,-1.,0.));
#680 = PLANE('',#681);
#681 = AXIS2_PLACEMENT_3D('',#682,#683,#684);
#682 = CARTESIAN_POINT('',(128.2,-55.,12.99));
#683 = DIRECTION('',(1.,0.,0.));
#684 = DIRECTION('',(0.,-1.,0.));
#685 = ADVANCED_FACE('',(#686),#713,.T.);
#686 = FACE_BOUND('',#687,.T.);
#687 = EDGE_LOOP('',(#688,#689,#698,#706));
#688 = ORIENTED_EDGE('',*,*,#667,.T.);
#689 = ORIENTED_EDGE('',*,*,#690,.T.);
#690 = EDGE_CURVE('',#660,#691,#693,.T.);
#691 = VERTEX_POINT('',#692);
#692 = CARTESIAN_POINT('',(127.2,-56.2,13.39));
#693 = CIRCLE('',#694,1.);
#694 = AXIS2_PLACEMENT_3D('',#695,#696,#697);
#695 = CARTESIAN_POINT('',(127.2,-55.2,13.39));
#696 = DIRECTION('',(0.,0.,-1.));
#697 = DIRECTION('',(1.,1.421E-14,0.));
#698 = ORIENTED_EDGE('',*,*,#699,.F.);
#699 = EDGE_CURVE('',#700,#691,#702,.T.);
#700 = VERTEX_POINT('',#701);
#701 = CARTESIAN_POINT('',(127.2,-56.2,12.99));
#702 = LINE('',#703,#704);
#703 = CARTESIAN_POINT('',(127.2,-56.2,12.99));
#704 = VECTOR('',#705,1.);
#705 = DIRECTION('',(0.,0.,1.));
#706 = ORIENTED_EDGE('',*,*,#707,.F.);
#707 = EDGE_CURVE('',#668,#700,#708,.T.);
#708 = CIRCLE('',#709,1.);
#709 = AXIS2_PLACEMENT_3D('',#710,#711,#712);
#710 = CARTESIAN_POINT('',(127.2,-55.2,12.99));
#711 = DIRECTION('',(0.,0.,-1.));
#712 = DIRECTION('',(1.,1.421E-14,0.));
#713 = CYLINDRICAL_SURFACE('',#714,1.);
#714 = AXIS2_PLACEMENT_3D('',#715,#716,#717);
#715 = CARTESIAN_POINT('',(127.2,-55.2,12.99));
#716 = DIRECTION('',(0.,0.,-1.));
#717 = DIRECTION('',(1.,1.421E-14,0.));
#718 = ADVANCED_FACE('',(#719),#744,.T.);
#719 = FACE_BOUND('',#720,.T.);
#720 = EDGE_LOOP('',(#721,#722,#730,#738));
#721 = ORIENTED_EDGE('',*,*,#699,.T.);
#722 = ORIENTED_EDGE('',*,*,#723,.T.);
#723 = EDGE_CURVE('',#691,#724,#726,.T.);
#724 = VERTEX_POINT('',#725);
#725 = CARTESIAN_POINT('',(118.8,-56.2,13.39));
#726 = LINE('',#727,#728);
#727 = CARTESIAN_POINT('',(127.2,-56.2,13.39));
#728 = VECTOR('',#729,1.);
#729 = DIRECTION('',(-1.,0.,0.));
#730 = ORIENTED_EDGE('',*,*,#731,.F.);
#731 = EDGE_CURVE('',#732,#724,#734,.T.);
#732 = VERTEX_POINT('',#733);
#733 = CARTESIAN_POINT('',(118.8,-56.2,12.99));
#734 = LINE('',#735,#736);
#735 = CARTESIAN_POINT('',(118.8,-56.2,12.99));
#736 = VECTOR('',#737,1.);
#737 = DIRECTION('',(0.,0.,1.));
#738 = ORIENTED_EDGE('',*,*,#739,.F.);
#739 = EDGE_CURVE('',#700,#732,#740,.T.);
#740 = LINE('',#741,#742);
#741 = CARTESIAN_POINT('',(127.2,-56.2,12.99));
#742 = VECTOR('',#743,1.);
#743 = DIRECTION('',(-1.,0.,0.));
#744 = PLANE('',#745);
#745 = AXIS2_PLACEMENT_3D('',#746,#747,#748);
#746 = CARTESIAN_POINT('',(127.2,-56.2,12.99));
#747 = DIRECTION('',(0.,-1.,0.));
#748 = DIRECTION('',(-1.,0.,0.));
#749 = ADVANCED_FACE('',(#750),#777,.T.);
#750 = FACE_BOUND('',#751,.T.);
#751 = EDGE_LOOP('',(#752,#753,#762,#770));
#752 = ORIENTED_EDGE('',*,*,#731,.T.);
#753 = ORIENTED_EDGE('',*,*,#754,.T.);
#754 = EDGE_CURVE('',#724,#755,#757,.T.);
#755 = VERTEX_POINT('',#756);
#756 = CARTESIAN_POINT('',(117.8,-55.2,13.39));
#757 = CIRCLE('',#758,1.);
#758 = AXIS2_PLACEMENT_3D('',#759,#760,#761);
#759 = CARTESIAN_POINT('',(118.8,-55.2,13.39));
#760 = DIRECTION('',(0.,0.,-1.));
#761 = DIRECTION('',(1.421E-14,-1.,0.));
#762 = ORIENTED_EDGE('',*,*,#763,.F.);
#763 = EDGE_CURVE('',#764,#755,#766,.T.);
#764 = VERTEX_POINT('',#765);
#765 = CARTESIAN_POINT('',(117.8,-55.2,12.99));
#766 = LINE('',#767,#768);
#767 = CARTESIAN_POINT('',(117.8,-55.2,12.99));
#768 = VECTOR('',#769,1.);
#769 = DIRECTION('',(0.,0.,1.));
#770 = ORIENTED_EDGE('',*,*,#771,.F.);
#771 = EDGE_CURVE('',#732,#764,#772,.T.);
#772 = CIRCLE('',#773,1.);
#773 = AXIS2_PLACEMENT_3D('',#774,#775,#776);
#774 = CARTESIAN_POINT('',(118.8,-55.2,12.99));
#775 = DIRECTION('',(0.,0.,-1.));
#776 = DIRECTION('',(1.421E-14,-1.,0.));
#777 = CYLINDRICAL_SURFACE('',#778,1.);
#778 = AXIS2_PLACEMENT_3D('',#779,#780,#781);
#779 = CARTESIAN_POINT('',(118.8,-55.2,12.99));
#780 = DIRECTION('',(0.,0.,-1.));
#781 = DIRECTION('',(1.421E-14,-1.,0.));
#782 = ADVANCED_FACE('',(#783),#808,.T.);
#783 = FACE_BOUND('',#784,.T.);
#784 = EDGE_LOOP('',(#785,#786,#794,#802));
#785 = ORIENTED_EDGE('',*,*,#763,.T.);
#786 = ORIENTED_EDGE('',*,*,#787,.T.);
#787 = EDGE_CURVE('',#755,#788,#790,.T.);
#788 = VERTEX_POINT('',#789);
#789 = CARTESIAN_POINT('',(117.8,-55.,13.39));
#790 = LINE('',#791,#792);
#791 = CARTESIAN_POINT('',(117.8,-55.2,13.39));
#792 = VECTOR('',#793,1.);
#793 = DIRECTION('',(0.,1.,0.));
#794 = ORIENTED_EDGE('',*,*,#795,.F.);
#795 = EDGE_CURVE('',#796,#788,#798,.T.);
#796 = VERTEX_POINT('',#797);
#797 = CARTESIAN_POINT('',(117.8,-55.,12.99));
#798 = LINE('',#799,#800);
#799 = CARTESIAN_POINT('',(117.8,-55.,12.99));
#800 = VECTOR('',#801,1.);
#801 = DIRECTION('',(0.,0.,1.));
#802 = ORIENTED_EDGE('',*,*,#803,.F.);
#803 = EDGE_CURVE('',#764,#796,#804,.T.);
#804 = LINE('',#805,#806);
#805 = CARTESIAN_POINT('',(117.8,-55.2,12.99));
#806 = VECTOR('',#807,1.);
#807 = DIRECTION('',(0.,1.,0.));
#808 = PLANE('',#809);
#809 = AXIS2_PLACEMENT_3D('',#810,#811,#812);
#810 = CARTESIAN_POINT('',(117.8,-55.2,12.99));
#811 = DIRECTION('',(-1.,0.,0.));
#812 = DIRECTION('',(0.,1.,0.));
#813 = ADVANCED_FACE('',(#814),#832,.T.);
#814 = FACE_BOUND('',#815,.T.);
#815 = EDGE_LOOP('',(#816,#817,#824,#825));
#816 = ORIENTED_EDGE('',*,*,#795,.T.);
#817 = ORIENTED_EDGE('',*,*,#818,.T.);
#818 = EDGE_CURVE('',#788,#588,#819,.T.);
#819 = CIRCLE('',#820,1.);
#820 = AXIS2_PLACEMENT_3D('',#821,#822,#823);
#821 = CARTESIAN_POINT('',(118.8,-55.,13.39));
#822 = DIRECTION('',(0.,0.,-1.));
#823 = DIRECTION('',(-1.,-1.421E-14,-0.));
#824 = ORIENTED_EDGE('',*,*,#585,.F.);
#825 = ORIENTED_EDGE('',*,*,#826,.F.);
#826 = EDGE_CURVE('',#796,#586,#827,.T.);
#827 = CIRCLE('',#828,1.);
#828 = AXIS2_PLACEMENT_3D('',#829,#830,#831);
#829 = CARTESIAN_POINT('',(118.8,-55.,12.99));
#830 = DIRECTION('',(0.,0.,-1.));
#831 = DIRECTION('',(-1.,-1.421E-14,-0.));
#832 = CYLINDRICAL_SURFACE('',#833,1.);
#833 = AXIS2_PLACEMENT_3D('',#834,#835,#836);
#834 = CARTESIAN_POINT('',(118.8,-55.,12.99));
#835 = DIRECTION('',(0.,0.,-1.));
#836 = DIRECTION('',(-1.,-1.421E-14,-0.));
#837 = ADVANCED_FACE('',(#838),#848,.F.);
#838 = FACE_BOUND('',#839,.T.);
#839 = EDGE_LOOP('',(#840,#841,#842,#843,#844,#845,#846,#847));
#840 = ORIENTED_EDGE('',*,*,#611,.T.);
#841 = ORIENTED_EDGE('',*,*,#643,.T.);
#842 = ORIENTED_EDGE('',*,*,#675,.T.);
#843 = ORIENTED_EDGE('',*,*,#707,.T.);
#844 = ORIENTED_EDGE('',*,*,#739,.T.);
#845 = ORIENTED_EDGE('',*,*,#771,.T.);
#846 = ORIENTED_EDGE('',*,*,#803,.T.);
#847 = ORIENTED_EDGE('',*,*,#826,.T.);
#848 = PLANE('',#849);
#849 = AXIS2_PLACEMENT_3D('',#850,#851,#852);
#850 = CARTESIAN_POINT('',(123.,-55.1,12.99));
#851 = DIRECTION('',(0.,0.,1.));
#852 = DIRECTION('',(1.,0.,0.));
#853 = ADVANCED_FACE('',(#854),#864,.T.);
#854 = FACE_BOUND('',#855,.F.);
#855 = EDGE_LOOP('',(#856,#857,#858,#859,#860,#861,#862,#863));
#856 = ORIENTED_EDGE('',*,*,#595,.T.);
#857 = ORIENTED_EDGE('',*,*,#626,.T.);
#858 = ORIENTED_EDGE('',*,*,#659,.T.);
#859 = ORIENTED_EDGE('',*,*,#690,.T.);
#860 = ORIENTED_EDGE('',*,*,#723,.T.);
#861 = ORIENTED_EDGE('',*,*,#754,.T.);
#862 = ORIENTED_EDGE('',*,*,#787,.T.);
#863 = ORIENTED_EDGE('',*,*,#818,.T.);
#864 = PLANE('',#865);
#865 = AXIS2_PLACEMENT_3D('',#866,#867,#868);
#866 = CARTESIAN_POINT('',(123.,-55.1,13.39));
#867 = DIRECTION('',(0.,0.,1.));
#868 = DIRECTION('',(1.,0.,0.));
#869 = ( GEOMETRIC_REPRESENTATION_CONTEXT(3) 
GLOBAL_UNCERTAINTY_ASSIGNED_CONTEXT((#873)) GLOBAL_UNIT_ASSIGNED_CONTEXT
((#870,#871,#872)) REPRESENTATION_CONTEXT('Context #1',
  '3D Context with UNIT and UNCERTAINTY') );
#870 = ( LENGTH_UNIT() NAMED_UNIT(*) SI_UNIT(.MILLI.,.METRE.) );
#871 = ( NAMED_UNIT(*) PLANE_ANGLE_UNIT() SI_UNIT($,.RADIAN.) );
#872 = ( NAMED_UNIT(*) SI_UNIT($,.STERADIAN.) SOLID_ANGLE_UNIT() );
#873 = UNCERTAINTY_MEASURE_WITH_UNIT(LENGTH_MEASURE(2.E-05),#870,
  'distance_accuracy_value','confusion accuracy');
#874 = PRODUCT_RELATED_PRODUCT_CATEGORY('part',$,(#7));
ENDSEC;
END-ISO-10303-21;
