ISO-10303-21;
HEADER;
FILE_DESCRIPTION(('FreeCAD Model'),'2;1');
FILE_NAME('Open CASCADE Shape Model','2026-09-28T15:54:08',('FreeCAD'),(
    'FreeCAD'),'Open CASCADE STEP processor 7.8','FreeCAD','Unknown');
FILE_SCHEMA(('AUTOMOTIVE_DESIGN { 1 0 10303 214 1 1 1 1 }'));
ENDSEC;
DATA;
#1 = APPLICATION_PROTOCOL_DEFINITION('international standard',
  'automotive_design',2000,#2);
#2 = APPLICATION_CONTEXT(
  'core data for automotive mechanical design processes');
#3 = SHAPE_DEFINITION_REPRESENTATION(#4,#10);
#4 = PRODUCT_DEFINITION_SHAPE('','',#5);
#5 = PRODUCT_DEFINITION('design','',#6,#9);
#6 = PRODUCT_DEFINITION_FORMATION('','',#7);
#7 = PRODUCT('Open CASCADE STEP translator 7.8 35',
  'Open CASCADE STEP translator 7.8 35','',(#8));
#8 = PRODUCT_CONTEXT('',#2,'mechanical');
#9 = PRODUCT_DEFINITION_CONTEXT('part definition',#2,'design');
#10 = SHAPE_REPRESENTATION('',(#11,#15,#165),#315);
#11 = AXIS2_PLACEMENT_3D('',#12,#13,#14);
#12 = CARTESIAN_POINT('',(0.,0.,0.));
#13 = DIRECTION('',(0.,0.,1.));
#14 = DIRECTION('',(1.,0.,-0.));
#15 = MANIFOLD_SOLID_BREP('',#16);
#16 = CLOSED_SHELL('',(#17,#57,#88,#119,#141,#153));
#17 = ADVANCED_FACE('',(#18),#52,.T.);
#18 = FACE_BOUND('',#19,.T.);
#19 = EDGE_LOOP('',(#20,#30,#38,#46));
#20 = ORIENTED_EDGE('',*,*,#21,.T.);
#21 = EDGE_CURVE('',#22,#24,#26,.T.);
#22 = VERTEX_POINT('',#23);
#23 = CARTESIAN_POINT('',(112.5,-58.6,12.99));
#24 = VERTEX_POINT('',#25);
#25 = CARTESIAN_POINT('',(112.5,-58.6,13.39));
#26 = LINE('',#27,#28);
#27 = CARTESIAN_POINT('',(112.5,-58.6,12.99));
#28 = VECTOR('',#29,1.);
#29 = DIRECTION('',(0.,0.,1.));
#30 = ORIENTED_EDGE('',*,*,#31,.T.);
#31 = EDGE_CURVE('',#24,#32,#34,.T.);
#32 = VERTEX_POINT('',#33);
#33 = CARTESIAN_POINT('',(114.2,-56.9,13.39));
#34 = LINE('',#35,#36);
#35 = CARTESIAN_POINT('',(112.5,-58.6,13.39));
#36 = VECTOR('',#37,1.);
#37 = DIRECTION('',(0.707106781187,0.707106781187,0.));
#38 = ORIENTED_EDGE('',*,*,#39,.F.);
#39 = EDGE_CURVE('',#40,#32,#42,.T.);
#40 = VERTEX_POINT('',#41);
#41 = CARTESIAN_POINT('',(114.2,-56.9,12.99));
#42 = LINE('',#43,#44);
#43 = CARTESIAN_POINT('',(114.2,-56.9,12.99));
#44 = VECTOR('',#45,1.);
#45 = DIRECTION('',(0.,0.,1.));
#46 = ORIENTED_EDGE('',*,*,#47,.F.);
#47 = EDGE_CURVE('',#22,#40,#48,.T.);
#48 = LINE('',#49,#50);
#49 = CARTESIAN_POINT('',(112.5,-58.6,12.99));
#50 = VECTOR('',#51,1.);
#51 = DIRECTION('',(0.707106781187,0.707106781187,0.));
#52 = PLANE('',#53);
#53 = AXIS2_PLACEMENT_3D('',#54,#55,#56);
#54 = CARTESIAN_POINT('',(112.5,-58.6,12.99));
#55 = DIRECTION('',(-0.707106781187,0.707106781187,0.));
#56 = DIRECTION('',(0.707106781187,0.707106781187,0.));
#57 = ADVANCED_FACE('',(#58),#83,.T.);
#58 = FACE_BOUND('',#59,.T.);
#59 = EDGE_LOOP('',(#60,#61,#69,#77));
#60 = ORIENTED_EDGE('',*,*,#39,.T.);
#61 = ORIENTED_EDGE('',*,*,#62,.T.);
#62 = EDGE_CURVE('',#32,#63,#65,.T.);
#63 = VERTEX_POINT('',#64);
#64 = CARTESIAN_POINT('',(115.9,-58.6,13.39));
#65 = LINE('',#66,#67);
#66 = CARTESIAN_POINT('',(114.2,-56.9,13.39));
#67 = VECTOR('',#68,1.);
#68 = DIRECTION('',(0.707106781187,-0.707106781187,0.));
#69 = ORIENTED_EDGE('',*,*,#70,.F.);
#70 = EDGE_CURVE('',#71,#63,#73,.T.);
#71 = VERTEX_POINT('',#72);
#72 = CARTESIAN_POINT('',(115.9,-58.6,12.99));
#73 = LINE('',#74,#75);
#74 = CARTESIAN_POINT('',(115.9,-58.6,12.99));
#75 = VECTOR('',#76,1.);
#76 = DIRECTION('',(0.,0.,1.));
#77 = ORIENTED_EDGE('',*,*,#78,.F.);
#78 = EDGE_CURVE('',#40,#71,#79,.T.);
#79 = LINE('',#80,#81);
#80 = CARTESIAN_POINT('',(114.2,-56.9,12.99));
#81 = VECTOR('',#82,1.);
#82 = DIRECTION('',(0.707106781187,-0.707106781187,0.));
#83 = PLANE('',#84);
#84 = AXIS2_PLACEMENT_3D('',#85,#86,#87);
#85 = CARTESIAN_POINT('',(114.2,-56.9,12.99));
#86 = DIRECTION('',(0.707106781187,0.707106781187,0.));
#87 = DIRECTION('',(0.707106781187,-0.707106781187,0.));
#88 = ADVANCED_FACE('',(#89),#114,.T.);
#89 = FACE_BOUND('',#90,.T.);
#90 = EDGE_LOOP('',(#91,#92,#100,#108));
#91 = ORIENTED_EDGE('',*,*,#70,.T.);
#92 = ORIENTED_EDGE('',*,*,#93,.T.);
#93 = EDGE_CURVE('',#63,#94,#96,.T.);
#94 = VERTEX_POINT('',#95);
#95 = CARTESIAN_POINT('',(114.2,-60.3,13.39));
#96 = LINE('',#97,#98);
#97 = CARTESIAN_POINT('',(115.9,-58.6,13.39));
#98 = VECTOR('',#99,1.);
#99 = DIRECTION('',(-0.707106781187,-0.707106781187,0.));
#100 = ORIENTED_EDGE('',*,*,#101,.F.);
#101 = EDGE_CURVE('',#102,#94,#104,.T.);
#102 = VERTEX_POINT('',#103);
#103 = CARTESIAN_POINT('',(114.2,-60.3,12.99));
#104 = LINE('',#105,#106);
#105 = CARTESIAN_POINT('',(114.2,-60.3,12.99));
#106 = VECTOR('',#107,1.);
#107 = DIRECTION('',(0.,0.,1.));
#108 = ORIENTED_EDGE('',*,*,#109,.F.);
#109 = EDGE_CURVE('',#71,#102,#110,.T.);
#110 = LINE('',#111,#112);
#111 = CARTESIAN_POINT('',(115.9,-58.6,12.99));
#112 = VECTOR('',#113,1.);
#113 = DIRECTION('',(-0.707106781187,-0.707106781187,0.));
#114 = PLANE('',#115);
#115 = AXIS2_PLACEMENT_3D('',#116,#117,#118);
#116 = CARTESIAN_POINT('',(115.9,-58.6,12.99));
#117 = DIRECTION('',(0.707106781187,-0.707106781187,0.));
#118 = DIRECTION('',(-0.707106781187,-0.707106781187,0.));
#119 = ADVANCED_FACE('',(#120),#136,.T.);
#120 = FACE_BOUND('',#121,.T.);
#121 = EDGE_LOOP('',(#122,#123,#129,#130));
#122 = ORIENTED_EDGE('',*,*,#101,.T.);
#123 = ORIENTED_EDGE('',*,*,#124,.T.);
#124 = EDGE_CURVE('',#94,#24,#125,.T.);
#125 = LINE('',#126,#127);
#126 = CARTESIAN_POINT('',(114.2,-60.3,13.39));
#127 = VECTOR('',#128,1.);
#128 = DIRECTION('',(-0.707106781187,0.707106781187,0.));
#129 = ORIENTED_EDGE('',*,*,#21,.F.);
#130 = ORIENTED_EDGE('',*,*,#131,.F.);
#131 = EDGE_CURVE('',#102,#22,#132,.T.);
#132 = LINE('',#133,#134);
#133 = CARTESIAN_POINT('',(114.2,-60.3,12.99));
#134 = VECTOR('',#135,1.);
#135 = DIRECTION('',(-0.707106781187,0.707106781187,0.));
#136 = PLANE('',#137);
#137 = AXIS2_PLACEMENT_3D('',#138,#139,#140);
#138 = CARTESIAN_POINT('',(114.2,-60.3,12.99));
#139 = DIRECTION('',(-0.707106781187,-0.707106781187,0.));
#140 = DIRECTION('',(-0.707106781187,0.707106781187,0.));
#141 = ADVANCED_FACE('',(#142),#148,.F.);
#142 = FACE_BOUND('',#143,.T.);
#143 = EDGE_LOOP('',(#144,#145,#146,#147));
#144 = ORIENTED_EDGE('',*,*,#47,.T.);
#145 = ORIENTED_EDGE('',*,*,#78,.T.);
#146 = ORIENTED_EDGE('',*,*,#109,.T.);
#147 = ORIENTED_EDGE('',*,*,#131,.T.);
#148 = PLANE('',#149);
#149 = AXIS2_PLACEMENT_3D('',#150,#151,#152);
#150 = CARTESIAN_POINT('',(114.2,-58.6,12.99));
#151 = DIRECTION('',(0.,0.,1.));
#152 = DIRECTION('',(1.,0.,0.));
#153 = ADVANCED_FACE('',(#154),#160,.T.);
#154 = FACE_BOUND('',#155,.F.);
#155 = EDGE_LOOP('',(#156,#157,#158,#159));
#156 = ORIENTED_EDGE('',*,*,#31,.T.);
#157 = ORIENTED_EDGE('',*,*,#62,.T.);
#158 = ORIENTED_EDGE('',*,*,#93,.T.);
#159 = ORIENTED_EDGE('',*,*,#124,.T.);
#160 = PLANE('',#161);
#161 = AXIS2_PLACEMENT_3D('',#162,#163,#164);
#162 = CARTESIAN_POINT('',(114.2,-58.6,13.39));
#163 = DIRECTION('',(0.,0.,1.));
#164 = DIRECTION('',(1.,0.,0.));
#165 = MANIFOLD_SOLID_BREP('',#166);
#166 = CLOSED_SHELL('',(#167,#207,#238,#269,#291,#303));
#167 = ADVANCED_FACE('',(#168),#202,.T.);
#168 = FACE_BOUND('',#169,.T.);
#169 = EDGE_LOOP('',(#170,#180,#188,#196));
#170 = ORIENTED_EDGE('',*,*,#171,.T.);
#171 = EDGE_CURVE('',#172,#174,#176,.T.);
#172 = VERTEX_POINT('',#173);
#173 = CARTESIAN_POINT('',(130.1,-58.6,12.99));
#174 = VERTEX_POINT('',#175);
#175 = CARTESIAN_POINT('',(130.1,-58.6,13.39));
#176 = LINE('',#177,#178);
#177 = CARTESIAN_POINT('',(130.1,-58.6,12.99));
#178 = VECTOR('',#179,1.);
#179 = DIRECTION('',(0.,0.,1.));
#180 = ORIENTED_EDGE('',*,*,#181,.T.);
#181 = EDGE_CURVE('',#174,#182,#184,.T.);
#182 = VERTEX_POINT('',#183);
#183 = CARTESIAN_POINT('',(131.8,-56.9,13.39));
#184 = LINE('',#185,#186);
#185 = CARTESIAN_POINT('',(130.1,-58.6,13.39));
#186 = VECTOR('',#187,1.);
#187 = DIRECTION('',(0.707106781187,0.707106781187,0.));
#188 = ORIENTED_EDGE('',*,*,#189,.F.);
#189 = EDGE_CURVE('',#190,#182,#192,.T.);
#190 = VERTEX_POINT('',#191);
#191 = CARTESIAN_POINT('',(131.8,-56.9,12.99));
#192 = LINE('',#193,#194);
#193 = CARTESIAN_POINT('',(131.8,-56.9,12.99));
#194 = VECTOR('',#195,1.);
#195 = DIRECTION('',(0.,0.,1.));
#196 = ORIENTED_EDGE('',*,*,#197,.F.);
#197 = EDGE_CURVE('',#172,#190,#198,.T.);
#198 = LINE('',#199,#200);
#199 = CARTESIAN_POINT('',(130.1,-58.6,12.99));
#200 = VECTOR('',#201,1.);
#201 = DIRECTION('',(0.707106781187,0.707106781187,0.));
#202 = PLANE('',#203);
#203 = AXIS2_PLACEMENT_3D('',#204,#205,#206);
#204 = CARTESIAN_POINT('',(130.1,-58.6,12.99));
#205 = DIRECTION('',(-0.707106781187,0.707106781187,0.));
#206 = DIRECTION('',(0.707106781187,0.707106781187,0.));
#207 = ADVANCED_FACE('',(#208),#233,.T.);
#208 = FACE_BOUND('',#209,.T.);
#209 = EDGE_LOOP('',(#210,#211,#219,#227));
#210 = ORIENTED_EDGE('',*,*,#189,.T.);
#211 = ORIENTED_EDGE('',*,*,#212,.T.);
#212 = EDGE_CURVE('',#182,#213,#215,.T.);
#213 = VERTEX_POINT('',#214);
#214 = CARTESIAN_POINT('',(133.5,-58.6,13.39));
#215 = LINE('',#216,#217);
#216 = CARTESIAN_POINT('',(131.8,-56.9,13.39));
#217 = VECTOR('',#218,1.);
#218 = DIRECTION('',(0.707106781187,-0.707106781187,0.));
#219 = ORIENTED_EDGE('',*,*,#220,.F.);
#220 = EDGE_CURVE('',#221,#213,#223,.T.);
#221 = VERTEX_POINT('',#222);
#222 = CARTESIAN_POINT('',(133.5,-58.6,12.99));
#223 = LINE('',#224,#225);
#224 = CARTESIAN_POINT('',(133.5,-58.6,12.99));
#225 = VECTOR('',#226,1.);
#226 = DIRECTION('',(0.,0.,1.));
#227 = ORIENTED_EDGE('',*,*,#228,.F.);
#228 = EDGE_CURVE('',#190,#221,#229,.T.);
#229 = LINE('',#230,#231);
#230 = CARTESIAN_POINT('',(131.8,-56.9,12.99));
#231 = VECTOR('',#232,1.);
#232 = DIRECTION('',(0.707106781187,-0.707106781187,0.));
#233 = PLANE('',#234);
#234 = AXIS2_PLACEMENT_3D('',#235,#236,#237);
#235 = CARTESIAN_POINT('',(131.8,-56.9,12.99));
#236 = DIRECTION('',(0.707106781187,0.707106781187,0.));
#237 = DIRECTION('',(0.707106781187,-0.707106781187,0.));
#238 = ADVANCED_FACE('',(#239),#264,.T.);
#239 = FACE_BOUND('',#240,.T.);
#240 = EDGE_LOOP('',(#241,#242,#250,#258));
#241 = ORIENTED_EDGE('',*,*,#220,.T.);
#242 = ORIENTED_EDGE('',*,*,#243,.T.);
#243 = EDGE_CURVE('',#213,#244,#246,.T.);
#244 = VERTEX_POINT('',#245);
#245 = CARTESIAN_POINT('',(131.8,-60.3,13.39));
#246 = LINE('',#247,#248);
#247 = CARTESIAN_POINT('',(133.5,-58.6,13.39));
#248 = VECTOR('',#249,1.);
#249 = DIRECTION('',(-0.707106781187,-0.707106781187,0.));
#250 = ORIENTED_EDGE('',*,*,#251,.F.);
#251 = EDGE_CURVE('',#252,#244,#254,.T.);
#252 = VERTEX_POINT('',#253);
#253 = CARTESIAN_POINT('',(131.8,-60.3,12.99));
#254 = LINE('',#255,#256);
#255 = CARTESIAN_POINT('',(131.8,-60.3,12.99));
#256 = VECTOR('',#257,1.);
#257 = DIRECTION('',(0.,0.,1.));
#258 = ORIENTED_EDGE('',*,*,#259,.F.);
#259 = EDGE_CURVE('',#221,#252,#260,.T.);
#260 = LINE('',#261,#262);
#261 = CARTESIAN_POINT('',(133.5,-58.6,12.99));
#262 = VECTOR('',#263,1.);
#263 = DIRECTION('',(-0.707106781187,-0.707106781187,0.));
#264 = PLANE('',#265);
#265 = AXIS2_PLACEMENT_3D('',#266,#267,#268);
#266 = CARTESIAN_POINT('',(133.5,-58.6,12.99));
#267 = DIRECTION('',(0.707106781187,-0.707106781187,0.));
#268 = DIRECTION('',(-0.707106781187,-0.707106781187,0.));
#269 = ADVANCED_FACE('',(#270),#286,.T.);
#270 = FACE_BOUND('',#271,.T.);
#271 = EDGE_LOOP('',(#272,#273,#279,#280));
#272 = ORIENTED_EDGE('',*,*,#251,.T.);
#273 = ORIENTED_EDGE('',*,*,#274,.T.);
#274 = EDGE_CURVE('',#244,#174,#275,.T.);
#275 = LINE('',#276,#277);
#276 = CARTESIAN_POINT('',(131.8,-60.3,13.39));
#277 = VECTOR('',#278,1.);
#278 = DIRECTION('',(-0.707106781187,0.707106781187,0.));
#279 = ORIENTED_EDGE('',*,*,#171,.F.);
#280 = ORIENTED_EDGE('',*,*,#281,.F.);
#281 = EDGE_CURVE('',#252,#172,#282,.T.);
#282 = LINE('',#283,#284);
#283 = CARTESIAN_POINT('',(131.8,-60.3,12.99));
#284 = VECTOR('',#285,1.);
#285 = DIRECTION('',(-0.707106781187,0.707106781187,0.));
#286 = PLANE('',#287);
#287 = AXIS2_PLACEMENT_3D('',#288,#289,#290);
#288 = CARTESIAN_POINT('',(131.8,-60.3,12.99));
#289 = DIRECTION('',(-0.707106781187,-0.707106781187,0.));
#290 = DIRECTION('',(-0.707106781187,0.707106781187,0.));
#291 = ADVANCED_FACE('',(#292),#298,.F.);
#292 = FACE_BOUND('',#293,.T.);
#293 = EDGE_LOOP('',(#294,#295,#296,#297));
#294 = ORIENTED_EDGE('',*,*,#197,.T.);
#295 = ORIENTED_EDGE('',*,*,#228,.T.);
#296 = ORIENTED_EDGE('',*,*,#259,.T.);
#297 = ORIENTED_EDGE('',*,*,#281,.T.);
#298 = PLANE('',#299);
#299 = AXIS2_PLACEMENT_3D('',#300,#301,#302);
#300 = CARTESIAN_POINT('',(131.8,-58.6,12.99));
#301 = DIRECTION('',(0.,0.,1.));
#302 = DIRECTION('',(1.,0.,0.));
#303 = ADVANCED_FACE('',(#304),#310,.T.);
#304 = FACE_BOUND('',#305,.F.);
#305 = EDGE_LOOP('',(#306,#307,#308,#309));
#306 = ORIENTED_EDGE('',*,*,#181,.T.);
#307 = ORIENTED_EDGE('',*,*,#212,.T.);
#308 = ORIENTED_EDGE('',*,*,#243,.T.);
#309 = ORIENTED_EDGE('',*,*,#274,.T.);
#310 = PLANE('',#311);
#311 = AXIS2_PLACEMENT_3D('',#312,#313,#314);
#312 = CARTESIAN_POINT('',(131.8,-58.6,13.39));
#313 = DIRECTION('',(0.,0.,1.));
#314 = DIRECTION('',(1.,0.,0.));
#315 = ( GEOMETRIC_REPRESENTATION_CONTEXT(3) 
GLOBAL_UNCERTAINTY_ASSIGNED_CONTEXT((#319)) GLOBAL_UNIT_ASSIGNED_CONTEXT
((#316,#317,#318)) REPRESENTATION_CONTEXT('Context #1',
  '3D Context with UNIT and UNCERTAINTY') );
#316 = ( LENGTH_UNIT() NAMED_UNIT(*) SI_UNIT(.MILLI.,.METRE.) );
#317 = ( NAMED_UNIT(*) PLANE_ANGLE_UNIT() SI_UNIT($,.RADIAN.) );
#318 = ( NAMED_UNIT(*) SI_UNIT($,.STERADIAN.) SOLID_ANGLE_UNIT() );
#319 = UNCERTAINTY_MEASURE_WITH_UNIT(LENGTH_MEASURE(1.E-07),#316,
  'distance_accuracy_value','confusion accuracy');
#320 = PRODUCT_RELATED_PRODUCT_CATEGORY('part',$,(#7));
ENDSEC;
END-ISO-10303-21;
