ISO-10303-21;
HEADER;
FILE_DESCRIPTION(('FreeCAD Model'),'2;1');
FILE_NAME('Open CASCADE Shape Model','2026-09-28T17:19:57',('FreeCAD'),(
    'FreeCAD'),'Open CASCADE STEP processor 7.8','FreeCAD','Unknown');
FILE_SCHEMA(('AUTOMOTIVE_DESIGN { 1 0 10303 214 1 1 1 1 }'));
ENDSEC;
DATA;
#1 = APPLICATION_PROTOCOL_DEFINITION('international standard',
  'automotive_design',2000,#2);
#2 = APPLICATION_CONTEXT(
  'core data for automotive mechanical design processes');
#3 = SHAPE_DEFINITION_REPRESENTATION(#4,#10);
#4 = PRODUCT_DEFINITION_SHAPE('','',#5);
#5 = PRODUCT_DEFINITION('design','',#6,#9);
#6 = PRODUCT_DEFINITION_FORMATION('','',#7);
#7 = PRODUCT('Open CASCADE STEP translator 7.8 38',
  'Open CASCADE STEP translator 7.8 38','',(#8));
#8 = PRODUCT_CONTEXT('',#2,'mechanical');
#9 = PRODUCT_DEFINITION_CONTEXT('part definition',#2,'design');
#10 = SHAPE_REPRESENTATION('',(#11,#15,#429),#995);
#11 = AXIS2_PLACEMENT_3D('',#12,#13,#14);
#12 = CARTESIAN_POINT('',(0.,0.,0.));
#13 = DIRECTION('',(0.,0.,1.));
#14 = DIRECTION('',(1.,0.,-0.));
#15 = MANIFOLD_SOLID_BREP('',#16);
#16 = CLOSED_SHELL('',(#17,#57,#88,#119,#150,#181,#212,#243,#274,#305,
    #336,#367,#389,#409));
#17 = ADVANCED_FACE('',(#18),#52,.F.);
#18 = FACE_BOUND('',#19,.F.);
#19 = EDGE_LOOP('',(#20,#30,#38,#46));
#20 = ORIENTED_EDGE('',*,*,#21,.F.);
#21 = EDGE_CURVE('',#22,#24,#26,.T.);
#22 = VERTEX_POINT('',#23);
#23 = CARTESIAN_POINT('',(113.5,-59.2,12.99));
#24 = VERTEX_POINT('',#25);
#25 = CARTESIAN_POINT('',(113.5,-59.2,13.39));
#26 = LINE('',#27,#28);
#27 = CARTESIAN_POINT('',(113.5,-59.2,12.99));
#28 = VECTOR('',#29,1.);
#29 = DIRECTION('',(0.,0.,1.));
#30 = ORIENTED_EDGE('',*,*,#31,.T.);
#31 = EDGE_CURVE('',#22,#32,#34,.T.);
#32 = VERTEX_POINT('',#33);
#33 = CARTESIAN_POINT('',(113.5,-57.,12.99));
#34 = LINE('',#35,#36);
#35 = CARTESIAN_POINT('',(113.5,-59.2,12.99));
#36 = VECTOR('',#37,1.);
#37 = DIRECTION('',(0.,1.,0.));
#38 = ORIENTED_EDGE('',*,*,#39,.T.);
#39 = EDGE_CURVE('',#32,#40,#42,.T.);
#40 = VERTEX_POINT('',#41);
#41 = CARTESIAN_POINT('',(113.5,-57.,13.39));
#42 = LINE('',#43,#44);
#43 = CARTESIAN_POINT('',(113.5,-57.,12.99));
#44 = VECTOR('',#45,1.);
#45 = DIRECTION('',(0.,0.,1.));
#46 = ORIENTED_EDGE('',*,*,#47,.F.);
#47 = EDGE_CURVE('',#24,#40,#48,.T.);
#48 = LINE('',#49,#50);
#49 = CARTESIAN_POINT('',(113.5,-59.2,13.39));
#50 = VECTOR('',#51,1.);
#51 = DIRECTION('',(0.,1.,0.));
#52 = PLANE('',#53);
#53 = AXIS2_PLACEMENT_3D('',#54,#55,#56);
#54 = CARTESIAN_POINT('',(113.5,-59.2,12.99));
#55 = DIRECTION('',(1.,0.,0.));
#56 = DIRECTION('',(0.,0.,1.));
#57 = ADVANCED_FACE('',(#58),#83,.F.);
#58 = FACE_BOUND('',#59,.F.);
#59 = EDGE_LOOP('',(#60,#68,#69,#77));
#60 = ORIENTED_EDGE('',*,*,#61,.F.);
#61 = EDGE_CURVE('',#22,#62,#64,.T.);
#62 = VERTEX_POINT('',#63);
#63 = CARTESIAN_POINT('',(116.,-59.2,12.99));
#64 = LINE('',#65,#66);
#65 = CARTESIAN_POINT('',(113.5,-59.2,12.99));
#66 = VECTOR('',#67,1.);
#67 = DIRECTION('',(1.,0.,0.));
#68 = ORIENTED_EDGE('',*,*,#21,.T.);
#69 = ORIENTED_EDGE('',*,*,#70,.T.);
#70 = EDGE_CURVE('',#24,#71,#73,.T.);
#71 = VERTEX_POINT('',#72);
#72 = CARTESIAN_POINT('',(116.,-59.2,13.39));
#73 = LINE('',#74,#75);
#74 = CARTESIAN_POINT('',(113.5,-59.2,13.39));
#75 = VECTOR('',#76,1.);
#76 = DIRECTION('',(1.,0.,0.));
#77 = ORIENTED_EDGE('',*,*,#78,.T.);
#78 = EDGE_CURVE('',#71,#62,#79,.T.);
#79 = LINE('',#80,#81);
#80 = CARTESIAN_POINT('',(116.,-59.2,12.99));
#81 = VECTOR('',#82,1.);
#82 = DIRECTION('',(0.,0.,-1.));
#83 = PLANE('',#84);
#84 = AXIS2_PLACEMENT_3D('',#85,#86,#87);
#85 = CARTESIAN_POINT('',(113.5,-59.2,12.99));
#86 = DIRECTION('',(0.,1.,0.));
#87 = DIRECTION('',(0.,0.,1.));
#88 = ADVANCED_FACE('',(#89),#114,.T.);
#89 = FACE_BOUND('',#90,.T.);
#90 = EDGE_LOOP('',(#91,#99,#100,#108));
#91 = ORIENTED_EDGE('',*,*,#92,.F.);
#92 = EDGE_CURVE('',#32,#93,#95,.T.);
#93 = VERTEX_POINT('',#94);
#94 = CARTESIAN_POINT('',(116.,-57.,12.99));
#95 = LINE('',#96,#97);
#96 = CARTESIAN_POINT('',(113.5,-57.,12.99));
#97 = VECTOR('',#98,1.);
#98 = DIRECTION('',(1.,0.,0.));
#99 = ORIENTED_EDGE('',*,*,#39,.T.);
#100 = ORIENTED_EDGE('',*,*,#101,.T.);
#101 = EDGE_CURVE('',#40,#102,#104,.T.);
#102 = VERTEX_POINT('',#103);
#103 = CARTESIAN_POINT('',(116.,-57.,13.39));
#104 = LINE('',#105,#106);
#105 = CARTESIAN_POINT('',(113.5,-57.,13.39));
#106 = VECTOR('',#107,1.);
#107 = DIRECTION('',(1.,0.,0.));
#108 = ORIENTED_EDGE('',*,*,#109,.T.);
#109 = EDGE_CURVE('',#102,#93,#110,.T.);
#110 = LINE('',#111,#112);
#111 = CARTESIAN_POINT('',(116.,-57.,12.99));
#112 = VECTOR('',#113,1.);
#113 = DIRECTION('',(0.,0.,-1.));
#114 = PLANE('',#115);
#115 = AXIS2_PLACEMENT_3D('',#116,#117,#118);
#116 = CARTESIAN_POINT('',(113.5,-57.,12.99));
#117 = DIRECTION('',(0.,1.,0.));
#118 = DIRECTION('',(0.,0.,1.));
#119 = ADVANCED_FACE('',(#120),#145,.F.);
#120 = FACE_BOUND('',#121,.F.);
#121 = EDGE_LOOP('',(#122,#130,#138,#144));
#122 = ORIENTED_EDGE('',*,*,#123,.F.);
#123 = EDGE_CURVE('',#124,#71,#126,.T.);
#124 = VERTEX_POINT('',#125);
#125 = CARTESIAN_POINT('',(116.,-61.7,13.39));
#126 = LINE('',#127,#128);
#127 = CARTESIAN_POINT('',(116.,-61.7,13.39));
#128 = VECTOR('',#129,1.);
#129 = DIRECTION('',(0.,1.,0.));
#130 = ORIENTED_EDGE('',*,*,#131,.F.);
#131 = EDGE_CURVE('',#132,#124,#134,.T.);
#132 = VERTEX_POINT('',#133);
#133 = CARTESIAN_POINT('',(116.,-61.7,12.99));
#134 = LINE('',#135,#136);
#135 = CARTESIAN_POINT('',(116.,-61.7,12.99));
#136 = VECTOR('',#137,1.);
#137 = DIRECTION('',(0.,0.,1.));
#138 = ORIENTED_EDGE('',*,*,#139,.T.);
#139 = EDGE_CURVE('',#132,#62,#140,.T.);
#140 = LINE('',#141,#142);
#141 = CARTESIAN_POINT('',(116.,-61.7,12.99));
#142 = VECTOR('',#143,1.);
#143 = DIRECTION('',(0.,1.,0.));
#144 = ORIENTED_EDGE('',*,*,#78,.F.);
#145 = PLANE('',#146);
#146 = AXIS2_PLACEMENT_3D('',#147,#148,#149);
#147 = CARTESIAN_POINT('',(116.,-61.7,12.99));
#148 = DIRECTION('',(1.,0.,0.));
#149 = DIRECTION('',(0.,0.,1.));
#150 = ADVANCED_FACE('',(#151),#176,.F.);
#151 = FACE_BOUND('',#152,.F.);
#152 = EDGE_LOOP('',(#153,#161,#162,#170));
#153 = ORIENTED_EDGE('',*,*,#154,.F.);
#154 = EDGE_CURVE('',#102,#155,#157,.T.);
#155 = VERTEX_POINT('',#156);
#156 = CARTESIAN_POINT('',(116.,-54.5,13.39));
#157 = LINE('',#158,#159);
#158 = CARTESIAN_POINT('',(116.,-61.7,13.39));
#159 = VECTOR('',#160,1.);
#160 = DIRECTION('',(0.,1.,0.));
#161 = ORIENTED_EDGE('',*,*,#109,.T.);
#162 = ORIENTED_EDGE('',*,*,#163,.T.);
#163 = EDGE_CURVE('',#93,#164,#166,.T.);
#164 = VERTEX_POINT('',#165);
#165 = CARTESIAN_POINT('',(116.,-54.5,12.99));
#166 = LINE('',#167,#168);
#167 = CARTESIAN_POINT('',(116.,-61.7,12.99));
#168 = VECTOR('',#169,1.);
#169 = DIRECTION('',(0.,1.,0.));
#170 = ORIENTED_EDGE('',*,*,#171,.T.);
#171 = EDGE_CURVE('',#164,#155,#172,.T.);
#172 = LINE('',#173,#174);
#173 = CARTESIAN_POINT('',(116.,-54.5,12.99));
#174 = VECTOR('',#175,1.);
#175 = DIRECTION('',(0.,0.,1.));
#176 = PLANE('',#177);
#177 = AXIS2_PLACEMENT_3D('',#178,#179,#180);
#178 = CARTESIAN_POINT('',(116.,-61.7,12.99));
#179 = DIRECTION('',(1.,0.,0.));
#180 = DIRECTION('',(0.,0.,1.));
#181 = ADVANCED_FACE('',(#182),#207,.F.);
#182 = FACE_BOUND('',#183,.F.);
#183 = EDGE_LOOP('',(#184,#192,#193,#201));
#184 = ORIENTED_EDGE('',*,*,#185,.F.);
#185 = EDGE_CURVE('',#132,#186,#188,.T.);
#186 = VERTEX_POINT('',#187);
#187 = CARTESIAN_POINT('',(118.2,-61.7,12.99));
#188 = LINE('',#189,#190);
#189 = CARTESIAN_POINT('',(116.,-61.7,12.99));
#190 = VECTOR('',#191,1.);
#191 = DIRECTION('',(1.,0.,0.));
#192 = ORIENTED_EDGE('',*,*,#131,.T.);
#193 = ORIENTED_EDGE('',*,*,#194,.T.);
#194 = EDGE_CURVE('',#124,#195,#197,.T.);
#195 = VERTEX_POINT('',#196);
#196 = CARTESIAN_POINT('',(118.2,-61.7,13.39));
#197 = LINE('',#198,#199);
#198 = CARTESIAN_POINT('',(116.,-61.7,13.39));
#199 = VECTOR('',#200,1.);
#200 = DIRECTION('',(1.,0.,0.));
#201 = ORIENTED_EDGE('',*,*,#202,.F.);
#202 = EDGE_CURVE('',#186,#195,#203,.T.);
#203 = LINE('',#204,#205);
#204 = CARTESIAN_POINT('',(118.2,-61.7,12.99));
#205 = VECTOR('',#206,1.);
#206 = DIRECTION('',(0.,0.,1.));
#207 = PLANE('',#208);
#208 = AXIS2_PLACEMENT_3D('',#209,#210,#211);
#209 = CARTESIAN_POINT('',(116.,-61.7,12.99));
#210 = DIRECTION('',(0.,1.,0.));
#211 = DIRECTION('',(0.,0.,1.));
#212 = ADVANCED_FACE('',(#213),#238,.T.);
#213 = FACE_BOUND('',#214,.T.);
#214 = EDGE_LOOP('',(#215,#223,#224,#232));
#215 = ORIENTED_EDGE('',*,*,#216,.F.);
#216 = EDGE_CURVE('',#164,#217,#219,.T.);
#217 = VERTEX_POINT('',#218);
#218 = CARTESIAN_POINT('',(118.2,-54.5,12.99));
#219 = LINE('',#220,#221);
#220 = CARTESIAN_POINT('',(116.,-54.5,12.99));
#221 = VECTOR('',#222,1.);
#222 = DIRECTION('',(1.,0.,0.));
#223 = ORIENTED_EDGE('',*,*,#171,.T.);
#224 = ORIENTED_EDGE('',*,*,#225,.T.);
#225 = EDGE_CURVE('',#155,#226,#228,.T.);
#226 = VERTEX_POINT('',#227);
#227 = CARTESIAN_POINT('',(118.2,-54.5,13.39));
#228 = LINE('',#229,#230);
#229 = CARTESIAN_POINT('',(116.,-54.5,13.39));
#230 = VECTOR('',#231,1.);
#231 = DIRECTION('',(1.,0.,0.));
#232 = ORIENTED_EDGE('',*,*,#233,.F.);
#233 = EDGE_CURVE('',#217,#226,#234,.T.);
#234 = LINE('',#235,#236);
#235 = CARTESIAN_POINT('',(118.2,-54.5,12.99));
#236 = VECTOR('',#237,1.);
#237 = DIRECTION('',(0.,0.,1.));
#238 = PLANE('',#239);
#239 = AXIS2_PLACEMENT_3D('',#240,#241,#242);
#240 = CARTESIAN_POINT('',(116.,-54.5,12.99));
#241 = DIRECTION('',(0.,1.,0.));
#242 = DIRECTION('',(0.,0.,1.));
#243 = ADVANCED_FACE('',(#244),#269,.T.);
#244 = FACE_BOUND('',#245,.T.);
#245 = EDGE_LOOP('',(#246,#254,#255,#263));
#246 = ORIENTED_EDGE('',*,*,#247,.F.);
#247 = EDGE_CURVE('',#195,#248,#250,.T.);
#248 = VERTEX_POINT('',#249);
#249 = CARTESIAN_POINT('',(118.2,-59.2,13.39));
#250 = LINE('',#251,#252);
#251 = CARTESIAN_POINT('',(118.2,-61.7,13.39));
#252 = VECTOR('',#253,1.);
#253 = DIRECTION('',(0.,1.,0.));
#254 = ORIENTED_EDGE('',*,*,#202,.F.);
#255 = ORIENTED_EDGE('',*,*,#256,.T.);
#256 = EDGE_CURVE('',#186,#257,#259,.T.);
#257 = VERTEX_POINT('',#258);
#258 = CARTESIAN_POINT('',(118.2,-59.2,12.99));
#259 = LINE('',#260,#261);
#260 = CARTESIAN_POINT('',(118.2,-61.7,12.99));
#261 = VECTOR('',#262,1.);
#262 = DIRECTION('',(0.,1.,0.));
#263 = ORIENTED_EDGE('',*,*,#264,.F.);
#264 = EDGE_CURVE('',#248,#257,#265,.T.);
#265 = LINE('',#266,#267);
#266 = CARTESIAN_POINT('',(118.2,-59.2,12.99));
#267 = VECTOR('',#268,1.);
#268 = DIRECTION('',(0.,0.,-1.));
#269 = PLANE('',#270);
#270 = AXIS2_PLACEMENT_3D('',#271,#272,#273);
#271 = CARTESIAN_POINT('',(118.2,-61.7,12.99));
#272 = DIRECTION('',(1.,0.,0.));
#273 = DIRECTION('',(0.,0.,1.));
#274 = ADVANCED_FACE('',(#275),#300,.T.);
#275 = FACE_BOUND('',#276,.T.);
#276 = EDGE_LOOP('',(#277,#285,#293,#299));
#277 = ORIENTED_EDGE('',*,*,#278,.F.);
#278 = EDGE_CURVE('',#279,#226,#281,.T.);
#279 = VERTEX_POINT('',#280);
#280 = CARTESIAN_POINT('',(118.2,-57.,13.39));
#281 = LINE('',#282,#283);
#282 = CARTESIAN_POINT('',(118.2,-61.7,13.39));
#283 = VECTOR('',#284,1.);
#284 = DIRECTION('',(0.,1.,0.));
#285 = ORIENTED_EDGE('',*,*,#286,.T.);
#286 = EDGE_CURVE('',#279,#287,#289,.T.);
#287 = VERTEX_POINT('',#288);
#288 = CARTESIAN_POINT('',(118.2,-57.,12.99));
#289 = LINE('',#290,#291);
#290 = CARTESIAN_POINT('',(118.2,-57.,12.99));
#291 = VECTOR('',#292,1.);
#292 = DIRECTION('',(0.,0.,-1.));
#293 = ORIENTED_EDGE('',*,*,#294,.T.);
#294 = EDGE_CURVE('',#287,#217,#295,.T.);
#295 = LINE('',#296,#297);
#296 = CARTESIAN_POINT('',(118.2,-61.7,12.99));
#297 = VECTOR('',#298,1.);
#298 = DIRECTION('',(0.,1.,0.));
#299 = ORIENTED_EDGE('',*,*,#233,.T.);
#300 = PLANE('',#301);
#301 = AXIS2_PLACEMENT_3D('',#302,#303,#304);
#302 = CARTESIAN_POINT('',(118.2,-61.7,12.99));
#303 = DIRECTION('',(1.,0.,0.));
#304 = DIRECTION('',(0.,0.,1.));
#305 = ADVANCED_FACE('',(#306),#331,.T.);
#306 = FACE_BOUND('',#307,.T.);
#307 = EDGE_LOOP('',(#308,#316,#317,#325));
#308 = ORIENTED_EDGE('',*,*,#309,.F.);
#309 = EDGE_CURVE('',#287,#310,#312,.T.);
#310 = VERTEX_POINT('',#311);
#311 = CARTESIAN_POINT('',(120.7,-57.,12.99));
#312 = LINE('',#313,#314);
#313 = CARTESIAN_POINT('',(113.5,-57.,12.99));
#314 = VECTOR('',#315,1.);
#315 = DIRECTION('',(1.,0.,0.));
#316 = ORIENTED_EDGE('',*,*,#286,.F.);
#317 = ORIENTED_EDGE('',*,*,#318,.T.);
#318 = EDGE_CURVE('',#279,#319,#321,.T.);
#319 = VERTEX_POINT('',#320);
#320 = CARTESIAN_POINT('',(120.7,-57.,13.39));
#321 = LINE('',#322,#323);
#322 = CARTESIAN_POINT('',(113.5,-57.,13.39));
#323 = VECTOR('',#324,1.);
#324 = DIRECTION('',(1.,0.,0.));
#325 = ORIENTED_EDGE('',*,*,#326,.F.);
#326 = EDGE_CURVE('',#310,#319,#327,.T.);
#327 = LINE('',#328,#329);
#328 = CARTESIAN_POINT('',(120.7,-57.,12.99));
#329 = VECTOR('',#330,1.);
#330 = DIRECTION('',(0.,0.,1.));
#331 = PLANE('',#332);
#332 = AXIS2_PLACEMENT_3D('',#333,#334,#335);
#333 = CARTESIAN_POINT('',(113.5,-57.,12.99));
#334 = DIRECTION('',(0.,1.,0.));
#335 = DIRECTION('',(0.,0.,1.));
#336 = ADVANCED_FACE('',(#337),#362,.T.);
#337 = FACE_BOUND('',#338,.T.);
#338 = EDGE_LOOP('',(#339,#349,#355,#356));
#339 = ORIENTED_EDGE('',*,*,#340,.F.);
#340 = EDGE_CURVE('',#341,#343,#345,.T.);
#341 = VERTEX_POINT('',#342);
#342 = CARTESIAN_POINT('',(120.7,-59.2,12.99));
#343 = VERTEX_POINT('',#344);
#344 = CARTESIAN_POINT('',(120.7,-59.2,13.39));
#345 = LINE('',#346,#347);
#346 = CARTESIAN_POINT('',(120.7,-59.2,12.99));
#347 = VECTOR('',#348,1.);
#348 = DIRECTION('',(0.,0.,1.));
#349 = ORIENTED_EDGE('',*,*,#350,.T.);
#350 = EDGE_CURVE('',#341,#310,#351,.T.);
#351 = LINE('',#352,#353);
#352 = CARTESIAN_POINT('',(120.7,-59.2,12.99));
#353 = VECTOR('',#354,1.);
#354 = DIRECTION('',(0.,1.,0.));
#355 = ORIENTED_EDGE('',*,*,#326,.T.);
#356 = ORIENTED_EDGE('',*,*,#357,.F.);
#357 = EDGE_CURVE('',#343,#319,#358,.T.);
#358 = LINE('',#359,#360);
#359 = CARTESIAN_POINT('',(120.7,-59.2,13.39));
#360 = VECTOR('',#361,1.);
#361 = DIRECTION('',(0.,1.,0.));
#362 = PLANE('',#363);
#363 = AXIS2_PLACEMENT_3D('',#364,#365,#366);
#364 = CARTESIAN_POINT('',(120.7,-59.2,12.99));
#365 = DIRECTION('',(1.,0.,0.));
#366 = DIRECTION('',(0.,0.,1.));
#367 = ADVANCED_FACE('',(#368),#384,.F.);
#368 = FACE_BOUND('',#369,.F.);
#369 = EDGE_LOOP('',(#370,#376,#377,#383));
#370 = ORIENTED_EDGE('',*,*,#371,.F.);
#371 = EDGE_CURVE('',#257,#341,#372,.T.);
#372 = LINE('',#373,#374);
#373 = CARTESIAN_POINT('',(113.5,-59.2,12.99));
#374 = VECTOR('',#375,1.);
#375 = DIRECTION('',(1.,0.,0.));
#376 = ORIENTED_EDGE('',*,*,#264,.F.);
#377 = ORIENTED_EDGE('',*,*,#378,.T.);
#378 = EDGE_CURVE('',#248,#343,#379,.T.);
#379 = LINE('',#380,#381);
#380 = CARTESIAN_POINT('',(113.5,-59.2,13.39));
#381 = VECTOR('',#382,1.);
#382 = DIRECTION('',(1.,0.,0.));
#383 = ORIENTED_EDGE('',*,*,#340,.F.);
#384 = PLANE('',#385);
#385 = AXIS2_PLACEMENT_3D('',#386,#387,#388);
#386 = CARTESIAN_POINT('',(113.5,-59.2,12.99));
#387 = DIRECTION('',(0.,1.,0.));
#388 = DIRECTION('',(0.,0.,1.));
#389 = ADVANCED_FACE('',(#390),#404,.T.);
#390 = FACE_BOUND('',#391,.T.);
#391 = EDGE_LOOP('',(#392,#393,#394,#395,#396,#397,#398,#399,#400,#401,
    #402,#403));
#392 = ORIENTED_EDGE('',*,*,#101,.F.);
#393 = ORIENTED_EDGE('',*,*,#47,.F.);
#394 = ORIENTED_EDGE('',*,*,#70,.T.);
#395 = ORIENTED_EDGE('',*,*,#123,.F.);
#396 = ORIENTED_EDGE('',*,*,#194,.T.);
#397 = ORIENTED_EDGE('',*,*,#247,.T.);
#398 = ORIENTED_EDGE('',*,*,#378,.T.);
#399 = ORIENTED_EDGE('',*,*,#357,.T.);
#400 = ORIENTED_EDGE('',*,*,#318,.F.);
#401 = ORIENTED_EDGE('',*,*,#278,.T.);
#402 = ORIENTED_EDGE('',*,*,#225,.F.);
#403 = ORIENTED_EDGE('',*,*,#154,.F.);
#404 = PLANE('',#405);
#405 = AXIS2_PLACEMENT_3D('',#406,#407,#408);
#406 = CARTESIAN_POINT('',(117.1,-58.1,13.39));
#407 = DIRECTION('',(0.,0.,1.));
#408 = DIRECTION('',(1.,0.,0.));
#409 = ADVANCED_FACE('',(#410),#424,.T.);
#410 = FACE_BOUND('',#411,.T.);
#411 = EDGE_LOOP('',(#412,#413,#414,#415,#416,#417,#418,#419,#420,#421,
    #422,#423));
#412 = ORIENTED_EDGE('',*,*,#92,.T.);
#413 = ORIENTED_EDGE('',*,*,#163,.T.);
#414 = ORIENTED_EDGE('',*,*,#216,.T.);
#415 = ORIENTED_EDGE('',*,*,#294,.F.);
#416 = ORIENTED_EDGE('',*,*,#309,.T.);
#417 = ORIENTED_EDGE('',*,*,#350,.F.);
#418 = ORIENTED_EDGE('',*,*,#371,.F.);
#419 = ORIENTED_EDGE('',*,*,#256,.F.);
#420 = ORIENTED_EDGE('',*,*,#185,.F.);
#421 = ORIENTED_EDGE('',*,*,#139,.T.);
#422 = ORIENTED_EDGE('',*,*,#61,.F.);
#423 = ORIENTED_EDGE('',*,*,#31,.T.);
#424 = PLANE('',#425);
#425 = AXIS2_PLACEMENT_3D('',#426,#427,#428);
#426 = CARTESIAN_POINT('',(117.1,-58.1,12.99));
#427 = DIRECTION('',(-0.,-0.,-1.));
#428 = DIRECTION('',(-1.,0.,0.));
#429 = MANIFOLD_SOLID_BREP('',#430);
#430 = CLOSED_SHELL('',(#431,#471,#504,#537,#658,#682,#706,#731,#756,
    #773,#805,#829,#854,#878,#903,#927,#952,#969));
#431 = ADVANCED_FACE('',(#432),#466,.T.);
#432 = FACE_BOUND('',#433,.T.);
#433 = EDGE_LOOP('',(#434,#444,#452,#460));
#434 = ORIENTED_EDGE('',*,*,#435,.T.);
#435 = EDGE_CURVE('',#436,#438,#440,.T.);
#436 = VERTEX_POINT('',#437);
#437 = CARTESIAN_POINT('',(113.3,-12.2,12.99));
#438 = VERTEX_POINT('',#439);
#439 = CARTESIAN_POINT('',(113.3,-12.2,13.39));
#440 = LINE('',#441,#442);
#441 = CARTESIAN_POINT('',(113.3,-12.2,12.99));
#442 = VECTOR('',#443,1.);
#443 = DIRECTION('',(0.,0.,1.));
#444 = ORIENTED_EDGE('',*,*,#445,.T.);
#445 = EDGE_CURVE('',#438,#446,#448,.T.);
#446 = VERTEX_POINT('',#447);
#447 = CARTESIAN_POINT('',(132.7,-12.2,13.39));
#448 = LINE('',#449,#450);
#449 = CARTESIAN_POINT('',(113.3,-12.2,13.39));
#450 = VECTOR('',#451,1.);
#451 = DIRECTION('',(1.,0.,0.));
#452 = ORIENTED_EDGE('',*,*,#453,.F.);
#453 = EDGE_CURVE('',#454,#446,#456,.T.);
#454 = VERTEX_POINT('',#455);
#455 = CARTESIAN_POINT('',(132.7,-12.2,12.99));
#456 = LINE('',#457,#458);
#457 = CARTESIAN_POINT('',(132.7,-12.2,12.99));
#458 = VECTOR('',#459,1.);
#459 = DIRECTION('',(0.,0.,1.));
#460 = ORIENTED_EDGE('',*,*,#461,.F.);
#461 = EDGE_CURVE('',#436,#454,#462,.T.);
#462 = LINE('',#463,#464);
#463 = CARTESIAN_POINT('',(113.3,-12.2,12.99));
#464 = VECTOR('',#465,1.);
#465 = DIRECTION('',(1.,0.,0.));
#466 = PLANE('',#467);
#467 = AXIS2_PLACEMENT_3D('',#468,#469,#470);
#468 = CARTESIAN_POINT('',(113.3,-12.2,12.99));
#469 = DIRECTION('',(0.,1.,0.));
#470 = DIRECTION('',(1.,0.,0.));
#471 = ADVANCED_FACE('',(#472),#499,.T.);
#472 = FACE_BOUND('',#473,.T.);
#473 = EDGE_LOOP('',(#474,#484,#491,#492));
#474 = ORIENTED_EDGE('',*,*,#475,.T.);
#475 = EDGE_CURVE('',#476,#478,#480,.T.);
#476 = VERTEX_POINT('',#477);
#477 = CARTESIAN_POINT('',(112.2,-13.3,12.99));
#478 = VERTEX_POINT('',#479);
#479 = CARTESIAN_POINT('',(112.2,-13.3,13.39));
#480 = LINE('',#481,#482);
#481 = CARTESIAN_POINT('',(112.2,-13.3,12.99));
#482 = VECTOR('',#483,1.);
#483 = DIRECTION('',(0.,0.,1.));
#484 = ORIENTED_EDGE('',*,*,#485,.T.);
#485 = EDGE_CURVE('',#478,#438,#486,.T.);
#486 = CIRCLE('',#487,1.1);
#487 = AXIS2_PLACEMENT_3D('',#488,#489,#490);
#488 = CARTESIAN_POINT('',(113.3,-13.3,13.39));
#489 = DIRECTION('',(0.,0.,-1.));
#490 = DIRECTION('',(-1.,0.,0.));
#491 = ORIENTED_EDGE('',*,*,#435,.F.);
#492 = ORIENTED_EDGE('',*,*,#493,.F.);
#493 = EDGE_CURVE('',#476,#436,#494,.T.);
#494 = CIRCLE('',#495,1.1);
#495 = AXIS2_PLACEMENT_3D('',#496,#497,#498);
#496 = CARTESIAN_POINT('',(113.3,-13.3,12.99));
#497 = DIRECTION('',(0.,0.,-1.));
#498 = DIRECTION('',(-1.,0.,0.));
#499 = CYLINDRICAL_SURFACE('',#500,1.1);
#500 = AXIS2_PLACEMENT_3D('',#501,#502,#503);
#501 = CARTESIAN_POINT('',(113.3,-13.3,12.99));
#502 = DIRECTION('',(0.,0.,-1.));
#503 = DIRECTION('',(-1.,0.,0.));
#504 = ADVANCED_FACE('',(#505),#532,.T.);
#505 = FACE_BOUND('',#506,.T.);
#506 = EDGE_LOOP('',(#507,#508,#517,#525));
#507 = ORIENTED_EDGE('',*,*,#453,.T.);
#508 = ORIENTED_EDGE('',*,*,#509,.T.);
#509 = EDGE_CURVE('',#446,#510,#512,.T.);
#510 = VERTEX_POINT('',#511);
#511 = CARTESIAN_POINT('',(133.8,-13.3,13.39));
#512 = CIRCLE('',#513,1.1);
#513 = AXIS2_PLACEMENT_3D('',#514,#515,#516);
#514 = CARTESIAN_POINT('',(132.7,-13.3,13.39));
#515 = DIRECTION('',(0.,0.,-1.));
#516 = DIRECTION('',(0.,1.,0.));
#517 = ORIENTED_EDGE('',*,*,#518,.F.);
#518 = EDGE_CURVE('',#519,#510,#521,.T.);
#519 = VERTEX_POINT('',#520);
#520 = CARTESIAN_POINT('',(133.8,-13.3,12.99));
#521 = LINE('',#522,#523);
#522 = CARTESIAN_POINT('',(133.8,-13.3,12.99));
#523 = VECTOR('',#524,1.);
#524 = DIRECTION('',(0.,0.,1.));
#525 = ORIENTED_EDGE('',*,*,#526,.F.);
#526 = EDGE_CURVE('',#454,#519,#527,.T.);
#527 = CIRCLE('',#528,1.1);
#528 = AXIS2_PLACEMENT_3D('',#529,#530,#531);
#529 = CARTESIAN_POINT('',(132.7,-13.3,12.99));
#530 = DIRECTION('',(0.,0.,-1.));
#531 = DIRECTION('',(0.,1.,0.));
#532 = CYLINDRICAL_SURFACE('',#533,1.1);
#533 = AXIS2_PLACEMENT_3D('',#534,#535,#536);
#534 = CARTESIAN_POINT('',(132.7,-13.3,12.99));
#535 = DIRECTION('',(0.,0.,-1.));
#536 = DIRECTION('',(0.,1.,0.));
#537 = ADVANCED_FACE('',(#538,#583),#653,.T.);
#538 = FACE_BOUND('',#539,.T.);
#539 = EDGE_LOOP('',(#540,#541,#542,#550,#559,#567,#576,#582));
#540 = ORIENTED_EDGE('',*,*,#445,.F.);
#541 = ORIENTED_EDGE('',*,*,#485,.F.);
#542 = ORIENTED_EDGE('',*,*,#543,.F.);
#543 = EDGE_CURVE('',#544,#478,#546,.T.);
#544 = VERTEX_POINT('',#545);
#545 = CARTESIAN_POINT('',(112.2,-53.,13.39));
#546 = LINE('',#547,#548);
#547 = CARTESIAN_POINT('',(112.2,-53.,13.39));
#548 = VECTOR('',#549,1.);
#549 = DIRECTION('',(0.,1.,0.));
#550 = ORIENTED_EDGE('',*,*,#551,.F.);
#551 = EDGE_CURVE('',#552,#544,#554,.T.);
#552 = VERTEX_POINT('',#553);
#553 = CARTESIAN_POINT('',(113.3,-54.1,13.39));
#554 = CIRCLE('',#555,1.1);
#555 = AXIS2_PLACEMENT_3D('',#556,#557,#558);
#556 = CARTESIAN_POINT('',(113.3,-53.,13.39));
#557 = DIRECTION('',(0.,0.,-1.));
#558 = DIRECTION('',(0.,-1.,0.));
#559 = ORIENTED_EDGE('',*,*,#560,.F.);
#560 = EDGE_CURVE('',#561,#552,#563,.T.);
#561 = VERTEX_POINT('',#562);
#562 = CARTESIAN_POINT('',(132.7,-54.1,13.39));
#563 = LINE('',#564,#565);
#564 = CARTESIAN_POINT('',(132.7,-54.1,13.39));
#565 = VECTOR('',#566,1.);
#566 = DIRECTION('',(-1.,0.,0.));
#567 = ORIENTED_EDGE('',*,*,#568,.F.);
#568 = EDGE_CURVE('',#569,#561,#571,.T.);
#569 = VERTEX_POINT('',#570);
#570 = CARTESIAN_POINT('',(133.8,-53.,13.39));
#571 = CIRCLE('',#572,1.1);
#572 = AXIS2_PLACEMENT_3D('',#573,#574,#575);
#573 = CARTESIAN_POINT('',(132.7,-53.,13.39));
#574 = DIRECTION('',(0.,0.,-1.));
#575 = DIRECTION('',(1.,6.46E-15,0.));
#576 = ORIENTED_EDGE('',*,*,#577,.F.);
#577 = EDGE_CURVE('',#510,#569,#578,.T.);
#578 = LINE('',#579,#580);
#579 = CARTESIAN_POINT('',(133.8,-13.3,13.39));
#580 = VECTOR('',#581,1.);
#581 = DIRECTION('',(0.,-1.,0.));
#582 = ORIENTED_EDGE('',*,*,#509,.F.);
#583 = FACE_BOUND('',#584,.T.);
#584 = EDGE_LOOP('',(#585,#596,#604,#613,#621,#630,#638,#647));
#585 = ORIENTED_EDGE('',*,*,#586,.T.);
#586 = EDGE_CURVE('',#587,#589,#591,.T.);
#587 = VERTEX_POINT('',#588);
#588 = CARTESIAN_POINT('',(114.45,-14.95,13.39));
#589 = VERTEX_POINT('',#590);
#590 = CARTESIAN_POINT('',(114.75,-14.65,13.39));
#591 = CIRCLE('',#592,0.3);
#592 = AXIS2_PLACEMENT_3D('',#593,#594,#595);
#593 = CARTESIAN_POINT('',(114.75,-14.95,13.39));
#594 = DIRECTION('',(0.,0.,-1.));
#595 = DIRECTION('',(-1.,-5.92E-15,-0.));
#596 = ORIENTED_EDGE('',*,*,#597,.T.);
#597 = EDGE_CURVE('',#589,#598,#600,.T.);
#598 = VERTEX_POINT('',#599);
#599 = CARTESIAN_POINT('',(130.85,-14.65,13.39));
#600 = LINE('',#601,#602);
#601 = CARTESIAN_POINT('',(114.75,-14.65,13.39));
#602 = VECTOR('',#603,1.);
#603 = DIRECTION('',(1.,0.,0.));
#604 = ORIENTED_EDGE('',*,*,#605,.T.);
#605 = EDGE_CURVE('',#598,#606,#608,.T.);
#606 = VERTEX_POINT('',#607);
#607 = CARTESIAN_POINT('',(131.15,-14.95,13.39));
#608 = CIRCLE('',#609,0.3);
#609 = AXIS2_PLACEMENT_3D('',#610,#611,#612);
#610 = CARTESIAN_POINT('',(130.85,-14.95,13.39));
#611 = DIRECTION('',(0.,0.,-1.));
#612 = DIRECTION('',(-9.474E-14,1.,0.));
#613 = ORIENTED_EDGE('',*,*,#614,.T.);
#614 = EDGE_CURVE('',#606,#615,#617,.T.);
#615 = VERTEX_POINT('',#616);
#616 = CARTESIAN_POINT('',(131.15,-52.95,13.39));
#617 = LINE('',#618,#619);
#618 = CARTESIAN_POINT('',(131.15,-14.95,13.39));
#619 = VECTOR('',#620,1.);
#620 = DIRECTION('',(0.,-1.,0.));
#621 = ORIENTED_EDGE('',*,*,#622,.T.);
#622 = EDGE_CURVE('',#615,#623,#625,.T.);
#623 = VERTEX_POINT('',#624);
#624 = CARTESIAN_POINT('',(130.85,-53.25,13.39));
#625 = CIRCLE('',#626,0.3);
#626 = AXIS2_PLACEMENT_3D('',#627,#628,#629);
#627 = CARTESIAN_POINT('',(130.85,-52.95,13.39));
#628 = DIRECTION('',(0.,0.,-1.));
#629 = DIRECTION('',(1.,4.737E-14,0.));
#630 = ORIENTED_EDGE('',*,*,#631,.T.);
#631 = EDGE_CURVE('',#623,#632,#634,.T.);
#632 = VERTEX_POINT('',#633);
#633 = CARTESIAN_POINT('',(114.75,-53.25,13.39));
#634 = LINE('',#635,#636);
#635 = CARTESIAN_POINT('',(130.85,-53.25,13.39));
#636 = VECTOR('',#637,1.);
#637 = DIRECTION('',(-1.,0.,0.));
#638 = ORIENTED_EDGE('',*,*,#639,.T.);
#639 = EDGE_CURVE('',#632,#640,#642,.T.);
#640 = VERTEX_POINT('',#641);
#641 = CARTESIAN_POINT('',(114.45,-52.95,13.39));
#642 = CIRCLE('',#643,0.3);
#643 = AXIS2_PLACEMENT_3D('',#644,#645,#646);
#644 = CARTESIAN_POINT('',(114.75,-52.95,13.39));
#645 = DIRECTION('',(0.,0.,-1.));
#646 = DIRECTION('',(0.,-1.,0.));
#647 = ORIENTED_EDGE('',*,*,#648,.T.);
#648 = EDGE_CURVE('',#640,#587,#649,.T.);
#649 = LINE('',#650,#651);
#650 = CARTESIAN_POINT('',(114.45,-52.95,13.39));
#651 = VECTOR('',#652,1.);
#652 = DIRECTION('',(0.,1.,0.));
#653 = PLANE('',#654);
#654 = AXIS2_PLACEMENT_3D('',#655,#656,#657);
#655 = CARTESIAN_POINT('',(123.,-33.15,13.39));
#656 = DIRECTION('',(0.,0.,1.));
#657 = DIRECTION('',(1.,0.,0.));
#658 = ADVANCED_FACE('',(#659),#677,.T.);
#659 = FACE_BOUND('',#660,.T.);
#660 = EDGE_LOOP('',(#661,#669,#670,#671));
#661 = ORIENTED_EDGE('',*,*,#662,.T.);
#662 = EDGE_CURVE('',#663,#544,#665,.T.);
#663 = VERTEX_POINT('',#664);
#664 = CARTESIAN_POINT('',(112.2,-53.,12.99));
#665 = LINE('',#666,#667);
#666 = CARTESIAN_POINT('',(112.2,-53.,12.99));
#667 = VECTOR('',#668,1.);
#668 = DIRECTION('',(0.,0.,1.));
#669 = ORIENTED_EDGE('',*,*,#543,.T.);
#670 = ORIENTED_EDGE('',*,*,#475,.F.);
#671 = ORIENTED_EDGE('',*,*,#672,.F.);
#672 = EDGE_CURVE('',#663,#476,#673,.T.);
#673 = LINE('',#674,#675);
#674 = CARTESIAN_POINT('',(112.2,-53.,12.99));
#675 = VECTOR('',#676,1.);
#676 = DIRECTION('',(0.,1.,0.));
#677 = PLANE('',#678);
#678 = AXIS2_PLACEMENT_3D('',#679,#680,#681);
#679 = CARTESIAN_POINT('',(112.2,-53.,12.99));
#680 = DIRECTION('',(-1.,0.,0.));
#681 = DIRECTION('',(0.,1.,0.));
#682 = ADVANCED_FACE('',(#683),#701,.T.);
#683 = FACE_BOUND('',#684,.T.);
#684 = EDGE_LOOP('',(#685,#686,#687,#695));
#685 = ORIENTED_EDGE('',*,*,#518,.T.);
#686 = ORIENTED_EDGE('',*,*,#577,.T.);
#687 = ORIENTED_EDGE('',*,*,#688,.F.);
#688 = EDGE_CURVE('',#689,#569,#691,.T.);
#689 = VERTEX_POINT('',#690);
#690 = CARTESIAN_POINT('',(133.8,-53.,12.99));
#691 = LINE('',#692,#693);
#692 = CARTESIAN_POINT('',(133.8,-53.,12.99));
#693 = VECTOR('',#694,1.);
#694 = DIRECTION('',(0.,0.,1.));
#695 = ORIENTED_EDGE('',*,*,#696,.F.);
#696 = EDGE_CURVE('',#519,#689,#697,.T.);
#697 = LINE('',#698,#699);
#698 = CARTESIAN_POINT('',(133.8,-13.3,12.99));
#699 = VECTOR('',#700,1.);
#700 = DIRECTION('',(0.,-1.,0.));
#701 = PLANE('',#702);
#702 = AXIS2_PLACEMENT_3D('',#703,#704,#705);
#703 = CARTESIAN_POINT('',(133.8,-13.3,12.99));
#704 = DIRECTION('',(1.,0.,0.));
#705 = DIRECTION('',(0.,-1.,0.));
#706 = ADVANCED_FACE('',(#707),#726,.T.);
#707 = FACE_BOUND('',#708,.T.);
#708 = EDGE_LOOP('',(#709,#717,#718,#719));
#709 = ORIENTED_EDGE('',*,*,#710,.T.);
#710 = EDGE_CURVE('',#711,#552,#713,.T.);
#711 = VERTEX_POINT('',#712);
#712 = CARTESIAN_POINT('',(113.3,-54.1,12.99));
#713 = LINE('',#714,#715);
#714 = CARTESIAN_POINT('',(113.3,-54.1,12.99));
#715 = VECTOR('',#716,1.);
#716 = DIRECTION('',(0.,0.,1.));
#717 = ORIENTED_EDGE('',*,*,#551,.T.);
#718 = ORIENTED_EDGE('',*,*,#662,.F.);
#719 = ORIENTED_EDGE('',*,*,#720,.F.);
#720 = EDGE_CURVE('',#711,#663,#721,.T.);
#721 = CIRCLE('',#722,1.1);
#722 = AXIS2_PLACEMENT_3D('',#723,#724,#725);
#723 = CARTESIAN_POINT('',(113.3,-53.,12.99));
#724 = DIRECTION('',(0.,0.,-1.));
#725 = DIRECTION('',(0.,-1.,0.));
#726 = CYLINDRICAL_SURFACE('',#727,1.1);
#727 = AXIS2_PLACEMENT_3D('',#728,#729,#730);
#728 = CARTESIAN_POINT('',(113.3,-53.,12.99));
#729 = DIRECTION('',(0.,0.,-1.));
#730 = DIRECTION('',(0.,-1.,0.));
#731 = ADVANCED_FACE('',(#732),#751,.T.);
#732 = FACE_BOUND('',#733,.T.);
#733 = EDGE_LOOP('',(#734,#735,#736,#744));
#734 = ORIENTED_EDGE('',*,*,#688,.T.);
#735 = ORIENTED_EDGE('',*,*,#568,.T.);
#736 = ORIENTED_EDGE('',*,*,#737,.F.);
#737 = EDGE_CURVE('',#738,#561,#740,.T.);
#738 = VERTEX_POINT('',#739);
#739 = CARTESIAN_POINT('',(132.7,-54.1,12.99));
#740 = LINE('',#741,#742);
#741 = CARTESIAN_POINT('',(132.7,-54.1,12.99));
#742 = VECTOR('',#743,1.);
#743 = DIRECTION('',(0.,0.,1.));
#744 = ORIENTED_EDGE('',*,*,#745,.F.);
#745 = EDGE_CURVE('',#689,#738,#746,.T.);
#746 = CIRCLE('',#747,1.1);
#747 = AXIS2_PLACEMENT_3D('',#748,#749,#750);
#748 = CARTESIAN_POINT('',(132.7,-53.,12.99));
#749 = DIRECTION('',(0.,0.,-1.));
#750 = DIRECTION('',(1.,6.46E-15,0.));
#751 = CYLINDRICAL_SURFACE('',#752,1.1);
#752 = AXIS2_PLACEMENT_3D('',#753,#754,#755);
#753 = CARTESIAN_POINT('',(132.7,-53.,12.99));
#754 = DIRECTION('',(0.,0.,-1.));
#755 = DIRECTION('',(1.,6.46E-15,0.));
#756 = ADVANCED_FACE('',(#757),#768,.T.);
#757 = FACE_BOUND('',#758,.T.);
#758 = EDGE_LOOP('',(#759,#760,#761,#762));
#759 = ORIENTED_EDGE('',*,*,#737,.T.);
#760 = ORIENTED_EDGE('',*,*,#560,.T.);
#761 = ORIENTED_EDGE('',*,*,#710,.F.);
#762 = ORIENTED_EDGE('',*,*,#763,.F.);
#763 = EDGE_CURVE('',#738,#711,#764,.T.);
#764 = LINE('',#765,#766);
#765 = CARTESIAN_POINT('',(132.7,-54.1,12.99));
#766 = VECTOR('',#767,1.);
#767 = DIRECTION('',(-1.,0.,0.));
#768 = PLANE('',#769);
#769 = AXIS2_PLACEMENT_3D('',#770,#771,#772);
#770 = CARTESIAN_POINT('',(132.7,-54.1,12.99));
#771 = DIRECTION('',(0.,-1.,0.));
#772 = DIRECTION('',(-1.,0.,0.));
#773 = ADVANCED_FACE('',(#774),#800,.F.);
#774 = FACE_BOUND('',#775,.F.);
#775 = EDGE_LOOP('',(#776,#784,#785,#793));
#776 = ORIENTED_EDGE('',*,*,#777,.T.);
#777 = EDGE_CURVE('',#778,#587,#780,.T.);
#778 = VERTEX_POINT('',#779);
#779 = CARTESIAN_POINT('',(114.45,-14.95,12.99));
#780 = LINE('',#781,#782);
#781 = CARTESIAN_POINT('',(114.45,-14.95,12.99));
#782 = VECTOR('',#783,1.);
#783 = DIRECTION('',(0.,0.,1.));
#784 = ORIENTED_EDGE('',*,*,#586,.T.);
#785 = ORIENTED_EDGE('',*,*,#786,.F.);
#786 = EDGE_CURVE('',#787,#589,#789,.T.);
#787 = VERTEX_POINT('',#788);
#788 = CARTESIAN_POINT('',(114.75,-14.65,12.99));
#789 = LINE('',#790,#791);
#790 = CARTESIAN_POINT('',(114.75,-14.65,12.99));
#791 = VECTOR('',#792,1.);
#792 = DIRECTION('',(0.,0.,1.));
#793 = ORIENTED_EDGE('',*,*,#794,.F.);
#794 = EDGE_CURVE('',#778,#787,#795,.T.);
#795 = CIRCLE('',#796,0.3);
#796 = AXIS2_PLACEMENT_3D('',#797,#798,#799);
#797 = CARTESIAN_POINT('',(114.75,-14.95,12.99));
#798 = DIRECTION('',(0.,0.,-1.));
#799 = DIRECTION('',(-1.,-5.92E-15,-0.));
#800 = CYLINDRICAL_SURFACE('',#801,0.3);
#801 = AXIS2_PLACEMENT_3D('',#802,#803,#804);
#802 = CARTESIAN_POINT('',(114.75,-14.95,12.99));
#803 = DIRECTION('',(0.,0.,-1.));
#804 = DIRECTION('',(-1.,-5.92E-15,-0.));
#805 = ADVANCED_FACE('',(#806),#824,.F.);
#806 = FACE_BOUND('',#807,.F.);
#807 = EDGE_LOOP('',(#808,#816,#817,#818));
#808 = ORIENTED_EDGE('',*,*,#809,.T.);
#809 = EDGE_CURVE('',#810,#640,#812,.T.);
#810 = VERTEX_POINT('',#811);
#811 = CARTESIAN_POINT('',(114.45,-52.95,12.99));
#812 = LINE('',#813,#814);
#813 = CARTESIAN_POINT('',(114.45,-52.95,12.99));
#814 = VECTOR('',#815,1.);
#815 = DIRECTION('',(0.,0.,1.));
#816 = ORIENTED_EDGE('',*,*,#648,.T.);
#817 = ORIENTED_EDGE('',*,*,#777,.F.);
#818 = ORIENTED_EDGE('',*,*,#819,.F.);
#819 = EDGE_CURVE('',#810,#778,#820,.T.);
#820 = LINE('',#821,#822);
#821 = CARTESIAN_POINT('',(114.45,-52.95,12.99));
#822 = VECTOR('',#823,1.);
#823 = DIRECTION('',(0.,1.,0.));
#824 = PLANE('',#825);
#825 = AXIS2_PLACEMENT_3D('',#826,#827,#828);
#826 = CARTESIAN_POINT('',(114.45,-52.95,12.99));
#827 = DIRECTION('',(-1.,0.,0.));
#828 = DIRECTION('',(0.,1.,0.));
#829 = ADVANCED_FACE('',(#830),#849,.F.);
#830 = FACE_BOUND('',#831,.F.);
#831 = EDGE_LOOP('',(#832,#840,#841,#842));
#832 = ORIENTED_EDGE('',*,*,#833,.T.);
#833 = EDGE_CURVE('',#834,#632,#836,.T.);
#834 = VERTEX_POINT('',#835);
#835 = CARTESIAN_POINT('',(114.75,-53.25,12.99));
#836 = LINE('',#837,#838);
#837 = CARTESIAN_POINT('',(114.75,-53.25,12.99));
#838 = VECTOR('',#839,1.);
#839 = DIRECTION('',(0.,0.,1.));
#840 = ORIENTED_EDGE('',*,*,#639,.T.);
#841 = ORIENTED_EDGE('',*,*,#809,.F.);
#842 = ORIENTED_EDGE('',*,*,#843,.F.);
#843 = EDGE_CURVE('',#834,#810,#844,.T.);
#844 = CIRCLE('',#845,0.3);
#845 = AXIS2_PLACEMENT_3D('',#846,#847,#848);
#846 = CARTESIAN_POINT('',(114.75,-52.95,12.99));
#847 = DIRECTION('',(0.,0.,-1.));
#848 = DIRECTION('',(0.,-1.,0.));
#849 = CYLINDRICAL_SURFACE('',#850,0.3);
#850 = AXIS2_PLACEMENT_3D('',#851,#852,#853);
#851 = CARTESIAN_POINT('',(114.75,-52.95,12.99));
#852 = DIRECTION('',(0.,0.,-1.));
#853 = DIRECTION('',(0.,-1.,0.));
#854 = ADVANCED_FACE('',(#855),#873,.F.);
#855 = FACE_BOUND('',#856,.F.);
#856 = EDGE_LOOP('',(#857,#865,#866,#867));
#857 = ORIENTED_EDGE('',*,*,#858,.T.);
#858 = EDGE_CURVE('',#859,#623,#861,.T.);
#859 = VERTEX_POINT('',#860);
#860 = CARTESIAN_POINT('',(130.85,-53.25,12.99));
#861 = LINE('',#862,#863);
#862 = CARTESIAN_POINT('',(130.85,-53.25,12.99));
#863 = VECTOR('',#864,1.);
#864 = DIRECTION('',(0.,0.,1.));
#865 = ORIENTED_EDGE('',*,*,#631,.T.);
#866 = ORIENTED_EDGE('',*,*,#833,.F.);
#867 = ORIENTED_EDGE('',*,*,#868,.F.);
#868 = EDGE_CURVE('',#859,#834,#869,.T.);
#869 = LINE('',#870,#871);
#870 = CARTESIAN_POINT('',(130.85,-53.25,12.99));
#871 = VECTOR('',#872,1.);
#872 = DIRECTION('',(-1.,0.,0.));
#873 = PLANE('',#874);
#874 = AXIS2_PLACEMENT_3D('',#875,#876,#877);
#875 = CARTESIAN_POINT('',(130.85,-53.25,12.99));
#876 = DIRECTION('',(0.,-1.,0.));
#877 = DIRECTION('',(-1.,0.,0.));
#878 = ADVANCED_FACE('',(#879),#898,.F.);
#879 = FACE_BOUND('',#880,.F.);
#880 = EDGE_LOOP('',(#881,#889,#890,#891));
#881 = ORIENTED_EDGE('',*,*,#882,.T.);
#882 = EDGE_CURVE('',#883,#615,#885,.T.);
#883 = VERTEX_POINT('',#884);
#884 = CARTESIAN_POINT('',(131.15,-52.95,12.99));
#885 = LINE('',#886,#887);
#886 = CARTESIAN_POINT('',(131.15,-52.95,12.99));
#887 = VECTOR('',#888,1.);
#888 = DIRECTION('',(0.,0.,1.));
#889 = ORIENTED_EDGE('',*,*,#622,.T.);
#890 = ORIENTED_EDGE('',*,*,#858,.F.);
#891 = ORIENTED_EDGE('',*,*,#892,.F.);
#892 = EDGE_CURVE('',#883,#859,#893,.T.);
#893 = CIRCLE('',#894,0.3);
#894 = AXIS2_PLACEMENT_3D('',#895,#896,#897);
#895 = CARTESIAN_POINT('',(130.85,-52.95,12.99));
#896 = DIRECTION('',(0.,0.,-1.));
#897 = DIRECTION('',(1.,4.737E-14,0.));
#898 = CYLINDRICAL_SURFACE('',#899,0.3);
#899 = AXIS2_PLACEMENT_3D('',#900,#901,#902);
#900 = CARTESIAN_POINT('',(130.85,-52.95,12.99));
#901 = DIRECTION('',(0.,0.,-1.));
#902 = DIRECTION('',(1.,4.737E-14,0.));
#903 = ADVANCED_FACE('',(#904),#922,.F.);
#904 = FACE_BOUND('',#905,.F.);
#905 = EDGE_LOOP('',(#906,#914,#915,#916));
#906 = ORIENTED_EDGE('',*,*,#907,.T.);
#907 = EDGE_CURVE('',#908,#606,#910,.T.);
#908 = VERTEX_POINT('',#909);
#909 = CARTESIAN_POINT('',(131.15,-14.95,12.99));
#910 = LINE('',#911,#912);
#911 = CARTESIAN_POINT('',(131.15,-14.95,12.99));
#912 = VECTOR('',#913,1.);
#913 = DIRECTION('',(0.,0.,1.));
#914 = ORIENTED_EDGE('',*,*,#614,.T.);
#915 = ORIENTED_EDGE('',*,*,#882,.F.);
#916 = ORIENTED_EDGE('',*,*,#917,.F.);
#917 = EDGE_CURVE('',#908,#883,#918,.T.);
#918 = LINE('',#919,#920);
#919 = CARTESIAN_POINT('',(131.15,-14.95,12.99));
#920 = VECTOR('',#921,1.);
#921 = DIRECTION('',(0.,-1.,0.));
#922 = PLANE('',#923);
#923 = AXIS2_PLACEMENT_3D('',#924,#925,#926);
#924 = CARTESIAN_POINT('',(131.15,-14.95,12.99));
#925 = DIRECTION('',(1.,0.,0.));
#926 = DIRECTION('',(0.,-1.,0.));
#927 = ADVANCED_FACE('',(#928),#947,.F.);
#928 = FACE_BOUND('',#929,.F.);
#929 = EDGE_LOOP('',(#930,#938,#939,#940));
#930 = ORIENTED_EDGE('',*,*,#931,.T.);
#931 = EDGE_CURVE('',#932,#598,#934,.T.);
#932 = VERTEX_POINT('',#933);
#933 = CARTESIAN_POINT('',(130.85,-14.65,12.99));
#934 = LINE('',#935,#936);
#935 = CARTESIAN_POINT('',(130.85,-14.65,12.99));
#936 = VECTOR('',#937,1.);
#937 = DIRECTION('',(0.,0.,1.));
#938 = ORIENTED_EDGE('',*,*,#605,.T.);
#939 = ORIENTED_EDGE('',*,*,#907,.F.);
#940 = ORIENTED_EDGE('',*,*,#941,.F.);
#941 = EDGE_CURVE('',#932,#908,#942,.T.);
#942 = CIRCLE('',#943,0.3);
#943 = AXIS2_PLACEMENT_3D('',#944,#945,#946);
#944 = CARTESIAN_POINT('',(130.85,-14.95,12.99));
#945 = DIRECTION('',(0.,0.,-1.));
#946 = DIRECTION('',(-9.474E-14,1.,0.));
#947 = CYLINDRICAL_SURFACE('',#948,0.3);
#948 = AXIS2_PLACEMENT_3D('',#949,#950,#951);
#949 = CARTESIAN_POINT('',(130.85,-14.95,12.99));
#950 = DIRECTION('',(0.,0.,-1.));
#951 = DIRECTION('',(-9.474E-14,1.,0.));
#952 = ADVANCED_FACE('',(#953),#964,.F.);
#953 = FACE_BOUND('',#954,.F.);
#954 = EDGE_LOOP('',(#955,#956,#957,#958));
#955 = ORIENTED_EDGE('',*,*,#786,.T.);
#956 = ORIENTED_EDGE('',*,*,#597,.T.);
#957 = ORIENTED_EDGE('',*,*,#931,.F.);
#958 = ORIENTED_EDGE('',*,*,#959,.F.);
#959 = EDGE_CURVE('',#787,#932,#960,.T.);
#960 = LINE('',#961,#962);
#961 = CARTESIAN_POINT('',(114.75,-14.65,12.99));
#962 = VECTOR('',#963,1.);
#963 = DIRECTION('',(1.,0.,0.));
#964 = PLANE('',#965);
#965 = AXIS2_PLACEMENT_3D('',#966,#967,#968);
#966 = CARTESIAN_POINT('',(114.75,-14.65,12.99));
#967 = DIRECTION('',(0.,1.,0.));
#968 = DIRECTION('',(1.,0.,0.));
#969 = ADVANCED_FACE('',(#970,#980),#990,.T.);
#970 = FACE_BOUND('',#971,.T.);
#971 = EDGE_LOOP('',(#972,#973,#974,#975,#976,#977,#978,#979));
#972 = ORIENTED_EDGE('',*,*,#461,.T.);
#973 = ORIENTED_EDGE('',*,*,#526,.T.);
#974 = ORIENTED_EDGE('',*,*,#696,.T.);
#975 = ORIENTED_EDGE('',*,*,#745,.T.);
#976 = ORIENTED_EDGE('',*,*,#763,.T.);
#977 = ORIENTED_EDGE('',*,*,#720,.T.);
#978 = ORIENTED_EDGE('',*,*,#672,.T.);
#979 = ORIENTED_EDGE('',*,*,#493,.T.);
#980 = FACE_BOUND('',#981,.T.);
#981 = EDGE_LOOP('',(#982,#983,#984,#985,#986,#987,#988,#989));
#982 = ORIENTED_EDGE('',*,*,#794,.F.);
#983 = ORIENTED_EDGE('',*,*,#819,.F.);
#984 = ORIENTED_EDGE('',*,*,#843,.F.);
#985 = ORIENTED_EDGE('',*,*,#868,.F.);
#986 = ORIENTED_EDGE('',*,*,#892,.F.);
#987 = ORIENTED_EDGE('',*,*,#917,.F.);
#988 = ORIENTED_EDGE('',*,*,#941,.F.);
#989 = ORIENTED_EDGE('',*,*,#959,.F.);
#990 = PLANE('',#991);
#991 = AXIS2_PLACEMENT_3D('',#992,#993,#994);
#992 = CARTESIAN_POINT('',(123.,-33.15,12.99));
#993 = DIRECTION('',(-0.,-0.,-1.));
#994 = DIRECTION('',(-1.,0.,0.));
#995 = ( GEOMETRIC_REPRESENTATION_CONTEXT(3) 
GLOBAL_UNCERTAINTY_ASSIGNED_CONTEXT((#999)) GLOBAL_UNIT_ASSIGNED_CONTEXT
((#996,#997,#998)) REPRESENTATION_CONTEXT('Context #1',
  '3D Context with UNIT and UNCERTAINTY') );
#996 = ( LENGTH_UNIT() NAMED_UNIT(*) SI_UNIT(.MILLI.,.METRE.) );
#997 = ( NAMED_UNIT(*) PLANE_ANGLE_UNIT() SI_UNIT($,.RADIAN.) );
#998 = ( NAMED_UNIT(*) SI_UNIT($,.STERADIAN.) SOLID_ANGLE_UNIT() );
#999 = UNCERTAINTY_MEASURE_WITH_UNIT(LENGTH_MEASURE(5.E-06),#996,
  'distance_accuracy_value','confusion accuracy');
#1000 = PRODUCT_RELATED_PRODUCT_CATEGORY('part',$,(#7));
ENDSEC;
END-ISO-10303-21;
