ISO-10303-21;
HEADER;
FILE_DESCRIPTION(('FreeCAD Model'),'2;1');
FILE_NAME('Open CASCADE Shape Model','2026-09-28T15:54:17',('FreeCAD'),(
    'FreeCAD'),'Open CASCADE STEP processor 7.8','FreeCAD','Unknown');
FILE_SCHEMA(('AUTOMOTIVE_DESIGN { 1 0 10303 214 1 1 1 1 }'));
ENDSEC;
DATA;
#1 = APPLICATION_PROTOCOL_DEFINITION('international standard',
  'automotive_design',2000,#2);
#2 = APPLICATION_CONTEXT(
  'core data for automotive mechanical design processes');
#3 = SHAPE_DEFINITION_REPRESENTATION(#4,#10);
#4 = PRODUCT_DEFINITION_SHAPE('','',#5);
#5 = PRODUCT_DEFINITION('design','',#6,#9);
#6 = PRODUCT_DEFINITION_FORMATION('','',#7);
#7 = PRODUCT('Open CASCADE STEP translator 7.8 59',
  'Open CASCADE STEP translator 7.8 59','',(#8));
#8 = PRODUCT_CONTEXT('',#2,'mechanical');
#9 = PRODUCT_DEFINITION_CONTEXT('part definition',#2,'design');
#10 = SHAPE_REPRESENTATION('',(#11,#15,#437),#1172);
#11 = AXIS2_PLACEMENT_3D('',#12,#13,#14);
#12 = CARTESIAN_POINT('',(0.,0.,0.));
#13 = DIRECTION('',(0.,0.,1.));
#14 = DIRECTION('',(1.,0.,-0.));
#15 = MANIFOLD_SOLID_BREP('',#16);
#16 = CLOSED_SHELL('',(#17,#57,#90,#123,#206,#289,#306,#323,#340,#357,
    #374,#391,#408,#425));
#17 = ADVANCED_FACE('',(#18),#52,.T.);
#18 = FACE_BOUND('',#19,.T.);
#19 = EDGE_LOOP('',(#20,#30,#38,#46));
#20 = ORIENTED_EDGE('',*,*,#21,.T.);
#21 = EDGE_CURVE('',#22,#24,#26,.T.);
#22 = VERTEX_POINT('',#23);
#23 = CARTESIAN_POINT('',(113.2,-12.4,12.99));
#24 = VERTEX_POINT('',#25);
#25 = CARTESIAN_POINT('',(113.2,-12.4,13.39));
#26 = LINE('',#27,#28);
#27 = CARTESIAN_POINT('',(113.2,-12.4,12.99));
#28 = VECTOR('',#29,1.);
#29 = DIRECTION('',(0.,0.,1.));
#30 = ORIENTED_EDGE('',*,*,#31,.T.);
#31 = EDGE_CURVE('',#24,#32,#34,.T.);
#32 = VERTEX_POINT('',#33);
#33 = CARTESIAN_POINT('',(132.8,-12.4,13.39));
#34 = LINE('',#35,#36);
#35 = CARTESIAN_POINT('',(113.2,-12.4,13.39));
#36 = VECTOR('',#37,1.);
#37 = DIRECTION('',(1.,0.,0.));
#38 = ORIENTED_EDGE('',*,*,#39,.F.);
#39 = EDGE_CURVE('',#40,#32,#42,.T.);
#40 = VERTEX_POINT('',#41);
#41 = CARTESIAN_POINT('',(132.8,-12.4,12.99));
#42 = LINE('',#43,#44);
#43 = CARTESIAN_POINT('',(132.8,-12.4,12.99));
#44 = VECTOR('',#45,1.);
#45 = DIRECTION('',(0.,0.,1.));
#46 = ORIENTED_EDGE('',*,*,#47,.F.);
#47 = EDGE_CURVE('',#22,#40,#48,.T.);
#48 = LINE('',#49,#50);
#49 = CARTESIAN_POINT('',(113.2,-12.4,12.99));
#50 = VECTOR('',#51,1.);
#51 = DIRECTION('',(1.,0.,0.));
#52 = PLANE('',#53);
#53 = AXIS2_PLACEMENT_3D('',#54,#55,#56);
#54 = CARTESIAN_POINT('',(113.2,-12.4,12.99));
#55 = DIRECTION('',(0.,1.,0.));
#56 = DIRECTION('',(1.,0.,0.));
#57 = ADVANCED_FACE('',(#58),#85,.T.);
#58 = FACE_BOUND('',#59,.T.);
#59 = EDGE_LOOP('',(#60,#70,#77,#78));
#60 = ORIENTED_EDGE('',*,*,#61,.T.);
#61 = EDGE_CURVE('',#62,#64,#66,.T.);
#62 = VERTEX_POINT('',#63);
#63 = CARTESIAN_POINT('',(112.4,-13.2,12.99));
#64 = VERTEX_POINT('',#65);
#65 = CARTESIAN_POINT('',(112.4,-13.2,13.39));
#66 = LINE('',#67,#68);
#67 = CARTESIAN_POINT('',(112.4,-13.2,12.99));
#68 = VECTOR('',#69,1.);
#69 = DIRECTION('',(0.,0.,1.));
#70 = ORIENTED_EDGE('',*,*,#71,.T.);
#71 = EDGE_CURVE('',#64,#24,#72,.T.);
#72 = CIRCLE('',#73,0.8);
#73 = AXIS2_PLACEMENT_3D('',#74,#75,#76);
#74 = CARTESIAN_POINT('',(113.2,-13.2,13.39));
#75 = DIRECTION('',(0.,0.,-1.));
#76 = DIRECTION('',(-1.,-2.22E-15,-0.));
#77 = ORIENTED_EDGE('',*,*,#21,.F.);
#78 = ORIENTED_EDGE('',*,*,#79,.F.);
#79 = EDGE_CURVE('',#62,#22,#80,.T.);
#80 = CIRCLE('',#81,0.8);
#81 = AXIS2_PLACEMENT_3D('',#82,#83,#84);
#82 = CARTESIAN_POINT('',(113.2,-13.2,12.99));
#83 = DIRECTION('',(0.,0.,-1.));
#84 = DIRECTION('',(-1.,-2.22E-15,-0.));
#85 = CYLINDRICAL_SURFACE('',#86,0.8);
#86 = AXIS2_PLACEMENT_3D('',#87,#88,#89);
#87 = CARTESIAN_POINT('',(113.2,-13.2,12.99));
#88 = DIRECTION('',(0.,0.,-1.));
#89 = DIRECTION('',(-1.,-2.22E-15,-0.));
#90 = ADVANCED_FACE('',(#91),#118,.T.);
#91 = FACE_BOUND('',#92,.T.);
#92 = EDGE_LOOP('',(#93,#94,#103,#111));
#93 = ORIENTED_EDGE('',*,*,#39,.T.);
#94 = ORIENTED_EDGE('',*,*,#95,.T.);
#95 = EDGE_CURVE('',#32,#96,#98,.T.);
#96 = VERTEX_POINT('',#97);
#97 = CARTESIAN_POINT('',(133.6,-13.2,13.39));
#98 = CIRCLE('',#99,0.8);
#99 = AXIS2_PLACEMENT_3D('',#100,#101,#102);
#100 = CARTESIAN_POINT('',(132.8,-13.2,13.39));
#101 = DIRECTION('',(0.,0.,-1.));
#102 = DIRECTION('',(3.553E-14,1.,0.));
#103 = ORIENTED_EDGE('',*,*,#104,.F.);
#104 = EDGE_CURVE('',#105,#96,#107,.T.);
#105 = VERTEX_POINT('',#106);
#106 = CARTESIAN_POINT('',(133.6,-13.2,12.99));
#107 = LINE('',#108,#109);
#108 = CARTESIAN_POINT('',(133.6,-13.2,12.99));
#109 = VECTOR('',#110,1.);
#110 = DIRECTION('',(0.,0.,1.));
#111 = ORIENTED_EDGE('',*,*,#112,.F.);
#112 = EDGE_CURVE('',#40,#105,#113,.T.);
#113 = CIRCLE('',#114,0.8);
#114 = AXIS2_PLACEMENT_3D('',#115,#116,#117);
#115 = CARTESIAN_POINT('',(132.8,-13.2,12.99));
#116 = DIRECTION('',(0.,0.,-1.));
#117 = DIRECTION('',(3.553E-14,1.,0.));
#118 = CYLINDRICAL_SURFACE('',#119,0.8);
#119 = AXIS2_PLACEMENT_3D('',#120,#121,#122);
#120 = CARTESIAN_POINT('',(132.8,-13.2,12.99));
#121 = DIRECTION('',(0.,0.,-1.));
#122 = DIRECTION('',(3.553E-14,1.,0.));
#123 = ADVANCED_FACE('',(#124),#201,.F.);
#124 = FACE_BOUND('',#125,.F.);
#125 = EDGE_LOOP('',(#126,#127,#128,#136,#145,#153,#161,#169,#177,#185,
    #194,#200));
#126 = ORIENTED_EDGE('',*,*,#47,.F.);
#127 = ORIENTED_EDGE('',*,*,#79,.F.);
#128 = ORIENTED_EDGE('',*,*,#129,.F.);
#129 = EDGE_CURVE('',#130,#62,#132,.T.);
#130 = VERTEX_POINT('',#131);
#131 = CARTESIAN_POINT('',(112.4,-14.5,12.99));
#132 = LINE('',#133,#134);
#133 = CARTESIAN_POINT('',(112.4,-14.5,12.99));
#134 = VECTOR('',#135,1.);
#135 = DIRECTION('',(0.,1.,0.));
#136 = ORIENTED_EDGE('',*,*,#137,.F.);
#137 = EDGE_CURVE('',#138,#130,#140,.T.);
#138 = VERTEX_POINT('',#139);
#139 = CARTESIAN_POINT('',(113.2,-15.3,12.99));
#140 = CIRCLE('',#141,0.8);
#141 = AXIS2_PLACEMENT_3D('',#142,#143,#144);
#142 = CARTESIAN_POINT('',(113.2,-14.5,12.99));
#143 = DIRECTION('',(0.,0.,-1.));
#144 = DIRECTION('',(0.,-1.,0.));
#145 = ORIENTED_EDGE('',*,*,#146,.F.);
#146 = EDGE_CURVE('',#147,#138,#149,.T.);
#147 = VERTEX_POINT('',#148);
#148 = CARTESIAN_POINT('',(114.85,-15.3,12.99));
#149 = LINE('',#150,#151);
#150 = CARTESIAN_POINT('',(132.8,-15.3,12.99));
#151 = VECTOR('',#152,1.);
#152 = DIRECTION('',(-1.,0.,0.));
#153 = ORIENTED_EDGE('',*,*,#154,.T.);
#154 = EDGE_CURVE('',#147,#155,#157,.T.);
#155 = VERTEX_POINT('',#156);
#156 = CARTESIAN_POINT('',(114.85,-15.1,12.99));
#157 = LINE('',#158,#159);
#158 = CARTESIAN_POINT('',(114.85,-46.04641870115,12.99));
#159 = VECTOR('',#160,1.);
#160 = DIRECTION('',(0.,1.,0.));
#161 = ORIENTED_EDGE('',*,*,#162,.F.);
#162 = EDGE_CURVE('',#163,#155,#165,.T.);
#163 = VERTEX_POINT('',#164);
#164 = CARTESIAN_POINT('',(130.75,-15.1,12.99));
#165 = LINE('',#166,#167);
#166 = CARTESIAN_POINT('',(118.90608769591,-15.1,12.99));
#167 = VECTOR('',#168,1.);
#168 = DIRECTION('',(-1.,0.,0.));
#169 = ORIENTED_EDGE('',*,*,#170,.F.);
#170 = EDGE_CURVE('',#171,#163,#173,.T.);
#171 = VERTEX_POINT('',#172);
#172 = CARTESIAN_POINT('',(130.75,-15.3,12.99));
#173 = LINE('',#174,#175);
#174 = CARTESIAN_POINT('',(130.75,-46.04641870115,12.99));
#175 = VECTOR('',#176,1.);
#176 = DIRECTION('',(0.,1.,0.));
#177 = ORIENTED_EDGE('',*,*,#178,.F.);
#178 = EDGE_CURVE('',#179,#171,#181,.T.);
#179 = VERTEX_POINT('',#180);
#180 = CARTESIAN_POINT('',(132.8,-15.3,12.99));
#181 = LINE('',#182,#183);
#182 = CARTESIAN_POINT('',(132.8,-15.3,12.99));
#183 = VECTOR('',#184,1.);
#184 = DIRECTION('',(-1.,0.,0.));
#185 = ORIENTED_EDGE('',*,*,#186,.F.);
#186 = EDGE_CURVE('',#187,#179,#189,.T.);
#187 = VERTEX_POINT('',#188);
#188 = CARTESIAN_POINT('',(133.6,-14.5,12.99));
#189 = CIRCLE('',#190,0.8);
#190 = AXIS2_PLACEMENT_3D('',#191,#192,#193);
#191 = CARTESIAN_POINT('',(132.8,-14.5,12.99));
#192 = DIRECTION('',(0.,0.,-1.));
#193 = DIRECTION('',(1.,-4.441E-14,0.));
#194 = ORIENTED_EDGE('',*,*,#195,.F.);
#195 = EDGE_CURVE('',#105,#187,#196,.T.);
#196 = LINE('',#197,#198);
#197 = CARTESIAN_POINT('',(133.6,-13.2,12.99));
#198 = VECTOR('',#199,1.);
#199 = DIRECTION('',(0.,-1.,0.));
#200 = ORIENTED_EDGE('',*,*,#112,.F.);
#201 = PLANE('',#202);
#202 = AXIS2_PLACEMENT_3D('',#203,#204,#205);
#203 = CARTESIAN_POINT('',(123.,-13.85,12.99));
#204 = DIRECTION('',(0.,0.,1.));
#205 = DIRECTION('',(1.,0.,0.));
#206 = ADVANCED_FACE('',(#207),#284,.T.);
#207 = FACE_BOUND('',#208,.T.);
#208 = EDGE_LOOP('',(#209,#210,#211,#219,#228,#236,#244,#252,#260,#268,
    #277,#283));
#209 = ORIENTED_EDGE('',*,*,#31,.F.);
#210 = ORIENTED_EDGE('',*,*,#71,.F.);
#211 = ORIENTED_EDGE('',*,*,#212,.F.);
#212 = EDGE_CURVE('',#213,#64,#215,.T.);
#213 = VERTEX_POINT('',#214);
#214 = CARTESIAN_POINT('',(112.4,-14.5,13.39));
#215 = LINE('',#216,#217);
#216 = CARTESIAN_POINT('',(112.4,-14.5,13.39));
#217 = VECTOR('',#218,1.);
#218 = DIRECTION('',(0.,1.,0.));
#219 = ORIENTED_EDGE('',*,*,#220,.F.);
#220 = EDGE_CURVE('',#221,#213,#223,.T.);
#221 = VERTEX_POINT('',#222);
#222 = CARTESIAN_POINT('',(113.2,-15.3,13.39));
#223 = CIRCLE('',#224,0.8);
#224 = AXIS2_PLACEMENT_3D('',#225,#226,#227);
#225 = CARTESIAN_POINT('',(113.2,-14.5,13.39));
#226 = DIRECTION('',(0.,0.,-1.));
#227 = DIRECTION('',(0.,-1.,0.));
#228 = ORIENTED_EDGE('',*,*,#229,.F.);
#229 = EDGE_CURVE('',#230,#221,#232,.T.);
#230 = VERTEX_POINT('',#231);
#231 = CARTESIAN_POINT('',(114.85,-15.3,13.39));
#232 = LINE('',#233,#234);
#233 = CARTESIAN_POINT('',(132.8,-15.3,13.39));
#234 = VECTOR('',#235,1.);
#235 = DIRECTION('',(-1.,0.,0.));
#236 = ORIENTED_EDGE('',*,*,#237,.T.);
#237 = EDGE_CURVE('',#230,#238,#240,.T.);
#238 = VERTEX_POINT('',#239);
#239 = CARTESIAN_POINT('',(114.85,-15.1,13.39));
#240 = LINE('',#241,#242);
#241 = CARTESIAN_POINT('',(114.85,-46.04893884022,13.39));
#242 = VECTOR('',#243,1.);
#243 = DIRECTION('',(0.,1.,0.));
#244 = ORIENTED_EDGE('',*,*,#245,.F.);
#245 = EDGE_CURVE('',#246,#238,#248,.T.);
#246 = VERTEX_POINT('',#247);
#247 = CARTESIAN_POINT('',(130.75,-15.1,13.39));
#248 = LINE('',#249,#250);
#249 = CARTESIAN_POINT('',(118.90334371508,-15.1,13.39));
#250 = VECTOR('',#251,1.);
#251 = DIRECTION('',(-1.,0.,0.));
#252 = ORIENTED_EDGE('',*,*,#253,.F.);
#253 = EDGE_CURVE('',#254,#246,#256,.T.);
#254 = VERTEX_POINT('',#255);
#255 = CARTESIAN_POINT('',(130.75,-15.3,13.39));
#256 = LINE('',#257,#258);
#257 = CARTESIAN_POINT('',(130.75,-46.04893884022,13.39));
#258 = VECTOR('',#259,1.);
#259 = DIRECTION('',(0.,1.,0.));
#260 = ORIENTED_EDGE('',*,*,#261,.F.);
#261 = EDGE_CURVE('',#262,#254,#264,.T.);
#262 = VERTEX_POINT('',#263);
#263 = CARTESIAN_POINT('',(132.8,-15.3,13.39));
#264 = LINE('',#265,#266);
#265 = CARTESIAN_POINT('',(132.8,-15.3,13.39));
#266 = VECTOR('',#267,1.);
#267 = DIRECTION('',(-1.,0.,0.));
#268 = ORIENTED_EDGE('',*,*,#269,.F.);
#269 = EDGE_CURVE('',#270,#262,#272,.T.);
#270 = VERTEX_POINT('',#271);
#271 = CARTESIAN_POINT('',(133.6,-14.5,13.39));
#272 = CIRCLE('',#273,0.8);
#273 = AXIS2_PLACEMENT_3D('',#274,#275,#276);
#274 = CARTESIAN_POINT('',(132.8,-14.5,13.39));
#275 = DIRECTION('',(0.,0.,-1.));
#276 = DIRECTION('',(1.,-4.441E-14,0.));
#277 = ORIENTED_EDGE('',*,*,#278,.F.);
#278 = EDGE_CURVE('',#96,#270,#279,.T.);
#279 = LINE('',#280,#281);
#280 = CARTESIAN_POINT('',(133.6,-13.2,13.39));
#281 = VECTOR('',#282,1.);
#282 = DIRECTION('',(0.,-1.,0.));
#283 = ORIENTED_EDGE('',*,*,#95,.F.);
#284 = PLANE('',#285);
#285 = AXIS2_PLACEMENT_3D('',#286,#287,#288);
#286 = CARTESIAN_POINT('',(123.,-13.85,13.39));
#287 = DIRECTION('',(0.,0.,1.));
#288 = DIRECTION('',(1.,0.,0.));
#289 = ADVANCED_FACE('',(#290),#301,.T.);
#290 = FACE_BOUND('',#291,.T.);
#291 = EDGE_LOOP('',(#292,#298,#299,#300));
#292 = ORIENTED_EDGE('',*,*,#293,.T.);
#293 = EDGE_CURVE('',#130,#213,#294,.T.);
#294 = LINE('',#295,#296);
#295 = CARTESIAN_POINT('',(112.4,-14.5,12.99));
#296 = VECTOR('',#297,1.);
#297 = DIRECTION('',(0.,0.,1.));
#298 = ORIENTED_EDGE('',*,*,#212,.T.);
#299 = ORIENTED_EDGE('',*,*,#61,.F.);
#300 = ORIENTED_EDGE('',*,*,#129,.F.);
#301 = PLANE('',#302);
#302 = AXIS2_PLACEMENT_3D('',#303,#304,#305);
#303 = CARTESIAN_POINT('',(112.4,-14.5,12.99));
#304 = DIRECTION('',(-1.,0.,0.));
#305 = DIRECTION('',(0.,1.,0.));
#306 = ADVANCED_FACE('',(#307),#318,.T.);
#307 = FACE_BOUND('',#308,.T.);
#308 = EDGE_LOOP('',(#309,#310,#311,#317));
#309 = ORIENTED_EDGE('',*,*,#104,.T.);
#310 = ORIENTED_EDGE('',*,*,#278,.T.);
#311 = ORIENTED_EDGE('',*,*,#312,.F.);
#312 = EDGE_CURVE('',#187,#270,#313,.T.);
#313 = LINE('',#314,#315);
#314 = CARTESIAN_POINT('',(133.6,-14.5,12.99));
#315 = VECTOR('',#316,1.);
#316 = DIRECTION('',(0.,0.,1.));
#317 = ORIENTED_EDGE('',*,*,#195,.F.);
#318 = PLANE('',#319);
#319 = AXIS2_PLACEMENT_3D('',#320,#321,#322);
#320 = CARTESIAN_POINT('',(133.6,-13.2,12.99));
#321 = DIRECTION('',(1.,0.,0.));
#322 = DIRECTION('',(0.,-1.,0.));
#323 = ADVANCED_FACE('',(#324),#335,.T.);
#324 = FACE_BOUND('',#325,.T.);
#325 = EDGE_LOOP('',(#326,#327,#328,#334));
#326 = ORIENTED_EDGE('',*,*,#312,.T.);
#327 = ORIENTED_EDGE('',*,*,#269,.T.);
#328 = ORIENTED_EDGE('',*,*,#329,.F.);
#329 = EDGE_CURVE('',#179,#262,#330,.T.);
#330 = LINE('',#331,#332);
#331 = CARTESIAN_POINT('',(132.8,-15.3,12.99));
#332 = VECTOR('',#333,1.);
#333 = DIRECTION('',(0.,0.,1.));
#334 = ORIENTED_EDGE('',*,*,#186,.F.);
#335 = CYLINDRICAL_SURFACE('',#336,0.8);
#336 = AXIS2_PLACEMENT_3D('',#337,#338,#339);
#337 = CARTESIAN_POINT('',(132.8,-14.5,12.99));
#338 = DIRECTION('',(0.,0.,-1.));
#339 = DIRECTION('',(1.,-4.441E-14,0.));
#340 = ADVANCED_FACE('',(#341),#352,.T.);
#341 = FACE_BOUND('',#342,.T.);
#342 = EDGE_LOOP('',(#343,#344,#345,#346));
#343 = ORIENTED_EDGE('',*,*,#178,.F.);
#344 = ORIENTED_EDGE('',*,*,#329,.T.);
#345 = ORIENTED_EDGE('',*,*,#261,.T.);
#346 = ORIENTED_EDGE('',*,*,#347,.F.);
#347 = EDGE_CURVE('',#171,#254,#348,.T.);
#348 = LINE('',#349,#350);
#349 = CARTESIAN_POINT('',(130.75,-15.3,12.345));
#350 = VECTOR('',#351,1.);
#351 = DIRECTION('',(0.,0.,1.));
#352 = PLANE('',#353);
#353 = AXIS2_PLACEMENT_3D('',#354,#355,#356);
#354 = CARTESIAN_POINT('',(132.8,-15.3,12.99));
#355 = DIRECTION('',(0.,-1.,0.));
#356 = DIRECTION('',(-1.,0.,0.));
#357 = ADVANCED_FACE('',(#358),#369,.F.);
#358 = FACE_BOUND('',#359,.F.);
#359 = EDGE_LOOP('',(#360,#361,#362,#368));
#360 = ORIENTED_EDGE('',*,*,#347,.F.);
#361 = ORIENTED_EDGE('',*,*,#170,.T.);
#362 = ORIENTED_EDGE('',*,*,#363,.T.);
#363 = EDGE_CURVE('',#163,#246,#364,.T.);
#364 = LINE('',#365,#366);
#365 = CARTESIAN_POINT('',(130.75,-15.1,11.7));
#366 = VECTOR('',#367,1.);
#367 = DIRECTION('',(0.,0.,1.));
#368 = ORIENTED_EDGE('',*,*,#253,.F.);
#369 = PLANE('',#370);
#370 = AXIS2_PLACEMENT_3D('',#371,#372,#373);
#371 = CARTESIAN_POINT('',(130.75,-53.,11.7));
#372 = DIRECTION('',(1.,0.,0.));
#373 = DIRECTION('',(0.,0.,1.));
#374 = ADVANCED_FACE('',(#375),#386,.F.);
#375 = FACE_BOUND('',#376,.F.);
#376 = EDGE_LOOP('',(#377,#378,#379,#385));
#377 = ORIENTED_EDGE('',*,*,#363,.F.);
#378 = ORIENTED_EDGE('',*,*,#162,.T.);
#379 = ORIENTED_EDGE('',*,*,#380,.T.);
#380 = EDGE_CURVE('',#155,#238,#381,.T.);
#381 = LINE('',#382,#383);
#382 = CARTESIAN_POINT('',(114.85,-15.1,11.7));
#383 = VECTOR('',#384,1.);
#384 = DIRECTION('',(0.,0.,1.));
#385 = ORIENTED_EDGE('',*,*,#245,.F.);
#386 = PLANE('',#387);
#387 = AXIS2_PLACEMENT_3D('',#388,#389,#390);
#388 = CARTESIAN_POINT('',(114.85,-15.1,11.7));
#389 = DIRECTION('',(0.,1.,0.));
#390 = DIRECTION('',(0.,0.,1.));
#391 = ADVANCED_FACE('',(#392),#403,.T.);
#392 = FACE_BOUND('',#393,.T.);
#393 = EDGE_LOOP('',(#394,#400,#401,#402));
#394 = ORIENTED_EDGE('',*,*,#395,.F.);
#395 = EDGE_CURVE('',#147,#230,#396,.T.);
#396 = LINE('',#397,#398);
#397 = CARTESIAN_POINT('',(114.85,-15.3,12.345));
#398 = VECTOR('',#399,1.);
#399 = DIRECTION('',(0.,0.,1.));
#400 = ORIENTED_EDGE('',*,*,#154,.T.);
#401 = ORIENTED_EDGE('',*,*,#380,.T.);
#402 = ORIENTED_EDGE('',*,*,#237,.F.);
#403 = PLANE('',#404);
#404 = AXIS2_PLACEMENT_3D('',#405,#406,#407);
#405 = CARTESIAN_POINT('',(114.85,-53.,11.7));
#406 = DIRECTION('',(1.,0.,0.));
#407 = DIRECTION('',(0.,0.,1.));
#408 = ADVANCED_FACE('',(#409),#420,.T.);
#409 = FACE_BOUND('',#410,.T.);
#410 = EDGE_LOOP('',(#411,#412,#413,#414));
#411 = ORIENTED_EDGE('',*,*,#146,.F.);
#412 = ORIENTED_EDGE('',*,*,#395,.T.);
#413 = ORIENTED_EDGE('',*,*,#229,.T.);
#414 = ORIENTED_EDGE('',*,*,#415,.F.);
#415 = EDGE_CURVE('',#138,#221,#416,.T.);
#416 = LINE('',#417,#418);
#417 = CARTESIAN_POINT('',(113.2,-15.3,12.99));
#418 = VECTOR('',#419,1.);
#419 = DIRECTION('',(0.,0.,1.));
#420 = PLANE('',#421);
#421 = AXIS2_PLACEMENT_3D('',#422,#423,#424);
#422 = CARTESIAN_POINT('',(132.8,-15.3,12.99));
#423 = DIRECTION('',(0.,-1.,0.));
#424 = DIRECTION('',(-1.,0.,0.));
#425 = ADVANCED_FACE('',(#426),#432,.T.);
#426 = FACE_BOUND('',#427,.T.);
#427 = EDGE_LOOP('',(#428,#429,#430,#431));
#428 = ORIENTED_EDGE('',*,*,#415,.T.);
#429 = ORIENTED_EDGE('',*,*,#220,.T.);
#430 = ORIENTED_EDGE('',*,*,#293,.F.);
#431 = ORIENTED_EDGE('',*,*,#137,.F.);
#432 = CYLINDRICAL_SURFACE('',#433,0.8);
#433 = AXIS2_PLACEMENT_3D('',#434,#435,#436);
#434 = CARTESIAN_POINT('',(113.2,-14.5,12.99));
#435 = DIRECTION('',(0.,0.,-1.));
#436 = DIRECTION('',(0.,-1.,0.));
#437 = MANIFOLD_SOLID_BREP('',#438);
#438 = CLOSED_SHELL('',(#439,#479,#658,#683,#854,#871,#888,#905,#922,
    #939,#956,#973,#985,#1007,#1024,#1041,#1058,#1075,#1092,#1109,#1121,
    #1143,#1160));
#439 = ADVANCED_FACE('',(#440),#474,.T.);
#440 = FACE_BOUND('',#441,.T.);
#441 = EDGE_LOOP('',(#442,#452,#460,#468));
#442 = ORIENTED_EDGE('',*,*,#443,.F.);
#443 = EDGE_CURVE('',#444,#446,#448,.T.);
#444 = VERTEX_POINT('',#445);
#445 = CARTESIAN_POINT('',(130.75,-52.8,12.99));
#446 = VERTEX_POINT('',#447);
#447 = CARTESIAN_POINT('',(131.5,-52.8,12.99));
#448 = LINE('',#449,#450);
#449 = CARTESIAN_POINT('',(128.,-52.8,12.99));
#450 = VECTOR('',#451,1.);
#451 = DIRECTION('',(1.,0.,0.));
#452 = ORIENTED_EDGE('',*,*,#453,.F.);
#453 = EDGE_CURVE('',#454,#444,#456,.T.);
#454 = VERTEX_POINT('',#455);
#455 = CARTESIAN_POINT('',(130.75,-52.8,13.39));
#456 = LINE('',#457,#458);
#457 = CARTESIAN_POINT('',(130.75,-52.8,12.345));
#458 = VECTOR('',#459,1.);
#459 = DIRECTION('',(0.,0.,-1.));
#460 = ORIENTED_EDGE('',*,*,#461,.T.);
#461 = EDGE_CURVE('',#454,#462,#464,.T.);
#462 = VERTEX_POINT('',#463);
#463 = CARTESIAN_POINT('',(131.5,-52.8,13.39));
#464 = LINE('',#465,#466);
#465 = CARTESIAN_POINT('',(128.,-52.8,13.39));
#466 = VECTOR('',#467,1.);
#467 = DIRECTION('',(1.,0.,0.));
#468 = ORIENTED_EDGE('',*,*,#469,.F.);
#469 = EDGE_CURVE('',#446,#462,#470,.T.);
#470 = LINE('',#471,#472);
#471 = CARTESIAN_POINT('',(131.5,-52.8,12.99));
#472 = VECTOR('',#473,1.);
#473 = DIRECTION('',(0.,0.,1.));
#474 = PLANE('',#475);
#475 = AXIS2_PLACEMENT_3D('',#476,#477,#478);
#476 = CARTESIAN_POINT('',(128.,-52.8,12.99));
#477 = DIRECTION('',(0.,1.,0.));
#478 = DIRECTION('',(1.,0.,0.));
#479 = ADVANCED_FACE('',(#480,#557,#627),#653,.F.);
#480 = FACE_BOUND('',#481,.F.);
#481 = EDGE_LOOP('',(#482,#483,#491,#499,#508,#516,#525,#533,#542,#550)
  );
#482 = ORIENTED_EDGE('',*,*,#443,.F.);
#483 = ORIENTED_EDGE('',*,*,#484,.F.);
#484 = EDGE_CURVE('',#485,#444,#487,.T.);
#485 = VERTEX_POINT('',#486);
#486 = CARTESIAN_POINT('',(130.75,-53.,12.99));
#487 = LINE('',#488,#489);
#488 = CARTESIAN_POINT('',(130.75,-46.04641870115,12.99));
#489 = VECTOR('',#490,1.);
#490 = DIRECTION('',(0.,1.,0.));
#491 = ORIENTED_EDGE('',*,*,#492,.T.);
#492 = EDGE_CURVE('',#485,#493,#495,.T.);
#493 = VERTEX_POINT('',#494);
#494 = CARTESIAN_POINT('',(127.4,-53.,12.99));
#495 = LINE('',#496,#497);
#496 = CARTESIAN_POINT('',(118.90608769591,-53.,12.99));
#497 = VECTOR('',#498,1.);
#498 = DIRECTION('',(-1.,0.,0.));
#499 = ORIENTED_EDGE('',*,*,#500,.F.);
#500 = EDGE_CURVE('',#501,#493,#503,.T.);
#501 = VERTEX_POINT('',#502);
#502 = CARTESIAN_POINT('',(127.,-53.8,12.99));
#503 = CIRCLE('',#504,1.);
#504 = AXIS2_PLACEMENT_3D('',#505,#506,#507);
#505 = CARTESIAN_POINT('',(128.,-53.8,12.99));
#506 = DIRECTION('',(0.,0.,-1.));
#507 = DIRECTION('',(-1.,-1.421E-14,-0.));
#508 = ORIENTED_EDGE('',*,*,#509,.F.);
#509 = EDGE_CURVE('',#510,#501,#512,.T.);
#510 = VERTEX_POINT('',#511);
#511 = CARTESIAN_POINT('',(127.,-63.,12.99));
#512 = LINE('',#513,#514);
#513 = CARTESIAN_POINT('',(127.,-63.,12.99));
#514 = VECTOR('',#515,1.);
#515 = DIRECTION('',(0.,1.,0.));
#516 = ORIENTED_EDGE('',*,*,#517,.F.);
#517 = EDGE_CURVE('',#518,#510,#520,.T.);
#518 = VERTEX_POINT('',#519);
#519 = CARTESIAN_POINT('',(128.,-64.,12.99));
#520 = CIRCLE('',#521,1.);
#521 = AXIS2_PLACEMENT_3D('',#522,#523,#524);
#522 = CARTESIAN_POINT('',(128.,-63.,12.99));
#523 = DIRECTION('',(0.,0.,-1.));
#524 = DIRECTION('',(1.421E-14,-1.,0.));
#525 = ORIENTED_EDGE('',*,*,#526,.F.);
#526 = EDGE_CURVE('',#527,#518,#529,.T.);
#527 = VERTEX_POINT('',#528);
#528 = CARTESIAN_POINT('',(131.5,-64.,12.99));
#529 = LINE('',#530,#531);
#530 = CARTESIAN_POINT('',(131.5,-64.,12.99));
#531 = VECTOR('',#532,1.);
#532 = DIRECTION('',(-1.,0.,0.));
#533 = ORIENTED_EDGE('',*,*,#534,.F.);
#534 = EDGE_CURVE('',#535,#527,#537,.T.);
#535 = VERTEX_POINT('',#536);
#536 = CARTESIAN_POINT('',(132.5,-63.,12.99));
#537 = CIRCLE('',#538,1.);
#538 = AXIS2_PLACEMENT_3D('',#539,#540,#541);
#539 = CARTESIAN_POINT('',(131.5,-63.,12.99));
#540 = DIRECTION('',(0.,0.,-1.));
#541 = DIRECTION('',(1.,1.421E-14,0.));
#542 = ORIENTED_EDGE('',*,*,#543,.F.);
#543 = EDGE_CURVE('',#544,#535,#546,.T.);
#544 = VERTEX_POINT('',#545);
#545 = CARTESIAN_POINT('',(132.5,-53.8,12.99));
#546 = LINE('',#547,#548);
#547 = CARTESIAN_POINT('',(132.5,-53.8,12.99));
#548 = VECTOR('',#549,1.);
#549 = DIRECTION('',(0.,-1.,0.));
#550 = ORIENTED_EDGE('',*,*,#551,.F.);
#551 = EDGE_CURVE('',#446,#544,#552,.T.);
#552 = CIRCLE('',#553,1.);
#553 = AXIS2_PLACEMENT_3D('',#554,#555,#556);
#554 = CARTESIAN_POINT('',(131.5,-53.8,12.99));
#555 = DIRECTION('',(0.,0.,-1.));
#556 = DIRECTION('',(0.,1.,0.));
#557 = FACE_BOUND('',#558,.F.);
#558 = EDGE_LOOP('',(#559,#570,#578,#587,#595,#604,#612,#621));
#559 = ORIENTED_EDGE('',*,*,#560,.T.);
#560 = EDGE_CURVE('',#561,#563,#565,.T.);
#561 = VERTEX_POINT('',#562);
#562 = CARTESIAN_POINT('',(128.5,-60.2,12.99));
#563 = VERTEX_POINT('',#564);
#564 = CARTESIAN_POINT('',(128.9,-59.8,12.99));
#565 = CIRCLE('',#566,0.4);
#566 = AXIS2_PLACEMENT_3D('',#567,#568,#569);
#567 = CARTESIAN_POINT('',(128.9,-60.2,12.99));
#568 = DIRECTION('',(0.,0.,-1.));
#569 = DIRECTION('',(-1.,-5.329E-14,-0.));
#570 = ORIENTED_EDGE('',*,*,#571,.T.);
#571 = EDGE_CURVE('',#563,#572,#574,.T.);
#572 = VERTEX_POINT('',#573);
#573 = CARTESIAN_POINT('',(130.6,-59.8,12.99));
#574 = LINE('',#575,#576);
#575 = CARTESIAN_POINT('',(128.9,-59.8,12.99));
#576 = VECTOR('',#577,1.);
#577 = DIRECTION('',(1.,0.,0.));
#578 = ORIENTED_EDGE('',*,*,#579,.T.);
#579 = EDGE_CURVE('',#572,#580,#582,.T.);
#580 = VERTEX_POINT('',#581);
#581 = CARTESIAN_POINT('',(131.,-60.2,12.99));
#582 = CIRCLE('',#583,0.4);
#583 = AXIS2_PLACEMENT_3D('',#584,#585,#586);
#584 = CARTESIAN_POINT('',(130.6,-60.2,12.99));
#585 = DIRECTION('',(0.,0.,-1.));
#586 = DIRECTION('',(-7.105E-14,1.,0.));
#587 = ORIENTED_EDGE('',*,*,#588,.T.);
#588 = EDGE_CURVE('',#580,#589,#591,.T.);
#589 = VERTEX_POINT('',#590);
#590 = CARTESIAN_POINT('',(131.,-61.9,12.99));
#591 = LINE('',#592,#593);
#592 = CARTESIAN_POINT('',(131.,-60.2,12.99));
#593 = VECTOR('',#594,1.);
#594 = DIRECTION('',(0.,-1.,0.));
#595 = ORIENTED_EDGE('',*,*,#596,.T.);
#596 = EDGE_CURVE('',#589,#597,#599,.T.);
#597 = VERTEX_POINT('',#598);
#598 = CARTESIAN_POINT('',(130.6,-62.3,12.99));
#599 = CIRCLE('',#600,0.4);
#600 = AXIS2_PLACEMENT_3D('',#601,#602,#603);
#601 = CARTESIAN_POINT('',(130.6,-61.9,12.99));
#602 = DIRECTION('',(0.,0.,-1.));
#603 = DIRECTION('',(1.,5.329E-14,0.));
#604 = ORIENTED_EDGE('',*,*,#605,.T.);
#605 = EDGE_CURVE('',#597,#606,#608,.T.);
#606 = VERTEX_POINT('',#607);
#607 = CARTESIAN_POINT('',(128.9,-62.3,12.99));
#608 = LINE('',#609,#610);
#609 = CARTESIAN_POINT('',(130.6,-62.3,12.99));
#610 = VECTOR('',#611,1.);
#611 = DIRECTION('',(-1.,0.,0.));
#612 = ORIENTED_EDGE('',*,*,#613,.T.);
#613 = EDGE_CURVE('',#606,#614,#616,.T.);
#614 = VERTEX_POINT('',#615);
#615 = CARTESIAN_POINT('',(128.5,-61.9,12.99));
#616 = CIRCLE('',#617,0.4);
#617 = AXIS2_PLACEMENT_3D('',#618,#619,#620);
#618 = CARTESIAN_POINT('',(128.9,-61.9,12.99));
#619 = DIRECTION('',(0.,0.,-1.));
#620 = DIRECTION('',(7.105E-14,-1.,0.));
#621 = ORIENTED_EDGE('',*,*,#622,.T.);
#622 = EDGE_CURVE('',#614,#561,#623,.T.);
#623 = LINE('',#624,#625);
#624 = CARTESIAN_POINT('',(128.5,-61.9,12.99));
#625 = VECTOR('',#626,1.);
#626 = DIRECTION('',(0.,1.,0.));
#627 = FACE_BOUND('',#628,.F.);
#628 = EDGE_LOOP('',(#629,#639,#647));
#629 = ORIENTED_EDGE('',*,*,#630,.T.);
#630 = EDGE_CURVE('',#631,#633,#635,.T.);
#631 = VERTEX_POINT('',#632);
#632 = CARTESIAN_POINT('',(128.3,-57.6,12.99));
#633 = VERTEX_POINT('',#634);
#634 = CARTESIAN_POINT('',(128.3,-54.4,12.99));
#635 = LINE('',#636,#637);
#636 = CARTESIAN_POINT('',(128.3,-57.6,12.99));
#637 = VECTOR('',#638,1.);
#638 = DIRECTION('',(0.,1.,0.));
#639 = ORIENTED_EDGE('',*,*,#640,.T.);
#640 = EDGE_CURVE('',#633,#641,#643,.T.);
#641 = VERTEX_POINT('',#642);
#642 = CARTESIAN_POINT('',(131.4,-56.,12.99));
#643 = LINE('',#644,#645);
#644 = CARTESIAN_POINT('',(128.3,-54.4,12.99));
#645 = VECTOR('',#646,1.);
#646 = DIRECTION('',(0.888620657055,-0.45864291977,0.));
#647 = ORIENTED_EDGE('',*,*,#648,.T.);
#648 = EDGE_CURVE('',#641,#631,#649,.T.);
#649 = LINE('',#650,#651);
#650 = CARTESIAN_POINT('',(131.4,-56.,12.99));
#651 = VECTOR('',#652,1.);
#652 = DIRECTION('',(-0.888620657055,-0.45864291977,0.));
#653 = PLANE('',#654);
#654 = AXIS2_PLACEMENT_3D('',#655,#656,#657);
#655 = CARTESIAN_POINT('',(129.75,-58.4,12.99));
#656 = DIRECTION('',(0.,0.,1.));
#657 = DIRECTION('',(1.,0.,0.));
#658 = ADVANCED_FACE('',(#659),#678,.T.);
#659 = FACE_BOUND('',#660,.T.);
#660 = EDGE_LOOP('',(#661,#662,#671,#677));
#661 = ORIENTED_EDGE('',*,*,#469,.T.);
#662 = ORIENTED_EDGE('',*,*,#663,.T.);
#663 = EDGE_CURVE('',#462,#664,#666,.T.);
#664 = VERTEX_POINT('',#665);
#665 = CARTESIAN_POINT('',(132.5,-53.8,13.39));
#666 = CIRCLE('',#667,1.);
#667 = AXIS2_PLACEMENT_3D('',#668,#669,#670);
#668 = CARTESIAN_POINT('',(131.5,-53.8,13.39));
#669 = DIRECTION('',(0.,0.,-1.));
#670 = DIRECTION('',(0.,1.,0.));
#671 = ORIENTED_EDGE('',*,*,#672,.F.);
#672 = EDGE_CURVE('',#544,#664,#673,.T.);
#673 = LINE('',#674,#675);
#674 = CARTESIAN_POINT('',(132.5,-53.8,12.99));
#675 = VECTOR('',#676,1.);
#676 = DIRECTION('',(0.,0.,1.));
#677 = ORIENTED_EDGE('',*,*,#551,.F.);
#678 = CYLINDRICAL_SURFACE('',#679,1.);
#679 = AXIS2_PLACEMENT_3D('',#680,#681,#682);
#680 = CARTESIAN_POINT('',(131.5,-53.8,12.99));
#681 = DIRECTION('',(0.,0.,-1.));
#682 = DIRECTION('',(0.,1.,0.));
#683 = ADVANCED_FACE('',(#684,#753,#823),#849,.T.);
#684 = FACE_BOUND('',#685,.T.);
#685 = EDGE_LOOP('',(#686,#687,#695,#703,#712,#720,#729,#737,#746,#752)
  );
#686 = ORIENTED_EDGE('',*,*,#461,.F.);
#687 = ORIENTED_EDGE('',*,*,#688,.F.);
#688 = EDGE_CURVE('',#689,#454,#691,.T.);
#689 = VERTEX_POINT('',#690);
#690 = CARTESIAN_POINT('',(130.75,-53.,13.39));
#691 = LINE('',#692,#693);
#692 = CARTESIAN_POINT('',(130.75,-46.04893884022,13.39));
#693 = VECTOR('',#694,1.);
#694 = DIRECTION('',(0.,1.,0.));
#695 = ORIENTED_EDGE('',*,*,#696,.T.);
#696 = EDGE_CURVE('',#689,#697,#699,.T.);
#697 = VERTEX_POINT('',#698);
#698 = CARTESIAN_POINT('',(127.4,-53.,13.39));
#699 = LINE('',#700,#701);
#700 = CARTESIAN_POINT('',(118.90334371508,-53.,13.39));
#701 = VECTOR('',#702,1.);
#702 = DIRECTION('',(-1.,0.,0.));
#703 = ORIENTED_EDGE('',*,*,#704,.F.);
#704 = EDGE_CURVE('',#705,#697,#707,.T.);
#705 = VERTEX_POINT('',#706);
#706 = CARTESIAN_POINT('',(127.,-53.8,13.39));
#707 = CIRCLE('',#708,1.);
#708 = AXIS2_PLACEMENT_3D('',#709,#710,#711);
#709 = CARTESIAN_POINT('',(128.,-53.8,13.39));
#710 = DIRECTION('',(0.,0.,-1.));
#711 = DIRECTION('',(-1.,-1.421E-14,-0.));
#712 = ORIENTED_EDGE('',*,*,#713,.F.);
#713 = EDGE_CURVE('',#714,#705,#716,.T.);
#714 = VERTEX_POINT('',#715);
#715 = CARTESIAN_POINT('',(127.,-63.,13.39));
#716 = LINE('',#717,#718);
#717 = CARTESIAN_POINT('',(127.,-63.,13.39));
#718 = VECTOR('',#719,1.);
#719 = DIRECTION('',(0.,1.,0.));
#720 = ORIENTED_EDGE('',*,*,#721,.F.);
#721 = EDGE_CURVE('',#722,#714,#724,.T.);
#722 = VERTEX_POINT('',#723);
#723 = CARTESIAN_POINT('',(128.,-64.,13.39));
#724 = CIRCLE('',#725,1.);
#725 = AXIS2_PLACEMENT_3D('',#726,#727,#728);
#726 = CARTESIAN_POINT('',(128.,-63.,13.39));
#727 = DIRECTION('',(0.,0.,-1.));
#728 = DIRECTION('',(1.421E-14,-1.,0.));
#729 = ORIENTED_EDGE('',*,*,#730,.F.);
#730 = EDGE_CURVE('',#731,#722,#733,.T.);
#731 = VERTEX_POINT('',#732);
#732 = CARTESIAN_POINT('',(131.5,-64.,13.39));
#733 = LINE('',#734,#735);
#734 = CARTESIAN_POINT('',(131.5,-64.,13.39));
#735 = VECTOR('',#736,1.);
#736 = DIRECTION('',(-1.,0.,0.));
#737 = ORIENTED_EDGE('',*,*,#738,.F.);
#738 = EDGE_CURVE('',#739,#731,#741,.T.);
#739 = VERTEX_POINT('',#740);
#740 = CARTESIAN_POINT('',(132.5,-63.,13.39));
#741 = CIRCLE('',#742,1.);
#742 = AXIS2_PLACEMENT_3D('',#743,#744,#745);
#743 = CARTESIAN_POINT('',(131.5,-63.,13.39));
#744 = DIRECTION('',(0.,0.,-1.));
#745 = DIRECTION('',(1.,1.421E-14,0.));
#746 = ORIENTED_EDGE('',*,*,#747,.F.);
#747 = EDGE_CURVE('',#664,#739,#748,.T.);
#748 = LINE('',#749,#750);
#749 = CARTESIAN_POINT('',(132.5,-53.8,13.39));
#750 = VECTOR('',#751,1.);
#751 = DIRECTION('',(0.,-1.,0.));
#752 = ORIENTED_EDGE('',*,*,#663,.F.);
#753 = FACE_BOUND('',#754,.T.);
#754 = EDGE_LOOP('',(#755,#766,#774,#783,#791,#800,#808,#817));
#755 = ORIENTED_EDGE('',*,*,#756,.T.);
#756 = EDGE_CURVE('',#757,#759,#761,.T.);
#757 = VERTEX_POINT('',#758);
#758 = CARTESIAN_POINT('',(128.5,-60.2,13.39));
#759 = VERTEX_POINT('',#760);
#760 = CARTESIAN_POINT('',(128.9,-59.8,13.39));
#761 = CIRCLE('',#762,0.4);
#762 = AXIS2_PLACEMENT_3D('',#763,#764,#765);
#763 = CARTESIAN_POINT('',(128.9,-60.2,13.39));
#764 = DIRECTION('',(0.,0.,-1.));
#765 = DIRECTION('',(-1.,-5.329E-14,-0.));
#766 = ORIENTED_EDGE('',*,*,#767,.T.);
#767 = EDGE_CURVE('',#759,#768,#770,.T.);
#768 = VERTEX_POINT('',#769);
#769 = CARTESIAN_POINT('',(130.6,-59.8,13.39));
#770 = LINE('',#771,#772);
#771 = CARTESIAN_POINT('',(128.9,-59.8,13.39));
#772 = VECTOR('',#773,1.);
#773 = DIRECTION('',(1.,0.,0.));
#774 = ORIENTED_EDGE('',*,*,#775,.T.);
#775 = EDGE_CURVE('',#768,#776,#778,.T.);
#776 = VERTEX_POINT('',#777);
#777 = CARTESIAN_POINT('',(131.,-60.2,13.39));
#778 = CIRCLE('',#779,0.4);
#779 = AXIS2_PLACEMENT_3D('',#780,#781,#782);
#780 = CARTESIAN_POINT('',(130.6,-60.2,13.39));
#781 = DIRECTION('',(0.,0.,-1.));
#782 = DIRECTION('',(-7.105E-14,1.,0.));
#783 = ORIENTED_EDGE('',*,*,#784,.T.);
#784 = EDGE_CURVE('',#776,#785,#787,.T.);
#785 = VERTEX_POINT('',#786);
#786 = CARTESIAN_POINT('',(131.,-61.9,13.39));
#787 = LINE('',#788,#789);
#788 = CARTESIAN_POINT('',(131.,-60.2,13.39));
#789 = VECTOR('',#790,1.);
#790 = DIRECTION('',(0.,-1.,0.));
#791 = ORIENTED_EDGE('',*,*,#792,.T.);
#792 = EDGE_CURVE('',#785,#793,#795,.T.);
#793 = VERTEX_POINT('',#794);
#794 = CARTESIAN_POINT('',(130.6,-62.3,13.39));
#795 = CIRCLE('',#796,0.4);
#796 = AXIS2_PLACEMENT_3D('',#797,#798,#799);
#797 = CARTESIAN_POINT('',(130.6,-61.9,13.39));
#798 = DIRECTION('',(0.,0.,-1.));
#799 = DIRECTION('',(1.,5.329E-14,0.));
#800 = ORIENTED_EDGE('',*,*,#801,.T.);
#801 = EDGE_CURVE('',#793,#802,#804,.T.);
#802 = VERTEX_POINT('',#803);
#803 = CARTESIAN_POINT('',(128.9,-62.3,13.39));
#804 = LINE('',#805,#806);
#805 = CARTESIAN_POINT('',(130.6,-62.3,13.39));
#806 = VECTOR('',#807,1.);
#807 = DIRECTION('',(-1.,0.,0.));
#808 = ORIENTED_EDGE('',*,*,#809,.T.);
#809 = EDGE_CURVE('',#802,#810,#812,.T.);
#810 = VERTEX_POINT('',#811);
#811 = CARTESIAN_POINT('',(128.5,-61.9,13.39));
#812 = CIRCLE('',#813,0.4);
#813 = AXIS2_PLACEMENT_3D('',#814,#815,#816);
#814 = CARTESIAN_POINT('',(128.9,-61.9,13.39));
#815 = DIRECTION('',(0.,0.,-1.));
#816 = DIRECTION('',(7.105E-14,-1.,0.));
#817 = ORIENTED_EDGE('',*,*,#818,.T.);
#818 = EDGE_CURVE('',#810,#757,#819,.T.);
#819 = LINE('',#820,#821);
#820 = CARTESIAN_POINT('',(128.5,-61.9,13.39));
#821 = VECTOR('',#822,1.);
#822 = DIRECTION('',(0.,1.,0.));
#823 = FACE_BOUND('',#824,.T.);
#824 = EDGE_LOOP('',(#825,#835,#843));
#825 = ORIENTED_EDGE('',*,*,#826,.T.);
#826 = EDGE_CURVE('',#827,#829,#831,.T.);
#827 = VERTEX_POINT('',#828);
#828 = CARTESIAN_POINT('',(128.3,-57.6,13.39));
#829 = VERTEX_POINT('',#830);
#830 = CARTESIAN_POINT('',(128.3,-54.4,13.39));
#831 = LINE('',#832,#833);
#832 = CARTESIAN_POINT('',(128.3,-57.6,13.39));
#833 = VECTOR('',#834,1.);
#834 = DIRECTION('',(0.,1.,0.));
#835 = ORIENTED_EDGE('',*,*,#836,.T.);
#836 = EDGE_CURVE('',#829,#837,#839,.T.);
#837 = VERTEX_POINT('',#838);
#838 = CARTESIAN_POINT('',(131.4,-56.,13.39));
#839 = LINE('',#840,#841);
#840 = CARTESIAN_POINT('',(128.3,-54.4,13.39));
#841 = VECTOR('',#842,1.);
#842 = DIRECTION('',(0.888620657055,-0.45864291977,0.));
#843 = ORIENTED_EDGE('',*,*,#844,.T.);
#844 = EDGE_CURVE('',#837,#827,#845,.T.);
#845 = LINE('',#846,#847);
#846 = CARTESIAN_POINT('',(131.4,-56.,13.39));
#847 = VECTOR('',#848,1.);
#848 = DIRECTION('',(-0.888620657055,-0.45864291977,0.));
#849 = PLANE('',#850);
#850 = AXIS2_PLACEMENT_3D('',#851,#852,#853);
#851 = CARTESIAN_POINT('',(129.75,-58.4,13.39));
#852 = DIRECTION('',(0.,0.,1.));
#853 = DIRECTION('',(1.,0.,0.));
#854 = ADVANCED_FACE('',(#855),#866,.F.);
#855 = FACE_BOUND('',#856,.F.);
#856 = EDGE_LOOP('',(#857,#863,#864,#865));
#857 = ORIENTED_EDGE('',*,*,#858,.F.);
#858 = EDGE_CURVE('',#485,#689,#859,.T.);
#859 = LINE('',#860,#861);
#860 = CARTESIAN_POINT('',(130.75,-53.,11.7));
#861 = VECTOR('',#862,1.);
#862 = DIRECTION('',(0.,0.,1.));
#863 = ORIENTED_EDGE('',*,*,#484,.T.);
#864 = ORIENTED_EDGE('',*,*,#453,.F.);
#865 = ORIENTED_EDGE('',*,*,#688,.F.);
#866 = PLANE('',#867);
#867 = AXIS2_PLACEMENT_3D('',#868,#869,#870);
#868 = CARTESIAN_POINT('',(130.75,-53.,11.7));
#869 = DIRECTION('',(1.,0.,0.));
#870 = DIRECTION('',(0.,0.,1.));
#871 = ADVANCED_FACE('',(#872),#883,.T.);
#872 = FACE_BOUND('',#873,.T.);
#873 = EDGE_LOOP('',(#874,#875,#876,#882));
#874 = ORIENTED_EDGE('',*,*,#858,.F.);
#875 = ORIENTED_EDGE('',*,*,#492,.T.);
#876 = ORIENTED_EDGE('',*,*,#877,.F.);
#877 = EDGE_CURVE('',#697,#493,#878,.T.);
#878 = LINE('',#879,#880);
#879 = CARTESIAN_POINT('',(127.4,-53.,12.99));
#880 = VECTOR('',#881,1.);
#881 = DIRECTION('',(0.,0.,-1.));
#882 = ORIENTED_EDGE('',*,*,#696,.F.);
#883 = PLANE('',#884);
#884 = AXIS2_PLACEMENT_3D('',#885,#886,#887);
#885 = CARTESIAN_POINT('',(114.85,-53.,11.7));
#886 = DIRECTION('',(0.,1.,0.));
#887 = DIRECTION('',(0.,0.,1.));
#888 = ADVANCED_FACE('',(#889),#900,.T.);
#889 = FACE_BOUND('',#890,.T.);
#890 = EDGE_LOOP('',(#891,#892,#893,#899));
#891 = ORIENTED_EDGE('',*,*,#672,.T.);
#892 = ORIENTED_EDGE('',*,*,#747,.T.);
#893 = ORIENTED_EDGE('',*,*,#894,.F.);
#894 = EDGE_CURVE('',#535,#739,#895,.T.);
#895 = LINE('',#896,#897);
#896 = CARTESIAN_POINT('',(132.5,-63.,12.99));
#897 = VECTOR('',#898,1.);
#898 = DIRECTION('',(0.,0.,1.));
#899 = ORIENTED_EDGE('',*,*,#543,.F.);
#900 = PLANE('',#901);
#901 = AXIS2_PLACEMENT_3D('',#902,#903,#904);
#902 = CARTESIAN_POINT('',(132.5,-53.8,12.99));
#903 = DIRECTION('',(1.,0.,0.));
#904 = DIRECTION('',(0.,-1.,0.));
#905 = ADVANCED_FACE('',(#906),#917,.T.);
#906 = FACE_BOUND('',#907,.T.);
#907 = EDGE_LOOP('',(#908,#909,#915,#916));
#908 = ORIENTED_EDGE('',*,*,#500,.F.);
#909 = ORIENTED_EDGE('',*,*,#910,.T.);
#910 = EDGE_CURVE('',#501,#705,#911,.T.);
#911 = LINE('',#912,#913);
#912 = CARTESIAN_POINT('',(127.,-53.8,12.99));
#913 = VECTOR('',#914,1.);
#914 = DIRECTION('',(0.,0.,1.));
#915 = ORIENTED_EDGE('',*,*,#704,.T.);
#916 = ORIENTED_EDGE('',*,*,#877,.T.);
#917 = CYLINDRICAL_SURFACE('',#918,1.);
#918 = AXIS2_PLACEMENT_3D('',#919,#920,#921);
#919 = CARTESIAN_POINT('',(128.,-53.8,12.99));
#920 = DIRECTION('',(0.,0.,-1.));
#921 = DIRECTION('',(-1.,-1.421E-14,-0.));
#922 = ADVANCED_FACE('',(#923),#934,.T.);
#923 = FACE_BOUND('',#924,.T.);
#924 = EDGE_LOOP('',(#925,#926,#927,#933));
#925 = ORIENTED_EDGE('',*,*,#894,.T.);
#926 = ORIENTED_EDGE('',*,*,#738,.T.);
#927 = ORIENTED_EDGE('',*,*,#928,.F.);
#928 = EDGE_CURVE('',#527,#731,#929,.T.);
#929 = LINE('',#930,#931);
#930 = CARTESIAN_POINT('',(131.5,-64.,12.99));
#931 = VECTOR('',#932,1.);
#932 = DIRECTION('',(0.,0.,1.));
#933 = ORIENTED_EDGE('',*,*,#534,.F.);
#934 = CYLINDRICAL_SURFACE('',#935,1.);
#935 = AXIS2_PLACEMENT_3D('',#936,#937,#938);
#936 = CARTESIAN_POINT('',(131.5,-63.,12.99));
#937 = DIRECTION('',(0.,0.,-1.));
#938 = DIRECTION('',(1.,1.421E-14,0.));
#939 = ADVANCED_FACE('',(#940),#951,.T.);
#940 = FACE_BOUND('',#941,.T.);
#941 = EDGE_LOOP('',(#942,#948,#949,#950));
#942 = ORIENTED_EDGE('',*,*,#943,.T.);
#943 = EDGE_CURVE('',#510,#714,#944,.T.);
#944 = LINE('',#945,#946);
#945 = CARTESIAN_POINT('',(127.,-63.,12.99));
#946 = VECTOR('',#947,1.);
#947 = DIRECTION('',(0.,0.,1.));
#948 = ORIENTED_EDGE('',*,*,#713,.T.);
#949 = ORIENTED_EDGE('',*,*,#910,.F.);
#950 = ORIENTED_EDGE('',*,*,#509,.F.);
#951 = PLANE('',#952);
#952 = AXIS2_PLACEMENT_3D('',#953,#954,#955);
#953 = CARTESIAN_POINT('',(127.,-63.,12.99));
#954 = DIRECTION('',(-1.,0.,0.));
#955 = DIRECTION('',(0.,1.,0.));
#956 = ADVANCED_FACE('',(#957),#968,.T.);
#957 = FACE_BOUND('',#958,.T.);
#958 = EDGE_LOOP('',(#959,#960,#961,#967));
#959 = ORIENTED_EDGE('',*,*,#928,.T.);
#960 = ORIENTED_EDGE('',*,*,#730,.T.);
#961 = ORIENTED_EDGE('',*,*,#962,.F.);
#962 = EDGE_CURVE('',#518,#722,#963,.T.);
#963 = LINE('',#964,#965);
#964 = CARTESIAN_POINT('',(128.,-64.,12.99));
#965 = VECTOR('',#966,1.);
#966 = DIRECTION('',(0.,0.,1.));
#967 = ORIENTED_EDGE('',*,*,#526,.F.);
#968 = PLANE('',#969);
#969 = AXIS2_PLACEMENT_3D('',#970,#971,#972);
#970 = CARTESIAN_POINT('',(131.5,-64.,12.99));
#971 = DIRECTION('',(0.,-1.,0.));
#972 = DIRECTION('',(-1.,0.,0.));
#973 = ADVANCED_FACE('',(#974),#980,.T.);
#974 = FACE_BOUND('',#975,.T.);
#975 = EDGE_LOOP('',(#976,#977,#978,#979));
#976 = ORIENTED_EDGE('',*,*,#962,.T.);
#977 = ORIENTED_EDGE('',*,*,#721,.T.);
#978 = ORIENTED_EDGE('',*,*,#943,.F.);
#979 = ORIENTED_EDGE('',*,*,#517,.F.);
#980 = CYLINDRICAL_SURFACE('',#981,1.);
#981 = AXIS2_PLACEMENT_3D('',#982,#983,#984);
#982 = CARTESIAN_POINT('',(128.,-63.,12.99));
#983 = DIRECTION('',(0.,0.,-1.));
#984 = DIRECTION('',(1.421E-14,-1.,0.));
#985 = ADVANCED_FACE('',(#986),#1002,.F.);
#986 = FACE_BOUND('',#987,.F.);
#987 = EDGE_LOOP('',(#988,#994,#995,#1001));
#988 = ORIENTED_EDGE('',*,*,#989,.T.);
#989 = EDGE_CURVE('',#561,#757,#990,.T.);
#990 = LINE('',#991,#992);
#991 = CARTESIAN_POINT('',(128.5,-60.2,12.99));
#992 = VECTOR('',#993,1.);
#993 = DIRECTION('',(0.,0.,1.));
#994 = ORIENTED_EDGE('',*,*,#756,.T.);
#995 = ORIENTED_EDGE('',*,*,#996,.F.);
#996 = EDGE_CURVE('',#563,#759,#997,.T.);
#997 = LINE('',#998,#999);
#998 = CARTESIAN_POINT('',(128.9,-59.8,12.99));
#999 = VECTOR('',#1000,1.);
#1000 = DIRECTION('',(0.,0.,1.));
#1001 = ORIENTED_EDGE('',*,*,#560,.F.);
#1002 = CYLINDRICAL_SURFACE('',#1003,0.4);
#1003 = AXIS2_PLACEMENT_3D('',#1004,#1005,#1006);
#1004 = CARTESIAN_POINT('',(128.9,-60.2,12.99));
#1005 = DIRECTION('',(0.,0.,-1.));
#1006 = DIRECTION('',(-1.,-5.329E-14,-0.));
#1007 = ADVANCED_FACE('',(#1008),#1019,.F.);
#1008 = FACE_BOUND('',#1009,.F.);
#1009 = EDGE_LOOP('',(#1010,#1016,#1017,#1018));
#1010 = ORIENTED_EDGE('',*,*,#1011,.T.);
#1011 = EDGE_CURVE('',#614,#810,#1012,.T.);
#1012 = LINE('',#1013,#1014);
#1013 = CARTESIAN_POINT('',(128.5,-61.9,12.99));
#1014 = VECTOR('',#1015,1.);
#1015 = DIRECTION('',(0.,0.,1.));
#1016 = ORIENTED_EDGE('',*,*,#818,.T.);
#1017 = ORIENTED_EDGE('',*,*,#989,.F.);
#1018 = ORIENTED_EDGE('',*,*,#622,.F.);
#1019 = PLANE('',#1020);
#1020 = AXIS2_PLACEMENT_3D('',#1021,#1022,#1023);
#1021 = CARTESIAN_POINT('',(128.5,-61.9,12.99));
#1022 = DIRECTION('',(-1.,0.,0.));
#1023 = DIRECTION('',(0.,1.,0.));
#1024 = ADVANCED_FACE('',(#1025),#1036,.F.);
#1025 = FACE_BOUND('',#1026,.F.);
#1026 = EDGE_LOOP('',(#1027,#1033,#1034,#1035));
#1027 = ORIENTED_EDGE('',*,*,#1028,.T.);
#1028 = EDGE_CURVE('',#606,#802,#1029,.T.);
#1029 = LINE('',#1030,#1031);
#1030 = CARTESIAN_POINT('',(128.9,-62.3,12.99));
#1031 = VECTOR('',#1032,1.);
#1032 = DIRECTION('',(0.,0.,1.));
#1033 = ORIENTED_EDGE('',*,*,#809,.T.);
#1034 = ORIENTED_EDGE('',*,*,#1011,.F.);
#1035 = ORIENTED_EDGE('',*,*,#613,.F.);
#1036 = CYLINDRICAL_SURFACE('',#1037,0.4);
#1037 = AXIS2_PLACEMENT_3D('',#1038,#1039,#1040);
#1038 = CARTESIAN_POINT('',(128.9,-61.9,12.99));
#1039 = DIRECTION('',(0.,0.,-1.));
#1040 = DIRECTION('',(7.105E-14,-1.,0.));
#1041 = ADVANCED_FACE('',(#1042),#1053,.F.);
#1042 = FACE_BOUND('',#1043,.F.);
#1043 = EDGE_LOOP('',(#1044,#1050,#1051,#1052));
#1044 = ORIENTED_EDGE('',*,*,#1045,.T.);
#1045 = EDGE_CURVE('',#597,#793,#1046,.T.);
#1046 = LINE('',#1047,#1048);
#1047 = CARTESIAN_POINT('',(130.6,-62.3,12.99));
#1048 = VECTOR('',#1049,1.);
#1049 = DIRECTION('',(0.,0.,1.));
#1050 = ORIENTED_EDGE('',*,*,#801,.T.);
#1051 = ORIENTED_EDGE('',*,*,#1028,.F.);
#1052 = ORIENTED_EDGE('',*,*,#605,.F.);
#1053 = PLANE('',#1054);
#1054 = AXIS2_PLACEMENT_3D('',#1055,#1056,#1057);
#1055 = CARTESIAN_POINT('',(130.6,-62.3,12.99));
#1056 = DIRECTION('',(0.,-1.,0.));
#1057 = DIRECTION('',(-1.,0.,0.));
#1058 = ADVANCED_FACE('',(#1059),#1070,.F.);
#1059 = FACE_BOUND('',#1060,.F.);
#1060 = EDGE_LOOP('',(#1061,#1067,#1068,#1069));
#1061 = ORIENTED_EDGE('',*,*,#1062,.T.);
#1062 = EDGE_CURVE('',#589,#785,#1063,.T.);
#1063 = LINE('',#1064,#1065);
#1064 = CARTESIAN_POINT('',(131.,-61.9,12.99));
#1065 = VECTOR('',#1066,1.);
#1066 = DIRECTION('',(0.,0.,1.));
#1067 = ORIENTED_EDGE('',*,*,#792,.T.);
#1068 = ORIENTED_EDGE('',*,*,#1045,.F.);
#1069 = ORIENTED_EDGE('',*,*,#596,.F.);
#1070 = CYLINDRICAL_SURFACE('',#1071,0.4);
#1071 = AXIS2_PLACEMENT_3D('',#1072,#1073,#1074);
#1072 = CARTESIAN_POINT('',(130.6,-61.9,12.99));
#1073 = DIRECTION('',(0.,0.,-1.));
#1074 = DIRECTION('',(1.,5.329E-14,0.));
#1075 = ADVANCED_FACE('',(#1076),#1087,.F.);
#1076 = FACE_BOUND('',#1077,.F.);
#1077 = EDGE_LOOP('',(#1078,#1084,#1085,#1086));
#1078 = ORIENTED_EDGE('',*,*,#1079,.T.);
#1079 = EDGE_CURVE('',#580,#776,#1080,.T.);
#1080 = LINE('',#1081,#1082);
#1081 = CARTESIAN_POINT('',(131.,-60.2,12.99));
#1082 = VECTOR('',#1083,1.);
#1083 = DIRECTION('',(0.,0.,1.));
#1084 = ORIENTED_EDGE('',*,*,#784,.T.);
#1085 = ORIENTED_EDGE('',*,*,#1062,.F.);
#1086 = ORIENTED_EDGE('',*,*,#588,.F.);
#1087 = PLANE('',#1088);
#1088 = AXIS2_PLACEMENT_3D('',#1089,#1090,#1091);
#1089 = CARTESIAN_POINT('',(131.,-60.2,12.99));
#1090 = DIRECTION('',(1.,0.,0.));
#1091 = DIRECTION('',(0.,-1.,0.));
#1092 = ADVANCED_FACE('',(#1093),#1104,.F.);
#1093 = FACE_BOUND('',#1094,.F.);
#1094 = EDGE_LOOP('',(#1095,#1101,#1102,#1103));
#1095 = ORIENTED_EDGE('',*,*,#1096,.T.);
#1096 = EDGE_CURVE('',#572,#768,#1097,.T.);
#1097 = LINE('',#1098,#1099);
#1098 = CARTESIAN_POINT('',(130.6,-59.8,12.99));
#1099 = VECTOR('',#1100,1.);
#1100 = DIRECTION('',(0.,0.,1.));
#1101 = ORIENTED_EDGE('',*,*,#775,.T.);
#1102 = ORIENTED_EDGE('',*,*,#1079,.F.);
#1103 = ORIENTED_EDGE('',*,*,#579,.F.);
#1104 = CYLINDRICAL_SURFACE('',#1105,0.4);
#1105 = AXIS2_PLACEMENT_3D('',#1106,#1107,#1108);
#1106 = CARTESIAN_POINT('',(130.6,-60.2,12.99));
#1107 = DIRECTION('',(0.,0.,-1.));
#1108 = DIRECTION('',(-7.105E-14,1.,0.));
#1109 = ADVANCED_FACE('',(#1110),#1116,.F.);
#1110 = FACE_BOUND('',#1111,.F.);
#1111 = EDGE_LOOP('',(#1112,#1113,#1114,#1115));
#1112 = ORIENTED_EDGE('',*,*,#996,.T.);
#1113 = ORIENTED_EDGE('',*,*,#767,.T.);
#1114 = ORIENTED_EDGE('',*,*,#1096,.F.);
#1115 = ORIENTED_EDGE('',*,*,#571,.F.);
#1116 = PLANE('',#1117);
#1117 = AXIS2_PLACEMENT_3D('',#1118,#1119,#1120);
#1118 = CARTESIAN_POINT('',(128.9,-59.8,12.99));
#1119 = DIRECTION('',(0.,1.,0.));
#1120 = DIRECTION('',(1.,0.,0.));
#1121 = ADVANCED_FACE('',(#1122),#1138,.F.);
#1122 = FACE_BOUND('',#1123,.F.);
#1123 = EDGE_LOOP('',(#1124,#1130,#1131,#1137));
#1124 = ORIENTED_EDGE('',*,*,#1125,.T.);
#1125 = EDGE_CURVE('',#631,#827,#1126,.T.);
#1126 = LINE('',#1127,#1128);
#1127 = CARTESIAN_POINT('',(128.3,-57.6,12.99));
#1128 = VECTOR('',#1129,1.);
#1129 = DIRECTION('',(0.,0.,1.));
#1130 = ORIENTED_EDGE('',*,*,#826,.T.);
#1131 = ORIENTED_EDGE('',*,*,#1132,.F.);
#1132 = EDGE_CURVE('',#633,#829,#1133,.T.);
#1133 = LINE('',#1134,#1135);
#1134 = CARTESIAN_POINT('',(128.3,-54.4,12.99));
#1135 = VECTOR('',#1136,1.);
#1136 = DIRECTION('',(0.,0.,1.));
#1137 = ORIENTED_EDGE('',*,*,#630,.F.);
#1138 = PLANE('',#1139);
#1139 = AXIS2_PLACEMENT_3D('',#1140,#1141,#1142);
#1140 = CARTESIAN_POINT('',(128.3,-57.6,12.99));
#1141 = DIRECTION('',(-1.,0.,0.));
#1142 = DIRECTION('',(0.,1.,0.));
#1143 = ADVANCED_FACE('',(#1144),#1155,.F.);
#1144 = FACE_BOUND('',#1145,.F.);
#1145 = EDGE_LOOP('',(#1146,#1152,#1153,#1154));
#1146 = ORIENTED_EDGE('',*,*,#1147,.T.);
#1147 = EDGE_CURVE('',#641,#837,#1148,.T.);
#1148 = LINE('',#1149,#1150);
#1149 = CARTESIAN_POINT('',(131.4,-56.,12.99));
#1150 = VECTOR('',#1151,1.);
#1151 = DIRECTION('',(0.,0.,1.));
#1152 = ORIENTED_EDGE('',*,*,#844,.T.);
#1153 = ORIENTED_EDGE('',*,*,#1125,.F.);
#1154 = ORIENTED_EDGE('',*,*,#648,.F.);
#1155 = PLANE('',#1156);
#1156 = AXIS2_PLACEMENT_3D('',#1157,#1158,#1159);
#1157 = CARTESIAN_POINT('',(131.4,-56.,12.99));
#1158 = DIRECTION('',(0.45864291977,-0.888620657055,0.));
#1159 = DIRECTION('',(-0.888620657055,-0.45864291977,0.));
#1160 = ADVANCED_FACE('',(#1161),#1167,.F.);
#1161 = FACE_BOUND('',#1162,.F.);
#1162 = EDGE_LOOP('',(#1163,#1164,#1165,#1166));
#1163 = ORIENTED_EDGE('',*,*,#1132,.T.);
#1164 = ORIENTED_EDGE('',*,*,#836,.T.);
#1165 = ORIENTED_EDGE('',*,*,#1147,.F.);
#1166 = ORIENTED_EDGE('',*,*,#640,.F.);
#1167 = PLANE('',#1168);
#1168 = AXIS2_PLACEMENT_3D('',#1169,#1170,#1171);
#1169 = CARTESIAN_POINT('',(128.3,-54.4,12.99));
#1170 = DIRECTION('',(0.45864291977,0.888620657055,0.));
#1171 = DIRECTION('',(0.888620657055,-0.45864291977,0.));
#1172 = ( GEOMETRIC_REPRESENTATION_CONTEXT(3) 
GLOBAL_UNCERTAINTY_ASSIGNED_CONTEXT((#1176)) 
GLOBAL_UNIT_ASSIGNED_CONTEXT((#1173,#1174,#1175)) REPRESENTATION_CONTEXT
('Context #1','3D Context with UNIT and UNCERTAINTY') );
#1173 = ( LENGTH_UNIT() NAMED_UNIT(*) SI_UNIT(.MILLI.,.METRE.) );
#1174 = ( NAMED_UNIT(*) PLANE_ANGLE_UNIT() SI_UNIT($,.RADIAN.) );
#1175 = ( NAMED_UNIT(*) SI_UNIT($,.STERADIAN.) SOLID_ANGLE_UNIT() );
#1176 = UNCERTAINTY_MEASURE_WITH_UNIT(LENGTH_MEASURE(1.E-05),#1173,
  'distance_accuracy_value','confusion accuracy');
#1177 = PRODUCT_RELATED_PRODUCT_CATEGORY('part',$,(#7));
ENDSEC;
END-ISO-10303-21;
