ISO-10303-21;
HEADER;
FILE_DESCRIPTION(('FreeCAD Model'),'2;1');
FILE_NAME('Open CASCADE Shape Model','2026-09-28T17:19:56',('FreeCAD'),(
    'FreeCAD'),'Open CASCADE STEP processor 7.8','FreeCAD','Unknown');
FILE_SCHEMA(('AUTOMOTIVE_DESIGN { 1 0 10303 214 1 1 1 1 }'));
ENDSEC;
DATA;
#1 = APPLICATION_PROTOCOL_DEFINITION('international standard',
  'automotive_design',2000,#2);
#2 = APPLICATION_CONTEXT(
  'core data for automotive mechanical design processes');
#3 = SHAPE_DEFINITION_REPRESENTATION(#4,#10);
#4 = PRODUCT_DEFINITION_SHAPE('','',#5);
#5 = PRODUCT_DEFINITION('design','',#6,#9);
#6 = PRODUCT_DEFINITION_FORMATION('','',#7);
#7 = PRODUCT('Open CASCADE STEP translator 7.8 33',
  'Open CASCADE STEP translator 7.8 33','',(#8));
#8 = PRODUCT_CONTEXT('',#2,'mechanical');
#9 = PRODUCT_DEFINITION_CONTEXT('part definition',#2,'design');
#10 = ADVANCED_BREP_SHAPE_REPRESENTATION('',(#11,#15),#581);
#11 = AXIS2_PLACEMENT_3D('',#12,#13,#14);
#12 = CARTESIAN_POINT('',(0.,0.,0.));
#13 = DIRECTION('',(0.,0.,1.));
#14 = DIRECTION('',(1.,0.,-0.));
#15 = MANIFOLD_SOLID_BREP('',#16);
#16 = CLOSED_SHELL('',(#17,#57,#90,#123,#244,#268,#292,#317,#342,#359,
    #391,#415,#440,#464,#489,#513,#538,#555));
#17 = ADVANCED_FACE('',(#18),#52,.T.);
#18 = FACE_BOUND('',#19,.T.);
#19 = EDGE_LOOP('',(#20,#30,#38,#46));
#20 = ORIENTED_EDGE('',*,*,#21,.T.);
#21 = EDGE_CURVE('',#22,#24,#26,.T.);
#22 = VERTEX_POINT('',#23);
#23 = CARTESIAN_POINT('',(113.3,-12.2,12.99));
#24 = VERTEX_POINT('',#25);
#25 = CARTESIAN_POINT('',(113.3,-12.2,13.39));
#26 = LINE('',#27,#28);
#27 = CARTESIAN_POINT('',(113.3,-12.2,12.99));
#28 = VECTOR('',#29,1.);
#29 = DIRECTION('',(0.,0.,1.));
#30 = ORIENTED_EDGE('',*,*,#31,.T.);
#31 = EDGE_CURVE('',#24,#32,#34,.T.);
#32 = VERTEX_POINT('',#33);
#33 = CARTESIAN_POINT('',(132.7,-12.2,13.39));
#34 = LINE('',#35,#36);
#35 = CARTESIAN_POINT('',(113.3,-12.2,13.39));
#36 = VECTOR('',#37,1.);
#37 = DIRECTION('',(1.,0.,0.));
#38 = ORIENTED_EDGE('',*,*,#39,.F.);
#39 = EDGE_CURVE('',#40,#32,#42,.T.);
#40 = VERTEX_POINT('',#41);
#41 = CARTESIAN_POINT('',(132.7,-12.2,12.99));
#42 = LINE('',#43,#44);
#43 = CARTESIAN_POINT('',(132.7,-12.2,12.99));
#44 = VECTOR('',#45,1.);
#45 = DIRECTION('',(0.,0.,1.));
#46 = ORIENTED_EDGE('',*,*,#47,.F.);
#47 = EDGE_CURVE('',#22,#40,#48,.T.);
#48 = LINE('',#49,#50);
#49 = CARTESIAN_POINT('',(113.3,-12.2,12.99));
#50 = VECTOR('',#51,1.);
#51 = DIRECTION('',(1.,0.,0.));
#52 = PLANE('',#53);
#53 = AXIS2_PLACEMENT_3D('',#54,#55,#56);
#54 = CARTESIAN_POINT('',(113.3,-12.2,12.99));
#55 = DIRECTION('',(0.,1.,0.));
#56 = DIRECTION('',(1.,0.,0.));
#57 = ADVANCED_FACE('',(#58),#85,.T.);
#58 = FACE_BOUND('',#59,.T.);
#59 = EDGE_LOOP('',(#60,#70,#77,#78));
#60 = ORIENTED_EDGE('',*,*,#61,.T.);
#61 = EDGE_CURVE('',#62,#64,#66,.T.);
#62 = VERTEX_POINT('',#63);
#63 = CARTESIAN_POINT('',(112.2,-13.3,12.99));
#64 = VERTEX_POINT('',#65);
#65 = CARTESIAN_POINT('',(112.2,-13.3,13.39));
#66 = LINE('',#67,#68);
#67 = CARTESIAN_POINT('',(112.2,-13.3,12.99));
#68 = VECTOR('',#69,1.);
#69 = DIRECTION('',(0.,0.,1.));
#70 = ORIENTED_EDGE('',*,*,#71,.T.);
#71 = EDGE_CURVE('',#64,#24,#72,.T.);
#72 = CIRCLE('',#73,1.1);
#73 = AXIS2_PLACEMENT_3D('',#74,#75,#76);
#74 = CARTESIAN_POINT('',(113.3,-13.3,13.39));
#75 = DIRECTION('',(0.,0.,-1.));
#76 = DIRECTION('',(-1.,0.,0.));
#77 = ORIENTED_EDGE('',*,*,#21,.F.);
#78 = ORIENTED_EDGE('',*,*,#79,.F.);
#79 = EDGE_CURVE('',#62,#22,#80,.T.);
#80 = CIRCLE('',#81,1.1);
#81 = AXIS2_PLACEMENT_3D('',#82,#83,#84);
#82 = CARTESIAN_POINT('',(113.3,-13.3,12.99));
#83 = DIRECTION('',(0.,0.,-1.));
#84 = DIRECTION('',(-1.,0.,0.));
#85 = CYLINDRICAL_SURFACE('',#86,1.1);
#86 = AXIS2_PLACEMENT_3D('',#87,#88,#89);
#87 = CARTESIAN_POINT('',(113.3,-13.3,12.99));
#88 = DIRECTION('',(0.,0.,-1.));
#89 = DIRECTION('',(-1.,0.,0.));
#90 = ADVANCED_FACE('',(#91),#118,.T.);
#91 = FACE_BOUND('',#92,.T.);
#92 = EDGE_LOOP('',(#93,#94,#103,#111));
#93 = ORIENTED_EDGE('',*,*,#39,.T.);
#94 = ORIENTED_EDGE('',*,*,#95,.T.);
#95 = EDGE_CURVE('',#32,#96,#98,.T.);
#96 = VERTEX_POINT('',#97);
#97 = CARTESIAN_POINT('',(133.8,-13.3,13.39));
#98 = CIRCLE('',#99,1.1);
#99 = AXIS2_PLACEMENT_3D('',#100,#101,#102);
#100 = CARTESIAN_POINT('',(132.7,-13.3,13.39));
#101 = DIRECTION('',(0.,0.,-1.));
#102 = DIRECTION('',(0.,1.,0.));
#103 = ORIENTED_EDGE('',*,*,#104,.F.);
#104 = EDGE_CURVE('',#105,#96,#107,.T.);
#105 = VERTEX_POINT('',#106);
#106 = CARTESIAN_POINT('',(133.8,-13.3,12.99));
#107 = LINE('',#108,#109);
#108 = CARTESIAN_POINT('',(133.8,-13.3,12.99));
#109 = VECTOR('',#110,1.);
#110 = DIRECTION('',(0.,0.,1.));
#111 = ORIENTED_EDGE('',*,*,#112,.F.);
#112 = EDGE_CURVE('',#40,#105,#113,.T.);
#113 = CIRCLE('',#114,1.1);
#114 = AXIS2_PLACEMENT_3D('',#115,#116,#117);
#115 = CARTESIAN_POINT('',(132.7,-13.3,12.99));
#116 = DIRECTION('',(0.,0.,-1.));
#117 = DIRECTION('',(0.,1.,0.));
#118 = CYLINDRICAL_SURFACE('',#119,1.1);
#119 = AXIS2_PLACEMENT_3D('',#120,#121,#122);
#120 = CARTESIAN_POINT('',(132.7,-13.3,12.99));
#121 = DIRECTION('',(0.,0.,-1.));
#122 = DIRECTION('',(0.,1.,0.));
#123 = ADVANCED_FACE('',(#124,#169),#239,.T.);
#124 = FACE_BOUND('',#125,.T.);
#125 = EDGE_LOOP('',(#126,#127,#128,#136,#145,#153,#162,#168));
#126 = ORIENTED_EDGE('',*,*,#31,.F.);
#127 = ORIENTED_EDGE('',*,*,#71,.F.);
#128 = ORIENTED_EDGE('',*,*,#129,.F.);
#129 = EDGE_CURVE('',#130,#64,#132,.T.);
#130 = VERTEX_POINT('',#131);
#131 = CARTESIAN_POINT('',(112.2,-53.,13.39));
#132 = LINE('',#133,#134);
#133 = CARTESIAN_POINT('',(112.2,-53.,13.39));
#134 = VECTOR('',#135,1.);
#135 = DIRECTION('',(0.,1.,0.));
#136 = ORIENTED_EDGE('',*,*,#137,.F.);
#137 = EDGE_CURVE('',#138,#130,#140,.T.);
#138 = VERTEX_POINT('',#139);
#139 = CARTESIAN_POINT('',(113.3,-54.1,13.39));
#140 = CIRCLE('',#141,1.1);
#141 = AXIS2_PLACEMENT_3D('',#142,#143,#144);
#142 = CARTESIAN_POINT('',(113.3,-53.,13.39));
#143 = DIRECTION('',(0.,0.,-1.));
#144 = DIRECTION('',(0.,-1.,0.));
#145 = ORIENTED_EDGE('',*,*,#146,.F.);
#146 = EDGE_CURVE('',#147,#138,#149,.T.);
#147 = VERTEX_POINT('',#148);
#148 = CARTESIAN_POINT('',(132.7,-54.1,13.39));
#149 = LINE('',#150,#151);
#150 = CARTESIAN_POINT('',(132.7,-54.1,13.39));
#151 = VECTOR('',#152,1.);
#152 = DIRECTION('',(-1.,0.,0.));
#153 = ORIENTED_EDGE('',*,*,#154,.F.);
#154 = EDGE_CURVE('',#155,#147,#157,.T.);
#155 = VERTEX_POINT('',#156);
#156 = CARTESIAN_POINT('',(133.8,-53.,13.39));
#157 = CIRCLE('',#158,1.1);
#158 = AXIS2_PLACEMENT_3D('',#159,#160,#161);
#159 = CARTESIAN_POINT('',(132.7,-53.,13.39));
#160 = DIRECTION('',(0.,0.,-1.));
#161 = DIRECTION('',(1.,6.46E-15,0.));
#162 = ORIENTED_EDGE('',*,*,#163,.F.);
#163 = EDGE_CURVE('',#96,#155,#164,.T.);
#164 = LINE('',#165,#166);
#165 = CARTESIAN_POINT('',(133.8,-13.3,13.39));
#166 = VECTOR('',#167,1.);
#167 = DIRECTION('',(0.,-1.,0.));
#168 = ORIENTED_EDGE('',*,*,#95,.F.);
#169 = FACE_BOUND('',#170,.T.);
#170 = EDGE_LOOP('',(#171,#182,#190,#199,#207,#216,#224,#233));
#171 = ORIENTED_EDGE('',*,*,#172,.T.);
#172 = EDGE_CURVE('',#173,#175,#177,.T.);
#173 = VERTEX_POINT('',#174);
#174 = CARTESIAN_POINT('',(114.45,-14.95,13.39));
#175 = VERTEX_POINT('',#176);
#176 = CARTESIAN_POINT('',(114.75,-14.65,13.39));
#177 = CIRCLE('',#178,0.3);
#178 = AXIS2_PLACEMENT_3D('',#179,#180,#181);
#179 = CARTESIAN_POINT('',(114.75,-14.95,13.39));
#180 = DIRECTION('',(0.,0.,-1.));
#181 = DIRECTION('',(-1.,-5.92E-15,-0.));
#182 = ORIENTED_EDGE('',*,*,#183,.T.);
#183 = EDGE_CURVE('',#175,#184,#186,.T.);
#184 = VERTEX_POINT('',#185);
#185 = CARTESIAN_POINT('',(130.85,-14.65,13.39));
#186 = LINE('',#187,#188);
#187 = CARTESIAN_POINT('',(114.75,-14.65,13.39));
#188 = VECTOR('',#189,1.);
#189 = DIRECTION('',(1.,0.,0.));
#190 = ORIENTED_EDGE('',*,*,#191,.T.);
#191 = EDGE_CURVE('',#184,#192,#194,.T.);
#192 = VERTEX_POINT('',#193);
#193 = CARTESIAN_POINT('',(131.15,-14.95,13.39));
#194 = CIRCLE('',#195,0.3);
#195 = AXIS2_PLACEMENT_3D('',#196,#197,#198);
#196 = CARTESIAN_POINT('',(130.85,-14.95,13.39));
#197 = DIRECTION('',(0.,0.,-1.));
#198 = DIRECTION('',(-9.474E-14,1.,0.));
#199 = ORIENTED_EDGE('',*,*,#200,.T.);
#200 = EDGE_CURVE('',#192,#201,#203,.T.);
#201 = VERTEX_POINT('',#202);
#202 = CARTESIAN_POINT('',(131.15,-52.95,13.39));
#203 = LINE('',#204,#205);
#204 = CARTESIAN_POINT('',(131.15,-14.95,13.39));
#205 = VECTOR('',#206,1.);
#206 = DIRECTION('',(0.,-1.,0.));
#207 = ORIENTED_EDGE('',*,*,#208,.T.);
#208 = EDGE_CURVE('',#201,#209,#211,.T.);
#209 = VERTEX_POINT('',#210);
#210 = CARTESIAN_POINT('',(130.85,-53.25,13.39));
#211 = CIRCLE('',#212,0.3);
#212 = AXIS2_PLACEMENT_3D('',#213,#214,#215);
#213 = CARTESIAN_POINT('',(130.85,-52.95,13.39));
#214 = DIRECTION('',(0.,0.,-1.));
#215 = DIRECTION('',(1.,4.737E-14,0.));
#216 = ORIENTED_EDGE('',*,*,#217,.T.);
#217 = EDGE_CURVE('',#209,#218,#220,.T.);
#218 = VERTEX_POINT('',#219);
#219 = CARTESIAN_POINT('',(114.75,-53.25,13.39));
#220 = LINE('',#221,#222);
#221 = CARTESIAN_POINT('',(130.85,-53.25,13.39));
#222 = VECTOR('',#223,1.);
#223 = DIRECTION('',(-1.,0.,0.));
#224 = ORIENTED_EDGE('',*,*,#225,.T.);
#225 = EDGE_CURVE('',#218,#226,#228,.T.);
#226 = VERTEX_POINT('',#227);
#227 = CARTESIAN_POINT('',(114.45,-52.95,13.39));
#228 = CIRCLE('',#229,0.3);
#229 = AXIS2_PLACEMENT_3D('',#230,#231,#232);
#230 = CARTESIAN_POINT('',(114.75,-52.95,13.39));
#231 = DIRECTION('',(0.,0.,-1.));
#232 = DIRECTION('',(0.,-1.,0.));
#233 = ORIENTED_EDGE('',*,*,#234,.T.);
#234 = EDGE_CURVE('',#226,#173,#235,.T.);
#235 = LINE('',#236,#237);
#236 = CARTESIAN_POINT('',(114.45,-52.95,13.39));
#237 = VECTOR('',#238,1.);
#238 = DIRECTION('',(0.,1.,0.));
#239 = PLANE('',#240);
#240 = AXIS2_PLACEMENT_3D('',#241,#242,#243);
#241 = CARTESIAN_POINT('',(123.,-33.15,13.39));
#242 = DIRECTION('',(0.,0.,1.));
#243 = DIRECTION('',(1.,0.,0.));
#244 = ADVANCED_FACE('',(#245),#263,.T.);
#245 = FACE_BOUND('',#246,.T.);
#246 = EDGE_LOOP('',(#247,#255,#256,#257));
#247 = ORIENTED_EDGE('',*,*,#248,.T.);
#248 = EDGE_CURVE('',#249,#130,#251,.T.);
#249 = VERTEX_POINT('',#250);
#250 = CARTESIAN_POINT('',(112.2,-53.,12.99));
#251 = LINE('',#252,#253);
#252 = CARTESIAN_POINT('',(112.2,-53.,12.99));
#253 = VECTOR('',#254,1.);
#254 = DIRECTION('',(0.,0.,1.));
#255 = ORIENTED_EDGE('',*,*,#129,.T.);
#256 = ORIENTED_EDGE('',*,*,#61,.F.);
#257 = ORIENTED_EDGE('',*,*,#258,.F.);
#258 = EDGE_CURVE('',#249,#62,#259,.T.);
#259 = LINE('',#260,#261);
#260 = CARTESIAN_POINT('',(112.2,-53.,12.99));
#261 = VECTOR('',#262,1.);
#262 = DIRECTION('',(0.,1.,0.));
#263 = PLANE('',#264);
#264 = AXIS2_PLACEMENT_3D('',#265,#266,#267);
#265 = CARTESIAN_POINT('',(112.2,-53.,12.99));
#266 = DIRECTION('',(-1.,0.,0.));
#267 = DIRECTION('',(0.,1.,0.));
#268 = ADVANCED_FACE('',(#269),#287,.T.);
#269 = FACE_BOUND('',#270,.T.);
#270 = EDGE_LOOP('',(#271,#272,#273,#281));
#271 = ORIENTED_EDGE('',*,*,#104,.T.);
#272 = ORIENTED_EDGE('',*,*,#163,.T.);
#273 = ORIENTED_EDGE('',*,*,#274,.F.);
#274 = EDGE_CURVE('',#275,#155,#277,.T.);
#275 = VERTEX_POINT('',#276);
#276 = CARTESIAN_POINT('',(133.8,-53.,12.99));
#277 = LINE('',#278,#279);
#278 = CARTESIAN_POINT('',(133.8,-53.,12.99));
#279 = VECTOR('',#280,1.);
#280 = DIRECTION('',(0.,0.,1.));
#281 = ORIENTED_EDGE('',*,*,#282,.F.);
#282 = EDGE_CURVE('',#105,#275,#283,.T.);
#283 = LINE('',#284,#285);
#284 = CARTESIAN_POINT('',(133.8,-13.3,12.99));
#285 = VECTOR('',#286,1.);
#286 = DIRECTION('',(0.,-1.,0.));
#287 = PLANE('',#288);
#288 = AXIS2_PLACEMENT_3D('',#289,#290,#291);
#289 = CARTESIAN_POINT('',(133.8,-13.3,12.99));
#290 = DIRECTION('',(1.,0.,0.));
#291 = DIRECTION('',(0.,-1.,0.));
#292 = ADVANCED_FACE('',(#293),#312,.T.);
#293 = FACE_BOUND('',#294,.T.);
#294 = EDGE_LOOP('',(#295,#303,#304,#305));
#295 = ORIENTED_EDGE('',*,*,#296,.T.);
#296 = EDGE_CURVE('',#297,#138,#299,.T.);
#297 = VERTEX_POINT('',#298);
#298 = CARTESIAN_POINT('',(113.3,-54.1,12.99));
#299 = LINE('',#300,#301);
#300 = CARTESIAN_POINT('',(113.3,-54.1,12.99));
#301 = VECTOR('',#302,1.);
#302 = DIRECTION('',(0.,0.,1.));
#303 = ORIENTED_EDGE('',*,*,#137,.T.);
#304 = ORIENTED_EDGE('',*,*,#248,.F.);
#305 = ORIENTED_EDGE('',*,*,#306,.F.);
#306 = EDGE_CURVE('',#297,#249,#307,.T.);
#307 = CIRCLE('',#308,1.1);
#308 = AXIS2_PLACEMENT_3D('',#309,#310,#311);
#309 = CARTESIAN_POINT('',(113.3,-53.,12.99));
#310 = DIRECTION('',(0.,0.,-1.));
#311 = DIRECTION('',(0.,-1.,0.));
#312 = CYLINDRICAL_SURFACE('',#313,1.1);
#313 = AXIS2_PLACEMENT_3D('',#314,#315,#316);
#314 = CARTESIAN_POINT('',(113.3,-53.,12.99));
#315 = DIRECTION('',(0.,0.,-1.));
#316 = DIRECTION('',(0.,-1.,0.));
#317 = ADVANCED_FACE('',(#318),#337,.T.);
#318 = FACE_BOUND('',#319,.T.);
#319 = EDGE_LOOP('',(#320,#321,#322,#330));
#320 = ORIENTED_EDGE('',*,*,#274,.T.);
#321 = ORIENTED_EDGE('',*,*,#154,.T.);
#322 = ORIENTED_EDGE('',*,*,#323,.F.);
#323 = EDGE_CURVE('',#324,#147,#326,.T.);
#324 = VERTEX_POINT('',#325);
#325 = CARTESIAN_POINT('',(132.7,-54.1,12.99));
#326 = LINE('',#327,#328);
#327 = CARTESIAN_POINT('',(132.7,-54.1,12.99));
#328 = VECTOR('',#329,1.);
#329 = DIRECTION('',(0.,0.,1.));
#330 = ORIENTED_EDGE('',*,*,#331,.F.);
#331 = EDGE_CURVE('',#275,#324,#332,.T.);
#332 = CIRCLE('',#333,1.1);
#333 = AXIS2_PLACEMENT_3D('',#334,#335,#336);
#334 = CARTESIAN_POINT('',(132.7,-53.,12.99));
#335 = DIRECTION('',(0.,0.,-1.));
#336 = DIRECTION('',(1.,6.46E-15,0.));
#337 = CYLINDRICAL_SURFACE('',#338,1.1);
#338 = AXIS2_PLACEMENT_3D('',#339,#340,#341);
#339 = CARTESIAN_POINT('',(132.7,-53.,12.99));
#340 = DIRECTION('',(0.,0.,-1.));
#341 = DIRECTION('',(1.,6.46E-15,0.));
#342 = ADVANCED_FACE('',(#343),#354,.T.);
#343 = FACE_BOUND('',#344,.T.);
#344 = EDGE_LOOP('',(#345,#346,#347,#348));
#345 = ORIENTED_EDGE('',*,*,#323,.T.);
#346 = ORIENTED_EDGE('',*,*,#146,.T.);
#347 = ORIENTED_EDGE('',*,*,#296,.F.);
#348 = ORIENTED_EDGE('',*,*,#349,.F.);
#349 = EDGE_CURVE('',#324,#297,#350,.T.);
#350 = LINE('',#351,#352);
#351 = CARTESIAN_POINT('',(132.7,-54.1,12.99));
#352 = VECTOR('',#353,1.);
#353 = DIRECTION('',(-1.,0.,0.));
#354 = PLANE('',#355);
#355 = AXIS2_PLACEMENT_3D('',#356,#357,#358);
#356 = CARTESIAN_POINT('',(132.7,-54.1,12.99));
#357 = DIRECTION('',(0.,-1.,0.));
#358 = DIRECTION('',(-1.,0.,0.));
#359 = ADVANCED_FACE('',(#360),#386,.F.);
#360 = FACE_BOUND('',#361,.F.);
#361 = EDGE_LOOP('',(#362,#370,#371,#379));
#362 = ORIENTED_EDGE('',*,*,#363,.T.);
#363 = EDGE_CURVE('',#364,#173,#366,.T.);
#364 = VERTEX_POINT('',#365);
#365 = CARTESIAN_POINT('',(114.45,-14.95,12.99));
#366 = LINE('',#367,#368);
#367 = CARTESIAN_POINT('',(114.45,-14.95,12.99));
#368 = VECTOR('',#369,1.);
#369 = DIRECTION('',(0.,0.,1.));
#370 = ORIENTED_EDGE('',*,*,#172,.T.);
#371 = ORIENTED_EDGE('',*,*,#372,.F.);
#372 = EDGE_CURVE('',#373,#175,#375,.T.);
#373 = VERTEX_POINT('',#374);
#374 = CARTESIAN_POINT('',(114.75,-14.65,12.99));
#375 = LINE('',#376,#377);
#376 = CARTESIAN_POINT('',(114.75,-14.65,12.99));
#377 = VECTOR('',#378,1.);
#378 = DIRECTION('',(0.,0.,1.));
#379 = ORIENTED_EDGE('',*,*,#380,.F.);
#380 = EDGE_CURVE('',#364,#373,#381,.T.);
#381 = CIRCLE('',#382,0.3);
#382 = AXIS2_PLACEMENT_3D('',#383,#384,#385);
#383 = CARTESIAN_POINT('',(114.75,-14.95,12.99));
#384 = DIRECTION('',(0.,0.,-1.));
#385 = DIRECTION('',(-1.,-5.92E-15,-0.));
#386 = CYLINDRICAL_SURFACE('',#387,0.3);
#387 = AXIS2_PLACEMENT_3D('',#388,#389,#390);
#388 = CARTESIAN_POINT('',(114.75,-14.95,12.99));
#389 = DIRECTION('',(0.,0.,-1.));
#390 = DIRECTION('',(-1.,-5.92E-15,-0.));
#391 = ADVANCED_FACE('',(#392),#410,.F.);
#392 = FACE_BOUND('',#393,.F.);
#393 = EDGE_LOOP('',(#394,#402,#403,#404));
#394 = ORIENTED_EDGE('',*,*,#395,.T.);
#395 = EDGE_CURVE('',#396,#226,#398,.T.);
#396 = VERTEX_POINT('',#397);
#397 = CARTESIAN_POINT('',(114.45,-52.95,12.99));
#398 = LINE('',#399,#400);
#399 = CARTESIAN_POINT('',(114.45,-52.95,12.99));
#400 = VECTOR('',#401,1.);
#401 = DIRECTION('',(0.,0.,1.));
#402 = ORIENTED_EDGE('',*,*,#234,.T.);
#403 = ORIENTED_EDGE('',*,*,#363,.F.);
#404 = ORIENTED_EDGE('',*,*,#405,.F.);
#405 = EDGE_CURVE('',#396,#364,#406,.T.);
#406 = LINE('',#407,#408);
#407 = CARTESIAN_POINT('',(114.45,-52.95,12.99));
#408 = VECTOR('',#409,1.);
#409 = DIRECTION('',(0.,1.,0.));
#410 = PLANE('',#411);
#411 = AXIS2_PLACEMENT_3D('',#412,#413,#414);
#412 = CARTESIAN_POINT('',(114.45,-52.95,12.99));
#413 = DIRECTION('',(-1.,0.,0.));
#414 = DIRECTION('',(0.,1.,0.));
#415 = ADVANCED_FACE('',(#416),#435,.F.);
#416 = FACE_BOUND('',#417,.F.);
#417 = EDGE_LOOP('',(#418,#426,#427,#428));
#418 = ORIENTED_EDGE('',*,*,#419,.T.);
#419 = EDGE_CURVE('',#420,#218,#422,.T.);
#420 = VERTEX_POINT('',#421);
#421 = CARTESIAN_POINT('',(114.75,-53.25,12.99));
#422 = LINE('',#423,#424);
#423 = CARTESIAN_POINT('',(114.75,-53.25,12.99));
#424 = VECTOR('',#425,1.);
#425 = DIRECTION('',(0.,0.,1.));
#426 = ORIENTED_EDGE('',*,*,#225,.T.);
#427 = ORIENTED_EDGE('',*,*,#395,.F.);
#428 = ORIENTED_EDGE('',*,*,#429,.F.);
#429 = EDGE_CURVE('',#420,#396,#430,.T.);
#430 = CIRCLE('',#431,0.3);
#431 = AXIS2_PLACEMENT_3D('',#432,#433,#434);
#432 = CARTESIAN_POINT('',(114.75,-52.95,12.99));
#433 = DIRECTION('',(0.,0.,-1.));
#434 = DIRECTION('',(0.,-1.,0.));
#435 = CYLINDRICAL_SURFACE('',#436,0.3);
#436 = AXIS2_PLACEMENT_3D('',#437,#438,#439);
#437 = CARTESIAN_POINT('',(114.75,-52.95,12.99));
#438 = DIRECTION('',(0.,0.,-1.));
#439 = DIRECTION('',(0.,-1.,0.));
#440 = ADVANCED_FACE('',(#441),#459,.F.);
#441 = FACE_BOUND('',#442,.F.);
#442 = EDGE_LOOP('',(#443,#451,#452,#453));
#443 = ORIENTED_EDGE('',*,*,#444,.T.);
#444 = EDGE_CURVE('',#445,#209,#447,.T.);
#445 = VERTEX_POINT('',#446);
#446 = CARTESIAN_POINT('',(130.85,-53.25,12.99));
#447 = LINE('',#448,#449);
#448 = CARTESIAN_POINT('',(130.85,-53.25,12.99));
#449 = VECTOR('',#450,1.);
#450 = DIRECTION('',(0.,0.,1.));
#451 = ORIENTED_EDGE('',*,*,#217,.T.);
#452 = ORIENTED_EDGE('',*,*,#419,.F.);
#453 = ORIENTED_EDGE('',*,*,#454,.F.);
#454 = EDGE_CURVE('',#445,#420,#455,.T.);
#455 = LINE('',#456,#457);
#456 = CARTESIAN_POINT('',(130.85,-53.25,12.99));
#457 = VECTOR('',#458,1.);
#458 = DIRECTION('',(-1.,0.,0.));
#459 = PLANE('',#460);
#460 = AXIS2_PLACEMENT_3D('',#461,#462,#463);
#461 = CARTESIAN_POINT('',(130.85,-53.25,12.99));
#462 = DIRECTION('',(0.,-1.,0.));
#463 = DIRECTION('',(-1.,0.,0.));
#464 = ADVANCED_FACE('',(#465),#484,.F.);
#465 = FACE_BOUND('',#466,.F.);
#466 = EDGE_LOOP('',(#467,#475,#476,#477));
#467 = ORIENTED_EDGE('',*,*,#468,.T.);
#468 = EDGE_CURVE('',#469,#201,#471,.T.);
#469 = VERTEX_POINT('',#470);
#470 = CARTESIAN_POINT('',(131.15,-52.95,12.99));
#471 = LINE('',#472,#473);
#472 = CARTESIAN_POINT('',(131.15,-52.95,12.99));
#473 = VECTOR('',#474,1.);
#474 = DIRECTION('',(0.,0.,1.));
#475 = ORIENTED_EDGE('',*,*,#208,.T.);
#476 = ORIENTED_EDGE('',*,*,#444,.F.);
#477 = ORIENTED_EDGE('',*,*,#478,.F.);
#478 = EDGE_CURVE('',#469,#445,#479,.T.);
#479 = CIRCLE('',#480,0.3);
#480 = AXIS2_PLACEMENT_3D('',#481,#482,#483);
#481 = CARTESIAN_POINT('',(130.85,-52.95,12.99));
#482 = DIRECTION('',(0.,0.,-1.));
#483 = DIRECTION('',(1.,4.737E-14,0.));
#484 = CYLINDRICAL_SURFACE('',#485,0.3);
#485 = AXIS2_PLACEMENT_3D('',#486,#487,#488);
#486 = CARTESIAN_POINT('',(130.85,-52.95,12.99));
#487 = DIRECTION('',(0.,0.,-1.));
#488 = DIRECTION('',(1.,4.737E-14,0.));
#489 = ADVANCED_FACE('',(#490),#508,.F.);
#490 = FACE_BOUND('',#491,.F.);
#491 = EDGE_LOOP('',(#492,#500,#501,#502));
#492 = ORIENTED_EDGE('',*,*,#493,.T.);
#493 = EDGE_CURVE('',#494,#192,#496,.T.);
#494 = VERTEX_POINT('',#495);
#495 = CARTESIAN_POINT('',(131.15,-14.95,12.99));
#496 = LINE('',#497,#498);
#497 = CARTESIAN_POINT('',(131.15,-14.95,12.99));
#498 = VECTOR('',#499,1.);
#499 = DIRECTION('',(0.,0.,1.));
#500 = ORIENTED_EDGE('',*,*,#200,.T.);
#501 = ORIENTED_EDGE('',*,*,#468,.F.);
#502 = ORIENTED_EDGE('',*,*,#503,.F.);
#503 = EDGE_CURVE('',#494,#469,#504,.T.);
#504 = LINE('',#505,#506);
#505 = CARTESIAN_POINT('',(131.15,-14.95,12.99));
#506 = VECTOR('',#507,1.);
#507 = DIRECTION('',(0.,-1.,0.));
#508 = PLANE('',#509);
#509 = AXIS2_PLACEMENT_3D('',#510,#511,#512);
#510 = CARTESIAN_POINT('',(131.15,-14.95,12.99));
#511 = DIRECTION('',(1.,0.,0.));
#512 = DIRECTION('',(0.,-1.,0.));
#513 = ADVANCED_FACE('',(#514),#533,.F.);
#514 = FACE_BOUND('',#515,.F.);
#515 = EDGE_LOOP('',(#516,#524,#525,#526));
#516 = ORIENTED_EDGE('',*,*,#517,.T.);
#517 = EDGE_CURVE('',#518,#184,#520,.T.);
#518 = VERTEX_POINT('',#519);
#519 = CARTESIAN_POINT('',(130.85,-14.65,12.99));
#520 = LINE('',#521,#522);
#521 = CARTESIAN_POINT('',(130.85,-14.65,12.99));
#522 = VECTOR('',#523,1.);
#523 = DIRECTION('',(0.,0.,1.));
#524 = ORIENTED_EDGE('',*,*,#191,.T.);
#525 = ORIENTED_EDGE('',*,*,#493,.F.);
#526 = ORIENTED_EDGE('',*,*,#527,.F.);
#527 = EDGE_CURVE('',#518,#494,#528,.T.);
#528 = CIRCLE('',#529,0.3);
#529 = AXIS2_PLACEMENT_3D('',#530,#531,#532);
#530 = CARTESIAN_POINT('',(130.85,-14.95,12.99));
#531 = DIRECTION('',(0.,0.,-1.));
#532 = DIRECTION('',(-9.474E-14,1.,0.));
#533 = CYLINDRICAL_SURFACE('',#534,0.3);
#534 = AXIS2_PLACEMENT_3D('',#535,#536,#537);
#535 = CARTESIAN_POINT('',(130.85,-14.95,12.99));
#536 = DIRECTION('',(0.,0.,-1.));
#537 = DIRECTION('',(-9.474E-14,1.,0.));
#538 = ADVANCED_FACE('',(#539),#550,.F.);
#539 = FACE_BOUND('',#540,.F.);
#540 = EDGE_LOOP('',(#541,#542,#543,#544));
#541 = ORIENTED_EDGE('',*,*,#372,.T.);
#542 = ORIENTED_EDGE('',*,*,#183,.T.);
#543 = ORIENTED_EDGE('',*,*,#517,.F.);
#544 = ORIENTED_EDGE('',*,*,#545,.F.);
#545 = EDGE_CURVE('',#373,#518,#546,.T.);
#546 = LINE('',#547,#548);
#547 = CARTESIAN_POINT('',(114.75,-14.65,12.99));
#548 = VECTOR('',#549,1.);
#549 = DIRECTION('',(1.,0.,0.));
#550 = PLANE('',#551);
#551 = AXIS2_PLACEMENT_3D('',#552,#553,#554);
#552 = CARTESIAN_POINT('',(114.75,-14.65,12.99));
#553 = DIRECTION('',(0.,1.,0.));
#554 = DIRECTION('',(1.,0.,0.));
#555 = ADVANCED_FACE('',(#556,#566),#576,.T.);
#556 = FACE_BOUND('',#557,.T.);
#557 = EDGE_LOOP('',(#558,#559,#560,#561,#562,#563,#564,#565));
#558 = ORIENTED_EDGE('',*,*,#47,.T.);
#559 = ORIENTED_EDGE('',*,*,#112,.T.);
#560 = ORIENTED_EDGE('',*,*,#282,.T.);
#561 = ORIENTED_EDGE('',*,*,#331,.T.);
#562 = ORIENTED_EDGE('',*,*,#349,.T.);
#563 = ORIENTED_EDGE('',*,*,#306,.T.);
#564 = ORIENTED_EDGE('',*,*,#258,.T.);
#565 = ORIENTED_EDGE('',*,*,#79,.T.);
#566 = FACE_BOUND('',#567,.T.);
#567 = EDGE_LOOP('',(#568,#569,#570,#571,#572,#573,#574,#575));
#568 = ORIENTED_EDGE('',*,*,#380,.F.);
#569 = ORIENTED_EDGE('',*,*,#405,.F.);
#570 = ORIENTED_EDGE('',*,*,#429,.F.);
#571 = ORIENTED_EDGE('',*,*,#454,.F.);
#572 = ORIENTED_EDGE('',*,*,#478,.F.);
#573 = ORIENTED_EDGE('',*,*,#503,.F.);
#574 = ORIENTED_EDGE('',*,*,#527,.F.);
#575 = ORIENTED_EDGE('',*,*,#545,.F.);
#576 = PLANE('',#577);
#577 = AXIS2_PLACEMENT_3D('',#578,#579,#580);
#578 = CARTESIAN_POINT('',(123.,-33.15,12.99));
#579 = DIRECTION('',(-0.,-0.,-1.));
#580 = DIRECTION('',(-1.,0.,0.));
#581 = ( GEOMETRIC_REPRESENTATION_CONTEXT(3) 
GLOBAL_UNCERTAINTY_ASSIGNED_CONTEXT((#585)) GLOBAL_UNIT_ASSIGNED_CONTEXT
((#582,#583,#584)) REPRESENTATION_CONTEXT('Context #1',
  '3D Context with UNIT and UNCERTAINTY') );
#582 = ( LENGTH_UNIT() NAMED_UNIT(*) SI_UNIT(.MILLI.,.METRE.) );
#583 = ( NAMED_UNIT(*) PLANE_ANGLE_UNIT() SI_UNIT($,.RADIAN.) );
#584 = ( NAMED_UNIT(*) SI_UNIT($,.STERADIAN.) SOLID_ANGLE_UNIT() );
#585 = UNCERTAINTY_MEASURE_WITH_UNIT(LENGTH_MEASURE(5.E-06),#582,
  'distance_accuracy_value','confusion accuracy');
#586 = PRODUCT_RELATED_PRODUCT_CATEGORY('part',$,(#7));
ENDSEC;
END-ISO-10303-21;
