ISO-10303-21;
HEADER;
FILE_DESCRIPTION(('FreeCAD Model'),'2;1');
FILE_NAME('Open CASCADE Shape Model','2026-09-27T22:02:46',('FreeCAD'),(
    'FreeCAD'),'Open CASCADE STEP processor 7.8','FreeCAD','Unknown');
FILE_SCHEMA(('AUTOMOTIVE_DESIGN { 1 0 10303 214 1 1 1 1 }'));
ENDSEC;
DATA;
#1 = APPLICATION_PROTOCOL_DEFINITION('international standard',
  'automotive_design',2000,#2);
#2 = APPLICATION_CONTEXT(
  'core data for automotive mechanical design processes');
#3 = SHAPE_DEFINITION_REPRESENTATION(#4,#10);
#4 = PRODUCT_DEFINITION_SHAPE('','',#5);
#5 = PRODUCT_DEFINITION('design','',#6,#9);
#6 = PRODUCT_DEFINITION_FORMATION('','',#7);
#7 = PRODUCT('Open CASCADE STEP translator 7.8 46',
  'Open CASCADE STEP translator 7.8 46','',(#8));
#8 = PRODUCT_CONTEXT('',#2,'mechanical');
#9 = PRODUCT_DEFINITION_CONTEXT('part definition',#2,'design');
#10 = SHAPE_REPRESENTATION('',(#11,#15,#264),#513);
#11 = AXIS2_PLACEMENT_3D('',#12,#13,#14);
#12 = CARTESIAN_POINT('',(0.,0.,0.));
#13 = DIRECTION('',(0.,0.,1.));
#14 = DIRECTION('',(1.,0.,-0.));
#15 = MANIFOLD_SOLID_BREP('',#16);
#16 = CLOSED_SHELL('',(#17,#57,#112,#136,#184,#201,#218,#235,#252));
#17 = ADVANCED_FACE('',(#18),#52,.T.);
#18 = FACE_BOUND('',#19,.T.);
#19 = EDGE_LOOP('',(#20,#30,#38,#46));
#20 = ORIENTED_EDGE('',*,*,#21,.F.);
#21 = EDGE_CURVE('',#22,#24,#26,.T.);
#22 = VERTEX_POINT('',#23);
#23 = CARTESIAN_POINT('',(113.,-51.3,12.99));
#24 = VERTEX_POINT('',#25);
#25 = CARTESIAN_POINT('',(114.85,-51.3,12.99));
#26 = LINE('',#27,#28);
#27 = CARTESIAN_POINT('',(113.,-51.3,12.99));
#28 = VECTOR('',#29,1.);
#29 = DIRECTION('',(1.,0.,0.));
#30 = ORIENTED_EDGE('',*,*,#31,.T.);
#31 = EDGE_CURVE('',#22,#32,#34,.T.);
#32 = VERTEX_POINT('',#33);
#33 = CARTESIAN_POINT('',(113.,-51.3,13.39));
#34 = LINE('',#35,#36);
#35 = CARTESIAN_POINT('',(113.,-51.3,12.99));
#36 = VECTOR('',#37,1.);
#37 = DIRECTION('',(0.,0.,1.));
#38 = ORIENTED_EDGE('',*,*,#39,.T.);
#39 = EDGE_CURVE('',#32,#40,#42,.T.);
#40 = VERTEX_POINT('',#41);
#41 = CARTESIAN_POINT('',(114.85,-51.3,13.39));
#42 = LINE('',#43,#44);
#43 = CARTESIAN_POINT('',(113.,-51.3,13.39));
#44 = VECTOR('',#45,1.);
#45 = DIRECTION('',(1.,0.,0.));
#46 = ORIENTED_EDGE('',*,*,#47,.T.);
#47 = EDGE_CURVE('',#40,#24,#48,.T.);
#48 = LINE('',#49,#50);
#49 = CARTESIAN_POINT('',(114.85,-51.3,12.345));
#50 = VECTOR('',#51,1.);
#51 = DIRECTION('',(0.,0.,-1.));
#52 = PLANE('',#53);
#53 = AXIS2_PLACEMENT_3D('',#54,#55,#56);
#54 = CARTESIAN_POINT('',(113.,-51.3,12.99));
#55 = DIRECTION('',(0.,1.,0.));
#56 = DIRECTION('',(1.,0.,0.));
#57 = ADVANCED_FACE('',(#58),#107,.F.);
#58 = FACE_BOUND('',#59,.F.);
#59 = EDGE_LOOP('',(#60,#61,#69,#77,#85,#93,#101));
#60 = ORIENTED_EDGE('',*,*,#21,.F.);
#61 = ORIENTED_EDGE('',*,*,#62,.F.);
#62 = EDGE_CURVE('',#63,#22,#65,.T.);
#63 = VERTEX_POINT('',#64);
#64 = CARTESIAN_POINT('',(113.,-57.2,12.99));
#65 = LINE('',#66,#67);
#66 = CARTESIAN_POINT('',(113.,-57.2,12.99));
#67 = VECTOR('',#68,1.);
#68 = DIRECTION('',(0.,1.,0.));
#69 = ORIENTED_EDGE('',*,*,#70,.F.);
#70 = EDGE_CURVE('',#71,#63,#73,.T.);
#71 = VERTEX_POINT('',#72);
#72 = CARTESIAN_POINT('',(117.4,-58.6,12.99));
#73 = LINE('',#74,#75);
#74 = CARTESIAN_POINT('',(117.4,-58.6,12.99));
#75 = VECTOR('',#76,1.);
#76 = DIRECTION('',(-0.952925780013,0.303203657277,0.));
#77 = ORIENTED_EDGE('',*,*,#78,.F.);
#78 = EDGE_CURVE('',#79,#71,#81,.T.);
#79 = VERTEX_POINT('',#80);
#80 = CARTESIAN_POINT('',(121.5,-55.9,12.99));
#81 = LINE('',#82,#83);
#82 = CARTESIAN_POINT('',(121.5,-55.9,12.99));
#83 = VECTOR('',#84,1.);
#84 = DIRECTION('',(-0.83517086482,-0.549990569516,0.));
#85 = ORIENTED_EDGE('',*,*,#86,.F.);
#86 = EDGE_CURVE('',#87,#79,#89,.T.);
#87 = VERTEX_POINT('',#88);
#88 = CARTESIAN_POINT('',(120.99565217391,-53.,12.99));
#89 = LINE('',#90,#91);
#90 = CARTESIAN_POINT('',(120.7,-51.3,12.99));
#91 = VECTOR('',#92,1.);
#92 = DIRECTION('',(0.171341174751,-0.98521175482,0.));
#93 = ORIENTED_EDGE('',*,*,#94,.T.);
#94 = EDGE_CURVE('',#87,#95,#97,.T.);
#95 = VERTEX_POINT('',#96);
#96 = CARTESIAN_POINT('',(114.85,-53.,12.99));
#97 = LINE('',#98,#99);
#98 = CARTESIAN_POINT('',(118.90608769591,-53.,12.99));
#99 = VECTOR('',#100,1.);
#100 = DIRECTION('',(-1.,0.,0.));
#101 = ORIENTED_EDGE('',*,*,#102,.T.);
#102 = EDGE_CURVE('',#95,#24,#103,.T.);
#103 = LINE('',#104,#105);
#104 = CARTESIAN_POINT('',(114.85,-46.04641870115,12.99));
#105 = VECTOR('',#106,1.);
#106 = DIRECTION('',(0.,1.,0.));
#107 = PLANE('',#108);
#108 = AXIS2_PLACEMENT_3D('',#109,#110,#111);
#109 = CARTESIAN_POINT('',(116.93179945709,-54.45978167292,12.99));
#110 = DIRECTION('',(0.,0.,1.));
#111 = DIRECTION('',(1.,0.,0.));
#112 = ADVANCED_FACE('',(#113),#131,.T.);
#113 = FACE_BOUND('',#114,.T.);
#114 = EDGE_LOOP('',(#115,#123,#124,#125));
#115 = ORIENTED_EDGE('',*,*,#116,.F.);
#116 = EDGE_CURVE('',#95,#117,#119,.T.);
#117 = VERTEX_POINT('',#118);
#118 = CARTESIAN_POINT('',(114.85,-53.,13.39));
#119 = LINE('',#120,#121);
#120 = CARTESIAN_POINT('',(114.85,-53.,11.7));
#121 = VECTOR('',#122,1.);
#122 = DIRECTION('',(0.,0.,1.));
#123 = ORIENTED_EDGE('',*,*,#102,.T.);
#124 = ORIENTED_EDGE('',*,*,#47,.F.);
#125 = ORIENTED_EDGE('',*,*,#126,.F.);
#126 = EDGE_CURVE('',#117,#40,#127,.T.);
#127 = LINE('',#128,#129);
#128 = CARTESIAN_POINT('',(114.85,-46.04893884022,13.39));
#129 = VECTOR('',#130,1.);
#130 = DIRECTION('',(0.,1.,0.));
#131 = PLANE('',#132);
#132 = AXIS2_PLACEMENT_3D('',#133,#134,#135);
#133 = CARTESIAN_POINT('',(114.85,-53.,11.7));
#134 = DIRECTION('',(1.,0.,0.));
#135 = DIRECTION('',(0.,0.,1.));
#136 = ADVANCED_FACE('',(#137),#179,.T.);
#137 = FACE_BOUND('',#138,.T.);
#138 = EDGE_LOOP('',(#139,#140,#148,#156,#164,#172,#178));
#139 = ORIENTED_EDGE('',*,*,#39,.F.);
#140 = ORIENTED_EDGE('',*,*,#141,.F.);
#141 = EDGE_CURVE('',#142,#32,#144,.T.);
#142 = VERTEX_POINT('',#143);
#143 = CARTESIAN_POINT('',(113.,-57.2,13.39));
#144 = LINE('',#145,#146);
#145 = CARTESIAN_POINT('',(113.,-57.2,13.39));
#146 = VECTOR('',#147,1.);
#147 = DIRECTION('',(0.,1.,0.));
#148 = ORIENTED_EDGE('',*,*,#149,.F.);
#149 = EDGE_CURVE('',#150,#142,#152,.T.);
#150 = VERTEX_POINT('',#151);
#151 = CARTESIAN_POINT('',(117.4,-58.6,13.39));
#152 = LINE('',#153,#154);
#153 = CARTESIAN_POINT('',(117.4,-58.6,13.39));
#154 = VECTOR('',#155,1.);
#155 = DIRECTION('',(-0.952925780013,0.303203657277,0.));
#156 = ORIENTED_EDGE('',*,*,#157,.F.);
#157 = EDGE_CURVE('',#158,#150,#160,.T.);
#158 = VERTEX_POINT('',#159);
#159 = CARTESIAN_POINT('',(121.5,-55.9,13.39));
#160 = LINE('',#161,#162);
#161 = CARTESIAN_POINT('',(121.5,-55.9,13.39));
#162 = VECTOR('',#163,1.);
#163 = DIRECTION('',(-0.83517086482,-0.549990569516,0.));
#164 = ORIENTED_EDGE('',*,*,#165,.F.);
#165 = EDGE_CURVE('',#166,#158,#168,.T.);
#166 = VERTEX_POINT('',#167);
#167 = CARTESIAN_POINT('',(120.99565217391,-53.,13.39));
#168 = LINE('',#169,#170);
#169 = CARTESIAN_POINT('',(120.7,-51.3,13.39));
#170 = VECTOR('',#171,1.);
#171 = DIRECTION('',(0.171341174751,-0.98521175482,0.));
#172 = ORIENTED_EDGE('',*,*,#173,.T.);
#173 = EDGE_CURVE('',#166,#117,#174,.T.);
#174 = LINE('',#175,#176);
#175 = CARTESIAN_POINT('',(118.90334371508,-53.,13.39));
#176 = VECTOR('',#177,1.);
#177 = DIRECTION('',(-1.,0.,0.));
#178 = ORIENTED_EDGE('',*,*,#126,.T.);
#179 = PLANE('',#180);
#180 = AXIS2_PLACEMENT_3D('',#181,#182,#183);
#181 = CARTESIAN_POINT('',(116.93179945709,-54.45978167292,13.39));
#182 = DIRECTION('',(0.,0.,1.));
#183 = DIRECTION('',(1.,0.,0.));
#184 = ADVANCED_FACE('',(#185),#196,.T.);
#185 = FACE_BOUND('',#186,.T.);
#186 = EDGE_LOOP('',(#187,#193,#194,#195));
#187 = ORIENTED_EDGE('',*,*,#188,.T.);
#188 = EDGE_CURVE('',#63,#142,#189,.T.);
#189 = LINE('',#190,#191);
#190 = CARTESIAN_POINT('',(113.,-57.2,12.99));
#191 = VECTOR('',#192,1.);
#192 = DIRECTION('',(0.,0.,1.));
#193 = ORIENTED_EDGE('',*,*,#141,.T.);
#194 = ORIENTED_EDGE('',*,*,#31,.F.);
#195 = ORIENTED_EDGE('',*,*,#62,.F.);
#196 = PLANE('',#197);
#197 = AXIS2_PLACEMENT_3D('',#198,#199,#200);
#198 = CARTESIAN_POINT('',(113.,-57.2,12.99));
#199 = DIRECTION('',(-1.,0.,0.));
#200 = DIRECTION('',(0.,1.,0.));
#201 = ADVANCED_FACE('',(#202),#213,.T.);
#202 = FACE_BOUND('',#203,.T.);
#203 = EDGE_LOOP('',(#204,#210,#211,#212));
#204 = ORIENTED_EDGE('',*,*,#205,.F.);
#205 = EDGE_CURVE('',#87,#166,#206,.T.);
#206 = LINE('',#207,#208);
#207 = CARTESIAN_POINT('',(120.99565217391,-53.,12.345));
#208 = VECTOR('',#209,1.);
#209 = DIRECTION('',(0.,0.,1.));
#210 = ORIENTED_EDGE('',*,*,#94,.T.);
#211 = ORIENTED_EDGE('',*,*,#116,.T.);
#212 = ORIENTED_EDGE('',*,*,#173,.F.);
#213 = PLANE('',#214);
#214 = AXIS2_PLACEMENT_3D('',#215,#216,#217);
#215 = CARTESIAN_POINT('',(114.85,-53.,11.7));
#216 = DIRECTION('',(0.,1.,0.));
#217 = DIRECTION('',(0.,0.,1.));
#218 = ADVANCED_FACE('',(#219),#230,.T.);
#219 = FACE_BOUND('',#220,.T.);
#220 = EDGE_LOOP('',(#221,#222,#223,#224));
#221 = ORIENTED_EDGE('',*,*,#86,.F.);
#222 = ORIENTED_EDGE('',*,*,#205,.T.);
#223 = ORIENTED_EDGE('',*,*,#165,.T.);
#224 = ORIENTED_EDGE('',*,*,#225,.F.);
#225 = EDGE_CURVE('',#79,#158,#226,.T.);
#226 = LINE('',#227,#228);
#227 = CARTESIAN_POINT('',(121.5,-55.9,12.99));
#228 = VECTOR('',#229,1.);
#229 = DIRECTION('',(0.,0.,1.));
#230 = PLANE('',#231);
#231 = AXIS2_PLACEMENT_3D('',#232,#233,#234);
#232 = CARTESIAN_POINT('',(120.7,-51.3,12.99));
#233 = DIRECTION('',(0.98521175482,0.171341174751,0.));
#234 = DIRECTION('',(0.171341174751,-0.98521175482,0.));
#235 = ADVANCED_FACE('',(#236),#247,.T.);
#236 = FACE_BOUND('',#237,.T.);
#237 = EDGE_LOOP('',(#238,#239,#240,#246));
#238 = ORIENTED_EDGE('',*,*,#225,.T.);
#239 = ORIENTED_EDGE('',*,*,#157,.T.);
#240 = ORIENTED_EDGE('',*,*,#241,.F.);
#241 = EDGE_CURVE('',#71,#150,#242,.T.);
#242 = LINE('',#243,#244);
#243 = CARTESIAN_POINT('',(117.4,-58.6,12.99));
#244 = VECTOR('',#245,1.);
#245 = DIRECTION('',(0.,0.,1.));
#246 = ORIENTED_EDGE('',*,*,#78,.F.);
#247 = PLANE('',#248);
#248 = AXIS2_PLACEMENT_3D('',#249,#250,#251);
#249 = CARTESIAN_POINT('',(121.5,-55.9,12.99));
#250 = DIRECTION('',(0.549990569516,-0.83517086482,0.));
#251 = DIRECTION('',(-0.83517086482,-0.549990569516,0.));
#252 = ADVANCED_FACE('',(#253),#259,.T.);
#253 = FACE_BOUND('',#254,.T.);
#254 = EDGE_LOOP('',(#255,#256,#257,#258));
#255 = ORIENTED_EDGE('',*,*,#241,.T.);
#256 = ORIENTED_EDGE('',*,*,#149,.T.);
#257 = ORIENTED_EDGE('',*,*,#188,.F.);
#258 = ORIENTED_EDGE('',*,*,#70,.F.);
#259 = PLANE('',#260);
#260 = AXIS2_PLACEMENT_3D('',#261,#262,#263);
#261 = CARTESIAN_POINT('',(117.4,-58.6,12.99));
#262 = DIRECTION('',(-0.303203657277,-0.952925780013,0.));
#263 = DIRECTION('',(-0.952925780013,0.303203657277,0.));
#264 = MANIFOLD_SOLID_BREP('',#265);
#265 = CLOSED_SHELL('',(#266,#306,#361,#385,#433,#450,#467,#484,#501));
#266 = ADVANCED_FACE('',(#267),#301,.T.);
#267 = FACE_BOUND('',#268,.T.);
#268 = EDGE_LOOP('',(#269,#279,#287,#295));
#269 = ORIENTED_EDGE('',*,*,#270,.F.);
#270 = EDGE_CURVE('',#271,#273,#275,.T.);
#271 = VERTEX_POINT('',#272);
#272 = CARTESIAN_POINT('',(130.75,-51.3,12.99));
#273 = VERTEX_POINT('',#274);
#274 = CARTESIAN_POINT('',(133.,-51.3,12.99));
#275 = LINE('',#276,#277);
#276 = CARTESIAN_POINT('',(125.1,-51.3,12.99));
#277 = VECTOR('',#278,1.);
#278 = DIRECTION('',(1.,0.,0.));
#279 = ORIENTED_EDGE('',*,*,#280,.F.);
#280 = EDGE_CURVE('',#281,#271,#283,.T.);
#281 = VERTEX_POINT('',#282);
#282 = CARTESIAN_POINT('',(130.75,-51.3,13.39));
#283 = LINE('',#284,#285);
#284 = CARTESIAN_POINT('',(130.75,-51.3,12.345));
#285 = VECTOR('',#286,1.);
#286 = DIRECTION('',(0.,0.,-1.));
#287 = ORIENTED_EDGE('',*,*,#288,.T.);
#288 = EDGE_CURVE('',#281,#289,#291,.T.);
#289 = VERTEX_POINT('',#290);
#290 = CARTESIAN_POINT('',(133.,-51.3,13.39));
#291 = LINE('',#292,#293);
#292 = CARTESIAN_POINT('',(125.1,-51.3,13.39));
#293 = VECTOR('',#294,1.);
#294 = DIRECTION('',(1.,0.,0.));
#295 = ORIENTED_EDGE('',*,*,#296,.F.);
#296 = EDGE_CURVE('',#273,#289,#297,.T.);
#297 = LINE('',#298,#299);
#298 = CARTESIAN_POINT('',(133.,-51.3,12.99));
#299 = VECTOR('',#300,1.);
#300 = DIRECTION('',(0.,0.,1.));
#301 = PLANE('',#302);
#302 = AXIS2_PLACEMENT_3D('',#303,#304,#305);
#303 = CARTESIAN_POINT('',(125.1,-51.3,12.99));
#304 = DIRECTION('',(0.,1.,0.));
#305 = DIRECTION('',(1.,0.,0.));
#306 = ADVANCED_FACE('',(#307),#356,.F.);
#307 = FACE_BOUND('',#308,.F.);
#308 = EDGE_LOOP('',(#309,#310,#318,#326,#334,#342,#350));
#309 = ORIENTED_EDGE('',*,*,#270,.F.);
#310 = ORIENTED_EDGE('',*,*,#311,.F.);
#311 = EDGE_CURVE('',#312,#271,#314,.T.);
#312 = VERTEX_POINT('',#313);
#313 = CARTESIAN_POINT('',(130.75,-53.,12.99));
#314 = LINE('',#315,#316);
#315 = CARTESIAN_POINT('',(130.75,-46.04641870115,12.99));
#316 = VECTOR('',#317,1.);
#317 = DIRECTION('',(0.,1.,0.));
#318 = ORIENTED_EDGE('',*,*,#319,.T.);
#319 = EDGE_CURVE('',#312,#320,#322,.T.);
#320 = VERTEX_POINT('',#321);
#321 = CARTESIAN_POINT('',(125.46956521739,-53.,12.99));
#322 = LINE('',#323,#324);
#323 = CARTESIAN_POINT('',(118.90608769591,-53.,12.99));
#324 = VECTOR('',#325,1.);
#325 = DIRECTION('',(-1.,0.,0.));
#326 = ORIENTED_EDGE('',*,*,#327,.F.);
#327 = EDGE_CURVE('',#328,#320,#330,.T.);
#328 = VERTEX_POINT('',#329);
#329 = CARTESIAN_POINT('',(126.1,-55.9,12.99));
#330 = LINE('',#331,#332);
#331 = CARTESIAN_POINT('',(126.1,-55.9,12.99));
#332 = VECTOR('',#333,1.);
#333 = DIRECTION('',(-0.212429644331,0.977176363923,0.));
#334 = ORIENTED_EDGE('',*,*,#335,.F.);
#335 = EDGE_CURVE('',#336,#328,#338,.T.);
#336 = VERTEX_POINT('',#337);
#337 = CARTESIAN_POINT('',(128.4,-57.2,12.99));
#338 = LINE('',#339,#340);
#339 = CARTESIAN_POINT('',(128.4,-57.2,12.99));
#340 = VECTOR('',#341,1.);
#341 = DIRECTION('',(-0.87056283872,0.492057256668,0.));
#342 = ORIENTED_EDGE('',*,*,#343,.F.);
#343 = EDGE_CURVE('',#344,#336,#346,.T.);
#344 = VERTEX_POINT('',#345);
#345 = CARTESIAN_POINT('',(133.,-56.8,12.99));
#346 = LINE('',#347,#348);
#347 = CARTESIAN_POINT('',(133.,-56.8,12.99));
#348 = VECTOR('',#349,1.);
#349 = DIRECTION('',(-0.996240588196,-8.662961636484E-02,0.));
#350 = ORIENTED_EDGE('',*,*,#351,.F.);
#351 = EDGE_CURVE('',#273,#344,#352,.T.);
#352 = LINE('',#353,#354);
#353 = CARTESIAN_POINT('',(133.,-51.3,12.99));
#354 = VECTOR('',#355,1.);
#355 = DIRECTION('',(0.,-1.,0.));
#356 = PLANE('',#357);
#357 = AXIS2_PLACEMENT_3D('',#358,#359,#360);
#358 = CARTESIAN_POINT('',(129.37906936221,-53.9074032681,12.99));
#359 = DIRECTION('',(0.,0.,1.));
#360 = DIRECTION('',(1.,0.,0.));
#361 = ADVANCED_FACE('',(#362),#380,.T.);
#362 = FACE_BOUND('',#363,.T.);
#363 = EDGE_LOOP('',(#364,#365,#373,#379));
#364 = ORIENTED_EDGE('',*,*,#296,.T.);
#365 = ORIENTED_EDGE('',*,*,#366,.T.);
#366 = EDGE_CURVE('',#289,#367,#369,.T.);
#367 = VERTEX_POINT('',#368);
#368 = CARTESIAN_POINT('',(133.,-56.8,13.39));
#369 = LINE('',#370,#371);
#370 = CARTESIAN_POINT('',(133.,-51.3,13.39));
#371 = VECTOR('',#372,1.);
#372 = DIRECTION('',(0.,-1.,0.));
#373 = ORIENTED_EDGE('',*,*,#374,.F.);
#374 = EDGE_CURVE('',#344,#367,#375,.T.);
#375 = LINE('',#376,#377);
#376 = CARTESIAN_POINT('',(133.,-56.8,12.99));
#377 = VECTOR('',#378,1.);
#378 = DIRECTION('',(0.,0.,1.));
#379 = ORIENTED_EDGE('',*,*,#351,.F.);
#380 = PLANE('',#381);
#381 = AXIS2_PLACEMENT_3D('',#382,#383,#384);
#382 = CARTESIAN_POINT('',(133.,-51.3,12.99));
#383 = DIRECTION('',(1.,0.,0.));
#384 = DIRECTION('',(0.,-1.,0.));
#385 = ADVANCED_FACE('',(#386),#428,.T.);
#386 = FACE_BOUND('',#387,.T.);
#387 = EDGE_LOOP('',(#388,#389,#397,#405,#413,#421,#427));
#388 = ORIENTED_EDGE('',*,*,#288,.F.);
#389 = ORIENTED_EDGE('',*,*,#390,.F.);
#390 = EDGE_CURVE('',#391,#281,#393,.T.);
#391 = VERTEX_POINT('',#392);
#392 = CARTESIAN_POINT('',(130.75,-53.,13.39));
#393 = LINE('',#394,#395);
#394 = CARTESIAN_POINT('',(130.75,-46.04893884022,13.39));
#395 = VECTOR('',#396,1.);
#396 = DIRECTION('',(0.,1.,0.));
#397 = ORIENTED_EDGE('',*,*,#398,.T.);
#398 = EDGE_CURVE('',#391,#399,#401,.T.);
#399 = VERTEX_POINT('',#400);
#400 = CARTESIAN_POINT('',(125.46956521739,-53.,13.39));
#401 = LINE('',#402,#403);
#402 = CARTESIAN_POINT('',(118.90334371508,-53.,13.39));
#403 = VECTOR('',#404,1.);
#404 = DIRECTION('',(-1.,0.,0.));
#405 = ORIENTED_EDGE('',*,*,#406,.F.);
#406 = EDGE_CURVE('',#407,#399,#409,.T.);
#407 = VERTEX_POINT('',#408);
#408 = CARTESIAN_POINT('',(126.1,-55.9,13.39));
#409 = LINE('',#410,#411);
#410 = CARTESIAN_POINT('',(126.1,-55.9,13.39));
#411 = VECTOR('',#412,1.);
#412 = DIRECTION('',(-0.212429644331,0.977176363923,0.));
#413 = ORIENTED_EDGE('',*,*,#414,.F.);
#414 = EDGE_CURVE('',#415,#407,#417,.T.);
#415 = VERTEX_POINT('',#416);
#416 = CARTESIAN_POINT('',(128.4,-57.2,13.39));
#417 = LINE('',#418,#419);
#418 = CARTESIAN_POINT('',(128.4,-57.2,13.39));
#419 = VECTOR('',#420,1.);
#420 = DIRECTION('',(-0.87056283872,0.492057256668,0.));
#421 = ORIENTED_EDGE('',*,*,#422,.F.);
#422 = EDGE_CURVE('',#367,#415,#423,.T.);
#423 = LINE('',#424,#425);
#424 = CARTESIAN_POINT('',(133.,-56.8,13.39));
#425 = VECTOR('',#426,1.);
#426 = DIRECTION('',(-0.996240588196,-8.662961636484E-02,0.));
#427 = ORIENTED_EDGE('',*,*,#366,.F.);
#428 = PLANE('',#429);
#429 = AXIS2_PLACEMENT_3D('',#430,#431,#432);
#430 = CARTESIAN_POINT('',(129.37906936221,-53.9074032681,13.39));
#431 = DIRECTION('',(0.,0.,1.));
#432 = DIRECTION('',(1.,0.,0.));
#433 = ADVANCED_FACE('',(#434),#445,.F.);
#434 = FACE_BOUND('',#435,.F.);
#435 = EDGE_LOOP('',(#436,#442,#443,#444));
#436 = ORIENTED_EDGE('',*,*,#437,.F.);
#437 = EDGE_CURVE('',#312,#391,#438,.T.);
#438 = LINE('',#439,#440);
#439 = CARTESIAN_POINT('',(130.75,-53.,11.7));
#440 = VECTOR('',#441,1.);
#441 = DIRECTION('',(0.,0.,1.));
#442 = ORIENTED_EDGE('',*,*,#311,.T.);
#443 = ORIENTED_EDGE('',*,*,#280,.F.);
#444 = ORIENTED_EDGE('',*,*,#390,.F.);
#445 = PLANE('',#446);
#446 = AXIS2_PLACEMENT_3D('',#447,#448,#449);
#447 = CARTESIAN_POINT('',(130.75,-53.,11.7));
#448 = DIRECTION('',(1.,0.,0.));
#449 = DIRECTION('',(0.,0.,1.));
#450 = ADVANCED_FACE('',(#451),#462,.T.);
#451 = FACE_BOUND('',#452,.T.);
#452 = EDGE_LOOP('',(#453,#454,#455,#461));
#453 = ORIENTED_EDGE('',*,*,#374,.T.);
#454 = ORIENTED_EDGE('',*,*,#422,.T.);
#455 = ORIENTED_EDGE('',*,*,#456,.F.);
#456 = EDGE_CURVE('',#336,#415,#457,.T.);
#457 = LINE('',#458,#459);
#458 = CARTESIAN_POINT('',(128.4,-57.2,12.99));
#459 = VECTOR('',#460,1.);
#460 = DIRECTION('',(0.,0.,1.));
#461 = ORIENTED_EDGE('',*,*,#343,.F.);
#462 = PLANE('',#463);
#463 = AXIS2_PLACEMENT_3D('',#464,#465,#466);
#464 = CARTESIAN_POINT('',(133.,-56.8,12.99));
#465 = DIRECTION('',(8.662961636484E-02,-0.996240588196,0.));
#466 = DIRECTION('',(-0.996240588196,-8.662961636484E-02,0.));
#467 = ADVANCED_FACE('',(#468),#479,.T.);
#468 = FACE_BOUND('',#469,.T.);
#469 = EDGE_LOOP('',(#470,#471,#472,#478));
#470 = ORIENTED_EDGE('',*,*,#456,.T.);
#471 = ORIENTED_EDGE('',*,*,#414,.T.);
#472 = ORIENTED_EDGE('',*,*,#473,.F.);
#473 = EDGE_CURVE('',#328,#407,#474,.T.);
#474 = LINE('',#475,#476);
#475 = CARTESIAN_POINT('',(126.1,-55.9,12.99));
#476 = VECTOR('',#477,1.);
#477 = DIRECTION('',(0.,0.,1.));
#478 = ORIENTED_EDGE('',*,*,#335,.F.);
#479 = PLANE('',#480);
#480 = AXIS2_PLACEMENT_3D('',#481,#482,#483);
#481 = CARTESIAN_POINT('',(128.4,-57.2,12.99));
#482 = DIRECTION('',(-0.492057256668,-0.87056283872,0.));
#483 = DIRECTION('',(-0.87056283872,0.492057256668,0.));
#484 = ADVANCED_FACE('',(#485),#496,.T.);
#485 = FACE_BOUND('',#486,.T.);
#486 = EDGE_LOOP('',(#487,#488,#489,#490));
#487 = ORIENTED_EDGE('',*,*,#327,.F.);
#488 = ORIENTED_EDGE('',*,*,#473,.T.);
#489 = ORIENTED_EDGE('',*,*,#406,.T.);
#490 = ORIENTED_EDGE('',*,*,#491,.T.);
#491 = EDGE_CURVE('',#399,#320,#492,.T.);
#492 = LINE('',#493,#494);
#493 = CARTESIAN_POINT('',(125.46956521739,-53.,12.345));
#494 = VECTOR('',#495,1.);
#495 = DIRECTION('',(0.,0.,-1.));
#496 = PLANE('',#497);
#497 = AXIS2_PLACEMENT_3D('',#498,#499,#500);
#498 = CARTESIAN_POINT('',(126.1,-55.9,12.99));
#499 = DIRECTION('',(-0.977176363923,-0.212429644331,0.));
#500 = DIRECTION('',(-0.212429644331,0.977176363923,0.));
#501 = ADVANCED_FACE('',(#502),#508,.T.);
#502 = FACE_BOUND('',#503,.T.);
#503 = EDGE_LOOP('',(#504,#505,#506,#507));
#504 = ORIENTED_EDGE('',*,*,#437,.F.);
#505 = ORIENTED_EDGE('',*,*,#319,.T.);
#506 = ORIENTED_EDGE('',*,*,#491,.F.);
#507 = ORIENTED_EDGE('',*,*,#398,.F.);
#508 = PLANE('',#509);
#509 = AXIS2_PLACEMENT_3D('',#510,#511,#512);
#510 = CARTESIAN_POINT('',(114.85,-53.,11.7));
#511 = DIRECTION('',(0.,1.,0.));
#512 = DIRECTION('',(0.,0.,1.));
#513 = ( GEOMETRIC_REPRESENTATION_CONTEXT(3) 
GLOBAL_UNCERTAINTY_ASSIGNED_CONTEXT((#517)) GLOBAL_UNIT_ASSIGNED_CONTEXT
((#514,#515,#516)) REPRESENTATION_CONTEXT('Context #1',
  '3D Context with UNIT and UNCERTAINTY') );
#514 = ( LENGTH_UNIT() NAMED_UNIT(*) SI_UNIT(.MILLI.,.METRE.) );
#515 = ( NAMED_UNIT(*) PLANE_ANGLE_UNIT() SI_UNIT($,.RADIAN.) );
#516 = ( NAMED_UNIT(*) SI_UNIT($,.STERADIAN.) SOLID_ANGLE_UNIT() );
#517 = UNCERTAINTY_MEASURE_WITH_UNIT(LENGTH_MEASURE(1.E-05),#514,
  'distance_accuracy_value','confusion accuracy');
#518 = PRODUCT_RELATED_PRODUCT_CATEGORY('part',$,(#7));
ENDSEC;
END-ISO-10303-21;
