ISO-10303-21;
HEADER;
FILE_DESCRIPTION(('FreeCAD Model'),'2;1');
FILE_NAME('Open CASCADE Shape Model','2026-09-27T22:02:42',('FreeCAD'),(
    'FreeCAD'),'Open CASCADE STEP processor 7.8','FreeCAD','Unknown');
FILE_SCHEMA(('AUTOMOTIVE_DESIGN { 1 0 10303 214 1 1 1 1 }'));
ENDSEC;
DATA;
#1 = APPLICATION_PROTOCOL_DEFINITION('international standard',
  'automotive_design',2000,#2);
#2 = APPLICATION_CONTEXT(
  'core data for automotive mechanical design processes');
#3 = SHAPE_DEFINITION_REPRESENTATION(#4,#10);
#4 = PRODUCT_DEFINITION_SHAPE('','',#5);
#5 = PRODUCT_DEFINITION('design','',#6,#9);
#6 = PRODUCT_DEFINITION_FORMATION('','',#7);
#7 = PRODUCT('Open CASCADE STEP translator 7.8 42',
  'Open CASCADE STEP translator 7.8 42','',(#8));
#8 = PRODUCT_CONTEXT('',#2,'mechanical');
#9 = PRODUCT_DEFINITION_CONTEXT('part definition',#2,'design');
#10 = SHAPE_REPRESENTATION('',(#11,#15,#231,#381,#531,#681,#831),#1014);
#11 = AXIS2_PLACEMENT_3D('',#12,#13,#14);
#12 = CARTESIAN_POINT('',(0.,0.,0.));
#13 = DIRECTION('',(0.,0.,1.));
#14 = DIRECTION('',(1.,0.,-0.));
#15 = MANIFOLD_SOLID_BREP('',#16);
#16 = CLOSED_SHELL('',(#17,#57,#104,#128,#168,#185,#202,#219));
#17 = ADVANCED_FACE('',(#18),#52,.T.);
#18 = FACE_BOUND('',#19,.T.);
#19 = EDGE_LOOP('',(#20,#30,#38,#46));
#20 = ORIENTED_EDGE('',*,*,#21,.F.);
#21 = EDGE_CURVE('',#22,#24,#26,.T.);
#22 = VERTEX_POINT('',#23);
#23 = CARTESIAN_POINT('',(114.,-51.4,12.99));
#24 = VERTEX_POINT('',#25);
#25 = CARTESIAN_POINT('',(114.85,-51.4,12.99));
#26 = LINE('',#27,#28);
#27 = CARTESIAN_POINT('',(114.,-51.4,12.99));
#28 = VECTOR('',#29,1.);
#29 = DIRECTION('',(1.,0.,0.));
#30 = ORIENTED_EDGE('',*,*,#31,.T.);
#31 = EDGE_CURVE('',#22,#32,#34,.T.);
#32 = VERTEX_POINT('',#33);
#33 = CARTESIAN_POINT('',(114.,-51.4,13.39));
#34 = LINE('',#35,#36);
#35 = CARTESIAN_POINT('',(114.,-51.4,12.99));
#36 = VECTOR('',#37,1.);
#37 = DIRECTION('',(0.,0.,1.));
#38 = ORIENTED_EDGE('',*,*,#39,.T.);
#39 = EDGE_CURVE('',#32,#40,#42,.T.);
#40 = VERTEX_POINT('',#41);
#41 = CARTESIAN_POINT('',(114.85,-51.4,13.39));
#42 = LINE('',#43,#44);
#43 = CARTESIAN_POINT('',(114.,-51.4,13.39));
#44 = VECTOR('',#45,1.);
#45 = DIRECTION('',(1.,0.,0.));
#46 = ORIENTED_EDGE('',*,*,#47,.T.);
#47 = EDGE_CURVE('',#40,#24,#48,.T.);
#48 = LINE('',#49,#50);
#49 = CARTESIAN_POINT('',(114.85,-51.4,12.345));
#50 = VECTOR('',#51,1.);
#51 = DIRECTION('',(0.,0.,-1.));
#52 = PLANE('',#53);
#53 = AXIS2_PLACEMENT_3D('',#54,#55,#56);
#54 = CARTESIAN_POINT('',(114.,-51.4,12.99));
#55 = DIRECTION('',(0.,1.,0.));
#56 = DIRECTION('',(1.,0.,0.));
#57 = ADVANCED_FACE('',(#58),#99,.F.);
#58 = FACE_BOUND('',#59,.F.);
#59 = EDGE_LOOP('',(#60,#61,#69,#77,#85,#93));
#60 = ORIENTED_EDGE('',*,*,#21,.F.);
#61 = ORIENTED_EDGE('',*,*,#62,.F.);
#62 = EDGE_CURVE('',#63,#22,#65,.T.);
#63 = VERTEX_POINT('',#64);
#64 = CARTESIAN_POINT('',(115.5,-56.9,12.99));
#65 = LINE('',#66,#67);
#66 = CARTESIAN_POINT('',(115.5,-56.9,12.99));
#67 = VECTOR('',#68,1.);
#68 = DIRECTION('',(-0.263117405792,0.964763821238,0.));
#69 = ORIENTED_EDGE('',*,*,#70,.F.);
#70 = EDGE_CURVE('',#71,#63,#73,.T.);
#71 = VERTEX_POINT('',#72);
#72 = CARTESIAN_POINT('',(116.7,-56.9,12.99));
#73 = LINE('',#74,#75);
#74 = CARTESIAN_POINT('',(116.7,-56.9,12.99));
#75 = VECTOR('',#76,1.);
#76 = DIRECTION('',(-1.,0.,0.));
#77 = ORIENTED_EDGE('',*,*,#78,.F.);
#78 = EDGE_CURVE('',#79,#71,#81,.T.);
#79 = VERTEX_POINT('',#80);
#80 = CARTESIAN_POINT('',(115.63636363636,-53.,12.99));
#81 = LINE('',#82,#83);
#82 = CARTESIAN_POINT('',(115.2,-51.4,12.99));
#83 = VECTOR('',#84,1.);
#84 = DIRECTION('',(0.263117405792,-0.964763821238,0.));
#85 = ORIENTED_EDGE('',*,*,#86,.T.);
#86 = EDGE_CURVE('',#79,#87,#89,.T.);
#87 = VERTEX_POINT('',#88);
#88 = CARTESIAN_POINT('',(114.85,-53.,12.99));
#89 = LINE('',#90,#91);
#90 = CARTESIAN_POINT('',(118.90608769591,-53.,12.99));
#91 = VECTOR('',#92,1.);
#92 = DIRECTION('',(-1.,0.,0.));
#93 = ORIENTED_EDGE('',*,*,#94,.T.);
#94 = EDGE_CURVE('',#87,#24,#95,.T.);
#95 = LINE('',#96,#97);
#96 = CARTESIAN_POINT('',(114.85,-46.04641870115,12.99));
#97 = VECTOR('',#98,1.);
#98 = DIRECTION('',(0.,1.,0.));
#99 = PLANE('',#100);
#100 = AXIS2_PLACEMENT_3D('',#101,#102,#103);
#101 = CARTESIAN_POINT('',(115.35,-54.15,12.99));
#102 = DIRECTION('',(0.,0.,1.));
#103 = DIRECTION('',(1.,0.,0.));
#104 = ADVANCED_FACE('',(#105),#123,.T.);
#105 = FACE_BOUND('',#106,.T.);
#106 = EDGE_LOOP('',(#107,#115,#116,#117));
#107 = ORIENTED_EDGE('',*,*,#108,.F.);
#108 = EDGE_CURVE('',#87,#109,#111,.T.);
#109 = VERTEX_POINT('',#110);
#110 = CARTESIAN_POINT('',(114.85,-53.,13.39));
#111 = LINE('',#112,#113);
#112 = CARTESIAN_POINT('',(114.85,-53.,11.7));
#113 = VECTOR('',#114,1.);
#114 = DIRECTION('',(0.,0.,1.));
#115 = ORIENTED_EDGE('',*,*,#94,.T.);
#116 = ORIENTED_EDGE('',*,*,#47,.F.);
#117 = ORIENTED_EDGE('',*,*,#118,.F.);
#118 = EDGE_CURVE('',#109,#40,#119,.T.);
#119 = LINE('',#120,#121);
#120 = CARTESIAN_POINT('',(114.85,-46.04893884022,13.39));
#121 = VECTOR('',#122,1.);
#122 = DIRECTION('',(0.,1.,0.));
#123 = PLANE('',#124);
#124 = AXIS2_PLACEMENT_3D('',#125,#126,#127);
#125 = CARTESIAN_POINT('',(114.85,-53.,11.7));
#126 = DIRECTION('',(1.,0.,0.));
#127 = DIRECTION('',(0.,0.,1.));
#128 = ADVANCED_FACE('',(#129),#163,.T.);
#129 = FACE_BOUND('',#130,.T.);
#130 = EDGE_LOOP('',(#131,#132,#140,#148,#156,#162));
#131 = ORIENTED_EDGE('',*,*,#39,.F.);
#132 = ORIENTED_EDGE('',*,*,#133,.F.);
#133 = EDGE_CURVE('',#134,#32,#136,.T.);
#134 = VERTEX_POINT('',#135);
#135 = CARTESIAN_POINT('',(115.5,-56.9,13.39));
#136 = LINE('',#137,#138);
#137 = CARTESIAN_POINT('',(115.5,-56.9,13.39));
#138 = VECTOR('',#139,1.);
#139 = DIRECTION('',(-0.263117405792,0.964763821238,0.));
#140 = ORIENTED_EDGE('',*,*,#141,.F.);
#141 = EDGE_CURVE('',#142,#134,#144,.T.);
#142 = VERTEX_POINT('',#143);
#143 = CARTESIAN_POINT('',(116.7,-56.9,13.39));
#144 = LINE('',#145,#146);
#145 = CARTESIAN_POINT('',(116.7,-56.9,13.39));
#146 = VECTOR('',#147,1.);
#147 = DIRECTION('',(-1.,0.,0.));
#148 = ORIENTED_EDGE('',*,*,#149,.F.);
#149 = EDGE_CURVE('',#150,#142,#152,.T.);
#150 = VERTEX_POINT('',#151);
#151 = CARTESIAN_POINT('',(115.63636363636,-53.,13.39));
#152 = LINE('',#153,#154);
#153 = CARTESIAN_POINT('',(115.2,-51.4,13.39));
#154 = VECTOR('',#155,1.);
#155 = DIRECTION('',(0.263117405792,-0.964763821238,0.));
#156 = ORIENTED_EDGE('',*,*,#157,.T.);
#157 = EDGE_CURVE('',#150,#109,#158,.T.);
#158 = LINE('',#159,#160);
#159 = CARTESIAN_POINT('',(118.90334371508,-53.,13.39));
#160 = VECTOR('',#161,1.);
#161 = DIRECTION('',(-1.,0.,0.));
#162 = ORIENTED_EDGE('',*,*,#118,.T.);
#163 = PLANE('',#164);
#164 = AXIS2_PLACEMENT_3D('',#165,#166,#167);
#165 = CARTESIAN_POINT('',(115.35,-54.15,13.39));
#166 = DIRECTION('',(0.,0.,1.));
#167 = DIRECTION('',(1.,0.,0.));
#168 = ADVANCED_FACE('',(#169),#180,.T.);
#169 = FACE_BOUND('',#170,.T.);
#170 = EDGE_LOOP('',(#171,#177,#178,#179));
#171 = ORIENTED_EDGE('',*,*,#172,.T.);
#172 = EDGE_CURVE('',#63,#134,#173,.T.);
#173 = LINE('',#174,#175);
#174 = CARTESIAN_POINT('',(115.5,-56.9,12.99));
#175 = VECTOR('',#176,1.);
#176 = DIRECTION('',(0.,0.,1.));
#177 = ORIENTED_EDGE('',*,*,#133,.T.);
#178 = ORIENTED_EDGE('',*,*,#31,.F.);
#179 = ORIENTED_EDGE('',*,*,#62,.F.);
#180 = PLANE('',#181);
#181 = AXIS2_PLACEMENT_3D('',#182,#183,#184);
#182 = CARTESIAN_POINT('',(115.5,-56.9,12.99));
#183 = DIRECTION('',(-0.964763821238,-0.263117405792,0.));
#184 = DIRECTION('',(-0.263117405792,0.964763821238,0.));
#185 = ADVANCED_FACE('',(#186),#197,.T.);
#186 = FACE_BOUND('',#187,.T.);
#187 = EDGE_LOOP('',(#188,#194,#195,#196));
#188 = ORIENTED_EDGE('',*,*,#189,.F.);
#189 = EDGE_CURVE('',#79,#150,#190,.T.);
#190 = LINE('',#191,#192);
#191 = CARTESIAN_POINT('',(115.63636363636,-53.,12.345));
#192 = VECTOR('',#193,1.);
#193 = DIRECTION('',(0.,0.,1.));
#194 = ORIENTED_EDGE('',*,*,#86,.T.);
#195 = ORIENTED_EDGE('',*,*,#108,.T.);
#196 = ORIENTED_EDGE('',*,*,#157,.F.);
#197 = PLANE('',#198);
#198 = AXIS2_PLACEMENT_3D('',#199,#200,#201);
#199 = CARTESIAN_POINT('',(114.85,-53.,11.7));
#200 = DIRECTION('',(0.,1.,0.));
#201 = DIRECTION('',(0.,0.,1.));
#202 = ADVANCED_FACE('',(#203),#214,.T.);
#203 = FACE_BOUND('',#204,.T.);
#204 = EDGE_LOOP('',(#205,#206,#207,#208));
#205 = ORIENTED_EDGE('',*,*,#78,.F.);
#206 = ORIENTED_EDGE('',*,*,#189,.T.);
#207 = ORIENTED_EDGE('',*,*,#149,.T.);
#208 = ORIENTED_EDGE('',*,*,#209,.F.);
#209 = EDGE_CURVE('',#71,#142,#210,.T.);
#210 = LINE('',#211,#212);
#211 = CARTESIAN_POINT('',(116.7,-56.9,12.99));
#212 = VECTOR('',#213,1.);
#213 = DIRECTION('',(0.,0.,1.));
#214 = PLANE('',#215);
#215 = AXIS2_PLACEMENT_3D('',#216,#217,#218);
#216 = CARTESIAN_POINT('',(115.2,-51.4,12.99));
#217 = DIRECTION('',(0.964763821238,0.263117405792,0.));
#218 = DIRECTION('',(0.263117405792,-0.964763821238,0.));
#219 = ADVANCED_FACE('',(#220),#226,.T.);
#220 = FACE_BOUND('',#221,.T.);
#221 = EDGE_LOOP('',(#222,#223,#224,#225));
#222 = ORIENTED_EDGE('',*,*,#209,.T.);
#223 = ORIENTED_EDGE('',*,*,#141,.T.);
#224 = ORIENTED_EDGE('',*,*,#172,.F.);
#225 = ORIENTED_EDGE('',*,*,#70,.F.);
#226 = PLANE('',#227);
#227 = AXIS2_PLACEMENT_3D('',#228,#229,#230);
#228 = CARTESIAN_POINT('',(116.7,-56.9,12.99));
#229 = DIRECTION('',(0.,-1.,0.));
#230 = DIRECTION('',(-1.,0.,0.));
#231 = MANIFOLD_SOLID_BREP('',#232);
#232 = CLOSED_SHELL('',(#233,#273,#304,#328,#352,#369));
#233 = ADVANCED_FACE('',(#234),#268,.T.);
#234 = FACE_BOUND('',#235,.T.);
#235 = EDGE_LOOP('',(#236,#246,#254,#262));
#236 = ORIENTED_EDGE('',*,*,#237,.F.);
#237 = EDGE_CURVE('',#238,#240,#242,.T.);
#238 = VERTEX_POINT('',#239);
#239 = CARTESIAN_POINT('',(117.7,-56.9,12.99));
#240 = VERTEX_POINT('',#241);
#241 = CARTESIAN_POINT('',(116.63636363636,-53.,12.99));
#242 = LINE('',#243,#244);
#243 = CARTESIAN_POINT('',(117.7,-56.9,12.99));
#244 = VECTOR('',#245,1.);
#245 = DIRECTION('',(-0.263117405792,0.964763821238,0.));
#246 = ORIENTED_EDGE('',*,*,#247,.T.);
#247 = EDGE_CURVE('',#238,#248,#250,.T.);
#248 = VERTEX_POINT('',#249);
#249 = CARTESIAN_POINT('',(117.7,-56.9,13.39));
#250 = LINE('',#251,#252);
#251 = CARTESIAN_POINT('',(117.7,-56.9,12.99));
#252 = VECTOR('',#253,1.);
#253 = DIRECTION('',(0.,0.,1.));
#254 = ORIENTED_EDGE('',*,*,#255,.T.);
#255 = EDGE_CURVE('',#248,#256,#258,.T.);
#256 = VERTEX_POINT('',#257);
#257 = CARTESIAN_POINT('',(116.63636363636,-53.,13.39));
#258 = LINE('',#259,#260);
#259 = CARTESIAN_POINT('',(117.7,-56.9,13.39));
#260 = VECTOR('',#261,1.);
#261 = DIRECTION('',(-0.263117405792,0.964763821238,0.));
#262 = ORIENTED_EDGE('',*,*,#263,.T.);
#263 = EDGE_CURVE('',#256,#240,#264,.T.);
#264 = LINE('',#265,#266);
#265 = CARTESIAN_POINT('',(116.63636363636,-53.,12.345));
#266 = VECTOR('',#267,1.);
#267 = DIRECTION('',(0.,0.,-1.));
#268 = PLANE('',#269);
#269 = AXIS2_PLACEMENT_3D('',#270,#271,#272);
#270 = CARTESIAN_POINT('',(117.7,-56.9,12.99));
#271 = DIRECTION('',(-0.964763821238,-0.263117405792,0.));
#272 = DIRECTION('',(-0.263117405792,0.964763821238,0.));
#273 = ADVANCED_FACE('',(#274),#299,.F.);
#274 = FACE_BOUND('',#275,.F.);
#275 = EDGE_LOOP('',(#276,#284,#285,#293));
#276 = ORIENTED_EDGE('',*,*,#277,.T.);
#277 = EDGE_CURVE('',#278,#240,#280,.T.);
#278 = VERTEX_POINT('',#279);
#279 = CARTESIAN_POINT('',(117.83636363636,-53.,12.99));
#280 = LINE('',#281,#282);
#281 = CARTESIAN_POINT('',(118.90608769591,-53.,12.99));
#282 = VECTOR('',#283,1.);
#283 = DIRECTION('',(-1.,0.,0.));
#284 = ORIENTED_EDGE('',*,*,#237,.F.);
#285 = ORIENTED_EDGE('',*,*,#286,.F.);
#286 = EDGE_CURVE('',#287,#238,#289,.T.);
#287 = VERTEX_POINT('',#288);
#288 = CARTESIAN_POINT('',(118.9,-56.9,12.99));
#289 = LINE('',#290,#291);
#290 = CARTESIAN_POINT('',(118.9,-56.9,12.99));
#291 = VECTOR('',#292,1.);
#292 = DIRECTION('',(-1.,0.,0.));
#293 = ORIENTED_EDGE('',*,*,#294,.F.);
#294 = EDGE_CURVE('',#278,#287,#295,.T.);
#295 = LINE('',#296,#297);
#296 = CARTESIAN_POINT('',(117.4,-51.4,12.99));
#297 = VECTOR('',#298,1.);
#298 = DIRECTION('',(0.263117405792,-0.964763821238,0.));
#299 = PLANE('',#300);
#300 = AXIS2_PLACEMENT_3D('',#301,#302,#303);
#301 = CARTESIAN_POINT('',(117.55,-54.15,12.99));
#302 = DIRECTION('',(0.,0.,1.));
#303 = DIRECTION('',(1.,0.,0.));
#304 = ADVANCED_FACE('',(#305),#323,.T.);
#305 = FACE_BOUND('',#306,.T.);
#306 = EDGE_LOOP('',(#307,#315,#316,#317));
#307 = ORIENTED_EDGE('',*,*,#308,.F.);
#308 = EDGE_CURVE('',#278,#309,#311,.T.);
#309 = VERTEX_POINT('',#310);
#310 = CARTESIAN_POINT('',(117.83636363636,-53.,13.39));
#311 = LINE('',#312,#313);
#312 = CARTESIAN_POINT('',(117.83636363636,-53.,12.345));
#313 = VECTOR('',#314,1.);
#314 = DIRECTION('',(0.,0.,1.));
#315 = ORIENTED_EDGE('',*,*,#277,.T.);
#316 = ORIENTED_EDGE('',*,*,#263,.F.);
#317 = ORIENTED_EDGE('',*,*,#318,.F.);
#318 = EDGE_CURVE('',#309,#256,#319,.T.);
#319 = LINE('',#320,#321);
#320 = CARTESIAN_POINT('',(118.90334371508,-53.,13.39));
#321 = VECTOR('',#322,1.);
#322 = DIRECTION('',(-1.,0.,0.));
#323 = PLANE('',#324);
#324 = AXIS2_PLACEMENT_3D('',#325,#326,#327);
#325 = CARTESIAN_POINT('',(114.85,-53.,11.7));
#326 = DIRECTION('',(0.,1.,0.));
#327 = DIRECTION('',(0.,0.,1.));
#328 = ADVANCED_FACE('',(#329),#347,.T.);
#329 = FACE_BOUND('',#330,.T.);
#330 = EDGE_LOOP('',(#331,#332,#333,#341));
#331 = ORIENTED_EDGE('',*,*,#318,.T.);
#332 = ORIENTED_EDGE('',*,*,#255,.F.);
#333 = ORIENTED_EDGE('',*,*,#334,.F.);
#334 = EDGE_CURVE('',#335,#248,#337,.T.);
#335 = VERTEX_POINT('',#336);
#336 = CARTESIAN_POINT('',(118.9,-56.9,13.39));
#337 = LINE('',#338,#339);
#338 = CARTESIAN_POINT('',(118.9,-56.9,13.39));
#339 = VECTOR('',#340,1.);
#340 = DIRECTION('',(-1.,0.,0.));
#341 = ORIENTED_EDGE('',*,*,#342,.F.);
#342 = EDGE_CURVE('',#309,#335,#343,.T.);
#343 = LINE('',#344,#345);
#344 = CARTESIAN_POINT('',(117.4,-51.4,13.39));
#345 = VECTOR('',#346,1.);
#346 = DIRECTION('',(0.263117405792,-0.964763821238,0.));
#347 = PLANE('',#348);
#348 = AXIS2_PLACEMENT_3D('',#349,#350,#351);
#349 = CARTESIAN_POINT('',(117.55,-54.15,13.39));
#350 = DIRECTION('',(0.,0.,1.));
#351 = DIRECTION('',(1.,0.,0.));
#352 = ADVANCED_FACE('',(#353),#364,.T.);
#353 = FACE_BOUND('',#354,.T.);
#354 = EDGE_LOOP('',(#355,#361,#362,#363));
#355 = ORIENTED_EDGE('',*,*,#356,.T.);
#356 = EDGE_CURVE('',#287,#335,#357,.T.);
#357 = LINE('',#358,#359);
#358 = CARTESIAN_POINT('',(118.9,-56.9,12.99));
#359 = VECTOR('',#360,1.);
#360 = DIRECTION('',(0.,0.,1.));
#361 = ORIENTED_EDGE('',*,*,#334,.T.);
#362 = ORIENTED_EDGE('',*,*,#247,.F.);
#363 = ORIENTED_EDGE('',*,*,#286,.F.);
#364 = PLANE('',#365);
#365 = AXIS2_PLACEMENT_3D('',#366,#367,#368);
#366 = CARTESIAN_POINT('',(118.9,-56.9,12.99));
#367 = DIRECTION('',(0.,-1.,0.));
#368 = DIRECTION('',(-1.,0.,0.));
#369 = ADVANCED_FACE('',(#370),#376,.T.);
#370 = FACE_BOUND('',#371,.T.);
#371 = EDGE_LOOP('',(#372,#373,#374,#375));
#372 = ORIENTED_EDGE('',*,*,#294,.F.);
#373 = ORIENTED_EDGE('',*,*,#308,.T.);
#374 = ORIENTED_EDGE('',*,*,#342,.T.);
#375 = ORIENTED_EDGE('',*,*,#356,.F.);
#376 = PLANE('',#377);
#377 = AXIS2_PLACEMENT_3D('',#378,#379,#380);
#378 = CARTESIAN_POINT('',(117.4,-51.4,12.99));
#379 = DIRECTION('',(0.964763821238,0.263117405792,0.));
#380 = DIRECTION('',(0.263117405792,-0.964763821238,0.));
#381 = MANIFOLD_SOLID_BREP('',#382);
#382 = CLOSED_SHELL('',(#383,#423,#454,#478,#502,#519));
#383 = ADVANCED_FACE('',(#384),#418,.T.);
#384 = FACE_BOUND('',#385,.T.);
#385 = EDGE_LOOP('',(#386,#396,#404,#412));
#386 = ORIENTED_EDGE('',*,*,#387,.F.);
#387 = EDGE_CURVE('',#388,#390,#392,.T.);
#388 = VERTEX_POINT('',#389);
#389 = CARTESIAN_POINT('',(119.9,-56.9,12.99));
#390 = VERTEX_POINT('',#391);
#391 = CARTESIAN_POINT('',(118.83636363636,-53.,12.99));
#392 = LINE('',#393,#394);
#393 = CARTESIAN_POINT('',(119.9,-56.9,12.99));
#394 = VECTOR('',#395,1.);
#395 = DIRECTION('',(-0.263117405792,0.964763821238,0.));
#396 = ORIENTED_EDGE('',*,*,#397,.T.);
#397 = EDGE_CURVE('',#388,#398,#400,.T.);
#398 = VERTEX_POINT('',#399);
#399 = CARTESIAN_POINT('',(119.9,-56.9,13.39));
#400 = LINE('',#401,#402);
#401 = CARTESIAN_POINT('',(119.9,-56.9,12.99));
#402 = VECTOR('',#403,1.);
#403 = DIRECTION('',(0.,0.,1.));
#404 = ORIENTED_EDGE('',*,*,#405,.T.);
#405 = EDGE_CURVE('',#398,#406,#408,.T.);
#406 = VERTEX_POINT('',#407);
#407 = CARTESIAN_POINT('',(118.83636363636,-53.,13.39));
#408 = LINE('',#409,#410);
#409 = CARTESIAN_POINT('',(119.9,-56.9,13.39));
#410 = VECTOR('',#411,1.);
#411 = DIRECTION('',(-0.263117405792,0.964763821238,0.));
#412 = ORIENTED_EDGE('',*,*,#413,.T.);
#413 = EDGE_CURVE('',#406,#390,#414,.T.);
#414 = LINE('',#415,#416);
#415 = CARTESIAN_POINT('',(118.83636363636,-53.,12.345));
#416 = VECTOR('',#417,1.);
#417 = DIRECTION('',(0.,0.,-1.));
#418 = PLANE('',#419);
#419 = AXIS2_PLACEMENT_3D('',#420,#421,#422);
#420 = CARTESIAN_POINT('',(119.9,-56.9,12.99));
#421 = DIRECTION('',(-0.964763821238,-0.263117405792,0.));
#422 = DIRECTION('',(-0.263117405792,0.964763821238,0.));
#423 = ADVANCED_FACE('',(#424),#449,.F.);
#424 = FACE_BOUND('',#425,.F.);
#425 = EDGE_LOOP('',(#426,#434,#435,#443));
#426 = ORIENTED_EDGE('',*,*,#427,.T.);
#427 = EDGE_CURVE('',#428,#390,#430,.T.);
#428 = VERTEX_POINT('',#429);
#429 = CARTESIAN_POINT('',(120.03636363636,-53.,12.99));
#430 = LINE('',#431,#432);
#431 = CARTESIAN_POINT('',(118.90608769591,-53.,12.99));
#432 = VECTOR('',#433,1.);
#433 = DIRECTION('',(-1.,0.,0.));
#434 = ORIENTED_EDGE('',*,*,#387,.F.);
#435 = ORIENTED_EDGE('',*,*,#436,.F.);
#436 = EDGE_CURVE('',#437,#388,#439,.T.);
#437 = VERTEX_POINT('',#438);
#438 = CARTESIAN_POINT('',(121.1,-56.9,12.99));
#439 = LINE('',#440,#441);
#440 = CARTESIAN_POINT('',(121.1,-56.9,12.99));
#441 = VECTOR('',#442,1.);
#442 = DIRECTION('',(-1.,0.,0.));
#443 = ORIENTED_EDGE('',*,*,#444,.F.);
#444 = EDGE_CURVE('',#428,#437,#445,.T.);
#445 = LINE('',#446,#447);
#446 = CARTESIAN_POINT('',(119.6,-51.4,12.99));
#447 = VECTOR('',#448,1.);
#448 = DIRECTION('',(0.263117405792,-0.964763821238,0.));
#449 = PLANE('',#450);
#450 = AXIS2_PLACEMENT_3D('',#451,#452,#453);
#451 = CARTESIAN_POINT('',(119.75,-54.15,12.99));
#452 = DIRECTION('',(0.,0.,1.));
#453 = DIRECTION('',(1.,0.,0.));
#454 = ADVANCED_FACE('',(#455),#473,.T.);
#455 = FACE_BOUND('',#456,.T.);
#456 = EDGE_LOOP('',(#457,#465,#466,#467));
#457 = ORIENTED_EDGE('',*,*,#458,.F.);
#458 = EDGE_CURVE('',#428,#459,#461,.T.);
#459 = VERTEX_POINT('',#460);
#460 = CARTESIAN_POINT('',(120.03636363636,-53.,13.39));
#461 = LINE('',#462,#463);
#462 = CARTESIAN_POINT('',(120.03636363636,-53.,12.345));
#463 = VECTOR('',#464,1.);
#464 = DIRECTION('',(0.,0.,1.));
#465 = ORIENTED_EDGE('',*,*,#427,.T.);
#466 = ORIENTED_EDGE('',*,*,#413,.F.);
#467 = ORIENTED_EDGE('',*,*,#468,.F.);
#468 = EDGE_CURVE('',#459,#406,#469,.T.);
#469 = LINE('',#470,#471);
#470 = CARTESIAN_POINT('',(118.90334371508,-53.,13.39));
#471 = VECTOR('',#472,1.);
#472 = DIRECTION('',(-1.,0.,0.));
#473 = PLANE('',#474);
#474 = AXIS2_PLACEMENT_3D('',#475,#476,#477);
#475 = CARTESIAN_POINT('',(114.85,-53.,11.7));
#476 = DIRECTION('',(0.,1.,0.));
#477 = DIRECTION('',(0.,0.,1.));
#478 = ADVANCED_FACE('',(#479),#497,.T.);
#479 = FACE_BOUND('',#480,.T.);
#480 = EDGE_LOOP('',(#481,#482,#483,#491));
#481 = ORIENTED_EDGE('',*,*,#468,.T.);
#482 = ORIENTED_EDGE('',*,*,#405,.F.);
#483 = ORIENTED_EDGE('',*,*,#484,.F.);
#484 = EDGE_CURVE('',#485,#398,#487,.T.);
#485 = VERTEX_POINT('',#486);
#486 = CARTESIAN_POINT('',(121.1,-56.9,13.39));
#487 = LINE('',#488,#489);
#488 = CARTESIAN_POINT('',(121.1,-56.9,13.39));
#489 = VECTOR('',#490,1.);
#490 = DIRECTION('',(-1.,0.,0.));
#491 = ORIENTED_EDGE('',*,*,#492,.F.);
#492 = EDGE_CURVE('',#459,#485,#493,.T.);
#493 = LINE('',#494,#495);
#494 = CARTESIAN_POINT('',(119.6,-51.4,13.39));
#495 = VECTOR('',#496,1.);
#496 = DIRECTION('',(0.263117405792,-0.964763821238,0.));
#497 = PLANE('',#498);
#498 = AXIS2_PLACEMENT_3D('',#499,#500,#501);
#499 = CARTESIAN_POINT('',(119.75,-54.15,13.39));
#500 = DIRECTION('',(0.,0.,1.));
#501 = DIRECTION('',(1.,0.,0.));
#502 = ADVANCED_FACE('',(#503),#514,.T.);
#503 = FACE_BOUND('',#504,.T.);
#504 = EDGE_LOOP('',(#505,#511,#512,#513));
#505 = ORIENTED_EDGE('',*,*,#506,.T.);
#506 = EDGE_CURVE('',#437,#485,#507,.T.);
#507 = LINE('',#508,#509);
#508 = CARTESIAN_POINT('',(121.1,-56.9,12.99));
#509 = VECTOR('',#510,1.);
#510 = DIRECTION('',(0.,0.,1.));
#511 = ORIENTED_EDGE('',*,*,#484,.T.);
#512 = ORIENTED_EDGE('',*,*,#397,.F.);
#513 = ORIENTED_EDGE('',*,*,#436,.F.);
#514 = PLANE('',#515);
#515 = AXIS2_PLACEMENT_3D('',#516,#517,#518);
#516 = CARTESIAN_POINT('',(121.1,-56.9,12.99));
#517 = DIRECTION('',(0.,-1.,0.));
#518 = DIRECTION('',(-1.,0.,0.));
#519 = ADVANCED_FACE('',(#520),#526,.T.);
#520 = FACE_BOUND('',#521,.T.);
#521 = EDGE_LOOP('',(#522,#523,#524,#525));
#522 = ORIENTED_EDGE('',*,*,#444,.F.);
#523 = ORIENTED_EDGE('',*,*,#458,.T.);
#524 = ORIENTED_EDGE('',*,*,#492,.T.);
#525 = ORIENTED_EDGE('',*,*,#506,.F.);
#526 = PLANE('',#527);
#527 = AXIS2_PLACEMENT_3D('',#528,#529,#530);
#528 = CARTESIAN_POINT('',(119.6,-51.4,12.99));
#529 = DIRECTION('',(0.964763821238,0.263117405792,0.));
#530 = DIRECTION('',(0.263117405792,-0.964763821238,0.));
#531 = MANIFOLD_SOLID_BREP('',#532);
#532 = CLOSED_SHELL('',(#533,#573,#604,#628,#652,#669));
#533 = ADVANCED_FACE('',(#534),#568,.T.);
#534 = FACE_BOUND('',#535,.T.);
#535 = EDGE_LOOP('',(#536,#546,#554,#562));
#536 = ORIENTED_EDGE('',*,*,#537,.F.);
#537 = EDGE_CURVE('',#538,#540,#542,.T.);
#538 = VERTEX_POINT('',#539);
#539 = CARTESIAN_POINT('',(126.5,-56.9,12.99));
#540 = VERTEX_POINT('',#541);
#541 = CARTESIAN_POINT('',(125.43636363636,-53.,12.99));
#542 = LINE('',#543,#544);
#543 = CARTESIAN_POINT('',(126.5,-56.9,12.99));
#544 = VECTOR('',#545,1.);
#545 = DIRECTION('',(-0.263117405792,0.964763821238,0.));
#546 = ORIENTED_EDGE('',*,*,#547,.T.);
#547 = EDGE_CURVE('',#538,#548,#550,.T.);
#548 = VERTEX_POINT('',#549);
#549 = CARTESIAN_POINT('',(126.5,-56.9,13.39));
#550 = LINE('',#551,#552);
#551 = CARTESIAN_POINT('',(126.5,-56.9,12.99));
#552 = VECTOR('',#553,1.);
#553 = DIRECTION('',(0.,0.,1.));
#554 = ORIENTED_EDGE('',*,*,#555,.T.);
#555 = EDGE_CURVE('',#548,#556,#558,.T.);
#556 = VERTEX_POINT('',#557);
#557 = CARTESIAN_POINT('',(125.43636363636,-53.,13.39));
#558 = LINE('',#559,#560);
#559 = CARTESIAN_POINT('',(126.5,-56.9,13.39));
#560 = VECTOR('',#561,1.);
#561 = DIRECTION('',(-0.263117405792,0.964763821238,0.));
#562 = ORIENTED_EDGE('',*,*,#563,.T.);
#563 = EDGE_CURVE('',#556,#540,#564,.T.);
#564 = LINE('',#565,#566);
#565 = CARTESIAN_POINT('',(125.43636363636,-53.,12.345));
#566 = VECTOR('',#567,1.);
#567 = DIRECTION('',(0.,0.,-1.));
#568 = PLANE('',#569);
#569 = AXIS2_PLACEMENT_3D('',#570,#571,#572);
#570 = CARTESIAN_POINT('',(126.5,-56.9,12.99));
#571 = DIRECTION('',(-0.964763821238,-0.263117405792,0.));
#572 = DIRECTION('',(-0.263117405792,0.964763821238,0.));
#573 = ADVANCED_FACE('',(#574),#599,.F.);
#574 = FACE_BOUND('',#575,.F.);
#575 = EDGE_LOOP('',(#576,#584,#585,#593));
#576 = ORIENTED_EDGE('',*,*,#577,.T.);
#577 = EDGE_CURVE('',#578,#540,#580,.T.);
#578 = VERTEX_POINT('',#579);
#579 = CARTESIAN_POINT('',(126.63636363636,-53.,12.99));
#580 = LINE('',#581,#582);
#581 = CARTESIAN_POINT('',(118.90608769591,-53.,12.99));
#582 = VECTOR('',#583,1.);
#583 = DIRECTION('',(-1.,0.,0.));
#584 = ORIENTED_EDGE('',*,*,#537,.F.);
#585 = ORIENTED_EDGE('',*,*,#586,.F.);
#586 = EDGE_CURVE('',#587,#538,#589,.T.);
#587 = VERTEX_POINT('',#588);
#588 = CARTESIAN_POINT('',(127.7,-56.9,12.99));
#589 = LINE('',#590,#591);
#590 = CARTESIAN_POINT('',(127.7,-56.9,12.99));
#591 = VECTOR('',#592,1.);
#592 = DIRECTION('',(-1.,0.,0.));
#593 = ORIENTED_EDGE('',*,*,#594,.F.);
#594 = EDGE_CURVE('',#578,#587,#595,.T.);
#595 = LINE('',#596,#597);
#596 = CARTESIAN_POINT('',(126.2,-51.4,12.99));
#597 = VECTOR('',#598,1.);
#598 = DIRECTION('',(0.263117405792,-0.964763821238,0.));
#599 = PLANE('',#600);
#600 = AXIS2_PLACEMENT_3D('',#601,#602,#603);
#601 = CARTESIAN_POINT('',(126.35,-54.15,12.99));
#602 = DIRECTION('',(0.,0.,1.));
#603 = DIRECTION('',(1.,0.,0.));
#604 = ADVANCED_FACE('',(#605),#623,.T.);
#605 = FACE_BOUND('',#606,.T.);
#606 = EDGE_LOOP('',(#607,#615,#616,#617));
#607 = ORIENTED_EDGE('',*,*,#608,.F.);
#608 = EDGE_CURVE('',#578,#609,#611,.T.);
#609 = VERTEX_POINT('',#610);
#610 = CARTESIAN_POINT('',(126.63636363636,-53.,13.39));
#611 = LINE('',#612,#613);
#612 = CARTESIAN_POINT('',(126.63636363636,-53.,12.345));
#613 = VECTOR('',#614,1.);
#614 = DIRECTION('',(0.,0.,1.));
#615 = ORIENTED_EDGE('',*,*,#577,.T.);
#616 = ORIENTED_EDGE('',*,*,#563,.F.);
#617 = ORIENTED_EDGE('',*,*,#618,.F.);
#618 = EDGE_CURVE('',#609,#556,#619,.T.);
#619 = LINE('',#620,#621);
#620 = CARTESIAN_POINT('',(118.90334371508,-53.,13.39));
#621 = VECTOR('',#622,1.);
#622 = DIRECTION('',(-1.,0.,0.));
#623 = PLANE('',#624);
#624 = AXIS2_PLACEMENT_3D('',#625,#626,#627);
#625 = CARTESIAN_POINT('',(114.85,-53.,11.7));
#626 = DIRECTION('',(0.,1.,0.));
#627 = DIRECTION('',(0.,0.,1.));
#628 = ADVANCED_FACE('',(#629),#647,.T.);
#629 = FACE_BOUND('',#630,.T.);
#630 = EDGE_LOOP('',(#631,#632,#633,#641));
#631 = ORIENTED_EDGE('',*,*,#618,.T.);
#632 = ORIENTED_EDGE('',*,*,#555,.F.);
#633 = ORIENTED_EDGE('',*,*,#634,.F.);
#634 = EDGE_CURVE('',#635,#548,#637,.T.);
#635 = VERTEX_POINT('',#636);
#636 = CARTESIAN_POINT('',(127.7,-56.9,13.39));
#637 = LINE('',#638,#639);
#638 = CARTESIAN_POINT('',(127.7,-56.9,13.39));
#639 = VECTOR('',#640,1.);
#640 = DIRECTION('',(-1.,0.,0.));
#641 = ORIENTED_EDGE('',*,*,#642,.F.);
#642 = EDGE_CURVE('',#609,#635,#643,.T.);
#643 = LINE('',#644,#645);
#644 = CARTESIAN_POINT('',(126.2,-51.4,13.39));
#645 = VECTOR('',#646,1.);
#646 = DIRECTION('',(0.263117405792,-0.964763821238,0.));
#647 = PLANE('',#648);
#648 = AXIS2_PLACEMENT_3D('',#649,#650,#651);
#649 = CARTESIAN_POINT('',(126.35,-54.15,13.39));
#650 = DIRECTION('',(0.,0.,1.));
#651 = DIRECTION('',(1.,0.,0.));
#652 = ADVANCED_FACE('',(#653),#664,.T.);
#653 = FACE_BOUND('',#654,.T.);
#654 = EDGE_LOOP('',(#655,#661,#662,#663));
#655 = ORIENTED_EDGE('',*,*,#656,.T.);
#656 = EDGE_CURVE('',#587,#635,#657,.T.);
#657 = LINE('',#658,#659);
#658 = CARTESIAN_POINT('',(127.7,-56.9,12.99));
#659 = VECTOR('',#660,1.);
#660 = DIRECTION('',(0.,0.,1.));
#661 = ORIENTED_EDGE('',*,*,#634,.T.);
#662 = ORIENTED_EDGE('',*,*,#547,.F.);
#663 = ORIENTED_EDGE('',*,*,#586,.F.);
#664 = PLANE('',#665);
#665 = AXIS2_PLACEMENT_3D('',#666,#667,#668);
#666 = CARTESIAN_POINT('',(127.7,-56.9,12.99));
#667 = DIRECTION('',(0.,-1.,0.));
#668 = DIRECTION('',(-1.,0.,0.));
#669 = ADVANCED_FACE('',(#670),#676,.T.);
#670 = FACE_BOUND('',#671,.T.);
#671 = EDGE_LOOP('',(#672,#673,#674,#675));
#672 = ORIENTED_EDGE('',*,*,#594,.F.);
#673 = ORIENTED_EDGE('',*,*,#608,.T.);
#674 = ORIENTED_EDGE('',*,*,#642,.T.);
#675 = ORIENTED_EDGE('',*,*,#656,.F.);
#676 = PLANE('',#677);
#677 = AXIS2_PLACEMENT_3D('',#678,#679,#680);
#678 = CARTESIAN_POINT('',(126.2,-51.4,12.99));
#679 = DIRECTION('',(0.964763821238,0.263117405792,0.));
#680 = DIRECTION('',(0.263117405792,-0.964763821238,0.));
#681 = MANIFOLD_SOLID_BREP('',#682);
#682 = CLOSED_SHELL('',(#683,#723,#754,#778,#802,#819));
#683 = ADVANCED_FACE('',(#684),#718,.T.);
#684 = FACE_BOUND('',#685,.T.);
#685 = EDGE_LOOP('',(#686,#696,#704,#712));
#686 = ORIENTED_EDGE('',*,*,#687,.F.);
#687 = EDGE_CURVE('',#688,#690,#692,.T.);
#688 = VERTEX_POINT('',#689);
#689 = CARTESIAN_POINT('',(128.7,-56.9,12.99));
#690 = VERTEX_POINT('',#691);
#691 = CARTESIAN_POINT('',(127.63636363636,-53.,12.99));
#692 = LINE('',#693,#694);
#693 = CARTESIAN_POINT('',(128.7,-56.9,12.99));
#694 = VECTOR('',#695,1.);
#695 = DIRECTION('',(-0.263117405792,0.964763821238,0.));
#696 = ORIENTED_EDGE('',*,*,#697,.T.);
#697 = EDGE_CURVE('',#688,#698,#700,.T.);
#698 = VERTEX_POINT('',#699);
#699 = CARTESIAN_POINT('',(128.7,-56.9,13.39));
#700 = LINE('',#701,#702);
#701 = CARTESIAN_POINT('',(128.7,-56.9,12.99));
#702 = VECTOR('',#703,1.);
#703 = DIRECTION('',(0.,0.,1.));
#704 = ORIENTED_EDGE('',*,*,#705,.T.);
#705 = EDGE_CURVE('',#698,#706,#708,.T.);
#706 = VERTEX_POINT('',#707);
#707 = CARTESIAN_POINT('',(127.63636363636,-53.,13.39));
#708 = LINE('',#709,#710);
#709 = CARTESIAN_POINT('',(128.7,-56.9,13.39));
#710 = VECTOR('',#711,1.);
#711 = DIRECTION('',(-0.263117405792,0.964763821238,0.));
#712 = ORIENTED_EDGE('',*,*,#713,.T.);
#713 = EDGE_CURVE('',#706,#690,#714,.T.);
#714 = LINE('',#715,#716);
#715 = CARTESIAN_POINT('',(127.63636363636,-53.,12.345));
#716 = VECTOR('',#717,1.);
#717 = DIRECTION('',(0.,0.,-1.));
#718 = PLANE('',#719);
#719 = AXIS2_PLACEMENT_3D('',#720,#721,#722);
#720 = CARTESIAN_POINT('',(128.7,-56.9,12.99));
#721 = DIRECTION('',(-0.964763821238,-0.263117405792,0.));
#722 = DIRECTION('',(-0.263117405792,0.964763821238,0.));
#723 = ADVANCED_FACE('',(#724),#749,.F.);
#724 = FACE_BOUND('',#725,.F.);
#725 = EDGE_LOOP('',(#726,#734,#735,#743));
#726 = ORIENTED_EDGE('',*,*,#727,.T.);
#727 = EDGE_CURVE('',#728,#690,#730,.T.);
#728 = VERTEX_POINT('',#729);
#729 = CARTESIAN_POINT('',(128.83636363636,-53.,12.99));
#730 = LINE('',#731,#732);
#731 = CARTESIAN_POINT('',(118.90608769591,-53.,12.99));
#732 = VECTOR('',#733,1.);
#733 = DIRECTION('',(-1.,0.,0.));
#734 = ORIENTED_EDGE('',*,*,#687,.F.);
#735 = ORIENTED_EDGE('',*,*,#736,.F.);
#736 = EDGE_CURVE('',#737,#688,#739,.T.);
#737 = VERTEX_POINT('',#738);
#738 = CARTESIAN_POINT('',(129.9,-56.9,12.99));
#739 = LINE('',#740,#741);
#740 = CARTESIAN_POINT('',(129.9,-56.9,12.99));
#741 = VECTOR('',#742,1.);
#742 = DIRECTION('',(-1.,0.,0.));
#743 = ORIENTED_EDGE('',*,*,#744,.F.);
#744 = EDGE_CURVE('',#728,#737,#745,.T.);
#745 = LINE('',#746,#747);
#746 = CARTESIAN_POINT('',(128.4,-51.4,12.99));
#747 = VECTOR('',#748,1.);
#748 = DIRECTION('',(0.263117405792,-0.964763821238,0.));
#749 = PLANE('',#750);
#750 = AXIS2_PLACEMENT_3D('',#751,#752,#753);
#751 = CARTESIAN_POINT('',(128.55,-54.15,12.99));
#752 = DIRECTION('',(0.,0.,1.));
#753 = DIRECTION('',(1.,0.,0.));
#754 = ADVANCED_FACE('',(#755),#773,.T.);
#755 = FACE_BOUND('',#756,.T.);
#756 = EDGE_LOOP('',(#757,#765,#766,#767));
#757 = ORIENTED_EDGE('',*,*,#758,.F.);
#758 = EDGE_CURVE('',#728,#759,#761,.T.);
#759 = VERTEX_POINT('',#760);
#760 = CARTESIAN_POINT('',(128.83636363636,-53.,13.39));
#761 = LINE('',#762,#763);
#762 = CARTESIAN_POINT('',(128.83636363636,-53.,12.345));
#763 = VECTOR('',#764,1.);
#764 = DIRECTION('',(0.,0.,1.));
#765 = ORIENTED_EDGE('',*,*,#727,.T.);
#766 = ORIENTED_EDGE('',*,*,#713,.F.);
#767 = ORIENTED_EDGE('',*,*,#768,.F.);
#768 = EDGE_CURVE('',#759,#706,#769,.T.);
#769 = LINE('',#770,#771);
#770 = CARTESIAN_POINT('',(118.90334371508,-53.,13.39));
#771 = VECTOR('',#772,1.);
#772 = DIRECTION('',(-1.,0.,0.));
#773 = PLANE('',#774);
#774 = AXIS2_PLACEMENT_3D('',#775,#776,#777);
#775 = CARTESIAN_POINT('',(114.85,-53.,11.7));
#776 = DIRECTION('',(0.,1.,0.));
#777 = DIRECTION('',(0.,0.,1.));
#778 = ADVANCED_FACE('',(#779),#797,.T.);
#779 = FACE_BOUND('',#780,.T.);
#780 = EDGE_LOOP('',(#781,#782,#783,#791));
#781 = ORIENTED_EDGE('',*,*,#768,.T.);
#782 = ORIENTED_EDGE('',*,*,#705,.F.);
#783 = ORIENTED_EDGE('',*,*,#784,.F.);
#784 = EDGE_CURVE('',#785,#698,#787,.T.);
#785 = VERTEX_POINT('',#786);
#786 = CARTESIAN_POINT('',(129.9,-56.9,13.39));
#787 = LINE('',#788,#789);
#788 = CARTESIAN_POINT('',(129.9,-56.9,13.39));
#789 = VECTOR('',#790,1.);
#790 = DIRECTION('',(-1.,0.,0.));
#791 = ORIENTED_EDGE('',*,*,#792,.F.);
#792 = EDGE_CURVE('',#759,#785,#793,.T.);
#793 = LINE('',#794,#795);
#794 = CARTESIAN_POINT('',(128.4,-51.4,13.39));
#795 = VECTOR('',#796,1.);
#796 = DIRECTION('',(0.263117405792,-0.964763821238,0.));
#797 = PLANE('',#798);
#798 = AXIS2_PLACEMENT_3D('',#799,#800,#801);
#799 = CARTESIAN_POINT('',(128.55,-54.15,13.39));
#800 = DIRECTION('',(0.,0.,1.));
#801 = DIRECTION('',(1.,0.,0.));
#802 = ADVANCED_FACE('',(#803),#814,.T.);
#803 = FACE_BOUND('',#804,.T.);
#804 = EDGE_LOOP('',(#805,#811,#812,#813));
#805 = ORIENTED_EDGE('',*,*,#806,.T.);
#806 = EDGE_CURVE('',#737,#785,#807,.T.);
#807 = LINE('',#808,#809);
#808 = CARTESIAN_POINT('',(129.9,-56.9,12.99));
#809 = VECTOR('',#810,1.);
#810 = DIRECTION('',(0.,0.,1.));
#811 = ORIENTED_EDGE('',*,*,#784,.T.);
#812 = ORIENTED_EDGE('',*,*,#697,.F.);
#813 = ORIENTED_EDGE('',*,*,#736,.F.);
#814 = PLANE('',#815);
#815 = AXIS2_PLACEMENT_3D('',#816,#817,#818);
#816 = CARTESIAN_POINT('',(129.9,-56.9,12.99));
#817 = DIRECTION('',(0.,-1.,0.));
#818 = DIRECTION('',(-1.,0.,0.));
#819 = ADVANCED_FACE('',(#820),#826,.T.);
#820 = FACE_BOUND('',#821,.T.);
#821 = EDGE_LOOP('',(#822,#823,#824,#825));
#822 = ORIENTED_EDGE('',*,*,#744,.F.);
#823 = ORIENTED_EDGE('',*,*,#758,.T.);
#824 = ORIENTED_EDGE('',*,*,#792,.T.);
#825 = ORIENTED_EDGE('',*,*,#806,.F.);
#826 = PLANE('',#827);
#827 = AXIS2_PLACEMENT_3D('',#828,#829,#830);
#828 = CARTESIAN_POINT('',(128.4,-51.4,12.99));
#829 = DIRECTION('',(0.964763821238,0.263117405792,0.));
#830 = DIRECTION('',(0.263117405792,-0.964763821238,0.));
#831 = MANIFOLD_SOLID_BREP('',#832);
#832 = CLOSED_SHELL('',(#833,#873,#912,#936,#968,#985,#1002));
#833 = ADVANCED_FACE('',(#834),#868,.T.);
#834 = FACE_BOUND('',#835,.T.);
#835 = EDGE_LOOP('',(#836,#846,#854,#862));
#836 = ORIENTED_EDGE('',*,*,#837,.F.);
#837 = EDGE_CURVE('',#838,#840,#842,.T.);
#838 = VERTEX_POINT('',#839);
#839 = CARTESIAN_POINT('',(130.9,-56.9,12.99));
#840 = VERTEX_POINT('',#841);
#841 = CARTESIAN_POINT('',(129.83636363636,-53.,12.99));
#842 = LINE('',#843,#844);
#843 = CARTESIAN_POINT('',(130.9,-56.9,12.99));
#844 = VECTOR('',#845,1.);
#845 = DIRECTION('',(-0.263117405792,0.964763821238,0.));
#846 = ORIENTED_EDGE('',*,*,#847,.T.);
#847 = EDGE_CURVE('',#838,#848,#850,.T.);
#848 = VERTEX_POINT('',#849);
#849 = CARTESIAN_POINT('',(130.9,-56.9,13.39));
#850 = LINE('',#851,#852);
#851 = CARTESIAN_POINT('',(130.9,-56.9,12.99));
#852 = VECTOR('',#853,1.);
#853 = DIRECTION('',(0.,0.,1.));
#854 = ORIENTED_EDGE('',*,*,#855,.T.);
#855 = EDGE_CURVE('',#848,#856,#858,.T.);
#856 = VERTEX_POINT('',#857);
#857 = CARTESIAN_POINT('',(129.83636363636,-53.,13.39));
#858 = LINE('',#859,#860);
#859 = CARTESIAN_POINT('',(130.9,-56.9,13.39));
#860 = VECTOR('',#861,1.);
#861 = DIRECTION('',(-0.263117405792,0.964763821238,0.));
#862 = ORIENTED_EDGE('',*,*,#863,.T.);
#863 = EDGE_CURVE('',#856,#840,#864,.T.);
#864 = LINE('',#865,#866);
#865 = CARTESIAN_POINT('',(129.83636363636,-53.,12.345));
#866 = VECTOR('',#867,1.);
#867 = DIRECTION('',(0.,0.,-1.));
#868 = PLANE('',#869);
#869 = AXIS2_PLACEMENT_3D('',#870,#871,#872);
#870 = CARTESIAN_POINT('',(130.9,-56.9,12.99));
#871 = DIRECTION('',(-0.964763821238,-0.263117405792,0.));
#872 = DIRECTION('',(-0.263117405792,0.964763821238,0.));
#873 = ADVANCED_FACE('',(#874),#907,.F.);
#874 = FACE_BOUND('',#875,.F.);
#875 = EDGE_LOOP('',(#876,#884,#885,#893,#901));
#876 = ORIENTED_EDGE('',*,*,#877,.T.);
#877 = EDGE_CURVE('',#878,#840,#880,.T.);
#878 = VERTEX_POINT('',#879);
#879 = CARTESIAN_POINT('',(130.75,-53.,12.99));
#880 = LINE('',#881,#882);
#881 = CARTESIAN_POINT('',(118.90608769591,-53.,12.99));
#882 = VECTOR('',#883,1.);
#883 = DIRECTION('',(-1.,0.,0.));
#884 = ORIENTED_EDGE('',*,*,#837,.F.);
#885 = ORIENTED_EDGE('',*,*,#886,.F.);
#886 = EDGE_CURVE('',#887,#838,#889,.T.);
#887 = VERTEX_POINT('',#888);
#888 = CARTESIAN_POINT('',(132.1,-56.9,12.99));
#889 = LINE('',#890,#891);
#890 = CARTESIAN_POINT('',(132.1,-56.9,12.99));
#891 = VECTOR('',#892,1.);
#892 = DIRECTION('',(-1.,0.,0.));
#893 = ORIENTED_EDGE('',*,*,#894,.F.);
#894 = EDGE_CURVE('',#895,#887,#897,.T.);
#895 = VERTEX_POINT('',#896);
#896 = CARTESIAN_POINT('',(130.75,-51.95,12.99));
#897 = LINE('',#898,#899);
#898 = CARTESIAN_POINT('',(130.6,-51.4,12.99));
#899 = VECTOR('',#900,1.);
#900 = DIRECTION('',(0.263117405792,-0.964763821238,0.));
#901 = ORIENTED_EDGE('',*,*,#902,.F.);
#902 = EDGE_CURVE('',#878,#895,#903,.T.);
#903 = LINE('',#904,#905);
#904 = CARTESIAN_POINT('',(130.75,-46.04641870115,12.99));
#905 = VECTOR('',#906,1.);
#906 = DIRECTION('',(0.,1.,0.));
#907 = PLANE('',#908);
#908 = AXIS2_PLACEMENT_3D('',#909,#910,#911);
#909 = CARTESIAN_POINT('',(130.75,-54.15,12.99));
#910 = DIRECTION('',(0.,0.,1.));
#911 = DIRECTION('',(1.,0.,0.));
#912 = ADVANCED_FACE('',(#913),#931,.T.);
#913 = FACE_BOUND('',#914,.T.);
#914 = EDGE_LOOP('',(#915,#923,#924,#925));
#915 = ORIENTED_EDGE('',*,*,#916,.F.);
#916 = EDGE_CURVE('',#878,#917,#919,.T.);
#917 = VERTEX_POINT('',#918);
#918 = CARTESIAN_POINT('',(130.75,-53.,13.39));
#919 = LINE('',#920,#921);
#920 = CARTESIAN_POINT('',(130.75,-53.,11.7));
#921 = VECTOR('',#922,1.);
#922 = DIRECTION('',(0.,0.,1.));
#923 = ORIENTED_EDGE('',*,*,#877,.T.);
#924 = ORIENTED_EDGE('',*,*,#863,.F.);
#925 = ORIENTED_EDGE('',*,*,#926,.F.);
#926 = EDGE_CURVE('',#917,#856,#927,.T.);
#927 = LINE('',#928,#929);
#928 = CARTESIAN_POINT('',(118.90334371508,-53.,13.39));
#929 = VECTOR('',#930,1.);
#930 = DIRECTION('',(-1.,0.,0.));
#931 = PLANE('',#932);
#932 = AXIS2_PLACEMENT_3D('',#933,#934,#935);
#933 = CARTESIAN_POINT('',(114.85,-53.,11.7));
#934 = DIRECTION('',(0.,1.,0.));
#935 = DIRECTION('',(0.,0.,1.));
#936 = ADVANCED_FACE('',(#937),#963,.T.);
#937 = FACE_BOUND('',#938,.T.);
#938 = EDGE_LOOP('',(#939,#940,#941,#949,#957));
#939 = ORIENTED_EDGE('',*,*,#926,.T.);
#940 = ORIENTED_EDGE('',*,*,#855,.F.);
#941 = ORIENTED_EDGE('',*,*,#942,.F.);
#942 = EDGE_CURVE('',#943,#848,#945,.T.);
#943 = VERTEX_POINT('',#944);
#944 = CARTESIAN_POINT('',(132.1,-56.9,13.39));
#945 = LINE('',#946,#947);
#946 = CARTESIAN_POINT('',(132.1,-56.9,13.39));
#947 = VECTOR('',#948,1.);
#948 = DIRECTION('',(-1.,0.,0.));
#949 = ORIENTED_EDGE('',*,*,#950,.F.);
#950 = EDGE_CURVE('',#951,#943,#953,.T.);
#951 = VERTEX_POINT('',#952);
#952 = CARTESIAN_POINT('',(130.75,-51.95,13.39));
#953 = LINE('',#954,#955);
#954 = CARTESIAN_POINT('',(130.6,-51.4,13.39));
#955 = VECTOR('',#956,1.);
#956 = DIRECTION('',(0.263117405792,-0.964763821238,0.));
#957 = ORIENTED_EDGE('',*,*,#958,.F.);
#958 = EDGE_CURVE('',#917,#951,#959,.T.);
#959 = LINE('',#960,#961);
#960 = CARTESIAN_POINT('',(130.75,-46.04893884022,13.39));
#961 = VECTOR('',#962,1.);
#962 = DIRECTION('',(0.,1.,0.));
#963 = PLANE('',#964);
#964 = AXIS2_PLACEMENT_3D('',#965,#966,#967);
#965 = CARTESIAN_POINT('',(130.75,-54.15,13.39));
#966 = DIRECTION('',(0.,0.,1.));
#967 = DIRECTION('',(1.,0.,0.));
#968 = ADVANCED_FACE('',(#969),#980,.T.);
#969 = FACE_BOUND('',#970,.T.);
#970 = EDGE_LOOP('',(#971,#977,#978,#979));
#971 = ORIENTED_EDGE('',*,*,#972,.T.);
#972 = EDGE_CURVE('',#887,#943,#973,.T.);
#973 = LINE('',#974,#975);
#974 = CARTESIAN_POINT('',(132.1,-56.9,12.99));
#975 = VECTOR('',#976,1.);
#976 = DIRECTION('',(0.,0.,1.));
#977 = ORIENTED_EDGE('',*,*,#942,.T.);
#978 = ORIENTED_EDGE('',*,*,#847,.F.);
#979 = ORIENTED_EDGE('',*,*,#886,.F.);
#980 = PLANE('',#981);
#981 = AXIS2_PLACEMENT_3D('',#982,#983,#984);
#982 = CARTESIAN_POINT('',(132.1,-56.9,12.99));
#983 = DIRECTION('',(0.,-1.,0.));
#984 = DIRECTION('',(-1.,0.,0.));
#985 = ADVANCED_FACE('',(#986),#997,.F.);
#986 = FACE_BOUND('',#987,.F.);
#987 = EDGE_LOOP('',(#988,#989,#990,#996));
#988 = ORIENTED_EDGE('',*,*,#916,.F.);
#989 = ORIENTED_EDGE('',*,*,#902,.T.);
#990 = ORIENTED_EDGE('',*,*,#991,.F.);
#991 = EDGE_CURVE('',#951,#895,#992,.T.);
#992 = LINE('',#993,#994);
#993 = CARTESIAN_POINT('',(130.75,-51.95,12.345));
#994 = VECTOR('',#995,1.);
#995 = DIRECTION('',(0.,0.,-1.));
#996 = ORIENTED_EDGE('',*,*,#958,.F.);
#997 = PLANE('',#998);
#998 = AXIS2_PLACEMENT_3D('',#999,#1000,#1001);
#999 = CARTESIAN_POINT('',(130.75,-53.,11.7));
#1000 = DIRECTION('',(1.,0.,0.));
#1001 = DIRECTION('',(0.,0.,1.));
#1002 = ADVANCED_FACE('',(#1003),#1009,.T.);
#1003 = FACE_BOUND('',#1004,.T.);
#1004 = EDGE_LOOP('',(#1005,#1006,#1007,#1008));
#1005 = ORIENTED_EDGE('',*,*,#894,.F.);
#1006 = ORIENTED_EDGE('',*,*,#991,.F.);
#1007 = ORIENTED_EDGE('',*,*,#950,.T.);
#1008 = ORIENTED_EDGE('',*,*,#972,.F.);
#1009 = PLANE('',#1010);
#1010 = AXIS2_PLACEMENT_3D('',#1011,#1012,#1013);
#1011 = CARTESIAN_POINT('',(130.6,-51.4,12.99));
#1012 = DIRECTION('',(0.964763821238,0.263117405792,0.));
#1013 = DIRECTION('',(0.263117405792,-0.964763821238,0.));
#1014 = ( GEOMETRIC_REPRESENTATION_CONTEXT(3) 
GLOBAL_UNCERTAINTY_ASSIGNED_CONTEXT((#1018)) 
GLOBAL_UNIT_ASSIGNED_CONTEXT((#1015,#1016,#1017)) REPRESENTATION_CONTEXT
('Context #1','3D Context with UNIT and UNCERTAINTY') );
#1015 = ( LENGTH_UNIT() NAMED_UNIT(*) SI_UNIT(.MILLI.,.METRE.) );
#1016 = ( NAMED_UNIT(*) PLANE_ANGLE_UNIT() SI_UNIT($,.RADIAN.) );
#1017 = ( NAMED_UNIT(*) SI_UNIT($,.STERADIAN.) SOLID_ANGLE_UNIT() );
#1018 = UNCERTAINTY_MEASURE_WITH_UNIT(LENGTH_MEASURE(1.E-05),#1015,
  'distance_accuracy_value','confusion accuracy');
#1019 = PRODUCT_RELATED_PRODUCT_CATEGORY('part',$,(#7));
ENDSEC;
END-ISO-10303-21;
