ISO-10303-21;
HEADER;
FILE_DESCRIPTION(('FreeCAD Model'),'2;1');
FILE_NAME('Open CASCADE Shape Model','2026-09-28T17:19:56',('FreeCAD'),(
    'FreeCAD'),'Open CASCADE STEP processor 7.8','FreeCAD','Unknown');
FILE_SCHEMA(('AUTOMOTIVE_DESIGN { 1 0 10303 214 1 1 1 1 }'));
ENDSEC;
DATA;
#1 = APPLICATION_PROTOCOL_DEFINITION('international standard',
  'automotive_design',2000,#2);
#2 = APPLICATION_CONTEXT(
  'core data for automotive mechanical design processes');
#3 = SHAPE_DEFINITION_REPRESENTATION(#4,#10);
#4 = PRODUCT_DEFINITION_SHAPE('','',#5);
#5 = PRODUCT_DEFINITION('design','',#6,#9);
#6 = PRODUCT_DEFINITION_FORMATION('','',#7);
#7 = PRODUCT('Open CASCADE STEP translator 7.8 34',
  'Open CASCADE STEP translator 7.8 34','',(#8));
#8 = PRODUCT_CONTEXT('',#2,'mechanical');
#9 = PRODUCT_DEFINITION_CONTEXT('part definition',#2,'design');
#10 = ADVANCED_BREP_SHAPE_REPRESENTATION('',(#11,#15),#185);
#11 = AXIS2_PLACEMENT_3D('',#12,#13,#14);
#12 = CARTESIAN_POINT('',(0.,0.,0.));
#13 = DIRECTION('',(0.,0.,1.));
#14 = DIRECTION('',(1.,0.,-0.));
#15 = MANIFOLD_SOLID_BREP('',#16);
#16 = CLOSED_SHELL('',(#17,#62,#98,#134,#161,#173));
#17 = ADVANCED_FACE('',(#18),#54,.T.);
#18 = FACE_BOUND('',#19,.T.);
#19 = EDGE_LOOP('',(#20,#30,#39,#47));
#20 = ORIENTED_EDGE('',*,*,#21,.T.);
#21 = EDGE_CURVE('',#22,#24,#26,.T.);
#22 = VERTEX_POINT('',#23);
#23 = CARTESIAN_POINT('',(123.,-58.7,12.99));
#24 = VERTEX_POINT('',#25);
#25 = CARTESIAN_POINT('',(123.,-58.7,13.39));
#26 = LINE('',#27,#28);
#27 = CARTESIAN_POINT('',(123.,-58.7,12.99));
#28 = VECTOR('',#29,1.);
#29 = DIRECTION('',(0.,0.,1.));
#30 = ORIENTED_EDGE('',*,*,#31,.T.);
#31 = EDGE_CURVE('',#24,#32,#34,.T.);
#32 = VERTEX_POINT('',#33);
#33 = CARTESIAN_POINT('',(124.75,-60.4,13.39));
#34 = B_SPLINE_CURVE_WITH_KNOTS('',3,(#35,#36,#37,#38),.UNSPECIFIED.,.F.
  ,.F.,(4,4),(0.,1.),.PIECEWISE_BEZIER_KNOTS.);
#35 = CARTESIAN_POINT('',(123.,-58.7,13.39));
#36 = CARTESIAN_POINT('',(123.45,-59.6,13.39));
#37 = CARTESIAN_POINT('',(123.8,-59.95,13.39));
#38 = CARTESIAN_POINT('',(124.75,-60.4,13.39));
#39 = ORIENTED_EDGE('',*,*,#40,.F.);
#40 = EDGE_CURVE('',#41,#32,#43,.T.);
#41 = VERTEX_POINT('',#42);
#42 = CARTESIAN_POINT('',(124.75,-60.4,12.99));
#43 = LINE('',#44,#45);
#44 = CARTESIAN_POINT('',(124.75,-60.4,12.99));
#45 = VECTOR('',#46,1.);
#46 = DIRECTION('',(0.,0.,1.));
#47 = ORIENTED_EDGE('',*,*,#48,.F.);
#48 = EDGE_CURVE('',#22,#41,#49,.T.);
#49 = B_SPLINE_CURVE_WITH_KNOTS('',3,(#50,#51,#52,#53),.UNSPECIFIED.,.F.
  ,.F.,(4,4),(0.,1.),.PIECEWISE_BEZIER_KNOTS.);
#50 = CARTESIAN_POINT('',(123.,-58.7,12.99));
#51 = CARTESIAN_POINT('',(123.45,-59.6,12.99));
#52 = CARTESIAN_POINT('',(123.8,-59.95,12.99));
#53 = CARTESIAN_POINT('',(124.75,-60.4,12.99));
#54 = SURFACE_OF_LINEAR_EXTRUSION('',#55,#60);
#55 = B_SPLINE_CURVE_WITH_KNOTS('',3,(#56,#57,#58,#59),.UNSPECIFIED.,.F.
  ,.F.,(4,4),(0.,1.),.PIECEWISE_BEZIER_KNOTS.);
#56 = CARTESIAN_POINT('',(123.,-58.7,12.99));
#57 = CARTESIAN_POINT('',(123.45,-59.6,12.99));
#58 = CARTESIAN_POINT('',(123.8,-59.95,12.99));
#59 = CARTESIAN_POINT('',(124.75,-60.4,12.99));
#60 = VECTOR('',#61,1.);
#61 = DIRECTION('',(-0.,-0.,-1.));
#62 = ADVANCED_FACE('',(#63),#90,.T.);
#63 = FACE_BOUND('',#64,.T.);
#64 = EDGE_LOOP('',(#65,#66,#75,#83));
#65 = ORIENTED_EDGE('',*,*,#40,.T.);
#66 = ORIENTED_EDGE('',*,*,#67,.T.);
#67 = EDGE_CURVE('',#32,#68,#70,.T.);
#68 = VERTEX_POINT('',#69);
#69 = CARTESIAN_POINT('',(123.,-62.1,13.39));
#70 = B_SPLINE_CURVE_WITH_KNOTS('',3,(#71,#72,#73,#74),.UNSPECIFIED.,.F.
  ,.F.,(4,4),(0.,1.),.PIECEWISE_BEZIER_KNOTS.);
#71 = CARTESIAN_POINT('',(124.75,-60.4,13.39));
#72 = CARTESIAN_POINT('',(123.8,-60.85,13.39));
#73 = CARTESIAN_POINT('',(123.45,-61.2,13.39));
#74 = CARTESIAN_POINT('',(123.,-62.1,13.39));
#75 = ORIENTED_EDGE('',*,*,#76,.F.);
#76 = EDGE_CURVE('',#77,#68,#79,.T.);
#77 = VERTEX_POINT('',#78);
#78 = CARTESIAN_POINT('',(123.,-62.1,12.99));
#79 = LINE('',#80,#81);
#80 = CARTESIAN_POINT('',(123.,-62.1,12.99));
#81 = VECTOR('',#82,1.);
#82 = DIRECTION('',(0.,0.,1.));
#83 = ORIENTED_EDGE('',*,*,#84,.F.);
#84 = EDGE_CURVE('',#41,#77,#85,.T.);
#85 = B_SPLINE_CURVE_WITH_KNOTS('',3,(#86,#87,#88,#89),.UNSPECIFIED.,.F.
  ,.F.,(4,4),(0.,1.),.PIECEWISE_BEZIER_KNOTS.);
#86 = CARTESIAN_POINT('',(124.75,-60.4,12.99));
#87 = CARTESIAN_POINT('',(123.8,-60.85,12.99));
#88 = CARTESIAN_POINT('',(123.45,-61.2,12.99));
#89 = CARTESIAN_POINT('',(123.,-62.1,12.99));
#90 = SURFACE_OF_LINEAR_EXTRUSION('',#91,#96);
#91 = B_SPLINE_CURVE_WITH_KNOTS('',3,(#92,#93,#94,#95),.UNSPECIFIED.,.F.
  ,.F.,(4,4),(0.,1.),.PIECEWISE_BEZIER_KNOTS.);
#92 = CARTESIAN_POINT('',(124.75,-60.4,12.99));
#93 = CARTESIAN_POINT('',(123.8,-60.85,12.99));
#94 = CARTESIAN_POINT('',(123.45,-61.2,12.99));
#95 = CARTESIAN_POINT('',(123.,-62.1,12.99));
#96 = VECTOR('',#97,1.);
#97 = DIRECTION('',(-0.,-0.,-1.));
#98 = ADVANCED_FACE('',(#99),#126,.T.);
#99 = FACE_BOUND('',#100,.T.);
#100 = EDGE_LOOP('',(#101,#102,#111,#119));
#101 = ORIENTED_EDGE('',*,*,#76,.T.);
#102 = ORIENTED_EDGE('',*,*,#103,.T.);
#103 = EDGE_CURVE('',#68,#104,#106,.T.);
#104 = VERTEX_POINT('',#105);
#105 = CARTESIAN_POINT('',(121.25,-60.4,13.39));
#106 = B_SPLINE_CURVE_WITH_KNOTS('',3,(#107,#108,#109,#110),
  .UNSPECIFIED.,.F.,.F.,(4,4),(0.,1.),.PIECEWISE_BEZIER_KNOTS.);
#107 = CARTESIAN_POINT('',(123.,-62.1,13.39));
#108 = CARTESIAN_POINT('',(122.55,-61.2,13.39));
#109 = CARTESIAN_POINT('',(122.2,-60.85,13.39));
#110 = CARTESIAN_POINT('',(121.25,-60.4,13.39));
#111 = ORIENTED_EDGE('',*,*,#112,.F.);
#112 = EDGE_CURVE('',#113,#104,#115,.T.);
#113 = VERTEX_POINT('',#114);
#114 = CARTESIAN_POINT('',(121.25,-60.4,12.99));
#115 = LINE('',#116,#117);
#116 = CARTESIAN_POINT('',(121.25,-60.4,12.99));
#117 = VECTOR('',#118,1.);
#118 = DIRECTION('',(0.,0.,1.));
#119 = ORIENTED_EDGE('',*,*,#120,.F.);
#120 = EDGE_CURVE('',#77,#113,#121,.T.);
#121 = B_SPLINE_CURVE_WITH_KNOTS('',3,(#122,#123,#124,#125),
  .UNSPECIFIED.,.F.,.F.,(4,4),(0.,1.),.PIECEWISE_BEZIER_KNOTS.);
#122 = CARTESIAN_POINT('',(123.,-62.1,12.99));
#123 = CARTESIAN_POINT('',(122.55,-61.2,12.99));
#124 = CARTESIAN_POINT('',(122.2,-60.85,12.99));
#125 = CARTESIAN_POINT('',(121.25,-60.4,12.99));
#126 = SURFACE_OF_LINEAR_EXTRUSION('',#127,#132);
#127 = B_SPLINE_CURVE_WITH_KNOTS('',3,(#128,#129,#130,#131),
  .UNSPECIFIED.,.F.,.F.,(4,4),(0.,1.),.PIECEWISE_BEZIER_KNOTS.);
#128 = CARTESIAN_POINT('',(123.,-62.1,12.99));
#129 = CARTESIAN_POINT('',(122.55,-61.2,12.99));
#130 = CARTESIAN_POINT('',(122.2,-60.85,12.99));
#131 = CARTESIAN_POINT('',(121.25,-60.4,12.99));
#132 = VECTOR('',#133,1.);
#133 = DIRECTION('',(-0.,-0.,-1.));
#134 = ADVANCED_FACE('',(#135),#153,.T.);
#135 = FACE_BOUND('',#136,.T.);
#136 = EDGE_LOOP('',(#137,#138,#145,#146));
#137 = ORIENTED_EDGE('',*,*,#112,.T.);
#138 = ORIENTED_EDGE('',*,*,#139,.T.);
#139 = EDGE_CURVE('',#104,#24,#140,.T.);
#140 = B_SPLINE_CURVE_WITH_KNOTS('',3,(#141,#142,#143,#144),
  .UNSPECIFIED.,.F.,.F.,(4,4),(0.,1.),.PIECEWISE_BEZIER_KNOTS.);
#141 = CARTESIAN_POINT('',(121.25,-60.4,13.39));
#142 = CARTESIAN_POINT('',(122.2,-59.95,13.39));
#143 = CARTESIAN_POINT('',(122.55,-59.6,13.39));
#144 = CARTESIAN_POINT('',(123.,-58.7,13.39));
#145 = ORIENTED_EDGE('',*,*,#21,.F.);
#146 = ORIENTED_EDGE('',*,*,#147,.F.);
#147 = EDGE_CURVE('',#113,#22,#148,.T.);
#148 = B_SPLINE_CURVE_WITH_KNOTS('',3,(#149,#150,#151,#152),
  .UNSPECIFIED.,.F.,.F.,(4,4),(0.,1.),.PIECEWISE_BEZIER_KNOTS.);
#149 = CARTESIAN_POINT('',(121.25,-60.4,12.99));
#150 = CARTESIAN_POINT('',(122.2,-59.95,12.99));
#151 = CARTESIAN_POINT('',(122.55,-59.6,12.99));
#152 = CARTESIAN_POINT('',(123.,-58.7,12.99));
#153 = SURFACE_OF_LINEAR_EXTRUSION('',#154,#159);
#154 = B_SPLINE_CURVE_WITH_KNOTS('',3,(#155,#156,#157,#158),
  .UNSPECIFIED.,.F.,.F.,(4,4),(0.,1.),.PIECEWISE_BEZIER_KNOTS.);
#155 = CARTESIAN_POINT('',(121.25,-60.4,12.99));
#156 = CARTESIAN_POINT('',(122.2,-59.95,12.99));
#157 = CARTESIAN_POINT('',(122.55,-59.6,12.99));
#158 = CARTESIAN_POINT('',(123.,-58.7,12.99));
#159 = VECTOR('',#160,1.);
#160 = DIRECTION('',(-0.,-0.,-1.));
#161 = ADVANCED_FACE('',(#162),#168,.F.);
#162 = FACE_BOUND('',#163,.T.);
#163 = EDGE_LOOP('',(#164,#165,#166,#167));
#164 = ORIENTED_EDGE('',*,*,#48,.T.);
#165 = ORIENTED_EDGE('',*,*,#84,.T.);
#166 = ORIENTED_EDGE('',*,*,#120,.T.);
#167 = ORIENTED_EDGE('',*,*,#147,.T.);
#168 = PLANE('',#169);
#169 = AXIS2_PLACEMENT_3D('',#170,#171,#172);
#170 = CARTESIAN_POINT('',(123.,-60.4,12.99));
#171 = DIRECTION('',(0.,0.,1.));
#172 = DIRECTION('',(1.,0.,0.));
#173 = ADVANCED_FACE('',(#174),#180,.T.);
#174 = FACE_BOUND('',#175,.F.);
#175 = EDGE_LOOP('',(#176,#177,#178,#179));
#176 = ORIENTED_EDGE('',*,*,#31,.T.);
#177 = ORIENTED_EDGE('',*,*,#67,.T.);
#178 = ORIENTED_EDGE('',*,*,#103,.T.);
#179 = ORIENTED_EDGE('',*,*,#139,.T.);
#180 = PLANE('',#181);
#181 = AXIS2_PLACEMENT_3D('',#182,#183,#184);
#182 = CARTESIAN_POINT('',(123.,-60.4,13.39));
#183 = DIRECTION('',(0.,0.,1.));
#184 = DIRECTION('',(1.,0.,0.));
#185 = ( GEOMETRIC_REPRESENTATION_CONTEXT(3) 
GLOBAL_UNCERTAINTY_ASSIGNED_CONTEXT((#189)) GLOBAL_UNIT_ASSIGNED_CONTEXT
((#186,#187,#188)) REPRESENTATION_CONTEXT('Context #1',
  '3D Context with UNIT and UNCERTAINTY') );
#186 = ( LENGTH_UNIT() NAMED_UNIT(*) SI_UNIT(.MILLI.,.METRE.) );
#187 = ( NAMED_UNIT(*) PLANE_ANGLE_UNIT() SI_UNIT($,.RADIAN.) );
#188 = ( NAMED_UNIT(*) SI_UNIT($,.STERADIAN.) SOLID_ANGLE_UNIT() );
#189 = UNCERTAINTY_MEASURE_WITH_UNIT(LENGTH_MEASURE(1.E-07),#186,
  'distance_accuracy_value','confusion accuracy');
#190 = PRODUCT_RELATED_PRODUCT_CATEGORY('part',$,(#7));
ENDSEC;
END-ISO-10303-21;
