ISO-10303-21;
HEADER;
FILE_DESCRIPTION(('FreeCAD Model'),'2;1');
FILE_NAME('Open CASCADE Shape Model','2026-09-28T15:54:07',('FreeCAD'),(
    'FreeCAD'),'Open CASCADE STEP processor 7.8','FreeCAD','Unknown');
FILE_SCHEMA(('AUTOMOTIVE_DESIGN { 1 0 10303 214 1 1 1 1 }'));
ENDSEC;
DATA;
#1 = APPLICATION_PROTOCOL_DEFINITION('international standard',
  'automotive_design',2000,#2);
#2 = APPLICATION_CONTEXT(
  'core data for automotive mechanical design processes');
#3 = SHAPE_DEFINITION_REPRESENTATION(#4,#10);
#4 = PRODUCT_DEFINITION_SHAPE('','',#5);
#5 = PRODUCT_DEFINITION('design','',#6,#9);
#6 = PRODUCT_DEFINITION_FORMATION('','',#7);
#7 = PRODUCT('Open CASCADE STEP translator 7.8 28',
  'Open CASCADE STEP translator 7.8 28','',(#8));
#8 = PRODUCT_CONTEXT('',#2,'mechanical');
#9 = PRODUCT_DEFINITION_CONTEXT('part definition',#2,'design');
#10 = SHAPE_REPRESENTATION('',(#11,#15,#470,#690,#943,#1093),#1243);
#11 = AXIS2_PLACEMENT_3D('',#12,#13,#14);
#12 = CARTESIAN_POINT('',(0.,0.,0.));
#13 = DIRECTION('',(0.,0.,1.));
#14 = DIRECTION('',(1.,0.,-0.));
#15 = MANIFOLD_SOLID_BREP('',#16);
#16 = CLOSED_SHELL('',(#17,#57,#164,#188,#288,#305,#327,#344,#361,#373,
    #390,#407,#424,#441,#458));
#17 = ADVANCED_FACE('',(#18),#52,.F.);
#18 = FACE_BOUND('',#19,.F.);
#19 = EDGE_LOOP('',(#20,#30,#38,#46));
#20 = ORIENTED_EDGE('',*,*,#21,.F.);
#21 = EDGE_CURVE('',#22,#24,#26,.T.);
#22 = VERTEX_POINT('',#23);
#23 = CARTESIAN_POINT('',(112.84235184372,-53.63059262509,12.99));
#24 = VERTEX_POINT('',#25);
#25 = CARTESIAN_POINT('',(120.35,-55.50750466416,12.99));
#26 = LINE('',#27,#28);
#27 = CARTESIAN_POINT('',(112.84235184372,-53.63059262509,12.99));
#28 = VECTOR('',#29,1.);
#29 = DIRECTION('',(0.970142500145,-0.242535625036,0.));
#30 = ORIENTED_EDGE('',*,*,#31,.T.);
#31 = EDGE_CURVE('',#22,#32,#34,.T.);
#32 = VERTEX_POINT('',#33);
#33 = CARTESIAN_POINT('',(112.84235184372,-53.63059262509,13.39));
#34 = LINE('',#35,#36);
#35 = CARTESIAN_POINT('',(112.84235184372,-53.63059262509,12.99));
#36 = VECTOR('',#37,1.);
#37 = DIRECTION('',(0.,0.,1.));
#38 = ORIENTED_EDGE('',*,*,#39,.T.);
#39 = EDGE_CURVE('',#32,#40,#42,.T.);
#40 = VERTEX_POINT('',#41);
#41 = CARTESIAN_POINT('',(120.35,-55.50750466416,13.39));
#42 = LINE('',#43,#44);
#43 = CARTESIAN_POINT('',(112.84235184372,-53.63059262509,13.39));
#44 = VECTOR('',#45,1.);
#45 = DIRECTION('',(0.970142500145,-0.242535625036,0.));
#46 = ORIENTED_EDGE('',*,*,#47,.T.);
#47 = EDGE_CURVE('',#40,#24,#48,.T.);
#48 = LINE('',#49,#50);
#49 = CARTESIAN_POINT('',(120.35,-55.50750466416,12.99));
#50 = VECTOR('',#51,1.);
#51 = DIRECTION('',(0.,0.,-1.));
#52 = PLANE('',#53);
#53 = AXIS2_PLACEMENT_3D('',#54,#55,#56);
#54 = CARTESIAN_POINT('',(112.84235184372,-53.63059262509,12.99));
#55 = DIRECTION('',(0.242535625036,0.970142500145,0.));
#56 = DIRECTION('',(0.970142500145,-0.242535625036,0.));
#57 = ADVANCED_FACE('',(#58),#159,.T.);
#58 = FACE_BOUND('',#59,.T.);
#59 = EDGE_LOOP('',(#60,#70,#79,#87,#96,#104,#113,#121,#127,#128,#137,
    #145,#153));
#60 = ORIENTED_EDGE('',*,*,#61,.F.);
#61 = EDGE_CURVE('',#62,#64,#66,.T.);
#62 = VERTEX_POINT('',#63);
#63 = CARTESIAN_POINT('',(121.15764815627,-54.3694073749,12.99));
#64 = VERTEX_POINT('',#65);
#65 = CARTESIAN_POINT('',(115.68001865665,-53.,12.99));
#66 = LINE('',#67,#68);
#67 = CARTESIAN_POINT('',(121.15764815627,-54.3694073749,12.99));
#68 = VECTOR('',#69,1.);
#69 = DIRECTION('',(-0.970142500145,0.242535625036,0.));
#70 = ORIENTED_EDGE('',*,*,#71,.F.);
#71 = EDGE_CURVE('',#72,#62,#74,.T.);
#72 = VERTEX_POINT('',#73);
#73 = CARTESIAN_POINT('',(121.65,-55.,12.99));
#74 = CIRCLE('',#75,0.65);
#75 = AXIS2_PLACEMENT_3D('',#76,#77,#78);
#76 = CARTESIAN_POINT('',(121.,-55.,12.99));
#77 = DIRECTION('',(0.,0.,1.));
#78 = DIRECTION('',(1.,0.,0.));
#79 = ORIENTED_EDGE('',*,*,#80,.F.);
#80 = EDGE_CURVE('',#81,#72,#83,.T.);
#81 = VERTEX_POINT('',#82);
#82 = CARTESIAN_POINT('',(121.65,-64.8,12.99));
#83 = LINE('',#84,#85);
#84 = CARTESIAN_POINT('',(121.65,-64.8,12.99));
#85 = VECTOR('',#86,1.);
#86 = DIRECTION('',(0.,1.,0.));
#87 = ORIENTED_EDGE('',*,*,#88,.F.);
#88 = EDGE_CURVE('',#89,#81,#91,.T.);
#89 = VERTEX_POINT('',#90);
#90 = CARTESIAN_POINT('',(120.85731707317,-65.43414634146,12.99));
#91 = CIRCLE('',#92,0.65);
#92 = AXIS2_PLACEMENT_3D('',#93,#94,#95);
#93 = CARTESIAN_POINT('',(121.,-64.8,12.99));
#94 = DIRECTION('',(0.,0.,1.));
#95 = DIRECTION('',(1.,0.,0.));
#96 = ORIENTED_EDGE('',*,*,#97,.F.);
#97 = EDGE_CURVE('',#98,#89,#100,.T.);
#98 = VERTEX_POINT('',#99);
#99 = CARTESIAN_POINT('',(112.85731707317,-63.63414634146,12.99));
#100 = LINE('',#101,#102);
#101 = CARTESIAN_POINT('',(112.85731707317,-63.63414634146,12.99));
#102 = VECTOR('',#103,1.);
#103 = DIRECTION('',(0.975609756098,-0.219512195122,0.));
#104 = ORIENTED_EDGE('',*,*,#105,.F.);
#105 = EDGE_CURVE('',#106,#98,#108,.T.);
#106 = VERTEX_POINT('',#107);
#107 = CARTESIAN_POINT('',(113.14268292682,-62.36585365853,12.99));
#108 = CIRCLE('',#109,0.65);
#109 = AXIS2_PLACEMENT_3D('',#110,#111,#112);
#110 = CARTESIAN_POINT('',(113.,-63.,12.99));
#111 = DIRECTION('',(0.,0.,1.));
#112 = DIRECTION('',(1.,0.,0.));
#113 = ORIENTED_EDGE('',*,*,#114,.F.);
#114 = EDGE_CURVE('',#115,#106,#117,.T.);
#115 = VERTEX_POINT('',#116);
#116 = CARTESIAN_POINT('',(120.35,-63.9875,12.99));
#117 = LINE('',#118,#119);
#118 = CARTESIAN_POINT('',(121.14268292682,-64.16585365853,12.99));
#119 = VECTOR('',#120,1.);
#120 = DIRECTION('',(-0.975609756098,0.219512195122,0.));
#121 = ORIENTED_EDGE('',*,*,#122,.F.);
#122 = EDGE_CURVE('',#24,#115,#123,.T.);
#123 = LINE('',#124,#125);
#124 = CARTESIAN_POINT('',(120.35,-55.,12.99));
#125 = VECTOR('',#126,1.);
#126 = DIRECTION('',(0.,-1.,0.));
#127 = ORIENTED_EDGE('',*,*,#21,.F.);
#128 = ORIENTED_EDGE('',*,*,#129,.F.);
#129 = EDGE_CURVE('',#130,#22,#132,.T.);
#130 = VERTEX_POINT('',#131);
#131 = CARTESIAN_POINT('',(113.15764815627,-52.3694073749,12.99));
#132 = CIRCLE('',#133,0.65);
#133 = AXIS2_PLACEMENT_3D('',#134,#135,#136);
#134 = CARTESIAN_POINT('',(113.,-53.,12.99));
#135 = DIRECTION('',(0.,0.,1.));
#136 = DIRECTION('',(1.,0.,0.));
#137 = ORIENTED_EDGE('',*,*,#138,.F.);
#138 = EDGE_CURVE('',#139,#130,#141,.T.);
#139 = VERTEX_POINT('',#140);
#140 = CARTESIAN_POINT('',(114.85,-52.79249533583,12.99));
#141 = LINE('',#142,#143);
#142 = CARTESIAN_POINT('',(121.15764815627,-54.3694073749,12.99));
#143 = VECTOR('',#144,1.);
#144 = DIRECTION('',(-0.970142500145,0.242535625036,0.));
#145 = ORIENTED_EDGE('',*,*,#146,.F.);
#146 = EDGE_CURVE('',#147,#139,#149,.T.);
#147 = VERTEX_POINT('',#148);
#148 = CARTESIAN_POINT('',(114.85,-53.,12.99));
#149 = LINE('',#150,#151);
#150 = CARTESIAN_POINT('',(114.85,-46.04641870115,12.99));
#151 = VECTOR('',#152,1.);
#152 = DIRECTION('',(0.,1.,0.));
#153 = ORIENTED_EDGE('',*,*,#154,.F.);
#154 = EDGE_CURVE('',#64,#147,#155,.T.);
#155 = LINE('',#156,#157);
#156 = CARTESIAN_POINT('',(118.90608769591,-53.,12.99));
#157 = VECTOR('',#158,1.);
#158 = DIRECTION('',(-1.,0.,0.));
#159 = PLANE('',#160);
#160 = AXIS2_PLACEMENT_3D('',#161,#162,#163);
#161 = CARTESIAN_POINT('',(118.09207838779,-59.17670746468,12.99));
#162 = DIRECTION('',(-0.,-0.,-1.));
#163 = DIRECTION('',(-1.,0.,0.));
#164 = ADVANCED_FACE('',(#165),#183,.F.);
#165 = FACE_BOUND('',#166,.F.);
#166 = EDGE_LOOP('',(#167,#168,#169,#177));
#167 = ORIENTED_EDGE('',*,*,#122,.F.);
#168 = ORIENTED_EDGE('',*,*,#47,.F.);
#169 = ORIENTED_EDGE('',*,*,#170,.T.);
#170 = EDGE_CURVE('',#40,#171,#173,.T.);
#171 = VERTEX_POINT('',#172);
#172 = CARTESIAN_POINT('',(120.35,-63.9875,13.39));
#173 = LINE('',#174,#175);
#174 = CARTESIAN_POINT('',(120.35,-55.,13.39));
#175 = VECTOR('',#176,1.);
#176 = DIRECTION('',(0.,-1.,0.));
#177 = ORIENTED_EDGE('',*,*,#178,.T.);
#178 = EDGE_CURVE('',#171,#115,#179,.T.);
#179 = LINE('',#180,#181);
#180 = CARTESIAN_POINT('',(120.35,-63.9875,12.99));
#181 = VECTOR('',#182,1.);
#182 = DIRECTION('',(0.,0.,-1.));
#183 = PLANE('',#184);
#184 = AXIS2_PLACEMENT_3D('',#185,#186,#187);
#185 = CARTESIAN_POINT('',(120.35,-55.,12.99));
#186 = DIRECTION('',(1.,0.,0.));
#187 = DIRECTION('',(0.,-1.,0.));
#188 = ADVANCED_FACE('',(#189),#283,.T.);
#189 = FACE_BOUND('',#190,.T.);
#190 = EDGE_LOOP('',(#191,#202,#210,#218,#226,#234,#241,#242,#243,#251,
    #260,#268,#277));
#191 = ORIENTED_EDGE('',*,*,#192,.T.);
#192 = EDGE_CURVE('',#193,#195,#197,.T.);
#193 = VERTEX_POINT('',#194);
#194 = CARTESIAN_POINT('',(121.65,-55.,13.39));
#195 = VERTEX_POINT('',#196);
#196 = CARTESIAN_POINT('',(121.15764815627,-54.3694073749,13.39));
#197 = CIRCLE('',#198,0.65);
#198 = AXIS2_PLACEMENT_3D('',#199,#200,#201);
#199 = CARTESIAN_POINT('',(121.,-55.,13.39));
#200 = DIRECTION('',(0.,0.,1.));
#201 = DIRECTION('',(1.,0.,0.));
#202 = ORIENTED_EDGE('',*,*,#203,.T.);
#203 = EDGE_CURVE('',#195,#204,#206,.T.);
#204 = VERTEX_POINT('',#205);
#205 = CARTESIAN_POINT('',(115.68001865665,-53.,13.39));
#206 = LINE('',#207,#208);
#207 = CARTESIAN_POINT('',(121.15764815627,-54.3694073749,13.39));
#208 = VECTOR('',#209,1.);
#209 = DIRECTION('',(-0.970142500145,0.242535625036,0.));
#210 = ORIENTED_EDGE('',*,*,#211,.T.);
#211 = EDGE_CURVE('',#204,#212,#214,.T.);
#212 = VERTEX_POINT('',#213);
#213 = CARTESIAN_POINT('',(114.85,-53.,13.39));
#214 = LINE('',#215,#216);
#215 = CARTESIAN_POINT('',(118.90334371508,-53.,13.39));
#216 = VECTOR('',#217,1.);
#217 = DIRECTION('',(-1.,0.,0.));
#218 = ORIENTED_EDGE('',*,*,#219,.T.);
#219 = EDGE_CURVE('',#212,#220,#222,.T.);
#220 = VERTEX_POINT('',#221);
#221 = CARTESIAN_POINT('',(114.85,-52.79249533583,13.39));
#222 = LINE('',#223,#224);
#223 = CARTESIAN_POINT('',(114.85,-46.04893884022,13.39));
#224 = VECTOR('',#225,1.);
#225 = DIRECTION('',(0.,1.,0.));
#226 = ORIENTED_EDGE('',*,*,#227,.T.);
#227 = EDGE_CURVE('',#220,#228,#230,.T.);
#228 = VERTEX_POINT('',#229);
#229 = CARTESIAN_POINT('',(113.15764815627,-52.3694073749,13.39));
#230 = LINE('',#231,#232);
#231 = CARTESIAN_POINT('',(121.15764815627,-54.3694073749,13.39));
#232 = VECTOR('',#233,1.);
#233 = DIRECTION('',(-0.970142500145,0.242535625036,0.));
#234 = ORIENTED_EDGE('',*,*,#235,.T.);
#235 = EDGE_CURVE('',#228,#32,#236,.T.);
#236 = CIRCLE('',#237,0.65);
#237 = AXIS2_PLACEMENT_3D('',#238,#239,#240);
#238 = CARTESIAN_POINT('',(113.,-53.,13.39));
#239 = DIRECTION('',(0.,0.,1.));
#240 = DIRECTION('',(1.,0.,0.));
#241 = ORIENTED_EDGE('',*,*,#39,.T.);
#242 = ORIENTED_EDGE('',*,*,#170,.T.);
#243 = ORIENTED_EDGE('',*,*,#244,.T.);
#244 = EDGE_CURVE('',#171,#245,#247,.T.);
#245 = VERTEX_POINT('',#246);
#246 = CARTESIAN_POINT('',(113.14268292682,-62.36585365853,13.39));
#247 = LINE('',#248,#249);
#248 = CARTESIAN_POINT('',(121.14268292682,-64.16585365853,13.39));
#249 = VECTOR('',#250,1.);
#250 = DIRECTION('',(-0.975609756098,0.219512195122,0.));
#251 = ORIENTED_EDGE('',*,*,#252,.T.);
#252 = EDGE_CURVE('',#245,#253,#255,.T.);
#253 = VERTEX_POINT('',#254);
#254 = CARTESIAN_POINT('',(112.85731707317,-63.63414634146,13.39));
#255 = CIRCLE('',#256,0.65);
#256 = AXIS2_PLACEMENT_3D('',#257,#258,#259);
#257 = CARTESIAN_POINT('',(113.,-63.,13.39));
#258 = DIRECTION('',(0.,0.,1.));
#259 = DIRECTION('',(1.,0.,0.));
#260 = ORIENTED_EDGE('',*,*,#261,.T.);
#261 = EDGE_CURVE('',#253,#262,#264,.T.);
#262 = VERTEX_POINT('',#263);
#263 = CARTESIAN_POINT('',(120.85731707317,-65.43414634146,13.39));
#264 = LINE('',#265,#266);
#265 = CARTESIAN_POINT('',(112.85731707317,-63.63414634146,13.39));
#266 = VECTOR('',#267,1.);
#267 = DIRECTION('',(0.975609756098,-0.219512195122,0.));
#268 = ORIENTED_EDGE('',*,*,#269,.T.);
#269 = EDGE_CURVE('',#262,#270,#272,.T.);
#270 = VERTEX_POINT('',#271);
#271 = CARTESIAN_POINT('',(121.65,-64.8,13.39));
#272 = CIRCLE('',#273,0.65);
#273 = AXIS2_PLACEMENT_3D('',#274,#275,#276);
#274 = CARTESIAN_POINT('',(121.,-64.8,13.39));
#275 = DIRECTION('',(0.,0.,1.));
#276 = DIRECTION('',(1.,0.,0.));
#277 = ORIENTED_EDGE('',*,*,#278,.T.);
#278 = EDGE_CURVE('',#270,#193,#279,.T.);
#279 = LINE('',#280,#281);
#280 = CARTESIAN_POINT('',(121.65,-64.8,13.39));
#281 = VECTOR('',#282,1.);
#282 = DIRECTION('',(0.,1.,0.));
#283 = PLANE('',#284);
#284 = AXIS2_PLACEMENT_3D('',#285,#286,#287);
#285 = CARTESIAN_POINT('',(118.09207838779,-59.17670746468,13.39));
#286 = DIRECTION('',(0.,0.,1.));
#287 = DIRECTION('',(1.,0.,0.));
#288 = ADVANCED_FACE('',(#289),#300,.T.);
#289 = FACE_BOUND('',#290,.F.);
#290 = EDGE_LOOP('',(#291,#292,#298,#299));
#291 = ORIENTED_EDGE('',*,*,#129,.F.);
#292 = ORIENTED_EDGE('',*,*,#293,.T.);
#293 = EDGE_CURVE('',#130,#228,#294,.T.);
#294 = LINE('',#295,#296);
#295 = CARTESIAN_POINT('',(113.15764815627,-52.3694073749,12.99));
#296 = VECTOR('',#297,1.);
#297 = DIRECTION('',(0.,0.,1.));
#298 = ORIENTED_EDGE('',*,*,#235,.T.);
#299 = ORIENTED_EDGE('',*,*,#31,.F.);
#300 = CYLINDRICAL_SURFACE('',#301,0.65);
#301 = AXIS2_PLACEMENT_3D('',#302,#303,#304);
#302 = CARTESIAN_POINT('',(113.,-53.,12.99));
#303 = DIRECTION('',(-0.,-0.,-1.));
#304 = DIRECTION('',(1.,0.,0.));
#305 = ADVANCED_FACE('',(#306),#322,.F.);
#306 = FACE_BOUND('',#307,.F.);
#307 = EDGE_LOOP('',(#308,#309,#315,#316));
#308 = ORIENTED_EDGE('',*,*,#61,.F.);
#309 = ORIENTED_EDGE('',*,*,#310,.T.);
#310 = EDGE_CURVE('',#62,#195,#311,.T.);
#311 = LINE('',#312,#313);
#312 = CARTESIAN_POINT('',(121.15764815627,-54.3694073749,12.99));
#313 = VECTOR('',#314,1.);
#314 = DIRECTION('',(0.,0.,1.));
#315 = ORIENTED_EDGE('',*,*,#203,.T.);
#316 = ORIENTED_EDGE('',*,*,#317,.T.);
#317 = EDGE_CURVE('',#204,#64,#318,.T.);
#318 = LINE('',#319,#320);
#319 = CARTESIAN_POINT('',(115.68001865665,-53.,12.345));
#320 = VECTOR('',#321,1.);
#321 = DIRECTION('',(0.,0.,-1.));
#322 = PLANE('',#323);
#323 = AXIS2_PLACEMENT_3D('',#324,#325,#326);
#324 = CARTESIAN_POINT('',(121.15764815627,-54.3694073749,12.99));
#325 = DIRECTION('',(-0.242535625036,-0.970142500145,0.));
#326 = DIRECTION('',(-0.970142500145,0.242535625036,0.));
#327 = ADVANCED_FACE('',(#328),#339,.T.);
#328 = FACE_BOUND('',#329,.T.);
#329 = EDGE_LOOP('',(#330,#331,#332,#338));
#330 = ORIENTED_EDGE('',*,*,#317,.T.);
#331 = ORIENTED_EDGE('',*,*,#154,.T.);
#332 = ORIENTED_EDGE('',*,*,#333,.T.);
#333 = EDGE_CURVE('',#147,#212,#334,.T.);
#334 = LINE('',#335,#336);
#335 = CARTESIAN_POINT('',(114.85,-53.,11.7));
#336 = VECTOR('',#337,1.);
#337 = DIRECTION('',(0.,0.,1.));
#338 = ORIENTED_EDGE('',*,*,#211,.F.);
#339 = PLANE('',#340);
#340 = AXIS2_PLACEMENT_3D('',#341,#342,#343);
#341 = CARTESIAN_POINT('',(114.85,-53.,11.7));
#342 = DIRECTION('',(0.,1.,0.));
#343 = DIRECTION('',(0.,0.,1.));
#344 = ADVANCED_FACE('',(#345),#356,.T.);
#345 = FACE_BOUND('',#346,.T.);
#346 = EDGE_LOOP('',(#347,#348,#349,#355));
#347 = ORIENTED_EDGE('',*,*,#333,.F.);
#348 = ORIENTED_EDGE('',*,*,#146,.T.);
#349 = ORIENTED_EDGE('',*,*,#350,.T.);
#350 = EDGE_CURVE('',#139,#220,#351,.T.);
#351 = LINE('',#352,#353);
#352 = CARTESIAN_POINT('',(114.85,-52.79249533583,12.345));
#353 = VECTOR('',#354,1.);
#354 = DIRECTION('',(0.,0.,1.));
#355 = ORIENTED_EDGE('',*,*,#219,.F.);
#356 = PLANE('',#357);
#357 = AXIS2_PLACEMENT_3D('',#358,#359,#360);
#358 = CARTESIAN_POINT('',(114.85,-53.,11.7));
#359 = DIRECTION('',(1.,0.,0.));
#360 = DIRECTION('',(0.,0.,1.));
#361 = ADVANCED_FACE('',(#362),#368,.F.);
#362 = FACE_BOUND('',#363,.F.);
#363 = EDGE_LOOP('',(#364,#365,#366,#367));
#364 = ORIENTED_EDGE('',*,*,#138,.F.);
#365 = ORIENTED_EDGE('',*,*,#350,.T.);
#366 = ORIENTED_EDGE('',*,*,#227,.T.);
#367 = ORIENTED_EDGE('',*,*,#293,.F.);
#368 = PLANE('',#369);
#369 = AXIS2_PLACEMENT_3D('',#370,#371,#372);
#370 = CARTESIAN_POINT('',(121.15764815627,-54.3694073749,12.99));
#371 = DIRECTION('',(-0.242535625036,-0.970142500145,0.));
#372 = DIRECTION('',(-0.970142500145,0.242535625036,0.));
#373 = ADVANCED_FACE('',(#374),#385,.F.);
#374 = FACE_BOUND('',#375,.F.);
#375 = EDGE_LOOP('',(#376,#377,#378,#379));
#376 = ORIENTED_EDGE('',*,*,#114,.F.);
#377 = ORIENTED_EDGE('',*,*,#178,.F.);
#378 = ORIENTED_EDGE('',*,*,#244,.T.);
#379 = ORIENTED_EDGE('',*,*,#380,.F.);
#380 = EDGE_CURVE('',#106,#245,#381,.T.);
#381 = LINE('',#382,#383);
#382 = CARTESIAN_POINT('',(113.14268292682,-62.36585365853,12.99));
#383 = VECTOR('',#384,1.);
#384 = DIRECTION('',(0.,0.,1.));
#385 = PLANE('',#386);
#386 = AXIS2_PLACEMENT_3D('',#387,#388,#389);
#387 = CARTESIAN_POINT('',(121.14268292682,-64.16585365853,12.99));
#388 = DIRECTION('',(-0.219512195122,-0.975609756098,0.));
#389 = DIRECTION('',(-0.975609756098,0.219512195122,0.));
#390 = ADVANCED_FACE('',(#391),#402,.T.);
#391 = FACE_BOUND('',#392,.F.);
#392 = EDGE_LOOP('',(#393,#394,#395,#396));
#393 = ORIENTED_EDGE('',*,*,#105,.F.);
#394 = ORIENTED_EDGE('',*,*,#380,.T.);
#395 = ORIENTED_EDGE('',*,*,#252,.T.);
#396 = ORIENTED_EDGE('',*,*,#397,.F.);
#397 = EDGE_CURVE('',#98,#253,#398,.T.);
#398 = LINE('',#399,#400);
#399 = CARTESIAN_POINT('',(112.85731707317,-63.63414634146,12.99));
#400 = VECTOR('',#401,1.);
#401 = DIRECTION('',(0.,0.,1.));
#402 = CYLINDRICAL_SURFACE('',#403,0.65);
#403 = AXIS2_PLACEMENT_3D('',#404,#405,#406);
#404 = CARTESIAN_POINT('',(113.,-63.,12.99));
#405 = DIRECTION('',(-0.,-0.,-1.));
#406 = DIRECTION('',(1.,0.,0.));
#407 = ADVANCED_FACE('',(#408),#419,.F.);
#408 = FACE_BOUND('',#409,.F.);
#409 = EDGE_LOOP('',(#410,#411,#412,#418));
#410 = ORIENTED_EDGE('',*,*,#397,.T.);
#411 = ORIENTED_EDGE('',*,*,#261,.T.);
#412 = ORIENTED_EDGE('',*,*,#413,.F.);
#413 = EDGE_CURVE('',#89,#262,#414,.T.);
#414 = LINE('',#415,#416);
#415 = CARTESIAN_POINT('',(120.85731707317,-65.43414634146,12.99));
#416 = VECTOR('',#417,1.);
#417 = DIRECTION('',(0.,0.,1.));
#418 = ORIENTED_EDGE('',*,*,#97,.F.);
#419 = PLANE('',#420);
#420 = AXIS2_PLACEMENT_3D('',#421,#422,#423);
#421 = CARTESIAN_POINT('',(112.85731707317,-63.63414634146,12.99));
#422 = DIRECTION('',(0.219512195122,0.975609756098,0.));
#423 = DIRECTION('',(0.975609756098,-0.219512195122,0.));
#424 = ADVANCED_FACE('',(#425),#436,.T.);
#425 = FACE_BOUND('',#426,.F.);
#426 = EDGE_LOOP('',(#427,#433,#434,#435));
#427 = ORIENTED_EDGE('',*,*,#428,.F.);
#428 = EDGE_CURVE('',#81,#270,#429,.T.);
#429 = LINE('',#430,#431);
#430 = CARTESIAN_POINT('',(121.65,-64.8,12.99));
#431 = VECTOR('',#432,1.);
#432 = DIRECTION('',(0.,0.,1.));
#433 = ORIENTED_EDGE('',*,*,#88,.F.);
#434 = ORIENTED_EDGE('',*,*,#413,.T.);
#435 = ORIENTED_EDGE('',*,*,#269,.T.);
#436 = CYLINDRICAL_SURFACE('',#437,0.65);
#437 = AXIS2_PLACEMENT_3D('',#438,#439,#440);
#438 = CARTESIAN_POINT('',(121.,-64.8,12.99));
#439 = DIRECTION('',(-0.,-0.,-1.));
#440 = DIRECTION('',(1.,0.,0.));
#441 = ADVANCED_FACE('',(#442),#453,.F.);
#442 = FACE_BOUND('',#443,.F.);
#443 = EDGE_LOOP('',(#444,#445,#446,#452));
#444 = ORIENTED_EDGE('',*,*,#428,.T.);
#445 = ORIENTED_EDGE('',*,*,#278,.T.);
#446 = ORIENTED_EDGE('',*,*,#447,.F.);
#447 = EDGE_CURVE('',#72,#193,#448,.T.);
#448 = LINE('',#449,#450);
#449 = CARTESIAN_POINT('',(121.65,-55.,12.99));
#450 = VECTOR('',#451,1.);
#451 = DIRECTION('',(0.,0.,1.));
#452 = ORIENTED_EDGE('',*,*,#80,.F.);
#453 = PLANE('',#454);
#454 = AXIS2_PLACEMENT_3D('',#455,#456,#457);
#455 = CARTESIAN_POINT('',(121.65,-64.8,12.99));
#456 = DIRECTION('',(-1.,0.,0.));
#457 = DIRECTION('',(0.,1.,0.));
#458 = ADVANCED_FACE('',(#459),#465,.T.);
#459 = FACE_BOUND('',#460,.F.);
#460 = EDGE_LOOP('',(#461,#462,#463,#464));
#461 = ORIENTED_EDGE('',*,*,#71,.F.);
#462 = ORIENTED_EDGE('',*,*,#447,.T.);
#463 = ORIENTED_EDGE('',*,*,#192,.T.);
#464 = ORIENTED_EDGE('',*,*,#310,.F.);
#465 = CYLINDRICAL_SURFACE('',#466,0.65);
#466 = AXIS2_PLACEMENT_3D('',#467,#468,#469);
#467 = CARTESIAN_POINT('',(121.,-55.,12.99));
#468 = DIRECTION('',(-0.,-0.,-1.));
#469 = DIRECTION('',(1.,0.,0.));
#470 = MANIFOLD_SOLID_BREP('',#471);
#471 = CLOSED_SHELL('',(#472,#512,#561,#585,#627,#644,#661,#678));
#472 = ADVANCED_FACE('',(#473),#507,.T.);
#473 = FACE_BOUND('',#474,.T.);
#474 = EDGE_LOOP('',(#475,#485,#493,#501));
#475 = ORIENTED_EDGE('',*,*,#476,.F.);
#476 = EDGE_CURVE('',#477,#479,#481,.T.);
#477 = VERTEX_POINT('',#478);
#478 = CARTESIAN_POINT('',(114.4,-16.5,12.99));
#479 = VERTEX_POINT('',#480);
#480 = CARTESIAN_POINT('',(114.85,-16.5,12.99));
#481 = LINE('',#482,#483);
#482 = CARTESIAN_POINT('',(114.4,-16.5,12.99));
#483 = VECTOR('',#484,1.);
#484 = DIRECTION('',(1.,0.,0.));
#485 = ORIENTED_EDGE('',*,*,#486,.T.);
#486 = EDGE_CURVE('',#477,#487,#489,.T.);
#487 = VERTEX_POINT('',#488);
#488 = CARTESIAN_POINT('',(114.4,-16.5,13.39));
#489 = LINE('',#490,#491);
#490 = CARTESIAN_POINT('',(114.4,-16.5,12.99));
#491 = VECTOR('',#492,1.);
#492 = DIRECTION('',(0.,0.,1.));
#493 = ORIENTED_EDGE('',*,*,#494,.T.);
#494 = EDGE_CURVE('',#487,#495,#497,.T.);
#495 = VERTEX_POINT('',#496);
#496 = CARTESIAN_POINT('',(114.85,-16.5,13.39));
#497 = LINE('',#498,#499);
#498 = CARTESIAN_POINT('',(114.4,-16.5,13.39));
#499 = VECTOR('',#500,1.);
#500 = DIRECTION('',(1.,0.,0.));
#501 = ORIENTED_EDGE('',*,*,#502,.T.);
#502 = EDGE_CURVE('',#495,#479,#503,.T.);
#503 = LINE('',#504,#505);
#504 = CARTESIAN_POINT('',(114.85,-16.5,12.345));
#505 = VECTOR('',#506,1.);
#506 = DIRECTION('',(0.,0.,-1.));
#507 = PLANE('',#508);
#508 = AXIS2_PLACEMENT_3D('',#509,#510,#511);
#509 = CARTESIAN_POINT('',(114.4,-16.5,12.99));
#510 = DIRECTION('',(0.,1.,0.));
#511 = DIRECTION('',(1.,0.,0.));
#512 = ADVANCED_FACE('',(#513),#556,.F.);
#513 = FACE_BOUND('',#514,.F.);
#514 = EDGE_LOOP('',(#515,#516,#525,#533,#542,#550));
#515 = ORIENTED_EDGE('',*,*,#476,.F.);
#516 = ORIENTED_EDGE('',*,*,#517,.F.);
#517 = EDGE_CURVE('',#518,#477,#520,.T.);
#518 = VERTEX_POINT('',#519);
#519 = CARTESIAN_POINT('',(113.6,-17.3,12.99));
#520 = CIRCLE('',#521,0.8);
#521 = AXIS2_PLACEMENT_3D('',#522,#523,#524);
#522 = CARTESIAN_POINT('',(114.4,-17.3,12.99));
#523 = DIRECTION('',(0.,0.,-1.));
#524 = DIRECTION('',(-1.,-4.44E-15,-0.));
#525 = ORIENTED_EDGE('',*,*,#526,.F.);
#526 = EDGE_CURVE('',#527,#518,#529,.T.);
#527 = VERTEX_POINT('',#528);
#528 = CARTESIAN_POINT('',(113.6,-50.4,12.99));
#529 = LINE('',#530,#531);
#530 = CARTESIAN_POINT('',(113.6,-50.4,12.99));
#531 = VECTOR('',#532,1.);
#532 = DIRECTION('',(0.,1.,0.));
#533 = ORIENTED_EDGE('',*,*,#534,.F.);
#534 = EDGE_CURVE('',#535,#527,#537,.T.);
#535 = VERTEX_POINT('',#536);
#536 = CARTESIAN_POINT('',(114.4,-51.2,12.99));
#537 = CIRCLE('',#538,0.8);
#538 = AXIS2_PLACEMENT_3D('',#539,#540,#541);
#539 = CARTESIAN_POINT('',(114.4,-50.4,12.99));
#540 = DIRECTION('',(0.,0.,-1.));
#541 = DIRECTION('',(0.,-1.,0.));
#542 = ORIENTED_EDGE('',*,*,#543,.F.);
#543 = EDGE_CURVE('',#544,#535,#546,.T.);
#544 = VERTEX_POINT('',#545);
#545 = CARTESIAN_POINT('',(114.85,-51.2,12.99));
#546 = LINE('',#547,#548);
#547 = CARTESIAN_POINT('',(131.2,-51.2,12.99));
#548 = VECTOR('',#549,1.);
#549 = DIRECTION('',(-1.,0.,0.));
#550 = ORIENTED_EDGE('',*,*,#551,.T.);
#551 = EDGE_CURVE('',#544,#479,#552,.T.);
#552 = LINE('',#553,#554);
#553 = CARTESIAN_POINT('',(114.85,-46.04641870115,12.99));
#554 = VECTOR('',#555,1.);
#555 = DIRECTION('',(0.,1.,0.));
#556 = PLANE('',#557);
#557 = AXIS2_PLACEMENT_3D('',#558,#559,#560);
#558 = CARTESIAN_POINT('',(122.8,-33.85,12.99));
#559 = DIRECTION('',(0.,0.,1.));
#560 = DIRECTION('',(1.,0.,0.));
#561 = ADVANCED_FACE('',(#562),#580,.T.);
#562 = FACE_BOUND('',#563,.T.);
#563 = EDGE_LOOP('',(#564,#572,#573,#574));
#564 = ORIENTED_EDGE('',*,*,#565,.F.);
#565 = EDGE_CURVE('',#544,#566,#568,.T.);
#566 = VERTEX_POINT('',#567);
#567 = CARTESIAN_POINT('',(114.85,-51.2,13.39));
#568 = LINE('',#569,#570);
#569 = CARTESIAN_POINT('',(114.85,-51.2,12.345));
#570 = VECTOR('',#571,1.);
#571 = DIRECTION('',(0.,0.,1.));
#572 = ORIENTED_EDGE('',*,*,#551,.T.);
#573 = ORIENTED_EDGE('',*,*,#502,.F.);
#574 = ORIENTED_EDGE('',*,*,#575,.F.);
#575 = EDGE_CURVE('',#566,#495,#576,.T.);
#576 = LINE('',#577,#578);
#577 = CARTESIAN_POINT('',(114.85,-46.04893884022,13.39));
#578 = VECTOR('',#579,1.);
#579 = DIRECTION('',(0.,1.,0.));
#580 = PLANE('',#581);
#581 = AXIS2_PLACEMENT_3D('',#582,#583,#584);
#582 = CARTESIAN_POINT('',(114.85,-53.,11.7));
#583 = DIRECTION('',(1.,0.,0.));
#584 = DIRECTION('',(0.,0.,1.));
#585 = ADVANCED_FACE('',(#586),#622,.T.);
#586 = FACE_BOUND('',#587,.T.);
#587 = EDGE_LOOP('',(#588,#589,#598,#606,#615,#621));
#588 = ORIENTED_EDGE('',*,*,#494,.F.);
#589 = ORIENTED_EDGE('',*,*,#590,.F.);
#590 = EDGE_CURVE('',#591,#487,#593,.T.);
#591 = VERTEX_POINT('',#592);
#592 = CARTESIAN_POINT('',(113.6,-17.3,13.39));
#593 = CIRCLE('',#594,0.8);
#594 = AXIS2_PLACEMENT_3D('',#595,#596,#597);
#595 = CARTESIAN_POINT('',(114.4,-17.3,13.39));
#596 = DIRECTION('',(0.,0.,-1.));
#597 = DIRECTION('',(-1.,-4.44E-15,-0.));
#598 = ORIENTED_EDGE('',*,*,#599,.F.);
#599 = EDGE_CURVE('',#600,#591,#602,.T.);
#600 = VERTEX_POINT('',#601);
#601 = CARTESIAN_POINT('',(113.6,-50.4,13.39));
#602 = LINE('',#603,#604);
#603 = CARTESIAN_POINT('',(113.6,-50.4,13.39));
#604 = VECTOR('',#605,1.);
#605 = DIRECTION('',(0.,1.,0.));
#606 = ORIENTED_EDGE('',*,*,#607,.F.);
#607 = EDGE_CURVE('',#608,#600,#610,.T.);
#608 = VERTEX_POINT('',#609);
#609 = CARTESIAN_POINT('',(114.4,-51.2,13.39));
#610 = CIRCLE('',#611,0.8);
#611 = AXIS2_PLACEMENT_3D('',#612,#613,#614);
#612 = CARTESIAN_POINT('',(114.4,-50.4,13.39));
#613 = DIRECTION('',(0.,0.,-1.));
#614 = DIRECTION('',(0.,-1.,0.));
#615 = ORIENTED_EDGE('',*,*,#616,.F.);
#616 = EDGE_CURVE('',#566,#608,#617,.T.);
#617 = LINE('',#618,#619);
#618 = CARTESIAN_POINT('',(131.2,-51.2,13.39));
#619 = VECTOR('',#620,1.);
#620 = DIRECTION('',(-1.,0.,0.));
#621 = ORIENTED_EDGE('',*,*,#575,.T.);
#622 = PLANE('',#623);
#623 = AXIS2_PLACEMENT_3D('',#624,#625,#626);
#624 = CARTESIAN_POINT('',(122.8,-33.85,13.39));
#625 = DIRECTION('',(0.,0.,1.));
#626 = DIRECTION('',(1.,0.,0.));
#627 = ADVANCED_FACE('',(#628),#639,.T.);
#628 = FACE_BOUND('',#629,.T.);
#629 = EDGE_LOOP('',(#630,#636,#637,#638));
#630 = ORIENTED_EDGE('',*,*,#631,.T.);
#631 = EDGE_CURVE('',#518,#591,#632,.T.);
#632 = LINE('',#633,#634);
#633 = CARTESIAN_POINT('',(113.6,-17.3,12.99));
#634 = VECTOR('',#635,1.);
#635 = DIRECTION('',(0.,0.,1.));
#636 = ORIENTED_EDGE('',*,*,#590,.T.);
#637 = ORIENTED_EDGE('',*,*,#486,.F.);
#638 = ORIENTED_EDGE('',*,*,#517,.F.);
#639 = CYLINDRICAL_SURFACE('',#640,0.8);
#640 = AXIS2_PLACEMENT_3D('',#641,#642,#643);
#641 = CARTESIAN_POINT('',(114.4,-17.3,12.99));
#642 = DIRECTION('',(0.,0.,-1.));
#643 = DIRECTION('',(-1.,-4.44E-15,-0.));
#644 = ADVANCED_FACE('',(#645),#656,.T.);
#645 = FACE_BOUND('',#646,.T.);
#646 = EDGE_LOOP('',(#647,#648,#649,#650));
#647 = ORIENTED_EDGE('',*,*,#543,.F.);
#648 = ORIENTED_EDGE('',*,*,#565,.T.);
#649 = ORIENTED_EDGE('',*,*,#616,.T.);
#650 = ORIENTED_EDGE('',*,*,#651,.F.);
#651 = EDGE_CURVE('',#535,#608,#652,.T.);
#652 = LINE('',#653,#654);
#653 = CARTESIAN_POINT('',(114.4,-51.2,12.99));
#654 = VECTOR('',#655,1.);
#655 = DIRECTION('',(0.,0.,1.));
#656 = PLANE('',#657);
#657 = AXIS2_PLACEMENT_3D('',#658,#659,#660);
#658 = CARTESIAN_POINT('',(131.2,-51.2,12.99));
#659 = DIRECTION('',(0.,-1.,0.));
#660 = DIRECTION('',(-1.,0.,0.));
#661 = ADVANCED_FACE('',(#662),#673,.T.);
#662 = FACE_BOUND('',#663,.T.);
#663 = EDGE_LOOP('',(#664,#665,#666,#672));
#664 = ORIENTED_EDGE('',*,*,#651,.T.);
#665 = ORIENTED_EDGE('',*,*,#607,.T.);
#666 = ORIENTED_EDGE('',*,*,#667,.F.);
#667 = EDGE_CURVE('',#527,#600,#668,.T.);
#668 = LINE('',#669,#670);
#669 = CARTESIAN_POINT('',(113.6,-50.4,12.99));
#670 = VECTOR('',#671,1.);
#671 = DIRECTION('',(0.,0.,1.));
#672 = ORIENTED_EDGE('',*,*,#534,.F.);
#673 = CYLINDRICAL_SURFACE('',#674,0.8);
#674 = AXIS2_PLACEMENT_3D('',#675,#676,#677);
#675 = CARTESIAN_POINT('',(114.4,-50.4,12.99));
#676 = DIRECTION('',(0.,0.,-1.));
#677 = DIRECTION('',(0.,-1.,0.));
#678 = ADVANCED_FACE('',(#679),#685,.T.);
#679 = FACE_BOUND('',#680,.T.);
#680 = EDGE_LOOP('',(#681,#682,#683,#684));
#681 = ORIENTED_EDGE('',*,*,#667,.T.);
#682 = ORIENTED_EDGE('',*,*,#599,.T.);
#683 = ORIENTED_EDGE('',*,*,#631,.F.);
#684 = ORIENTED_EDGE('',*,*,#526,.F.);
#685 = PLANE('',#686);
#686 = AXIS2_PLACEMENT_3D('',#687,#688,#689);
#687 = CARTESIAN_POINT('',(113.6,-50.4,12.99));
#688 = DIRECTION('',(-1.,0.,0.));
#689 = DIRECTION('',(0.,1.,0.));
#690 = MANIFOLD_SOLID_BREP('',#691);
#691 = CLOSED_SHELL('',(#692,#732,#789,#814,#863,#880,#897,#914,#931));
#692 = ADVANCED_FACE('',(#693),#727,.T.);
#693 = FACE_BOUND('',#694,.T.);
#694 = EDGE_LOOP('',(#695,#705,#713,#721));
#695 = ORIENTED_EDGE('',*,*,#696,.F.);
#696 = EDGE_CURVE('',#697,#699,#701,.T.);
#697 = VERTEX_POINT('',#698);
#698 = CARTESIAN_POINT('',(130.75,-16.5,12.99));
#699 = VERTEX_POINT('',#700);
#700 = CARTESIAN_POINT('',(131.2,-16.5,12.99));
#701 = LINE('',#702,#703);
#702 = CARTESIAN_POINT('',(114.4,-16.5,12.99));
#703 = VECTOR('',#704,1.);
#704 = DIRECTION('',(1.,0.,0.));
#705 = ORIENTED_EDGE('',*,*,#706,.F.);
#706 = EDGE_CURVE('',#707,#697,#709,.T.);
#707 = VERTEX_POINT('',#708);
#708 = CARTESIAN_POINT('',(130.75,-16.5,13.39));
#709 = LINE('',#710,#711);
#710 = CARTESIAN_POINT('',(130.75,-16.5,12.345));
#711 = VECTOR('',#712,1.);
#712 = DIRECTION('',(0.,0.,-1.));
#713 = ORIENTED_EDGE('',*,*,#714,.T.);
#714 = EDGE_CURVE('',#707,#715,#717,.T.);
#715 = VERTEX_POINT('',#716);
#716 = CARTESIAN_POINT('',(131.2,-16.5,13.39));
#717 = LINE('',#718,#719);
#718 = CARTESIAN_POINT('',(114.4,-16.5,13.39));
#719 = VECTOR('',#720,1.);
#720 = DIRECTION('',(1.,0.,0.));
#721 = ORIENTED_EDGE('',*,*,#722,.F.);
#722 = EDGE_CURVE('',#699,#715,#723,.T.);
#723 = LINE('',#724,#725);
#724 = CARTESIAN_POINT('',(131.2,-16.5,12.99));
#725 = VECTOR('',#726,1.);
#726 = DIRECTION('',(0.,0.,1.));
#727 = PLANE('',#728);
#728 = AXIS2_PLACEMENT_3D('',#729,#730,#731);
#729 = CARTESIAN_POINT('',(114.4,-16.5,12.99));
#730 = DIRECTION('',(0.,1.,0.));
#731 = DIRECTION('',(1.,0.,0.));
#732 = ADVANCED_FACE('',(#733),#784,.F.);
#733 = FACE_BOUND('',#734,.F.);
#734 = EDGE_LOOP('',(#735,#736,#744,#752,#760,#769,#777));
#735 = ORIENTED_EDGE('',*,*,#696,.F.);
#736 = ORIENTED_EDGE('',*,*,#737,.F.);
#737 = EDGE_CURVE('',#738,#697,#740,.T.);
#738 = VERTEX_POINT('',#739);
#739 = CARTESIAN_POINT('',(130.75,-51.2,12.99));
#740 = LINE('',#741,#742);
#741 = CARTESIAN_POINT('',(130.75,-46.04641870115,12.99));
#742 = VECTOR('',#743,1.);
#743 = DIRECTION('',(0.,1.,0.));
#744 = ORIENTED_EDGE('',*,*,#745,.F.);
#745 = EDGE_CURVE('',#746,#738,#748,.T.);
#746 = VERTEX_POINT('',#747);
#747 = CARTESIAN_POINT('',(131.,-51.2,12.99));
#748 = LINE('',#749,#750);
#749 = CARTESIAN_POINT('',(131.2,-51.2,12.99));
#750 = VECTOR('',#751,1.);
#751 = DIRECTION('',(-1.,0.,0.));
#752 = ORIENTED_EDGE('',*,*,#753,.T.);
#753 = EDGE_CURVE('',#746,#754,#756,.T.);
#754 = VERTEX_POINT('',#755);
#755 = CARTESIAN_POINT('',(131.75898929781,-50.97230321065,12.99));
#756 = LINE('',#757,#758);
#757 = CARTESIAN_POINT('',(125.,-53.,12.99));
#758 = VECTOR('',#759,1.);
#759 = DIRECTION('',(0.957826285221,0.287347885566,0.));
#760 = ORIENTED_EDGE('',*,*,#761,.F.);
#761 = EDGE_CURVE('',#762,#754,#764,.T.);
#762 = VERTEX_POINT('',#763);
#763 = CARTESIAN_POINT('',(132.,-50.4,12.99));
#764 = CIRCLE('',#765,0.8);
#765 = AXIS2_PLACEMENT_3D('',#766,#767,#768);
#766 = CARTESIAN_POINT('',(131.2,-50.4,12.99));
#767 = DIRECTION('',(0.,0.,-1.));
#768 = DIRECTION('',(1.,-8.88E-15,0.));
#769 = ORIENTED_EDGE('',*,*,#770,.F.);
#770 = EDGE_CURVE('',#771,#762,#773,.T.);
#771 = VERTEX_POINT('',#772);
#772 = CARTESIAN_POINT('',(132.,-17.3,12.99));
#773 = LINE('',#774,#775);
#774 = CARTESIAN_POINT('',(132.,-17.3,12.99));
#775 = VECTOR('',#776,1.);
#776 = DIRECTION('',(0.,-1.,0.));
#777 = ORIENTED_EDGE('',*,*,#778,.F.);
#778 = EDGE_CURVE('',#699,#771,#779,.T.);
#779 = CIRCLE('',#780,0.8);
#780 = AXIS2_PLACEMENT_3D('',#781,#782,#783);
#781 = CARTESIAN_POINT('',(131.2,-17.3,12.99));
#782 = DIRECTION('',(0.,0.,-1.));
#783 = DIRECTION('',(0.,1.,0.));
#784 = PLANE('',#785);
#785 = AXIS2_PLACEMENT_3D('',#786,#787,#788);
#786 = CARTESIAN_POINT('',(122.8,-33.85,12.99));
#787 = DIRECTION('',(0.,0.,1.));
#788 = DIRECTION('',(1.,0.,0.));
#789 = ADVANCED_FACE('',(#790),#809,.T.);
#790 = FACE_BOUND('',#791,.T.);
#791 = EDGE_LOOP('',(#792,#793,#802,#808));
#792 = ORIENTED_EDGE('',*,*,#722,.T.);
#793 = ORIENTED_EDGE('',*,*,#794,.T.);
#794 = EDGE_CURVE('',#715,#795,#797,.T.);
#795 = VERTEX_POINT('',#796);
#796 = CARTESIAN_POINT('',(132.,-17.3,13.39));
#797 = CIRCLE('',#798,0.8);
#798 = AXIS2_PLACEMENT_3D('',#799,#800,#801);
#799 = CARTESIAN_POINT('',(131.2,-17.3,13.39));
#800 = DIRECTION('',(0.,0.,-1.));
#801 = DIRECTION('',(0.,1.,0.));
#802 = ORIENTED_EDGE('',*,*,#803,.F.);
#803 = EDGE_CURVE('',#771,#795,#804,.T.);
#804 = LINE('',#805,#806);
#805 = CARTESIAN_POINT('',(132.,-17.3,12.99));
#806 = VECTOR('',#807,1.);
#807 = DIRECTION('',(0.,0.,1.));
#808 = ORIENTED_EDGE('',*,*,#778,.F.);
#809 = CYLINDRICAL_SURFACE('',#810,0.8);
#810 = AXIS2_PLACEMENT_3D('',#811,#812,#813);
#811 = CARTESIAN_POINT('',(131.2,-17.3,12.99));
#812 = DIRECTION('',(0.,0.,-1.));
#813 = DIRECTION('',(0.,1.,0.));
#814 = ADVANCED_FACE('',(#815),#858,.T.);
#815 = FACE_BOUND('',#816,.T.);
#816 = EDGE_LOOP('',(#817,#818,#826,#834,#842,#851,#857));
#817 = ORIENTED_EDGE('',*,*,#714,.F.);
#818 = ORIENTED_EDGE('',*,*,#819,.F.);
#819 = EDGE_CURVE('',#820,#707,#822,.T.);
#820 = VERTEX_POINT('',#821);
#821 = CARTESIAN_POINT('',(130.75,-51.2,13.39));
#822 = LINE('',#823,#824);
#823 = CARTESIAN_POINT('',(130.75,-46.04893884022,13.39));
#824 = VECTOR('',#825,1.);
#825 = DIRECTION('',(0.,1.,0.));
#826 = ORIENTED_EDGE('',*,*,#827,.F.);
#827 = EDGE_CURVE('',#828,#820,#830,.T.);
#828 = VERTEX_POINT('',#829);
#829 = CARTESIAN_POINT('',(131.,-51.2,13.39));
#830 = LINE('',#831,#832);
#831 = CARTESIAN_POINT('',(131.2,-51.2,13.39));
#832 = VECTOR('',#833,1.);
#833 = DIRECTION('',(-1.,0.,0.));
#834 = ORIENTED_EDGE('',*,*,#835,.T.);
#835 = EDGE_CURVE('',#828,#836,#838,.T.);
#836 = VERTEX_POINT('',#837);
#837 = CARTESIAN_POINT('',(131.75898929781,-50.97230321065,13.39));
#838 = LINE('',#839,#840);
#839 = CARTESIAN_POINT('',(125.,-53.,13.39));
#840 = VECTOR('',#841,1.);
#841 = DIRECTION('',(0.957826285221,0.287347885566,0.));
#842 = ORIENTED_EDGE('',*,*,#843,.F.);
#843 = EDGE_CURVE('',#844,#836,#846,.T.);
#844 = VERTEX_POINT('',#845);
#845 = CARTESIAN_POINT('',(132.,-50.4,13.39));
#846 = CIRCLE('',#847,0.8);
#847 = AXIS2_PLACEMENT_3D('',#848,#849,#850);
#848 = CARTESIAN_POINT('',(131.2,-50.4,13.39));
#849 = DIRECTION('',(0.,0.,-1.));
#850 = DIRECTION('',(1.,-8.88E-15,0.));
#851 = ORIENTED_EDGE('',*,*,#852,.F.);
#852 = EDGE_CURVE('',#795,#844,#853,.T.);
#853 = LINE('',#854,#855);
#854 = CARTESIAN_POINT('',(132.,-17.3,13.39));
#855 = VECTOR('',#856,1.);
#856 = DIRECTION('',(0.,-1.,0.));
#857 = ORIENTED_EDGE('',*,*,#794,.F.);
#858 = PLANE('',#859);
#859 = AXIS2_PLACEMENT_3D('',#860,#861,#862);
#860 = CARTESIAN_POINT('',(122.8,-33.85,13.39));
#861 = DIRECTION('',(0.,0.,1.));
#862 = DIRECTION('',(1.,0.,0.));
#863 = ADVANCED_FACE('',(#864),#875,.F.);
#864 = FACE_BOUND('',#865,.F.);
#865 = EDGE_LOOP('',(#866,#872,#873,#874));
#866 = ORIENTED_EDGE('',*,*,#867,.F.);
#867 = EDGE_CURVE('',#738,#820,#868,.T.);
#868 = LINE('',#869,#870);
#869 = CARTESIAN_POINT('',(130.75,-51.2,12.345));
#870 = VECTOR('',#871,1.);
#871 = DIRECTION('',(0.,0.,1.));
#872 = ORIENTED_EDGE('',*,*,#737,.T.);
#873 = ORIENTED_EDGE('',*,*,#706,.F.);
#874 = ORIENTED_EDGE('',*,*,#819,.F.);
#875 = PLANE('',#876);
#876 = AXIS2_PLACEMENT_3D('',#877,#878,#879);
#877 = CARTESIAN_POINT('',(130.75,-53.,11.7));
#878 = DIRECTION('',(1.,0.,0.));
#879 = DIRECTION('',(0.,0.,1.));
#880 = ADVANCED_FACE('',(#881),#892,.T.);
#881 = FACE_BOUND('',#882,.T.);
#882 = EDGE_LOOP('',(#883,#884,#885,#891));
#883 = ORIENTED_EDGE('',*,*,#803,.T.);
#884 = ORIENTED_EDGE('',*,*,#852,.T.);
#885 = ORIENTED_EDGE('',*,*,#886,.F.);
#886 = EDGE_CURVE('',#762,#844,#887,.T.);
#887 = LINE('',#888,#889);
#888 = CARTESIAN_POINT('',(132.,-50.4,12.99));
#889 = VECTOR('',#890,1.);
#890 = DIRECTION('',(0.,0.,1.));
#891 = ORIENTED_EDGE('',*,*,#770,.F.);
#892 = PLANE('',#893);
#893 = AXIS2_PLACEMENT_3D('',#894,#895,#896);
#894 = CARTESIAN_POINT('',(132.,-17.3,12.99));
#895 = DIRECTION('',(1.,0.,0.));
#896 = DIRECTION('',(0.,-1.,0.));
#897 = ADVANCED_FACE('',(#898),#909,.T.);
#898 = FACE_BOUND('',#899,.T.);
#899 = EDGE_LOOP('',(#900,#901,#902,#903));
#900 = ORIENTED_EDGE('',*,*,#761,.F.);
#901 = ORIENTED_EDGE('',*,*,#886,.T.);
#902 = ORIENTED_EDGE('',*,*,#843,.T.);
#903 = ORIENTED_EDGE('',*,*,#904,.T.);
#904 = EDGE_CURVE('',#836,#754,#905,.T.);
#905 = LINE('',#906,#907);
#906 = CARTESIAN_POINT('',(131.75898929781,-50.97230321065,12.99));
#907 = VECTOR('',#908,1.);
#908 = DIRECTION('',(0.,0.,-1.));
#909 = CYLINDRICAL_SURFACE('',#910,0.8);
#910 = AXIS2_PLACEMENT_3D('',#911,#912,#913);
#911 = CARTESIAN_POINT('',(131.2,-50.4,12.99));
#912 = DIRECTION('',(0.,0.,-1.));
#913 = DIRECTION('',(1.,-8.88E-15,0.));
#914 = ADVANCED_FACE('',(#915),#926,.F.);
#915 = FACE_BOUND('',#916,.F.);
#916 = EDGE_LOOP('',(#917,#918,#924,#925));
#917 = ORIENTED_EDGE('',*,*,#753,.F.);
#918 = ORIENTED_EDGE('',*,*,#919,.F.);
#919 = EDGE_CURVE('',#828,#746,#920,.T.);
#920 = LINE('',#921,#922);
#921 = CARTESIAN_POINT('',(131.,-51.2,12.99));
#922 = VECTOR('',#923,1.);
#923 = DIRECTION('',(-0.,-0.,-1.));
#924 = ORIENTED_EDGE('',*,*,#835,.T.);
#925 = ORIENTED_EDGE('',*,*,#904,.T.);
#926 = PLANE('',#927);
#927 = AXIS2_PLACEMENT_3D('',#928,#929,#930);
#928 = CARTESIAN_POINT('',(125.,-53.,12.99));
#929 = DIRECTION('',(-0.287347885566,0.957826285221,0.));
#930 = DIRECTION('',(0.957826285221,0.287347885566,0.));
#931 = ADVANCED_FACE('',(#932),#938,.T.);
#932 = FACE_BOUND('',#933,.T.);
#933 = EDGE_LOOP('',(#934,#935,#936,#937));
#934 = ORIENTED_EDGE('',*,*,#745,.F.);
#935 = ORIENTED_EDGE('',*,*,#919,.F.);
#936 = ORIENTED_EDGE('',*,*,#827,.T.);
#937 = ORIENTED_EDGE('',*,*,#867,.F.);
#938 = PLANE('',#939);
#939 = AXIS2_PLACEMENT_3D('',#940,#941,#942);
#940 = CARTESIAN_POINT('',(131.2,-51.2,12.99));
#941 = DIRECTION('',(0.,-1.,0.));
#942 = DIRECTION('',(-1.,0.,0.));
#943 = MANIFOLD_SOLID_BREP('',#944);
#944 = CLOSED_SHELL('',(#945,#985,#1025,#1047,#1069,#1081));
#945 = ADVANCED_FACE('',(#946),#980,.F.);
#946 = FACE_BOUND('',#947,.F.);
#947 = EDGE_LOOP('',(#948,#958,#966,#974));
#948 = ORIENTED_EDGE('',*,*,#949,.F.);
#949 = EDGE_CURVE('',#950,#952,#954,.T.);
#950 = VERTEX_POINT('',#951);
#951 = CARTESIAN_POINT('',(112.3,-14.3,12.99));
#952 = VERTEX_POINT('',#953);
#953 = CARTESIAN_POINT('',(112.3,-14.3,13.39));
#954 = LINE('',#955,#956);
#955 = CARTESIAN_POINT('',(112.3,-14.3,12.99));
#956 = VECTOR('',#957,1.);
#957 = DIRECTION('',(0.,0.,1.));
#958 = ORIENTED_EDGE('',*,*,#959,.T.);
#959 = EDGE_CURVE('',#950,#960,#962,.T.);
#960 = VERTEX_POINT('',#961);
#961 = CARTESIAN_POINT('',(112.3,-13.,12.99));
#962 = LINE('',#963,#964);
#963 = CARTESIAN_POINT('',(112.3,-14.3,12.99));
#964 = VECTOR('',#965,1.);
#965 = DIRECTION('',(0.,1.,0.));
#966 = ORIENTED_EDGE('',*,*,#967,.T.);
#967 = EDGE_CURVE('',#960,#968,#970,.T.);
#968 = VERTEX_POINT('',#969);
#969 = CARTESIAN_POINT('',(112.3,-13.,13.39));
#970 = LINE('',#971,#972);
#971 = CARTESIAN_POINT('',(112.3,-13.,12.99));
#972 = VECTOR('',#973,1.);
#973 = DIRECTION('',(0.,0.,1.));
#974 = ORIENTED_EDGE('',*,*,#975,.F.);
#975 = EDGE_CURVE('',#952,#968,#976,.T.);
#976 = LINE('',#977,#978);
#977 = CARTESIAN_POINT('',(112.3,-14.3,13.39));
#978 = VECTOR('',#979,1.);
#979 = DIRECTION('',(0.,1.,0.));
#980 = PLANE('',#981);
#981 = AXIS2_PLACEMENT_3D('',#982,#983,#984);
#982 = CARTESIAN_POINT('',(112.3,-14.3,12.99));
#983 = DIRECTION('',(1.,0.,0.));
#984 = DIRECTION('',(0.,0.,1.));
#985 = ADVANCED_FACE('',(#986),#1020,.T.);
#986 = FACE_BOUND('',#987,.T.);
#987 = EDGE_LOOP('',(#988,#998,#1006,#1014));
#988 = ORIENTED_EDGE('',*,*,#989,.F.);
#989 = EDGE_CURVE('',#990,#992,#994,.T.);
#990 = VERTEX_POINT('',#991);
#991 = CARTESIAN_POINT('',(123.,-14.3,12.99));
#992 = VERTEX_POINT('',#993);
#993 = CARTESIAN_POINT('',(123.,-14.3,13.39));
#994 = LINE('',#995,#996);
#995 = CARTESIAN_POINT('',(123.,-14.3,12.99));
#996 = VECTOR('',#997,1.);
#997 = DIRECTION('',(0.,0.,1.));
#998 = ORIENTED_EDGE('',*,*,#999,.T.);
#999 = EDGE_CURVE('',#990,#1000,#1002,.T.);
#1000 = VERTEX_POINT('',#1001);
#1001 = CARTESIAN_POINT('',(123.,-13.,12.99));
#1002 = LINE('',#1003,#1004);
#1003 = CARTESIAN_POINT('',(123.,-14.3,12.99));
#1004 = VECTOR('',#1005,1.);
#1005 = DIRECTION('',(0.,1.,0.));
#1006 = ORIENTED_EDGE('',*,*,#1007,.T.);
#1007 = EDGE_CURVE('',#1000,#1008,#1010,.T.);
#1008 = VERTEX_POINT('',#1009);
#1009 = CARTESIAN_POINT('',(123.,-13.,13.39));
#1010 = LINE('',#1011,#1012);
#1011 = CARTESIAN_POINT('',(123.,-13.,12.99));
#1012 = VECTOR('',#1013,1.);
#1013 = DIRECTION('',(0.,0.,1.));
#1014 = ORIENTED_EDGE('',*,*,#1015,.F.);
#1015 = EDGE_CURVE('',#992,#1008,#1016,.T.);
#1016 = LINE('',#1017,#1018);
#1017 = CARTESIAN_POINT('',(123.,-14.3,13.39));
#1018 = VECTOR('',#1019,1.);
#1019 = DIRECTION('',(0.,1.,0.));
#1020 = PLANE('',#1021);
#1021 = AXIS2_PLACEMENT_3D('',#1022,#1023,#1024);
#1022 = CARTESIAN_POINT('',(123.,-14.3,12.99));
#1023 = DIRECTION('',(1.,0.,0.));
#1024 = DIRECTION('',(0.,0.,1.));
#1025 = ADVANCED_FACE('',(#1026),#1042,.F.);
#1026 = FACE_BOUND('',#1027,.F.);
#1027 = EDGE_LOOP('',(#1028,#1034,#1035,#1041));
#1028 = ORIENTED_EDGE('',*,*,#1029,.F.);
#1029 = EDGE_CURVE('',#950,#990,#1030,.T.);
#1030 = LINE('',#1031,#1032);
#1031 = CARTESIAN_POINT('',(112.3,-14.3,12.99));
#1032 = VECTOR('',#1033,1.);
#1033 = DIRECTION('',(1.,0.,0.));
#1034 = ORIENTED_EDGE('',*,*,#949,.T.);
#1035 = ORIENTED_EDGE('',*,*,#1036,.T.);
#1036 = EDGE_CURVE('',#952,#992,#1037,.T.);
#1037 = LINE('',#1038,#1039);
#1038 = CARTESIAN_POINT('',(112.3,-14.3,13.39));
#1039 = VECTOR('',#1040,1.);
#1040 = DIRECTION('',(1.,0.,0.));
#1041 = ORIENTED_EDGE('',*,*,#989,.F.);
#1042 = PLANE('',#1043);
#1043 = AXIS2_PLACEMENT_3D('',#1044,#1045,#1046);
#1044 = CARTESIAN_POINT('',(112.3,-14.3,12.99));
#1045 = DIRECTION('',(0.,1.,0.));
#1046 = DIRECTION('',(0.,0.,1.));
#1047 = ADVANCED_FACE('',(#1048),#1064,.T.);
#1048 = FACE_BOUND('',#1049,.T.);
#1049 = EDGE_LOOP('',(#1050,#1056,#1057,#1063));
#1050 = ORIENTED_EDGE('',*,*,#1051,.F.);
#1051 = EDGE_CURVE('',#960,#1000,#1052,.T.);
#1052 = LINE('',#1053,#1054);
#1053 = CARTESIAN_POINT('',(112.3,-13.,12.99));
#1054 = VECTOR('',#1055,1.);
#1055 = DIRECTION('',(1.,0.,0.));
#1056 = ORIENTED_EDGE('',*,*,#967,.T.);
#1057 = ORIENTED_EDGE('',*,*,#1058,.T.);
#1058 = EDGE_CURVE('',#968,#1008,#1059,.T.);
#1059 = LINE('',#1060,#1061);
#1060 = CARTESIAN_POINT('',(112.3,-13.,13.39));
#1061 = VECTOR('',#1062,1.);
#1062 = DIRECTION('',(1.,0.,0.));
#1063 = ORIENTED_EDGE('',*,*,#1007,.F.);
#1064 = PLANE('',#1065);
#1065 = AXIS2_PLACEMENT_3D('',#1066,#1067,#1068);
#1066 = CARTESIAN_POINT('',(112.3,-13.,12.99));
#1067 = DIRECTION('',(0.,1.,0.));
#1068 = DIRECTION('',(0.,0.,1.));
#1069 = ADVANCED_FACE('',(#1070),#1076,.F.);
#1070 = FACE_BOUND('',#1071,.F.);
#1071 = EDGE_LOOP('',(#1072,#1073,#1074,#1075));
#1072 = ORIENTED_EDGE('',*,*,#959,.F.);
#1073 = ORIENTED_EDGE('',*,*,#1029,.T.);
#1074 = ORIENTED_EDGE('',*,*,#999,.T.);
#1075 = ORIENTED_EDGE('',*,*,#1051,.F.);
#1076 = PLANE('',#1077);
#1077 = AXIS2_PLACEMENT_3D('',#1078,#1079,#1080);
#1078 = CARTESIAN_POINT('',(112.3,-14.3,12.99));
#1079 = DIRECTION('',(0.,0.,1.));
#1080 = DIRECTION('',(1.,0.,0.));
#1081 = ADVANCED_FACE('',(#1082),#1088,.T.);
#1082 = FACE_BOUND('',#1083,.T.);
#1083 = EDGE_LOOP('',(#1084,#1085,#1086,#1087));
#1084 = ORIENTED_EDGE('',*,*,#975,.F.);
#1085 = ORIENTED_EDGE('',*,*,#1036,.T.);
#1086 = ORIENTED_EDGE('',*,*,#1015,.T.);
#1087 = ORIENTED_EDGE('',*,*,#1058,.F.);
#1088 = PLANE('',#1089);
#1089 = AXIS2_PLACEMENT_3D('',#1090,#1091,#1092);
#1090 = CARTESIAN_POINT('',(112.3,-14.3,13.39));
#1091 = DIRECTION('',(0.,0.,1.));
#1092 = DIRECTION('',(1.,0.,0.));
#1093 = MANIFOLD_SOLID_BREP('',#1094);
#1094 = CLOSED_SHELL('',(#1095,#1135,#1175,#1197,#1219,#1231));
#1095 = ADVANCED_FACE('',(#1096),#1130,.F.);
#1096 = FACE_BOUND('',#1097,.F.);
#1097 = EDGE_LOOP('',(#1098,#1108,#1116,#1124));
#1098 = ORIENTED_EDGE('',*,*,#1099,.F.);
#1099 = EDGE_CURVE('',#1100,#1102,#1104,.T.);
#1100 = VERTEX_POINT('',#1101);
#1101 = CARTESIAN_POINT('',(125.,-14.3,12.99));
#1102 = VERTEX_POINT('',#1103);
#1103 = CARTESIAN_POINT('',(125.,-14.3,13.39));
#1104 = LINE('',#1105,#1106);
#1105 = CARTESIAN_POINT('',(125.,-14.3,12.99));
#1106 = VECTOR('',#1107,1.);
#1107 = DIRECTION('',(0.,0.,1.));
#1108 = ORIENTED_EDGE('',*,*,#1109,.T.);
#1109 = EDGE_CURVE('',#1100,#1110,#1112,.T.);
#1110 = VERTEX_POINT('',#1111);
#1111 = CARTESIAN_POINT('',(125.,-13.,12.99));
#1112 = LINE('',#1113,#1114);
#1113 = CARTESIAN_POINT('',(125.,-14.3,12.99));
#1114 = VECTOR('',#1115,1.);
#1115 = DIRECTION('',(0.,1.,0.));
#1116 = ORIENTED_EDGE('',*,*,#1117,.T.);
#1117 = EDGE_CURVE('',#1110,#1118,#1120,.T.);
#1118 = VERTEX_POINT('',#1119);
#1119 = CARTESIAN_POINT('',(125.,-13.,13.39));
#1120 = LINE('',#1121,#1122);
#1121 = CARTESIAN_POINT('',(125.,-13.,12.99));
#1122 = VECTOR('',#1123,1.);
#1123 = DIRECTION('',(0.,0.,1.));
#1124 = ORIENTED_EDGE('',*,*,#1125,.F.);
#1125 = EDGE_CURVE('',#1102,#1118,#1126,.T.);
#1126 = LINE('',#1127,#1128);
#1127 = CARTESIAN_POINT('',(125.,-14.3,13.39));
#1128 = VECTOR('',#1129,1.);
#1129 = DIRECTION('',(0.,1.,0.));
#1130 = PLANE('',#1131);
#1131 = AXIS2_PLACEMENT_3D('',#1132,#1133,#1134);
#1132 = CARTESIAN_POINT('',(125.,-14.3,12.99));
#1133 = DIRECTION('',(1.,0.,0.));
#1134 = DIRECTION('',(0.,0.,1.));
#1135 = ADVANCED_FACE('',(#1136),#1170,.T.);
#1136 = FACE_BOUND('',#1137,.T.);
#1137 = EDGE_LOOP('',(#1138,#1148,#1156,#1164));
#1138 = ORIENTED_EDGE('',*,*,#1139,.F.);
#1139 = EDGE_CURVE('',#1140,#1142,#1144,.T.);
#1140 = VERTEX_POINT('',#1141);
#1141 = CARTESIAN_POINT('',(133.5,-14.3,12.99));
#1142 = VERTEX_POINT('',#1143);
#1143 = CARTESIAN_POINT('',(133.5,-14.3,13.39));
#1144 = LINE('',#1145,#1146);
#1145 = CARTESIAN_POINT('',(133.5,-14.3,12.99));
#1146 = VECTOR('',#1147,1.);
#1147 = DIRECTION('',(0.,0.,1.));
#1148 = ORIENTED_EDGE('',*,*,#1149,.T.);
#1149 = EDGE_CURVE('',#1140,#1150,#1152,.T.);
#1150 = VERTEX_POINT('',#1151);
#1151 = CARTESIAN_POINT('',(133.5,-13.,12.99));
#1152 = LINE('',#1153,#1154);
#1153 = CARTESIAN_POINT('',(133.5,-14.3,12.99));
#1154 = VECTOR('',#1155,1.);
#1155 = DIRECTION('',(0.,1.,0.));
#1156 = ORIENTED_EDGE('',*,*,#1157,.T.);
#1157 = EDGE_CURVE('',#1150,#1158,#1160,.T.);
#1158 = VERTEX_POINT('',#1159);
#1159 = CARTESIAN_POINT('',(133.5,-13.,13.39));
#1160 = LINE('',#1161,#1162);
#1161 = CARTESIAN_POINT('',(133.5,-13.,12.99));
#1162 = VECTOR('',#1163,1.);
#1163 = DIRECTION('',(0.,0.,1.));
#1164 = ORIENTED_EDGE('',*,*,#1165,.F.);
#1165 = EDGE_CURVE('',#1142,#1158,#1166,.T.);
#1166 = LINE('',#1167,#1168);
#1167 = CARTESIAN_POINT('',(133.5,-14.3,13.39));
#1168 = VECTOR('',#1169,1.);
#1169 = DIRECTION('',(0.,1.,0.));
#1170 = PLANE('',#1171);
#1171 = AXIS2_PLACEMENT_3D('',#1172,#1173,#1174);
#1172 = CARTESIAN_POINT('',(133.5,-14.3,12.99));
#1173 = DIRECTION('',(1.,0.,0.));
#1174 = DIRECTION('',(0.,0.,1.));
#1175 = ADVANCED_FACE('',(#1176),#1192,.F.);
#1176 = FACE_BOUND('',#1177,.F.);
#1177 = EDGE_LOOP('',(#1178,#1184,#1185,#1191));
#1178 = ORIENTED_EDGE('',*,*,#1179,.F.);
#1179 = EDGE_CURVE('',#1100,#1140,#1180,.T.);
#1180 = LINE('',#1181,#1182);
#1181 = CARTESIAN_POINT('',(125.,-14.3,12.99));
#1182 = VECTOR('',#1183,1.);
#1183 = DIRECTION('',(1.,0.,0.));
#1184 = ORIENTED_EDGE('',*,*,#1099,.T.);
#1185 = ORIENTED_EDGE('',*,*,#1186,.T.);
#1186 = EDGE_CURVE('',#1102,#1142,#1187,.T.);
#1187 = LINE('',#1188,#1189);
#1188 = CARTESIAN_POINT('',(125.,-14.3,13.39));
#1189 = VECTOR('',#1190,1.);
#1190 = DIRECTION('',(1.,0.,0.));
#1191 = ORIENTED_EDGE('',*,*,#1139,.F.);
#1192 = PLANE('',#1193);
#1193 = AXIS2_PLACEMENT_3D('',#1194,#1195,#1196);
#1194 = CARTESIAN_POINT('',(125.,-14.3,12.99));
#1195 = DIRECTION('',(0.,1.,0.));
#1196 = DIRECTION('',(0.,0.,1.));
#1197 = ADVANCED_FACE('',(#1198),#1214,.T.);
#1198 = FACE_BOUND('',#1199,.T.);
#1199 = EDGE_LOOP('',(#1200,#1206,#1207,#1213));
#1200 = ORIENTED_EDGE('',*,*,#1201,.F.);
#1201 = EDGE_CURVE('',#1110,#1150,#1202,.T.);
#1202 = LINE('',#1203,#1204);
#1203 = CARTESIAN_POINT('',(125.,-13.,12.99));
#1204 = VECTOR('',#1205,1.);
#1205 = DIRECTION('',(1.,0.,0.));
#1206 = ORIENTED_EDGE('',*,*,#1117,.T.);
#1207 = ORIENTED_EDGE('',*,*,#1208,.T.);
#1208 = EDGE_CURVE('',#1118,#1158,#1209,.T.);
#1209 = LINE('',#1210,#1211);
#1210 = CARTESIAN_POINT('',(125.,-13.,13.39));
#1211 = VECTOR('',#1212,1.);
#1212 = DIRECTION('',(1.,0.,0.));
#1213 = ORIENTED_EDGE('',*,*,#1157,.F.);
#1214 = PLANE('',#1215);
#1215 = AXIS2_PLACEMENT_3D('',#1216,#1217,#1218);
#1216 = CARTESIAN_POINT('',(125.,-13.,12.99));
#1217 = DIRECTION('',(0.,1.,0.));
#1218 = DIRECTION('',(0.,0.,1.));
#1219 = ADVANCED_FACE('',(#1220),#1226,.F.);
#1220 = FACE_BOUND('',#1221,.F.);
#1221 = EDGE_LOOP('',(#1222,#1223,#1224,#1225));
#1222 = ORIENTED_EDGE('',*,*,#1109,.F.);
#1223 = ORIENTED_EDGE('',*,*,#1179,.T.);
#1224 = ORIENTED_EDGE('',*,*,#1149,.T.);
#1225 = ORIENTED_EDGE('',*,*,#1201,.F.);
#1226 = PLANE('',#1227);
#1227 = AXIS2_PLACEMENT_3D('',#1228,#1229,#1230);
#1228 = CARTESIAN_POINT('',(125.,-14.3,12.99));
#1229 = DIRECTION('',(0.,0.,1.));
#1230 = DIRECTION('',(1.,0.,0.));
#1231 = ADVANCED_FACE('',(#1232),#1238,.T.);
#1232 = FACE_BOUND('',#1233,.T.);
#1233 = EDGE_LOOP('',(#1234,#1235,#1236,#1237));
#1234 = ORIENTED_EDGE('',*,*,#1125,.F.);
#1235 = ORIENTED_EDGE('',*,*,#1186,.T.);
#1236 = ORIENTED_EDGE('',*,*,#1165,.T.);
#1237 = ORIENTED_EDGE('',*,*,#1208,.F.);
#1238 = PLANE('',#1239);
#1239 = AXIS2_PLACEMENT_3D('',#1240,#1241,#1242);
#1240 = CARTESIAN_POINT('',(125.,-14.3,13.39));
#1241 = DIRECTION('',(0.,0.,1.));
#1242 = DIRECTION('',(1.,0.,0.));
#1243 = ( GEOMETRIC_REPRESENTATION_CONTEXT(3) 
GLOBAL_UNCERTAINTY_ASSIGNED_CONTEXT((#1247)) 
GLOBAL_UNIT_ASSIGNED_CONTEXT((#1244,#1245,#1246)) REPRESENTATION_CONTEXT
('Context #1','3D Context with UNIT and UNCERTAINTY') );
#1244 = ( LENGTH_UNIT() NAMED_UNIT(*) SI_UNIT(.MILLI.,.METRE.) );
#1245 = ( NAMED_UNIT(*) PLANE_ANGLE_UNIT() SI_UNIT($,.RADIAN.) );
#1246 = ( NAMED_UNIT(*) SI_UNIT($,.STERADIAN.) SOLID_ANGLE_UNIT() );
#1247 = UNCERTAINTY_MEASURE_WITH_UNIT(LENGTH_MEASURE(1.E-05),#1244,
  'distance_accuracy_value','confusion accuracy');
#1248 = PRODUCT_RELATED_PRODUCT_CATEGORY('part',$,(#7));
ENDSEC;
END-ISO-10303-21;
