ISO-10303-21;
HEADER;
FILE_DESCRIPTION(('FreeCAD Model'),'2;1');
FILE_NAME('Open CASCADE Shape Model','2026-09-28T17:20:11',('FreeCAD'),(
    'FreeCAD'),'Open CASCADE STEP processor 7.8','FreeCAD','Unknown');
FILE_SCHEMA(('AUTOMOTIVE_DESIGN { 1 0 10303 214 1 1 1 1 }'));
ENDSEC;
DATA;
#1 = APPLICATION_PROTOCOL_DEFINITION('international standard',
  'automotive_design',2000,#2);
#2 = APPLICATION_CONTEXT(
  'core data for automotive mechanical design processes');
#3 = SHAPE_DEFINITION_REPRESENTATION(#4,#10);
#4 = PRODUCT_DEFINITION_SHAPE('','',#5);
#5 = PRODUCT_DEFINITION('design','',#6,#9);
#6 = PRODUCT_DEFINITION_FORMATION('','',#7);
#7 = PRODUCT('Open CASCADE STEP translator 7.8 63',
  'Open CASCADE STEP translator 7.8 63','',(#8));
#8 = PRODUCT_CONTEXT('',#2,'mechanical');
#9 = PRODUCT_DEFINITION_CONTEXT('part definition',#2,'design');
#10 = ADVANCED_BREP_SHAPE_REPRESENTATION('',(#11,#15),#857);
#11 = AXIS2_PLACEMENT_3D('',#12,#13,#14);
#12 = CARTESIAN_POINT('',(0.,0.,0.));
#13 = DIRECTION('',(0.,0.,1.));
#14 = DIRECTION('',(1.,0.,-0.));
#15 = MANIFOLD_SOLID_BREP('',#16);
#16 = CLOSED_SHELL('',(#17,#57,#90,#123,#314,#505,#522,#539,#556,#573,
    #585,#607,#624,#641,#658,#675,#692,#709,#721,#743,#760,#777,#794,
    #811,#828,#845));
#17 = ADVANCED_FACE('',(#18),#52,.T.);
#18 = FACE_BOUND('',#19,.T.);
#19 = EDGE_LOOP('',(#20,#30,#38,#46));
#20 = ORIENTED_EDGE('',*,*,#21,.T.);
#21 = EDGE_CURVE('',#22,#24,#26,.T.);
#22 = VERTEX_POINT('',#23);
#23 = CARTESIAN_POINT('',(113.3,-12.2,12.99));
#24 = VERTEX_POINT('',#25);
#25 = CARTESIAN_POINT('',(113.3,-12.2,13.39));
#26 = LINE('',#27,#28);
#27 = CARTESIAN_POINT('',(113.3,-12.2,12.99));
#28 = VECTOR('',#29,1.);
#29 = DIRECTION('',(0.,0.,1.));
#30 = ORIENTED_EDGE('',*,*,#31,.T.);
#31 = EDGE_CURVE('',#24,#32,#34,.T.);
#32 = VERTEX_POINT('',#33);
#33 = CARTESIAN_POINT('',(132.7,-12.2,13.39));
#34 = LINE('',#35,#36);
#35 = CARTESIAN_POINT('',(113.3,-12.2,13.39));
#36 = VECTOR('',#37,1.);
#37 = DIRECTION('',(1.,0.,0.));
#38 = ORIENTED_EDGE('',*,*,#39,.F.);
#39 = EDGE_CURVE('',#40,#32,#42,.T.);
#40 = VERTEX_POINT('',#41);
#41 = CARTESIAN_POINT('',(132.7,-12.2,12.99));
#42 = LINE('',#43,#44);
#43 = CARTESIAN_POINT('',(132.7,-12.2,12.99));
#44 = VECTOR('',#45,1.);
#45 = DIRECTION('',(0.,0.,1.));
#46 = ORIENTED_EDGE('',*,*,#47,.F.);
#47 = EDGE_CURVE('',#22,#40,#48,.T.);
#48 = LINE('',#49,#50);
#49 = CARTESIAN_POINT('',(113.3,-12.2,12.99));
#50 = VECTOR('',#51,1.);
#51 = DIRECTION('',(1.,0.,0.));
#52 = PLANE('',#53);
#53 = AXIS2_PLACEMENT_3D('',#54,#55,#56);
#54 = CARTESIAN_POINT('',(113.3,-12.2,12.99));
#55 = DIRECTION('',(0.,1.,0.));
#56 = DIRECTION('',(1.,0.,0.));
#57 = ADVANCED_FACE('',(#58),#85,.T.);
#58 = FACE_BOUND('',#59,.T.);
#59 = EDGE_LOOP('',(#60,#70,#77,#78));
#60 = ORIENTED_EDGE('',*,*,#61,.T.);
#61 = EDGE_CURVE('',#62,#64,#66,.T.);
#62 = VERTEX_POINT('',#63);
#63 = CARTESIAN_POINT('',(112.2,-13.3,12.99));
#64 = VERTEX_POINT('',#65);
#65 = CARTESIAN_POINT('',(112.2,-13.3,13.39));
#66 = LINE('',#67,#68);
#67 = CARTESIAN_POINT('',(112.2,-13.3,12.99));
#68 = VECTOR('',#69,1.);
#69 = DIRECTION('',(0.,0.,1.));
#70 = ORIENTED_EDGE('',*,*,#71,.T.);
#71 = EDGE_CURVE('',#64,#24,#72,.T.);
#72 = CIRCLE('',#73,1.1);
#73 = AXIS2_PLACEMENT_3D('',#74,#75,#76);
#74 = CARTESIAN_POINT('',(113.3,-13.3,13.39));
#75 = DIRECTION('',(0.,0.,-1.));
#76 = DIRECTION('',(-1.,0.,0.));
#77 = ORIENTED_EDGE('',*,*,#21,.F.);
#78 = ORIENTED_EDGE('',*,*,#79,.F.);
#79 = EDGE_CURVE('',#62,#22,#80,.T.);
#80 = CIRCLE('',#81,1.1);
#81 = AXIS2_PLACEMENT_3D('',#82,#83,#84);
#82 = CARTESIAN_POINT('',(113.3,-13.3,12.99));
#83 = DIRECTION('',(0.,0.,-1.));
#84 = DIRECTION('',(-1.,0.,0.));
#85 = CYLINDRICAL_SURFACE('',#86,1.1);
#86 = AXIS2_PLACEMENT_3D('',#87,#88,#89);
#87 = CARTESIAN_POINT('',(113.3,-13.3,12.99));
#88 = DIRECTION('',(0.,0.,-1.));
#89 = DIRECTION('',(-1.,0.,0.));
#90 = ADVANCED_FACE('',(#91),#118,.T.);
#91 = FACE_BOUND('',#92,.T.);
#92 = EDGE_LOOP('',(#93,#94,#103,#111));
#93 = ORIENTED_EDGE('',*,*,#39,.T.);
#94 = ORIENTED_EDGE('',*,*,#95,.T.);
#95 = EDGE_CURVE('',#32,#96,#98,.T.);
#96 = VERTEX_POINT('',#97);
#97 = CARTESIAN_POINT('',(133.8,-13.3,13.39));
#98 = CIRCLE('',#99,1.1);
#99 = AXIS2_PLACEMENT_3D('',#100,#101,#102);
#100 = CARTESIAN_POINT('',(132.7,-13.3,13.39));
#101 = DIRECTION('',(0.,0.,-1.));
#102 = DIRECTION('',(0.,1.,0.));
#103 = ORIENTED_EDGE('',*,*,#104,.F.);
#104 = EDGE_CURVE('',#105,#96,#107,.T.);
#105 = VERTEX_POINT('',#106);
#106 = CARTESIAN_POINT('',(133.8,-13.3,12.99));
#107 = LINE('',#108,#109);
#108 = CARTESIAN_POINT('',(133.8,-13.3,12.99));
#109 = VECTOR('',#110,1.);
#110 = DIRECTION('',(0.,0.,1.));
#111 = ORIENTED_EDGE('',*,*,#112,.F.);
#112 = EDGE_CURVE('',#40,#105,#113,.T.);
#113 = CIRCLE('',#114,1.1);
#114 = AXIS2_PLACEMENT_3D('',#115,#116,#117);
#115 = CARTESIAN_POINT('',(132.7,-13.3,12.99));
#116 = DIRECTION('',(0.,0.,-1.));
#117 = DIRECTION('',(0.,1.,0.));
#118 = CYLINDRICAL_SURFACE('',#119,1.1);
#119 = AXIS2_PLACEMENT_3D('',#120,#121,#122);
#120 = CARTESIAN_POINT('',(132.7,-13.3,12.99));
#121 = DIRECTION('',(0.,0.,-1.));
#122 = DIRECTION('',(0.,1.,0.));
#123 = ADVANCED_FACE('',(#124,#169,#239),#309,.T.);
#124 = FACE_BOUND('',#125,.T.);
#125 = EDGE_LOOP('',(#126,#127,#128,#136,#145,#153,#162,#168));
#126 = ORIENTED_EDGE('',*,*,#47,.T.);
#127 = ORIENTED_EDGE('',*,*,#112,.T.);
#128 = ORIENTED_EDGE('',*,*,#129,.T.);
#129 = EDGE_CURVE('',#105,#130,#132,.T.);
#130 = VERTEX_POINT('',#131);
#131 = CARTESIAN_POINT('',(133.8,-53.,12.99));
#132 = LINE('',#133,#134);
#133 = CARTESIAN_POINT('',(133.8,-13.3,12.99));
#134 = VECTOR('',#135,1.);
#135 = DIRECTION('',(0.,-1.,0.));
#136 = ORIENTED_EDGE('',*,*,#137,.T.);
#137 = EDGE_CURVE('',#130,#138,#140,.T.);
#138 = VERTEX_POINT('',#139);
#139 = CARTESIAN_POINT('',(132.7,-54.1,12.99));
#140 = CIRCLE('',#141,1.1);
#141 = AXIS2_PLACEMENT_3D('',#142,#143,#144);
#142 = CARTESIAN_POINT('',(132.7,-53.,12.99));
#143 = DIRECTION('',(0.,0.,-1.));
#144 = DIRECTION('',(1.,6.46E-15,0.));
#145 = ORIENTED_EDGE('',*,*,#146,.T.);
#146 = EDGE_CURVE('',#138,#147,#149,.T.);
#147 = VERTEX_POINT('',#148);
#148 = CARTESIAN_POINT('',(113.3,-54.1,12.99));
#149 = LINE('',#150,#151);
#150 = CARTESIAN_POINT('',(132.7,-54.1,12.99));
#151 = VECTOR('',#152,1.);
#152 = DIRECTION('',(-1.,0.,0.));
#153 = ORIENTED_EDGE('',*,*,#154,.T.);
#154 = EDGE_CURVE('',#147,#155,#157,.T.);
#155 = VERTEX_POINT('',#156);
#156 = CARTESIAN_POINT('',(112.2,-53.,12.99));
#157 = CIRCLE('',#158,1.1);
#158 = AXIS2_PLACEMENT_3D('',#159,#160,#161);
#159 = CARTESIAN_POINT('',(113.3,-53.,12.99));
#160 = DIRECTION('',(0.,0.,-1.));
#161 = DIRECTION('',(0.,-1.,0.));
#162 = ORIENTED_EDGE('',*,*,#163,.T.);
#163 = EDGE_CURVE('',#155,#62,#164,.T.);
#164 = LINE('',#165,#166);
#165 = CARTESIAN_POINT('',(112.2,-53.,12.99));
#166 = VECTOR('',#167,1.);
#167 = DIRECTION('',(0.,1.,0.));
#168 = ORIENTED_EDGE('',*,*,#79,.T.);
#169 = FACE_BOUND('',#170,.T.);
#170 = EDGE_LOOP('',(#171,#182,#190,#199,#207,#216,#224,#233));
#171 = ORIENTED_EDGE('',*,*,#172,.F.);
#172 = EDGE_CURVE('',#173,#175,#177,.T.);
#173 = VERTEX_POINT('',#174);
#174 = CARTESIAN_POINT('',(114.45,-14.95,12.99));
#175 = VERTEX_POINT('',#176);
#176 = CARTESIAN_POINT('',(114.75,-14.65,12.99));
#177 = CIRCLE('',#178,0.3);
#178 = AXIS2_PLACEMENT_3D('',#179,#180,#181);
#179 = CARTESIAN_POINT('',(114.75,-14.95,12.99));
#180 = DIRECTION('',(0.,0.,-1.));
#181 = DIRECTION('',(-1.,-5.92E-15,-0.));
#182 = ORIENTED_EDGE('',*,*,#183,.F.);
#183 = EDGE_CURVE('',#184,#173,#186,.T.);
#184 = VERTEX_POINT('',#185);
#185 = CARTESIAN_POINT('',(114.45,-52.95,12.99));
#186 = LINE('',#187,#188);
#187 = CARTESIAN_POINT('',(114.45,-52.95,12.99));
#188 = VECTOR('',#189,1.);
#189 = DIRECTION('',(0.,1.,0.));
#190 = ORIENTED_EDGE('',*,*,#191,.F.);
#191 = EDGE_CURVE('',#192,#184,#194,.T.);
#192 = VERTEX_POINT('',#193);
#193 = CARTESIAN_POINT('',(114.75,-53.25,12.99));
#194 = CIRCLE('',#195,0.3);
#195 = AXIS2_PLACEMENT_3D('',#196,#197,#198);
#196 = CARTESIAN_POINT('',(114.75,-52.95,12.99));
#197 = DIRECTION('',(0.,0.,-1.));
#198 = DIRECTION('',(0.,-1.,0.));
#199 = ORIENTED_EDGE('',*,*,#200,.F.);
#200 = EDGE_CURVE('',#201,#192,#203,.T.);
#201 = VERTEX_POINT('',#202);
#202 = CARTESIAN_POINT('',(130.85,-53.25,12.99));
#203 = LINE('',#204,#205);
#204 = CARTESIAN_POINT('',(130.85,-53.25,12.99));
#205 = VECTOR('',#206,1.);
#206 = DIRECTION('',(-1.,0.,0.));
#207 = ORIENTED_EDGE('',*,*,#208,.F.);
#208 = EDGE_CURVE('',#209,#201,#211,.T.);
#209 = VERTEX_POINT('',#210);
#210 = CARTESIAN_POINT('',(131.15,-52.95,12.99));
#211 = CIRCLE('',#212,0.3);
#212 = AXIS2_PLACEMENT_3D('',#213,#214,#215);
#213 = CARTESIAN_POINT('',(130.85,-52.95,12.99));
#214 = DIRECTION('',(0.,0.,-1.));
#215 = DIRECTION('',(1.,4.737E-14,0.));
#216 = ORIENTED_EDGE('',*,*,#217,.F.);
#217 = EDGE_CURVE('',#218,#209,#220,.T.);
#218 = VERTEX_POINT('',#219);
#219 = CARTESIAN_POINT('',(131.15,-14.95,12.99));
#220 = LINE('',#221,#222);
#221 = CARTESIAN_POINT('',(131.15,-14.95,12.99));
#222 = VECTOR('',#223,1.);
#223 = DIRECTION('',(0.,-1.,0.));
#224 = ORIENTED_EDGE('',*,*,#225,.F.);
#225 = EDGE_CURVE('',#226,#218,#228,.T.);
#226 = VERTEX_POINT('',#227);
#227 = CARTESIAN_POINT('',(130.85,-14.65,12.99));
#228 = CIRCLE('',#229,0.3);
#229 = AXIS2_PLACEMENT_3D('',#230,#231,#232);
#230 = CARTESIAN_POINT('',(130.85,-14.95,12.99));
#231 = DIRECTION('',(0.,0.,-1.));
#232 = DIRECTION('',(-9.474E-14,1.,0.));
#233 = ORIENTED_EDGE('',*,*,#234,.F.);
#234 = EDGE_CURVE('',#175,#226,#235,.T.);
#235 = LINE('',#236,#237);
#236 = CARTESIAN_POINT('',(114.75,-14.65,12.99));
#237 = VECTOR('',#238,1.);
#238 = DIRECTION('',(1.,0.,0.));
#239 = FACE_BOUND('',#240,.T.);
#240 = EDGE_LOOP('',(#241,#251,#260,#268,#277,#285,#294,#302));
#241 = ORIENTED_EDGE('',*,*,#242,.F.);
#242 = EDGE_CURVE('',#243,#245,#247,.T.);
#243 = VERTEX_POINT('',#244);
#244 = CARTESIAN_POINT('',(121.6,-12.8,12.99));
#245 = VERTEX_POINT('',#246);
#246 = CARTESIAN_POINT('',(124.4,-12.8,12.99));
#247 = LINE('',#248,#249);
#248 = CARTESIAN_POINT('',(121.6,-12.8,12.99));
#249 = VECTOR('',#250,1.);
#250 = DIRECTION('',(1.,0.,0.));
#251 = ORIENTED_EDGE('',*,*,#252,.F.);
#252 = EDGE_CURVE('',#253,#243,#255,.T.);
#253 = VERTEX_POINT('',#254);
#254 = CARTESIAN_POINT('',(121.,-13.4,12.99));
#255 = CIRCLE('',#256,0.6);
#256 = AXIS2_PLACEMENT_3D('',#257,#258,#259);
#257 = CARTESIAN_POINT('',(121.6,-13.4,12.99));
#258 = DIRECTION('',(0.,0.,-1.));
#259 = DIRECTION('',(-1.,8.88E-15,0.));
#260 = ORIENTED_EDGE('',*,*,#261,.F.);
#261 = EDGE_CURVE('',#262,#253,#264,.T.);
#262 = VERTEX_POINT('',#263);
#263 = CARTESIAN_POINT('',(121.,-13.6,12.99));
#264 = LINE('',#265,#266);
#265 = CARTESIAN_POINT('',(121.,-13.6,12.99));
#266 = VECTOR('',#267,1.);
#267 = DIRECTION('',(0.,1.,0.));
#268 = ORIENTED_EDGE('',*,*,#269,.F.);
#269 = EDGE_CURVE('',#270,#262,#272,.T.);
#270 = VERTEX_POINT('',#271);
#271 = CARTESIAN_POINT('',(121.6,-14.2,12.99));
#272 = CIRCLE('',#273,0.6);
#273 = AXIS2_PLACEMENT_3D('',#274,#275,#276);
#274 = CARTESIAN_POINT('',(121.6,-13.6,12.99));
#275 = DIRECTION('',(0.,0.,-1.));
#276 = DIRECTION('',(-2.368E-14,-1.,-0.));
#277 = ORIENTED_EDGE('',*,*,#278,.F.);
#278 = EDGE_CURVE('',#279,#270,#281,.T.);
#279 = VERTEX_POINT('',#280);
#280 = CARTESIAN_POINT('',(124.4,-14.2,12.99));
#281 = LINE('',#282,#283);
#282 = CARTESIAN_POINT('',(124.4,-14.2,12.99));
#283 = VECTOR('',#284,1.);
#284 = DIRECTION('',(-1.,0.,0.));
#285 = ORIENTED_EDGE('',*,*,#286,.F.);
#286 = EDGE_CURVE('',#287,#279,#289,.T.);
#287 = VERTEX_POINT('',#288);
#288 = CARTESIAN_POINT('',(125.,-13.6,12.99));
#289 = CIRCLE('',#290,0.6);
#290 = AXIS2_PLACEMENT_3D('',#291,#292,#293);
#291 = CARTESIAN_POINT('',(124.4,-13.6,12.99));
#292 = DIRECTION('',(0.,0.,-1.));
#293 = DIRECTION('',(1.,-8.88E-15,0.));
#294 = ORIENTED_EDGE('',*,*,#295,.F.);
#295 = EDGE_CURVE('',#296,#287,#298,.T.);
#296 = VERTEX_POINT('',#297);
#297 = CARTESIAN_POINT('',(125.,-13.4,12.99));
#298 = LINE('',#299,#300);
#299 = CARTESIAN_POINT('',(125.,-13.4,12.99));
#300 = VECTOR('',#301,1.);
#301 = DIRECTION('',(0.,-1.,0.));
#302 = ORIENTED_EDGE('',*,*,#303,.F.);
#303 = EDGE_CURVE('',#245,#296,#304,.T.);
#304 = CIRCLE('',#305,0.6);
#305 = AXIS2_PLACEMENT_3D('',#306,#307,#308);
#306 = CARTESIAN_POINT('',(124.4,-13.4,12.99));
#307 = DIRECTION('',(0.,0.,-1.));
#308 = DIRECTION('',(2.368E-14,1.,0.));
#309 = PLANE('',#310);
#310 = AXIS2_PLACEMENT_3D('',#311,#312,#313);
#311 = CARTESIAN_POINT('',(123.,-33.15,12.99));
#312 = DIRECTION('',(-0.,-0.,-1.));
#313 = DIRECTION('',(-1.,0.,0.));
#314 = ADVANCED_FACE('',(#315,#360,#430),#500,.T.);
#315 = FACE_BOUND('',#316,.T.);
#316 = EDGE_LOOP('',(#317,#318,#319,#327,#336,#344,#353,#359));
#317 = ORIENTED_EDGE('',*,*,#31,.F.);
#318 = ORIENTED_EDGE('',*,*,#71,.F.);
#319 = ORIENTED_EDGE('',*,*,#320,.F.);
#320 = EDGE_CURVE('',#321,#64,#323,.T.);
#321 = VERTEX_POINT('',#322);
#322 = CARTESIAN_POINT('',(112.2,-53.,13.39));
#323 = LINE('',#324,#325);
#324 = CARTESIAN_POINT('',(112.2,-53.,13.39));
#325 = VECTOR('',#326,1.);
#326 = DIRECTION('',(0.,1.,0.));
#327 = ORIENTED_EDGE('',*,*,#328,.F.);
#328 = EDGE_CURVE('',#329,#321,#331,.T.);
#329 = VERTEX_POINT('',#330);
#330 = CARTESIAN_POINT('',(113.3,-54.1,13.39));
#331 = CIRCLE('',#332,1.1);
#332 = AXIS2_PLACEMENT_3D('',#333,#334,#335);
#333 = CARTESIAN_POINT('',(113.3,-53.,13.39));
#334 = DIRECTION('',(0.,0.,-1.));
#335 = DIRECTION('',(0.,-1.,0.));
#336 = ORIENTED_EDGE('',*,*,#337,.F.);
#337 = EDGE_CURVE('',#338,#329,#340,.T.);
#338 = VERTEX_POINT('',#339);
#339 = CARTESIAN_POINT('',(132.7,-54.1,13.39));
#340 = LINE('',#341,#342);
#341 = CARTESIAN_POINT('',(132.7,-54.1,13.39));
#342 = VECTOR('',#343,1.);
#343 = DIRECTION('',(-1.,0.,0.));
#344 = ORIENTED_EDGE('',*,*,#345,.F.);
#345 = EDGE_CURVE('',#346,#338,#348,.T.);
#346 = VERTEX_POINT('',#347);
#347 = CARTESIAN_POINT('',(133.8,-53.,13.39));
#348 = CIRCLE('',#349,1.1);
#349 = AXIS2_PLACEMENT_3D('',#350,#351,#352);
#350 = CARTESIAN_POINT('',(132.7,-53.,13.39));
#351 = DIRECTION('',(0.,0.,-1.));
#352 = DIRECTION('',(1.,6.46E-15,0.));
#353 = ORIENTED_EDGE('',*,*,#354,.F.);
#354 = EDGE_CURVE('',#96,#346,#355,.T.);
#355 = LINE('',#356,#357);
#356 = CARTESIAN_POINT('',(133.8,-13.3,13.39));
#357 = VECTOR('',#358,1.);
#358 = DIRECTION('',(0.,-1.,0.));
#359 = ORIENTED_EDGE('',*,*,#95,.F.);
#360 = FACE_BOUND('',#361,.T.);
#361 = EDGE_LOOP('',(#362,#373,#381,#390,#398,#407,#415,#424));
#362 = ORIENTED_EDGE('',*,*,#363,.T.);
#363 = EDGE_CURVE('',#364,#366,#368,.T.);
#364 = VERTEX_POINT('',#365);
#365 = CARTESIAN_POINT('',(114.45,-14.95,13.39));
#366 = VERTEX_POINT('',#367);
#367 = CARTESIAN_POINT('',(114.75,-14.65,13.39));
#368 = CIRCLE('',#369,0.3);
#369 = AXIS2_PLACEMENT_3D('',#370,#371,#372);
#370 = CARTESIAN_POINT('',(114.75,-14.95,13.39));
#371 = DIRECTION('',(0.,0.,-1.));
#372 = DIRECTION('',(-1.,-5.92E-15,-0.));
#373 = ORIENTED_EDGE('',*,*,#374,.T.);
#374 = EDGE_CURVE('',#366,#375,#377,.T.);
#375 = VERTEX_POINT('',#376);
#376 = CARTESIAN_POINT('',(130.85,-14.65,13.39));
#377 = LINE('',#378,#379);
#378 = CARTESIAN_POINT('',(114.75,-14.65,13.39));
#379 = VECTOR('',#380,1.);
#380 = DIRECTION('',(1.,0.,0.));
#381 = ORIENTED_EDGE('',*,*,#382,.T.);
#382 = EDGE_CURVE('',#375,#383,#385,.T.);
#383 = VERTEX_POINT('',#384);
#384 = CARTESIAN_POINT('',(131.15,-14.95,13.39));
#385 = CIRCLE('',#386,0.3);
#386 = AXIS2_PLACEMENT_3D('',#387,#388,#389);
#387 = CARTESIAN_POINT('',(130.85,-14.95,13.39));
#388 = DIRECTION('',(0.,0.,-1.));
#389 = DIRECTION('',(-9.474E-14,1.,0.));
#390 = ORIENTED_EDGE('',*,*,#391,.T.);
#391 = EDGE_CURVE('',#383,#392,#394,.T.);
#392 = VERTEX_POINT('',#393);
#393 = CARTESIAN_POINT('',(131.15,-52.95,13.39));
#394 = LINE('',#395,#396);
#395 = CARTESIAN_POINT('',(131.15,-14.95,13.39));
#396 = VECTOR('',#397,1.);
#397 = DIRECTION('',(0.,-1.,0.));
#398 = ORIENTED_EDGE('',*,*,#399,.T.);
#399 = EDGE_CURVE('',#392,#400,#402,.T.);
#400 = VERTEX_POINT('',#401);
#401 = CARTESIAN_POINT('',(130.85,-53.25,13.39));
#402 = CIRCLE('',#403,0.3);
#403 = AXIS2_PLACEMENT_3D('',#404,#405,#406);
#404 = CARTESIAN_POINT('',(130.85,-52.95,13.39));
#405 = DIRECTION('',(0.,0.,-1.));
#406 = DIRECTION('',(1.,4.737E-14,0.));
#407 = ORIENTED_EDGE('',*,*,#408,.T.);
#408 = EDGE_CURVE('',#400,#409,#411,.T.);
#409 = VERTEX_POINT('',#410);
#410 = CARTESIAN_POINT('',(114.75,-53.25,13.39));
#411 = LINE('',#412,#413);
#412 = CARTESIAN_POINT('',(130.85,-53.25,13.39));
#413 = VECTOR('',#414,1.);
#414 = DIRECTION('',(-1.,0.,0.));
#415 = ORIENTED_EDGE('',*,*,#416,.T.);
#416 = EDGE_CURVE('',#409,#417,#419,.T.);
#417 = VERTEX_POINT('',#418);
#418 = CARTESIAN_POINT('',(114.45,-52.95,13.39));
#419 = CIRCLE('',#420,0.3);
#420 = AXIS2_PLACEMENT_3D('',#421,#422,#423);
#421 = CARTESIAN_POINT('',(114.75,-52.95,13.39));
#422 = DIRECTION('',(0.,0.,-1.));
#423 = DIRECTION('',(0.,-1.,0.));
#424 = ORIENTED_EDGE('',*,*,#425,.T.);
#425 = EDGE_CURVE('',#417,#364,#426,.T.);
#426 = LINE('',#427,#428);
#427 = CARTESIAN_POINT('',(114.45,-52.95,13.39));
#428 = VECTOR('',#429,1.);
#429 = DIRECTION('',(0.,1.,0.));
#430 = FACE_BOUND('',#431,.T.);
#431 = EDGE_LOOP('',(#432,#443,#451,#460,#468,#477,#485,#494));
#432 = ORIENTED_EDGE('',*,*,#433,.T.);
#433 = EDGE_CURVE('',#434,#436,#438,.T.);
#434 = VERTEX_POINT('',#435);
#435 = CARTESIAN_POINT('',(121.,-13.4,13.39));
#436 = VERTEX_POINT('',#437);
#437 = CARTESIAN_POINT('',(121.6,-12.8,13.39));
#438 = CIRCLE('',#439,0.6);
#439 = AXIS2_PLACEMENT_3D('',#440,#441,#442);
#440 = CARTESIAN_POINT('',(121.6,-13.4,13.39));
#441 = DIRECTION('',(0.,0.,-1.));
#442 = DIRECTION('',(-1.,8.88E-15,0.));
#443 = ORIENTED_EDGE('',*,*,#444,.T.);
#444 = EDGE_CURVE('',#436,#445,#447,.T.);
#445 = VERTEX_POINT('',#446);
#446 = CARTESIAN_POINT('',(124.4,-12.8,13.39));
#447 = LINE('',#448,#449);
#448 = CARTESIAN_POINT('',(121.6,-12.8,13.39));
#449 = VECTOR('',#450,1.);
#450 = DIRECTION('',(1.,0.,0.));
#451 = ORIENTED_EDGE('',*,*,#452,.T.);
#452 = EDGE_CURVE('',#445,#453,#455,.T.);
#453 = VERTEX_POINT('',#454);
#454 = CARTESIAN_POINT('',(125.,-13.4,13.39));
#455 = CIRCLE('',#456,0.6);
#456 = AXIS2_PLACEMENT_3D('',#457,#458,#459);
#457 = CARTESIAN_POINT('',(124.4,-13.4,13.39));
#458 = DIRECTION('',(0.,0.,-1.));
#459 = DIRECTION('',(2.368E-14,1.,0.));
#460 = ORIENTED_EDGE('',*,*,#461,.T.);
#461 = EDGE_CURVE('',#453,#462,#464,.T.);
#462 = VERTEX_POINT('',#463);
#463 = CARTESIAN_POINT('',(125.,-13.6,13.39));
#464 = LINE('',#465,#466);
#465 = CARTESIAN_POINT('',(125.,-13.4,13.39));
#466 = VECTOR('',#467,1.);
#467 = DIRECTION('',(0.,-1.,0.));
#468 = ORIENTED_EDGE('',*,*,#469,.T.);
#469 = EDGE_CURVE('',#462,#470,#472,.T.);
#470 = VERTEX_POINT('',#471);
#471 = CARTESIAN_POINT('',(124.4,-14.2,13.39));
#472 = CIRCLE('',#473,0.6);
#473 = AXIS2_PLACEMENT_3D('',#474,#475,#476);
#474 = CARTESIAN_POINT('',(124.4,-13.6,13.39));
#475 = DIRECTION('',(0.,0.,-1.));
#476 = DIRECTION('',(1.,-8.88E-15,0.));
#477 = ORIENTED_EDGE('',*,*,#478,.T.);
#478 = EDGE_CURVE('',#470,#479,#481,.T.);
#479 = VERTEX_POINT('',#480);
#480 = CARTESIAN_POINT('',(121.6,-14.2,13.39));
#481 = LINE('',#482,#483);
#482 = CARTESIAN_POINT('',(124.4,-14.2,13.39));
#483 = VECTOR('',#484,1.);
#484 = DIRECTION('',(-1.,0.,0.));
#485 = ORIENTED_EDGE('',*,*,#486,.T.);
#486 = EDGE_CURVE('',#479,#487,#489,.T.);
#487 = VERTEX_POINT('',#488);
#488 = CARTESIAN_POINT('',(121.,-13.6,13.39));
#489 = CIRCLE('',#490,0.6);
#490 = AXIS2_PLACEMENT_3D('',#491,#492,#493);
#491 = CARTESIAN_POINT('',(121.6,-13.6,13.39));
#492 = DIRECTION('',(0.,0.,-1.));
#493 = DIRECTION('',(-2.368E-14,-1.,-0.));
#494 = ORIENTED_EDGE('',*,*,#495,.T.);
#495 = EDGE_CURVE('',#487,#434,#496,.T.);
#496 = LINE('',#497,#498);
#497 = CARTESIAN_POINT('',(121.,-13.6,13.39));
#498 = VECTOR('',#499,1.);
#499 = DIRECTION('',(0.,1.,0.));
#500 = PLANE('',#501);
#501 = AXIS2_PLACEMENT_3D('',#502,#503,#504);
#502 = CARTESIAN_POINT('',(123.,-33.15,13.39));
#503 = DIRECTION('',(0.,0.,1.));
#504 = DIRECTION('',(1.,0.,0.));
#505 = ADVANCED_FACE('',(#506),#517,.T.);
#506 = FACE_BOUND('',#507,.T.);
#507 = EDGE_LOOP('',(#508,#514,#515,#516));
#508 = ORIENTED_EDGE('',*,*,#509,.T.);
#509 = EDGE_CURVE('',#155,#321,#510,.T.);
#510 = LINE('',#511,#512);
#511 = CARTESIAN_POINT('',(112.2,-53.,12.99));
#512 = VECTOR('',#513,1.);
#513 = DIRECTION('',(0.,0.,1.));
#514 = ORIENTED_EDGE('',*,*,#320,.T.);
#515 = ORIENTED_EDGE('',*,*,#61,.F.);
#516 = ORIENTED_EDGE('',*,*,#163,.F.);
#517 = PLANE('',#518);
#518 = AXIS2_PLACEMENT_3D('',#519,#520,#521);
#519 = CARTESIAN_POINT('',(112.2,-53.,12.99));
#520 = DIRECTION('',(-1.,0.,0.));
#521 = DIRECTION('',(0.,1.,0.));
#522 = ADVANCED_FACE('',(#523),#534,.T.);
#523 = FACE_BOUND('',#524,.T.);
#524 = EDGE_LOOP('',(#525,#526,#527,#533));
#525 = ORIENTED_EDGE('',*,*,#104,.T.);
#526 = ORIENTED_EDGE('',*,*,#354,.T.);
#527 = ORIENTED_EDGE('',*,*,#528,.F.);
#528 = EDGE_CURVE('',#130,#346,#529,.T.);
#529 = LINE('',#530,#531);
#530 = CARTESIAN_POINT('',(133.8,-53.,12.99));
#531 = VECTOR('',#532,1.);
#532 = DIRECTION('',(0.,0.,1.));
#533 = ORIENTED_EDGE('',*,*,#129,.F.);
#534 = PLANE('',#535);
#535 = AXIS2_PLACEMENT_3D('',#536,#537,#538);
#536 = CARTESIAN_POINT('',(133.8,-13.3,12.99));
#537 = DIRECTION('',(1.,0.,0.));
#538 = DIRECTION('',(0.,-1.,0.));
#539 = ADVANCED_FACE('',(#540),#551,.T.);
#540 = FACE_BOUND('',#541,.T.);
#541 = EDGE_LOOP('',(#542,#548,#549,#550));
#542 = ORIENTED_EDGE('',*,*,#543,.T.);
#543 = EDGE_CURVE('',#147,#329,#544,.T.);
#544 = LINE('',#545,#546);
#545 = CARTESIAN_POINT('',(113.3,-54.1,12.99));
#546 = VECTOR('',#547,1.);
#547 = DIRECTION('',(0.,0.,1.));
#548 = ORIENTED_EDGE('',*,*,#328,.T.);
#549 = ORIENTED_EDGE('',*,*,#509,.F.);
#550 = ORIENTED_EDGE('',*,*,#154,.F.);
#551 = CYLINDRICAL_SURFACE('',#552,1.1);
#552 = AXIS2_PLACEMENT_3D('',#553,#554,#555);
#553 = CARTESIAN_POINT('',(113.3,-53.,12.99));
#554 = DIRECTION('',(0.,0.,-1.));
#555 = DIRECTION('',(0.,-1.,0.));
#556 = ADVANCED_FACE('',(#557),#568,.T.);
#557 = FACE_BOUND('',#558,.T.);
#558 = EDGE_LOOP('',(#559,#560,#561,#567));
#559 = ORIENTED_EDGE('',*,*,#528,.T.);
#560 = ORIENTED_EDGE('',*,*,#345,.T.);
#561 = ORIENTED_EDGE('',*,*,#562,.F.);
#562 = EDGE_CURVE('',#138,#338,#563,.T.);
#563 = LINE('',#564,#565);
#564 = CARTESIAN_POINT('',(132.7,-54.1,12.99));
#565 = VECTOR('',#566,1.);
#566 = DIRECTION('',(0.,0.,1.));
#567 = ORIENTED_EDGE('',*,*,#137,.F.);
#568 = CYLINDRICAL_SURFACE('',#569,1.1);
#569 = AXIS2_PLACEMENT_3D('',#570,#571,#572);
#570 = CARTESIAN_POINT('',(132.7,-53.,12.99));
#571 = DIRECTION('',(0.,0.,-1.));
#572 = DIRECTION('',(1.,6.46E-15,0.));
#573 = ADVANCED_FACE('',(#574),#580,.T.);
#574 = FACE_BOUND('',#575,.T.);
#575 = EDGE_LOOP('',(#576,#577,#578,#579));
#576 = ORIENTED_EDGE('',*,*,#562,.T.);
#577 = ORIENTED_EDGE('',*,*,#337,.T.);
#578 = ORIENTED_EDGE('',*,*,#543,.F.);
#579 = ORIENTED_EDGE('',*,*,#146,.F.);
#580 = PLANE('',#581);
#581 = AXIS2_PLACEMENT_3D('',#582,#583,#584);
#582 = CARTESIAN_POINT('',(132.7,-54.1,12.99));
#583 = DIRECTION('',(0.,-1.,0.));
#584 = DIRECTION('',(-1.,0.,0.));
#585 = ADVANCED_FACE('',(#586),#602,.F.);
#586 = FACE_BOUND('',#587,.F.);
#587 = EDGE_LOOP('',(#588,#594,#595,#601));
#588 = ORIENTED_EDGE('',*,*,#589,.T.);
#589 = EDGE_CURVE('',#173,#364,#590,.T.);
#590 = LINE('',#591,#592);
#591 = CARTESIAN_POINT('',(114.45,-14.95,12.99));
#592 = VECTOR('',#593,1.);
#593 = DIRECTION('',(0.,0.,1.));
#594 = ORIENTED_EDGE('',*,*,#363,.T.);
#595 = ORIENTED_EDGE('',*,*,#596,.F.);
#596 = EDGE_CURVE('',#175,#366,#597,.T.);
#597 = LINE('',#598,#599);
#598 = CARTESIAN_POINT('',(114.75,-14.65,12.99));
#599 = VECTOR('',#600,1.);
#600 = DIRECTION('',(0.,0.,1.));
#601 = ORIENTED_EDGE('',*,*,#172,.F.);
#602 = CYLINDRICAL_SURFACE('',#603,0.3);
#603 = AXIS2_PLACEMENT_3D('',#604,#605,#606);
#604 = CARTESIAN_POINT('',(114.75,-14.95,12.99));
#605 = DIRECTION('',(0.,0.,-1.));
#606 = DIRECTION('',(-1.,-5.92E-15,-0.));
#607 = ADVANCED_FACE('',(#608),#619,.F.);
#608 = FACE_BOUND('',#609,.F.);
#609 = EDGE_LOOP('',(#610,#616,#617,#618));
#610 = ORIENTED_EDGE('',*,*,#611,.T.);
#611 = EDGE_CURVE('',#184,#417,#612,.T.);
#612 = LINE('',#613,#614);
#613 = CARTESIAN_POINT('',(114.45,-52.95,12.99));
#614 = VECTOR('',#615,1.);
#615 = DIRECTION('',(0.,0.,1.));
#616 = ORIENTED_EDGE('',*,*,#425,.T.);
#617 = ORIENTED_EDGE('',*,*,#589,.F.);
#618 = ORIENTED_EDGE('',*,*,#183,.F.);
#619 = PLANE('',#620);
#620 = AXIS2_PLACEMENT_3D('',#621,#622,#623);
#621 = CARTESIAN_POINT('',(114.45,-52.95,12.99));
#622 = DIRECTION('',(-1.,0.,0.));
#623 = DIRECTION('',(0.,1.,0.));
#624 = ADVANCED_FACE('',(#625),#636,.F.);
#625 = FACE_BOUND('',#626,.F.);
#626 = EDGE_LOOP('',(#627,#628,#629,#635));
#627 = ORIENTED_EDGE('',*,*,#596,.T.);
#628 = ORIENTED_EDGE('',*,*,#374,.T.);
#629 = ORIENTED_EDGE('',*,*,#630,.F.);
#630 = EDGE_CURVE('',#226,#375,#631,.T.);
#631 = LINE('',#632,#633);
#632 = CARTESIAN_POINT('',(130.85,-14.65,12.99));
#633 = VECTOR('',#634,1.);
#634 = DIRECTION('',(0.,0.,1.));
#635 = ORIENTED_EDGE('',*,*,#234,.F.);
#636 = PLANE('',#637);
#637 = AXIS2_PLACEMENT_3D('',#638,#639,#640);
#638 = CARTESIAN_POINT('',(114.75,-14.65,12.99));
#639 = DIRECTION('',(0.,1.,0.));
#640 = DIRECTION('',(1.,0.,0.));
#641 = ADVANCED_FACE('',(#642),#653,.F.);
#642 = FACE_BOUND('',#643,.F.);
#643 = EDGE_LOOP('',(#644,#650,#651,#652));
#644 = ORIENTED_EDGE('',*,*,#645,.T.);
#645 = EDGE_CURVE('',#192,#409,#646,.T.);
#646 = LINE('',#647,#648);
#647 = CARTESIAN_POINT('',(114.75,-53.25,12.99));
#648 = VECTOR('',#649,1.);
#649 = DIRECTION('',(0.,0.,1.));
#650 = ORIENTED_EDGE('',*,*,#416,.T.);
#651 = ORIENTED_EDGE('',*,*,#611,.F.);
#652 = ORIENTED_EDGE('',*,*,#191,.F.);
#653 = CYLINDRICAL_SURFACE('',#654,0.3);
#654 = AXIS2_PLACEMENT_3D('',#655,#656,#657);
#655 = CARTESIAN_POINT('',(114.75,-52.95,12.99));
#656 = DIRECTION('',(0.,0.,-1.));
#657 = DIRECTION('',(0.,-1.,0.));
#658 = ADVANCED_FACE('',(#659),#670,.F.);
#659 = FACE_BOUND('',#660,.F.);
#660 = EDGE_LOOP('',(#661,#662,#663,#669));
#661 = ORIENTED_EDGE('',*,*,#630,.T.);
#662 = ORIENTED_EDGE('',*,*,#382,.T.);
#663 = ORIENTED_EDGE('',*,*,#664,.F.);
#664 = EDGE_CURVE('',#218,#383,#665,.T.);
#665 = LINE('',#666,#667);
#666 = CARTESIAN_POINT('',(131.15,-14.95,12.99));
#667 = VECTOR('',#668,1.);
#668 = DIRECTION('',(0.,0.,1.));
#669 = ORIENTED_EDGE('',*,*,#225,.F.);
#670 = CYLINDRICAL_SURFACE('',#671,0.3);
#671 = AXIS2_PLACEMENT_3D('',#672,#673,#674);
#672 = CARTESIAN_POINT('',(130.85,-14.95,12.99));
#673 = DIRECTION('',(0.,0.,-1.));
#674 = DIRECTION('',(-9.474E-14,1.,0.));
#675 = ADVANCED_FACE('',(#676),#687,.F.);
#676 = FACE_BOUND('',#677,.F.);
#677 = EDGE_LOOP('',(#678,#684,#685,#686));
#678 = ORIENTED_EDGE('',*,*,#679,.T.);
#679 = EDGE_CURVE('',#201,#400,#680,.T.);
#680 = LINE('',#681,#682);
#681 = CARTESIAN_POINT('',(130.85,-53.25,12.99));
#682 = VECTOR('',#683,1.);
#683 = DIRECTION('',(0.,0.,1.));
#684 = ORIENTED_EDGE('',*,*,#408,.T.);
#685 = ORIENTED_EDGE('',*,*,#645,.F.);
#686 = ORIENTED_EDGE('',*,*,#200,.F.);
#687 = PLANE('',#688);
#688 = AXIS2_PLACEMENT_3D('',#689,#690,#691);
#689 = CARTESIAN_POINT('',(130.85,-53.25,12.99));
#690 = DIRECTION('',(0.,-1.,0.));
#691 = DIRECTION('',(-1.,0.,0.));
#692 = ADVANCED_FACE('',(#693),#704,.F.);
#693 = FACE_BOUND('',#694,.F.);
#694 = EDGE_LOOP('',(#695,#696,#697,#703));
#695 = ORIENTED_EDGE('',*,*,#664,.T.);
#696 = ORIENTED_EDGE('',*,*,#391,.T.);
#697 = ORIENTED_EDGE('',*,*,#698,.F.);
#698 = EDGE_CURVE('',#209,#392,#699,.T.);
#699 = LINE('',#700,#701);
#700 = CARTESIAN_POINT('',(131.15,-52.95,12.99));
#701 = VECTOR('',#702,1.);
#702 = DIRECTION('',(0.,0.,1.));
#703 = ORIENTED_EDGE('',*,*,#217,.F.);
#704 = PLANE('',#705);
#705 = AXIS2_PLACEMENT_3D('',#706,#707,#708);
#706 = CARTESIAN_POINT('',(131.15,-14.95,12.99));
#707 = DIRECTION('',(1.,0.,0.));
#708 = DIRECTION('',(0.,-1.,0.));
#709 = ADVANCED_FACE('',(#710),#716,.F.);
#710 = FACE_BOUND('',#711,.F.);
#711 = EDGE_LOOP('',(#712,#713,#714,#715));
#712 = ORIENTED_EDGE('',*,*,#698,.T.);
#713 = ORIENTED_EDGE('',*,*,#399,.T.);
#714 = ORIENTED_EDGE('',*,*,#679,.F.);
#715 = ORIENTED_EDGE('',*,*,#208,.F.);
#716 = CYLINDRICAL_SURFACE('',#717,0.3);
#717 = AXIS2_PLACEMENT_3D('',#718,#719,#720);
#718 = CARTESIAN_POINT('',(130.85,-52.95,12.99));
#719 = DIRECTION('',(0.,0.,-1.));
#720 = DIRECTION('',(1.,4.737E-14,0.));
#721 = ADVANCED_FACE('',(#722),#738,.F.);
#722 = FACE_BOUND('',#723,.F.);
#723 = EDGE_LOOP('',(#724,#730,#731,#737));
#724 = ORIENTED_EDGE('',*,*,#725,.T.);
#725 = EDGE_CURVE('',#243,#436,#726,.T.);
#726 = LINE('',#727,#728);
#727 = CARTESIAN_POINT('',(121.6,-12.8,12.99));
#728 = VECTOR('',#729,1.);
#729 = DIRECTION('',(0.,0.,1.));
#730 = ORIENTED_EDGE('',*,*,#444,.T.);
#731 = ORIENTED_EDGE('',*,*,#732,.F.);
#732 = EDGE_CURVE('',#245,#445,#733,.T.);
#733 = LINE('',#734,#735);
#734 = CARTESIAN_POINT('',(124.4,-12.8,12.99));
#735 = VECTOR('',#736,1.);
#736 = DIRECTION('',(0.,0.,1.));
#737 = ORIENTED_EDGE('',*,*,#242,.F.);
#738 = PLANE('',#739);
#739 = AXIS2_PLACEMENT_3D('',#740,#741,#742);
#740 = CARTESIAN_POINT('',(121.6,-12.8,12.99));
#741 = DIRECTION('',(0.,1.,0.));
#742 = DIRECTION('',(1.,0.,0.));
#743 = ADVANCED_FACE('',(#744),#755,.F.);
#744 = FACE_BOUND('',#745,.F.);
#745 = EDGE_LOOP('',(#746,#747,#748,#754));
#746 = ORIENTED_EDGE('',*,*,#732,.T.);
#747 = ORIENTED_EDGE('',*,*,#452,.T.);
#748 = ORIENTED_EDGE('',*,*,#749,.F.);
#749 = EDGE_CURVE('',#296,#453,#750,.T.);
#750 = LINE('',#751,#752);
#751 = CARTESIAN_POINT('',(125.,-13.4,12.99));
#752 = VECTOR('',#753,1.);
#753 = DIRECTION('',(0.,0.,1.));
#754 = ORIENTED_EDGE('',*,*,#303,.F.);
#755 = CYLINDRICAL_SURFACE('',#756,0.6);
#756 = AXIS2_PLACEMENT_3D('',#757,#758,#759);
#757 = CARTESIAN_POINT('',(124.4,-13.4,12.99));
#758 = DIRECTION('',(0.,0.,-1.));
#759 = DIRECTION('',(2.368E-14,1.,0.));
#760 = ADVANCED_FACE('',(#761),#772,.F.);
#761 = FACE_BOUND('',#762,.F.);
#762 = EDGE_LOOP('',(#763,#764,#765,#771));
#763 = ORIENTED_EDGE('',*,*,#749,.T.);
#764 = ORIENTED_EDGE('',*,*,#461,.T.);
#765 = ORIENTED_EDGE('',*,*,#766,.F.);
#766 = EDGE_CURVE('',#287,#462,#767,.T.);
#767 = LINE('',#768,#769);
#768 = CARTESIAN_POINT('',(125.,-13.6,12.99));
#769 = VECTOR('',#770,1.);
#770 = DIRECTION('',(0.,0.,1.));
#771 = ORIENTED_EDGE('',*,*,#295,.F.);
#772 = PLANE('',#773);
#773 = AXIS2_PLACEMENT_3D('',#774,#775,#776);
#774 = CARTESIAN_POINT('',(125.,-13.4,12.99));
#775 = DIRECTION('',(1.,0.,0.));
#776 = DIRECTION('',(0.,-1.,0.));
#777 = ADVANCED_FACE('',(#778),#789,.F.);
#778 = FACE_BOUND('',#779,.F.);
#779 = EDGE_LOOP('',(#780,#781,#782,#788));
#780 = ORIENTED_EDGE('',*,*,#766,.T.);
#781 = ORIENTED_EDGE('',*,*,#469,.T.);
#782 = ORIENTED_EDGE('',*,*,#783,.F.);
#783 = EDGE_CURVE('',#279,#470,#784,.T.);
#784 = LINE('',#785,#786);
#785 = CARTESIAN_POINT('',(124.4,-14.2,12.99));
#786 = VECTOR('',#787,1.);
#787 = DIRECTION('',(0.,0.,1.));
#788 = ORIENTED_EDGE('',*,*,#286,.F.);
#789 = CYLINDRICAL_SURFACE('',#790,0.6);
#790 = AXIS2_PLACEMENT_3D('',#791,#792,#793);
#791 = CARTESIAN_POINT('',(124.4,-13.6,12.99));
#792 = DIRECTION('',(0.,0.,-1.));
#793 = DIRECTION('',(1.,-8.88E-15,0.));
#794 = ADVANCED_FACE('',(#795),#806,.F.);
#795 = FACE_BOUND('',#796,.F.);
#796 = EDGE_LOOP('',(#797,#798,#799,#805));
#797 = ORIENTED_EDGE('',*,*,#783,.T.);
#798 = ORIENTED_EDGE('',*,*,#478,.T.);
#799 = ORIENTED_EDGE('',*,*,#800,.F.);
#800 = EDGE_CURVE('',#270,#479,#801,.T.);
#801 = LINE('',#802,#803);
#802 = CARTESIAN_POINT('',(121.6,-14.2,12.99));
#803 = VECTOR('',#804,1.);
#804 = DIRECTION('',(0.,0.,1.));
#805 = ORIENTED_EDGE('',*,*,#278,.F.);
#806 = PLANE('',#807);
#807 = AXIS2_PLACEMENT_3D('',#808,#809,#810);
#808 = CARTESIAN_POINT('',(124.4,-14.2,12.99));
#809 = DIRECTION('',(0.,-1.,0.));
#810 = DIRECTION('',(-1.,0.,0.));
#811 = ADVANCED_FACE('',(#812),#823,.F.);
#812 = FACE_BOUND('',#813,.F.);
#813 = EDGE_LOOP('',(#814,#815,#816,#822));
#814 = ORIENTED_EDGE('',*,*,#800,.T.);
#815 = ORIENTED_EDGE('',*,*,#486,.T.);
#816 = ORIENTED_EDGE('',*,*,#817,.F.);
#817 = EDGE_CURVE('',#262,#487,#818,.T.);
#818 = LINE('',#819,#820);
#819 = CARTESIAN_POINT('',(121.,-13.6,12.99));
#820 = VECTOR('',#821,1.);
#821 = DIRECTION('',(0.,0.,1.));
#822 = ORIENTED_EDGE('',*,*,#269,.F.);
#823 = CYLINDRICAL_SURFACE('',#824,0.6);
#824 = AXIS2_PLACEMENT_3D('',#825,#826,#827);
#825 = CARTESIAN_POINT('',(121.6,-13.6,12.99));
#826 = DIRECTION('',(0.,0.,-1.));
#827 = DIRECTION('',(-2.368E-14,-1.,-0.));
#828 = ADVANCED_FACE('',(#829),#840,.F.);
#829 = FACE_BOUND('',#830,.F.);
#830 = EDGE_LOOP('',(#831,#832,#833,#839));
#831 = ORIENTED_EDGE('',*,*,#817,.T.);
#832 = ORIENTED_EDGE('',*,*,#495,.T.);
#833 = ORIENTED_EDGE('',*,*,#834,.F.);
#834 = EDGE_CURVE('',#253,#434,#835,.T.);
#835 = LINE('',#836,#837);
#836 = CARTESIAN_POINT('',(121.,-13.4,12.99));
#837 = VECTOR('',#838,1.);
#838 = DIRECTION('',(0.,0.,1.));
#839 = ORIENTED_EDGE('',*,*,#261,.F.);
#840 = PLANE('',#841);
#841 = AXIS2_PLACEMENT_3D('',#842,#843,#844);
#842 = CARTESIAN_POINT('',(121.,-13.6,12.99));
#843 = DIRECTION('',(-1.,0.,0.));
#844 = DIRECTION('',(0.,1.,0.));
#845 = ADVANCED_FACE('',(#846),#852,.F.);
#846 = FACE_BOUND('',#847,.F.);
#847 = EDGE_LOOP('',(#848,#849,#850,#851));
#848 = ORIENTED_EDGE('',*,*,#834,.T.);
#849 = ORIENTED_EDGE('',*,*,#433,.T.);
#850 = ORIENTED_EDGE('',*,*,#725,.F.);
#851 = ORIENTED_EDGE('',*,*,#252,.F.);
#852 = CYLINDRICAL_SURFACE('',#853,0.6);
#853 = AXIS2_PLACEMENT_3D('',#854,#855,#856);
#854 = CARTESIAN_POINT('',(121.6,-13.4,12.99));
#855 = DIRECTION('',(0.,0.,-1.));
#856 = DIRECTION('',(-1.,8.88E-15,0.));
#857 = ( GEOMETRIC_REPRESENTATION_CONTEXT(3) 
GLOBAL_UNCERTAINTY_ASSIGNED_CONTEXT((#861)) GLOBAL_UNIT_ASSIGNED_CONTEXT
((#858,#859,#860)) REPRESENTATION_CONTEXT('Context #1',
  '3D Context with UNIT and UNCERTAINTY') );
#858 = ( LENGTH_UNIT() NAMED_UNIT(*) SI_UNIT(.MILLI.,.METRE.) );
#859 = ( NAMED_UNIT(*) PLANE_ANGLE_UNIT() SI_UNIT($,.RADIAN.) );
#860 = ( NAMED_UNIT(*) SI_UNIT($,.STERADIAN.) SOLID_ANGLE_UNIT() );
#861 = UNCERTAINTY_MEASURE_WITH_UNIT(LENGTH_MEASURE(1.E-05),#858,
  'distance_accuracy_value','confusion accuracy');
#862 = PRODUCT_RELATED_PRODUCT_CATEGORY('part',$,(#7));
ENDSEC;
END-ISO-10303-21;
