ISO-10303-21;
HEADER;
FILE_DESCRIPTION(('FreeCAD Model'),'2;1');
FILE_NAME('Open CASCADE Shape Model','2026-09-28T20:31:31',('FreeCAD'),(
    'FreeCAD'),'Open CASCADE STEP processor 7.8','FreeCAD','Unknown');
FILE_SCHEMA(('AUTOMOTIVE_DESIGN { 1 0 10303 214 1 1 1 1 }'));
ENDSEC;
DATA;
#1 = APPLICATION_PROTOCOL_DEFINITION('international standard',
  'automotive_design',2000,#2);
#2 = APPLICATION_CONTEXT(
  'core data for automotive mechanical design processes');
#3 = SHAPE_DEFINITION_REPRESENTATION(#4,#10);
#4 = PRODUCT_DEFINITION_SHAPE('','',#5);
#5 = PRODUCT_DEFINITION('design','',#6,#9);
#6 = PRODUCT_DEFINITION_FORMATION('','',#7);
#7 = PRODUCT('Open CASCADE STEP translator 7.8 13',
  'Open CASCADE STEP translator 7.8 13','',(#8));
#8 = PRODUCT_CONTEXT('',#2,'mechanical');
#9 = PRODUCT_DEFINITION_CONTEXT('part definition',#2,'design');
#10 = SHAPE_REPRESENTATION('',(#11,#15,#305),#595);
#11 = AXIS2_PLACEMENT_3D('',#12,#13,#14);
#12 = CARTESIAN_POINT('',(0.,0.,0.));
#13 = DIRECTION('',(0.,0.,1.));
#14 = DIRECTION('',(1.,0.,-0.));
#15 = MANIFOLD_SOLID_BREP('',#16);
#16 = CLOSED_SHELL('',(#17,#57,#90,#121,#154,#185,#218,#249,#273,#289));
#17 = ADVANCED_FACE('',(#18),#52,.T.);
#18 = FACE_BOUND('',#19,.T.);
#19 = EDGE_LOOP('',(#20,#30,#38,#46));
#20 = ORIENTED_EDGE('',*,*,#21,.T.);
#21 = EDGE_CURVE('',#22,#24,#26,.T.);
#22 = VERTEX_POINT('',#23);
#23 = CARTESIAN_POINT('',(122.2,-57.6,13.19));
#24 = VERTEX_POINT('',#25);
#25 = CARTESIAN_POINT('',(122.2,-57.6,13.59));
#26 = LINE('',#27,#28);
#27 = CARTESIAN_POINT('',(122.2,-57.6,13.19));
#28 = VECTOR('',#29,1.);
#29 = DIRECTION('',(0.,0.,1.));
#30 = ORIENTED_EDGE('',*,*,#31,.T.);
#31 = EDGE_CURVE('',#24,#32,#34,.T.);
#32 = VERTEX_POINT('',#33);
#33 = CARTESIAN_POINT('',(127.8,-57.6,13.59));
#34 = LINE('',#35,#36);
#35 = CARTESIAN_POINT('',(122.2,-57.6,13.59));
#36 = VECTOR('',#37,1.);
#37 = DIRECTION('',(1.,0.,0.));
#38 = ORIENTED_EDGE('',*,*,#39,.F.);
#39 = EDGE_CURVE('',#40,#32,#42,.T.);
#40 = VERTEX_POINT('',#41);
#41 = CARTESIAN_POINT('',(127.8,-57.6,13.19));
#42 = LINE('',#43,#44);
#43 = CARTESIAN_POINT('',(127.8,-57.6,13.19));
#44 = VECTOR('',#45,1.);
#45 = DIRECTION('',(0.,0.,1.));
#46 = ORIENTED_EDGE('',*,*,#47,.F.);
#47 = EDGE_CURVE('',#22,#40,#48,.T.);
#48 = LINE('',#49,#50);
#49 = CARTESIAN_POINT('',(122.2,-57.6,13.19));
#50 = VECTOR('',#51,1.);
#51 = DIRECTION('',(1.,0.,0.));
#52 = PLANE('',#53);
#53 = AXIS2_PLACEMENT_3D('',#54,#55,#56);
#54 = CARTESIAN_POINT('',(122.2,-57.6,13.19));
#55 = DIRECTION('',(0.,1.,0.));
#56 = DIRECTION('',(1.,0.,0.));
#57 = ADVANCED_FACE('',(#58),#85,.T.);
#58 = FACE_BOUND('',#59,.T.);
#59 = EDGE_LOOP('',(#60,#61,#70,#78));
#60 = ORIENTED_EDGE('',*,*,#39,.T.);
#61 = ORIENTED_EDGE('',*,*,#62,.T.);
#62 = EDGE_CURVE('',#32,#63,#65,.T.);
#63 = VERTEX_POINT('',#64);
#64 = CARTESIAN_POINT('',(128.3,-58.1,13.59));
#65 = CIRCLE('',#66,0.5);
#66 = AXIS2_PLACEMENT_3D('',#67,#68,#69);
#67 = CARTESIAN_POINT('',(127.8,-58.1,13.59));
#68 = DIRECTION('',(0.,0.,-1.));
#69 = DIRECTION('',(-2.842E-14,1.,0.));
#70 = ORIENTED_EDGE('',*,*,#71,.F.);
#71 = EDGE_CURVE('',#72,#63,#74,.T.);
#72 = VERTEX_POINT('',#73);
#73 = CARTESIAN_POINT('',(128.3,-58.1,13.19));
#74 = LINE('',#75,#76);
#75 = CARTESIAN_POINT('',(128.3,-58.1,13.19));
#76 = VECTOR('',#77,1.);
#77 = DIRECTION('',(0.,0.,1.));
#78 = ORIENTED_EDGE('',*,*,#79,.F.);
#79 = EDGE_CURVE('',#40,#72,#80,.T.);
#80 = CIRCLE('',#81,0.5);
#81 = AXIS2_PLACEMENT_3D('',#82,#83,#84);
#82 = CARTESIAN_POINT('',(127.8,-58.1,13.19));
#83 = DIRECTION('',(0.,0.,-1.));
#84 = DIRECTION('',(-2.842E-14,1.,0.));
#85 = CYLINDRICAL_SURFACE('',#86,0.5);
#86 = AXIS2_PLACEMENT_3D('',#87,#88,#89);
#87 = CARTESIAN_POINT('',(127.8,-58.1,13.19));
#88 = DIRECTION('',(0.,0.,-1.));
#89 = DIRECTION('',(-2.842E-14,1.,0.));
#90 = ADVANCED_FACE('',(#91),#116,.T.);
#91 = FACE_BOUND('',#92,.T.);
#92 = EDGE_LOOP('',(#93,#94,#102,#110));
#93 = ORIENTED_EDGE('',*,*,#71,.T.);
#94 = ORIENTED_EDGE('',*,*,#95,.T.);
#95 = EDGE_CURVE('',#63,#96,#98,.T.);
#96 = VERTEX_POINT('',#97);
#97 = CARTESIAN_POINT('',(128.3,-58.2,13.59));
#98 = LINE('',#99,#100);
#99 = CARTESIAN_POINT('',(128.3,-58.1,13.59));
#100 = VECTOR('',#101,1.);
#101 = DIRECTION('',(0.,-1.,0.));
#102 = ORIENTED_EDGE('',*,*,#103,.F.);
#103 = EDGE_CURVE('',#104,#96,#106,.T.);
#104 = VERTEX_POINT('',#105);
#105 = CARTESIAN_POINT('',(128.3,-58.2,13.19));
#106 = LINE('',#107,#108);
#107 = CARTESIAN_POINT('',(128.3,-58.2,13.19));
#108 = VECTOR('',#109,1.);
#109 = DIRECTION('',(0.,0.,1.));
#110 = ORIENTED_EDGE('',*,*,#111,.F.);
#111 = EDGE_CURVE('',#72,#104,#112,.T.);
#112 = LINE('',#113,#114);
#113 = CARTESIAN_POINT('',(128.3,-58.1,13.19));
#114 = VECTOR('',#115,1.);
#115 = DIRECTION('',(0.,-1.,0.));
#116 = PLANE('',#117);
#117 = AXIS2_PLACEMENT_3D('',#118,#119,#120);
#118 = CARTESIAN_POINT('',(128.3,-58.1,13.19));
#119 = DIRECTION('',(1.,0.,0.));
#120 = DIRECTION('',(0.,-1.,0.));
#121 = ADVANCED_FACE('',(#122),#149,.T.);
#122 = FACE_BOUND('',#123,.T.);
#123 = EDGE_LOOP('',(#124,#125,#134,#142));
#124 = ORIENTED_EDGE('',*,*,#103,.T.);
#125 = ORIENTED_EDGE('',*,*,#126,.T.);
#126 = EDGE_CURVE('',#96,#127,#129,.T.);
#127 = VERTEX_POINT('',#128);
#128 = CARTESIAN_POINT('',(127.8,-58.7,13.59));
#129 = CIRCLE('',#130,0.5);
#130 = AXIS2_PLACEMENT_3D('',#131,#132,#133);
#131 = CARTESIAN_POINT('',(127.8,-58.2,13.59));
#132 = DIRECTION('',(0.,0.,-1.));
#133 = DIRECTION('',(1.,1.421E-14,0.));
#134 = ORIENTED_EDGE('',*,*,#135,.F.);
#135 = EDGE_CURVE('',#136,#127,#138,.T.);
#136 = VERTEX_POINT('',#137);
#137 = CARTESIAN_POINT('',(127.8,-58.7,13.19));
#138 = LINE('',#139,#140);
#139 = CARTESIAN_POINT('',(127.8,-58.7,13.19));
#140 = VECTOR('',#141,1.);
#141 = DIRECTION('',(0.,0.,1.));
#142 = ORIENTED_EDGE('',*,*,#143,.F.);
#143 = EDGE_CURVE('',#104,#136,#144,.T.);
#144 = CIRCLE('',#145,0.5);
#145 = AXIS2_PLACEMENT_3D('',#146,#147,#148);
#146 = CARTESIAN_POINT('',(127.8,-58.2,13.19));
#147 = DIRECTION('',(0.,0.,-1.));
#148 = DIRECTION('',(1.,1.421E-14,0.));
#149 = CYLINDRICAL_SURFACE('',#150,0.5);
#150 = AXIS2_PLACEMENT_3D('',#151,#152,#153);
#151 = CARTESIAN_POINT('',(127.8,-58.2,13.19));
#152 = DIRECTION('',(0.,0.,-1.));
#153 = DIRECTION('',(1.,1.421E-14,0.));
#154 = ADVANCED_FACE('',(#155),#180,.T.);
#155 = FACE_BOUND('',#156,.T.);
#156 = EDGE_LOOP('',(#157,#158,#166,#174));
#157 = ORIENTED_EDGE('',*,*,#135,.T.);
#158 = ORIENTED_EDGE('',*,*,#159,.T.);
#159 = EDGE_CURVE('',#127,#160,#162,.T.);
#160 = VERTEX_POINT('',#161);
#161 = CARTESIAN_POINT('',(122.2,-58.7,13.59));
#162 = LINE('',#163,#164);
#163 = CARTESIAN_POINT('',(127.8,-58.7,13.59));
#164 = VECTOR('',#165,1.);
#165 = DIRECTION('',(-1.,0.,0.));
#166 = ORIENTED_EDGE('',*,*,#167,.F.);
#167 = EDGE_CURVE('',#168,#160,#170,.T.);
#168 = VERTEX_POINT('',#169);
#169 = CARTESIAN_POINT('',(122.2,-58.7,13.19));
#170 = LINE('',#171,#172);
#171 = CARTESIAN_POINT('',(122.2,-58.7,13.19));
#172 = VECTOR('',#173,1.);
#173 = DIRECTION('',(0.,0.,1.));
#174 = ORIENTED_EDGE('',*,*,#175,.F.);
#175 = EDGE_CURVE('',#136,#168,#176,.T.);
#176 = LINE('',#177,#178);
#177 = CARTESIAN_POINT('',(127.8,-58.7,13.19));
#178 = VECTOR('',#179,1.);
#179 = DIRECTION('',(-1.,0.,0.));
#180 = PLANE('',#181);
#181 = AXIS2_PLACEMENT_3D('',#182,#183,#184);
#182 = CARTESIAN_POINT('',(127.8,-58.7,13.19));
#183 = DIRECTION('',(0.,-1.,0.));
#184 = DIRECTION('',(-1.,0.,0.));
#185 = ADVANCED_FACE('',(#186),#213,.T.);
#186 = FACE_BOUND('',#187,.T.);
#187 = EDGE_LOOP('',(#188,#189,#198,#206));
#188 = ORIENTED_EDGE('',*,*,#167,.T.);
#189 = ORIENTED_EDGE('',*,*,#190,.T.);
#190 = EDGE_CURVE('',#160,#191,#193,.T.);
#191 = VERTEX_POINT('',#192);
#192 = CARTESIAN_POINT('',(121.7,-58.2,13.59));
#193 = CIRCLE('',#194,0.5);
#194 = AXIS2_PLACEMENT_3D('',#195,#196,#197);
#195 = CARTESIAN_POINT('',(122.2,-58.2,13.59));
#196 = DIRECTION('',(0.,0.,-1.));
#197 = DIRECTION('',(2.842E-14,-1.,0.));
#198 = ORIENTED_EDGE('',*,*,#199,.F.);
#199 = EDGE_CURVE('',#200,#191,#202,.T.);
#200 = VERTEX_POINT('',#201);
#201 = CARTESIAN_POINT('',(121.7,-58.2,13.19));
#202 = LINE('',#203,#204);
#203 = CARTESIAN_POINT('',(121.7,-58.2,13.19));
#204 = VECTOR('',#205,1.);
#205 = DIRECTION('',(0.,0.,1.));
#206 = ORIENTED_EDGE('',*,*,#207,.F.);
#207 = EDGE_CURVE('',#168,#200,#208,.T.);
#208 = CIRCLE('',#209,0.5);
#209 = AXIS2_PLACEMENT_3D('',#210,#211,#212);
#210 = CARTESIAN_POINT('',(122.2,-58.2,13.19));
#211 = DIRECTION('',(0.,0.,-1.));
#212 = DIRECTION('',(2.842E-14,-1.,0.));
#213 = CYLINDRICAL_SURFACE('',#214,0.5);
#214 = AXIS2_PLACEMENT_3D('',#215,#216,#217);
#215 = CARTESIAN_POINT('',(122.2,-58.2,13.19));
#216 = DIRECTION('',(0.,0.,-1.));
#217 = DIRECTION('',(2.842E-14,-1.,0.));
#218 = ADVANCED_FACE('',(#219),#244,.T.);
#219 = FACE_BOUND('',#220,.T.);
#220 = EDGE_LOOP('',(#221,#222,#230,#238));
#221 = ORIENTED_EDGE('',*,*,#199,.T.);
#222 = ORIENTED_EDGE('',*,*,#223,.T.);
#223 = EDGE_CURVE('',#191,#224,#226,.T.);
#224 = VERTEX_POINT('',#225);
#225 = CARTESIAN_POINT('',(121.7,-58.1,13.59));
#226 = LINE('',#227,#228);
#227 = CARTESIAN_POINT('',(121.7,-58.2,13.59));
#228 = VECTOR('',#229,1.);
#229 = DIRECTION('',(0.,1.,0.));
#230 = ORIENTED_EDGE('',*,*,#231,.F.);
#231 = EDGE_CURVE('',#232,#224,#234,.T.);
#232 = VERTEX_POINT('',#233);
#233 = CARTESIAN_POINT('',(121.7,-58.1,13.19));
#234 = LINE('',#235,#236);
#235 = CARTESIAN_POINT('',(121.7,-58.1,13.19));
#236 = VECTOR('',#237,1.);
#237 = DIRECTION('',(0.,0.,1.));
#238 = ORIENTED_EDGE('',*,*,#239,.F.);
#239 = EDGE_CURVE('',#200,#232,#240,.T.);
#240 = LINE('',#241,#242);
#241 = CARTESIAN_POINT('',(121.7,-58.2,13.19));
#242 = VECTOR('',#243,1.);
#243 = DIRECTION('',(0.,1.,0.));
#244 = PLANE('',#245);
#245 = AXIS2_PLACEMENT_3D('',#246,#247,#248);
#246 = CARTESIAN_POINT('',(121.7,-58.2,13.19));
#247 = DIRECTION('',(-1.,0.,0.));
#248 = DIRECTION('',(0.,1.,0.));
#249 = ADVANCED_FACE('',(#250),#268,.T.);
#250 = FACE_BOUND('',#251,.T.);
#251 = EDGE_LOOP('',(#252,#253,#260,#261));
#252 = ORIENTED_EDGE('',*,*,#231,.T.);
#253 = ORIENTED_EDGE('',*,*,#254,.T.);
#254 = EDGE_CURVE('',#224,#24,#255,.T.);
#255 = CIRCLE('',#256,0.5);
#256 = AXIS2_PLACEMENT_3D('',#257,#258,#259);
#257 = CARTESIAN_POINT('',(122.2,-58.1,13.59));
#258 = DIRECTION('',(0.,0.,-1.));
#259 = DIRECTION('',(-1.,-1.421E-14,-0.));
#260 = ORIENTED_EDGE('',*,*,#21,.F.);
#261 = ORIENTED_EDGE('',*,*,#262,.F.);
#262 = EDGE_CURVE('',#232,#22,#263,.T.);
#263 = CIRCLE('',#264,0.5);
#264 = AXIS2_PLACEMENT_3D('',#265,#266,#267);
#265 = CARTESIAN_POINT('',(122.2,-58.1,13.19));
#266 = DIRECTION('',(0.,0.,-1.));
#267 = DIRECTION('',(-1.,-1.421E-14,-0.));
#268 = CYLINDRICAL_SURFACE('',#269,0.5);
#269 = AXIS2_PLACEMENT_3D('',#270,#271,#272);
#270 = CARTESIAN_POINT('',(122.2,-58.1,13.19));
#271 = DIRECTION('',(0.,0.,-1.));
#272 = DIRECTION('',(-1.,-1.421E-14,-0.));
#273 = ADVANCED_FACE('',(#274),#284,.F.);
#274 = FACE_BOUND('',#275,.T.);
#275 = EDGE_LOOP('',(#276,#277,#278,#279,#280,#281,#282,#283));
#276 = ORIENTED_EDGE('',*,*,#47,.T.);
#277 = ORIENTED_EDGE('',*,*,#79,.T.);
#278 = ORIENTED_EDGE('',*,*,#111,.T.);
#279 = ORIENTED_EDGE('',*,*,#143,.T.);
#280 = ORIENTED_EDGE('',*,*,#175,.T.);
#281 = ORIENTED_EDGE('',*,*,#207,.T.);
#282 = ORIENTED_EDGE('',*,*,#239,.T.);
#283 = ORIENTED_EDGE('',*,*,#262,.T.);
#284 = PLANE('',#285);
#285 = AXIS2_PLACEMENT_3D('',#286,#287,#288);
#286 = CARTESIAN_POINT('',(125.,-58.15,13.19));
#287 = DIRECTION('',(0.,0.,1.));
#288 = DIRECTION('',(1.,0.,0.));
#289 = ADVANCED_FACE('',(#290),#300,.T.);
#290 = FACE_BOUND('',#291,.F.);
#291 = EDGE_LOOP('',(#292,#293,#294,#295,#296,#297,#298,#299));
#292 = ORIENTED_EDGE('',*,*,#31,.T.);
#293 = ORIENTED_EDGE('',*,*,#62,.T.);
#294 = ORIENTED_EDGE('',*,*,#95,.T.);
#295 = ORIENTED_EDGE('',*,*,#126,.T.);
#296 = ORIENTED_EDGE('',*,*,#159,.T.);
#297 = ORIENTED_EDGE('',*,*,#190,.T.);
#298 = ORIENTED_EDGE('',*,*,#223,.T.);
#299 = ORIENTED_EDGE('',*,*,#254,.T.);
#300 = PLANE('',#301);
#301 = AXIS2_PLACEMENT_3D('',#302,#303,#304);
#302 = CARTESIAN_POINT('',(125.,-58.15,13.59));
#303 = DIRECTION('',(0.,0.,1.));
#304 = DIRECTION('',(1.,0.,0.));
#305 = MANIFOLD_SOLID_BREP('',#306);
#306 = CLOSED_SHELL('',(#307,#347,#380,#411,#444,#475,#508,#539,#563,
    #579));
#307 = ADVANCED_FACE('',(#308),#342,.T.);
#308 = FACE_BOUND('',#309,.T.);
#309 = EDGE_LOOP('',(#310,#320,#328,#336));
#310 = ORIENTED_EDGE('',*,*,#311,.T.);
#311 = EDGE_CURVE('',#312,#314,#316,.T.);
#312 = VERTEX_POINT('',#313);
#313 = CARTESIAN_POINT('',(120.7,-63.6,13.19));
#314 = VERTEX_POINT('',#315);
#315 = CARTESIAN_POINT('',(120.7,-63.6,13.59));
#316 = LINE('',#317,#318);
#317 = CARTESIAN_POINT('',(120.7,-63.6,13.19));
#318 = VECTOR('',#319,1.);
#319 = DIRECTION('',(0.,0.,1.));
#320 = ORIENTED_EDGE('',*,*,#321,.T.);
#321 = EDGE_CURVE('',#314,#322,#324,.T.);
#322 = VERTEX_POINT('',#323);
#323 = CARTESIAN_POINT('',(129.3,-63.6,13.59));
#324 = LINE('',#325,#326);
#325 = CARTESIAN_POINT('',(120.7,-63.6,13.59));
#326 = VECTOR('',#327,1.);
#327 = DIRECTION('',(1.,0.,0.));
#328 = ORIENTED_EDGE('',*,*,#329,.F.);
#329 = EDGE_CURVE('',#330,#322,#332,.T.);
#330 = VERTEX_POINT('',#331);
#331 = CARTESIAN_POINT('',(129.3,-63.6,13.19));
#332 = LINE('',#333,#334);
#333 = CARTESIAN_POINT('',(129.3,-63.6,13.19));
#334 = VECTOR('',#335,1.);
#335 = DIRECTION('',(0.,0.,1.));
#336 = ORIENTED_EDGE('',*,*,#337,.F.);
#337 = EDGE_CURVE('',#312,#330,#338,.T.);
#338 = LINE('',#339,#340);
#339 = CARTESIAN_POINT('',(120.7,-63.6,13.19));
#340 = VECTOR('',#341,1.);
#341 = DIRECTION('',(1.,0.,0.));
#342 = PLANE('',#343);
#343 = AXIS2_PLACEMENT_3D('',#344,#345,#346);
#344 = CARTESIAN_POINT('',(120.7,-63.6,13.19));
#345 = DIRECTION('',(0.,1.,0.));
#346 = DIRECTION('',(1.,0.,0.));
#347 = ADVANCED_FACE('',(#348),#375,.T.);
#348 = FACE_BOUND('',#349,.T.);
#349 = EDGE_LOOP('',(#350,#351,#360,#368));
#350 = ORIENTED_EDGE('',*,*,#329,.T.);
#351 = ORIENTED_EDGE('',*,*,#352,.T.);
#352 = EDGE_CURVE('',#322,#353,#355,.T.);
#353 = VERTEX_POINT('',#354);
#354 = CARTESIAN_POINT('',(129.7,-64.,13.59));
#355 = CIRCLE('',#356,0.4);
#356 = AXIS2_PLACEMENT_3D('',#357,#358,#359);
#357 = CARTESIAN_POINT('',(129.3,-64.,13.59));
#358 = DIRECTION('',(0.,0.,-1.));
#359 = DIRECTION('',(-7.105E-14,1.,0.));
#360 = ORIENTED_EDGE('',*,*,#361,.F.);
#361 = EDGE_CURVE('',#362,#353,#364,.T.);
#362 = VERTEX_POINT('',#363);
#363 = CARTESIAN_POINT('',(129.7,-64.,13.19));
#364 = LINE('',#365,#366);
#365 = CARTESIAN_POINT('',(129.7,-64.,13.19));
#366 = VECTOR('',#367,1.);
#367 = DIRECTION('',(0.,0.,1.));
#368 = ORIENTED_EDGE('',*,*,#369,.F.);
#369 = EDGE_CURVE('',#330,#362,#370,.T.);
#370 = CIRCLE('',#371,0.4);
#371 = AXIS2_PLACEMENT_3D('',#372,#373,#374);
#372 = CARTESIAN_POINT('',(129.3,-64.,13.19));
#373 = DIRECTION('',(0.,0.,-1.));
#374 = DIRECTION('',(-7.105E-14,1.,0.));
#375 = CYLINDRICAL_SURFACE('',#376,0.4);
#376 = AXIS2_PLACEMENT_3D('',#377,#378,#379);
#377 = CARTESIAN_POINT('',(129.3,-64.,13.19));
#378 = DIRECTION('',(0.,0.,-1.));
#379 = DIRECTION('',(-7.105E-14,1.,0.));
#380 = ADVANCED_FACE('',(#381),#406,.T.);
#381 = FACE_BOUND('',#382,.T.);
#382 = EDGE_LOOP('',(#383,#384,#392,#400));
#383 = ORIENTED_EDGE('',*,*,#361,.T.);
#384 = ORIENTED_EDGE('',*,*,#385,.T.);
#385 = EDGE_CURVE('',#353,#386,#388,.T.);
#386 = VERTEX_POINT('',#387);
#387 = CARTESIAN_POINT('',(129.7,-64.1,13.59));
#388 = LINE('',#389,#390);
#389 = CARTESIAN_POINT('',(129.7,-64.,13.59));
#390 = VECTOR('',#391,1.);
#391 = DIRECTION('',(0.,-1.,0.));
#392 = ORIENTED_EDGE('',*,*,#393,.F.);
#393 = EDGE_CURVE('',#394,#386,#396,.T.);
#394 = VERTEX_POINT('',#395);
#395 = CARTESIAN_POINT('',(129.7,-64.1,13.19));
#396 = LINE('',#397,#398);
#397 = CARTESIAN_POINT('',(129.7,-64.1,13.19));
#398 = VECTOR('',#399,1.);
#399 = DIRECTION('',(0.,0.,1.));
#400 = ORIENTED_EDGE('',*,*,#401,.F.);
#401 = EDGE_CURVE('',#362,#394,#402,.T.);
#402 = LINE('',#403,#404);
#403 = CARTESIAN_POINT('',(129.7,-64.,13.19));
#404 = VECTOR('',#405,1.);
#405 = DIRECTION('',(0.,-1.,0.));
#406 = PLANE('',#407);
#407 = AXIS2_PLACEMENT_3D('',#408,#409,#410);
#408 = CARTESIAN_POINT('',(129.7,-64.,13.19));
#409 = DIRECTION('',(1.,0.,0.));
#410 = DIRECTION('',(0.,-1.,0.));
#411 = ADVANCED_FACE('',(#412),#439,.T.);
#412 = FACE_BOUND('',#413,.T.);
#413 = EDGE_LOOP('',(#414,#415,#424,#432));
#414 = ORIENTED_EDGE('',*,*,#393,.T.);
#415 = ORIENTED_EDGE('',*,*,#416,.T.);
#416 = EDGE_CURVE('',#386,#417,#419,.T.);
#417 = VERTEX_POINT('',#418);
#418 = CARTESIAN_POINT('',(129.3,-64.5,13.59));
#419 = CIRCLE('',#420,0.4);
#420 = AXIS2_PLACEMENT_3D('',#421,#422,#423);
#421 = CARTESIAN_POINT('',(129.3,-64.1,13.59));
#422 = DIRECTION('',(0.,0.,-1.));
#423 = DIRECTION('',(1.,7.105E-14,0.));
#424 = ORIENTED_EDGE('',*,*,#425,.F.);
#425 = EDGE_CURVE('',#426,#417,#428,.T.);
#426 = VERTEX_POINT('',#427);
#427 = CARTESIAN_POINT('',(129.3,-64.5,13.19));
#428 = LINE('',#429,#430);
#429 = CARTESIAN_POINT('',(129.3,-64.5,13.19));
#430 = VECTOR('',#431,1.);
#431 = DIRECTION('',(0.,0.,1.));
#432 = ORIENTED_EDGE('',*,*,#433,.F.);
#433 = EDGE_CURVE('',#394,#426,#434,.T.);
#434 = CIRCLE('',#435,0.4);
#435 = AXIS2_PLACEMENT_3D('',#436,#437,#438);
#436 = CARTESIAN_POINT('',(129.3,-64.1,13.19));
#437 = DIRECTION('',(0.,0.,-1.));
#438 = DIRECTION('',(1.,7.105E-14,0.));
#439 = CYLINDRICAL_SURFACE('',#440,0.4);
#440 = AXIS2_PLACEMENT_3D('',#441,#442,#443);
#441 = CARTESIAN_POINT('',(129.3,-64.1,13.19));
#442 = DIRECTION('',(0.,0.,-1.));
#443 = DIRECTION('',(1.,7.105E-14,0.));
#444 = ADVANCED_FACE('',(#445),#470,.T.);
#445 = FACE_BOUND('',#446,.T.);
#446 = EDGE_LOOP('',(#447,#448,#456,#464));
#447 = ORIENTED_EDGE('',*,*,#425,.T.);
#448 = ORIENTED_EDGE('',*,*,#449,.T.);
#449 = EDGE_CURVE('',#417,#450,#452,.T.);
#450 = VERTEX_POINT('',#451);
#451 = CARTESIAN_POINT('',(120.7,-64.5,13.59));
#452 = LINE('',#453,#454);
#453 = CARTESIAN_POINT('',(129.3,-64.5,13.59));
#454 = VECTOR('',#455,1.);
#455 = DIRECTION('',(-1.,0.,0.));
#456 = ORIENTED_EDGE('',*,*,#457,.F.);
#457 = EDGE_CURVE('',#458,#450,#460,.T.);
#458 = VERTEX_POINT('',#459);
#459 = CARTESIAN_POINT('',(120.7,-64.5,13.19));
#460 = LINE('',#461,#462);
#461 = CARTESIAN_POINT('',(120.7,-64.5,13.19));
#462 = VECTOR('',#463,1.);
#463 = DIRECTION('',(0.,0.,1.));
#464 = ORIENTED_EDGE('',*,*,#465,.F.);
#465 = EDGE_CURVE('',#426,#458,#466,.T.);
#466 = LINE('',#467,#468);
#467 = CARTESIAN_POINT('',(129.3,-64.5,13.19));
#468 = VECTOR('',#469,1.);
#469 = DIRECTION('',(-1.,0.,0.));
#470 = PLANE('',#471);
#471 = AXIS2_PLACEMENT_3D('',#472,#473,#474);
#472 = CARTESIAN_POINT('',(129.3,-64.5,13.19));
#473 = DIRECTION('',(0.,-1.,0.));
#474 = DIRECTION('',(-1.,0.,0.));
#475 = ADVANCED_FACE('',(#476),#503,.T.);
#476 = FACE_BOUND('',#477,.T.);
#477 = EDGE_LOOP('',(#478,#479,#488,#496));
#478 = ORIENTED_EDGE('',*,*,#457,.T.);
#479 = ORIENTED_EDGE('',*,*,#480,.T.);
#480 = EDGE_CURVE('',#450,#481,#483,.T.);
#481 = VERTEX_POINT('',#482);
#482 = CARTESIAN_POINT('',(120.3,-64.1,13.59));
#483 = CIRCLE('',#484,0.4);
#484 = AXIS2_PLACEMENT_3D('',#485,#486,#487);
#485 = CARTESIAN_POINT('',(120.7,-64.1,13.59));
#486 = DIRECTION('',(0.,0.,-1.));
#487 = DIRECTION('',(-3.553E-14,-1.,-0.));
#488 = ORIENTED_EDGE('',*,*,#489,.F.);
#489 = EDGE_CURVE('',#490,#481,#492,.T.);
#490 = VERTEX_POINT('',#491);
#491 = CARTESIAN_POINT('',(120.3,-64.1,13.19));
#492 = LINE('',#493,#494);
#493 = CARTESIAN_POINT('',(120.3,-64.1,13.19));
#494 = VECTOR('',#495,1.);
#495 = DIRECTION('',(0.,0.,1.));
#496 = ORIENTED_EDGE('',*,*,#497,.F.);
#497 = EDGE_CURVE('',#458,#490,#498,.T.);
#498 = CIRCLE('',#499,0.4);
#499 = AXIS2_PLACEMENT_3D('',#500,#501,#502);
#500 = CARTESIAN_POINT('',(120.7,-64.1,13.19));
#501 = DIRECTION('',(0.,0.,-1.));
#502 = DIRECTION('',(-3.553E-14,-1.,-0.));
#503 = CYLINDRICAL_SURFACE('',#504,0.4);
#504 = AXIS2_PLACEMENT_3D('',#505,#506,#507);
#505 = CARTESIAN_POINT('',(120.7,-64.1,13.19));
#506 = DIRECTION('',(0.,0.,-1.));
#507 = DIRECTION('',(-3.553E-14,-1.,-0.));
#508 = ADVANCED_FACE('',(#509),#534,.T.);
#509 = FACE_BOUND('',#510,.T.);
#510 = EDGE_LOOP('',(#511,#512,#520,#528));
#511 = ORIENTED_EDGE('',*,*,#489,.T.);
#512 = ORIENTED_EDGE('',*,*,#513,.T.);
#513 = EDGE_CURVE('',#481,#514,#516,.T.);
#514 = VERTEX_POINT('',#515);
#515 = CARTESIAN_POINT('',(120.3,-64.,13.59));
#516 = LINE('',#517,#518);
#517 = CARTESIAN_POINT('',(120.3,-64.1,13.59));
#518 = VECTOR('',#519,1.);
#519 = DIRECTION('',(0.,1.,0.));
#520 = ORIENTED_EDGE('',*,*,#521,.F.);
#521 = EDGE_CURVE('',#522,#514,#524,.T.);
#522 = VERTEX_POINT('',#523);
#523 = CARTESIAN_POINT('',(120.3,-64.,13.19));
#524 = LINE('',#525,#526);
#525 = CARTESIAN_POINT('',(120.3,-64.,13.19));
#526 = VECTOR('',#527,1.);
#527 = DIRECTION('',(0.,0.,1.));
#528 = ORIENTED_EDGE('',*,*,#529,.F.);
#529 = EDGE_CURVE('',#490,#522,#530,.T.);
#530 = LINE('',#531,#532);
#531 = CARTESIAN_POINT('',(120.3,-64.1,13.19));
#532 = VECTOR('',#533,1.);
#533 = DIRECTION('',(0.,1.,0.));
#534 = PLANE('',#535);
#535 = AXIS2_PLACEMENT_3D('',#536,#537,#538);
#536 = CARTESIAN_POINT('',(120.3,-64.1,13.19));
#537 = DIRECTION('',(-1.,0.,0.));
#538 = DIRECTION('',(0.,1.,0.));
#539 = ADVANCED_FACE('',(#540),#558,.T.);
#540 = FACE_BOUND('',#541,.T.);
#541 = EDGE_LOOP('',(#542,#543,#550,#551));
#542 = ORIENTED_EDGE('',*,*,#521,.T.);
#543 = ORIENTED_EDGE('',*,*,#544,.T.);
#544 = EDGE_CURVE('',#514,#314,#545,.T.);
#545 = CIRCLE('',#546,0.4);
#546 = AXIS2_PLACEMENT_3D('',#547,#548,#549);
#547 = CARTESIAN_POINT('',(120.7,-64.,13.59));
#548 = DIRECTION('',(0.,0.,-1.));
#549 = DIRECTION('',(-1.,3.553E-14,0.));
#550 = ORIENTED_EDGE('',*,*,#311,.F.);
#551 = ORIENTED_EDGE('',*,*,#552,.F.);
#552 = EDGE_CURVE('',#522,#312,#553,.T.);
#553 = CIRCLE('',#554,0.4);
#554 = AXIS2_PLACEMENT_3D('',#555,#556,#557);
#555 = CARTESIAN_POINT('',(120.7,-64.,13.19));
#556 = DIRECTION('',(0.,0.,-1.));
#557 = DIRECTION('',(-1.,3.553E-14,0.));
#558 = CYLINDRICAL_SURFACE('',#559,0.4);
#559 = AXIS2_PLACEMENT_3D('',#560,#561,#562);
#560 = CARTESIAN_POINT('',(120.7,-64.,13.19));
#561 = DIRECTION('',(0.,0.,-1.));
#562 = DIRECTION('',(-1.,3.553E-14,0.));
#563 = ADVANCED_FACE('',(#564),#574,.F.);
#564 = FACE_BOUND('',#565,.T.);
#565 = EDGE_LOOP('',(#566,#567,#568,#569,#570,#571,#572,#573));
#566 = ORIENTED_EDGE('',*,*,#337,.T.);
#567 = ORIENTED_EDGE('',*,*,#369,.T.);
#568 = ORIENTED_EDGE('',*,*,#401,.T.);
#569 = ORIENTED_EDGE('',*,*,#433,.T.);
#570 = ORIENTED_EDGE('',*,*,#465,.T.);
#571 = ORIENTED_EDGE('',*,*,#497,.T.);
#572 = ORIENTED_EDGE('',*,*,#529,.T.);
#573 = ORIENTED_EDGE('',*,*,#552,.T.);
#574 = PLANE('',#575);
#575 = AXIS2_PLACEMENT_3D('',#576,#577,#578);
#576 = CARTESIAN_POINT('',(125.,-64.05,13.19));
#577 = DIRECTION('',(0.,0.,1.));
#578 = DIRECTION('',(1.,0.,0.));
#579 = ADVANCED_FACE('',(#580),#590,.T.);
#580 = FACE_BOUND('',#581,.F.);
#581 = EDGE_LOOP('',(#582,#583,#584,#585,#586,#587,#588,#589));
#582 = ORIENTED_EDGE('',*,*,#321,.T.);
#583 = ORIENTED_EDGE('',*,*,#352,.T.);
#584 = ORIENTED_EDGE('',*,*,#385,.T.);
#585 = ORIENTED_EDGE('',*,*,#416,.T.);
#586 = ORIENTED_EDGE('',*,*,#449,.T.);
#587 = ORIENTED_EDGE('',*,*,#480,.T.);
#588 = ORIENTED_EDGE('',*,*,#513,.T.);
#589 = ORIENTED_EDGE('',*,*,#544,.T.);
#590 = PLANE('',#591);
#591 = AXIS2_PLACEMENT_3D('',#592,#593,#594);
#592 = CARTESIAN_POINT('',(125.,-64.05,13.59));
#593 = DIRECTION('',(0.,0.,1.));
#594 = DIRECTION('',(1.,0.,0.));
#595 = ( GEOMETRIC_REPRESENTATION_CONTEXT(3) 
GLOBAL_UNCERTAINTY_ASSIGNED_CONTEXT((#599)) GLOBAL_UNIT_ASSIGNED_CONTEXT
((#596,#597,#598)) REPRESENTATION_CONTEXT('Context #1',
  '3D Context with UNIT and UNCERTAINTY') );
#596 = ( LENGTH_UNIT() NAMED_UNIT(*) SI_UNIT(.MILLI.,.METRE.) );
#597 = ( NAMED_UNIT(*) PLANE_ANGLE_UNIT() SI_UNIT($,.RADIAN.) );
#598 = ( NAMED_UNIT(*) SI_UNIT($,.STERADIAN.) SOLID_ANGLE_UNIT() );
#599 = UNCERTAINTY_MEASURE_WITH_UNIT(LENGTH_MEASURE(1.E-07),#596,
  'distance_accuracy_value','confusion accuracy');
#600 = PRODUCT_RELATED_PRODUCT_CATEGORY('part',$,(#7));
ENDSEC;
END-ISO-10303-21;
