ISO-10303-21;
HEADER;
FILE_DESCRIPTION(('FreeCAD Model'),'2;1');
FILE_NAME('Open CASCADE Shape Model','2026-09-29T08:40:40',('FreeCAD'),(
    'FreeCAD'),'Open CASCADE STEP processor 7.8','FreeCAD','Unknown');
FILE_SCHEMA(('AUTOMOTIVE_DESIGN { 1 0 10303 214 1 1 1 1 }'));
ENDSEC;
DATA;
#1 = APPLICATION_PROTOCOL_DEFINITION('international standard',
  'automotive_design',2000,#2);
#2 = APPLICATION_CONTEXT(
  'core data for automotive mechanical design processes');
#3 = SHAPE_DEFINITION_REPRESENTATION(#4,#10);
#4 = PRODUCT_DEFINITION_SHAPE('','',#5);
#5 = PRODUCT_DEFINITION('design','',#6,#9);
#6 = PRODUCT_DEFINITION_FORMATION('','',#7);
#7 = PRODUCT('Open CASCADE STEP translator 7.8 24',
  'Open CASCADE STEP translator 7.8 24','',(#8));
#8 = PRODUCT_CONTEXT('',#2,'mechanical');
#9 = PRODUCT_DEFINITION_CONTEXT('part definition',#2,'design');
#10 = ADVANCED_BREP_SHAPE_REPRESENTATION('',(#11,#15),#371);
#11 = AXIS2_PLACEMENT_3D('',#12,#13,#14);
#12 = CARTESIAN_POINT('',(0.,0.,0.));
#13 = DIRECTION('',(0.,0.,1.));
#14 = DIRECTION('',(1.,0.,-0.));
#15 = MANIFOLD_SOLID_BREP('',#16);
#16 = CLOSED_SHELL('',(#17,#62,#98,#134,#198,#262,#282,#302,#322,#339,
    #354));
#17 = ADVANCED_FACE('',(#18),#54,.F.);
#18 = FACE_BOUND('',#19,.F.);
#19 = EDGE_LOOP('',(#20,#30,#39,#47));
#20 = ORIENTED_EDGE('',*,*,#21,.T.);
#21 = EDGE_CURVE('',#22,#24,#26,.T.);
#22 = VERTEX_POINT('',#23);
#23 = CARTESIAN_POINT('',(112.45,-32.5,13.19));
#24 = VERTEX_POINT('',#25);
#25 = CARTESIAN_POINT('',(112.45,-32.5,13.59));
#26 = LINE('',#27,#28);
#27 = CARTESIAN_POINT('',(112.45,-32.5,13.19));
#28 = VECTOR('',#29,1.);
#29 = DIRECTION('',(0.,0.,1.));
#30 = ORIENTED_EDGE('',*,*,#31,.T.);
#31 = EDGE_CURVE('',#24,#32,#34,.T.);
#32 = VERTEX_POINT('',#33);
#33 = CARTESIAN_POINT('',(114.15,-54.5,13.59));
#34 = B_SPLINE_CURVE_WITH_KNOTS('',3,(#35,#36,#37,#38),.UNSPECIFIED.,.F.
  ,.F.,(4,4),(0.,1.),.PIECEWISE_BEZIER_KNOTS.);
#35 = CARTESIAN_POINT('',(112.45,-32.5,13.59));
#36 = CARTESIAN_POINT('',(112.5,-44.,13.59));
#37 = CARTESIAN_POINT('',(112.9,-50.9,13.59));
#38 = CARTESIAN_POINT('',(114.15,-54.5,13.59));
#39 = ORIENTED_EDGE('',*,*,#40,.F.);
#40 = EDGE_CURVE('',#41,#32,#43,.T.);
#41 = VERTEX_POINT('',#42);
#42 = CARTESIAN_POINT('',(114.15,-54.5,13.19));
#43 = LINE('',#44,#45);
#44 = CARTESIAN_POINT('',(114.15,-54.5,13.19));
#45 = VECTOR('',#46,1.);
#46 = DIRECTION('',(0.,0.,1.));
#47 = ORIENTED_EDGE('',*,*,#48,.F.);
#48 = EDGE_CURVE('',#22,#41,#49,.T.);
#49 = B_SPLINE_CURVE_WITH_KNOTS('',3,(#50,#51,#52,#53),.UNSPECIFIED.,.F.
  ,.F.,(4,4),(0.,1.),.PIECEWISE_BEZIER_KNOTS.);
#50 = CARTESIAN_POINT('',(112.45,-32.5,13.19));
#51 = CARTESIAN_POINT('',(112.5,-44.,13.19));
#52 = CARTESIAN_POINT('',(112.9,-50.9,13.19));
#53 = CARTESIAN_POINT('',(114.15,-54.5,13.19));
#54 = SURFACE_OF_LINEAR_EXTRUSION('',#55,#60);
#55 = B_SPLINE_CURVE_WITH_KNOTS('',3,(#56,#57,#58,#59),.UNSPECIFIED.,.F.
  ,.F.,(4,4),(0.,1.),.PIECEWISE_BEZIER_KNOTS.);
#56 = CARTESIAN_POINT('',(112.45,-32.5,13.19));
#57 = CARTESIAN_POINT('',(112.5,-44.,13.19));
#58 = CARTESIAN_POINT('',(112.9,-50.9,13.19));
#59 = CARTESIAN_POINT('',(114.15,-54.5,13.19));
#60 = VECTOR('',#61,1.);
#61 = DIRECTION('',(-0.,-0.,-1.));
#62 = ADVANCED_FACE('',(#63),#90,.F.);
#63 = FACE_BOUND('',#64,.F.);
#64 = EDGE_LOOP('',(#65,#75,#82,#83));
#65 = ORIENTED_EDGE('',*,*,#66,.T.);
#66 = EDGE_CURVE('',#67,#69,#71,.T.);
#67 = VERTEX_POINT('',#68);
#68 = CARTESIAN_POINT('',(117.8,-57.5,13.19));
#69 = VERTEX_POINT('',#70);
#70 = CARTESIAN_POINT('',(117.8,-57.5,13.59));
#71 = LINE('',#72,#73);
#72 = CARTESIAN_POINT('',(117.8,-57.5,13.19));
#73 = VECTOR('',#74,1.);
#74 = DIRECTION('',(0.,0.,1.));
#75 = ORIENTED_EDGE('',*,*,#76,.T.);
#76 = EDGE_CURVE('',#69,#24,#77,.T.);
#77 = B_SPLINE_CURVE_WITH_KNOTS('',3,(#78,#79,#80,#81),.UNSPECIFIED.,.F.
  ,.F.,(4,4),(0.,1.),.PIECEWISE_BEZIER_KNOTS.);
#78 = CARTESIAN_POINT('',(117.8,-57.5,13.59));
#79 = CARTESIAN_POINT('',(113.5,-54.5,13.59));
#80 = CARTESIAN_POINT('',(113.2,-48.4,13.59));
#81 = CARTESIAN_POINT('',(112.45,-32.5,13.59));
#82 = ORIENTED_EDGE('',*,*,#21,.F.);
#83 = ORIENTED_EDGE('',*,*,#84,.F.);
#84 = EDGE_CURVE('',#67,#22,#85,.T.);
#85 = B_SPLINE_CURVE_WITH_KNOTS('',3,(#86,#87,#88,#89),.UNSPECIFIED.,.F.
  ,.F.,(4,4),(0.,1.),.PIECEWISE_BEZIER_KNOTS.);
#86 = CARTESIAN_POINT('',(117.8,-57.5,13.19));
#87 = CARTESIAN_POINT('',(113.5,-54.5,13.19));
#88 = CARTESIAN_POINT('',(113.2,-48.4,13.19));
#89 = CARTESIAN_POINT('',(112.45,-32.5,13.19));
#90 = SURFACE_OF_LINEAR_EXTRUSION('',#91,#96);
#91 = B_SPLINE_CURVE_WITH_KNOTS('',3,(#92,#93,#94,#95),.UNSPECIFIED.,.F.
  ,.F.,(4,4),(0.,1.),.PIECEWISE_BEZIER_KNOTS.);
#92 = CARTESIAN_POINT('',(117.8,-57.5,13.19));
#93 = CARTESIAN_POINT('',(113.5,-54.5,13.19));
#94 = CARTESIAN_POINT('',(113.2,-48.4,13.19));
#95 = CARTESIAN_POINT('',(112.45,-32.5,13.19));
#96 = VECTOR('',#97,1.);
#97 = DIRECTION('',(-0.,-0.,-1.));
#98 = ADVANCED_FACE('',(#99),#126,.F.);
#99 = FACE_BOUND('',#100,.F.);
#100 = EDGE_LOOP('',(#101,#102,#111,#119));
#101 = ORIENTED_EDGE('',*,*,#40,.T.);
#102 = ORIENTED_EDGE('',*,*,#103,.T.);
#103 = EDGE_CURVE('',#32,#104,#106,.T.);
#104 = VERTEX_POINT('',#105);
#105 = CARTESIAN_POINT('',(128.,-64.1,13.59));
#106 = B_SPLINE_CURVE_WITH_KNOTS('',3,(#107,#108,#109,#110),
  .UNSPECIFIED.,.F.,.F.,(4,4),(0.,1.),.PIECEWISE_BEZIER_KNOTS.);
#107 = CARTESIAN_POINT('',(114.15,-54.5,13.59));
#108 = CARTESIAN_POINT('',(116.5,-62.9,13.59));
#109 = CARTESIAN_POINT('',(121.1,-66.1,13.59));
#110 = CARTESIAN_POINT('',(128.,-64.1,13.59));
#111 = ORIENTED_EDGE('',*,*,#112,.F.);
#112 = EDGE_CURVE('',#113,#104,#115,.T.);
#113 = VERTEX_POINT('',#114);
#114 = CARTESIAN_POINT('',(128.,-64.1,13.19));
#115 = LINE('',#116,#117);
#116 = CARTESIAN_POINT('',(128.,-64.1,13.19));
#117 = VECTOR('',#118,1.);
#118 = DIRECTION('',(0.,0.,1.));
#119 = ORIENTED_EDGE('',*,*,#120,.F.);
#120 = EDGE_CURVE('',#41,#113,#121,.T.);
#121 = B_SPLINE_CURVE_WITH_KNOTS('',3,(#122,#123,#124,#125),
  .UNSPECIFIED.,.F.,.F.,(4,4),(0.,1.),.PIECEWISE_BEZIER_KNOTS.);
#122 = CARTESIAN_POINT('',(114.15,-54.5,13.19));
#123 = CARTESIAN_POINT('',(116.5,-62.9,13.19));
#124 = CARTESIAN_POINT('',(121.1,-66.1,13.19));
#125 = CARTESIAN_POINT('',(128.,-64.1,13.19));
#126 = SURFACE_OF_LINEAR_EXTRUSION('',#127,#132);
#127 = B_SPLINE_CURVE_WITH_KNOTS('',3,(#128,#129,#130,#131),
  .UNSPECIFIED.,.F.,.F.,(4,4),(0.,1.),.PIECEWISE_BEZIER_KNOTS.);
#128 = CARTESIAN_POINT('',(114.15,-54.5,13.19));
#129 = CARTESIAN_POINT('',(116.5,-62.9,13.19));
#130 = CARTESIAN_POINT('',(121.1,-66.1,13.19));
#131 = CARTESIAN_POINT('',(128.,-64.1,13.19));
#132 = VECTOR('',#133,1.);
#133 = DIRECTION('',(-0.,-0.,-1.));
#134 = ADVANCED_FACE('',(#135,#182),#193,.F.);
#135 = FACE_BOUND('',#136,.F.);
#136 = EDGE_LOOP('',(#137,#138,#139,#148,#156,#165,#174,#181));
#137 = ORIENTED_EDGE('',*,*,#48,.T.);
#138 = ORIENTED_EDGE('',*,*,#120,.T.);
#139 = ORIENTED_EDGE('',*,*,#140,.T.);
#140 = EDGE_CURVE('',#113,#141,#143,.T.);
#141 = VERTEX_POINT('',#142);
#142 = CARTESIAN_POINT('',(133.5,-61.1,13.19));
#143 = B_SPLINE_CURVE_WITH_KNOTS('',3,(#144,#145,#146,#147),
  .UNSPECIFIED.,.F.,.F.,(4,4),(0.,1.),.PIECEWISE_BEZIER_KNOTS.);
#144 = CARTESIAN_POINT('',(128.,-64.1,13.19));
#145 = CARTESIAN_POINT('',(130.2,-63.6,13.19));
#146 = CARTESIAN_POINT('',(132.5,-62.5,13.19));
#147 = CARTESIAN_POINT('',(133.5,-61.1,13.19));
#148 = ORIENTED_EDGE('',*,*,#149,.T.);
#149 = EDGE_CURVE('',#141,#150,#152,.T.);
#150 = VERTEX_POINT('',#151);
#151 = CARTESIAN_POINT('',(133.5,-55.8,13.19));
#152 = LINE('',#153,#154);
#153 = CARTESIAN_POINT('',(133.5,-61.1,13.19));
#154 = VECTOR('',#155,1.);
#155 = DIRECTION('',(0.,1.,0.));
#156 = ORIENTED_EDGE('',*,*,#157,.T.);
#157 = EDGE_CURVE('',#150,#158,#160,.T.);
#158 = VERTEX_POINT('',#159);
#159 = CARTESIAN_POINT('',(126.7,-60.7,13.19));
#160 = B_SPLINE_CURVE_WITH_KNOTS('',3,(#161,#162,#163,#164),
  .UNSPECIFIED.,.F.,.F.,(4,4),(0.,1.),.PIECEWISE_BEZIER_KNOTS.);
#161 = CARTESIAN_POINT('',(133.5,-55.8,13.19));
#162 = CARTESIAN_POINT('',(131.6,-59.8,13.19));
#163 = CARTESIAN_POINT('',(129.1,-61.1,13.19));
#164 = CARTESIAN_POINT('',(126.7,-60.7,13.19));
#165 = ORIENTED_EDGE('',*,*,#166,.T.);
#166 = EDGE_CURVE('',#158,#167,#169,.T.);
#167 = VERTEX_POINT('',#168);
#168 = CARTESIAN_POINT('',(122.5,-56.5,13.19));
#169 = B_SPLINE_CURVE_WITH_KNOTS('',3,(#170,#171,#172,#173),
  .UNSPECIFIED.,.F.,.F.,(4,4),(0.,1.),.PIECEWISE_BEZIER_KNOTS.);
#170 = CARTESIAN_POINT('',(126.7,-60.7,13.19));
#171 = CARTESIAN_POINT('',(125.6,-60.5,13.19));
#172 = CARTESIAN_POINT('',(125.9,-56.5,13.19));
#173 = CARTESIAN_POINT('',(122.5,-56.5,13.19));
#174 = ORIENTED_EDGE('',*,*,#175,.T.);
#175 = EDGE_CURVE('',#167,#67,#176,.T.);
#176 = B_SPLINE_CURVE_WITH_KNOTS('',3,(#177,#178,#179,#180),
  .UNSPECIFIED.,.F.,.F.,(4,4),(0.,1.),.PIECEWISE_BEZIER_KNOTS.);
#177 = CARTESIAN_POINT('',(122.5,-56.5,13.19));
#178 = CARTESIAN_POINT('',(119.4,-56.5,13.19));
#179 = CARTESIAN_POINT('',(119.6,-59.5,13.19));
#180 = CARTESIAN_POINT('',(117.8,-57.5,13.19));
#181 = ORIENTED_EDGE('',*,*,#84,.T.);
#182 = FACE_BOUND('',#183,.F.);
#183 = EDGE_LOOP('',(#184));
#184 = ORIENTED_EDGE('',*,*,#185,.F.);
#185 = EDGE_CURVE('',#186,#186,#188,.T.);
#186 = VERTEX_POINT('',#187);
#187 = CARTESIAN_POINT('',(125.4,-60.4,13.19));
#188 = CIRCLE('',#189,2.6);
#189 = AXIS2_PLACEMENT_3D('',#190,#191,#192);
#190 = CARTESIAN_POINT('',(122.8,-60.4,13.19));
#191 = DIRECTION('',(0.,0.,1.));
#192 = DIRECTION('',(1.,0.,0.));
#193 = PLANE('',#194);
#194 = AXIS2_PLACEMENT_3D('',#195,#196,#197);
#195 = CARTESIAN_POINT('',(119.44853839768,-52.52588204065,13.19));
#196 = DIRECTION('',(0.,0.,1.));
#197 = DIRECTION('',(1.,0.,0.));
#198 = ADVANCED_FACE('',(#199,#246),#257,.T.);
#199 = FACE_BOUND('',#200,.T.);
#200 = EDGE_LOOP('',(#201,#202,#203,#212,#220,#229,#238,#245));
#201 = ORIENTED_EDGE('',*,*,#31,.T.);
#202 = ORIENTED_EDGE('',*,*,#103,.T.);
#203 = ORIENTED_EDGE('',*,*,#204,.T.);
#204 = EDGE_CURVE('',#104,#205,#207,.T.);
#205 = VERTEX_POINT('',#206);
#206 = CARTESIAN_POINT('',(133.5,-61.1,13.59));
#207 = B_SPLINE_CURVE_WITH_KNOTS('',3,(#208,#209,#210,#211),
  .UNSPECIFIED.,.F.,.F.,(4,4),(0.,1.),.PIECEWISE_BEZIER_KNOTS.);
#208 = CARTESIAN_POINT('',(128.,-64.1,13.59));
#209 = CARTESIAN_POINT('',(130.2,-63.6,13.59));
#210 = CARTESIAN_POINT('',(132.5,-62.5,13.59));
#211 = CARTESIAN_POINT('',(133.5,-61.1,13.59));
#212 = ORIENTED_EDGE('',*,*,#213,.T.);
#213 = EDGE_CURVE('',#205,#214,#216,.T.);
#214 = VERTEX_POINT('',#215);
#215 = CARTESIAN_POINT('',(133.5,-55.8,13.59));
#216 = LINE('',#217,#218);
#217 = CARTESIAN_POINT('',(133.5,-61.1,13.59));
#218 = VECTOR('',#219,1.);
#219 = DIRECTION('',(0.,1.,0.));
#220 = ORIENTED_EDGE('',*,*,#221,.T.);
#221 = EDGE_CURVE('',#214,#222,#224,.T.);
#222 = VERTEX_POINT('',#223);
#223 = CARTESIAN_POINT('',(126.7,-60.7,13.59));
#224 = B_SPLINE_CURVE_WITH_KNOTS('',3,(#225,#226,#227,#228),
  .UNSPECIFIED.,.F.,.F.,(4,4),(0.,1.),.PIECEWISE_BEZIER_KNOTS.);
#225 = CARTESIAN_POINT('',(133.5,-55.8,13.59));
#226 = CARTESIAN_POINT('',(131.6,-59.8,13.59));
#227 = CARTESIAN_POINT('',(129.1,-61.1,13.59));
#228 = CARTESIAN_POINT('',(126.7,-60.7,13.59));
#229 = ORIENTED_EDGE('',*,*,#230,.T.);
#230 = EDGE_CURVE('',#222,#231,#233,.T.);
#231 = VERTEX_POINT('',#232);
#232 = CARTESIAN_POINT('',(122.5,-56.5,13.59));
#233 = B_SPLINE_CURVE_WITH_KNOTS('',3,(#234,#235,#236,#237),
  .UNSPECIFIED.,.F.,.F.,(4,4),(0.,1.),.PIECEWISE_BEZIER_KNOTS.);
#234 = CARTESIAN_POINT('',(126.7,-60.7,13.59));
#235 = CARTESIAN_POINT('',(125.6,-60.5,13.59));
#236 = CARTESIAN_POINT('',(125.9,-56.5,13.59));
#237 = CARTESIAN_POINT('',(122.5,-56.5,13.59));
#238 = ORIENTED_EDGE('',*,*,#239,.T.);
#239 = EDGE_CURVE('',#231,#69,#240,.T.);
#240 = B_SPLINE_CURVE_WITH_KNOTS('',3,(#241,#242,#243,#244),
  .UNSPECIFIED.,.F.,.F.,(4,4),(0.,1.),.PIECEWISE_BEZIER_KNOTS.);
#241 = CARTESIAN_POINT('',(122.5,-56.5,13.59));
#242 = CARTESIAN_POINT('',(119.4,-56.5,13.59));
#243 = CARTESIAN_POINT('',(119.6,-59.5,13.59));
#244 = CARTESIAN_POINT('',(117.8,-57.5,13.59));
#245 = ORIENTED_EDGE('',*,*,#76,.T.);
#246 = FACE_BOUND('',#247,.T.);
#247 = EDGE_LOOP('',(#248));
#248 = ORIENTED_EDGE('',*,*,#249,.F.);
#249 = EDGE_CURVE('',#250,#250,#252,.T.);
#250 = VERTEX_POINT('',#251);
#251 = CARTESIAN_POINT('',(125.4,-60.4,13.59));
#252 = CIRCLE('',#253,2.6);
#253 = AXIS2_PLACEMENT_3D('',#254,#255,#256);
#254 = CARTESIAN_POINT('',(122.8,-60.4,13.59));
#255 = DIRECTION('',(0.,0.,1.));
#256 = DIRECTION('',(1.,0.,0.));
#257 = PLANE('',#258);
#258 = AXIS2_PLACEMENT_3D('',#259,#260,#261);
#259 = CARTESIAN_POINT('',(119.44853839768,-52.52588204065,13.59));
#260 = DIRECTION('',(0.,0.,1.));
#261 = DIRECTION('',(1.,0.,0.));
#262 = ADVANCED_FACE('',(#263),#274,.F.);
#263 = FACE_BOUND('',#264,.F.);
#264 = EDGE_LOOP('',(#265,#271,#272,#273));
#265 = ORIENTED_EDGE('',*,*,#266,.T.);
#266 = EDGE_CURVE('',#167,#231,#267,.T.);
#267 = LINE('',#268,#269);
#268 = CARTESIAN_POINT('',(122.5,-56.5,13.19));
#269 = VECTOR('',#270,1.);
#270 = DIRECTION('',(0.,0.,1.));
#271 = ORIENTED_EDGE('',*,*,#239,.T.);
#272 = ORIENTED_EDGE('',*,*,#66,.F.);
#273 = ORIENTED_EDGE('',*,*,#175,.F.);
#274 = SURFACE_OF_LINEAR_EXTRUSION('',#275,#280);
#275 = B_SPLINE_CURVE_WITH_KNOTS('',3,(#276,#277,#278,#279),
  .UNSPECIFIED.,.F.,.F.,(4,4),(0.,1.),.PIECEWISE_BEZIER_KNOTS.);
#276 = CARTESIAN_POINT('',(122.5,-56.5,13.19));
#277 = CARTESIAN_POINT('',(119.4,-56.5,13.19));
#278 = CARTESIAN_POINT('',(119.6,-59.5,13.19));
#279 = CARTESIAN_POINT('',(117.8,-57.5,13.19));
#280 = VECTOR('',#281,1.);
#281 = DIRECTION('',(-0.,-0.,-1.));
#282 = ADVANCED_FACE('',(#283),#294,.F.);
#283 = FACE_BOUND('',#284,.F.);
#284 = EDGE_LOOP('',(#285,#286,#287,#293));
#285 = ORIENTED_EDGE('',*,*,#112,.T.);
#286 = ORIENTED_EDGE('',*,*,#204,.T.);
#287 = ORIENTED_EDGE('',*,*,#288,.F.);
#288 = EDGE_CURVE('',#141,#205,#289,.T.);
#289 = LINE('',#290,#291);
#290 = CARTESIAN_POINT('',(133.5,-61.1,13.19));
#291 = VECTOR('',#292,1.);
#292 = DIRECTION('',(0.,0.,1.));
#293 = ORIENTED_EDGE('',*,*,#140,.F.);
#294 = SURFACE_OF_LINEAR_EXTRUSION('',#295,#300);
#295 = B_SPLINE_CURVE_WITH_KNOTS('',3,(#296,#297,#298,#299),
  .UNSPECIFIED.,.F.,.F.,(4,4),(0.,1.),.PIECEWISE_BEZIER_KNOTS.);
#296 = CARTESIAN_POINT('',(128.,-64.1,13.19));
#297 = CARTESIAN_POINT('',(130.2,-63.6,13.19));
#298 = CARTESIAN_POINT('',(132.5,-62.5,13.19));
#299 = CARTESIAN_POINT('',(133.5,-61.1,13.19));
#300 = VECTOR('',#301,1.);
#301 = DIRECTION('',(-0.,-0.,-1.));
#302 = ADVANCED_FACE('',(#303),#314,.F.);
#303 = FACE_BOUND('',#304,.F.);
#304 = EDGE_LOOP('',(#305,#311,#312,#313));
#305 = ORIENTED_EDGE('',*,*,#306,.T.);
#306 = EDGE_CURVE('',#158,#222,#307,.T.);
#307 = LINE('',#308,#309);
#308 = CARTESIAN_POINT('',(126.7,-60.7,13.19));
#309 = VECTOR('',#310,1.);
#310 = DIRECTION('',(0.,0.,1.));
#311 = ORIENTED_EDGE('',*,*,#230,.T.);
#312 = ORIENTED_EDGE('',*,*,#266,.F.);
#313 = ORIENTED_EDGE('',*,*,#166,.F.);
#314 = SURFACE_OF_LINEAR_EXTRUSION('',#315,#320);
#315 = B_SPLINE_CURVE_WITH_KNOTS('',3,(#316,#317,#318,#319),
  .UNSPECIFIED.,.F.,.F.,(4,4),(0.,1.),.PIECEWISE_BEZIER_KNOTS.);
#316 = CARTESIAN_POINT('',(126.7,-60.7,13.19));
#317 = CARTESIAN_POINT('',(125.6,-60.5,13.19));
#318 = CARTESIAN_POINT('',(125.9,-56.5,13.19));
#319 = CARTESIAN_POINT('',(122.5,-56.5,13.19));
#320 = VECTOR('',#321,1.);
#321 = DIRECTION('',(-0.,-0.,-1.));
#322 = ADVANCED_FACE('',(#323),#334,.F.);
#323 = FACE_BOUND('',#324,.F.);
#324 = EDGE_LOOP('',(#325,#326,#327,#333));
#325 = ORIENTED_EDGE('',*,*,#288,.T.);
#326 = ORIENTED_EDGE('',*,*,#213,.T.);
#327 = ORIENTED_EDGE('',*,*,#328,.F.);
#328 = EDGE_CURVE('',#150,#214,#329,.T.);
#329 = LINE('',#330,#331);
#330 = CARTESIAN_POINT('',(133.5,-55.8,13.19));
#331 = VECTOR('',#332,1.);
#332 = DIRECTION('',(0.,0.,1.));
#333 = ORIENTED_EDGE('',*,*,#149,.F.);
#334 = PLANE('',#335);
#335 = AXIS2_PLACEMENT_3D('',#336,#337,#338);
#336 = CARTESIAN_POINT('',(133.5,-61.1,13.19));
#337 = DIRECTION('',(-1.,0.,0.));
#338 = DIRECTION('',(0.,1.,0.));
#339 = ADVANCED_FACE('',(#340),#346,.F.);
#340 = FACE_BOUND('',#341,.F.);
#341 = EDGE_LOOP('',(#342,#343,#344,#345));
#342 = ORIENTED_EDGE('',*,*,#328,.T.);
#343 = ORIENTED_EDGE('',*,*,#221,.T.);
#344 = ORIENTED_EDGE('',*,*,#306,.F.);
#345 = ORIENTED_EDGE('',*,*,#157,.F.);
#346 = SURFACE_OF_LINEAR_EXTRUSION('',#347,#352);
#347 = B_SPLINE_CURVE_WITH_KNOTS('',3,(#348,#349,#350,#351),
  .UNSPECIFIED.,.F.,.F.,(4,4),(0.,1.),.PIECEWISE_BEZIER_KNOTS.);
#348 = CARTESIAN_POINT('',(133.5,-55.8,13.19));
#349 = CARTESIAN_POINT('',(131.6,-59.8,13.19));
#350 = CARTESIAN_POINT('',(129.1,-61.1,13.19));
#351 = CARTESIAN_POINT('',(126.7,-60.7,13.19));
#352 = VECTOR('',#353,1.);
#353 = DIRECTION('',(-0.,-0.,-1.));
#354 = ADVANCED_FACE('',(#355),#366,.F.);
#355 = FACE_BOUND('',#356,.T.);
#356 = EDGE_LOOP('',(#357,#363,#364,#365));
#357 = ORIENTED_EDGE('',*,*,#358,.T.);
#358 = EDGE_CURVE('',#186,#250,#359,.T.);
#359 = LINE('',#360,#361);
#360 = CARTESIAN_POINT('',(125.4,-60.4,13.19));
#361 = VECTOR('',#362,1.);
#362 = DIRECTION('',(0.,0.,1.));
#363 = ORIENTED_EDGE('',*,*,#249,.T.);
#364 = ORIENTED_EDGE('',*,*,#358,.F.);
#365 = ORIENTED_EDGE('',*,*,#185,.F.);
#366 = CYLINDRICAL_SURFACE('',#367,2.6);
#367 = AXIS2_PLACEMENT_3D('',#368,#369,#370);
#368 = CARTESIAN_POINT('',(122.8,-60.4,13.19));
#369 = DIRECTION('',(-0.,-0.,-1.));
#370 = DIRECTION('',(1.,0.,0.));
#371 = ( GEOMETRIC_REPRESENTATION_CONTEXT(3) 
GLOBAL_UNCERTAINTY_ASSIGNED_CONTEXT((#375)) GLOBAL_UNIT_ASSIGNED_CONTEXT
((#372,#373,#374)) REPRESENTATION_CONTEXT('Context #1',
  '3D Context with UNIT and UNCERTAINTY') );
#372 = ( LENGTH_UNIT() NAMED_UNIT(*) SI_UNIT(.MILLI.,.METRE.) );
#373 = ( NAMED_UNIT(*) PLANE_ANGLE_UNIT() SI_UNIT($,.RADIAN.) );
#374 = ( NAMED_UNIT(*) SI_UNIT($,.STERADIAN.) SOLID_ANGLE_UNIT() );
#375 = UNCERTAINTY_MEASURE_WITH_UNIT(LENGTH_MEASURE(1.E-07),#372,
  'distance_accuracy_value','confusion accuracy');
#376 = PRODUCT_RELATED_PRODUCT_CATEGORY('part',$,(#7));
ENDSEC;
END-ISO-10303-21;
