ISO-10303-21;
HEADER;
FILE_DESCRIPTION(('FreeCAD Model'),'2;1');
FILE_NAME('Open CASCADE Shape Model','2026-09-28T15:54:13',('FreeCAD'),(
    'FreeCAD'),'Open CASCADE STEP processor 7.8','FreeCAD','Unknown');
FILE_SCHEMA(('AUTOMOTIVE_DESIGN { 1 0 10303 214 1 1 1 1 }'));
ENDSEC;
DATA;
#1 = APPLICATION_PROTOCOL_DEFINITION('international standard',
  'automotive_design',2000,#2);
#2 = APPLICATION_CONTEXT(
  'core data for automotive mechanical design processes');
#3 = SHAPE_DEFINITION_REPRESENTATION(#4,#10);
#4 = PRODUCT_DEFINITION_SHAPE('','',#5);
#5 = PRODUCT_DEFINITION('design','',#6,#9);
#6 = PRODUCT_DEFINITION_FORMATION('','',#7);
#7 = PRODUCT('Open CASCADE STEP translator 7.8 50',
  'Open CASCADE STEP translator 7.8 50','',(#8));
#8 = PRODUCT_CONTEXT('',#2,'mechanical');
#9 = PRODUCT_DEFINITION_CONTEXT('part definition',#2,'design');
#10 = SHAPE_REPRESENTATION('',(#11,#15,#121,#174,#368),#562);
#11 = AXIS2_PLACEMENT_3D('',#12,#13,#14);
#12 = CARTESIAN_POINT('',(0.,0.,0.));
#13 = DIRECTION('',(0.,0.,1.));
#14 = DIRECTION('',(1.,0.,-0.));
#15 = MANIFOLD_SOLID_BREP('',#16);
#16 = CLOSED_SHELL('',(#17,#51,#82,#107));
#17 = ADVANCED_FACE('',(#18),#46,.F.);
#18 = FACE_BOUND('',#19,.F.);
#19 = EDGE_LOOP('',(#20,#31,#40));
#20 = ORIENTED_EDGE('',*,*,#21,.T.);
#21 = EDGE_CURVE('',#22,#24,#26,.T.);
#22 = VERTEX_POINT('',#23);
#23 = CARTESIAN_POINT('',(126.57016261237,-53.,12.99));
#24 = VERTEX_POINT('',#25);
#25 = CARTESIAN_POINT('',(129.45,-54.1,12.99));
#26 = CIRCLE('',#27,1.65);
#27 = AXIS2_PLACEMENT_3D('',#28,#29,#30);
#28 = CARTESIAN_POINT('',(127.8,-54.1,12.99));
#29 = DIRECTION('',(0.,0.,1.));
#30 = DIRECTION('',(1.,0.,0.));
#31 = ORIENTED_EDGE('',*,*,#32,.T.);
#32 = EDGE_CURVE('',#24,#33,#35,.T.);
#33 = VERTEX_POINT('',#34);
#34 = CARTESIAN_POINT('',(129.02983738762,-53.,12.99));
#35 = CIRCLE('',#36,1.65);
#36 = AXIS2_PLACEMENT_3D('',#37,#38,#39);
#37 = CARTESIAN_POINT('',(127.8,-54.1,12.99));
#38 = DIRECTION('',(0.,0.,1.));
#39 = DIRECTION('',(1.,0.,0.));
#40 = ORIENTED_EDGE('',*,*,#41,.T.);
#41 = EDGE_CURVE('',#33,#22,#42,.T.);
#42 = LINE('',#43,#44);
#43 = CARTESIAN_POINT('',(118.90608769591,-53.,12.99));
#44 = VECTOR('',#45,1.);
#45 = DIRECTION('',(-1.,0.,0.));
#46 = PLANE('',#47);
#47 = AXIS2_PLACEMENT_3D('',#48,#49,#50);
#48 = CARTESIAN_POINT('',(127.8,-54.1,12.99));
#49 = DIRECTION('',(0.,0.,1.));
#50 = DIRECTION('',(1.,0.,0.));
#51 = ADVANCED_FACE('',(#52),#77,.T.);
#52 = FACE_BOUND('',#53,.T.);
#53 = EDGE_LOOP('',(#54,#62,#63,#71));
#54 = ORIENTED_EDGE('',*,*,#55,.T.);
#55 = EDGE_CURVE('',#56,#33,#58,.T.);
#56 = VERTEX_POINT('',#57);
#57 = CARTESIAN_POINT('',(129.02983738762,-53.,13.39));
#58 = LINE('',#59,#60);
#59 = CARTESIAN_POINT('',(129.02983738762,-53.,12.99));
#60 = VECTOR('',#61,1.);
#61 = DIRECTION('',(-0.,-0.,-1.));
#62 = ORIENTED_EDGE('',*,*,#41,.T.);
#63 = ORIENTED_EDGE('',*,*,#64,.F.);
#64 = EDGE_CURVE('',#65,#22,#67,.T.);
#65 = VERTEX_POINT('',#66);
#66 = CARTESIAN_POINT('',(126.57016261237,-53.,13.39));
#67 = LINE('',#68,#69);
#68 = CARTESIAN_POINT('',(126.57016261237,-53.,12.99));
#69 = VECTOR('',#70,1.);
#70 = DIRECTION('',(-0.,-0.,-1.));
#71 = ORIENTED_EDGE('',*,*,#72,.F.);
#72 = EDGE_CURVE('',#56,#65,#73,.T.);
#73 = LINE('',#74,#75);
#74 = CARTESIAN_POINT('',(118.90334371508,-53.,13.39));
#75 = VECTOR('',#76,1.);
#76 = DIRECTION('',(-1.,0.,0.));
#77 = PLANE('',#78);
#78 = AXIS2_PLACEMENT_3D('',#79,#80,#81);
#79 = CARTESIAN_POINT('',(114.85,-53.,11.7));
#80 = DIRECTION('',(0.,1.,0.));
#81 = DIRECTION('',(0.,0.,1.));
#82 = ADVANCED_FACE('',(#83),#102,.T.);
#83 = FACE_BOUND('',#84,.T.);
#84 = EDGE_LOOP('',(#85,#94,#101));
#85 = ORIENTED_EDGE('',*,*,#86,.T.);
#86 = EDGE_CURVE('',#65,#87,#89,.T.);
#87 = VERTEX_POINT('',#88);
#88 = CARTESIAN_POINT('',(129.45,-54.1,13.39));
#89 = CIRCLE('',#90,1.65);
#90 = AXIS2_PLACEMENT_3D('',#91,#92,#93);
#91 = CARTESIAN_POINT('',(127.8,-54.1,13.39));
#92 = DIRECTION('',(0.,0.,1.));
#93 = DIRECTION('',(1.,0.,0.));
#94 = ORIENTED_EDGE('',*,*,#95,.T.);
#95 = EDGE_CURVE('',#87,#56,#96,.T.);
#96 = CIRCLE('',#97,1.65);
#97 = AXIS2_PLACEMENT_3D('',#98,#99,#100);
#98 = CARTESIAN_POINT('',(127.8,-54.1,13.39));
#99 = DIRECTION('',(0.,0.,1.));
#100 = DIRECTION('',(1.,0.,0.));
#101 = ORIENTED_EDGE('',*,*,#72,.T.);
#102 = PLANE('',#103);
#103 = AXIS2_PLACEMENT_3D('',#104,#105,#106);
#104 = CARTESIAN_POINT('',(127.8,-54.1,13.39));
#105 = DIRECTION('',(0.,0.,1.));
#106 = DIRECTION('',(1.,0.,0.));
#107 = ADVANCED_FACE('',(#108),#116,.T.);
#108 = FACE_BOUND('',#109,.F.);
#109 = EDGE_LOOP('',(#110,#111,#112,#113,#114,#115));
#110 = ORIENTED_EDGE('',*,*,#64,.F.);
#111 = ORIENTED_EDGE('',*,*,#86,.T.);
#112 = ORIENTED_EDGE('',*,*,#95,.T.);
#113 = ORIENTED_EDGE('',*,*,#55,.T.);
#114 = ORIENTED_EDGE('',*,*,#32,.F.);
#115 = ORIENTED_EDGE('',*,*,#21,.F.);
#116 = CYLINDRICAL_SURFACE('',#117,1.65);
#117 = AXIS2_PLACEMENT_3D('',#118,#119,#120);
#118 = CARTESIAN_POINT('',(127.8,-54.1,12.99));
#119 = DIRECTION('',(-0.,-0.,-1.));
#120 = DIRECTION('',(1.,0.,0.));
#121 = MANIFOLD_SOLID_BREP('',#122);
#122 = CLOSED_SHELL('',(#123,#156,#165));
#123 = ADVANCED_FACE('',(#124),#151,.T.);
#124 = FACE_BOUND('',#125,.F.);
#125 = EDGE_LOOP('',(#126,#136,#143,#144));
#126 = ORIENTED_EDGE('',*,*,#127,.T.);
#127 = EDGE_CURVE('',#128,#130,#132,.T.);
#128 = VERTEX_POINT('',#129);
#129 = CARTESIAN_POINT('',(126.25,-57.3,12.99));
#130 = VERTEX_POINT('',#131);
#131 = CARTESIAN_POINT('',(126.25,-57.3,13.39));
#132 = LINE('',#133,#134);
#133 = CARTESIAN_POINT('',(126.25,-57.3,12.99));
#134 = VECTOR('',#135,1.);
#135 = DIRECTION('',(0.,0.,1.));
#136 = ORIENTED_EDGE('',*,*,#137,.T.);
#137 = EDGE_CURVE('',#130,#130,#138,.T.);
#138 = CIRCLE('',#139,1.65);
#139 = AXIS2_PLACEMENT_3D('',#140,#141,#142);
#140 = CARTESIAN_POINT('',(124.6,-57.3,13.39));
#141 = DIRECTION('',(0.,0.,1.));
#142 = DIRECTION('',(1.,0.,0.));
#143 = ORIENTED_EDGE('',*,*,#127,.F.);
#144 = ORIENTED_EDGE('',*,*,#145,.F.);
#145 = EDGE_CURVE('',#128,#128,#146,.T.);
#146 = CIRCLE('',#147,1.65);
#147 = AXIS2_PLACEMENT_3D('',#148,#149,#150);
#148 = CARTESIAN_POINT('',(124.6,-57.3,12.99));
#149 = DIRECTION('',(0.,0.,1.));
#150 = DIRECTION('',(1.,0.,0.));
#151 = CYLINDRICAL_SURFACE('',#152,1.65);
#152 = AXIS2_PLACEMENT_3D('',#153,#154,#155);
#153 = CARTESIAN_POINT('',(124.6,-57.3,12.99));
#154 = DIRECTION('',(-0.,-0.,-1.));
#155 = DIRECTION('',(1.,0.,0.));
#156 = ADVANCED_FACE('',(#157),#160,.F.);
#157 = FACE_BOUND('',#158,.T.);
#158 = EDGE_LOOP('',(#159));
#159 = ORIENTED_EDGE('',*,*,#145,.F.);
#160 = PLANE('',#161);
#161 = AXIS2_PLACEMENT_3D('',#162,#163,#164);
#162 = CARTESIAN_POINT('',(124.6,-57.3,12.99));
#163 = DIRECTION('',(0.,0.,1.));
#164 = DIRECTION('',(1.,0.,0.));
#165 = ADVANCED_FACE('',(#166),#169,.T.);
#166 = FACE_BOUND('',#167,.F.);
#167 = EDGE_LOOP('',(#168));
#168 = ORIENTED_EDGE('',*,*,#137,.F.);
#169 = PLANE('',#170);
#170 = AXIS2_PLACEMENT_3D('',#171,#172,#173);
#171 = CARTESIAN_POINT('',(124.6,-57.3,13.39));
#172 = DIRECTION('',(0.,0.,1.));
#173 = DIRECTION('',(1.,0.,0.));
#174 = MANIFOLD_SOLID_BREP('',#175);
#175 = CLOSED_SHELL('',(#176,#216,#267,#298,#340,#354));
#176 = ADVANCED_FACE('',(#177),#211,.T.);
#177 = FACE_BOUND('',#178,.T.);
#178 = EDGE_LOOP('',(#179,#189,#197,#205));
#179 = ORIENTED_EDGE('',*,*,#180,.T.);
#180 = EDGE_CURVE('',#181,#183,#185,.T.);
#181 = VERTEX_POINT('',#182);
#182 = CARTESIAN_POINT('',(125.,-13.,12.99));
#183 = VERTEX_POINT('',#184);
#184 = CARTESIAN_POINT('',(125.,-13.,13.39));
#185 = LINE('',#186,#187);
#186 = CARTESIAN_POINT('',(125.,-13.,12.99));
#187 = VECTOR('',#188,1.);
#188 = DIRECTION('',(0.,0.,1.));
#189 = ORIENTED_EDGE('',*,*,#190,.T.);
#190 = EDGE_CURVE('',#183,#191,#193,.T.);
#191 = VERTEX_POINT('',#192);
#192 = CARTESIAN_POINT('',(130.,-13.,13.39));
#193 = LINE('',#194,#195);
#194 = CARTESIAN_POINT('',(125.,-13.,13.39));
#195 = VECTOR('',#196,1.);
#196 = DIRECTION('',(1.,0.,0.));
#197 = ORIENTED_EDGE('',*,*,#198,.F.);
#198 = EDGE_CURVE('',#199,#191,#201,.T.);
#199 = VERTEX_POINT('',#200);
#200 = CARTESIAN_POINT('',(130.,-13.,12.99));
#201 = LINE('',#202,#203);
#202 = CARTESIAN_POINT('',(130.,-13.,12.99));
#203 = VECTOR('',#204,1.);
#204 = DIRECTION('',(0.,0.,1.));
#205 = ORIENTED_EDGE('',*,*,#206,.F.);
#206 = EDGE_CURVE('',#181,#199,#207,.T.);
#207 = LINE('',#208,#209);
#208 = CARTESIAN_POINT('',(125.,-13.,12.99));
#209 = VECTOR('',#210,1.);
#210 = DIRECTION('',(1.,0.,0.));
#211 = PLANE('',#212);
#212 = AXIS2_PLACEMENT_3D('',#213,#214,#215);
#213 = CARTESIAN_POINT('',(125.,-13.,12.99));
#214 = DIRECTION('',(0.,1.,0.));
#215 = DIRECTION('',(1.,0.,0.));
#216 = ADVANCED_FACE('',(#217),#262,.F.);
#217 = FACE_BOUND('',#218,.T.);
#218 = EDGE_LOOP('',(#219,#220,#229,#238,#246,#255));
#219 = ORIENTED_EDGE('',*,*,#206,.T.);
#220 = ORIENTED_EDGE('',*,*,#221,.T.);
#221 = EDGE_CURVE('',#199,#222,#224,.T.);
#222 = VERTEX_POINT('',#223);
#223 = CARTESIAN_POINT('',(131.,-14.,12.99));
#224 = CIRCLE('',#225,1.);
#225 = AXIS2_PLACEMENT_3D('',#226,#227,#228);
#226 = CARTESIAN_POINT('',(130.,-14.,12.99));
#227 = DIRECTION('',(0.,0.,-1.));
#228 = DIRECTION('',(0.,1.,0.));
#229 = ORIENTED_EDGE('',*,*,#230,.T.);
#230 = EDGE_CURVE('',#222,#231,#233,.T.);
#231 = VERTEX_POINT('',#232);
#232 = CARTESIAN_POINT('',(130.,-15.,12.99));
#233 = CIRCLE('',#234,1.);
#234 = AXIS2_PLACEMENT_3D('',#235,#236,#237);
#235 = CARTESIAN_POINT('',(130.,-14.,12.99));
#236 = DIRECTION('',(0.,0.,-1.));
#237 = DIRECTION('',(1.,8.88E-15,0.));
#238 = ORIENTED_EDGE('',*,*,#239,.T.);
#239 = EDGE_CURVE('',#231,#240,#242,.T.);
#240 = VERTEX_POINT('',#241);
#241 = CARTESIAN_POINT('',(125.,-15.,12.99));
#242 = LINE('',#243,#244);
#243 = CARTESIAN_POINT('',(130.,-15.,12.99));
#244 = VECTOR('',#245,1.);
#245 = DIRECTION('',(-1.,0.,0.));
#246 = ORIENTED_EDGE('',*,*,#247,.T.);
#247 = EDGE_CURVE('',#240,#248,#250,.T.);
#248 = VERTEX_POINT('',#249);
#249 = CARTESIAN_POINT('',(124.,-14.,12.99));
#250 = CIRCLE('',#251,1.);
#251 = AXIS2_PLACEMENT_3D('',#252,#253,#254);
#252 = CARTESIAN_POINT('',(125.,-14.,12.99));
#253 = DIRECTION('',(0.,0.,-1.));
#254 = DIRECTION('',(1.421E-14,-1.,0.));
#255 = ORIENTED_EDGE('',*,*,#256,.T.);
#256 = EDGE_CURVE('',#248,#181,#257,.T.);
#257 = CIRCLE('',#258,1.);
#258 = AXIS2_PLACEMENT_3D('',#259,#260,#261);
#259 = CARTESIAN_POINT('',(125.,-14.,12.99));
#260 = DIRECTION('',(0.,0.,-1.));
#261 = DIRECTION('',(-1.,-8.88E-15,-0.));
#262 = PLANE('',#263);
#263 = AXIS2_PLACEMENT_3D('',#264,#265,#266);
#264 = CARTESIAN_POINT('',(127.5,-14.,12.99));
#265 = DIRECTION('',(0.,0.,1.));
#266 = DIRECTION('',(1.,0.,0.));
#267 = ADVANCED_FACE('',(#268),#293,.T.);
#268 = FACE_BOUND('',#269,.T.);
#269 = EDGE_LOOP('',(#270,#278,#286,#292));
#270 = ORIENTED_EDGE('',*,*,#271,.T.);
#271 = EDGE_CURVE('',#231,#272,#274,.T.);
#272 = VERTEX_POINT('',#273);
#273 = CARTESIAN_POINT('',(130.,-15.,13.39));
#274 = LINE('',#275,#276);
#275 = CARTESIAN_POINT('',(130.,-15.,12.99));
#276 = VECTOR('',#277,1.);
#277 = DIRECTION('',(0.,0.,1.));
#278 = ORIENTED_EDGE('',*,*,#279,.T.);
#279 = EDGE_CURVE('',#272,#280,#282,.T.);
#280 = VERTEX_POINT('',#281);
#281 = CARTESIAN_POINT('',(125.,-15.,13.39));
#282 = LINE('',#283,#284);
#283 = CARTESIAN_POINT('',(130.,-15.,13.39));
#284 = VECTOR('',#285,1.);
#285 = DIRECTION('',(-1.,0.,0.));
#286 = ORIENTED_EDGE('',*,*,#287,.F.);
#287 = EDGE_CURVE('',#240,#280,#288,.T.);
#288 = LINE('',#289,#290);
#289 = CARTESIAN_POINT('',(125.,-15.,12.99));
#290 = VECTOR('',#291,1.);
#291 = DIRECTION('',(0.,0.,1.));
#292 = ORIENTED_EDGE('',*,*,#239,.F.);
#293 = PLANE('',#294);
#294 = AXIS2_PLACEMENT_3D('',#295,#296,#297);
#295 = CARTESIAN_POINT('',(130.,-15.,12.99));
#296 = DIRECTION('',(0.,-1.,0.));
#297 = DIRECTION('',(-1.,0.,0.));
#298 = ADVANCED_FACE('',(#299),#335,.T.);
#299 = FACE_BOUND('',#300,.F.);
#300 = EDGE_LOOP('',(#301,#302,#311,#318,#319,#328));
#301 = ORIENTED_EDGE('',*,*,#190,.T.);
#302 = ORIENTED_EDGE('',*,*,#303,.T.);
#303 = EDGE_CURVE('',#191,#304,#306,.T.);
#304 = VERTEX_POINT('',#305);
#305 = CARTESIAN_POINT('',(131.,-14.,13.39));
#306 = CIRCLE('',#307,1.);
#307 = AXIS2_PLACEMENT_3D('',#308,#309,#310);
#308 = CARTESIAN_POINT('',(130.,-14.,13.39));
#309 = DIRECTION('',(0.,0.,-1.));
#310 = DIRECTION('',(0.,1.,0.));
#311 = ORIENTED_EDGE('',*,*,#312,.T.);
#312 = EDGE_CURVE('',#304,#272,#313,.T.);
#313 = CIRCLE('',#314,1.);
#314 = AXIS2_PLACEMENT_3D('',#315,#316,#317);
#315 = CARTESIAN_POINT('',(130.,-14.,13.39));
#316 = DIRECTION('',(0.,0.,-1.));
#317 = DIRECTION('',(1.,8.88E-15,0.));
#318 = ORIENTED_EDGE('',*,*,#279,.T.);
#319 = ORIENTED_EDGE('',*,*,#320,.T.);
#320 = EDGE_CURVE('',#280,#321,#323,.T.);
#321 = VERTEX_POINT('',#322);
#322 = CARTESIAN_POINT('',(124.,-14.,13.39));
#323 = CIRCLE('',#324,1.);
#324 = AXIS2_PLACEMENT_3D('',#325,#326,#327);
#325 = CARTESIAN_POINT('',(125.,-14.,13.39));
#326 = DIRECTION('',(0.,0.,-1.));
#327 = DIRECTION('',(1.421E-14,-1.,0.));
#328 = ORIENTED_EDGE('',*,*,#329,.T.);
#329 = EDGE_CURVE('',#321,#183,#330,.T.);
#330 = CIRCLE('',#331,1.);
#331 = AXIS2_PLACEMENT_3D('',#332,#333,#334);
#332 = CARTESIAN_POINT('',(125.,-14.,13.39));
#333 = DIRECTION('',(0.,0.,-1.));
#334 = DIRECTION('',(-1.,-8.88E-15,-0.));
#335 = PLANE('',#336);
#336 = AXIS2_PLACEMENT_3D('',#337,#338,#339);
#337 = CARTESIAN_POINT('',(127.5,-14.,13.39));
#338 = DIRECTION('',(0.,0.,1.));
#339 = DIRECTION('',(1.,0.,0.));
#340 = ADVANCED_FACE('',(#341),#349,.T.);
#341 = FACE_BOUND('',#342,.T.);
#342 = EDGE_LOOP('',(#343,#344,#345,#346,#347,#348));
#343 = ORIENTED_EDGE('',*,*,#312,.T.);
#344 = ORIENTED_EDGE('',*,*,#271,.F.);
#345 = ORIENTED_EDGE('',*,*,#230,.F.);
#346 = ORIENTED_EDGE('',*,*,#221,.F.);
#347 = ORIENTED_EDGE('',*,*,#198,.T.);
#348 = ORIENTED_EDGE('',*,*,#303,.T.);
#349 = CYLINDRICAL_SURFACE('',#350,1.);
#350 = AXIS2_PLACEMENT_3D('',#351,#352,#353);
#351 = CARTESIAN_POINT('',(130.,-14.,12.99));
#352 = DIRECTION('',(0.,0.,-1.));
#353 = DIRECTION('',(0.,1.,0.));
#354 = ADVANCED_FACE('',(#355),#363,.T.);
#355 = FACE_BOUND('',#356,.T.);
#356 = EDGE_LOOP('',(#357,#358,#359,#360,#361,#362));
#357 = ORIENTED_EDGE('',*,*,#329,.T.);
#358 = ORIENTED_EDGE('',*,*,#180,.F.);
#359 = ORIENTED_EDGE('',*,*,#256,.F.);
#360 = ORIENTED_EDGE('',*,*,#247,.F.);
#361 = ORIENTED_EDGE('',*,*,#287,.T.);
#362 = ORIENTED_EDGE('',*,*,#320,.T.);
#363 = CYLINDRICAL_SURFACE('',#364,1.);
#364 = AXIS2_PLACEMENT_3D('',#365,#366,#367);
#365 = CARTESIAN_POINT('',(125.,-14.,12.99));
#366 = DIRECTION('',(0.,0.,-1.));
#367 = DIRECTION('',(1.421E-14,-1.,0.));
#368 = MANIFOLD_SOLID_BREP('',#369);
#369 = CLOSED_SHELL('',(#370,#410,#461,#492,#534,#548));
#370 = ADVANCED_FACE('',(#371),#405,.T.);
#371 = FACE_BOUND('',#372,.T.);
#372 = EDGE_LOOP('',(#373,#383,#391,#399));
#373 = ORIENTED_EDGE('',*,*,#374,.T.);
#374 = EDGE_CURVE('',#375,#377,#379,.T.);
#375 = VERTEX_POINT('',#376);
#376 = CARTESIAN_POINT('',(115.6,-63.8,12.99));
#377 = VERTEX_POINT('',#378);
#378 = CARTESIAN_POINT('',(115.6,-63.8,13.39));
#379 = LINE('',#380,#381);
#380 = CARTESIAN_POINT('',(115.6,-63.8,12.99));
#381 = VECTOR('',#382,1.);
#382 = DIRECTION('',(0.,0.,1.));
#383 = ORIENTED_EDGE('',*,*,#384,.T.);
#384 = EDGE_CURVE('',#377,#385,#387,.T.);
#385 = VERTEX_POINT('',#386);
#386 = CARTESIAN_POINT('',(122.4,-63.8,13.39));
#387 = LINE('',#388,#389);
#388 = CARTESIAN_POINT('',(115.6,-63.8,13.39));
#389 = VECTOR('',#390,1.);
#390 = DIRECTION('',(1.,0.,0.));
#391 = ORIENTED_EDGE('',*,*,#392,.F.);
#392 = EDGE_CURVE('',#393,#385,#395,.T.);
#393 = VERTEX_POINT('',#394);
#394 = CARTESIAN_POINT('',(122.4,-63.8,12.99));
#395 = LINE('',#396,#397);
#396 = CARTESIAN_POINT('',(122.4,-63.8,12.99));
#397 = VECTOR('',#398,1.);
#398 = DIRECTION('',(0.,0.,1.));
#399 = ORIENTED_EDGE('',*,*,#400,.F.);
#400 = EDGE_CURVE('',#375,#393,#401,.T.);
#401 = LINE('',#402,#403);
#402 = CARTESIAN_POINT('',(115.6,-63.8,12.99));
#403 = VECTOR('',#404,1.);
#404 = DIRECTION('',(1.,0.,0.));
#405 = PLANE('',#406);
#406 = AXIS2_PLACEMENT_3D('',#407,#408,#409);
#407 = CARTESIAN_POINT('',(115.6,-63.8,12.99));
#408 = DIRECTION('',(0.,1.,0.));
#409 = DIRECTION('',(1.,0.,0.));
#410 = ADVANCED_FACE('',(#411),#456,.F.);
#411 = FACE_BOUND('',#412,.T.);
#412 = EDGE_LOOP('',(#413,#414,#423,#432,#440,#449));
#413 = ORIENTED_EDGE('',*,*,#400,.T.);
#414 = ORIENTED_EDGE('',*,*,#415,.T.);
#415 = EDGE_CURVE('',#393,#416,#418,.T.);
#416 = VERTEX_POINT('',#417);
#417 = CARTESIAN_POINT('',(123.,-64.4,12.99));
#418 = CIRCLE('',#419,0.6);
#419 = AXIS2_PLACEMENT_3D('',#420,#421,#422);
#420 = CARTESIAN_POINT('',(122.4,-64.4,12.99));
#421 = DIRECTION('',(0.,0.,-1.));
#422 = DIRECTION('',(2.368E-14,1.,0.));
#423 = ORIENTED_EDGE('',*,*,#424,.T.);
#424 = EDGE_CURVE('',#416,#425,#427,.T.);
#425 = VERTEX_POINT('',#426);
#426 = CARTESIAN_POINT('',(122.4,-65.,12.99));
#427 = CIRCLE('',#428,0.6);
#428 = AXIS2_PLACEMENT_3D('',#429,#430,#431);
#429 = CARTESIAN_POINT('',(122.4,-64.4,12.99));
#430 = DIRECTION('',(0.,0.,-1.));
#431 = DIRECTION('',(1.,-2.368E-14,0.));
#432 = ORIENTED_EDGE('',*,*,#433,.T.);
#433 = EDGE_CURVE('',#425,#434,#436,.T.);
#434 = VERTEX_POINT('',#435);
#435 = CARTESIAN_POINT('',(115.6,-65.,12.99));
#436 = LINE('',#437,#438);
#437 = CARTESIAN_POINT('',(122.4,-65.,12.99));
#438 = VECTOR('',#439,1.);
#439 = DIRECTION('',(-1.,0.,0.));
#440 = ORIENTED_EDGE('',*,*,#441,.T.);
#441 = EDGE_CURVE('',#434,#442,#444,.T.);
#442 = VERTEX_POINT('',#443);
#443 = CARTESIAN_POINT('',(115.,-64.4,12.99));
#444 = CIRCLE('',#445,0.6);
#445 = AXIS2_PLACEMENT_3D('',#446,#447,#448);
#446 = CARTESIAN_POINT('',(115.6,-64.4,12.99));
#447 = DIRECTION('',(0.,0.,-1.));
#448 = DIRECTION('',(-2.368E-14,-1.,-0.));
#449 = ORIENTED_EDGE('',*,*,#450,.T.);
#450 = EDGE_CURVE('',#442,#375,#451,.T.);
#451 = CIRCLE('',#452,0.6);
#452 = AXIS2_PLACEMENT_3D('',#453,#454,#455);
#453 = CARTESIAN_POINT('',(115.6,-64.4,12.99));
#454 = DIRECTION('',(0.,0.,-1.));
#455 = DIRECTION('',(-1.,2.368E-14,0.));
#456 = PLANE('',#457);
#457 = AXIS2_PLACEMENT_3D('',#458,#459,#460);
#458 = CARTESIAN_POINT('',(119.,-64.4,12.99));
#459 = DIRECTION('',(0.,0.,1.));
#460 = DIRECTION('',(1.,0.,0.));
#461 = ADVANCED_FACE('',(#462),#487,.T.);
#462 = FACE_BOUND('',#463,.T.);
#463 = EDGE_LOOP('',(#464,#472,#480,#486));
#464 = ORIENTED_EDGE('',*,*,#465,.T.);
#465 = EDGE_CURVE('',#425,#466,#468,.T.);
#466 = VERTEX_POINT('',#467);
#467 = CARTESIAN_POINT('',(122.4,-65.,13.39));
#468 = LINE('',#469,#470);
#469 = CARTESIAN_POINT('',(122.4,-65.,12.99));
#470 = VECTOR('',#471,1.);
#471 = DIRECTION('',(0.,0.,1.));
#472 = ORIENTED_EDGE('',*,*,#473,.T.);
#473 = EDGE_CURVE('',#466,#474,#476,.T.);
#474 = VERTEX_POINT('',#475);
#475 = CARTESIAN_POINT('',(115.6,-65.,13.39));
#476 = LINE('',#477,#478);
#477 = CARTESIAN_POINT('',(122.4,-65.,13.39));
#478 = VECTOR('',#479,1.);
#479 = DIRECTION('',(-1.,0.,0.));
#480 = ORIENTED_EDGE('',*,*,#481,.F.);
#481 = EDGE_CURVE('',#434,#474,#482,.T.);
#482 = LINE('',#483,#484);
#483 = CARTESIAN_POINT('',(115.6,-65.,12.99));
#484 = VECTOR('',#485,1.);
#485 = DIRECTION('',(0.,0.,1.));
#486 = ORIENTED_EDGE('',*,*,#433,.F.);
#487 = PLANE('',#488);
#488 = AXIS2_PLACEMENT_3D('',#489,#490,#491);
#489 = CARTESIAN_POINT('',(122.4,-65.,12.99));
#490 = DIRECTION('',(0.,-1.,0.));
#491 = DIRECTION('',(-1.,0.,0.));
#492 = ADVANCED_FACE('',(#493),#529,.T.);
#493 = FACE_BOUND('',#494,.F.);
#494 = EDGE_LOOP('',(#495,#496,#505,#512,#513,#522));
#495 = ORIENTED_EDGE('',*,*,#384,.T.);
#496 = ORIENTED_EDGE('',*,*,#497,.T.);
#497 = EDGE_CURVE('',#385,#498,#500,.T.);
#498 = VERTEX_POINT('',#499);
#499 = CARTESIAN_POINT('',(123.,-64.4,13.39));
#500 = CIRCLE('',#501,0.6);
#501 = AXIS2_PLACEMENT_3D('',#502,#503,#504);
#502 = CARTESIAN_POINT('',(122.4,-64.4,13.39));
#503 = DIRECTION('',(0.,0.,-1.));
#504 = DIRECTION('',(2.368E-14,1.,0.));
#505 = ORIENTED_EDGE('',*,*,#506,.T.);
#506 = EDGE_CURVE('',#498,#466,#507,.T.);
#507 = CIRCLE('',#508,0.6);
#508 = AXIS2_PLACEMENT_3D('',#509,#510,#511);
#509 = CARTESIAN_POINT('',(122.4,-64.4,13.39));
#510 = DIRECTION('',(0.,0.,-1.));
#511 = DIRECTION('',(1.,-2.368E-14,0.));
#512 = ORIENTED_EDGE('',*,*,#473,.T.);
#513 = ORIENTED_EDGE('',*,*,#514,.T.);
#514 = EDGE_CURVE('',#474,#515,#517,.T.);
#515 = VERTEX_POINT('',#516);
#516 = CARTESIAN_POINT('',(115.,-64.4,13.39));
#517 = CIRCLE('',#518,0.6);
#518 = AXIS2_PLACEMENT_3D('',#519,#520,#521);
#519 = CARTESIAN_POINT('',(115.6,-64.4,13.39));
#520 = DIRECTION('',(0.,0.,-1.));
#521 = DIRECTION('',(-2.368E-14,-1.,-0.));
#522 = ORIENTED_EDGE('',*,*,#523,.T.);
#523 = EDGE_CURVE('',#515,#377,#524,.T.);
#524 = CIRCLE('',#525,0.6);
#525 = AXIS2_PLACEMENT_3D('',#526,#527,#528);
#526 = CARTESIAN_POINT('',(115.6,-64.4,13.39));
#527 = DIRECTION('',(0.,0.,-1.));
#528 = DIRECTION('',(-1.,2.368E-14,0.));
#529 = PLANE('',#530);
#530 = AXIS2_PLACEMENT_3D('',#531,#532,#533);
#531 = CARTESIAN_POINT('',(119.,-64.4,13.39));
#532 = DIRECTION('',(0.,0.,1.));
#533 = DIRECTION('',(1.,0.,0.));
#534 = ADVANCED_FACE('',(#535),#543,.T.);
#535 = FACE_BOUND('',#536,.T.);
#536 = EDGE_LOOP('',(#537,#538,#539,#540,#541,#542));
#537 = ORIENTED_EDGE('',*,*,#506,.T.);
#538 = ORIENTED_EDGE('',*,*,#465,.F.);
#539 = ORIENTED_EDGE('',*,*,#424,.F.);
#540 = ORIENTED_EDGE('',*,*,#415,.F.);
#541 = ORIENTED_EDGE('',*,*,#392,.T.);
#542 = ORIENTED_EDGE('',*,*,#497,.T.);
#543 = CYLINDRICAL_SURFACE('',#544,0.6);
#544 = AXIS2_PLACEMENT_3D('',#545,#546,#547);
#545 = CARTESIAN_POINT('',(122.4,-64.4,12.99));
#546 = DIRECTION('',(0.,0.,-1.));
#547 = DIRECTION('',(2.368E-14,1.,0.));
#548 = ADVANCED_FACE('',(#549),#557,.T.);
#549 = FACE_BOUND('',#550,.T.);
#550 = EDGE_LOOP('',(#551,#552,#553,#554,#555,#556));
#551 = ORIENTED_EDGE('',*,*,#523,.T.);
#552 = ORIENTED_EDGE('',*,*,#374,.F.);
#553 = ORIENTED_EDGE('',*,*,#450,.F.);
#554 = ORIENTED_EDGE('',*,*,#441,.F.);
#555 = ORIENTED_EDGE('',*,*,#481,.T.);
#556 = ORIENTED_EDGE('',*,*,#514,.T.);
#557 = CYLINDRICAL_SURFACE('',#558,0.6);
#558 = AXIS2_PLACEMENT_3D('',#559,#560,#561);
#559 = CARTESIAN_POINT('',(115.6,-64.4,12.99));
#560 = DIRECTION('',(0.,0.,-1.));
#561 = DIRECTION('',(-2.368E-14,-1.,-0.));
#562 = ( GEOMETRIC_REPRESENTATION_CONTEXT(3) 
GLOBAL_UNCERTAINTY_ASSIGNED_CONTEXT((#566)) GLOBAL_UNIT_ASSIGNED_CONTEXT
((#563,#564,#565)) REPRESENTATION_CONTEXT('Context #1',
  '3D Context with UNIT and UNCERTAINTY') );
#563 = ( LENGTH_UNIT() NAMED_UNIT(*) SI_UNIT(.MILLI.,.METRE.) );
#564 = ( NAMED_UNIT(*) PLANE_ANGLE_UNIT() SI_UNIT($,.RADIAN.) );
#565 = ( NAMED_UNIT(*) SI_UNIT($,.STERADIAN.) SOLID_ANGLE_UNIT() );
#566 = UNCERTAINTY_MEASURE_WITH_UNIT(LENGTH_MEASURE(2.E-06),#563,
  'distance_accuracy_value','confusion accuracy');
#567 = PRODUCT_RELATED_PRODUCT_CATEGORY('part',$,(#7));
ENDSEC;
END-ISO-10303-21;
