ISO-10303-21;
HEADER;
FILE_DESCRIPTION(('FreeCAD Model'),'2;1');
FILE_NAME('Open CASCADE Shape Model','2026-09-28T15:54:07',('FreeCAD'),(
    'FreeCAD'),'Open CASCADE STEP processor 7.8','FreeCAD','Unknown');
FILE_SCHEMA(('AUTOMOTIVE_DESIGN { 1 0 10303 214 1 1 1 1 }'));
ENDSEC;
DATA;
#1 = APPLICATION_PROTOCOL_DEFINITION('international standard',
  'automotive_design',2000,#2);
#2 = APPLICATION_CONTEXT(
  'core data for automotive mechanical design processes');
#3 = SHAPE_DEFINITION_REPRESENTATION(#4,#10);
#4 = PRODUCT_DEFINITION_SHAPE('','',#5);
#5 = PRODUCT_DEFINITION('design','',#6,#9);
#6 = PRODUCT_DEFINITION_FORMATION('','',#7);
#7 = PRODUCT('Open CASCADE STEP translator 7.8 29',
  'Open CASCADE STEP translator 7.8 29','',(#8));
#8 = PRODUCT_CONTEXT('',#2,'mechanical');
#9 = PRODUCT_DEFINITION_CONTEXT('part definition',#2,'design');
#10 = ADVANCED_BREP_SHAPE_REPRESENTATION('',(#11,#15),#299);
#11 = AXIS2_PLACEMENT_3D('',#12,#13,#14);
#12 = CARTESIAN_POINT('',(0.,0.,0.));
#13 = DIRECTION('',(0.,0.,1.));
#14 = DIRECTION('',(1.,0.,-0.));
#15 = MANIFOLD_SOLID_BREP('',#16);
#16 = CLOSED_SHELL('',(#17,#57,#88,#145,#169,#193,#224,#241,#266,#283));
#17 = ADVANCED_FACE('',(#18),#52,.T.);
#18 = FACE_BOUND('',#19,.T.);
#19 = EDGE_LOOP('',(#20,#30,#38,#46));
#20 = ORIENTED_EDGE('',*,*,#21,.F.);
#21 = EDGE_CURVE('',#22,#24,#26,.T.);
#22 = VERTEX_POINT('',#23);
#23 = CARTESIAN_POINT('',(130.75,-51.275,12.99));
#24 = VERTEX_POINT('',#25);
#25 = CARTESIAN_POINT('',(135.,-50.,12.99));
#26 = LINE('',#27,#28);
#27 = CARTESIAN_POINT('',(125.,-53.,12.99));
#28 = VECTOR('',#29,1.);
#29 = DIRECTION('',(0.957826285221,0.287347885566,0.));
#30 = ORIENTED_EDGE('',*,*,#31,.F.);
#31 = EDGE_CURVE('',#32,#22,#34,.T.);
#32 = VERTEX_POINT('',#33);
#33 = CARTESIAN_POINT('',(130.75,-51.275,13.39));
#34 = LINE('',#35,#36);
#35 = CARTESIAN_POINT('',(130.75,-51.275,12.345));
#36 = VECTOR('',#37,1.);
#37 = DIRECTION('',(0.,0.,-1.));
#38 = ORIENTED_EDGE('',*,*,#39,.T.);
#39 = EDGE_CURVE('',#32,#40,#42,.T.);
#40 = VERTEX_POINT('',#41);
#41 = CARTESIAN_POINT('',(135.,-50.,13.39));
#42 = LINE('',#43,#44);
#43 = CARTESIAN_POINT('',(125.,-53.,13.39));
#44 = VECTOR('',#45,1.);
#45 = DIRECTION('',(0.957826285221,0.287347885566,0.));
#46 = ORIENTED_EDGE('',*,*,#47,.F.);
#47 = EDGE_CURVE('',#24,#40,#48,.T.);
#48 = LINE('',#49,#50);
#49 = CARTESIAN_POINT('',(135.,-50.,12.99));
#50 = VECTOR('',#51,1.);
#51 = DIRECTION('',(0.,0.,1.));
#52 = PLANE('',#53);
#53 = AXIS2_PLACEMENT_3D('',#54,#55,#56);
#54 = CARTESIAN_POINT('',(125.,-53.,12.99));
#55 = DIRECTION('',(-0.287347885566,0.957826285221,0.));
#56 = DIRECTION('',(0.957826285221,0.287347885566,0.));
#57 = ADVANCED_FACE('',(#58),#83,.T.);
#58 = FACE_BOUND('',#59,.T.);
#59 = EDGE_LOOP('',(#60,#68,#69,#77));
#60 = ORIENTED_EDGE('',*,*,#61,.F.);
#61 = EDGE_CURVE('',#24,#62,#64,.T.);
#62 = VERTEX_POINT('',#63);
#63 = CARTESIAN_POINT('',(135.,-65.8,12.99));
#64 = LINE('',#65,#66);
#65 = CARTESIAN_POINT('',(135.,-50.,12.99));
#66 = VECTOR('',#67,1.);
#67 = DIRECTION('',(0.,-1.,0.));
#68 = ORIENTED_EDGE('',*,*,#47,.T.);
#69 = ORIENTED_EDGE('',*,*,#70,.T.);
#70 = EDGE_CURVE('',#40,#71,#73,.T.);
#71 = VERTEX_POINT('',#72);
#72 = CARTESIAN_POINT('',(135.,-65.8,13.39));
#73 = LINE('',#74,#75);
#74 = CARTESIAN_POINT('',(135.,-50.,13.39));
#75 = VECTOR('',#76,1.);
#76 = DIRECTION('',(0.,-1.,0.));
#77 = ORIENTED_EDGE('',*,*,#78,.F.);
#78 = EDGE_CURVE('',#62,#71,#79,.T.);
#79 = LINE('',#80,#81);
#80 = CARTESIAN_POINT('',(135.,-65.8,6.3));
#81 = VECTOR('',#82,1.);
#82 = DIRECTION('',(0.,0.,1.));
#83 = PLANE('',#84);
#84 = AXIS2_PLACEMENT_3D('',#85,#86,#87);
#85 = CARTESIAN_POINT('',(135.,-50.,12.99));
#86 = DIRECTION('',(1.,0.,0.));
#87 = DIRECTION('',(0.,-1.,0.));
#88 = ADVANCED_FACE('',(#89),#140,.T.);
#89 = FACE_BOUND('',#90,.T.);
#90 = EDGE_LOOP('',(#91,#101,#109,#117,#125,#132,#133,#134));
#91 = ORIENTED_EDGE('',*,*,#92,.T.);
#92 = EDGE_CURVE('',#93,#95,#97,.T.);
#93 = VERTEX_POINT('',#94);
#94 = CARTESIAN_POINT('',(130.75,-53.,13.39));
#95 = VERTEX_POINT('',#96);
#96 = CARTESIAN_POINT('',(125.,-53.,13.39));
#97 = LINE('',#98,#99);
#98 = CARTESIAN_POINT('',(118.90334371508,-53.,13.39));
#99 = VECTOR('',#100,1.);
#100 = DIRECTION('',(-1.,0.,0.));
#101 = ORIENTED_EDGE('',*,*,#102,.F.);
#102 = EDGE_CURVE('',#103,#95,#105,.T.);
#103 = VERTEX_POINT('',#104);
#104 = CARTESIAN_POINT('',(128.,-60.,13.39));
#105 = LINE('',#106,#107);
#106 = CARTESIAN_POINT('',(128.,-60.,13.39));
#107 = VECTOR('',#108,1.);
#108 = DIRECTION('',(-0.393919298579,0.919145030018,0.));
#109 = ORIENTED_EDGE('',*,*,#110,.F.);
#110 = EDGE_CURVE('',#111,#103,#113,.T.);
#111 = VERTEX_POINT('',#112);
#112 = CARTESIAN_POINT('',(128.,-66.,13.39));
#113 = LINE('',#114,#115);
#114 = CARTESIAN_POINT('',(128.,-66.,13.39));
#115 = VECTOR('',#116,1.);
#116 = DIRECTION('',(0.,1.,0.));
#117 = ORIENTED_EDGE('',*,*,#118,.F.);
#118 = EDGE_CURVE('',#119,#111,#121,.T.);
#119 = VERTEX_POINT('',#120);
#120 = CARTESIAN_POINT('',(134.98321595662,-66.,13.39));
#121 = LINE('',#122,#123);
#122 = CARTESIAN_POINT('',(135.,-66.,13.39));
#123 = VECTOR('',#124,1.);
#124 = DIRECTION('',(-1.,0.,0.));
#125 = ORIENTED_EDGE('',*,*,#126,.F.);
#126 = EDGE_CURVE('',#71,#119,#127,.T.);
#127 = CIRCLE('',#128,1.2);
#128 = AXIS2_PLACEMENT_3D('',#129,#130,#131);
#129 = CARTESIAN_POINT('',(133.8,-65.8,13.39));
#130 = DIRECTION('',(0.,0.,-1.));
#131 = DIRECTION('',(1.,2.368E-14,0.));
#132 = ORIENTED_EDGE('',*,*,#70,.F.);
#133 = ORIENTED_EDGE('',*,*,#39,.F.);
#134 = ORIENTED_EDGE('',*,*,#135,.F.);
#135 = EDGE_CURVE('',#93,#32,#136,.T.);
#136 = LINE('',#137,#138);
#137 = CARTESIAN_POINT('',(130.75,-46.04893884022,13.39));
#138 = VECTOR('',#139,1.);
#139 = DIRECTION('',(0.,1.,0.));
#140 = PLANE('',#141);
#141 = AXIS2_PLACEMENT_3D('',#142,#143,#144);
#142 = CARTESIAN_POINT('',(131.10176611723,-58.14268821559,13.39));
#143 = DIRECTION('',(0.,0.,1.));
#144 = DIRECTION('',(1.,0.,0.));
#145 = ADVANCED_FACE('',(#146),#164,.F.);
#146 = FACE_BOUND('',#147,.F.);
#147 = EDGE_LOOP('',(#148,#156,#162,#163));
#148 = ORIENTED_EDGE('',*,*,#149,.F.);
#149 = EDGE_CURVE('',#150,#93,#152,.T.);
#150 = VERTEX_POINT('',#151);
#151 = CARTESIAN_POINT('',(130.75,-53.,12.99));
#152 = LINE('',#153,#154);
#153 = CARTESIAN_POINT('',(130.75,-53.,11.7));
#154 = VECTOR('',#155,1.);
#155 = DIRECTION('',(0.,0.,1.));
#156 = ORIENTED_EDGE('',*,*,#157,.T.);
#157 = EDGE_CURVE('',#150,#22,#158,.T.);
#158 = LINE('',#159,#160);
#159 = CARTESIAN_POINT('',(130.75,-46.04641870115,12.99));
#160 = VECTOR('',#161,1.);
#161 = DIRECTION('',(0.,1.,0.));
#162 = ORIENTED_EDGE('',*,*,#31,.F.);
#163 = ORIENTED_EDGE('',*,*,#135,.F.);
#164 = PLANE('',#165);
#165 = AXIS2_PLACEMENT_3D('',#166,#167,#168);
#166 = CARTESIAN_POINT('',(130.75,-53.,11.7));
#167 = DIRECTION('',(1.,0.,0.));
#168 = DIRECTION('',(0.,0.,1.));
#169 = ADVANCED_FACE('',(#170),#188,.T.);
#170 = FACE_BOUND('',#171,.T.);
#171 = EDGE_LOOP('',(#172,#173,#181,#187));
#172 = ORIENTED_EDGE('',*,*,#149,.F.);
#173 = ORIENTED_EDGE('',*,*,#174,.T.);
#174 = EDGE_CURVE('',#150,#175,#177,.T.);
#175 = VERTEX_POINT('',#176);
#176 = CARTESIAN_POINT('',(125.,-53.,12.99));
#177 = LINE('',#178,#179);
#178 = CARTESIAN_POINT('',(118.90608769591,-53.,12.99));
#179 = VECTOR('',#180,1.);
#180 = DIRECTION('',(-1.,0.,0.));
#181 = ORIENTED_EDGE('',*,*,#182,.T.);
#182 = EDGE_CURVE('',#175,#95,#183,.T.);
#183 = LINE('',#184,#185);
#184 = CARTESIAN_POINT('',(125.,-53.,12.99));
#185 = VECTOR('',#186,1.);
#186 = DIRECTION('',(0.,0.,1.));
#187 = ORIENTED_EDGE('',*,*,#92,.F.);
#188 = PLANE('',#189);
#189 = AXIS2_PLACEMENT_3D('',#190,#191,#192);
#190 = CARTESIAN_POINT('',(114.85,-53.,11.7));
#191 = DIRECTION('',(0.,1.,0.));
#192 = DIRECTION('',(0.,0.,1.));
#193 = ADVANCED_FACE('',(#194),#219,.T.);
#194 = FACE_BOUND('',#195,.T.);
#195 = EDGE_LOOP('',(#196,#204,#205,#213));
#196 = ORIENTED_EDGE('',*,*,#197,.T.);
#197 = EDGE_CURVE('',#198,#111,#200,.T.);
#198 = VERTEX_POINT('',#199);
#199 = CARTESIAN_POINT('',(128.,-66.,12.99));
#200 = LINE('',#201,#202);
#201 = CARTESIAN_POINT('',(128.,-66.,12.99));
#202 = VECTOR('',#203,1.);
#203 = DIRECTION('',(0.,0.,1.));
#204 = ORIENTED_EDGE('',*,*,#110,.T.);
#205 = ORIENTED_EDGE('',*,*,#206,.F.);
#206 = EDGE_CURVE('',#207,#103,#209,.T.);
#207 = VERTEX_POINT('',#208);
#208 = CARTESIAN_POINT('',(128.,-60.,12.99));
#209 = LINE('',#210,#211);
#210 = CARTESIAN_POINT('',(128.,-60.,12.99));
#211 = VECTOR('',#212,1.);
#212 = DIRECTION('',(0.,0.,1.));
#213 = ORIENTED_EDGE('',*,*,#214,.F.);
#214 = EDGE_CURVE('',#198,#207,#215,.T.);
#215 = LINE('',#216,#217);
#216 = CARTESIAN_POINT('',(128.,-66.,12.99));
#217 = VECTOR('',#218,1.);
#218 = DIRECTION('',(0.,1.,0.));
#219 = PLANE('',#220);
#220 = AXIS2_PLACEMENT_3D('',#221,#222,#223);
#221 = CARTESIAN_POINT('',(128.,-66.,12.99));
#222 = DIRECTION('',(-1.,0.,0.));
#223 = DIRECTION('',(0.,1.,0.));
#224 = ADVANCED_FACE('',(#225),#236,.T.);
#225 = FACE_BOUND('',#226,.T.);
#226 = EDGE_LOOP('',(#227,#228,#229,#230));
#227 = ORIENTED_EDGE('',*,*,#206,.T.);
#228 = ORIENTED_EDGE('',*,*,#102,.T.);
#229 = ORIENTED_EDGE('',*,*,#182,.F.);
#230 = ORIENTED_EDGE('',*,*,#231,.F.);
#231 = EDGE_CURVE('',#207,#175,#232,.T.);
#232 = LINE('',#233,#234);
#233 = CARTESIAN_POINT('',(128.,-60.,12.99));
#234 = VECTOR('',#235,1.);
#235 = DIRECTION('',(-0.393919298579,0.919145030018,0.));
#236 = PLANE('',#237);
#237 = AXIS2_PLACEMENT_3D('',#238,#239,#240);
#238 = CARTESIAN_POINT('',(128.,-60.,12.99));
#239 = DIRECTION('',(-0.919145030018,-0.393919298579,0.));
#240 = DIRECTION('',(-0.393919298579,0.919145030018,0.));
#241 = ADVANCED_FACE('',(#242),#261,.T.);
#242 = FACE_BOUND('',#243,.T.);
#243 = EDGE_LOOP('',(#244,#253,#254,#255));
#244 = ORIENTED_EDGE('',*,*,#245,.F.);
#245 = EDGE_CURVE('',#62,#246,#248,.T.);
#246 = VERTEX_POINT('',#247);
#247 = CARTESIAN_POINT('',(134.98321595662,-66.,12.99));
#248 = CIRCLE('',#249,1.2);
#249 = AXIS2_PLACEMENT_3D('',#250,#251,#252);
#250 = CARTESIAN_POINT('',(133.8,-65.8,12.99));
#251 = DIRECTION('',(0.,0.,-1.));
#252 = DIRECTION('',(1.,2.368E-14,0.));
#253 = ORIENTED_EDGE('',*,*,#78,.T.);
#254 = ORIENTED_EDGE('',*,*,#126,.T.);
#255 = ORIENTED_EDGE('',*,*,#256,.T.);
#256 = EDGE_CURVE('',#119,#246,#257,.T.);
#257 = LINE('',#258,#259);
#258 = CARTESIAN_POINT('',(134.98321595662,-66.,6.3));
#259 = VECTOR('',#260,1.);
#260 = DIRECTION('',(0.,0.,-1.));
#261 = CYLINDRICAL_SURFACE('',#262,1.2);
#262 = AXIS2_PLACEMENT_3D('',#263,#264,#265);
#263 = CARTESIAN_POINT('',(133.8,-65.8,6.3));
#264 = DIRECTION('',(0.,0.,-1.));
#265 = DIRECTION('',(1.,2.368E-14,0.));
#266 = ADVANCED_FACE('',(#267),#278,.T.);
#267 = FACE_BOUND('',#268,.T.);
#268 = EDGE_LOOP('',(#269,#275,#276,#277));
#269 = ORIENTED_EDGE('',*,*,#270,.F.);
#270 = EDGE_CURVE('',#246,#198,#271,.T.);
#271 = LINE('',#272,#273);
#272 = CARTESIAN_POINT('',(135.,-66.,12.99));
#273 = VECTOR('',#274,1.);
#274 = DIRECTION('',(-1.,0.,0.));
#275 = ORIENTED_EDGE('',*,*,#256,.F.);
#276 = ORIENTED_EDGE('',*,*,#118,.T.);
#277 = ORIENTED_EDGE('',*,*,#197,.F.);
#278 = PLANE('',#279);
#279 = AXIS2_PLACEMENT_3D('',#280,#281,#282);
#280 = CARTESIAN_POINT('',(135.,-66.,12.99));
#281 = DIRECTION('',(0.,-1.,0.));
#282 = DIRECTION('',(-1.,0.,0.));
#283 = ADVANCED_FACE('',(#284),#294,.T.);
#284 = FACE_BOUND('',#285,.T.);
#285 = EDGE_LOOP('',(#286,#287,#288,#289,#290,#291,#292,#293));
#286 = ORIENTED_EDGE('',*,*,#174,.F.);
#287 = ORIENTED_EDGE('',*,*,#157,.T.);
#288 = ORIENTED_EDGE('',*,*,#21,.T.);
#289 = ORIENTED_EDGE('',*,*,#61,.T.);
#290 = ORIENTED_EDGE('',*,*,#245,.T.);
#291 = ORIENTED_EDGE('',*,*,#270,.T.);
#292 = ORIENTED_EDGE('',*,*,#214,.T.);
#293 = ORIENTED_EDGE('',*,*,#231,.T.);
#294 = PLANE('',#295);
#295 = AXIS2_PLACEMENT_3D('',#296,#297,#298);
#296 = CARTESIAN_POINT('',(131.10480088981,-58.0601526557,12.99));
#297 = DIRECTION('',(-0.,-0.,-1.));
#298 = DIRECTION('',(-1.,0.,0.));
#299 = ( GEOMETRIC_REPRESENTATION_CONTEXT(3) 
GLOBAL_UNCERTAINTY_ASSIGNED_CONTEXT((#303)) GLOBAL_UNIT_ASSIGNED_CONTEXT
((#300,#301,#302)) REPRESENTATION_CONTEXT('Context #1',
  '3D Context with UNIT and UNCERTAINTY') );
#300 = ( LENGTH_UNIT() NAMED_UNIT(*) SI_UNIT(.MILLI.,.METRE.) );
#301 = ( NAMED_UNIT(*) PLANE_ANGLE_UNIT() SI_UNIT($,.RADIAN.) );
#302 = ( NAMED_UNIT(*) SI_UNIT($,.STERADIAN.) SOLID_ANGLE_UNIT() );
#303 = UNCERTAINTY_MEASURE_WITH_UNIT(LENGTH_MEASURE(2.E-05),#300,
  'distance_accuracy_value','confusion accuracy');
#304 = PRODUCT_RELATED_PRODUCT_CATEGORY('part',$,(#7));
ENDSEC;
END-ISO-10303-21;
