ISO-10303-21;
HEADER;
FILE_DESCRIPTION(('FreeCAD Model'),'2;1');
FILE_NAME('Open CASCADE Shape Model','2026-09-27T17:10:14',('FreeCAD'),(
    'FreeCAD'),'Open CASCADE STEP processor 7.8','FreeCAD','Unknown');
FILE_SCHEMA(('AUTOMOTIVE_DESIGN { 1 0 10303 214 1 1 1 1 }'));
ENDSEC;
DATA;
#1 = APPLICATION_PROTOCOL_DEFINITION('international standard',
  'automotive_design',2000,#2);
#2 = APPLICATION_CONTEXT(
  'core data for automotive mechanical design processes');
#3 = SHAPE_DEFINITION_REPRESENTATION(#4,#10);
#4 = PRODUCT_DEFINITION_SHAPE('','',#5);
#5 = PRODUCT_DEFINITION('design','',#6,#9);
#6 = PRODUCT_DEFINITION_FORMATION('','',#7);
#7 = PRODUCT('Open CASCADE STEP translator 7.8 41',
  'Open CASCADE STEP translator 7.8 41','',(#8));
#8 = PRODUCT_CONTEXT('',#2,'mechanical');
#9 = PRODUCT_DEFINITION_CONTEXT('part definition',#2,'design');
#10 = SHAPE_REPRESENTATION('',(#11,#15,#429,#612,#828,#1011,#1227),#1443
  );
#11 = AXIS2_PLACEMENT_3D('',#12,#13,#14);
#12 = CARTESIAN_POINT('',(0.,0.,0.));
#13 = DIRECTION('',(0.,0.,1.));
#14 = DIRECTION('',(1.,0.,-0.));
#15 = MANIFOLD_SOLID_BREP('',#16);
#16 = CLOSED_SHELL('',(#17,#57,#88,#119,#150,#181,#212,#243,#274,#305,
    #336,#367,#389,#409));
#17 = ADVANCED_FACE('',(#18),#52,.T.);
#18 = FACE_BOUND('',#19,.T.);
#19 = EDGE_LOOP('',(#20,#30,#38,#46));
#20 = ORIENTED_EDGE('',*,*,#21,.T.);
#21 = EDGE_CURVE('',#22,#24,#26,.T.);
#22 = VERTEX_POINT('',#23);
#23 = CARTESIAN_POINT('',(112.3,-12.3,14.4));
#24 = VERTEX_POINT('',#25);
#25 = CARTESIAN_POINT('',(112.3,-12.3,14.8));
#26 = LINE('',#27,#28);
#27 = CARTESIAN_POINT('',(112.3,-12.3,14.4));
#28 = VECTOR('',#29,1.);
#29 = DIRECTION('',(0.,0.,1.));
#30 = ORIENTED_EDGE('',*,*,#31,.T.);
#31 = EDGE_CURVE('',#24,#32,#34,.T.);
#32 = VERTEX_POINT('',#33);
#33 = CARTESIAN_POINT('',(119.,-12.3,14.8));
#34 = LINE('',#35,#36);
#35 = CARTESIAN_POINT('',(112.3,-12.3,14.8));
#36 = VECTOR('',#37,1.);
#37 = DIRECTION('',(1.,0.,0.));
#38 = ORIENTED_EDGE('',*,*,#39,.F.);
#39 = EDGE_CURVE('',#40,#32,#42,.T.);
#40 = VERTEX_POINT('',#41);
#41 = CARTESIAN_POINT('',(119.,-12.3,14.4));
#42 = LINE('',#43,#44);
#43 = CARTESIAN_POINT('',(119.,-12.3,14.4));
#44 = VECTOR('',#45,1.);
#45 = DIRECTION('',(0.,0.,1.));
#46 = ORIENTED_EDGE('',*,*,#47,.F.);
#47 = EDGE_CURVE('',#22,#40,#48,.T.);
#48 = LINE('',#49,#50);
#49 = CARTESIAN_POINT('',(112.3,-12.3,14.4));
#50 = VECTOR('',#51,1.);
#51 = DIRECTION('',(1.,0.,0.));
#52 = PLANE('',#53);
#53 = AXIS2_PLACEMENT_3D('',#54,#55,#56);
#54 = CARTESIAN_POINT('',(112.3,-12.3,14.4));
#55 = DIRECTION('',(0.,1.,0.));
#56 = DIRECTION('',(1.,0.,0.));
#57 = ADVANCED_FACE('',(#58),#83,.T.);
#58 = FACE_BOUND('',#59,.T.);
#59 = EDGE_LOOP('',(#60,#61,#69,#77));
#60 = ORIENTED_EDGE('',*,*,#39,.T.);
#61 = ORIENTED_EDGE('',*,*,#62,.T.);
#62 = EDGE_CURVE('',#32,#63,#65,.T.);
#63 = VERTEX_POINT('',#64);
#64 = CARTESIAN_POINT('',(120.5,-14.,14.8));
#65 = LINE('',#66,#67);
#66 = CARTESIAN_POINT('',(119.,-12.3,14.8));
#67 = VECTOR('',#68,1.);
#68 = DIRECTION('',(0.661621637087,-0.749837855365,0.));
#69 = ORIENTED_EDGE('',*,*,#70,.F.);
#70 = EDGE_CURVE('',#71,#63,#73,.T.);
#71 = VERTEX_POINT('',#72);
#72 = CARTESIAN_POINT('',(120.5,-14.,14.4));
#73 = LINE('',#74,#75);
#74 = CARTESIAN_POINT('',(120.5,-14.,14.4));
#75 = VECTOR('',#76,1.);
#76 = DIRECTION('',(0.,0.,1.));
#77 = ORIENTED_EDGE('',*,*,#78,.F.);
#78 = EDGE_CURVE('',#40,#71,#79,.T.);
#79 = LINE('',#80,#81);
#80 = CARTESIAN_POINT('',(119.,-12.3,14.4));
#81 = VECTOR('',#82,1.);
#82 = DIRECTION('',(0.661621637087,-0.749837855365,0.));
#83 = PLANE('',#84);
#84 = AXIS2_PLACEMENT_3D('',#85,#86,#87);
#85 = CARTESIAN_POINT('',(119.,-12.3,14.4));
#86 = DIRECTION('',(0.749837855365,0.661621637087,0.));
#87 = DIRECTION('',(0.661621637087,-0.749837855365,0.));
#88 = ADVANCED_FACE('',(#89),#114,.T.);
#89 = FACE_BOUND('',#90,.T.);
#90 = EDGE_LOOP('',(#91,#92,#100,#108));
#91 = ORIENTED_EDGE('',*,*,#70,.T.);
#92 = ORIENTED_EDGE('',*,*,#93,.T.);
#93 = EDGE_CURVE('',#63,#94,#96,.T.);
#94 = VERTEX_POINT('',#95);
#95 = CARTESIAN_POINT('',(125.5,-14.,14.8));
#96 = LINE('',#97,#98);
#97 = CARTESIAN_POINT('',(120.5,-14.,14.8));
#98 = VECTOR('',#99,1.);
#99 = DIRECTION('',(1.,0.,0.));
#100 = ORIENTED_EDGE('',*,*,#101,.F.);
#101 = EDGE_CURVE('',#102,#94,#104,.T.);
#102 = VERTEX_POINT('',#103);
#103 = CARTESIAN_POINT('',(125.5,-14.,14.4));
#104 = LINE('',#105,#106);
#105 = CARTESIAN_POINT('',(125.5,-14.,14.4));
#106 = VECTOR('',#107,1.);
#107 = DIRECTION('',(0.,0.,1.));
#108 = ORIENTED_EDGE('',*,*,#109,.F.);
#109 = EDGE_CURVE('',#71,#102,#110,.T.);
#110 = LINE('',#111,#112);
#111 = CARTESIAN_POINT('',(120.5,-14.,14.4));
#112 = VECTOR('',#113,1.);
#113 = DIRECTION('',(1.,0.,0.));
#114 = PLANE('',#115);
#115 = AXIS2_PLACEMENT_3D('',#116,#117,#118);
#116 = CARTESIAN_POINT('',(120.5,-14.,14.4));
#117 = DIRECTION('',(0.,1.,0.));
#118 = DIRECTION('',(1.,0.,0.));
#119 = ADVANCED_FACE('',(#120),#145,.T.);
#120 = FACE_BOUND('',#121,.T.);
#121 = EDGE_LOOP('',(#122,#123,#131,#139));
#122 = ORIENTED_EDGE('',*,*,#101,.T.);
#123 = ORIENTED_EDGE('',*,*,#124,.T.);
#124 = EDGE_CURVE('',#94,#125,#127,.T.);
#125 = VERTEX_POINT('',#126);
#126 = CARTESIAN_POINT('',(127.,-12.3,14.8));
#127 = LINE('',#128,#129);
#128 = CARTESIAN_POINT('',(125.5,-14.,14.8));
#129 = VECTOR('',#130,1.);
#130 = DIRECTION('',(0.661621637087,0.749837855365,0.));
#131 = ORIENTED_EDGE('',*,*,#132,.F.);
#132 = EDGE_CURVE('',#133,#125,#135,.T.);
#133 = VERTEX_POINT('',#134);
#134 = CARTESIAN_POINT('',(127.,-12.3,14.4));
#135 = LINE('',#136,#137);
#136 = CARTESIAN_POINT('',(127.,-12.3,14.4));
#137 = VECTOR('',#138,1.);
#138 = DIRECTION('',(0.,0.,1.));
#139 = ORIENTED_EDGE('',*,*,#140,.F.);
#140 = EDGE_CURVE('',#102,#133,#141,.T.);
#141 = LINE('',#142,#143);
#142 = CARTESIAN_POINT('',(125.5,-14.,14.4));
#143 = VECTOR('',#144,1.);
#144 = DIRECTION('',(0.661621637087,0.749837855365,0.));
#145 = PLANE('',#146);
#146 = AXIS2_PLACEMENT_3D('',#147,#148,#149);
#147 = CARTESIAN_POINT('',(125.5,-14.,14.4));
#148 = DIRECTION('',(-0.749837855365,0.661621637087,0.));
#149 = DIRECTION('',(0.661621637087,0.749837855365,0.));
#150 = ADVANCED_FACE('',(#151),#176,.T.);
#151 = FACE_BOUND('',#152,.T.);
#152 = EDGE_LOOP('',(#153,#154,#162,#170));
#153 = ORIENTED_EDGE('',*,*,#132,.T.);
#154 = ORIENTED_EDGE('',*,*,#155,.T.);
#155 = EDGE_CURVE('',#125,#156,#158,.T.);
#156 = VERTEX_POINT('',#157);
#157 = CARTESIAN_POINT('',(133.6,-12.3,14.8));
#158 = LINE('',#159,#160);
#159 = CARTESIAN_POINT('',(127.,-12.3,14.8));
#160 = VECTOR('',#161,1.);
#161 = DIRECTION('',(1.,0.,0.));
#162 = ORIENTED_EDGE('',*,*,#163,.F.);
#163 = EDGE_CURVE('',#164,#156,#166,.T.);
#164 = VERTEX_POINT('',#165);
#165 = CARTESIAN_POINT('',(133.6,-12.3,14.4));
#166 = LINE('',#167,#168);
#167 = CARTESIAN_POINT('',(133.6,-12.3,14.4));
#168 = VECTOR('',#169,1.);
#169 = DIRECTION('',(0.,0.,1.));
#170 = ORIENTED_EDGE('',*,*,#171,.F.);
#171 = EDGE_CURVE('',#133,#164,#172,.T.);
#172 = LINE('',#173,#174);
#173 = CARTESIAN_POINT('',(127.,-12.3,14.4));
#174 = VECTOR('',#175,1.);
#175 = DIRECTION('',(1.,0.,0.));
#176 = PLANE('',#177);
#177 = AXIS2_PLACEMENT_3D('',#178,#179,#180);
#178 = CARTESIAN_POINT('',(127.,-12.3,14.4));
#179 = DIRECTION('',(0.,1.,0.));
#180 = DIRECTION('',(1.,0.,0.));
#181 = ADVANCED_FACE('',(#182),#207,.T.);
#182 = FACE_BOUND('',#183,.T.);
#183 = EDGE_LOOP('',(#184,#185,#193,#201));
#184 = ORIENTED_EDGE('',*,*,#163,.T.);
#185 = ORIENTED_EDGE('',*,*,#186,.T.);
#186 = EDGE_CURVE('',#156,#187,#189,.T.);
#187 = VERTEX_POINT('',#188);
#188 = CARTESIAN_POINT('',(132.,-16.8,14.8));
#189 = LINE('',#190,#191);
#190 = CARTESIAN_POINT('',(133.6,-12.3,14.8));
#191 = VECTOR('',#192,1.);
#192 = DIRECTION('',(-0.335009667655,-0.942214690279,0.));
#193 = ORIENTED_EDGE('',*,*,#194,.F.);
#194 = EDGE_CURVE('',#195,#187,#197,.T.);
#195 = VERTEX_POINT('',#196);
#196 = CARTESIAN_POINT('',(132.,-16.8,14.4));
#197 = LINE('',#198,#199);
#198 = CARTESIAN_POINT('',(132.,-16.8,14.4));
#199 = VECTOR('',#200,1.);
#200 = DIRECTION('',(0.,0.,1.));
#201 = ORIENTED_EDGE('',*,*,#202,.F.);
#202 = EDGE_CURVE('',#164,#195,#203,.T.);
#203 = LINE('',#204,#205);
#204 = CARTESIAN_POINT('',(133.6,-12.3,14.4));
#205 = VECTOR('',#206,1.);
#206 = DIRECTION('',(-0.335009667655,-0.942214690279,0.));
#207 = PLANE('',#208);
#208 = AXIS2_PLACEMENT_3D('',#209,#210,#211);
#209 = CARTESIAN_POINT('',(133.6,-12.3,14.4));
#210 = DIRECTION('',(0.942214690279,-0.335009667655,0.));
#211 = DIRECTION('',(-0.335009667655,-0.942214690279,0.));
#212 = ADVANCED_FACE('',(#213),#238,.T.);
#213 = FACE_BOUND('',#214,.T.);
#214 = EDGE_LOOP('',(#215,#216,#224,#232));
#215 = ORIENTED_EDGE('',*,*,#194,.T.);
#216 = ORIENTED_EDGE('',*,*,#217,.T.);
#217 = EDGE_CURVE('',#187,#218,#220,.T.);
#218 = VERTEX_POINT('',#219);
#219 = CARTESIAN_POINT('',(129.,-17.5,14.8));
#220 = LINE('',#221,#222);
#221 = CARTESIAN_POINT('',(132.,-16.8,14.8));
#222 = VECTOR('',#223,1.);
#223 = DIRECTION('',(-0.973841209742,-0.227229615606,0.));
#224 = ORIENTED_EDGE('',*,*,#225,.F.);
#225 = EDGE_CURVE('',#226,#218,#228,.T.);
#226 = VERTEX_POINT('',#227);
#227 = CARTESIAN_POINT('',(129.,-17.5,14.4));
#228 = LINE('',#229,#230);
#229 = CARTESIAN_POINT('',(129.,-17.5,14.4));
#230 = VECTOR('',#231,1.);
#231 = DIRECTION('',(0.,0.,1.));
#232 = ORIENTED_EDGE('',*,*,#233,.F.);
#233 = EDGE_CURVE('',#195,#226,#234,.T.);
#234 = LINE('',#235,#236);
#235 = CARTESIAN_POINT('',(132.,-16.8,14.4));
#236 = VECTOR('',#237,1.);
#237 = DIRECTION('',(-0.973841209742,-0.227229615606,0.));
#238 = PLANE('',#239);
#239 = AXIS2_PLACEMENT_3D('',#240,#241,#242);
#240 = CARTESIAN_POINT('',(132.,-16.8,14.4));
#241 = DIRECTION('',(0.227229615606,-0.973841209742,0.));
#242 = DIRECTION('',(-0.973841209742,-0.227229615606,0.));
#243 = ADVANCED_FACE('',(#244),#269,.T.);
#244 = FACE_BOUND('',#245,.T.);
#245 = EDGE_LOOP('',(#246,#247,#255,#263));
#246 = ORIENTED_EDGE('',*,*,#225,.T.);
#247 = ORIENTED_EDGE('',*,*,#248,.T.);
#248 = EDGE_CURVE('',#218,#249,#251,.T.);
#249 = VERTEX_POINT('',#250);
#250 = CARTESIAN_POINT('',(129.,-16.,14.8));
#251 = LINE('',#252,#253);
#252 = CARTESIAN_POINT('',(129.,-17.5,14.8));
#253 = VECTOR('',#254,1.);
#254 = DIRECTION('',(0.,1.,0.));
#255 = ORIENTED_EDGE('',*,*,#256,.F.);
#256 = EDGE_CURVE('',#257,#249,#259,.T.);
#257 = VERTEX_POINT('',#258);
#258 = CARTESIAN_POINT('',(129.,-16.,14.4));
#259 = LINE('',#260,#261);
#260 = CARTESIAN_POINT('',(129.,-16.,14.4));
#261 = VECTOR('',#262,1.);
#262 = DIRECTION('',(0.,0.,1.));
#263 = ORIENTED_EDGE('',*,*,#264,.F.);
#264 = EDGE_CURVE('',#226,#257,#265,.T.);
#265 = LINE('',#266,#267);
#266 = CARTESIAN_POINT('',(129.,-17.5,14.4));
#267 = VECTOR('',#268,1.);
#268 = DIRECTION('',(0.,1.,0.));
#269 = PLANE('',#270);
#270 = AXIS2_PLACEMENT_3D('',#271,#272,#273);
#271 = CARTESIAN_POINT('',(129.,-17.5,14.4));
#272 = DIRECTION('',(-1.,0.,0.));
#273 = DIRECTION('',(0.,1.,0.));
#274 = ADVANCED_FACE('',(#275),#300,.T.);
#275 = FACE_BOUND('',#276,.T.);
#276 = EDGE_LOOP('',(#277,#278,#286,#294));
#277 = ORIENTED_EDGE('',*,*,#256,.T.);
#278 = ORIENTED_EDGE('',*,*,#279,.T.);
#279 = EDGE_CURVE('',#249,#280,#282,.T.);
#280 = VERTEX_POINT('',#281);
#281 = CARTESIAN_POINT('',(116.5,-16.,14.8));
#282 = LINE('',#283,#284);
#283 = CARTESIAN_POINT('',(129.,-16.,14.8));
#284 = VECTOR('',#285,1.);
#285 = DIRECTION('',(-1.,0.,0.));
#286 = ORIENTED_EDGE('',*,*,#287,.F.);
#287 = EDGE_CURVE('',#288,#280,#290,.T.);
#288 = VERTEX_POINT('',#289);
#289 = CARTESIAN_POINT('',(116.5,-16.,14.4));
#290 = LINE('',#291,#292);
#291 = CARTESIAN_POINT('',(116.5,-16.,14.4));
#292 = VECTOR('',#293,1.);
#293 = DIRECTION('',(0.,0.,1.));
#294 = ORIENTED_EDGE('',*,*,#295,.F.);
#295 = EDGE_CURVE('',#257,#288,#296,.T.);
#296 = LINE('',#297,#298);
#297 = CARTESIAN_POINT('',(129.,-16.,14.4));
#298 = VECTOR('',#299,1.);
#299 = DIRECTION('',(-1.,0.,0.));
#300 = PLANE('',#301);
#301 = AXIS2_PLACEMENT_3D('',#302,#303,#304);
#302 = CARTESIAN_POINT('',(129.,-16.,14.4));
#303 = DIRECTION('',(0.,-1.,0.));
#304 = DIRECTION('',(-1.,0.,0.));
#305 = ADVANCED_FACE('',(#306),#331,.T.);
#306 = FACE_BOUND('',#307,.T.);
#307 = EDGE_LOOP('',(#308,#309,#317,#325));
#308 = ORIENTED_EDGE('',*,*,#287,.T.);
#309 = ORIENTED_EDGE('',*,*,#310,.T.);
#310 = EDGE_CURVE('',#280,#311,#313,.T.);
#311 = VERTEX_POINT('',#312);
#312 = CARTESIAN_POINT('',(116.5,-17.5,14.8));
#313 = LINE('',#314,#315);
#314 = CARTESIAN_POINT('',(116.5,-16.,14.8));
#315 = VECTOR('',#316,1.);
#316 = DIRECTION('',(0.,-1.,0.));
#317 = ORIENTED_EDGE('',*,*,#318,.F.);
#318 = EDGE_CURVE('',#319,#311,#321,.T.);
#319 = VERTEX_POINT('',#320);
#320 = CARTESIAN_POINT('',(116.5,-17.5,14.4));
#321 = LINE('',#322,#323);
#322 = CARTESIAN_POINT('',(116.5,-17.5,14.4));
#323 = VECTOR('',#324,1.);
#324 = DIRECTION('',(0.,0.,1.));
#325 = ORIENTED_EDGE('',*,*,#326,.F.);
#326 = EDGE_CURVE('',#288,#319,#327,.T.);
#327 = LINE('',#328,#329);
#328 = CARTESIAN_POINT('',(116.5,-16.,14.4));
#329 = VECTOR('',#330,1.);
#330 = DIRECTION('',(0.,-1.,0.));
#331 = PLANE('',#332);
#332 = AXIS2_PLACEMENT_3D('',#333,#334,#335);
#333 = CARTESIAN_POINT('',(116.5,-16.,14.4));
#334 = DIRECTION('',(1.,0.,0.));
#335 = DIRECTION('',(0.,-1.,0.));
#336 = ADVANCED_FACE('',(#337),#362,.T.);
#337 = FACE_BOUND('',#338,.T.);
#338 = EDGE_LOOP('',(#339,#340,#348,#356));
#339 = ORIENTED_EDGE('',*,*,#318,.T.);
#340 = ORIENTED_EDGE('',*,*,#341,.T.);
#341 = EDGE_CURVE('',#311,#342,#344,.T.);
#342 = VERTEX_POINT('',#343);
#343 = CARTESIAN_POINT('',(113.5,-16.8,14.8));
#344 = LINE('',#345,#346);
#345 = CARTESIAN_POINT('',(116.5,-17.5,14.8));
#346 = VECTOR('',#347,1.);
#347 = DIRECTION('',(-0.973841209742,0.227229615606,0.));
#348 = ORIENTED_EDGE('',*,*,#349,.F.);
#349 = EDGE_CURVE('',#350,#342,#352,.T.);
#350 = VERTEX_POINT('',#351);
#351 = CARTESIAN_POINT('',(113.5,-16.8,14.4));
#352 = LINE('',#353,#354);
#353 = CARTESIAN_POINT('',(113.5,-16.8,14.4));
#354 = VECTOR('',#355,1.);
#355 = DIRECTION('',(0.,0.,1.));
#356 = ORIENTED_EDGE('',*,*,#357,.F.);
#357 = EDGE_CURVE('',#319,#350,#358,.T.);
#358 = LINE('',#359,#360);
#359 = CARTESIAN_POINT('',(116.5,-17.5,14.4));
#360 = VECTOR('',#361,1.);
#361 = DIRECTION('',(-0.973841209742,0.227229615606,0.));
#362 = PLANE('',#363);
#363 = AXIS2_PLACEMENT_3D('',#364,#365,#366);
#364 = CARTESIAN_POINT('',(116.5,-17.5,14.4));
#365 = DIRECTION('',(-0.227229615606,-0.973841209742,0.));
#366 = DIRECTION('',(-0.973841209742,0.227229615606,0.));
#367 = ADVANCED_FACE('',(#368),#384,.T.);
#368 = FACE_BOUND('',#369,.T.);
#369 = EDGE_LOOP('',(#370,#371,#377,#378));
#370 = ORIENTED_EDGE('',*,*,#349,.T.);
#371 = ORIENTED_EDGE('',*,*,#372,.T.);
#372 = EDGE_CURVE('',#342,#24,#373,.T.);
#373 = LINE('',#374,#375);
#374 = CARTESIAN_POINT('',(113.5,-16.8,14.8));
#375 = VECTOR('',#376,1.);
#376 = DIRECTION('',(-0.25766265056,0.966234939601,0.));
#377 = ORIENTED_EDGE('',*,*,#21,.F.);
#378 = ORIENTED_EDGE('',*,*,#379,.F.);
#379 = EDGE_CURVE('',#350,#22,#380,.T.);
#380 = LINE('',#381,#382);
#381 = CARTESIAN_POINT('',(113.5,-16.8,14.4));
#382 = VECTOR('',#383,1.);
#383 = DIRECTION('',(-0.25766265056,0.966234939601,0.));
#384 = PLANE('',#385);
#385 = AXIS2_PLACEMENT_3D('',#386,#387,#388);
#386 = CARTESIAN_POINT('',(113.5,-16.8,14.4));
#387 = DIRECTION('',(-0.966234939601,-0.25766265056,0.));
#388 = DIRECTION('',(-0.25766265056,0.966234939601,0.));
#389 = ADVANCED_FACE('',(#390),#404,.T.);
#390 = FACE_BOUND('',#391,.F.);
#391 = EDGE_LOOP('',(#392,#393,#394,#395,#396,#397,#398,#399,#400,#401,
    #402,#403));
#392 = ORIENTED_EDGE('',*,*,#31,.T.);
#393 = ORIENTED_EDGE('',*,*,#62,.T.);
#394 = ORIENTED_EDGE('',*,*,#93,.T.);
#395 = ORIENTED_EDGE('',*,*,#124,.T.);
#396 = ORIENTED_EDGE('',*,*,#155,.T.);
#397 = ORIENTED_EDGE('',*,*,#186,.T.);
#398 = ORIENTED_EDGE('',*,*,#217,.T.);
#399 = ORIENTED_EDGE('',*,*,#248,.T.);
#400 = ORIENTED_EDGE('',*,*,#279,.T.);
#401 = ORIENTED_EDGE('',*,*,#310,.T.);
#402 = ORIENTED_EDGE('',*,*,#341,.T.);
#403 = ORIENTED_EDGE('',*,*,#372,.T.);
#404 = PLANE('',#405);
#405 = AXIS2_PLACEMENT_3D('',#406,#407,#408);
#406 = CARTESIAN_POINT('',(122.87550376613,-14.58191248972,14.8));
#407 = DIRECTION('',(0.,0.,1.));
#408 = DIRECTION('',(1.,0.,0.));
#409 = ADVANCED_FACE('',(#410),#424,.T.);
#410 = FACE_BOUND('',#411,.T.);
#411 = EDGE_LOOP('',(#412,#413,#414,#415,#416,#417,#418,#419,#420,#421,
    #422,#423));
#412 = ORIENTED_EDGE('',*,*,#47,.T.);
#413 = ORIENTED_EDGE('',*,*,#78,.T.);
#414 = ORIENTED_EDGE('',*,*,#109,.T.);
#415 = ORIENTED_EDGE('',*,*,#140,.T.);
#416 = ORIENTED_EDGE('',*,*,#171,.T.);
#417 = ORIENTED_EDGE('',*,*,#202,.T.);
#418 = ORIENTED_EDGE('',*,*,#233,.T.);
#419 = ORIENTED_EDGE('',*,*,#264,.T.);
#420 = ORIENTED_EDGE('',*,*,#295,.T.);
#421 = ORIENTED_EDGE('',*,*,#326,.T.);
#422 = ORIENTED_EDGE('',*,*,#357,.T.);
#423 = ORIENTED_EDGE('',*,*,#379,.T.);
#424 = PLANE('',#425);
#425 = AXIS2_PLACEMENT_3D('',#426,#427,#428);
#426 = CARTESIAN_POINT('',(122.87550376613,-14.58191248972,14.4));
#427 = DIRECTION('',(-0.,-0.,-1.));
#428 = DIRECTION('',(-1.,0.,0.));
#429 = MANIFOLD_SOLID_BREP('',#430);
#430 = CLOSED_SHELL('',(#431,#471,#502,#533,#564,#586,#599));
#431 = ADVANCED_FACE('',(#432),#466,.T.);
#432 = FACE_BOUND('',#433,.T.);
#433 = EDGE_LOOP('',(#434,#444,#452,#460));
#434 = ORIENTED_EDGE('',*,*,#435,.T.);
#435 = EDGE_CURVE('',#436,#438,#440,.T.);
#436 = VERTEX_POINT('',#437);
#437 = CARTESIAN_POINT('',(112.,-19.4,14.4));
#438 = VERTEX_POINT('',#439);
#439 = CARTESIAN_POINT('',(112.,-19.4,14.8));
#440 = LINE('',#441,#442);
#441 = CARTESIAN_POINT('',(112.,-19.4,14.4));
#442 = VECTOR('',#443,1.);
#443 = DIRECTION('',(0.,0.,1.));
#444 = ORIENTED_EDGE('',*,*,#445,.T.);
#445 = EDGE_CURVE('',#438,#446,#448,.T.);
#446 = VERTEX_POINT('',#447);
#447 = CARTESIAN_POINT('',(114.8,-20.8,14.8));
#448 = LINE('',#449,#450);
#449 = CARTESIAN_POINT('',(112.,-19.4,14.8));
#450 = VECTOR('',#451,1.);
#451 = DIRECTION('',(0.894427191,-0.4472135955,0.));
#452 = ORIENTED_EDGE('',*,*,#453,.F.);
#453 = EDGE_CURVE('',#454,#446,#456,.T.);
#454 = VERTEX_POINT('',#455);
#455 = CARTESIAN_POINT('',(114.8,-20.8,14.4));
#456 = LINE('',#457,#458);
#457 = CARTESIAN_POINT('',(114.8,-20.8,14.4));
#458 = VECTOR('',#459,1.);
#459 = DIRECTION('',(0.,0.,1.));
#460 = ORIENTED_EDGE('',*,*,#461,.F.);
#461 = EDGE_CURVE('',#436,#454,#462,.T.);
#462 = LINE('',#463,#464);
#463 = CARTESIAN_POINT('',(112.,-19.4,14.4));
#464 = VECTOR('',#465,1.);
#465 = DIRECTION('',(0.894427191,-0.4472135955,0.));
#466 = PLANE('',#467);
#467 = AXIS2_PLACEMENT_3D('',#468,#469,#470);
#468 = CARTESIAN_POINT('',(112.,-19.4,14.4));
#469 = DIRECTION('',(0.4472135955,0.894427191,0.));
#470 = DIRECTION('',(0.894427191,-0.4472135955,0.));
#471 = ADVANCED_FACE('',(#472),#497,.T.);
#472 = FACE_BOUND('',#473,.T.);
#473 = EDGE_LOOP('',(#474,#475,#483,#491));
#474 = ORIENTED_EDGE('',*,*,#453,.T.);
#475 = ORIENTED_EDGE('',*,*,#476,.T.);
#476 = EDGE_CURVE('',#446,#477,#479,.T.);
#477 = VERTEX_POINT('',#478);
#478 = CARTESIAN_POINT('',(114.8,-30.,14.8));
#479 = LINE('',#480,#481);
#480 = CARTESIAN_POINT('',(114.8,-20.8,14.8));
#481 = VECTOR('',#482,1.);
#482 = DIRECTION('',(0.,-1.,0.));
#483 = ORIENTED_EDGE('',*,*,#484,.F.);
#484 = EDGE_CURVE('',#485,#477,#487,.T.);
#485 = VERTEX_POINT('',#486);
#486 = CARTESIAN_POINT('',(114.8,-30.,14.4));
#487 = LINE('',#488,#489);
#488 = CARTESIAN_POINT('',(114.8,-30.,14.4));
#489 = VECTOR('',#490,1.);
#490 = DIRECTION('',(0.,0.,1.));
#491 = ORIENTED_EDGE('',*,*,#492,.F.);
#492 = EDGE_CURVE('',#454,#485,#493,.T.);
#493 = LINE('',#494,#495);
#494 = CARTESIAN_POINT('',(114.8,-20.8,14.4));
#495 = VECTOR('',#496,1.);
#496 = DIRECTION('',(0.,-1.,0.));
#497 = PLANE('',#498);
#498 = AXIS2_PLACEMENT_3D('',#499,#500,#501);
#499 = CARTESIAN_POINT('',(114.8,-20.8,14.4));
#500 = DIRECTION('',(1.,0.,0.));
#501 = DIRECTION('',(0.,-1.,0.));
#502 = ADVANCED_FACE('',(#503),#528,.T.);
#503 = FACE_BOUND('',#504,.T.);
#504 = EDGE_LOOP('',(#505,#506,#514,#522));
#505 = ORIENTED_EDGE('',*,*,#484,.T.);
#506 = ORIENTED_EDGE('',*,*,#507,.T.);
#507 = EDGE_CURVE('',#477,#508,#510,.T.);
#508 = VERTEX_POINT('',#509);
#509 = CARTESIAN_POINT('',(113.6,-31.6,14.8));
#510 = LINE('',#511,#512);
#511 = CARTESIAN_POINT('',(114.8,-30.,14.8));
#512 = VECTOR('',#513,1.);
#513 = DIRECTION('',(-0.6,-0.8,0.));
#514 = ORIENTED_EDGE('',*,*,#515,.F.);
#515 = EDGE_CURVE('',#516,#508,#518,.T.);
#516 = VERTEX_POINT('',#517);
#517 = CARTESIAN_POINT('',(113.6,-31.6,14.4));
#518 = LINE('',#519,#520);
#519 = CARTESIAN_POINT('',(113.6,-31.6,14.4));
#520 = VECTOR('',#521,1.);
#521 = DIRECTION('',(0.,0.,1.));
#522 = ORIENTED_EDGE('',*,*,#523,.F.);
#523 = EDGE_CURVE('',#485,#516,#524,.T.);
#524 = LINE('',#525,#526);
#525 = CARTESIAN_POINT('',(114.8,-30.,14.4));
#526 = VECTOR('',#527,1.);
#527 = DIRECTION('',(-0.6,-0.8,0.));
#528 = PLANE('',#529);
#529 = AXIS2_PLACEMENT_3D('',#530,#531,#532);
#530 = CARTESIAN_POINT('',(114.8,-30.,14.4));
#531 = DIRECTION('',(0.8,-0.6,0.));
#532 = DIRECTION('',(-0.6,-0.8,0.));
#533 = ADVANCED_FACE('',(#534),#559,.T.);
#534 = FACE_BOUND('',#535,.T.);
#535 = EDGE_LOOP('',(#536,#537,#545,#553));
#536 = ORIENTED_EDGE('',*,*,#515,.T.);
#537 = ORIENTED_EDGE('',*,*,#538,.T.);
#538 = EDGE_CURVE('',#508,#539,#541,.T.);
#539 = VERTEX_POINT('',#540);
#540 = CARTESIAN_POINT('',(112.,-30.5,14.8));
#541 = LINE('',#542,#543);
#542 = CARTESIAN_POINT('',(113.6,-31.6,14.8));
#543 = VECTOR('',#544,1.);
#544 = DIRECTION('',(-0.824041924199,0.566528822887,0.));
#545 = ORIENTED_EDGE('',*,*,#546,.F.);
#546 = EDGE_CURVE('',#547,#539,#549,.T.);
#547 = VERTEX_POINT('',#548);
#548 = CARTESIAN_POINT('',(112.,-30.5,14.4));
#549 = LINE('',#550,#551);
#550 = CARTESIAN_POINT('',(112.,-30.5,14.4));
#551 = VECTOR('',#552,1.);
#552 = DIRECTION('',(0.,0.,1.));
#553 = ORIENTED_EDGE('',*,*,#554,.F.);
#554 = EDGE_CURVE('',#516,#547,#555,.T.);
#555 = LINE('',#556,#557);
#556 = CARTESIAN_POINT('',(113.6,-31.6,14.4));
#557 = VECTOR('',#558,1.);
#558 = DIRECTION('',(-0.824041924199,0.566528822887,0.));
#559 = PLANE('',#560);
#560 = AXIS2_PLACEMENT_3D('',#561,#562,#563);
#561 = CARTESIAN_POINT('',(113.6,-31.6,14.4));
#562 = DIRECTION('',(-0.566528822887,-0.824041924199,0.));
#563 = DIRECTION('',(-0.824041924199,0.566528822887,0.));
#564 = ADVANCED_FACE('',(#565),#581,.T.);
#565 = FACE_BOUND('',#566,.T.);
#566 = EDGE_LOOP('',(#567,#568,#574,#575));
#567 = ORIENTED_EDGE('',*,*,#546,.T.);
#568 = ORIENTED_EDGE('',*,*,#569,.T.);
#569 = EDGE_CURVE('',#539,#438,#570,.T.);
#570 = LINE('',#571,#572);
#571 = CARTESIAN_POINT('',(112.,-30.5,14.8));
#572 = VECTOR('',#573,1.);
#573 = DIRECTION('',(0.,1.,0.));
#574 = ORIENTED_EDGE('',*,*,#435,.F.);
#575 = ORIENTED_EDGE('',*,*,#576,.F.);
#576 = EDGE_CURVE('',#547,#436,#577,.T.);
#577 = LINE('',#578,#579);
#578 = CARTESIAN_POINT('',(112.,-30.5,14.4));
#579 = VECTOR('',#580,1.);
#580 = DIRECTION('',(0.,1.,0.));
#581 = PLANE('',#582);
#582 = AXIS2_PLACEMENT_3D('',#583,#584,#585);
#583 = CARTESIAN_POINT('',(112.,-30.5,14.4));
#584 = DIRECTION('',(-1.,0.,0.));
#585 = DIRECTION('',(0.,1.,0.));
#586 = ADVANCED_FACE('',(#587),#594,.T.);
#587 = FACE_BOUND('',#588,.F.);
#588 = EDGE_LOOP('',(#589,#590,#591,#592,#593));
#589 = ORIENTED_EDGE('',*,*,#445,.T.);
#590 = ORIENTED_EDGE('',*,*,#476,.T.);
#591 = ORIENTED_EDGE('',*,*,#507,.T.);
#592 = ORIENTED_EDGE('',*,*,#538,.T.);
#593 = ORIENTED_EDGE('',*,*,#569,.T.);
#594 = PLANE('',#595);
#595 = AXIS2_PLACEMENT_3D('',#596,#597,#598);
#596 = CARTESIAN_POINT('',(113.31871337246,-25.40671088228,14.8));
#597 = DIRECTION('',(0.,0.,1.));
#598 = DIRECTION('',(1.,0.,0.));
#599 = ADVANCED_FACE('',(#600),#607,.T.);
#600 = FACE_BOUND('',#601,.T.);
#601 = EDGE_LOOP('',(#602,#603,#604,#605,#606));
#602 = ORIENTED_EDGE('',*,*,#461,.T.);
#603 = ORIENTED_EDGE('',*,*,#492,.T.);
#604 = ORIENTED_EDGE('',*,*,#523,.T.);
#605 = ORIENTED_EDGE('',*,*,#554,.T.);
#606 = ORIENTED_EDGE('',*,*,#576,.T.);
#607 = PLANE('',#608);
#608 = AXIS2_PLACEMENT_3D('',#609,#610,#611);
#609 = CARTESIAN_POINT('',(113.31871337246,-25.40671088228,14.4));
#610 = DIRECTION('',(-0.,-0.,-1.));
#611 = DIRECTION('',(-1.,0.,0.));
#612 = MANIFOLD_SOLID_BREP('',#613);
#613 = CLOSED_SHELL('',(#614,#654,#685,#716,#747,#778,#800,#814));
#614 = ADVANCED_FACE('',(#615),#649,.T.);
#615 = FACE_BOUND('',#616,.T.);
#616 = EDGE_LOOP('',(#617,#627,#635,#643));
#617 = ORIENTED_EDGE('',*,*,#618,.T.);
#618 = EDGE_CURVE('',#619,#621,#623,.T.);
#619 = VERTEX_POINT('',#620);
#620 = CARTESIAN_POINT('',(112.,-34.,14.4));
#621 = VERTEX_POINT('',#622);
#622 = CARTESIAN_POINT('',(112.,-34.,14.8));
#623 = LINE('',#624,#625);
#624 = CARTESIAN_POINT('',(112.,-34.,14.4));
#625 = VECTOR('',#626,1.);
#626 = DIRECTION('',(0.,0.,1.));
#627 = ORIENTED_EDGE('',*,*,#628,.T.);
#628 = EDGE_CURVE('',#621,#629,#631,.T.);
#629 = VERTEX_POINT('',#630);
#630 = CARTESIAN_POINT('',(113.6,-33.,14.8));
#631 = LINE('',#632,#633);
#632 = CARTESIAN_POINT('',(112.,-34.,14.8));
#633 = VECTOR('',#634,1.);
#634 = DIRECTION('',(0.847998304005,0.529998940003,0.));
#635 = ORIENTED_EDGE('',*,*,#636,.F.);
#636 = EDGE_CURVE('',#637,#629,#639,.T.);
#637 = VERTEX_POINT('',#638);
#638 = CARTESIAN_POINT('',(113.6,-33.,14.4));
#639 = LINE('',#640,#641);
#640 = CARTESIAN_POINT('',(113.6,-33.,14.4));
#641 = VECTOR('',#642,1.);
#642 = DIRECTION('',(0.,0.,1.));
#643 = ORIENTED_EDGE('',*,*,#644,.F.);
#644 = EDGE_CURVE('',#619,#637,#645,.T.);
#645 = LINE('',#646,#647);
#646 = CARTESIAN_POINT('',(112.,-34.,14.4));
#647 = VECTOR('',#648,1.);
#648 = DIRECTION('',(0.847998304005,0.529998940003,0.));
#649 = PLANE('',#650);
#650 = AXIS2_PLACEMENT_3D('',#651,#652,#653);
#651 = CARTESIAN_POINT('',(112.,-34.,14.4));
#652 = DIRECTION('',(-0.529998940003,0.847998304005,0.));
#653 = DIRECTION('',(0.847998304005,0.529998940003,0.));
#654 = ADVANCED_FACE('',(#655),#680,.T.);
#655 = FACE_BOUND('',#656,.T.);
#656 = EDGE_LOOP('',(#657,#658,#666,#674));
#657 = ORIENTED_EDGE('',*,*,#636,.T.);
#658 = ORIENTED_EDGE('',*,*,#659,.T.);
#659 = EDGE_CURVE('',#629,#660,#662,.T.);
#660 = VERTEX_POINT('',#661);
#661 = CARTESIAN_POINT('',(114.8,-35.,14.8));
#662 = LINE('',#663,#664);
#663 = CARTESIAN_POINT('',(113.6,-33.,14.8));
#664 = VECTOR('',#665,1.);
#665 = DIRECTION('',(0.514495755428,-0.857492925713,0.));
#666 = ORIENTED_EDGE('',*,*,#667,.F.);
#667 = EDGE_CURVE('',#668,#660,#670,.T.);
#668 = VERTEX_POINT('',#669);
#669 = CARTESIAN_POINT('',(114.8,-35.,14.4));
#670 = LINE('',#671,#672);
#671 = CARTESIAN_POINT('',(114.8,-35.,14.4));
#672 = VECTOR('',#673,1.);
#673 = DIRECTION('',(0.,0.,1.));
#674 = ORIENTED_EDGE('',*,*,#675,.F.);
#675 = EDGE_CURVE('',#637,#668,#676,.T.);
#676 = LINE('',#677,#678);
#677 = CARTESIAN_POINT('',(113.6,-33.,14.4));
#678 = VECTOR('',#679,1.);
#679 = DIRECTION('',(0.514495755428,-0.857492925713,0.));
#680 = PLANE('',#681);
#681 = AXIS2_PLACEMENT_3D('',#682,#683,#684);
#682 = CARTESIAN_POINT('',(113.6,-33.,14.4));
#683 = DIRECTION('',(0.857492925713,0.514495755428,0.));
#684 = DIRECTION('',(0.514495755428,-0.857492925713,0.));
#685 = ADVANCED_FACE('',(#686),#711,.T.);
#686 = FACE_BOUND('',#687,.T.);
#687 = EDGE_LOOP('',(#688,#689,#697,#705));
#688 = ORIENTED_EDGE('',*,*,#667,.T.);
#689 = ORIENTED_EDGE('',*,*,#690,.T.);
#690 = EDGE_CURVE('',#660,#691,#693,.T.);
#691 = VERTEX_POINT('',#692);
#692 = CARTESIAN_POINT('',(114.8,-47.8,14.8));
#693 = LINE('',#694,#695);
#694 = CARTESIAN_POINT('',(114.8,-35.,14.8));
#695 = VECTOR('',#696,1.);
#696 = DIRECTION('',(0.,-1.,0.));
#697 = ORIENTED_EDGE('',*,*,#698,.F.);
#698 = EDGE_CURVE('',#699,#691,#701,.T.);
#699 = VERTEX_POINT('',#700);
#700 = CARTESIAN_POINT('',(114.8,-47.8,14.4));
#701 = LINE('',#702,#703);
#702 = CARTESIAN_POINT('',(114.8,-47.8,14.4));
#703 = VECTOR('',#704,1.);
#704 = DIRECTION('',(0.,0.,1.));
#705 = ORIENTED_EDGE('',*,*,#706,.F.);
#706 = EDGE_CURVE('',#668,#699,#707,.T.);
#707 = LINE('',#708,#709);
#708 = CARTESIAN_POINT('',(114.8,-35.,14.4));
#709 = VECTOR('',#710,1.);
#710 = DIRECTION('',(0.,-1.,0.));
#711 = PLANE('',#712);
#712 = AXIS2_PLACEMENT_3D('',#713,#714,#715);
#713 = CARTESIAN_POINT('',(114.8,-35.,14.4));
#714 = DIRECTION('',(1.,0.,0.));
#715 = DIRECTION('',(0.,-1.,0.));
#716 = ADVANCED_FACE('',(#717),#742,.T.);
#717 = FACE_BOUND('',#718,.T.);
#718 = EDGE_LOOP('',(#719,#720,#728,#736));
#719 = ORIENTED_EDGE('',*,*,#698,.T.);
#720 = ORIENTED_EDGE('',*,*,#721,.T.);
#721 = EDGE_CURVE('',#691,#722,#724,.T.);
#722 = VERTEX_POINT('',#723);
#723 = CARTESIAN_POINT('',(113.,-49.4,14.8));
#724 = LINE('',#725,#726);
#725 = CARTESIAN_POINT('',(114.8,-47.8,14.8));
#726 = VECTOR('',#727,1.);
#727 = DIRECTION('',(-0.747409318684,-0.66436383883,0.));
#728 = ORIENTED_EDGE('',*,*,#729,.F.);
#729 = EDGE_CURVE('',#730,#722,#732,.T.);
#730 = VERTEX_POINT('',#731);
#731 = CARTESIAN_POINT('',(113.,-49.4,14.4));
#732 = LINE('',#733,#734);
#733 = CARTESIAN_POINT('',(113.,-49.4,14.4));
#734 = VECTOR('',#735,1.);
#735 = DIRECTION('',(0.,0.,1.));
#736 = ORIENTED_EDGE('',*,*,#737,.F.);
#737 = EDGE_CURVE('',#699,#730,#738,.T.);
#738 = LINE('',#739,#740);
#739 = CARTESIAN_POINT('',(114.8,-47.8,14.4));
#740 = VECTOR('',#741,1.);
#741 = DIRECTION('',(-0.747409318684,-0.66436383883,0.));
#742 = PLANE('',#743);
#743 = AXIS2_PLACEMENT_3D('',#744,#745,#746);
#744 = CARTESIAN_POINT('',(114.8,-47.8,14.4));
#745 = DIRECTION('',(0.66436383883,-0.747409318684,0.));
#746 = DIRECTION('',(-0.747409318684,-0.66436383883,0.));
#747 = ADVANCED_FACE('',(#748),#773,.T.);
#748 = FACE_BOUND('',#749,.T.);
#749 = EDGE_LOOP('',(#750,#751,#759,#767));
#750 = ORIENTED_EDGE('',*,*,#729,.T.);
#751 = ORIENTED_EDGE('',*,*,#752,.T.);
#752 = EDGE_CURVE('',#722,#753,#755,.T.);
#753 = VERTEX_POINT('',#754);
#754 = CARTESIAN_POINT('',(112.,-47.7,14.8));
#755 = LINE('',#756,#757);
#756 = CARTESIAN_POINT('',(113.,-49.4,14.8));
#757 = VECTOR('',#758,1.);
#758 = DIRECTION('',(-0.507020126563,0.861934215158,0.));
#759 = ORIENTED_EDGE('',*,*,#760,.F.);
#760 = EDGE_CURVE('',#761,#753,#763,.T.);
#761 = VERTEX_POINT('',#762);
#762 = CARTESIAN_POINT('',(112.,-47.7,14.4));
#763 = LINE('',#764,#765);
#764 = CARTESIAN_POINT('',(112.,-47.7,14.4));
#765 = VECTOR('',#766,1.);
#766 = DIRECTION('',(0.,0.,1.));
#767 = ORIENTED_EDGE('',*,*,#768,.F.);
#768 = EDGE_CURVE('',#730,#761,#769,.T.);
#769 = LINE('',#770,#771);
#770 = CARTESIAN_POINT('',(113.,-49.4,14.4));
#771 = VECTOR('',#772,1.);
#772 = DIRECTION('',(-0.507020126563,0.861934215158,0.));
#773 = PLANE('',#774);
#774 = AXIS2_PLACEMENT_3D('',#775,#776,#777);
#775 = CARTESIAN_POINT('',(113.,-49.4,14.4));
#776 = DIRECTION('',(-0.861934215158,-0.507020126563,0.));
#777 = DIRECTION('',(-0.507020126563,0.861934215158,0.));
#778 = ADVANCED_FACE('',(#779),#795,.T.);
#779 = FACE_BOUND('',#780,.T.);
#780 = EDGE_LOOP('',(#781,#782,#788,#789));
#781 = ORIENTED_EDGE('',*,*,#760,.T.);
#782 = ORIENTED_EDGE('',*,*,#783,.T.);
#783 = EDGE_CURVE('',#753,#621,#784,.T.);
#784 = LINE('',#785,#786);
#785 = CARTESIAN_POINT('',(112.,-47.7,14.8));
#786 = VECTOR('',#787,1.);
#787 = DIRECTION('',(0.,1.,0.));
#788 = ORIENTED_EDGE('',*,*,#618,.F.);
#789 = ORIENTED_EDGE('',*,*,#790,.F.);
#790 = EDGE_CURVE('',#761,#619,#791,.T.);
#791 = LINE('',#792,#793);
#792 = CARTESIAN_POINT('',(112.,-47.7,14.4));
#793 = VECTOR('',#794,1.);
#794 = DIRECTION('',(0.,1.,0.));
#795 = PLANE('',#796);
#796 = AXIS2_PLACEMENT_3D('',#797,#798,#799);
#797 = CARTESIAN_POINT('',(112.,-47.7,14.4));
#798 = DIRECTION('',(-1.,0.,0.));
#799 = DIRECTION('',(0.,1.,0.));
#800 = ADVANCED_FACE('',(#801),#809,.T.);
#801 = FACE_BOUND('',#802,.F.);
#802 = EDGE_LOOP('',(#803,#804,#805,#806,#807,#808));
#803 = ORIENTED_EDGE('',*,*,#628,.T.);
#804 = ORIENTED_EDGE('',*,*,#659,.T.);
#805 = ORIENTED_EDGE('',*,*,#690,.T.);
#806 = ORIENTED_EDGE('',*,*,#721,.T.);
#807 = ORIENTED_EDGE('',*,*,#752,.T.);
#808 = ORIENTED_EDGE('',*,*,#783,.T.);
#809 = PLANE('',#810);
#810 = AXIS2_PLACEMENT_3D('',#811,#812,#813);
#811 = CARTESIAN_POINT('',(113.36874366795,-41.1647164278,14.8));
#812 = DIRECTION('',(0.,0.,1.));
#813 = DIRECTION('',(1.,0.,0.));
#814 = ADVANCED_FACE('',(#815),#823,.T.);
#815 = FACE_BOUND('',#816,.T.);
#816 = EDGE_LOOP('',(#817,#818,#819,#820,#821,#822));
#817 = ORIENTED_EDGE('',*,*,#644,.T.);
#818 = ORIENTED_EDGE('',*,*,#675,.T.);
#819 = ORIENTED_EDGE('',*,*,#706,.T.);
#820 = ORIENTED_EDGE('',*,*,#737,.T.);
#821 = ORIENTED_EDGE('',*,*,#768,.T.);
#822 = ORIENTED_EDGE('',*,*,#790,.T.);
#823 = PLANE('',#824);
#824 = AXIS2_PLACEMENT_3D('',#825,#826,#827);
#825 = CARTESIAN_POINT('',(113.36874366795,-41.1647164278,14.4));
#826 = DIRECTION('',(-0.,-0.,-1.));
#827 = DIRECTION('',(-1.,0.,0.));
#828 = MANIFOLD_SOLID_BREP('',#829);
#829 = CLOSED_SHELL('',(#830,#870,#901,#932,#963,#985,#998));
#830 = ADVANCED_FACE('',(#831),#865,.F.);
#831 = FACE_BOUND('',#832,.F.);
#832 = EDGE_LOOP('',(#833,#843,#851,#859));
#833 = ORIENTED_EDGE('',*,*,#834,.T.);
#834 = EDGE_CURVE('',#835,#837,#839,.T.);
#835 = VERTEX_POINT('',#836);
#836 = CARTESIAN_POINT('',(134.,-19.4,14.4));
#837 = VERTEX_POINT('',#838);
#838 = CARTESIAN_POINT('',(134.,-19.4,14.8));
#839 = LINE('',#840,#841);
#840 = CARTESIAN_POINT('',(134.,-19.4,14.4));
#841 = VECTOR('',#842,1.);
#842 = DIRECTION('',(0.,0.,1.));
#843 = ORIENTED_EDGE('',*,*,#844,.T.);
#844 = EDGE_CURVE('',#837,#845,#847,.T.);
#845 = VERTEX_POINT('',#846);
#846 = CARTESIAN_POINT('',(131.,-20.8,14.8));
#847 = LINE('',#848,#849);
#848 = CARTESIAN_POINT('',(134.,-19.4,14.8));
#849 = VECTOR('',#850,1.);
#850 = DIRECTION('',(-0.906183139995,-0.422885465331,0.));
#851 = ORIENTED_EDGE('',*,*,#852,.F.);
#852 = EDGE_CURVE('',#853,#845,#855,.T.);
#853 = VERTEX_POINT('',#854);
#854 = CARTESIAN_POINT('',(131.,-20.8,14.4));
#855 = LINE('',#856,#857);
#856 = CARTESIAN_POINT('',(131.,-20.8,14.4));
#857 = VECTOR('',#858,1.);
#858 = DIRECTION('',(0.,0.,1.));
#859 = ORIENTED_EDGE('',*,*,#860,.F.);
#860 = EDGE_CURVE('',#835,#853,#861,.T.);
#861 = LINE('',#862,#863);
#862 = CARTESIAN_POINT('',(134.,-19.4,14.4));
#863 = VECTOR('',#864,1.);
#864 = DIRECTION('',(-0.906183139995,-0.422885465331,0.));
#865 = PLANE('',#866);
#866 = AXIS2_PLACEMENT_3D('',#867,#868,#869);
#867 = CARTESIAN_POINT('',(134.,-19.4,14.4));
#868 = DIRECTION('',(0.422885465331,-0.906183139995,0.));
#869 = DIRECTION('',(-0.906183139995,-0.422885465331,0.));
#870 = ADVANCED_FACE('',(#871),#896,.F.);
#871 = FACE_BOUND('',#872,.F.);
#872 = EDGE_LOOP('',(#873,#874,#882,#890));
#873 = ORIENTED_EDGE('',*,*,#852,.T.);
#874 = ORIENTED_EDGE('',*,*,#875,.T.);
#875 = EDGE_CURVE('',#845,#876,#878,.T.);
#876 = VERTEX_POINT('',#877);
#877 = CARTESIAN_POINT('',(131.,-30.,14.8));
#878 = LINE('',#879,#880);
#879 = CARTESIAN_POINT('',(131.,-20.8,14.8));
#880 = VECTOR('',#881,1.);
#881 = DIRECTION('',(0.,-1.,0.));
#882 = ORIENTED_EDGE('',*,*,#883,.F.);
#883 = EDGE_CURVE('',#884,#876,#886,.T.);
#884 = VERTEX_POINT('',#885);
#885 = CARTESIAN_POINT('',(131.,-30.,14.4));
#886 = LINE('',#887,#888);
#887 = CARTESIAN_POINT('',(131.,-30.,14.4));
#888 = VECTOR('',#889,1.);
#889 = DIRECTION('',(0.,0.,1.));
#890 = ORIENTED_EDGE('',*,*,#891,.F.);
#891 = EDGE_CURVE('',#853,#884,#892,.T.);
#892 = LINE('',#893,#894);
#893 = CARTESIAN_POINT('',(131.,-20.8,14.4));
#894 = VECTOR('',#895,1.);
#895 = DIRECTION('',(0.,-1.,0.));
#896 = PLANE('',#897);
#897 = AXIS2_PLACEMENT_3D('',#898,#899,#900);
#898 = CARTESIAN_POINT('',(131.,-20.8,14.4));
#899 = DIRECTION('',(1.,0.,0.));
#900 = DIRECTION('',(0.,-1.,0.));
#901 = ADVANCED_FACE('',(#902),#927,.F.);
#902 = FACE_BOUND('',#903,.F.);
#903 = EDGE_LOOP('',(#904,#905,#913,#921));
#904 = ORIENTED_EDGE('',*,*,#883,.T.);
#905 = ORIENTED_EDGE('',*,*,#906,.T.);
#906 = EDGE_CURVE('',#876,#907,#909,.T.);
#907 = VERTEX_POINT('',#908);
#908 = CARTESIAN_POINT('',(132.4,-31.6,14.8));
#909 = LINE('',#910,#911);
#910 = CARTESIAN_POINT('',(131.,-30.,14.8));
#911 = VECTOR('',#912,1.);
#912 = DIRECTION('',(0.658504607869,-0.752576694707,0.));
#913 = ORIENTED_EDGE('',*,*,#914,.F.);
#914 = EDGE_CURVE('',#915,#907,#917,.T.);
#915 = VERTEX_POINT('',#916);
#916 = CARTESIAN_POINT('',(132.4,-31.6,14.4));
#917 = LINE('',#918,#919);
#918 = CARTESIAN_POINT('',(132.4,-31.6,14.4));
#919 = VECTOR('',#920,1.);
#920 = DIRECTION('',(0.,0.,1.));
#921 = ORIENTED_EDGE('',*,*,#922,.F.);
#922 = EDGE_CURVE('',#884,#915,#923,.T.);
#923 = LINE('',#924,#925);
#924 = CARTESIAN_POINT('',(131.,-30.,14.4));
#925 = VECTOR('',#926,1.);
#926 = DIRECTION('',(0.658504607869,-0.752576694707,0.));
#927 = PLANE('',#928);
#928 = AXIS2_PLACEMENT_3D('',#929,#930,#931);
#929 = CARTESIAN_POINT('',(131.,-30.,14.4));
#930 = DIRECTION('',(0.752576694707,0.658504607869,0.));
#931 = DIRECTION('',(0.658504607869,-0.752576694707,0.));
#932 = ADVANCED_FACE('',(#933),#958,.F.);
#933 = FACE_BOUND('',#934,.F.);
#934 = EDGE_LOOP('',(#935,#936,#944,#952));
#935 = ORIENTED_EDGE('',*,*,#914,.T.);
#936 = ORIENTED_EDGE('',*,*,#937,.T.);
#937 = EDGE_CURVE('',#907,#938,#940,.T.);
#938 = VERTEX_POINT('',#939);
#939 = CARTESIAN_POINT('',(134.,-30.5,14.8));
#940 = LINE('',#941,#942);
#941 = CARTESIAN_POINT('',(132.4,-31.6,14.8));
#942 = VECTOR('',#943,1.);
#943 = DIRECTION('',(0.824041924199,0.566528822887,0.));
#944 = ORIENTED_EDGE('',*,*,#945,.F.);
#945 = EDGE_CURVE('',#946,#938,#948,.T.);
#946 = VERTEX_POINT('',#947);
#947 = CARTESIAN_POINT('',(134.,-30.5,14.4));
#948 = LINE('',#949,#950);
#949 = CARTESIAN_POINT('',(134.,-30.5,14.4));
#950 = VECTOR('',#951,1.);
#951 = DIRECTION('',(0.,0.,1.));
#952 = ORIENTED_EDGE('',*,*,#953,.F.);
#953 = EDGE_CURVE('',#915,#946,#954,.T.);
#954 = LINE('',#955,#956);
#955 = CARTESIAN_POINT('',(132.4,-31.6,14.4));
#956 = VECTOR('',#957,1.);
#957 = DIRECTION('',(0.824041924199,0.566528822887,0.));
#958 = PLANE('',#959);
#959 = AXIS2_PLACEMENT_3D('',#960,#961,#962);
#960 = CARTESIAN_POINT('',(132.4,-31.6,14.4));
#961 = DIRECTION('',(-0.566528822887,0.824041924199,0.));
#962 = DIRECTION('',(0.824041924199,0.566528822887,0.));
#963 = ADVANCED_FACE('',(#964),#980,.F.);
#964 = FACE_BOUND('',#965,.F.);
#965 = EDGE_LOOP('',(#966,#967,#973,#974));
#966 = ORIENTED_EDGE('',*,*,#945,.T.);
#967 = ORIENTED_EDGE('',*,*,#968,.T.);
#968 = EDGE_CURVE('',#938,#837,#969,.T.);
#969 = LINE('',#970,#971);
#970 = CARTESIAN_POINT('',(134.,-30.5,14.8));
#971 = VECTOR('',#972,1.);
#972 = DIRECTION('',(0.,1.,0.));
#973 = ORIENTED_EDGE('',*,*,#834,.F.);
#974 = ORIENTED_EDGE('',*,*,#975,.F.);
#975 = EDGE_CURVE('',#946,#835,#976,.T.);
#976 = LINE('',#977,#978);
#977 = CARTESIAN_POINT('',(134.,-30.5,14.4));
#978 = VECTOR('',#979,1.);
#979 = DIRECTION('',(0.,1.,0.));
#980 = PLANE('',#981);
#981 = AXIS2_PLACEMENT_3D('',#982,#983,#984);
#982 = CARTESIAN_POINT('',(134.,-30.5,14.4));
#983 = DIRECTION('',(-1.,0.,0.));
#984 = DIRECTION('',(0.,1.,0.));
#985 = ADVANCED_FACE('',(#986),#993,.T.);
#986 = FACE_BOUND('',#987,.T.);
#987 = EDGE_LOOP('',(#988,#989,#990,#991,#992));
#988 = ORIENTED_EDGE('',*,*,#844,.T.);
#989 = ORIENTED_EDGE('',*,*,#875,.T.);
#990 = ORIENTED_EDGE('',*,*,#906,.T.);
#991 = ORIENTED_EDGE('',*,*,#937,.T.);
#992 = ORIENTED_EDGE('',*,*,#968,.T.);
#993 = PLANE('',#994);
#994 = AXIS2_PLACEMENT_3D('',#995,#996,#997);
#995 = CARTESIAN_POINT('',(132.59062456175,-25.39673935612,14.8));
#996 = DIRECTION('',(0.,0.,1.));
#997 = DIRECTION('',(1.,0.,0.));
#998 = ADVANCED_FACE('',(#999),#1006,.T.);
#999 = FACE_BOUND('',#1000,.T.);
#1000 = EDGE_LOOP('',(#1001,#1002,#1003,#1004,#1005));
#1001 = ORIENTED_EDGE('',*,*,#975,.F.);
#1002 = ORIENTED_EDGE('',*,*,#953,.F.);
#1003 = ORIENTED_EDGE('',*,*,#922,.F.);
#1004 = ORIENTED_EDGE('',*,*,#891,.F.);
#1005 = ORIENTED_EDGE('',*,*,#860,.F.);
#1006 = PLANE('',#1007);
#1007 = AXIS2_PLACEMENT_3D('',#1008,#1009,#1010);
#1008 = CARTESIAN_POINT('',(132.59062456175,-25.39673935612,14.4));
#1009 = DIRECTION('',(-0.,-0.,-1.));
#1010 = DIRECTION('',(-1.,0.,0.));
#1011 = MANIFOLD_SOLID_BREP('',#1012);
#1012 = CLOSED_SHELL('',(#1013,#1053,#1084,#1115,#1146,#1177,#1199,#1213
    ));
#1013 = ADVANCED_FACE('',(#1014),#1048,.F.);
#1014 = FACE_BOUND('',#1015,.F.);
#1015 = EDGE_LOOP('',(#1016,#1026,#1034,#1042));
#1016 = ORIENTED_EDGE('',*,*,#1017,.T.);
#1017 = EDGE_CURVE('',#1018,#1020,#1022,.T.);
#1018 = VERTEX_POINT('',#1019);
#1019 = CARTESIAN_POINT('',(134.,-34.,14.4));
#1020 = VERTEX_POINT('',#1021);
#1021 = CARTESIAN_POINT('',(134.,-34.,14.8));
#1022 = LINE('',#1023,#1024);
#1023 = CARTESIAN_POINT('',(134.,-34.,14.4));
#1024 = VECTOR('',#1025,1.);
#1025 = DIRECTION('',(0.,0.,1.));
#1026 = ORIENTED_EDGE('',*,*,#1027,.T.);
#1027 = EDGE_CURVE('',#1020,#1028,#1030,.T.);
#1028 = VERTEX_POINT('',#1029);
#1029 = CARTESIAN_POINT('',(132.4,-33.,14.8));
#1030 = LINE('',#1031,#1032);
#1031 = CARTESIAN_POINT('',(134.,-34.,14.8));
#1032 = VECTOR('',#1033,1.);
#1033 = DIRECTION('',(-0.847998304005,0.529998940003,0.));
#1034 = ORIENTED_EDGE('',*,*,#1035,.F.);
#1035 = EDGE_CURVE('',#1036,#1028,#1038,.T.);
#1036 = VERTEX_POINT('',#1037);
#1037 = CARTESIAN_POINT('',(132.4,-33.,14.4));
#1038 = LINE('',#1039,#1040);
#1039 = CARTESIAN_POINT('',(132.4,-33.,14.4));
#1040 = VECTOR('',#1041,1.);
#1041 = DIRECTION('',(0.,0.,1.));
#1042 = ORIENTED_EDGE('',*,*,#1043,.F.);
#1043 = EDGE_CURVE('',#1018,#1036,#1044,.T.);
#1044 = LINE('',#1045,#1046);
#1045 = CARTESIAN_POINT('',(134.,-34.,14.4));
#1046 = VECTOR('',#1047,1.);
#1047 = DIRECTION('',(-0.847998304005,0.529998940003,0.));
#1048 = PLANE('',#1049);
#1049 = AXIS2_PLACEMENT_3D('',#1050,#1051,#1052);
#1050 = CARTESIAN_POINT('',(134.,-34.,14.4));
#1051 = DIRECTION('',(-0.529998940003,-0.847998304005,0.));
#1052 = DIRECTION('',(-0.847998304005,0.529998940003,0.));
#1053 = ADVANCED_FACE('',(#1054),#1079,.F.);
#1054 = FACE_BOUND('',#1055,.F.);
#1055 = EDGE_LOOP('',(#1056,#1057,#1065,#1073));
#1056 = ORIENTED_EDGE('',*,*,#1035,.T.);
#1057 = ORIENTED_EDGE('',*,*,#1058,.T.);
#1058 = EDGE_CURVE('',#1028,#1059,#1061,.T.);
#1059 = VERTEX_POINT('',#1060);
#1060 = CARTESIAN_POINT('',(131.,-35.,14.8));
#1061 = LINE('',#1062,#1063);
#1062 = CARTESIAN_POINT('',(132.4,-33.,14.8));
#1063 = VECTOR('',#1064,1.);
#1064 = DIRECTION('',(-0.573462344363,-0.819231920519,0.));
#1065 = ORIENTED_EDGE('',*,*,#1066,.F.);
#1066 = EDGE_CURVE('',#1067,#1059,#1069,.T.);
#1067 = VERTEX_POINT('',#1068);
#1068 = CARTESIAN_POINT('',(131.,-35.,14.4));
#1069 = LINE('',#1070,#1071);
#1070 = CARTESIAN_POINT('',(131.,-35.,14.4));
#1071 = VECTOR('',#1072,1.);
#1072 = DIRECTION('',(0.,0.,1.));
#1073 = ORIENTED_EDGE('',*,*,#1074,.F.);
#1074 = EDGE_CURVE('',#1036,#1067,#1075,.T.);
#1075 = LINE('',#1076,#1077);
#1076 = CARTESIAN_POINT('',(132.4,-33.,14.4));
#1077 = VECTOR('',#1078,1.);
#1078 = DIRECTION('',(-0.573462344363,-0.819231920519,0.));
#1079 = PLANE('',#1080);
#1080 = AXIS2_PLACEMENT_3D('',#1081,#1082,#1083);
#1081 = CARTESIAN_POINT('',(132.4,-33.,14.4));
#1082 = DIRECTION('',(0.819231920519,-0.573462344363,0.));
#1083 = DIRECTION('',(-0.573462344363,-0.819231920519,0.));
#1084 = ADVANCED_FACE('',(#1085),#1110,.F.);
#1085 = FACE_BOUND('',#1086,.F.);
#1086 = EDGE_LOOP('',(#1087,#1088,#1096,#1104));
#1087 = ORIENTED_EDGE('',*,*,#1066,.T.);
#1088 = ORIENTED_EDGE('',*,*,#1089,.T.);
#1089 = EDGE_CURVE('',#1059,#1090,#1092,.T.);
#1090 = VERTEX_POINT('',#1091);
#1091 = CARTESIAN_POINT('',(131.,-47.8,14.8));
#1092 = LINE('',#1093,#1094);
#1093 = CARTESIAN_POINT('',(131.,-35.,14.8));
#1094 = VECTOR('',#1095,1.);
#1095 = DIRECTION('',(0.,-1.,0.));
#1096 = ORIENTED_EDGE('',*,*,#1097,.F.);
#1097 = EDGE_CURVE('',#1098,#1090,#1100,.T.);
#1098 = VERTEX_POINT('',#1099);
#1099 = CARTESIAN_POINT('',(131.,-47.8,14.4));
#1100 = LINE('',#1101,#1102);
#1101 = CARTESIAN_POINT('',(131.,-47.8,14.4));
#1102 = VECTOR('',#1103,1.);
#1103 = DIRECTION('',(0.,0.,1.));
#1104 = ORIENTED_EDGE('',*,*,#1105,.F.);
#1105 = EDGE_CURVE('',#1067,#1098,#1106,.T.);
#1106 = LINE('',#1107,#1108);
#1107 = CARTESIAN_POINT('',(131.,-35.,14.4));
#1108 = VECTOR('',#1109,1.);
#1109 = DIRECTION('',(0.,-1.,0.));
#1110 = PLANE('',#1111);
#1111 = AXIS2_PLACEMENT_3D('',#1112,#1113,#1114);
#1112 = CARTESIAN_POINT('',(131.,-35.,14.4));
#1113 = DIRECTION('',(1.,0.,0.));
#1114 = DIRECTION('',(0.,-1.,0.));
#1115 = ADVANCED_FACE('',(#1116),#1141,.F.);
#1116 = FACE_BOUND('',#1117,.F.);
#1117 = EDGE_LOOP('',(#1118,#1119,#1127,#1135));
#1118 = ORIENTED_EDGE('',*,*,#1097,.T.);
#1119 = ORIENTED_EDGE('',*,*,#1120,.T.);
#1120 = EDGE_CURVE('',#1090,#1121,#1123,.T.);
#1121 = VERTEX_POINT('',#1122);
#1122 = CARTESIAN_POINT('',(133.,-49.4,14.8));
#1123 = LINE('',#1124,#1125);
#1124 = CARTESIAN_POINT('',(131.,-47.8,14.8));
#1125 = VECTOR('',#1126,1.);
#1126 = DIRECTION('',(0.780868809443,-0.624695047554,0.));
#1127 = ORIENTED_EDGE('',*,*,#1128,.F.);
#1128 = EDGE_CURVE('',#1129,#1121,#1131,.T.);
#1129 = VERTEX_POINT('',#1130);
#1130 = CARTESIAN_POINT('',(133.,-49.4,14.4));
#1131 = LINE('',#1132,#1133);
#1132 = CARTESIAN_POINT('',(133.,-49.4,14.4));
#1133 = VECTOR('',#1134,1.);
#1134 = DIRECTION('',(0.,0.,1.));
#1135 = ORIENTED_EDGE('',*,*,#1136,.F.);
#1136 = EDGE_CURVE('',#1098,#1129,#1137,.T.);
#1137 = LINE('',#1138,#1139);
#1138 = CARTESIAN_POINT('',(131.,-47.8,14.4));
#1139 = VECTOR('',#1140,1.);
#1140 = DIRECTION('',(0.780868809443,-0.624695047554,0.));
#1141 = PLANE('',#1142);
#1142 = AXIS2_PLACEMENT_3D('',#1143,#1144,#1145);
#1143 = CARTESIAN_POINT('',(131.,-47.8,14.4));
#1144 = DIRECTION('',(0.624695047554,0.780868809443,0.));
#1145 = DIRECTION('',(0.780868809443,-0.624695047554,0.));
#1146 = ADVANCED_FACE('',(#1147),#1172,.F.);
#1147 = FACE_BOUND('',#1148,.F.);
#1148 = EDGE_LOOP('',(#1149,#1150,#1158,#1166));
#1149 = ORIENTED_EDGE('',*,*,#1128,.T.);
#1150 = ORIENTED_EDGE('',*,*,#1151,.T.);
#1151 = EDGE_CURVE('',#1121,#1152,#1154,.T.);
#1152 = VERTEX_POINT('',#1153);
#1153 = CARTESIAN_POINT('',(134.,-47.7,14.8));
#1154 = LINE('',#1155,#1156);
#1155 = CARTESIAN_POINT('',(133.,-49.4,14.8));
#1156 = VECTOR('',#1157,1.);
#1157 = DIRECTION('',(0.507020126563,0.861934215158,0.));
#1158 = ORIENTED_EDGE('',*,*,#1159,.F.);
#1159 = EDGE_CURVE('',#1160,#1152,#1162,.T.);
#1160 = VERTEX_POINT('',#1161);
#1161 = CARTESIAN_POINT('',(134.,-47.7,14.4));
#1162 = LINE('',#1163,#1164);
#1163 = CARTESIAN_POINT('',(134.,-47.7,14.4));
#1164 = VECTOR('',#1165,1.);
#1165 = DIRECTION('',(0.,0.,1.));
#1166 = ORIENTED_EDGE('',*,*,#1167,.F.);
#1167 = EDGE_CURVE('',#1129,#1160,#1168,.T.);
#1168 = LINE('',#1169,#1170);
#1169 = CARTESIAN_POINT('',(133.,-49.4,14.4));
#1170 = VECTOR('',#1171,1.);
#1171 = DIRECTION('',(0.507020126563,0.861934215158,0.));
#1172 = PLANE('',#1173);
#1173 = AXIS2_PLACEMENT_3D('',#1174,#1175,#1176);
#1174 = CARTESIAN_POINT('',(133.,-49.4,14.4));
#1175 = DIRECTION('',(-0.861934215158,0.507020126563,0.));
#1176 = DIRECTION('',(0.507020126563,0.861934215158,0.));
#1177 = ADVANCED_FACE('',(#1178),#1194,.F.);
#1178 = FACE_BOUND('',#1179,.F.);
#1179 = EDGE_LOOP('',(#1180,#1181,#1187,#1188));
#1180 = ORIENTED_EDGE('',*,*,#1159,.T.);
#1181 = ORIENTED_EDGE('',*,*,#1182,.T.);
#1182 = EDGE_CURVE('',#1152,#1020,#1183,.T.);
#1183 = LINE('',#1184,#1185);
#1184 = CARTESIAN_POINT('',(134.,-47.7,14.8));
#1185 = VECTOR('',#1186,1.);
#1186 = DIRECTION('',(0.,1.,0.));
#1187 = ORIENTED_EDGE('',*,*,#1017,.F.);
#1188 = ORIENTED_EDGE('',*,*,#1189,.F.);
#1189 = EDGE_CURVE('',#1160,#1018,#1190,.T.);
#1190 = LINE('',#1191,#1192);
#1191 = CARTESIAN_POINT('',(134.,-47.7,14.4));
#1192 = VECTOR('',#1193,1.);
#1193 = DIRECTION('',(0.,1.,0.));
#1194 = PLANE('',#1195);
#1195 = AXIS2_PLACEMENT_3D('',#1196,#1197,#1198);
#1196 = CARTESIAN_POINT('',(134.,-47.7,14.4));
#1197 = DIRECTION('',(-1.,0.,0.));
#1198 = DIRECTION('',(0.,1.,0.));
#1199 = ADVANCED_FACE('',(#1200),#1208,.T.);
#1200 = FACE_BOUND('',#1201,.T.);
#1201 = EDGE_LOOP('',(#1202,#1203,#1204,#1205,#1206,#1207));
#1202 = ORIENTED_EDGE('',*,*,#1027,.T.);
#1203 = ORIENTED_EDGE('',*,*,#1058,.T.);
#1204 = ORIENTED_EDGE('',*,*,#1089,.T.);
#1205 = ORIENTED_EDGE('',*,*,#1120,.T.);
#1206 = ORIENTED_EDGE('',*,*,#1151,.T.);
#1207 = ORIENTED_EDGE('',*,*,#1182,.T.);
#1208 = PLANE('',#1209);
#1209 = AXIS2_PLACEMENT_3D('',#1210,#1211,#1212);
#1210 = CARTESIAN_POINT('',(132.53985649124,-41.17480160139,14.8));
#1211 = DIRECTION('',(0.,0.,1.));
#1212 = DIRECTION('',(1.,0.,0.));
#1213 = ADVANCED_FACE('',(#1214),#1222,.T.);
#1214 = FACE_BOUND('',#1215,.T.);
#1215 = EDGE_LOOP('',(#1216,#1217,#1218,#1219,#1220,#1221));
#1216 = ORIENTED_EDGE('',*,*,#1189,.F.);
#1217 = ORIENTED_EDGE('',*,*,#1167,.F.);
#1218 = ORIENTED_EDGE('',*,*,#1136,.F.);
#1219 = ORIENTED_EDGE('',*,*,#1105,.F.);
#1220 = ORIENTED_EDGE('',*,*,#1074,.F.);
#1221 = ORIENTED_EDGE('',*,*,#1043,.F.);
#1222 = PLANE('',#1223);
#1223 = AXIS2_PLACEMENT_3D('',#1224,#1225,#1226);
#1224 = CARTESIAN_POINT('',(132.53985649124,-41.17480160139,14.4));
#1225 = DIRECTION('',(-0.,-0.,-1.));
#1226 = DIRECTION('',(-1.,0.,0.));
#1227 = MANIFOLD_SOLID_BREP('',#1228);
#1228 = CLOSED_SHELL('',(#1229,#1269,#1300,#1331,#1362,#1393,#1415,#1429
    ));
#1229 = ADVANCED_FACE('',(#1230),#1264,.T.);
#1230 = FACE_BOUND('',#1231,.T.);
#1231 = EDGE_LOOP('',(#1232,#1242,#1250,#1258));
#1232 = ORIENTED_EDGE('',*,*,#1233,.T.);
#1233 = EDGE_CURVE('',#1234,#1236,#1238,.T.);
#1234 = VERTEX_POINT('',#1235);
#1235 = CARTESIAN_POINT('',(112.2,-58.,14.4));
#1236 = VERTEX_POINT('',#1237);
#1237 = CARTESIAN_POINT('',(112.2,-58.,14.8));
#1238 = LINE('',#1239,#1240);
#1239 = CARTESIAN_POINT('',(112.2,-58.,14.4));
#1240 = VECTOR('',#1241,1.);
#1241 = DIRECTION('',(0.,0.,1.));
#1242 = ORIENTED_EDGE('',*,*,#1243,.T.);
#1243 = EDGE_CURVE('',#1236,#1244,#1246,.T.);
#1244 = VERTEX_POINT('',#1245);
#1245 = CARTESIAN_POINT('',(117.2,-58.,14.8));
#1246 = LINE('',#1247,#1248);
#1247 = CARTESIAN_POINT('',(112.2,-58.,14.8));
#1248 = VECTOR('',#1249,1.);
#1249 = DIRECTION('',(1.,0.,0.));
#1250 = ORIENTED_EDGE('',*,*,#1251,.F.);
#1251 = EDGE_CURVE('',#1252,#1244,#1254,.T.);
#1252 = VERTEX_POINT('',#1253);
#1253 = CARTESIAN_POINT('',(117.2,-58.,14.4));
#1254 = LINE('',#1255,#1256);
#1255 = CARTESIAN_POINT('',(117.2,-58.,14.4));
#1256 = VECTOR('',#1257,1.);
#1257 = DIRECTION('',(0.,0.,1.));
#1258 = ORIENTED_EDGE('',*,*,#1259,.F.);
#1259 = EDGE_CURVE('',#1234,#1252,#1260,.T.);
#1260 = LINE('',#1261,#1262);
#1261 = CARTESIAN_POINT('',(112.2,-58.,14.4));
#1262 = VECTOR('',#1263,1.);
#1263 = DIRECTION('',(1.,0.,0.));
#1264 = PLANE('',#1265);
#1265 = AXIS2_PLACEMENT_3D('',#1266,#1267,#1268);
#1266 = CARTESIAN_POINT('',(112.2,-58.,14.4));
#1267 = DIRECTION('',(0.,1.,0.));
#1268 = DIRECTION('',(1.,0.,0.));
#1269 = ADVANCED_FACE('',(#1270),#1295,.T.);
#1270 = FACE_BOUND('',#1271,.T.);
#1271 = EDGE_LOOP('',(#1272,#1273,#1281,#1289));
#1272 = ORIENTED_EDGE('',*,*,#1251,.T.);
#1273 = ORIENTED_EDGE('',*,*,#1274,.T.);
#1274 = EDGE_CURVE('',#1244,#1275,#1277,.T.);
#1275 = VERTEX_POINT('',#1276);
#1276 = CARTESIAN_POINT('',(120.,-61.,14.8));
#1277 = LINE('',#1278,#1279);
#1278 = CARTESIAN_POINT('',(117.2,-58.,14.8));
#1279 = VECTOR('',#1280,1.);
#1280 = DIRECTION('',(0.68231825036,-0.731055268243,0.));
#1281 = ORIENTED_EDGE('',*,*,#1282,.F.);
#1282 = EDGE_CURVE('',#1283,#1275,#1285,.T.);
#1283 = VERTEX_POINT('',#1284);
#1284 = CARTESIAN_POINT('',(120.,-61.,14.4));
#1285 = LINE('',#1286,#1287);
#1286 = CARTESIAN_POINT('',(120.,-61.,14.4));
#1287 = VECTOR('',#1288,1.);
#1288 = DIRECTION('',(0.,0.,1.));
#1289 = ORIENTED_EDGE('',*,*,#1290,.F.);
#1290 = EDGE_CURVE('',#1252,#1283,#1291,.T.);
#1291 = LINE('',#1292,#1293);
#1292 = CARTESIAN_POINT('',(117.2,-58.,14.4));
#1293 = VECTOR('',#1294,1.);
#1294 = DIRECTION('',(0.68231825036,-0.731055268243,0.));
#1295 = PLANE('',#1296);
#1296 = AXIS2_PLACEMENT_3D('',#1297,#1298,#1299);
#1297 = CARTESIAN_POINT('',(117.2,-58.,14.4));
#1298 = DIRECTION('',(0.731055268243,0.68231825036,0.));
#1299 = DIRECTION('',(0.68231825036,-0.731055268243,0.));
#1300 = ADVANCED_FACE('',(#1301),#1326,.T.);
#1301 = FACE_BOUND('',#1302,.T.);
#1302 = EDGE_LOOP('',(#1303,#1304,#1312,#1320));
#1303 = ORIENTED_EDGE('',*,*,#1282,.T.);
#1304 = ORIENTED_EDGE('',*,*,#1305,.T.);
#1305 = EDGE_CURVE('',#1275,#1306,#1308,.T.);
#1306 = VERTEX_POINT('',#1307);
#1307 = CARTESIAN_POINT('',(120.,-65.3,14.8));
#1308 = LINE('',#1309,#1310);
#1309 = CARTESIAN_POINT('',(120.,-61.,14.8));
#1310 = VECTOR('',#1311,1.);
#1311 = DIRECTION('',(0.,-1.,0.));
#1312 = ORIENTED_EDGE('',*,*,#1313,.F.);
#1313 = EDGE_CURVE('',#1314,#1306,#1316,.T.);
#1314 = VERTEX_POINT('',#1315);
#1315 = CARTESIAN_POINT('',(120.,-65.3,14.4));
#1316 = LINE('',#1317,#1318);
#1317 = CARTESIAN_POINT('',(120.,-65.3,14.4));
#1318 = VECTOR('',#1319,1.);
#1319 = DIRECTION('',(0.,0.,1.));
#1320 = ORIENTED_EDGE('',*,*,#1321,.F.);
#1321 = EDGE_CURVE('',#1283,#1314,#1322,.T.);
#1322 = LINE('',#1323,#1324);
#1323 = CARTESIAN_POINT('',(120.,-61.,14.4));
#1324 = VECTOR('',#1325,1.);
#1325 = DIRECTION('',(0.,-1.,0.));
#1326 = PLANE('',#1327);
#1327 = AXIS2_PLACEMENT_3D('',#1328,#1329,#1330);
#1328 = CARTESIAN_POINT('',(120.,-61.,14.4));
#1329 = DIRECTION('',(1.,0.,0.));
#1330 = DIRECTION('',(0.,-1.,0.));
#1331 = ADVANCED_FACE('',(#1332),#1357,.T.);
#1332 = FACE_BOUND('',#1333,.T.);
#1333 = EDGE_LOOP('',(#1334,#1335,#1343,#1351));
#1334 = ORIENTED_EDGE('',*,*,#1313,.T.);
#1335 = ORIENTED_EDGE('',*,*,#1336,.T.);
#1336 = EDGE_CURVE('',#1306,#1337,#1339,.T.);
#1337 = VERTEX_POINT('',#1338);
#1338 = CARTESIAN_POINT('',(113.8,-65.3,14.8));
#1339 = LINE('',#1340,#1341);
#1340 = CARTESIAN_POINT('',(120.,-65.3,14.8));
#1341 = VECTOR('',#1342,1.);
#1342 = DIRECTION('',(-1.,0.,0.));
#1343 = ORIENTED_EDGE('',*,*,#1344,.F.);
#1344 = EDGE_CURVE('',#1345,#1337,#1347,.T.);
#1345 = VERTEX_POINT('',#1346);
#1346 = CARTESIAN_POINT('',(113.8,-65.3,14.4));
#1347 = LINE('',#1348,#1349);
#1348 = CARTESIAN_POINT('',(113.8,-65.3,14.4));
#1349 = VECTOR('',#1350,1.);
#1350 = DIRECTION('',(0.,0.,1.));
#1351 = ORIENTED_EDGE('',*,*,#1352,.F.);
#1352 = EDGE_CURVE('',#1314,#1345,#1353,.T.);
#1353 = LINE('',#1354,#1355);
#1354 = CARTESIAN_POINT('',(120.,-65.3,14.4));
#1355 = VECTOR('',#1356,1.);
#1356 = DIRECTION('',(-1.,0.,0.));
#1357 = PLANE('',#1358);
#1358 = AXIS2_PLACEMENT_3D('',#1359,#1360,#1361);
#1359 = CARTESIAN_POINT('',(120.,-65.3,14.4));
#1360 = DIRECTION('',(0.,-1.,0.));
#1361 = DIRECTION('',(-1.,0.,0.));
#1362 = ADVANCED_FACE('',(#1363),#1388,.T.);
#1363 = FACE_BOUND('',#1364,.T.);
#1364 = EDGE_LOOP('',(#1365,#1366,#1374,#1382));
#1365 = ORIENTED_EDGE('',*,*,#1344,.T.);
#1366 = ORIENTED_EDGE('',*,*,#1367,.T.);
#1367 = EDGE_CURVE('',#1337,#1368,#1370,.T.);
#1368 = VERTEX_POINT('',#1369);
#1369 = CARTESIAN_POINT('',(112.2,-63.8,14.8));
#1370 = LINE('',#1371,#1372);
#1371 = CARTESIAN_POINT('',(113.8,-65.3,14.8));
#1372 = VECTOR('',#1373,1.);
#1373 = DIRECTION('',(-0.72953720414,0.683941128881,0.));
#1374 = ORIENTED_EDGE('',*,*,#1375,.F.);
#1375 = EDGE_CURVE('',#1376,#1368,#1378,.T.);
#1376 = VERTEX_POINT('',#1377);
#1377 = CARTESIAN_POINT('',(112.2,-63.8,14.4));
#1378 = LINE('',#1379,#1380);
#1379 = CARTESIAN_POINT('',(112.2,-63.8,14.4));
#1380 = VECTOR('',#1381,1.);
#1381 = DIRECTION('',(0.,0.,1.));
#1382 = ORIENTED_EDGE('',*,*,#1383,.F.);
#1383 = EDGE_CURVE('',#1345,#1376,#1384,.T.);
#1384 = LINE('',#1385,#1386);
#1385 = CARTESIAN_POINT('',(113.8,-65.3,14.4));
#1386 = VECTOR('',#1387,1.);
#1387 = DIRECTION('',(-0.72953720414,0.683941128881,0.));
#1388 = PLANE('',#1389);
#1389 = AXIS2_PLACEMENT_3D('',#1390,#1391,#1392);
#1390 = CARTESIAN_POINT('',(113.8,-65.3,14.4));
#1391 = DIRECTION('',(-0.683941128881,-0.72953720414,0.));
#1392 = DIRECTION('',(-0.72953720414,0.683941128881,0.));
#1393 = ADVANCED_FACE('',(#1394),#1410,.T.);
#1394 = FACE_BOUND('',#1395,.T.);
#1395 = EDGE_LOOP('',(#1396,#1397,#1403,#1404));
#1396 = ORIENTED_EDGE('',*,*,#1375,.T.);
#1397 = ORIENTED_EDGE('',*,*,#1398,.T.);
#1398 = EDGE_CURVE('',#1368,#1236,#1399,.T.);
#1399 = LINE('',#1400,#1401);
#1400 = CARTESIAN_POINT('',(112.2,-63.8,14.8));
#1401 = VECTOR('',#1402,1.);
#1402 = DIRECTION('',(0.,1.,0.));
#1403 = ORIENTED_EDGE('',*,*,#1233,.F.);
#1404 = ORIENTED_EDGE('',*,*,#1405,.F.);
#1405 = EDGE_CURVE('',#1376,#1234,#1406,.T.);
#1406 = LINE('',#1407,#1408);
#1407 = CARTESIAN_POINT('',(112.2,-63.8,14.4));
#1408 = VECTOR('',#1409,1.);
#1409 = DIRECTION('',(0.,1.,0.));
#1410 = PLANE('',#1411);
#1411 = AXIS2_PLACEMENT_3D('',#1412,#1413,#1414);
#1412 = CARTESIAN_POINT('',(112.2,-63.8,14.4));
#1413 = DIRECTION('',(-1.,0.,0.));
#1414 = DIRECTION('',(0.,1.,0.));
#1415 = ADVANCED_FACE('',(#1416),#1424,.F.);
#1416 = FACE_BOUND('',#1417,.T.);
#1417 = EDGE_LOOP('',(#1418,#1419,#1420,#1421,#1422,#1423));
#1418 = ORIENTED_EDGE('',*,*,#1259,.T.);
#1419 = ORIENTED_EDGE('',*,*,#1290,.T.);
#1420 = ORIENTED_EDGE('',*,*,#1321,.T.);
#1421 = ORIENTED_EDGE('',*,*,#1352,.T.);
#1422 = ORIENTED_EDGE('',*,*,#1383,.T.);
#1423 = ORIENTED_EDGE('',*,*,#1405,.T.);
#1424 = PLANE('',#1425);
#1425 = AXIS2_PLACEMENT_3D('',#1426,#1427,#1428);
#1426 = CARTESIAN_POINT('',(115.93948559242,-61.79557231621,14.4));
#1427 = DIRECTION('',(0.,0.,1.));
#1428 = DIRECTION('',(1.,0.,0.));
#1429 = ADVANCED_FACE('',(#1430),#1438,.T.);
#1430 = FACE_BOUND('',#1431,.F.);
#1431 = EDGE_LOOP('',(#1432,#1433,#1434,#1435,#1436,#1437));
#1432 = ORIENTED_EDGE('',*,*,#1243,.T.);
#1433 = ORIENTED_EDGE('',*,*,#1274,.T.);
#1434 = ORIENTED_EDGE('',*,*,#1305,.T.);
#1435 = ORIENTED_EDGE('',*,*,#1336,.T.);
#1436 = ORIENTED_EDGE('',*,*,#1367,.T.);
#1437 = ORIENTED_EDGE('',*,*,#1398,.T.);
#1438 = PLANE('',#1439);
#1439 = AXIS2_PLACEMENT_3D('',#1440,#1441,#1442);
#1440 = CARTESIAN_POINT('',(115.93948559242,-61.79557231621,14.8));
#1441 = DIRECTION('',(0.,0.,1.));
#1442 = DIRECTION('',(1.,0.,0.));
#1443 = ( GEOMETRIC_REPRESENTATION_CONTEXT(3) 
GLOBAL_UNCERTAINTY_ASSIGNED_CONTEXT((#1447)) 
GLOBAL_UNIT_ASSIGNED_CONTEXT((#1444,#1445,#1446)) REPRESENTATION_CONTEXT
('Context #1','3D Context with UNIT and UNCERTAINTY') );
#1444 = ( LENGTH_UNIT() NAMED_UNIT(*) SI_UNIT(.MILLI.,.METRE.) );
#1445 = ( NAMED_UNIT(*) PLANE_ANGLE_UNIT() SI_UNIT($,.RADIAN.) );
#1446 = ( NAMED_UNIT(*) SI_UNIT($,.STERADIAN.) SOLID_ANGLE_UNIT() );
#1447 = UNCERTAINTY_MEASURE_WITH_UNIT(LENGTH_MEASURE(1.E-06),#1444,
  'distance_accuracy_value','confusion accuracy');
#1448 = PRODUCT_RELATED_PRODUCT_CATEGORY('part',$,(#7));
ENDSEC;
END-ISO-10303-21;
