ISO-10303-21;
HEADER;
FILE_DESCRIPTION(('FreeCAD Model'),'2;1');
FILE_NAME('Open CASCADE Shape Model','2026-09-28T20:40:00',('FreeCAD'),(
    'FreeCAD'),'Open CASCADE STEP processor 7.8','FreeCAD','Unknown');
FILE_SCHEMA(('AUTOMOTIVE_DESIGN { 1 0 10303 214 1 1 1 1 }'));
ENDSEC;
DATA;
#1 = APPLICATION_PROTOCOL_DEFINITION('international standard',
  'automotive_design',2000,#2);
#2 = APPLICATION_CONTEXT(
  'core data for automotive mechanical design processes');
#3 = SHAPE_DEFINITION_REPRESENTATION(#4,#10);
#4 = PRODUCT_DEFINITION_SHAPE('','',#5);
#5 = PRODUCT_DEFINITION('design','',#6,#9);
#6 = PRODUCT_DEFINITION_FORMATION('','',#7);
#7 = PRODUCT('Open CASCADE STEP translator 7.8 122',
  'Open CASCADE STEP translator 7.8 122','',(#8));
#8 = PRODUCT_CONTEXT('',#2,'mechanical');
#9 = PRODUCT_DEFINITION_CONTEXT('part definition',#2,'design');
#10 = SHAPE_REPRESENTATION('',(#11,#15,#739),#1153);
#11 = AXIS2_PLACEMENT_3D('',#12,#13,#14);
#12 = CARTESIAN_POINT('',(0.,0.,0.));
#13 = DIRECTION('',(0.,0.,1.));
#14 = DIRECTION('',(1.,0.,-0.));
#15 = MANIFOLD_SOLID_BREP('',#16);
#16 = CLOSED_SHELL('',(#17,#57,#90,#121,#252,#283,#314,#345,#369,#393,
    #424,#455,#477,#510,#541,#637,#663,#679,#694,#709,#724));
#17 = ADVANCED_FACE('',(#18),#52,.F.);
#18 = FACE_BOUND('',#19,.F.);
#19 = EDGE_LOOP('',(#20,#30,#38,#46));
#20 = ORIENTED_EDGE('',*,*,#21,.T.);
#21 = EDGE_CURVE('',#22,#24,#26,.T.);
#22 = VERTEX_POINT('',#23);
#23 = CARTESIAN_POINT('',(46.65,-49.45,13.19));
#24 = VERTEX_POINT('',#25);
#25 = CARTESIAN_POINT('',(46.65,-49.45,13.59));
#26 = LINE('',#27,#28);
#27 = CARTESIAN_POINT('',(46.65,-49.45,13.19));
#28 = VECTOR('',#29,1.);
#29 = DIRECTION('',(0.,0.,1.));
#30 = ORIENTED_EDGE('',*,*,#31,.T.);
#31 = EDGE_CURVE('',#24,#32,#34,.T.);
#32 = VERTEX_POINT('',#33);
#33 = CARTESIAN_POINT('',(46.65,-18.35,13.59));
#34 = LINE('',#35,#36);
#35 = CARTESIAN_POINT('',(46.65,-49.45,13.59));
#36 = VECTOR('',#37,1.);
#37 = DIRECTION('',(0.,1.,0.));
#38 = ORIENTED_EDGE('',*,*,#39,.F.);
#39 = EDGE_CURVE('',#40,#32,#42,.T.);
#40 = VERTEX_POINT('',#41);
#41 = CARTESIAN_POINT('',(46.65,-18.35,13.19));
#42 = LINE('',#43,#44);
#43 = CARTESIAN_POINT('',(46.65,-18.35,13.19));
#44 = VECTOR('',#45,1.);
#45 = DIRECTION('',(0.,0.,1.));
#46 = ORIENTED_EDGE('',*,*,#47,.F.);
#47 = EDGE_CURVE('',#22,#40,#48,.T.);
#48 = LINE('',#49,#50);
#49 = CARTESIAN_POINT('',(46.65,-49.45,13.19));
#50 = VECTOR('',#51,1.);
#51 = DIRECTION('',(0.,1.,0.));
#52 = PLANE('',#53);
#53 = AXIS2_PLACEMENT_3D('',#54,#55,#56);
#54 = CARTESIAN_POINT('',(46.65,-49.45,13.19));
#55 = DIRECTION('',(-1.,0.,0.));
#56 = DIRECTION('',(0.,1.,0.));
#57 = ADVANCED_FACE('',(#58),#85,.F.);
#58 = FACE_BOUND('',#59,.F.);
#59 = EDGE_LOOP('',(#60,#69,#77,#84));
#60 = ORIENTED_EDGE('',*,*,#61,.T.);
#61 = EDGE_CURVE('',#40,#62,#64,.T.);
#62 = VERTEX_POINT('',#63);
#63 = CARTESIAN_POINT('',(44.95,-16.05435194335,13.19));
#64 = CIRCLE('',#65,2.4);
#65 = AXIS2_PLACEMENT_3D('',#66,#67,#68);
#66 = CARTESIAN_POINT('',(44.25,-18.35,13.19));
#67 = DIRECTION('',(0.,-0.,1.));
#68 = DIRECTION('',(1.,2.96E-15,0.));
#69 = ORIENTED_EDGE('',*,*,#70,.F.);
#70 = EDGE_CURVE('',#71,#62,#73,.T.);
#71 = VERTEX_POINT('',#72);
#72 = CARTESIAN_POINT('',(44.95,-51.74564805665,13.19));
#73 = LINE('',#74,#75);
#74 = CARTESIAN_POINT('',(44.95,-53.,13.19));
#75 = VECTOR('',#76,1.);
#76 = DIRECTION('',(0.,1.,0.));
#77 = ORIENTED_EDGE('',*,*,#78,.T.);
#78 = EDGE_CURVE('',#71,#22,#79,.T.);
#79 = CIRCLE('',#80,2.4);
#80 = AXIS2_PLACEMENT_3D('',#81,#82,#83);
#81 = CARTESIAN_POINT('',(44.25,-49.45,13.19));
#82 = DIRECTION('',(-0.,0.,1.));
#83 = DIRECTION('',(5.92E-15,-1.,0.));
#84 = ORIENTED_EDGE('',*,*,#47,.T.);
#85 = PLANE('',#86);
#86 = AXIS2_PLACEMENT_3D('',#87,#88,#89);
#87 = CARTESIAN_POINT('',(37.,-33.9,13.19));
#88 = DIRECTION('',(0.,0.,1.));
#89 = DIRECTION('',(1.,0.,0.));
#90 = ADVANCED_FACE('',(#91),#116,.F.);
#91 = FACE_BOUND('',#92,.F.);
#92 = EDGE_LOOP('',(#93,#103,#109,#110));
#93 = ORIENTED_EDGE('',*,*,#94,.F.);
#94 = EDGE_CURVE('',#95,#97,#99,.T.);
#95 = VERTEX_POINT('',#96);
#96 = CARTESIAN_POINT('',(44.95,-51.74564805665,12.725));
#97 = VERTEX_POINT('',#98);
#98 = CARTESIAN_POINT('',(44.95,-16.05435194335,12.725));
#99 = LINE('',#100,#101);
#100 = CARTESIAN_POINT('',(44.95,-53.,12.725));
#101 = VECTOR('',#102,1.);
#102 = DIRECTION('',(0.,1.,0.));
#103 = ORIENTED_EDGE('',*,*,#104,.T.);
#104 = EDGE_CURVE('',#95,#71,#105,.T.);
#105 = LINE('',#106,#107);
#106 = CARTESIAN_POINT('',(44.95,-51.74564805665,12.725));
#107 = VECTOR('',#108,1.);
#108 = DIRECTION('',(0.,0.,1.));
#109 = ORIENTED_EDGE('',*,*,#70,.T.);
#110 = ORIENTED_EDGE('',*,*,#111,.F.);
#111 = EDGE_CURVE('',#97,#62,#112,.T.);
#112 = LINE('',#113,#114);
#113 = CARTESIAN_POINT('',(44.95,-16.05435194335,12.725));
#114 = VECTOR('',#115,1.);
#115 = DIRECTION('',(0.,0.,1.));
#116 = PLANE('',#117);
#117 = AXIS2_PLACEMENT_3D('',#118,#119,#120);
#118 = CARTESIAN_POINT('',(44.95,-51.74564805665,12.725));
#119 = DIRECTION('',(-1.,0.,0.));
#120 = DIRECTION('',(0.,1.,0.));
#121 = ADVANCED_FACE('',(#122),#247,.F.);
#122 = FACE_BOUND('',#123,.F.);
#123 = EDGE_LOOP('',(#124,#133,#141,#150,#158,#167,#175,#183,#191,#199,
    #207,#215,#223,#231,#239,#246));
#124 = ORIENTED_EDGE('',*,*,#125,.T.);
#125 = EDGE_CURVE('',#97,#126,#128,.T.);
#126 = VERTEX_POINT('',#127);
#127 = CARTESIAN_POINT('',(44.25,-15.95,12.725));
#128 = CIRCLE('',#129,2.4);
#129 = AXIS2_PLACEMENT_3D('',#130,#131,#132);
#130 = CARTESIAN_POINT('',(44.25,-18.35,12.725));
#131 = DIRECTION('',(0.,-0.,1.));
#132 = DIRECTION('',(1.,2.96E-15,0.));
#133 = ORIENTED_EDGE('',*,*,#134,.T.);
#134 = EDGE_CURVE('',#126,#135,#137,.T.);
#135 = VERTEX_POINT('',#136);
#136 = CARTESIAN_POINT('',(29.75,-15.95,12.725));
#137 = LINE('',#138,#139);
#138 = CARTESIAN_POINT('',(44.25,-15.95,12.725));
#139 = VECTOR('',#140,1.);
#140 = DIRECTION('',(-1.,0.,0.));
#141 = ORIENTED_EDGE('',*,*,#142,.T.);
#142 = EDGE_CURVE('',#135,#143,#145,.T.);
#143 = VERTEX_POINT('',#144);
#144 = CARTESIAN_POINT('',(29.05,-16.05435194335,12.725));
#145 = CIRCLE('',#146,2.4);
#146 = AXIS2_PLACEMENT_3D('',#147,#148,#149);
#147 = CARTESIAN_POINT('',(29.75,-18.35,12.725));
#148 = DIRECTION('',(0.,-0.,1.));
#149 = DIRECTION('',(0.,1.,0.));
#150 = ORIENTED_EDGE('',*,*,#151,.T.);
#151 = EDGE_CURVE('',#143,#152,#154,.T.);
#152 = VERTEX_POINT('',#153);
#153 = CARTESIAN_POINT('',(29.05,-51.74564805665,12.725));
#154 = LINE('',#155,#156);
#155 = CARTESIAN_POINT('',(29.05,-15.1,12.725));
#156 = VECTOR('',#157,1.);
#157 = DIRECTION('',(0.,-1.,0.));
#158 = ORIENTED_EDGE('',*,*,#159,.T.);
#159 = EDGE_CURVE('',#152,#160,#162,.T.);
#160 = VERTEX_POINT('',#161);
#161 = CARTESIAN_POINT('',(29.75,-51.85,12.725));
#162 = CIRCLE('',#163,2.4);
#163 = AXIS2_PLACEMENT_3D('',#164,#165,#166);
#164 = CARTESIAN_POINT('',(29.75,-49.45,12.725));
#165 = DIRECTION('',(0.,0.,1.));
#166 = DIRECTION('',(-1.,0.,0.));
#167 = ORIENTED_EDGE('',*,*,#168,.T.);
#168 = EDGE_CURVE('',#160,#169,#171,.T.);
#169 = VERTEX_POINT('',#170);
#170 = CARTESIAN_POINT('',(30.15,-51.85,12.725));
#171 = LINE('',#172,#173);
#172 = CARTESIAN_POINT('',(29.75,-51.85,12.725));
#173 = VECTOR('',#174,1.);
#174 = DIRECTION('',(1.,0.,0.));
#175 = ORIENTED_EDGE('',*,*,#176,.F.);
#176 = EDGE_CURVE('',#177,#169,#179,.T.);
#177 = VERTEX_POINT('',#178);
#178 = CARTESIAN_POINT('',(30.15,-49.45,12.725));
#179 = LINE('',#180,#181);
#180 = CARTESIAN_POINT('',(30.15,-49.1,12.725));
#181 = VECTOR('',#182,1.);
#182 = DIRECTION('',(0.,-1.,0.));
#183 = ORIENTED_EDGE('',*,*,#184,.F.);
#184 = EDGE_CURVE('',#185,#177,#187,.T.);
#185 = VERTEX_POINT('',#186);
#186 = CARTESIAN_POINT('',(29.75,-49.45,12.725));
#187 = LINE('',#188,#189);
#188 = CARTESIAN_POINT('',(29.75,-49.45,12.725));
#189 = VECTOR('',#190,1.);
#190 = DIRECTION('',(1.,0.,0.));
#191 = ORIENTED_EDGE('',*,*,#192,.F.);
#192 = EDGE_CURVE('',#193,#185,#195,.T.);
#193 = VERTEX_POINT('',#194);
#194 = CARTESIAN_POINT('',(29.75,-18.35,12.725));
#195 = LINE('',#196,#197);
#196 = CARTESIAN_POINT('',(29.75,-18.35,12.725));
#197 = VECTOR('',#198,1.);
#198 = DIRECTION('',(0.,-1.,0.));
#199 = ORIENTED_EDGE('',*,*,#200,.F.);
#200 = EDGE_CURVE('',#201,#193,#203,.T.);
#201 = VERTEX_POINT('',#202);
#202 = CARTESIAN_POINT('',(44.25,-18.35,12.725));
#203 = LINE('',#204,#205);
#204 = CARTESIAN_POINT('',(44.25,-18.35,12.725));
#205 = VECTOR('',#206,1.);
#206 = DIRECTION('',(-1.,0.,0.));
#207 = ORIENTED_EDGE('',*,*,#208,.F.);
#208 = EDGE_CURVE('',#209,#201,#211,.T.);
#209 = VERTEX_POINT('',#210);
#210 = CARTESIAN_POINT('',(44.25,-49.45,12.725));
#211 = LINE('',#212,#213);
#212 = CARTESIAN_POINT('',(44.25,-49.45,12.725));
#213 = VECTOR('',#214,1.);
#214 = DIRECTION('',(0.,1.,0.));
#215 = ORIENTED_EDGE('',*,*,#216,.F.);
#216 = EDGE_CURVE('',#217,#209,#219,.T.);
#217 = VERTEX_POINT('',#218);
#218 = CARTESIAN_POINT('',(43.85,-49.45,12.725));
#219 = LINE('',#220,#221);
#220 = CARTESIAN_POINT('',(29.75,-49.45,12.725));
#221 = VECTOR('',#222,1.);
#222 = DIRECTION('',(1.,0.,0.));
#223 = ORIENTED_EDGE('',*,*,#224,.F.);
#224 = EDGE_CURVE('',#225,#217,#227,.T.);
#225 = VERTEX_POINT('',#226);
#226 = CARTESIAN_POINT('',(43.85,-51.85,12.725));
#227 = LINE('',#228,#229);
#228 = CARTESIAN_POINT('',(43.85,-52.6,12.725));
#229 = VECTOR('',#230,1.);
#230 = DIRECTION('',(0.,1.,0.));
#231 = ORIENTED_EDGE('',*,*,#232,.T.);
#232 = EDGE_CURVE('',#225,#233,#235,.T.);
#233 = VERTEX_POINT('',#234);
#234 = CARTESIAN_POINT('',(44.25,-51.85,12.725));
#235 = LINE('',#236,#237);
#236 = CARTESIAN_POINT('',(29.75,-51.85,12.725));
#237 = VECTOR('',#238,1.);
#238 = DIRECTION('',(1.,0.,0.));
#239 = ORIENTED_EDGE('',*,*,#240,.T.);
#240 = EDGE_CURVE('',#233,#95,#241,.T.);
#241 = CIRCLE('',#242,2.4);
#242 = AXIS2_PLACEMENT_3D('',#243,#244,#245);
#243 = CARTESIAN_POINT('',(44.25,-49.45,12.725));
#244 = DIRECTION('',(-0.,0.,1.));
#245 = DIRECTION('',(5.92E-15,-1.,0.));
#246 = ORIENTED_EDGE('',*,*,#94,.T.);
#247 = PLANE('',#248);
#248 = AXIS2_PLACEMENT_3D('',#249,#250,#251);
#249 = CARTESIAN_POINT('',(37.,-33.9,12.725));
#250 = DIRECTION('',(0.,0.,1.));
#251 = DIRECTION('',(1.,0.,0.));
#252 = ADVANCED_FACE('',(#253),#278,.F.);
#253 = FACE_BOUND('',#254,.F.);
#254 = EDGE_LOOP('',(#255,#263,#271,#277));
#255 = ORIENTED_EDGE('',*,*,#256,.T.);
#256 = EDGE_CURVE('',#126,#257,#259,.T.);
#257 = VERTEX_POINT('',#258);
#258 = CARTESIAN_POINT('',(44.25,-15.95,13.59));
#259 = LINE('',#260,#261);
#260 = CARTESIAN_POINT('',(44.25,-15.95,12.725));
#261 = VECTOR('',#262,1.);
#262 = DIRECTION('',(0.,0.,1.));
#263 = ORIENTED_EDGE('',*,*,#264,.T.);
#264 = EDGE_CURVE('',#257,#265,#267,.T.);
#265 = VERTEX_POINT('',#266);
#266 = CARTESIAN_POINT('',(29.75,-15.95,13.59));
#267 = LINE('',#268,#269);
#268 = CARTESIAN_POINT('',(44.25,-15.95,13.59));
#269 = VECTOR('',#270,1.);
#270 = DIRECTION('',(-1.,0.,0.));
#271 = ORIENTED_EDGE('',*,*,#272,.F.);
#272 = EDGE_CURVE('',#135,#265,#273,.T.);
#273 = LINE('',#274,#275);
#274 = CARTESIAN_POINT('',(29.75,-15.95,12.725));
#275 = VECTOR('',#276,1.);
#276 = DIRECTION('',(0.,0.,1.));
#277 = ORIENTED_EDGE('',*,*,#134,.F.);
#278 = PLANE('',#279);
#279 = AXIS2_PLACEMENT_3D('',#280,#281,#282);
#280 = CARTESIAN_POINT('',(44.25,-15.95,12.725));
#281 = DIRECTION('',(0.,-1.,0.));
#282 = DIRECTION('',(-1.,0.,0.));
#283 = ADVANCED_FACE('',(#284),#309,.T.);
#284 = FACE_BOUND('',#285,.T.);
#285 = EDGE_LOOP('',(#286,#287,#295,#303));
#286 = ORIENTED_EDGE('',*,*,#224,.F.);
#287 = ORIENTED_EDGE('',*,*,#288,.T.);
#288 = EDGE_CURVE('',#225,#289,#291,.T.);
#289 = VERTEX_POINT('',#290);
#290 = CARTESIAN_POINT('',(43.85,-51.85,13.19));
#291 = LINE('',#292,#293);
#292 = CARTESIAN_POINT('',(43.85,-51.85,12.725));
#293 = VECTOR('',#294,1.);
#294 = DIRECTION('',(0.,0.,1.));
#295 = ORIENTED_EDGE('',*,*,#296,.T.);
#296 = EDGE_CURVE('',#289,#297,#299,.T.);
#297 = VERTEX_POINT('',#298);
#298 = CARTESIAN_POINT('',(43.85,-49.45,13.19));
#299 = LINE('',#300,#301);
#300 = CARTESIAN_POINT('',(43.85,-52.6,13.19));
#301 = VECTOR('',#302,1.);
#302 = DIRECTION('',(0.,1.,0.));
#303 = ORIENTED_EDGE('',*,*,#304,.F.);
#304 = EDGE_CURVE('',#217,#297,#305,.T.);
#305 = LINE('',#306,#307);
#306 = CARTESIAN_POINT('',(43.85,-49.45,12.725));
#307 = VECTOR('',#308,1.);
#308 = DIRECTION('',(0.,0.,1.));
#309 = PLANE('',#310);
#310 = AXIS2_PLACEMENT_3D('',#311,#312,#313);
#311 = CARTESIAN_POINT('',(43.85,-51.85,12.725));
#312 = DIRECTION('',(-1.,0.,0.));
#313 = DIRECTION('',(0.,1.,0.));
#314 = ADVANCED_FACE('',(#315),#340,.T.);
#315 = FACE_BOUND('',#316,.T.);
#316 = EDGE_LOOP('',(#317,#325,#333,#339));
#317 = ORIENTED_EDGE('',*,*,#318,.T.);
#318 = EDGE_CURVE('',#209,#319,#321,.T.);
#319 = VERTEX_POINT('',#320);
#320 = CARTESIAN_POINT('',(44.25,-49.45,13.59));
#321 = LINE('',#322,#323);
#322 = CARTESIAN_POINT('',(44.25,-49.45,12.725));
#323 = VECTOR('',#324,1.);
#324 = DIRECTION('',(0.,0.,1.));
#325 = ORIENTED_EDGE('',*,*,#326,.T.);
#326 = EDGE_CURVE('',#319,#327,#329,.T.);
#327 = VERTEX_POINT('',#328);
#328 = CARTESIAN_POINT('',(44.25,-18.35,13.59));
#329 = LINE('',#330,#331);
#330 = CARTESIAN_POINT('',(44.25,-49.45,13.59));
#331 = VECTOR('',#332,1.);
#332 = DIRECTION('',(0.,1.,0.));
#333 = ORIENTED_EDGE('',*,*,#334,.F.);
#334 = EDGE_CURVE('',#201,#327,#335,.T.);
#335 = LINE('',#336,#337);
#336 = CARTESIAN_POINT('',(44.25,-18.35,12.725));
#337 = VECTOR('',#338,1.);
#338 = DIRECTION('',(0.,0.,1.));
#339 = ORIENTED_EDGE('',*,*,#208,.F.);
#340 = PLANE('',#341);
#341 = AXIS2_PLACEMENT_3D('',#342,#343,#344);
#342 = CARTESIAN_POINT('',(44.25,-49.45,12.725));
#343 = DIRECTION('',(-1.,0.,0.));
#344 = DIRECTION('',(0.,1.,0.));
#345 = ADVANCED_FACE('',(#346),#364,.T.);
#346 = FACE_BOUND('',#347,.T.);
#347 = EDGE_LOOP('',(#348,#349,#357,#363));
#348 = ORIENTED_EDGE('',*,*,#334,.T.);
#349 = ORIENTED_EDGE('',*,*,#350,.T.);
#350 = EDGE_CURVE('',#327,#351,#353,.T.);
#351 = VERTEX_POINT('',#352);
#352 = CARTESIAN_POINT('',(29.75,-18.35,13.59));
#353 = LINE('',#354,#355);
#354 = CARTESIAN_POINT('',(44.25,-18.35,13.59));
#355 = VECTOR('',#356,1.);
#356 = DIRECTION('',(-1.,0.,0.));
#357 = ORIENTED_EDGE('',*,*,#358,.F.);
#358 = EDGE_CURVE('',#193,#351,#359,.T.);
#359 = LINE('',#360,#361);
#360 = CARTESIAN_POINT('',(29.75,-18.35,12.725));
#361 = VECTOR('',#362,1.);
#362 = DIRECTION('',(0.,0.,1.));
#363 = ORIENTED_EDGE('',*,*,#200,.F.);
#364 = PLANE('',#365);
#365 = AXIS2_PLACEMENT_3D('',#366,#367,#368);
#366 = CARTESIAN_POINT('',(44.25,-18.35,12.725));
#367 = DIRECTION('',(0.,-1.,0.));
#368 = DIRECTION('',(-1.,0.,0.));
#369 = ADVANCED_FACE('',(#370),#388,.T.);
#370 = FACE_BOUND('',#371,.T.);
#371 = EDGE_LOOP('',(#372,#373,#381,#387));
#372 = ORIENTED_EDGE('',*,*,#358,.T.);
#373 = ORIENTED_EDGE('',*,*,#374,.T.);
#374 = EDGE_CURVE('',#351,#375,#377,.T.);
#375 = VERTEX_POINT('',#376);
#376 = CARTESIAN_POINT('',(29.75,-49.45,13.59));
#377 = LINE('',#378,#379);
#378 = CARTESIAN_POINT('',(29.75,-18.35,13.59));
#379 = VECTOR('',#380,1.);
#380 = DIRECTION('',(0.,-1.,0.));
#381 = ORIENTED_EDGE('',*,*,#382,.F.);
#382 = EDGE_CURVE('',#185,#375,#383,.T.);
#383 = LINE('',#384,#385);
#384 = CARTESIAN_POINT('',(29.75,-49.45,12.725));
#385 = VECTOR('',#386,1.);
#386 = DIRECTION('',(0.,0.,1.));
#387 = ORIENTED_EDGE('',*,*,#192,.F.);
#388 = PLANE('',#389);
#389 = AXIS2_PLACEMENT_3D('',#390,#391,#392);
#390 = CARTESIAN_POINT('',(29.75,-18.35,12.725));
#391 = DIRECTION('',(1.,0.,0.));
#392 = DIRECTION('',(0.,-1.,0.));
#393 = ADVANCED_FACE('',(#394),#419,.T.);
#394 = FACE_BOUND('',#395,.T.);
#395 = EDGE_LOOP('',(#396,#397,#405,#413));
#396 = ORIENTED_EDGE('',*,*,#176,.F.);
#397 = ORIENTED_EDGE('',*,*,#398,.T.);
#398 = EDGE_CURVE('',#177,#399,#401,.T.);
#399 = VERTEX_POINT('',#400);
#400 = CARTESIAN_POINT('',(30.15,-49.45,13.19));
#401 = LINE('',#402,#403);
#402 = CARTESIAN_POINT('',(30.15,-49.45,12.725));
#403 = VECTOR('',#404,1.);
#404 = DIRECTION('',(0.,0.,1.));
#405 = ORIENTED_EDGE('',*,*,#406,.T.);
#406 = EDGE_CURVE('',#399,#407,#409,.T.);
#407 = VERTEX_POINT('',#408);
#408 = CARTESIAN_POINT('',(30.15,-51.85,13.19));
#409 = LINE('',#410,#411);
#410 = CARTESIAN_POINT('',(30.15,-49.1,13.19));
#411 = VECTOR('',#412,1.);
#412 = DIRECTION('',(0.,-1.,0.));
#413 = ORIENTED_EDGE('',*,*,#414,.F.);
#414 = EDGE_CURVE('',#169,#407,#415,.T.);
#415 = LINE('',#416,#417);
#416 = CARTESIAN_POINT('',(30.15,-51.85,12.725));
#417 = VECTOR('',#418,1.);
#418 = DIRECTION('',(0.,0.,1.));
#419 = PLANE('',#420);
#420 = AXIS2_PLACEMENT_3D('',#421,#422,#423);
#421 = CARTESIAN_POINT('',(30.15,-49.45,12.725));
#422 = DIRECTION('',(1.,0.,0.));
#423 = DIRECTION('',(0.,-1.,0.));
#424 = ADVANCED_FACE('',(#425),#450,.F.);
#425 = FACE_BOUND('',#426,.F.);
#426 = EDGE_LOOP('',(#427,#428,#436,#444));
#427 = ORIENTED_EDGE('',*,*,#151,.F.);
#428 = ORIENTED_EDGE('',*,*,#429,.T.);
#429 = EDGE_CURVE('',#143,#430,#432,.T.);
#430 = VERTEX_POINT('',#431);
#431 = CARTESIAN_POINT('',(29.05,-16.05435194335,13.19));
#432 = LINE('',#433,#434);
#433 = CARTESIAN_POINT('',(29.05,-16.05435194335,12.725));
#434 = VECTOR('',#435,1.);
#435 = DIRECTION('',(0.,0.,1.));
#436 = ORIENTED_EDGE('',*,*,#437,.T.);
#437 = EDGE_CURVE('',#430,#438,#440,.T.);
#438 = VERTEX_POINT('',#439);
#439 = CARTESIAN_POINT('',(29.05,-51.74564805665,13.19));
#440 = LINE('',#441,#442);
#441 = CARTESIAN_POINT('',(29.05,-15.1,13.19));
#442 = VECTOR('',#443,1.);
#443 = DIRECTION('',(0.,-1.,0.));
#444 = ORIENTED_EDGE('',*,*,#445,.F.);
#445 = EDGE_CURVE('',#152,#438,#446,.T.);
#446 = LINE('',#447,#448);
#447 = CARTESIAN_POINT('',(29.05,-51.74564805665,12.725));
#448 = VECTOR('',#449,1.);
#449 = DIRECTION('',(0.,0.,1.));
#450 = PLANE('',#451);
#451 = AXIS2_PLACEMENT_3D('',#452,#453,#454);
#452 = CARTESIAN_POINT('',(29.05,-16.05435194335,12.725));
#453 = DIRECTION('',(1.,0.,0.));
#454 = DIRECTION('',(0.,-1.,0.));
#455 = ADVANCED_FACE('',(#456),#472,.F.);
#456 = FACE_BOUND('',#457,.F.);
#457 = EDGE_LOOP('',(#458,#464,#465,#471));
#458 = ORIENTED_EDGE('',*,*,#459,.T.);
#459 = EDGE_CURVE('',#407,#289,#460,.T.);
#460 = LINE('',#461,#462);
#461 = CARTESIAN_POINT('',(29.75,-51.85,13.19));
#462 = VECTOR('',#463,1.);
#463 = DIRECTION('',(1.,0.,0.));
#464 = ORIENTED_EDGE('',*,*,#296,.T.);
#465 = ORIENTED_EDGE('',*,*,#466,.F.);
#466 = EDGE_CURVE('',#399,#297,#467,.T.);
#467 = LINE('',#468,#469);
#468 = CARTESIAN_POINT('',(29.75,-49.45,13.19));
#469 = VECTOR('',#470,1.);
#470 = DIRECTION('',(1.,0.,0.));
#471 = ORIENTED_EDGE('',*,*,#406,.T.);
#472 = PLANE('',#473);
#473 = AXIS2_PLACEMENT_3D('',#474,#475,#476);
#474 = CARTESIAN_POINT('',(37.,-33.9,13.19));
#475 = DIRECTION('',(0.,0.,1.));
#476 = DIRECTION('',(1.,0.,0.));
#477 = ADVANCED_FACE('',(#478),#505,.F.);
#478 = FACE_BOUND('',#479,.F.);
#479 = EDGE_LOOP('',(#480,#481,#490,#498));
#480 = ORIENTED_EDGE('',*,*,#437,.F.);
#481 = ORIENTED_EDGE('',*,*,#482,.T.);
#482 = EDGE_CURVE('',#430,#483,#485,.T.);
#483 = VERTEX_POINT('',#484);
#484 = CARTESIAN_POINT('',(27.35,-18.35,13.19));
#485 = CIRCLE('',#486,2.4);
#486 = AXIS2_PLACEMENT_3D('',#487,#488,#489);
#487 = CARTESIAN_POINT('',(29.75,-18.35,13.19));
#488 = DIRECTION('',(0.,-0.,1.));
#489 = DIRECTION('',(0.,1.,0.));
#490 = ORIENTED_EDGE('',*,*,#491,.T.);
#491 = EDGE_CURVE('',#483,#492,#494,.T.);
#492 = VERTEX_POINT('',#493);
#493 = CARTESIAN_POINT('',(27.35,-49.45,13.19));
#494 = LINE('',#495,#496);
#495 = CARTESIAN_POINT('',(27.35,-18.35,13.19));
#496 = VECTOR('',#497,1.);
#497 = DIRECTION('',(0.,-1.,0.));
#498 = ORIENTED_EDGE('',*,*,#499,.T.);
#499 = EDGE_CURVE('',#492,#438,#500,.T.);
#500 = CIRCLE('',#501,2.4);
#501 = AXIS2_PLACEMENT_3D('',#502,#503,#504);
#502 = CARTESIAN_POINT('',(29.75,-49.45,13.19));
#503 = DIRECTION('',(0.,0.,1.));
#504 = DIRECTION('',(-1.,0.,0.));
#505 = PLANE('',#506);
#506 = AXIS2_PLACEMENT_3D('',#507,#508,#509);
#507 = CARTESIAN_POINT('',(37.,-33.9,13.19));
#508 = DIRECTION('',(0.,0.,1.));
#509 = DIRECTION('',(1.,0.,0.));
#510 = ADVANCED_FACE('',(#511),#536,.F.);
#511 = FACE_BOUND('',#512,.F.);
#512 = EDGE_LOOP('',(#513,#521,#529,#535));
#513 = ORIENTED_EDGE('',*,*,#514,.T.);
#514 = EDGE_CURVE('',#483,#515,#517,.T.);
#515 = VERTEX_POINT('',#516);
#516 = CARTESIAN_POINT('',(27.35,-18.35,13.59));
#517 = LINE('',#518,#519);
#518 = CARTESIAN_POINT('',(27.35,-18.35,13.19));
#519 = VECTOR('',#520,1.);
#520 = DIRECTION('',(0.,0.,1.));
#521 = ORIENTED_EDGE('',*,*,#522,.T.);
#522 = EDGE_CURVE('',#515,#523,#525,.T.);
#523 = VERTEX_POINT('',#524);
#524 = CARTESIAN_POINT('',(27.35,-49.45,13.59));
#525 = LINE('',#526,#527);
#526 = CARTESIAN_POINT('',(27.35,-18.35,13.59));
#527 = VECTOR('',#528,1.);
#528 = DIRECTION('',(0.,-1.,0.));
#529 = ORIENTED_EDGE('',*,*,#530,.F.);
#530 = EDGE_CURVE('',#492,#523,#531,.T.);
#531 = LINE('',#532,#533);
#532 = CARTESIAN_POINT('',(27.35,-49.45,13.19));
#533 = VECTOR('',#534,1.);
#534 = DIRECTION('',(0.,0.,1.));
#535 = ORIENTED_EDGE('',*,*,#491,.F.);
#536 = PLANE('',#537);
#537 = AXIS2_PLACEMENT_3D('',#538,#539,#540);
#538 = CARTESIAN_POINT('',(27.35,-18.35,13.19));
#539 = DIRECTION('',(1.,0.,0.));
#540 = DIRECTION('',(0.,-1.,0.));
#541 = ADVANCED_FACE('',(#542,#621),#632,.T.);
#542 = FACE_BOUND('',#543,.T.);
#543 = EDGE_LOOP('',(#544,#553,#560,#561,#570,#577,#578,#587,#596,#604,
    #613,#620));
#544 = ORIENTED_EDGE('',*,*,#545,.T.);
#545 = EDGE_CURVE('',#32,#546,#548,.T.);
#546 = VERTEX_POINT('',#547);
#547 = CARTESIAN_POINT('',(44.95,-16.05435194335,13.59));
#548 = CIRCLE('',#549,2.4);
#549 = AXIS2_PLACEMENT_3D('',#550,#551,#552);
#550 = CARTESIAN_POINT('',(44.25,-18.35,13.59));
#551 = DIRECTION('',(0.,-0.,1.));
#552 = DIRECTION('',(1.,2.96E-15,0.));
#553 = ORIENTED_EDGE('',*,*,#554,.T.);
#554 = EDGE_CURVE('',#546,#257,#555,.T.);
#555 = CIRCLE('',#556,2.4);
#556 = AXIS2_PLACEMENT_3D('',#557,#558,#559);
#557 = CARTESIAN_POINT('',(44.25,-18.35,13.59));
#558 = DIRECTION('',(0.,-0.,1.));
#559 = DIRECTION('',(1.,2.96E-15,0.));
#560 = ORIENTED_EDGE('',*,*,#264,.T.);
#561 = ORIENTED_EDGE('',*,*,#562,.T.);
#562 = EDGE_CURVE('',#265,#563,#565,.T.);
#563 = VERTEX_POINT('',#564);
#564 = CARTESIAN_POINT('',(29.05,-16.05435194335,13.59));
#565 = CIRCLE('',#566,2.4);
#566 = AXIS2_PLACEMENT_3D('',#567,#568,#569);
#567 = CARTESIAN_POINT('',(29.75,-18.35,13.59));
#568 = DIRECTION('',(0.,-0.,1.));
#569 = DIRECTION('',(0.,1.,0.));
#570 = ORIENTED_EDGE('',*,*,#571,.T.);
#571 = EDGE_CURVE('',#563,#515,#572,.T.);
#572 = CIRCLE('',#573,2.4);
#573 = AXIS2_PLACEMENT_3D('',#574,#575,#576);
#574 = CARTESIAN_POINT('',(29.75,-18.35,13.59));
#575 = DIRECTION('',(0.,-0.,1.));
#576 = DIRECTION('',(0.,1.,0.));
#577 = ORIENTED_EDGE('',*,*,#522,.T.);
#578 = ORIENTED_EDGE('',*,*,#579,.T.);
#579 = EDGE_CURVE('',#523,#580,#582,.T.);
#580 = VERTEX_POINT('',#581);
#581 = CARTESIAN_POINT('',(29.05,-51.74564805665,13.59));
#582 = CIRCLE('',#583,2.4);
#583 = AXIS2_PLACEMENT_3D('',#584,#585,#586);
#584 = CARTESIAN_POINT('',(29.75,-49.45,13.59));
#585 = DIRECTION('',(0.,0.,1.));
#586 = DIRECTION('',(-1.,0.,0.));
#587 = ORIENTED_EDGE('',*,*,#588,.T.);
#588 = EDGE_CURVE('',#580,#589,#591,.T.);
#589 = VERTEX_POINT('',#590);
#590 = CARTESIAN_POINT('',(29.75,-51.85,13.59));
#591 = CIRCLE('',#592,2.4);
#592 = AXIS2_PLACEMENT_3D('',#593,#594,#595);
#593 = CARTESIAN_POINT('',(29.75,-49.45,13.59));
#594 = DIRECTION('',(0.,0.,1.));
#595 = DIRECTION('',(-1.,0.,0.));
#596 = ORIENTED_EDGE('',*,*,#597,.T.);
#597 = EDGE_CURVE('',#589,#598,#600,.T.);
#598 = VERTEX_POINT('',#599);
#599 = CARTESIAN_POINT('',(44.25,-51.85,13.59));
#600 = LINE('',#601,#602);
#601 = CARTESIAN_POINT('',(29.75,-51.85,13.59));
#602 = VECTOR('',#603,1.);
#603 = DIRECTION('',(1.,0.,0.));
#604 = ORIENTED_EDGE('',*,*,#605,.T.);
#605 = EDGE_CURVE('',#598,#606,#608,.T.);
#606 = VERTEX_POINT('',#607);
#607 = CARTESIAN_POINT('',(44.95,-51.74564805665,13.59));
#608 = CIRCLE('',#609,2.4);
#609 = AXIS2_PLACEMENT_3D('',#610,#611,#612);
#610 = CARTESIAN_POINT('',(44.25,-49.45,13.59));
#611 = DIRECTION('',(-0.,0.,1.));
#612 = DIRECTION('',(5.92E-15,-1.,0.));
#613 = ORIENTED_EDGE('',*,*,#614,.T.);
#614 = EDGE_CURVE('',#606,#24,#615,.T.);
#615 = CIRCLE('',#616,2.4);
#616 = AXIS2_PLACEMENT_3D('',#617,#618,#619);
#617 = CARTESIAN_POINT('',(44.25,-49.45,13.59));
#618 = DIRECTION('',(-0.,0.,1.));
#619 = DIRECTION('',(5.92E-15,-1.,0.));
#620 = ORIENTED_EDGE('',*,*,#31,.T.);
#621 = FACE_BOUND('',#622,.T.);
#622 = EDGE_LOOP('',(#623,#629,#630,#631));
#623 = ORIENTED_EDGE('',*,*,#624,.F.);
#624 = EDGE_CURVE('',#375,#319,#625,.T.);
#625 = LINE('',#626,#627);
#626 = CARTESIAN_POINT('',(29.75,-49.45,13.59));
#627 = VECTOR('',#628,1.);
#628 = DIRECTION('',(1.,0.,0.));
#629 = ORIENTED_EDGE('',*,*,#374,.F.);
#630 = ORIENTED_EDGE('',*,*,#350,.F.);
#631 = ORIENTED_EDGE('',*,*,#326,.F.);
#632 = PLANE('',#633);
#633 = AXIS2_PLACEMENT_3D('',#634,#635,#636);
#634 = CARTESIAN_POINT('',(37.,-33.9,13.59));
#635 = DIRECTION('',(0.,0.,1.));
#636 = DIRECTION('',(1.,0.,0.));
#637 = ADVANCED_FACE('',(#638),#658,.T.);
#638 = FACE_BOUND('',#639,.T.);
#639 = EDGE_LOOP('',(#640,#641,#642,#648,#649,#655,#656,#657));
#640 = ORIENTED_EDGE('',*,*,#288,.F.);
#641 = ORIENTED_EDGE('',*,*,#232,.T.);
#642 = ORIENTED_EDGE('',*,*,#643,.T.);
#643 = EDGE_CURVE('',#233,#598,#644,.T.);
#644 = LINE('',#645,#646);
#645 = CARTESIAN_POINT('',(44.25,-51.85,12.725));
#646 = VECTOR('',#647,1.);
#647 = DIRECTION('',(0.,0.,1.));
#648 = ORIENTED_EDGE('',*,*,#597,.F.);
#649 = ORIENTED_EDGE('',*,*,#650,.F.);
#650 = EDGE_CURVE('',#160,#589,#651,.T.);
#651 = LINE('',#652,#653);
#652 = CARTESIAN_POINT('',(29.75,-51.85,12.725));
#653 = VECTOR('',#654,1.);
#654 = DIRECTION('',(0.,0.,1.));
#655 = ORIENTED_EDGE('',*,*,#168,.T.);
#656 = ORIENTED_EDGE('',*,*,#414,.T.);
#657 = ORIENTED_EDGE('',*,*,#459,.T.);
#658 = PLANE('',#659);
#659 = AXIS2_PLACEMENT_3D('',#660,#661,#662);
#660 = CARTESIAN_POINT('',(37.,-51.85,13.352841124447));
#661 = DIRECTION('',(-0.,-1.,-0.));
#662 = DIRECTION('',(0.,0.,-1.));
#663 = ADVANCED_FACE('',(#664),#674,.T.);
#664 = FACE_BOUND('',#665,.T.);
#665 = EDGE_LOOP('',(#666,#667,#668,#669,#670,#671,#672,#673));
#666 = ORIENTED_EDGE('',*,*,#304,.T.);
#667 = ORIENTED_EDGE('',*,*,#466,.F.);
#668 = ORIENTED_EDGE('',*,*,#398,.F.);
#669 = ORIENTED_EDGE('',*,*,#184,.F.);
#670 = ORIENTED_EDGE('',*,*,#382,.T.);
#671 = ORIENTED_EDGE('',*,*,#624,.T.);
#672 = ORIENTED_EDGE('',*,*,#318,.F.);
#673 = ORIENTED_EDGE('',*,*,#216,.F.);
#674 = PLANE('',#675);
#675 = AXIS2_PLACEMENT_3D('',#676,#677,#678);
#676 = CARTESIAN_POINT('',(37.,-49.45,13.352841124447));
#677 = DIRECTION('',(0.,1.,0.));
#678 = DIRECTION('',(0.,0.,1.));
#679 = ADVANCED_FACE('',(#680),#689,.T.);
#680 = FACE_BOUND('',#681,.F.);
#681 = EDGE_LOOP('',(#682,#683,#684,#685,#686,#687,#688));
#682 = ORIENTED_EDGE('',*,*,#256,.F.);
#683 = ORIENTED_EDGE('',*,*,#125,.F.);
#684 = ORIENTED_EDGE('',*,*,#111,.T.);
#685 = ORIENTED_EDGE('',*,*,#61,.F.);
#686 = ORIENTED_EDGE('',*,*,#39,.T.);
#687 = ORIENTED_EDGE('',*,*,#545,.T.);
#688 = ORIENTED_EDGE('',*,*,#554,.T.);
#689 = CYLINDRICAL_SURFACE('',#690,2.4);
#690 = AXIS2_PLACEMENT_3D('',#691,#692,#693);
#691 = CARTESIAN_POINT('',(44.25,-18.35,13.19));
#692 = DIRECTION('',(0.,0.,-1.));
#693 = DIRECTION('',(1.,2.96E-15,0.));
#694 = ADVANCED_FACE('',(#695),#704,.T.);
#695 = FACE_BOUND('',#696,.F.);
#696 = EDGE_LOOP('',(#697,#698,#699,#700,#701,#702,#703));
#697 = ORIENTED_EDGE('',*,*,#614,.T.);
#698 = ORIENTED_EDGE('',*,*,#21,.F.);
#699 = ORIENTED_EDGE('',*,*,#78,.F.);
#700 = ORIENTED_EDGE('',*,*,#104,.F.);
#701 = ORIENTED_EDGE('',*,*,#240,.F.);
#702 = ORIENTED_EDGE('',*,*,#643,.T.);
#703 = ORIENTED_EDGE('',*,*,#605,.T.);
#704 = CYLINDRICAL_SURFACE('',#705,2.4);
#705 = AXIS2_PLACEMENT_3D('',#706,#707,#708);
#706 = CARTESIAN_POINT('',(44.25,-49.45,13.19));
#707 = DIRECTION('',(0.,0.,-1.));
#708 = DIRECTION('',(5.92E-15,-1.,0.));
#709 = ADVANCED_FACE('',(#710),#719,.T.);
#710 = FACE_BOUND('',#711,.F.);
#711 = EDGE_LOOP('',(#712,#713,#714,#715,#716,#717,#718));
#712 = ORIENTED_EDGE('',*,*,#514,.F.);
#713 = ORIENTED_EDGE('',*,*,#482,.F.);
#714 = ORIENTED_EDGE('',*,*,#429,.F.);
#715 = ORIENTED_EDGE('',*,*,#142,.F.);
#716 = ORIENTED_EDGE('',*,*,#272,.T.);
#717 = ORIENTED_EDGE('',*,*,#562,.T.);
#718 = ORIENTED_EDGE('',*,*,#571,.T.);
#719 = CYLINDRICAL_SURFACE('',#720,2.4);
#720 = AXIS2_PLACEMENT_3D('',#721,#722,#723);
#721 = CARTESIAN_POINT('',(29.75,-18.35,12.725));
#722 = DIRECTION('',(0.,0.,-1.));
#723 = DIRECTION('',(0.,1.,0.));
#724 = ADVANCED_FACE('',(#725),#734,.T.);
#725 = FACE_BOUND('',#726,.F.);
#726 = EDGE_LOOP('',(#727,#728,#729,#730,#731,#732,#733));
#727 = ORIENTED_EDGE('',*,*,#588,.T.);
#728 = ORIENTED_EDGE('',*,*,#650,.F.);
#729 = ORIENTED_EDGE('',*,*,#159,.F.);
#730 = ORIENTED_EDGE('',*,*,#445,.T.);
#731 = ORIENTED_EDGE('',*,*,#499,.F.);
#732 = ORIENTED_EDGE('',*,*,#530,.T.);
#733 = ORIENTED_EDGE('',*,*,#579,.T.);
#734 = CYLINDRICAL_SURFACE('',#735,2.4);
#735 = AXIS2_PLACEMENT_3D('',#736,#737,#738);
#736 = CARTESIAN_POINT('',(29.75,-49.45,12.725));
#737 = DIRECTION('',(-0.,-0.,-1.));
#738 = DIRECTION('',(-1.,0.,0.));
#739 = MANIFOLD_SOLID_BREP('',#740);
#740 = CLOSED_SHELL('',(#741,#781,#812,#843,#874,#905,#936,#967,#998,
    #1029,#1060,#1091,#1113,#1133));
#741 = ADVANCED_FACE('',(#742),#776,.F.);
#742 = FACE_BOUND('',#743,.F.);
#743 = EDGE_LOOP('',(#744,#754,#762,#770));
#744 = ORIENTED_EDGE('',*,*,#745,.T.);
#745 = EDGE_CURVE('',#746,#748,#750,.T.);
#746 = VERTEX_POINT('',#747);
#747 = CARTESIAN_POINT('',(44.1,-54.3,13.19));
#748 = VERTEX_POINT('',#749);
#749 = CARTESIAN_POINT('',(44.1,-54.3,13.59));
#750 = LINE('',#751,#752);
#751 = CARTESIAN_POINT('',(44.1,-54.3,13.19));
#752 = VECTOR('',#753,1.);
#753 = DIRECTION('',(0.,0.,1.));
#754 = ORIENTED_EDGE('',*,*,#755,.T.);
#755 = EDGE_CURVE('',#748,#756,#758,.T.);
#756 = VERTEX_POINT('',#757);
#757 = CARTESIAN_POINT('',(41.9,-54.3,13.59));
#758 = LINE('',#759,#760);
#759 = CARTESIAN_POINT('',(44.1,-54.3,13.59));
#760 = VECTOR('',#761,1.);
#761 = DIRECTION('',(-1.,0.,0.));
#762 = ORIENTED_EDGE('',*,*,#763,.F.);
#763 = EDGE_CURVE('',#764,#756,#766,.T.);
#764 = VERTEX_POINT('',#765);
#765 = CARTESIAN_POINT('',(41.9,-54.3,13.19));
#766 = LINE('',#767,#768);
#767 = CARTESIAN_POINT('',(41.9,-54.3,13.19));
#768 = VECTOR('',#769,1.);
#769 = DIRECTION('',(0.,0.,1.));
#770 = ORIENTED_EDGE('',*,*,#771,.F.);
#771 = EDGE_CURVE('',#746,#764,#772,.T.);
#772 = LINE('',#773,#774);
#773 = CARTESIAN_POINT('',(44.1,-54.3,13.19));
#774 = VECTOR('',#775,1.);
#775 = DIRECTION('',(-1.,0.,0.));
#776 = PLANE('',#777);
#777 = AXIS2_PLACEMENT_3D('',#778,#779,#780);
#778 = CARTESIAN_POINT('',(44.1,-54.3,13.19));
#779 = DIRECTION('',(0.,-1.,0.));
#780 = DIRECTION('',(-1.,0.,0.));
#781 = ADVANCED_FACE('',(#782),#807,.F.);
#782 = FACE_BOUND('',#783,.F.);
#783 = EDGE_LOOP('',(#784,#785,#793,#801));
#784 = ORIENTED_EDGE('',*,*,#763,.T.);
#785 = ORIENTED_EDGE('',*,*,#786,.T.);
#786 = EDGE_CURVE('',#756,#787,#789,.T.);
#787 = VERTEX_POINT('',#788);
#788 = CARTESIAN_POINT('',(41.9,-56.5,13.59));
#789 = LINE('',#790,#791);
#790 = CARTESIAN_POINT('',(41.9,-54.3,13.59));
#791 = VECTOR('',#792,1.);
#792 = DIRECTION('',(0.,-1.,0.));
#793 = ORIENTED_EDGE('',*,*,#794,.F.);
#794 = EDGE_CURVE('',#795,#787,#797,.T.);
#795 = VERTEX_POINT('',#796);
#796 = CARTESIAN_POINT('',(41.9,-56.5,13.19));
#797 = LINE('',#798,#799);
#798 = CARTESIAN_POINT('',(41.9,-56.5,13.19));
#799 = VECTOR('',#800,1.);
#800 = DIRECTION('',(0.,0.,1.));
#801 = ORIENTED_EDGE('',*,*,#802,.F.);
#802 = EDGE_CURVE('',#764,#795,#803,.T.);
#803 = LINE('',#804,#805);
#804 = CARTESIAN_POINT('',(41.9,-54.3,13.19));
#805 = VECTOR('',#806,1.);
#806 = DIRECTION('',(0.,-1.,0.));
#807 = PLANE('',#808);
#808 = AXIS2_PLACEMENT_3D('',#809,#810,#811);
#809 = CARTESIAN_POINT('',(41.9,-54.3,13.19));
#810 = DIRECTION('',(1.,0.,0.));
#811 = DIRECTION('',(0.,-1.,0.));
#812 = ADVANCED_FACE('',(#813),#838,.F.);
#813 = FACE_BOUND('',#814,.F.);
#814 = EDGE_LOOP('',(#815,#816,#824,#832));
#815 = ORIENTED_EDGE('',*,*,#794,.T.);
#816 = ORIENTED_EDGE('',*,*,#817,.T.);
#817 = EDGE_CURVE('',#787,#818,#820,.T.);
#818 = VERTEX_POINT('',#819);
#819 = CARTESIAN_POINT('',(39.7,-56.5,13.59));
#820 = LINE('',#821,#822);
#821 = CARTESIAN_POINT('',(41.9,-56.5,13.59));
#822 = VECTOR('',#823,1.);
#823 = DIRECTION('',(-1.,0.,0.));
#824 = ORIENTED_EDGE('',*,*,#825,.F.);
#825 = EDGE_CURVE('',#826,#818,#828,.T.);
#826 = VERTEX_POINT('',#827);
#827 = CARTESIAN_POINT('',(39.7,-56.5,13.19));
#828 = LINE('',#829,#830);
#829 = CARTESIAN_POINT('',(39.7,-56.5,13.19));
#830 = VECTOR('',#831,1.);
#831 = DIRECTION('',(0.,0.,1.));
#832 = ORIENTED_EDGE('',*,*,#833,.F.);
#833 = EDGE_CURVE('',#795,#826,#834,.T.);
#834 = LINE('',#835,#836);
#835 = CARTESIAN_POINT('',(41.9,-56.5,13.19));
#836 = VECTOR('',#837,1.);
#837 = DIRECTION('',(-1.,0.,0.));
#838 = PLANE('',#839);
#839 = AXIS2_PLACEMENT_3D('',#840,#841,#842);
#840 = CARTESIAN_POINT('',(41.9,-56.5,13.19));
#841 = DIRECTION('',(0.,-1.,0.));
#842 = DIRECTION('',(-1.,0.,0.));
#843 = ADVANCED_FACE('',(#844),#869,.F.);
#844 = FACE_BOUND('',#845,.F.);
#845 = EDGE_LOOP('',(#846,#847,#855,#863));
#846 = ORIENTED_EDGE('',*,*,#825,.T.);
#847 = ORIENTED_EDGE('',*,*,#848,.T.);
#848 = EDGE_CURVE('',#818,#849,#851,.T.);
#849 = VERTEX_POINT('',#850);
#850 = CARTESIAN_POINT('',(39.7,-58.7,13.59));
#851 = LINE('',#852,#853);
#852 = CARTESIAN_POINT('',(39.7,-56.5,13.59));
#853 = VECTOR('',#854,1.);
#854 = DIRECTION('',(0.,-1.,0.));
#855 = ORIENTED_EDGE('',*,*,#856,.F.);
#856 = EDGE_CURVE('',#857,#849,#859,.T.);
#857 = VERTEX_POINT('',#858);
#858 = CARTESIAN_POINT('',(39.7,-58.7,13.19));
#859 = LINE('',#860,#861);
#860 = CARTESIAN_POINT('',(39.7,-58.7,13.19));
#861 = VECTOR('',#862,1.);
#862 = DIRECTION('',(0.,0.,1.));
#863 = ORIENTED_EDGE('',*,*,#864,.F.);
#864 = EDGE_CURVE('',#826,#857,#865,.T.);
#865 = LINE('',#866,#867);
#866 = CARTESIAN_POINT('',(39.7,-56.5,13.19));
#867 = VECTOR('',#868,1.);
#868 = DIRECTION('',(0.,-1.,0.));
#869 = PLANE('',#870);
#870 = AXIS2_PLACEMENT_3D('',#871,#872,#873);
#871 = CARTESIAN_POINT('',(39.7,-56.5,13.19));
#872 = DIRECTION('',(1.,0.,0.));
#873 = DIRECTION('',(0.,-1.,0.));
#874 = ADVANCED_FACE('',(#875),#900,.F.);
#875 = FACE_BOUND('',#876,.F.);
#876 = EDGE_LOOP('',(#877,#878,#886,#894));
#877 = ORIENTED_EDGE('',*,*,#856,.T.);
#878 = ORIENTED_EDGE('',*,*,#879,.T.);
#879 = EDGE_CURVE('',#849,#880,#882,.T.);
#880 = VERTEX_POINT('',#881);
#881 = CARTESIAN_POINT('',(41.9,-58.7,13.59));
#882 = LINE('',#883,#884);
#883 = CARTESIAN_POINT('',(39.7,-58.7,13.59));
#884 = VECTOR('',#885,1.);
#885 = DIRECTION('',(1.,0.,0.));
#886 = ORIENTED_EDGE('',*,*,#887,.F.);
#887 = EDGE_CURVE('',#888,#880,#890,.T.);
#888 = VERTEX_POINT('',#889);
#889 = CARTESIAN_POINT('',(41.9,-58.7,13.19));
#890 = LINE('',#891,#892);
#891 = CARTESIAN_POINT('',(41.9,-58.7,13.19));
#892 = VECTOR('',#893,1.);
#893 = DIRECTION('',(0.,0.,1.));
#894 = ORIENTED_EDGE('',*,*,#895,.F.);
#895 = EDGE_CURVE('',#857,#888,#896,.T.);
#896 = LINE('',#897,#898);
#897 = CARTESIAN_POINT('',(39.7,-58.7,13.19));
#898 = VECTOR('',#899,1.);
#899 = DIRECTION('',(1.,0.,0.));
#900 = PLANE('',#901);
#901 = AXIS2_PLACEMENT_3D('',#902,#903,#904);
#902 = CARTESIAN_POINT('',(39.7,-58.7,13.19));
#903 = DIRECTION('',(0.,1.,0.));
#904 = DIRECTION('',(1.,0.,0.));
#905 = ADVANCED_FACE('',(#906),#931,.F.);
#906 = FACE_BOUND('',#907,.F.);
#907 = EDGE_LOOP('',(#908,#909,#917,#925));
#908 = ORIENTED_EDGE('',*,*,#887,.T.);
#909 = ORIENTED_EDGE('',*,*,#910,.T.);
#910 = EDGE_CURVE('',#880,#911,#913,.T.);
#911 = VERTEX_POINT('',#912);
#912 = CARTESIAN_POINT('',(41.9,-60.9,13.59));
#913 = LINE('',#914,#915);
#914 = CARTESIAN_POINT('',(41.9,-58.7,13.59));
#915 = VECTOR('',#916,1.);
#916 = DIRECTION('',(0.,-1.,0.));
#917 = ORIENTED_EDGE('',*,*,#918,.F.);
#918 = EDGE_CURVE('',#919,#911,#921,.T.);
#919 = VERTEX_POINT('',#920);
#920 = CARTESIAN_POINT('',(41.9,-60.9,13.19));
#921 = LINE('',#922,#923);
#922 = CARTESIAN_POINT('',(41.9,-60.9,13.19));
#923 = VECTOR('',#924,1.);
#924 = DIRECTION('',(0.,0.,1.));
#925 = ORIENTED_EDGE('',*,*,#926,.F.);
#926 = EDGE_CURVE('',#888,#919,#927,.T.);
#927 = LINE('',#928,#929);
#928 = CARTESIAN_POINT('',(41.9,-58.7,13.19));
#929 = VECTOR('',#930,1.);
#930 = DIRECTION('',(0.,-1.,0.));
#931 = PLANE('',#932);
#932 = AXIS2_PLACEMENT_3D('',#933,#934,#935);
#933 = CARTESIAN_POINT('',(41.9,-58.7,13.19));
#934 = DIRECTION('',(1.,0.,0.));
#935 = DIRECTION('',(0.,-1.,0.));
#936 = ADVANCED_FACE('',(#937),#962,.F.);
#937 = FACE_BOUND('',#938,.F.);
#938 = EDGE_LOOP('',(#939,#940,#948,#956));
#939 = ORIENTED_EDGE('',*,*,#918,.T.);
#940 = ORIENTED_EDGE('',*,*,#941,.T.);
#941 = EDGE_CURVE('',#911,#942,#944,.T.);
#942 = VERTEX_POINT('',#943);
#943 = CARTESIAN_POINT('',(44.1,-60.9,13.59));
#944 = LINE('',#945,#946);
#945 = CARTESIAN_POINT('',(41.9,-60.9,13.59));
#946 = VECTOR('',#947,1.);
#947 = DIRECTION('',(1.,0.,0.));
#948 = ORIENTED_EDGE('',*,*,#949,.F.);
#949 = EDGE_CURVE('',#950,#942,#952,.T.);
#950 = VERTEX_POINT('',#951);
#951 = CARTESIAN_POINT('',(44.1,-60.9,13.19));
#952 = LINE('',#953,#954);
#953 = CARTESIAN_POINT('',(44.1,-60.9,13.19));
#954 = VECTOR('',#955,1.);
#955 = DIRECTION('',(0.,0.,1.));
#956 = ORIENTED_EDGE('',*,*,#957,.F.);
#957 = EDGE_CURVE('',#919,#950,#958,.T.);
#958 = LINE('',#959,#960);
#959 = CARTESIAN_POINT('',(41.9,-60.9,13.19));
#960 = VECTOR('',#961,1.);
#961 = DIRECTION('',(1.,0.,0.));
#962 = PLANE('',#963);
#963 = AXIS2_PLACEMENT_3D('',#964,#965,#966);
#964 = CARTESIAN_POINT('',(41.9,-60.9,13.19));
#965 = DIRECTION('',(0.,1.,0.));
#966 = DIRECTION('',(1.,0.,0.));
#967 = ADVANCED_FACE('',(#968),#993,.F.);
#968 = FACE_BOUND('',#969,.F.);
#969 = EDGE_LOOP('',(#970,#971,#979,#987));
#970 = ORIENTED_EDGE('',*,*,#949,.T.);
#971 = ORIENTED_EDGE('',*,*,#972,.T.);
#972 = EDGE_CURVE('',#942,#973,#975,.T.);
#973 = VERTEX_POINT('',#974);
#974 = CARTESIAN_POINT('',(44.1,-58.7,13.59));
#975 = LINE('',#976,#977);
#976 = CARTESIAN_POINT('',(44.1,-60.9,13.59));
#977 = VECTOR('',#978,1.);
#978 = DIRECTION('',(0.,1.,0.));
#979 = ORIENTED_EDGE('',*,*,#980,.F.);
#980 = EDGE_CURVE('',#981,#973,#983,.T.);
#981 = VERTEX_POINT('',#982);
#982 = CARTESIAN_POINT('',(44.1,-58.7,13.19));
#983 = LINE('',#984,#985);
#984 = CARTESIAN_POINT('',(44.1,-58.7,13.19));
#985 = VECTOR('',#986,1.);
#986 = DIRECTION('',(0.,0.,1.));
#987 = ORIENTED_EDGE('',*,*,#988,.F.);
#988 = EDGE_CURVE('',#950,#981,#989,.T.);
#989 = LINE('',#990,#991);
#990 = CARTESIAN_POINT('',(44.1,-60.9,13.19));
#991 = VECTOR('',#992,1.);
#992 = DIRECTION('',(0.,1.,0.));
#993 = PLANE('',#994);
#994 = AXIS2_PLACEMENT_3D('',#995,#996,#997);
#995 = CARTESIAN_POINT('',(44.1,-60.9,13.19));
#996 = DIRECTION('',(-1.,0.,0.));
#997 = DIRECTION('',(0.,1.,0.));
#998 = ADVANCED_FACE('',(#999),#1024,.F.);
#999 = FACE_BOUND('',#1000,.F.);
#1000 = EDGE_LOOP('',(#1001,#1002,#1010,#1018));
#1001 = ORIENTED_EDGE('',*,*,#980,.T.);
#1002 = ORIENTED_EDGE('',*,*,#1003,.T.);
#1003 = EDGE_CURVE('',#973,#1004,#1006,.T.);
#1004 = VERTEX_POINT('',#1005);
#1005 = CARTESIAN_POINT('',(46.3,-58.7,13.59));
#1006 = LINE('',#1007,#1008);
#1007 = CARTESIAN_POINT('',(44.1,-58.7,13.59));
#1008 = VECTOR('',#1009,1.);
#1009 = DIRECTION('',(1.,0.,0.));
#1010 = ORIENTED_EDGE('',*,*,#1011,.F.);
#1011 = EDGE_CURVE('',#1012,#1004,#1014,.T.);
#1012 = VERTEX_POINT('',#1013);
#1013 = CARTESIAN_POINT('',(46.3,-58.7,13.19));
#1014 = LINE('',#1015,#1016);
#1015 = CARTESIAN_POINT('',(46.3,-58.7,13.19));
#1016 = VECTOR('',#1017,1.);
#1017 = DIRECTION('',(0.,0.,1.));
#1018 = ORIENTED_EDGE('',*,*,#1019,.F.);
#1019 = EDGE_CURVE('',#981,#1012,#1020,.T.);
#1020 = LINE('',#1021,#1022);
#1021 = CARTESIAN_POINT('',(44.1,-58.7,13.19));
#1022 = VECTOR('',#1023,1.);
#1023 = DIRECTION('',(1.,0.,0.));
#1024 = PLANE('',#1025);
#1025 = AXIS2_PLACEMENT_3D('',#1026,#1027,#1028);
#1026 = CARTESIAN_POINT('',(44.1,-58.7,13.19));
#1027 = DIRECTION('',(0.,1.,0.));
#1028 = DIRECTION('',(1.,0.,0.));
#1029 = ADVANCED_FACE('',(#1030),#1055,.F.);
#1030 = FACE_BOUND('',#1031,.F.);
#1031 = EDGE_LOOP('',(#1032,#1033,#1041,#1049));
#1032 = ORIENTED_EDGE('',*,*,#1011,.T.);
#1033 = ORIENTED_EDGE('',*,*,#1034,.T.);
#1034 = EDGE_CURVE('',#1004,#1035,#1037,.T.);
#1035 = VERTEX_POINT('',#1036);
#1036 = CARTESIAN_POINT('',(46.3,-56.5,13.59));
#1037 = LINE('',#1038,#1039);
#1038 = CARTESIAN_POINT('',(46.3,-58.7,13.59));
#1039 = VECTOR('',#1040,1.);
#1040 = DIRECTION('',(0.,1.,0.));
#1041 = ORIENTED_EDGE('',*,*,#1042,.F.);
#1042 = EDGE_CURVE('',#1043,#1035,#1045,.T.);
#1043 = VERTEX_POINT('',#1044);
#1044 = CARTESIAN_POINT('',(46.3,-56.5,13.19));
#1045 = LINE('',#1046,#1047);
#1046 = CARTESIAN_POINT('',(46.3,-56.5,13.19));
#1047 = VECTOR('',#1048,1.);
#1048 = DIRECTION('',(0.,0.,1.));
#1049 = ORIENTED_EDGE('',*,*,#1050,.F.);
#1050 = EDGE_CURVE('',#1012,#1043,#1051,.T.);
#1051 = LINE('',#1052,#1053);
#1052 = CARTESIAN_POINT('',(46.3,-58.7,13.19));
#1053 = VECTOR('',#1054,1.);
#1054 = DIRECTION('',(0.,1.,0.));
#1055 = PLANE('',#1056);
#1056 = AXIS2_PLACEMENT_3D('',#1057,#1058,#1059);
#1057 = CARTESIAN_POINT('',(46.3,-58.7,13.19));
#1058 = DIRECTION('',(-1.,0.,0.));
#1059 = DIRECTION('',(0.,1.,0.));
#1060 = ADVANCED_FACE('',(#1061),#1086,.F.);
#1061 = FACE_BOUND('',#1062,.F.);
#1062 = EDGE_LOOP('',(#1063,#1064,#1072,#1080));
#1063 = ORIENTED_EDGE('',*,*,#1042,.T.);
#1064 = ORIENTED_EDGE('',*,*,#1065,.T.);
#1065 = EDGE_CURVE('',#1035,#1066,#1068,.T.);
#1066 = VERTEX_POINT('',#1067);
#1067 = CARTESIAN_POINT('',(44.1,-56.5,13.59));
#1068 = LINE('',#1069,#1070);
#1069 = CARTESIAN_POINT('',(46.3,-56.5,13.59));
#1070 = VECTOR('',#1071,1.);
#1071 = DIRECTION('',(-1.,0.,0.));
#1072 = ORIENTED_EDGE('',*,*,#1073,.F.);
#1073 = EDGE_CURVE('',#1074,#1066,#1076,.T.);
#1074 = VERTEX_POINT('',#1075);
#1075 = CARTESIAN_POINT('',(44.1,-56.5,13.19));
#1076 = LINE('',#1077,#1078);
#1077 = CARTESIAN_POINT('',(44.1,-56.5,13.19));
#1078 = VECTOR('',#1079,1.);
#1079 = DIRECTION('',(0.,0.,1.));
#1080 = ORIENTED_EDGE('',*,*,#1081,.F.);
#1081 = EDGE_CURVE('',#1043,#1074,#1082,.T.);
#1082 = LINE('',#1083,#1084);
#1083 = CARTESIAN_POINT('',(46.3,-56.5,13.19));
#1084 = VECTOR('',#1085,1.);
#1085 = DIRECTION('',(-1.,0.,0.));
#1086 = PLANE('',#1087);
#1087 = AXIS2_PLACEMENT_3D('',#1088,#1089,#1090);
#1088 = CARTESIAN_POINT('',(46.3,-56.5,13.19));
#1089 = DIRECTION('',(0.,-1.,0.));
#1090 = DIRECTION('',(-1.,0.,0.));
#1091 = ADVANCED_FACE('',(#1092),#1108,.F.);
#1092 = FACE_BOUND('',#1093,.F.);
#1093 = EDGE_LOOP('',(#1094,#1095,#1101,#1102));
#1094 = ORIENTED_EDGE('',*,*,#1073,.T.);
#1095 = ORIENTED_EDGE('',*,*,#1096,.T.);
#1096 = EDGE_CURVE('',#1066,#748,#1097,.T.);
#1097 = LINE('',#1098,#1099);
#1098 = CARTESIAN_POINT('',(44.1,-56.5,13.59));
#1099 = VECTOR('',#1100,1.);
#1100 = DIRECTION('',(0.,1.,0.));
#1101 = ORIENTED_EDGE('',*,*,#745,.F.);
#1102 = ORIENTED_EDGE('',*,*,#1103,.F.);
#1103 = EDGE_CURVE('',#1074,#746,#1104,.T.);
#1104 = LINE('',#1105,#1106);
#1105 = CARTESIAN_POINT('',(44.1,-56.5,13.19));
#1106 = VECTOR('',#1107,1.);
#1107 = DIRECTION('',(0.,1.,0.));
#1108 = PLANE('',#1109);
#1109 = AXIS2_PLACEMENT_3D('',#1110,#1111,#1112);
#1110 = CARTESIAN_POINT('',(44.1,-56.5,13.19));
#1111 = DIRECTION('',(-1.,0.,0.));
#1112 = DIRECTION('',(0.,1.,0.));
#1113 = ADVANCED_FACE('',(#1114),#1128,.F.);
#1114 = FACE_BOUND('',#1115,.F.);
#1115 = EDGE_LOOP('',(#1116,#1117,#1118,#1119,#1120,#1121,#1122,#1123,
    #1124,#1125,#1126,#1127));
#1116 = ORIENTED_EDGE('',*,*,#771,.T.);
#1117 = ORIENTED_EDGE('',*,*,#802,.T.);
#1118 = ORIENTED_EDGE('',*,*,#833,.T.);
#1119 = ORIENTED_EDGE('',*,*,#864,.T.);
#1120 = ORIENTED_EDGE('',*,*,#895,.T.);
#1121 = ORIENTED_EDGE('',*,*,#926,.T.);
#1122 = ORIENTED_EDGE('',*,*,#957,.T.);
#1123 = ORIENTED_EDGE('',*,*,#988,.T.);
#1124 = ORIENTED_EDGE('',*,*,#1019,.T.);
#1125 = ORIENTED_EDGE('',*,*,#1050,.T.);
#1126 = ORIENTED_EDGE('',*,*,#1081,.T.);
#1127 = ORIENTED_EDGE('',*,*,#1103,.T.);
#1128 = PLANE('',#1129);
#1129 = AXIS2_PLACEMENT_3D('',#1130,#1131,#1132);
#1130 = CARTESIAN_POINT('',(43.,-57.6,13.19));
#1131 = DIRECTION('',(0.,0.,1.));
#1132 = DIRECTION('',(1.,0.,0.));
#1133 = ADVANCED_FACE('',(#1134),#1148,.T.);
#1134 = FACE_BOUND('',#1135,.T.);
#1135 = EDGE_LOOP('',(#1136,#1137,#1138,#1139,#1140,#1141,#1142,#1143,
    #1144,#1145,#1146,#1147));
#1136 = ORIENTED_EDGE('',*,*,#755,.T.);
#1137 = ORIENTED_EDGE('',*,*,#786,.T.);
#1138 = ORIENTED_EDGE('',*,*,#817,.T.);
#1139 = ORIENTED_EDGE('',*,*,#848,.T.);
#1140 = ORIENTED_EDGE('',*,*,#879,.T.);
#1141 = ORIENTED_EDGE('',*,*,#910,.T.);
#1142 = ORIENTED_EDGE('',*,*,#941,.T.);
#1143 = ORIENTED_EDGE('',*,*,#972,.T.);
#1144 = ORIENTED_EDGE('',*,*,#1003,.T.);
#1145 = ORIENTED_EDGE('',*,*,#1034,.T.);
#1146 = ORIENTED_EDGE('',*,*,#1065,.T.);
#1147 = ORIENTED_EDGE('',*,*,#1096,.T.);
#1148 = PLANE('',#1149);
#1149 = AXIS2_PLACEMENT_3D('',#1150,#1151,#1152);
#1150 = CARTESIAN_POINT('',(43.,-57.6,13.59));
#1151 = DIRECTION('',(0.,0.,1.));
#1152 = DIRECTION('',(1.,0.,0.));
#1153 = ( GEOMETRIC_REPRESENTATION_CONTEXT(3) 
GLOBAL_UNCERTAINTY_ASSIGNED_CONTEXT((#1157)) 
GLOBAL_UNIT_ASSIGNED_CONTEXT((#1154,#1155,#1156)) REPRESENTATION_CONTEXT
('Context #1','3D Context with UNIT and UNCERTAINTY') );
#1154 = ( LENGTH_UNIT() NAMED_UNIT(*) SI_UNIT(.MILLI.,.METRE.) );
#1155 = ( NAMED_UNIT(*) PLANE_ANGLE_UNIT() SI_UNIT($,.RADIAN.) );
#1156 = ( NAMED_UNIT(*) SI_UNIT($,.STERADIAN.) SOLID_ANGLE_UNIT() );
#1157 = UNCERTAINTY_MEASURE_WITH_UNIT(LENGTH_MEASURE(2.E-06),#1154,
  'distance_accuracy_value','confusion accuracy');
#1158 = PRODUCT_RELATED_PRODUCT_CATEGORY('part',$,(#7));
ENDSEC;
END-ISO-10303-21;
