ISO-10303-21;
HEADER;
FILE_DESCRIPTION(('FreeCAD Model'),'2;1');
FILE_NAME('Open CASCADE Shape Model','2026-09-28T17:28:41',('FreeCAD'),(
    'FreeCAD'),'Open CASCADE STEP processor 7.8','FreeCAD','Unknown');
FILE_SCHEMA(('AUTOMOTIVE_DESIGN { 1 0 10303 214 1 1 1 1 }'));
ENDSEC;
DATA;
#1 = APPLICATION_PROTOCOL_DEFINITION('international standard',
  'automotive_design',2000,#2);
#2 = APPLICATION_CONTEXT(
  'core data for automotive mechanical design processes');
#3 = SHAPE_DEFINITION_REPRESENTATION(#4,#10);
#4 = PRODUCT_DEFINITION_SHAPE('','',#5);
#5 = PRODUCT_DEFINITION('design','',#6,#9);
#6 = PRODUCT_DEFINITION_FORMATION('','',#7);
#7 = PRODUCT('Open CASCADE STEP translator 7.8 132',
  'Open CASCADE STEP translator 7.8 132','',(#8));
#8 = PRODUCT_CONTEXT('',#2,'mechanical');
#9 = PRODUCT_DEFINITION_CONTEXT('part definition',#2,'design');
#10 = SHAPE_REPRESENTATION('',(#11,#15,#209,#403,#597,#791,#985),#1827);
#11 = AXIS2_PLACEMENT_3D('',#12,#13,#14);
#12 = CARTESIAN_POINT('',(0.,0.,0.));
#13 = DIRECTION('',(0.,0.,1.));
#14 = DIRECTION('',(1.,0.,-0.));
#15 = MANIFOLD_SOLID_BREP('',#16);
#16 = CLOSED_SHELL('',(#17,#57,#108,#139,#181,#195));
#17 = ADVANCED_FACE('',(#18),#52,.F.);
#18 = FACE_BOUND('',#19,.F.);
#19 = EDGE_LOOP('',(#20,#30,#38,#46));
#20 = ORIENTED_EDGE('',*,*,#21,.T.);
#21 = EDGE_CURVE('',#22,#24,#26,.T.);
#22 = VERTEX_POINT('',#23);
#23 = CARTESIAN_POINT('',(45.5,-54.8,12.99));
#24 = VERTEX_POINT('',#25);
#25 = CARTESIAN_POINT('',(45.5,-54.8,13.39));
#26 = LINE('',#27,#28);
#27 = CARTESIAN_POINT('',(45.5,-54.8,12.99));
#28 = VECTOR('',#29,1.);
#29 = DIRECTION('',(0.,0.,1.));
#30 = ORIENTED_EDGE('',*,*,#31,.T.);
#31 = EDGE_CURVE('',#24,#32,#34,.T.);
#32 = VERTEX_POINT('',#33);
#33 = CARTESIAN_POINT('',(36.,-54.8,13.39));
#34 = LINE('',#35,#36);
#35 = CARTESIAN_POINT('',(45.5,-54.8,13.39));
#36 = VECTOR('',#37,1.);
#37 = DIRECTION('',(-1.,0.,0.));
#38 = ORIENTED_EDGE('',*,*,#39,.F.);
#39 = EDGE_CURVE('',#40,#32,#42,.T.);
#40 = VERTEX_POINT('',#41);
#41 = CARTESIAN_POINT('',(36.,-54.8,12.99));
#42 = LINE('',#43,#44);
#43 = CARTESIAN_POINT('',(36.,-54.8,12.99));
#44 = VECTOR('',#45,1.);
#45 = DIRECTION('',(0.,0.,1.));
#46 = ORIENTED_EDGE('',*,*,#47,.F.);
#47 = EDGE_CURVE('',#22,#40,#48,.T.);
#48 = LINE('',#49,#50);
#49 = CARTESIAN_POINT('',(45.5,-54.8,12.99));
#50 = VECTOR('',#51,1.);
#51 = DIRECTION('',(-1.,0.,0.));
#52 = PLANE('',#53);
#53 = AXIS2_PLACEMENT_3D('',#54,#55,#56);
#54 = CARTESIAN_POINT('',(45.5,-54.8,12.99));
#55 = DIRECTION('',(0.,-1.,0.));
#56 = DIRECTION('',(-1.,0.,0.));
#57 = ADVANCED_FACE('',(#58),#103,.F.);
#58 = FACE_BOUND('',#59,.F.);
#59 = EDGE_LOOP('',(#60,#61,#70,#79,#87,#96));
#60 = ORIENTED_EDGE('',*,*,#47,.T.);
#61 = ORIENTED_EDGE('',*,*,#62,.T.);
#62 = EDGE_CURVE('',#40,#63,#65,.T.);
#63 = VERTEX_POINT('',#64);
#64 = CARTESIAN_POINT('',(35.5,-55.3,12.99));
#65 = CIRCLE('',#66,0.5);
#66 = AXIS2_PLACEMENT_3D('',#67,#68,#69);
#67 = CARTESIAN_POINT('',(36.,-55.3,12.99));
#68 = DIRECTION('',(0.,-0.,1.));
#69 = DIRECTION('',(1.421E-14,1.,0.));
#70 = ORIENTED_EDGE('',*,*,#71,.T.);
#71 = EDGE_CURVE('',#63,#72,#74,.T.);
#72 = VERTEX_POINT('',#73);
#73 = CARTESIAN_POINT('',(36.,-55.8,12.99));
#74 = CIRCLE('',#75,0.5);
#75 = AXIS2_PLACEMENT_3D('',#76,#77,#78);
#76 = CARTESIAN_POINT('',(36.,-55.3,12.99));
#77 = DIRECTION('',(0.,0.,1.));
#78 = DIRECTION('',(-1.,1.421E-14,0.));
#79 = ORIENTED_EDGE('',*,*,#80,.T.);
#80 = EDGE_CURVE('',#72,#81,#83,.T.);
#81 = VERTEX_POINT('',#82);
#82 = CARTESIAN_POINT('',(45.5,-55.8,12.99));
#83 = LINE('',#84,#85);
#84 = CARTESIAN_POINT('',(36.,-55.8,12.99));
#85 = VECTOR('',#86,1.);
#86 = DIRECTION('',(1.,0.,0.));
#87 = ORIENTED_EDGE('',*,*,#88,.T.);
#88 = EDGE_CURVE('',#81,#89,#91,.T.);
#89 = VERTEX_POINT('',#90);
#90 = CARTESIAN_POINT('',(46.,-55.3,12.99));
#91 = CIRCLE('',#92,0.5);
#92 = AXIS2_PLACEMENT_3D('',#93,#94,#95);
#93 = CARTESIAN_POINT('',(45.5,-55.3,12.99));
#94 = DIRECTION('',(0.,0.,1.));
#95 = DIRECTION('',(-1.421E-14,-1.,0.));
#96 = ORIENTED_EDGE('',*,*,#97,.T.);
#97 = EDGE_CURVE('',#89,#22,#98,.T.);
#98 = CIRCLE('',#99,0.5);
#99 = AXIS2_PLACEMENT_3D('',#100,#101,#102);
#100 = CARTESIAN_POINT('',(45.5,-55.3,12.99));
#101 = DIRECTION('',(-0.,0.,1.));
#102 = DIRECTION('',(1.,-1.421E-14,0.));
#103 = PLANE('',#104);
#104 = AXIS2_PLACEMENT_3D('',#105,#106,#107);
#105 = CARTESIAN_POINT('',(40.75,-55.3,12.99));
#106 = DIRECTION('',(0.,0.,1.));
#107 = DIRECTION('',(1.,0.,0.));
#108 = ADVANCED_FACE('',(#109),#134,.F.);
#109 = FACE_BOUND('',#110,.F.);
#110 = EDGE_LOOP('',(#111,#119,#127,#133));
#111 = ORIENTED_EDGE('',*,*,#112,.T.);
#112 = EDGE_CURVE('',#72,#113,#115,.T.);
#113 = VERTEX_POINT('',#114);
#114 = CARTESIAN_POINT('',(36.,-55.8,13.39));
#115 = LINE('',#116,#117);
#116 = CARTESIAN_POINT('',(36.,-55.8,12.99));
#117 = VECTOR('',#118,1.);
#118 = DIRECTION('',(0.,0.,1.));
#119 = ORIENTED_EDGE('',*,*,#120,.T.);
#120 = EDGE_CURVE('',#113,#121,#123,.T.);
#121 = VERTEX_POINT('',#122);
#122 = CARTESIAN_POINT('',(45.5,-55.8,13.39));
#123 = LINE('',#124,#125);
#124 = CARTESIAN_POINT('',(36.,-55.8,13.39));
#125 = VECTOR('',#126,1.);
#126 = DIRECTION('',(1.,0.,0.));
#127 = ORIENTED_EDGE('',*,*,#128,.F.);
#128 = EDGE_CURVE('',#81,#121,#129,.T.);
#129 = LINE('',#130,#131);
#130 = CARTESIAN_POINT('',(45.5,-55.8,12.99));
#131 = VECTOR('',#132,1.);
#132 = DIRECTION('',(0.,0.,1.));
#133 = ORIENTED_EDGE('',*,*,#80,.F.);
#134 = PLANE('',#135);
#135 = AXIS2_PLACEMENT_3D('',#136,#137,#138);
#136 = CARTESIAN_POINT('',(36.,-55.8,12.99));
#137 = DIRECTION('',(0.,1.,0.));
#138 = DIRECTION('',(1.,0.,0.));
#139 = ADVANCED_FACE('',(#140),#176,.T.);
#140 = FACE_BOUND('',#141,.T.);
#141 = EDGE_LOOP('',(#142,#143,#152,#159,#160,#169));
#142 = ORIENTED_EDGE('',*,*,#31,.T.);
#143 = ORIENTED_EDGE('',*,*,#144,.T.);
#144 = EDGE_CURVE('',#32,#145,#147,.T.);
#145 = VERTEX_POINT('',#146);
#146 = CARTESIAN_POINT('',(35.5,-55.3,13.39));
#147 = CIRCLE('',#148,0.5);
#148 = AXIS2_PLACEMENT_3D('',#149,#150,#151);
#149 = CARTESIAN_POINT('',(36.,-55.3,13.39));
#150 = DIRECTION('',(0.,-0.,1.));
#151 = DIRECTION('',(1.421E-14,1.,0.));
#152 = ORIENTED_EDGE('',*,*,#153,.T.);
#153 = EDGE_CURVE('',#145,#113,#154,.T.);
#154 = CIRCLE('',#155,0.5);
#155 = AXIS2_PLACEMENT_3D('',#156,#157,#158);
#156 = CARTESIAN_POINT('',(36.,-55.3,13.39));
#157 = DIRECTION('',(0.,0.,1.));
#158 = DIRECTION('',(-1.,1.421E-14,0.));
#159 = ORIENTED_EDGE('',*,*,#120,.T.);
#160 = ORIENTED_EDGE('',*,*,#161,.T.);
#161 = EDGE_CURVE('',#121,#162,#164,.T.);
#162 = VERTEX_POINT('',#163);
#163 = CARTESIAN_POINT('',(46.,-55.3,13.39));
#164 = CIRCLE('',#165,0.5);
#165 = AXIS2_PLACEMENT_3D('',#166,#167,#168);
#166 = CARTESIAN_POINT('',(45.5,-55.3,13.39));
#167 = DIRECTION('',(0.,0.,1.));
#168 = DIRECTION('',(-1.421E-14,-1.,0.));
#169 = ORIENTED_EDGE('',*,*,#170,.T.);
#170 = EDGE_CURVE('',#162,#24,#171,.T.);
#171 = CIRCLE('',#172,0.5);
#172 = AXIS2_PLACEMENT_3D('',#173,#174,#175);
#173 = CARTESIAN_POINT('',(45.5,-55.3,13.39));
#174 = DIRECTION('',(-0.,0.,1.));
#175 = DIRECTION('',(1.,-1.421E-14,0.));
#176 = PLANE('',#177);
#177 = AXIS2_PLACEMENT_3D('',#178,#179,#180);
#178 = CARTESIAN_POINT('',(40.75,-55.3,13.39));
#179 = DIRECTION('',(0.,0.,1.));
#180 = DIRECTION('',(1.,0.,0.));
#181 = ADVANCED_FACE('',(#182),#190,.T.);
#182 = FACE_BOUND('',#183,.F.);
#183 = EDGE_LOOP('',(#184,#185,#186,#187,#188,#189));
#184 = ORIENTED_EDGE('',*,*,#112,.F.);
#185 = ORIENTED_EDGE('',*,*,#71,.F.);
#186 = ORIENTED_EDGE('',*,*,#62,.F.);
#187 = ORIENTED_EDGE('',*,*,#39,.T.);
#188 = ORIENTED_EDGE('',*,*,#144,.T.);
#189 = ORIENTED_EDGE('',*,*,#153,.T.);
#190 = CYLINDRICAL_SURFACE('',#191,0.5);
#191 = AXIS2_PLACEMENT_3D('',#192,#193,#194);
#192 = CARTESIAN_POINT('',(36.,-55.3,12.99));
#193 = DIRECTION('',(0.,0.,-1.));
#194 = DIRECTION('',(1.421E-14,1.,0.));
#195 = ADVANCED_FACE('',(#196),#204,.T.);
#196 = FACE_BOUND('',#197,.F.);
#197 = EDGE_LOOP('',(#198,#199,#200,#201,#202,#203));
#198 = ORIENTED_EDGE('',*,*,#21,.F.);
#199 = ORIENTED_EDGE('',*,*,#97,.F.);
#200 = ORIENTED_EDGE('',*,*,#88,.F.);
#201 = ORIENTED_EDGE('',*,*,#128,.T.);
#202 = ORIENTED_EDGE('',*,*,#161,.T.);
#203 = ORIENTED_EDGE('',*,*,#170,.T.);
#204 = CYLINDRICAL_SURFACE('',#205,0.5);
#205 = AXIS2_PLACEMENT_3D('',#206,#207,#208);
#206 = CARTESIAN_POINT('',(45.5,-55.3,12.99));
#207 = DIRECTION('',(-0.,-0.,-1.));
#208 = DIRECTION('',(-1.421E-14,-1.,0.));
#209 = MANIFOLD_SOLID_BREP('',#210);
#210 = CLOSED_SHELL('',(#211,#251,#302,#333,#375,#389));
#211 = ADVANCED_FACE('',(#212),#246,.F.);
#212 = FACE_BOUND('',#213,.F.);
#213 = EDGE_LOOP('',(#214,#224,#232,#240));
#214 = ORIENTED_EDGE('',*,*,#215,.T.);
#215 = EDGE_CURVE('',#216,#218,#220,.T.);
#216 = VERTEX_POINT('',#217);
#217 = CARTESIAN_POINT('',(45.5,-57.,12.99));
#218 = VERTEX_POINT('',#219);
#219 = CARTESIAN_POINT('',(45.5,-57.,13.39));
#220 = LINE('',#221,#222);
#221 = CARTESIAN_POINT('',(45.5,-57.,12.99));
#222 = VECTOR('',#223,1.);
#223 = DIRECTION('',(0.,0.,1.));
#224 = ORIENTED_EDGE('',*,*,#225,.T.);
#225 = EDGE_CURVE('',#218,#226,#228,.T.);
#226 = VERTEX_POINT('',#227);
#227 = CARTESIAN_POINT('',(36.,-57.,13.39));
#228 = LINE('',#229,#230);
#229 = CARTESIAN_POINT('',(45.5,-57.,13.39));
#230 = VECTOR('',#231,1.);
#231 = DIRECTION('',(-1.,0.,0.));
#232 = ORIENTED_EDGE('',*,*,#233,.F.);
#233 = EDGE_CURVE('',#234,#226,#236,.T.);
#234 = VERTEX_POINT('',#235);
#235 = CARTESIAN_POINT('',(36.,-57.,12.99));
#236 = LINE('',#237,#238);
#237 = CARTESIAN_POINT('',(36.,-57.,12.99));
#238 = VECTOR('',#239,1.);
#239 = DIRECTION('',(0.,0.,1.));
#240 = ORIENTED_EDGE('',*,*,#241,.F.);
#241 = EDGE_CURVE('',#216,#234,#242,.T.);
#242 = LINE('',#243,#244);
#243 = CARTESIAN_POINT('',(45.5,-57.,12.99));
#244 = VECTOR('',#245,1.);
#245 = DIRECTION('',(-1.,0.,0.));
#246 = PLANE('',#247);
#247 = AXIS2_PLACEMENT_3D('',#248,#249,#250);
#248 = CARTESIAN_POINT('',(45.5,-57.,12.99));
#249 = DIRECTION('',(0.,-1.,0.));
#250 = DIRECTION('',(-1.,0.,0.));
#251 = ADVANCED_FACE('',(#252),#297,.F.);
#252 = FACE_BOUND('',#253,.F.);
#253 = EDGE_LOOP('',(#254,#255,#264,#273,#281,#290));
#254 = ORIENTED_EDGE('',*,*,#241,.T.);
#255 = ORIENTED_EDGE('',*,*,#256,.T.);
#256 = EDGE_CURVE('',#234,#257,#259,.T.);
#257 = VERTEX_POINT('',#258);
#258 = CARTESIAN_POINT('',(35.5,-57.5,12.99));
#259 = CIRCLE('',#260,0.5);
#260 = AXIS2_PLACEMENT_3D('',#261,#262,#263);
#261 = CARTESIAN_POINT('',(36.,-57.5,12.99));
#262 = DIRECTION('',(0.,-0.,1.));
#263 = DIRECTION('',(1.421E-14,1.,0.));
#264 = ORIENTED_EDGE('',*,*,#265,.T.);
#265 = EDGE_CURVE('',#257,#266,#268,.T.);
#266 = VERTEX_POINT('',#267);
#267 = CARTESIAN_POINT('',(36.,-58.,12.99));
#268 = CIRCLE('',#269,0.5);
#269 = AXIS2_PLACEMENT_3D('',#270,#271,#272);
#270 = CARTESIAN_POINT('',(36.,-57.5,12.99));
#271 = DIRECTION('',(0.,0.,1.));
#272 = DIRECTION('',(-1.,1.421E-14,0.));
#273 = ORIENTED_EDGE('',*,*,#274,.T.);
#274 = EDGE_CURVE('',#266,#275,#277,.T.);
#275 = VERTEX_POINT('',#276);
#276 = CARTESIAN_POINT('',(45.5,-58.,12.99));
#277 = LINE('',#278,#279);
#278 = CARTESIAN_POINT('',(36.,-58.,12.99));
#279 = VECTOR('',#280,1.);
#280 = DIRECTION('',(1.,0.,0.));
#281 = ORIENTED_EDGE('',*,*,#282,.T.);
#282 = EDGE_CURVE('',#275,#283,#285,.T.);
#283 = VERTEX_POINT('',#284);
#284 = CARTESIAN_POINT('',(46.,-57.5,12.99));
#285 = CIRCLE('',#286,0.5);
#286 = AXIS2_PLACEMENT_3D('',#287,#288,#289);
#287 = CARTESIAN_POINT('',(45.5,-57.5,12.99));
#288 = DIRECTION('',(0.,0.,1.));
#289 = DIRECTION('',(-1.421E-14,-1.,0.));
#290 = ORIENTED_EDGE('',*,*,#291,.T.);
#291 = EDGE_CURVE('',#283,#216,#292,.T.);
#292 = CIRCLE('',#293,0.5);
#293 = AXIS2_PLACEMENT_3D('',#294,#295,#296);
#294 = CARTESIAN_POINT('',(45.5,-57.5,12.99));
#295 = DIRECTION('',(-0.,0.,1.));
#296 = DIRECTION('',(1.,-1.421E-14,0.));
#297 = PLANE('',#298);
#298 = AXIS2_PLACEMENT_3D('',#299,#300,#301);
#299 = CARTESIAN_POINT('',(40.75,-57.5,12.99));
#300 = DIRECTION('',(0.,0.,1.));
#301 = DIRECTION('',(1.,0.,0.));
#302 = ADVANCED_FACE('',(#303),#328,.F.);
#303 = FACE_BOUND('',#304,.F.);
#304 = EDGE_LOOP('',(#305,#313,#321,#327));
#305 = ORIENTED_EDGE('',*,*,#306,.T.);
#306 = EDGE_CURVE('',#266,#307,#309,.T.);
#307 = VERTEX_POINT('',#308);
#308 = CARTESIAN_POINT('',(36.,-58.,13.39));
#309 = LINE('',#310,#311);
#310 = CARTESIAN_POINT('',(36.,-58.,12.99));
#311 = VECTOR('',#312,1.);
#312 = DIRECTION('',(0.,0.,1.));
#313 = ORIENTED_EDGE('',*,*,#314,.T.);
#314 = EDGE_CURVE('',#307,#315,#317,.T.);
#315 = VERTEX_POINT('',#316);
#316 = CARTESIAN_POINT('',(45.5,-58.,13.39));
#317 = LINE('',#318,#319);
#318 = CARTESIAN_POINT('',(36.,-58.,13.39));
#319 = VECTOR('',#320,1.);
#320 = DIRECTION('',(1.,0.,0.));
#321 = ORIENTED_EDGE('',*,*,#322,.F.);
#322 = EDGE_CURVE('',#275,#315,#323,.T.);
#323 = LINE('',#324,#325);
#324 = CARTESIAN_POINT('',(45.5,-58.,12.99));
#325 = VECTOR('',#326,1.);
#326 = DIRECTION('',(0.,0.,1.));
#327 = ORIENTED_EDGE('',*,*,#274,.F.);
#328 = PLANE('',#329);
#329 = AXIS2_PLACEMENT_3D('',#330,#331,#332);
#330 = CARTESIAN_POINT('',(36.,-58.,12.99));
#331 = DIRECTION('',(0.,1.,0.));
#332 = DIRECTION('',(1.,0.,0.));
#333 = ADVANCED_FACE('',(#334),#370,.T.);
#334 = FACE_BOUND('',#335,.T.);
#335 = EDGE_LOOP('',(#336,#337,#346,#353,#354,#363));
#336 = ORIENTED_EDGE('',*,*,#225,.T.);
#337 = ORIENTED_EDGE('',*,*,#338,.T.);
#338 = EDGE_CURVE('',#226,#339,#341,.T.);
#339 = VERTEX_POINT('',#340);
#340 = CARTESIAN_POINT('',(35.5,-57.5,13.39));
#341 = CIRCLE('',#342,0.5);
#342 = AXIS2_PLACEMENT_3D('',#343,#344,#345);
#343 = CARTESIAN_POINT('',(36.,-57.5,13.39));
#344 = DIRECTION('',(0.,-0.,1.));
#345 = DIRECTION('',(1.421E-14,1.,0.));
#346 = ORIENTED_EDGE('',*,*,#347,.T.);
#347 = EDGE_CURVE('',#339,#307,#348,.T.);
#348 = CIRCLE('',#349,0.5);
#349 = AXIS2_PLACEMENT_3D('',#350,#351,#352);
#350 = CARTESIAN_POINT('',(36.,-57.5,13.39));
#351 = DIRECTION('',(0.,0.,1.));
#352 = DIRECTION('',(-1.,1.421E-14,0.));
#353 = ORIENTED_EDGE('',*,*,#314,.T.);
#354 = ORIENTED_EDGE('',*,*,#355,.T.);
#355 = EDGE_CURVE('',#315,#356,#358,.T.);
#356 = VERTEX_POINT('',#357);
#357 = CARTESIAN_POINT('',(46.,-57.5,13.39));
#358 = CIRCLE('',#359,0.5);
#359 = AXIS2_PLACEMENT_3D('',#360,#361,#362);
#360 = CARTESIAN_POINT('',(45.5,-57.5,13.39));
#361 = DIRECTION('',(0.,0.,1.));
#362 = DIRECTION('',(-1.421E-14,-1.,0.));
#363 = ORIENTED_EDGE('',*,*,#364,.T.);
#364 = EDGE_CURVE('',#356,#218,#365,.T.);
#365 = CIRCLE('',#366,0.5);
#366 = AXIS2_PLACEMENT_3D('',#367,#368,#369);
#367 = CARTESIAN_POINT('',(45.5,-57.5,13.39));
#368 = DIRECTION('',(-0.,0.,1.));
#369 = DIRECTION('',(1.,-1.421E-14,0.));
#370 = PLANE('',#371);
#371 = AXIS2_PLACEMENT_3D('',#372,#373,#374);
#372 = CARTESIAN_POINT('',(40.75,-57.5,13.39));
#373 = DIRECTION('',(0.,0.,1.));
#374 = DIRECTION('',(1.,0.,0.));
#375 = ADVANCED_FACE('',(#376),#384,.T.);
#376 = FACE_BOUND('',#377,.F.);
#377 = EDGE_LOOP('',(#378,#379,#380,#381,#382,#383));
#378 = ORIENTED_EDGE('',*,*,#306,.F.);
#379 = ORIENTED_EDGE('',*,*,#265,.F.);
#380 = ORIENTED_EDGE('',*,*,#256,.F.);
#381 = ORIENTED_EDGE('',*,*,#233,.T.);
#382 = ORIENTED_EDGE('',*,*,#338,.T.);
#383 = ORIENTED_EDGE('',*,*,#347,.T.);
#384 = CYLINDRICAL_SURFACE('',#385,0.5);
#385 = AXIS2_PLACEMENT_3D('',#386,#387,#388);
#386 = CARTESIAN_POINT('',(36.,-57.5,12.99));
#387 = DIRECTION('',(0.,0.,-1.));
#388 = DIRECTION('',(1.421E-14,1.,0.));
#389 = ADVANCED_FACE('',(#390),#398,.T.);
#390 = FACE_BOUND('',#391,.F.);
#391 = EDGE_LOOP('',(#392,#393,#394,#395,#396,#397));
#392 = ORIENTED_EDGE('',*,*,#215,.F.);
#393 = ORIENTED_EDGE('',*,*,#291,.F.);
#394 = ORIENTED_EDGE('',*,*,#282,.F.);
#395 = ORIENTED_EDGE('',*,*,#322,.T.);
#396 = ORIENTED_EDGE('',*,*,#355,.T.);
#397 = ORIENTED_EDGE('',*,*,#364,.T.);
#398 = CYLINDRICAL_SURFACE('',#399,0.5);
#399 = AXIS2_PLACEMENT_3D('',#400,#401,#402);
#400 = CARTESIAN_POINT('',(45.5,-57.5,12.99));
#401 = DIRECTION('',(-0.,-0.,-1.));
#402 = DIRECTION('',(-1.421E-14,-1.,0.));
#403 = MANIFOLD_SOLID_BREP('',#404);
#404 = CLOSED_SHELL('',(#405,#445,#496,#527,#569,#583));
#405 = ADVANCED_FACE('',(#406),#440,.F.);
#406 = FACE_BOUND('',#407,.F.);
#407 = EDGE_LOOP('',(#408,#418,#426,#434));
#408 = ORIENTED_EDGE('',*,*,#409,.T.);
#409 = EDGE_CURVE('',#410,#412,#414,.T.);
#410 = VERTEX_POINT('',#411);
#411 = CARTESIAN_POINT('',(45.5,-59.2,12.99));
#412 = VERTEX_POINT('',#413);
#413 = CARTESIAN_POINT('',(45.5,-59.2,13.39));
#414 = LINE('',#415,#416);
#415 = CARTESIAN_POINT('',(45.5,-59.2,12.99));
#416 = VECTOR('',#417,1.);
#417 = DIRECTION('',(0.,0.,1.));
#418 = ORIENTED_EDGE('',*,*,#419,.T.);
#419 = EDGE_CURVE('',#412,#420,#422,.T.);
#420 = VERTEX_POINT('',#421);
#421 = CARTESIAN_POINT('',(36.,-59.2,13.39));
#422 = LINE('',#423,#424);
#423 = CARTESIAN_POINT('',(45.5,-59.2,13.39));
#424 = VECTOR('',#425,1.);
#425 = DIRECTION('',(-1.,0.,0.));
#426 = ORIENTED_EDGE('',*,*,#427,.F.);
#427 = EDGE_CURVE('',#428,#420,#430,.T.);
#428 = VERTEX_POINT('',#429);
#429 = CARTESIAN_POINT('',(36.,-59.2,12.99));
#430 = LINE('',#431,#432);
#431 = CARTESIAN_POINT('',(36.,-59.2,12.99));
#432 = VECTOR('',#433,1.);
#433 = DIRECTION('',(0.,0.,1.));
#434 = ORIENTED_EDGE('',*,*,#435,.F.);
#435 = EDGE_CURVE('',#410,#428,#436,.T.);
#436 = LINE('',#437,#438);
#437 = CARTESIAN_POINT('',(45.5,-59.2,12.99));
#438 = VECTOR('',#439,1.);
#439 = DIRECTION('',(-1.,0.,0.));
#440 = PLANE('',#441);
#441 = AXIS2_PLACEMENT_3D('',#442,#443,#444);
#442 = CARTESIAN_POINT('',(45.5,-59.2,12.99));
#443 = DIRECTION('',(0.,-1.,0.));
#444 = DIRECTION('',(-1.,0.,0.));
#445 = ADVANCED_FACE('',(#446),#491,.F.);
#446 = FACE_BOUND('',#447,.F.);
#447 = EDGE_LOOP('',(#448,#449,#458,#467,#475,#484));
#448 = ORIENTED_EDGE('',*,*,#435,.T.);
#449 = ORIENTED_EDGE('',*,*,#450,.T.);
#450 = EDGE_CURVE('',#428,#451,#453,.T.);
#451 = VERTEX_POINT('',#452);
#452 = CARTESIAN_POINT('',(35.5,-59.7,12.99));
#453 = CIRCLE('',#454,0.5);
#454 = AXIS2_PLACEMENT_3D('',#455,#456,#457);
#455 = CARTESIAN_POINT('',(36.,-59.7,12.99));
#456 = DIRECTION('',(0.,-0.,1.));
#457 = DIRECTION('',(1.421E-14,1.,0.));
#458 = ORIENTED_EDGE('',*,*,#459,.T.);
#459 = EDGE_CURVE('',#451,#460,#462,.T.);
#460 = VERTEX_POINT('',#461);
#461 = CARTESIAN_POINT('',(36.,-60.2,12.99));
#462 = CIRCLE('',#463,0.5);
#463 = AXIS2_PLACEMENT_3D('',#464,#465,#466);
#464 = CARTESIAN_POINT('',(36.,-59.7,12.99));
#465 = DIRECTION('',(0.,0.,1.));
#466 = DIRECTION('',(-1.,1.421E-14,0.));
#467 = ORIENTED_EDGE('',*,*,#468,.T.);
#468 = EDGE_CURVE('',#460,#469,#471,.T.);
#469 = VERTEX_POINT('',#470);
#470 = CARTESIAN_POINT('',(45.5,-60.2,12.99));
#471 = LINE('',#472,#473);
#472 = CARTESIAN_POINT('',(36.,-60.2,12.99));
#473 = VECTOR('',#474,1.);
#474 = DIRECTION('',(1.,0.,0.));
#475 = ORIENTED_EDGE('',*,*,#476,.T.);
#476 = EDGE_CURVE('',#469,#477,#479,.T.);
#477 = VERTEX_POINT('',#478);
#478 = CARTESIAN_POINT('',(46.,-59.7,12.99));
#479 = CIRCLE('',#480,0.5);
#480 = AXIS2_PLACEMENT_3D('',#481,#482,#483);
#481 = CARTESIAN_POINT('',(45.5,-59.7,12.99));
#482 = DIRECTION('',(0.,0.,1.));
#483 = DIRECTION('',(-1.421E-14,-1.,0.));
#484 = ORIENTED_EDGE('',*,*,#485,.T.);
#485 = EDGE_CURVE('',#477,#410,#486,.T.);
#486 = CIRCLE('',#487,0.5);
#487 = AXIS2_PLACEMENT_3D('',#488,#489,#490);
#488 = CARTESIAN_POINT('',(45.5,-59.7,12.99));
#489 = DIRECTION('',(-0.,0.,1.));
#490 = DIRECTION('',(1.,-1.421E-14,0.));
#491 = PLANE('',#492);
#492 = AXIS2_PLACEMENT_3D('',#493,#494,#495);
#493 = CARTESIAN_POINT('',(40.75,-59.7,12.99));
#494 = DIRECTION('',(0.,0.,1.));
#495 = DIRECTION('',(1.,0.,0.));
#496 = ADVANCED_FACE('',(#497),#522,.F.);
#497 = FACE_BOUND('',#498,.F.);
#498 = EDGE_LOOP('',(#499,#507,#515,#521));
#499 = ORIENTED_EDGE('',*,*,#500,.T.);
#500 = EDGE_CURVE('',#460,#501,#503,.T.);
#501 = VERTEX_POINT('',#502);
#502 = CARTESIAN_POINT('',(36.,-60.2,13.39));
#503 = LINE('',#504,#505);
#504 = CARTESIAN_POINT('',(36.,-60.2,12.99));
#505 = VECTOR('',#506,1.);
#506 = DIRECTION('',(0.,0.,1.));
#507 = ORIENTED_EDGE('',*,*,#508,.T.);
#508 = EDGE_CURVE('',#501,#509,#511,.T.);
#509 = VERTEX_POINT('',#510);
#510 = CARTESIAN_POINT('',(45.5,-60.2,13.39));
#511 = LINE('',#512,#513);
#512 = CARTESIAN_POINT('',(36.,-60.2,13.39));
#513 = VECTOR('',#514,1.);
#514 = DIRECTION('',(1.,0.,0.));
#515 = ORIENTED_EDGE('',*,*,#516,.F.);
#516 = EDGE_CURVE('',#469,#509,#517,.T.);
#517 = LINE('',#518,#519);
#518 = CARTESIAN_POINT('',(45.5,-60.2,12.99));
#519 = VECTOR('',#520,1.);
#520 = DIRECTION('',(0.,0.,1.));
#521 = ORIENTED_EDGE('',*,*,#468,.F.);
#522 = PLANE('',#523);
#523 = AXIS2_PLACEMENT_3D('',#524,#525,#526);
#524 = CARTESIAN_POINT('',(36.,-60.2,12.99));
#525 = DIRECTION('',(0.,1.,0.));
#526 = DIRECTION('',(1.,0.,0.));
#527 = ADVANCED_FACE('',(#528),#564,.T.);
#528 = FACE_BOUND('',#529,.T.);
#529 = EDGE_LOOP('',(#530,#531,#540,#547,#548,#557));
#530 = ORIENTED_EDGE('',*,*,#419,.T.);
#531 = ORIENTED_EDGE('',*,*,#532,.T.);
#532 = EDGE_CURVE('',#420,#533,#535,.T.);
#533 = VERTEX_POINT('',#534);
#534 = CARTESIAN_POINT('',(35.5,-59.7,13.39));
#535 = CIRCLE('',#536,0.5);
#536 = AXIS2_PLACEMENT_3D('',#537,#538,#539);
#537 = CARTESIAN_POINT('',(36.,-59.7,13.39));
#538 = DIRECTION('',(0.,-0.,1.));
#539 = DIRECTION('',(1.421E-14,1.,0.));
#540 = ORIENTED_EDGE('',*,*,#541,.T.);
#541 = EDGE_CURVE('',#533,#501,#542,.T.);
#542 = CIRCLE('',#543,0.5);
#543 = AXIS2_PLACEMENT_3D('',#544,#545,#546);
#544 = CARTESIAN_POINT('',(36.,-59.7,13.39));
#545 = DIRECTION('',(0.,0.,1.));
#546 = DIRECTION('',(-1.,1.421E-14,0.));
#547 = ORIENTED_EDGE('',*,*,#508,.T.);
#548 = ORIENTED_EDGE('',*,*,#549,.T.);
#549 = EDGE_CURVE('',#509,#550,#552,.T.);
#550 = VERTEX_POINT('',#551);
#551 = CARTESIAN_POINT('',(46.,-59.7,13.39));
#552 = CIRCLE('',#553,0.5);
#553 = AXIS2_PLACEMENT_3D('',#554,#555,#556);
#554 = CARTESIAN_POINT('',(45.5,-59.7,13.39));
#555 = DIRECTION('',(0.,0.,1.));
#556 = DIRECTION('',(-1.421E-14,-1.,0.));
#557 = ORIENTED_EDGE('',*,*,#558,.T.);
#558 = EDGE_CURVE('',#550,#412,#559,.T.);
#559 = CIRCLE('',#560,0.5);
#560 = AXIS2_PLACEMENT_3D('',#561,#562,#563);
#561 = CARTESIAN_POINT('',(45.5,-59.7,13.39));
#562 = DIRECTION('',(-0.,0.,1.));
#563 = DIRECTION('',(1.,-1.421E-14,0.));
#564 = PLANE('',#565);
#565 = AXIS2_PLACEMENT_3D('',#566,#567,#568);
#566 = CARTESIAN_POINT('',(40.75,-59.7,13.39));
#567 = DIRECTION('',(0.,0.,1.));
#568 = DIRECTION('',(1.,0.,0.));
#569 = ADVANCED_FACE('',(#570),#578,.T.);
#570 = FACE_BOUND('',#571,.F.);
#571 = EDGE_LOOP('',(#572,#573,#574,#575,#576,#577));
#572 = ORIENTED_EDGE('',*,*,#500,.F.);
#573 = ORIENTED_EDGE('',*,*,#459,.F.);
#574 = ORIENTED_EDGE('',*,*,#450,.F.);
#575 = ORIENTED_EDGE('',*,*,#427,.T.);
#576 = ORIENTED_EDGE('',*,*,#532,.T.);
#577 = ORIENTED_EDGE('',*,*,#541,.T.);
#578 = CYLINDRICAL_SURFACE('',#579,0.5);
#579 = AXIS2_PLACEMENT_3D('',#580,#581,#582);
#580 = CARTESIAN_POINT('',(36.,-59.7,12.99));
#581 = DIRECTION('',(0.,0.,-1.));
#582 = DIRECTION('',(1.421E-14,1.,0.));
#583 = ADVANCED_FACE('',(#584),#592,.T.);
#584 = FACE_BOUND('',#585,.F.);
#585 = EDGE_LOOP('',(#586,#587,#588,#589,#590,#591));
#586 = ORIENTED_EDGE('',*,*,#409,.F.);
#587 = ORIENTED_EDGE('',*,*,#485,.F.);
#588 = ORIENTED_EDGE('',*,*,#476,.F.);
#589 = ORIENTED_EDGE('',*,*,#516,.T.);
#590 = ORIENTED_EDGE('',*,*,#549,.T.);
#591 = ORIENTED_EDGE('',*,*,#558,.T.);
#592 = CYLINDRICAL_SURFACE('',#593,0.5);
#593 = AXIS2_PLACEMENT_3D('',#594,#595,#596);
#594 = CARTESIAN_POINT('',(45.5,-59.7,12.99));
#595 = DIRECTION('',(-0.,-0.,-1.));
#596 = DIRECTION('',(-1.421E-14,-1.,0.));
#597 = MANIFOLD_SOLID_BREP('',#598);
#598 = CLOSED_SHELL('',(#599,#639,#690,#721,#763,#777));
#599 = ADVANCED_FACE('',(#600),#634,.F.);
#600 = FACE_BOUND('',#601,.F.);
#601 = EDGE_LOOP('',(#602,#612,#620,#628));
#602 = ORIENTED_EDGE('',*,*,#603,.T.);
#603 = EDGE_CURVE('',#604,#606,#608,.T.);
#604 = VERTEX_POINT('',#605);
#605 = CARTESIAN_POINT('',(45.5,-61.4,12.99));
#606 = VERTEX_POINT('',#607);
#607 = CARTESIAN_POINT('',(45.5,-61.4,13.39));
#608 = LINE('',#609,#610);
#609 = CARTESIAN_POINT('',(45.5,-61.4,12.99));
#610 = VECTOR('',#611,1.);
#611 = DIRECTION('',(0.,0.,1.));
#612 = ORIENTED_EDGE('',*,*,#613,.T.);
#613 = EDGE_CURVE('',#606,#614,#616,.T.);
#614 = VERTEX_POINT('',#615);
#615 = CARTESIAN_POINT('',(36.,-61.4,13.39));
#616 = LINE('',#617,#618);
#617 = CARTESIAN_POINT('',(45.5,-61.4,13.39));
#618 = VECTOR('',#619,1.);
#619 = DIRECTION('',(-1.,0.,0.));
#620 = ORIENTED_EDGE('',*,*,#621,.F.);
#621 = EDGE_CURVE('',#622,#614,#624,.T.);
#622 = VERTEX_POINT('',#623);
#623 = CARTESIAN_POINT('',(36.,-61.4,12.99));
#624 = LINE('',#625,#626);
#625 = CARTESIAN_POINT('',(36.,-61.4,12.99));
#626 = VECTOR('',#627,1.);
#627 = DIRECTION('',(0.,0.,1.));
#628 = ORIENTED_EDGE('',*,*,#629,.F.);
#629 = EDGE_CURVE('',#604,#622,#630,.T.);
#630 = LINE('',#631,#632);
#631 = CARTESIAN_POINT('',(45.5,-61.4,12.99));
#632 = VECTOR('',#633,1.);
#633 = DIRECTION('',(-1.,0.,0.));
#634 = PLANE('',#635);
#635 = AXIS2_PLACEMENT_3D('',#636,#637,#638);
#636 = CARTESIAN_POINT('',(45.5,-61.4,12.99));
#637 = DIRECTION('',(0.,-1.,0.));
#638 = DIRECTION('',(-1.,0.,0.));
#639 = ADVANCED_FACE('',(#640),#685,.F.);
#640 = FACE_BOUND('',#641,.F.);
#641 = EDGE_LOOP('',(#642,#643,#652,#661,#669,#678));
#642 = ORIENTED_EDGE('',*,*,#629,.T.);
#643 = ORIENTED_EDGE('',*,*,#644,.T.);
#644 = EDGE_CURVE('',#622,#645,#647,.T.);
#645 = VERTEX_POINT('',#646);
#646 = CARTESIAN_POINT('',(35.5,-61.9,12.99));
#647 = CIRCLE('',#648,0.5);
#648 = AXIS2_PLACEMENT_3D('',#649,#650,#651);
#649 = CARTESIAN_POINT('',(36.,-61.9,12.99));
#650 = DIRECTION('',(0.,-0.,1.));
#651 = DIRECTION('',(1.421E-14,1.,0.));
#652 = ORIENTED_EDGE('',*,*,#653,.T.);
#653 = EDGE_CURVE('',#645,#654,#656,.T.);
#654 = VERTEX_POINT('',#655);
#655 = CARTESIAN_POINT('',(36.,-62.4,12.99));
#656 = CIRCLE('',#657,0.5);
#657 = AXIS2_PLACEMENT_3D('',#658,#659,#660);
#658 = CARTESIAN_POINT('',(36.,-61.9,12.99));
#659 = DIRECTION('',(0.,0.,1.));
#660 = DIRECTION('',(-1.,1.421E-14,0.));
#661 = ORIENTED_EDGE('',*,*,#662,.T.);
#662 = EDGE_CURVE('',#654,#663,#665,.T.);
#663 = VERTEX_POINT('',#664);
#664 = CARTESIAN_POINT('',(45.5,-62.4,12.99));
#665 = LINE('',#666,#667);
#666 = CARTESIAN_POINT('',(36.,-62.4,12.99));
#667 = VECTOR('',#668,1.);
#668 = DIRECTION('',(1.,0.,0.));
#669 = ORIENTED_EDGE('',*,*,#670,.T.);
#670 = EDGE_CURVE('',#663,#671,#673,.T.);
#671 = VERTEX_POINT('',#672);
#672 = CARTESIAN_POINT('',(46.,-61.9,12.99));
#673 = CIRCLE('',#674,0.5);
#674 = AXIS2_PLACEMENT_3D('',#675,#676,#677);
#675 = CARTESIAN_POINT('',(45.5,-61.9,12.99));
#676 = DIRECTION('',(0.,0.,1.));
#677 = DIRECTION('',(-1.421E-14,-1.,0.));
#678 = ORIENTED_EDGE('',*,*,#679,.T.);
#679 = EDGE_CURVE('',#671,#604,#680,.T.);
#680 = CIRCLE('',#681,0.5);
#681 = AXIS2_PLACEMENT_3D('',#682,#683,#684);
#682 = CARTESIAN_POINT('',(45.5,-61.9,12.99));
#683 = DIRECTION('',(-0.,0.,1.));
#684 = DIRECTION('',(1.,-1.421E-14,0.));
#685 = PLANE('',#686);
#686 = AXIS2_PLACEMENT_3D('',#687,#688,#689);
#687 = CARTESIAN_POINT('',(40.75,-61.9,12.99));
#688 = DIRECTION('',(0.,0.,1.));
#689 = DIRECTION('',(1.,0.,0.));
#690 = ADVANCED_FACE('',(#691),#716,.F.);
#691 = FACE_BOUND('',#692,.F.);
#692 = EDGE_LOOP('',(#693,#701,#709,#715));
#693 = ORIENTED_EDGE('',*,*,#694,.T.);
#694 = EDGE_CURVE('',#654,#695,#697,.T.);
#695 = VERTEX_POINT('',#696);
#696 = CARTESIAN_POINT('',(36.,-62.4,13.39));
#697 = LINE('',#698,#699);
#698 = CARTESIAN_POINT('',(36.,-62.4,12.99));
#699 = VECTOR('',#700,1.);
#700 = DIRECTION('',(0.,0.,1.));
#701 = ORIENTED_EDGE('',*,*,#702,.T.);
#702 = EDGE_CURVE('',#695,#703,#705,.T.);
#703 = VERTEX_POINT('',#704);
#704 = CARTESIAN_POINT('',(45.5,-62.4,13.39));
#705 = LINE('',#706,#707);
#706 = CARTESIAN_POINT('',(36.,-62.4,13.39));
#707 = VECTOR('',#708,1.);
#708 = DIRECTION('',(1.,0.,0.));
#709 = ORIENTED_EDGE('',*,*,#710,.F.);
#710 = EDGE_CURVE('',#663,#703,#711,.T.);
#711 = LINE('',#712,#713);
#712 = CARTESIAN_POINT('',(45.5,-62.4,12.99));
#713 = VECTOR('',#714,1.);
#714 = DIRECTION('',(0.,0.,1.));
#715 = ORIENTED_EDGE('',*,*,#662,.F.);
#716 = PLANE('',#717);
#717 = AXIS2_PLACEMENT_3D('',#718,#719,#720);
#718 = CARTESIAN_POINT('',(36.,-62.4,12.99));
#719 = DIRECTION('',(0.,1.,0.));
#720 = DIRECTION('',(1.,0.,0.));
#721 = ADVANCED_FACE('',(#722),#758,.T.);
#722 = FACE_BOUND('',#723,.T.);
#723 = EDGE_LOOP('',(#724,#725,#734,#741,#742,#751));
#724 = ORIENTED_EDGE('',*,*,#613,.T.);
#725 = ORIENTED_EDGE('',*,*,#726,.T.);
#726 = EDGE_CURVE('',#614,#727,#729,.T.);
#727 = VERTEX_POINT('',#728);
#728 = CARTESIAN_POINT('',(35.5,-61.9,13.39));
#729 = CIRCLE('',#730,0.5);
#730 = AXIS2_PLACEMENT_3D('',#731,#732,#733);
#731 = CARTESIAN_POINT('',(36.,-61.9,13.39));
#732 = DIRECTION('',(0.,-0.,1.));
#733 = DIRECTION('',(1.421E-14,1.,0.));
#734 = ORIENTED_EDGE('',*,*,#735,.T.);
#735 = EDGE_CURVE('',#727,#695,#736,.T.);
#736 = CIRCLE('',#737,0.5);
#737 = AXIS2_PLACEMENT_3D('',#738,#739,#740);
#738 = CARTESIAN_POINT('',(36.,-61.9,13.39));
#739 = DIRECTION('',(0.,0.,1.));
#740 = DIRECTION('',(-1.,1.421E-14,0.));
#741 = ORIENTED_EDGE('',*,*,#702,.T.);
#742 = ORIENTED_EDGE('',*,*,#743,.T.);
#743 = EDGE_CURVE('',#703,#744,#746,.T.);
#744 = VERTEX_POINT('',#745);
#745 = CARTESIAN_POINT('',(46.,-61.9,13.39));
#746 = CIRCLE('',#747,0.5);
#747 = AXIS2_PLACEMENT_3D('',#748,#749,#750);
#748 = CARTESIAN_POINT('',(45.5,-61.9,13.39));
#749 = DIRECTION('',(0.,0.,1.));
#750 = DIRECTION('',(-1.421E-14,-1.,0.));
#751 = ORIENTED_EDGE('',*,*,#752,.T.);
#752 = EDGE_CURVE('',#744,#606,#753,.T.);
#753 = CIRCLE('',#754,0.5);
#754 = AXIS2_PLACEMENT_3D('',#755,#756,#757);
#755 = CARTESIAN_POINT('',(45.5,-61.9,13.39));
#756 = DIRECTION('',(-0.,0.,1.));
#757 = DIRECTION('',(1.,-1.421E-14,0.));
#758 = PLANE('',#759);
#759 = AXIS2_PLACEMENT_3D('',#760,#761,#762);
#760 = CARTESIAN_POINT('',(40.75,-61.9,13.39));
#761 = DIRECTION('',(0.,0.,1.));
#762 = DIRECTION('',(1.,0.,0.));
#763 = ADVANCED_FACE('',(#764),#772,.T.);
#764 = FACE_BOUND('',#765,.F.);
#765 = EDGE_LOOP('',(#766,#767,#768,#769,#770,#771));
#766 = ORIENTED_EDGE('',*,*,#694,.F.);
#767 = ORIENTED_EDGE('',*,*,#653,.F.);
#768 = ORIENTED_EDGE('',*,*,#644,.F.);
#769 = ORIENTED_EDGE('',*,*,#621,.T.);
#770 = ORIENTED_EDGE('',*,*,#726,.T.);
#771 = ORIENTED_EDGE('',*,*,#735,.T.);
#772 = CYLINDRICAL_SURFACE('',#773,0.5);
#773 = AXIS2_PLACEMENT_3D('',#774,#775,#776);
#774 = CARTESIAN_POINT('',(36.,-61.9,12.99));
#775 = DIRECTION('',(0.,0.,-1.));
#776 = DIRECTION('',(1.421E-14,1.,0.));
#777 = ADVANCED_FACE('',(#778),#786,.T.);
#778 = FACE_BOUND('',#779,.F.);
#779 = EDGE_LOOP('',(#780,#781,#782,#783,#784,#785));
#780 = ORIENTED_EDGE('',*,*,#603,.F.);
#781 = ORIENTED_EDGE('',*,*,#679,.F.);
#782 = ORIENTED_EDGE('',*,*,#670,.F.);
#783 = ORIENTED_EDGE('',*,*,#710,.T.);
#784 = ORIENTED_EDGE('',*,*,#743,.T.);
#785 = ORIENTED_EDGE('',*,*,#752,.T.);
#786 = CYLINDRICAL_SURFACE('',#787,0.5);
#787 = AXIS2_PLACEMENT_3D('',#788,#789,#790);
#788 = CARTESIAN_POINT('',(45.5,-61.9,12.99));
#789 = DIRECTION('',(-0.,-0.,-1.));
#790 = DIRECTION('',(-1.421E-14,-1.,0.));
#791 = MANIFOLD_SOLID_BREP('',#792);
#792 = CLOSED_SHELL('',(#793,#833,#884,#915,#957,#971));
#793 = ADVANCED_FACE('',(#794),#828,.F.);
#794 = FACE_BOUND('',#795,.F.);
#795 = EDGE_LOOP('',(#796,#806,#814,#822));
#796 = ORIENTED_EDGE('',*,*,#797,.T.);
#797 = EDGE_CURVE('',#798,#800,#802,.T.);
#798 = VERTEX_POINT('',#799);
#799 = CARTESIAN_POINT('',(45.5,-63.6,12.99));
#800 = VERTEX_POINT('',#801);
#801 = CARTESIAN_POINT('',(45.5,-63.6,13.39));
#802 = LINE('',#803,#804);
#803 = CARTESIAN_POINT('',(45.5,-63.6,12.99));
#804 = VECTOR('',#805,1.);
#805 = DIRECTION('',(0.,0.,1.));
#806 = ORIENTED_EDGE('',*,*,#807,.T.);
#807 = EDGE_CURVE('',#800,#808,#810,.T.);
#808 = VERTEX_POINT('',#809);
#809 = CARTESIAN_POINT('',(36.,-63.6,13.39));
#810 = LINE('',#811,#812);
#811 = CARTESIAN_POINT('',(45.5,-63.6,13.39));
#812 = VECTOR('',#813,1.);
#813 = DIRECTION('',(-1.,0.,0.));
#814 = ORIENTED_EDGE('',*,*,#815,.F.);
#815 = EDGE_CURVE('',#816,#808,#818,.T.);
#816 = VERTEX_POINT('',#817);
#817 = CARTESIAN_POINT('',(36.,-63.6,12.99));
#818 = LINE('',#819,#820);
#819 = CARTESIAN_POINT('',(36.,-63.6,12.99));
#820 = VECTOR('',#821,1.);
#821 = DIRECTION('',(0.,0.,1.));
#822 = ORIENTED_EDGE('',*,*,#823,.F.);
#823 = EDGE_CURVE('',#798,#816,#824,.T.);
#824 = LINE('',#825,#826);
#825 = CARTESIAN_POINT('',(45.5,-63.6,12.99));
#826 = VECTOR('',#827,1.);
#827 = DIRECTION('',(-1.,0.,0.));
#828 = PLANE('',#829);
#829 = AXIS2_PLACEMENT_3D('',#830,#831,#832);
#830 = CARTESIAN_POINT('',(45.5,-63.6,12.99));
#831 = DIRECTION('',(0.,-1.,0.));
#832 = DIRECTION('',(-1.,0.,0.));
#833 = ADVANCED_FACE('',(#834),#879,.F.);
#834 = FACE_BOUND('',#835,.F.);
#835 = EDGE_LOOP('',(#836,#837,#846,#855,#863,#872));
#836 = ORIENTED_EDGE('',*,*,#823,.T.);
#837 = ORIENTED_EDGE('',*,*,#838,.T.);
#838 = EDGE_CURVE('',#816,#839,#841,.T.);
#839 = VERTEX_POINT('',#840);
#840 = CARTESIAN_POINT('',(35.5,-64.1,12.99));
#841 = CIRCLE('',#842,0.5);
#842 = AXIS2_PLACEMENT_3D('',#843,#844,#845);
#843 = CARTESIAN_POINT('',(36.,-64.1,12.99));
#844 = DIRECTION('',(0.,-0.,1.));
#845 = DIRECTION('',(1.421E-14,1.,0.));
#846 = ORIENTED_EDGE('',*,*,#847,.T.);
#847 = EDGE_CURVE('',#839,#848,#850,.T.);
#848 = VERTEX_POINT('',#849);
#849 = CARTESIAN_POINT('',(36.,-64.6,12.99));
#850 = CIRCLE('',#851,0.5);
#851 = AXIS2_PLACEMENT_3D('',#852,#853,#854);
#852 = CARTESIAN_POINT('',(36.,-64.1,12.99));
#853 = DIRECTION('',(0.,0.,1.));
#854 = DIRECTION('',(-1.,2.842E-14,0.));
#855 = ORIENTED_EDGE('',*,*,#856,.T.);
#856 = EDGE_CURVE('',#848,#857,#859,.T.);
#857 = VERTEX_POINT('',#858);
#858 = CARTESIAN_POINT('',(45.5,-64.6,12.99));
#859 = LINE('',#860,#861);
#860 = CARTESIAN_POINT('',(36.,-64.6,12.99));
#861 = VECTOR('',#862,1.);
#862 = DIRECTION('',(1.,0.,0.));
#863 = ORIENTED_EDGE('',*,*,#864,.T.);
#864 = EDGE_CURVE('',#857,#865,#867,.T.);
#865 = VERTEX_POINT('',#866);
#866 = CARTESIAN_POINT('',(46.,-64.1,12.99));
#867 = CIRCLE('',#868,0.5);
#868 = AXIS2_PLACEMENT_3D('',#869,#870,#871);
#869 = CARTESIAN_POINT('',(45.5,-64.1,12.99));
#870 = DIRECTION('',(0.,0.,1.));
#871 = DIRECTION('',(-1.421E-14,-1.,0.));
#872 = ORIENTED_EDGE('',*,*,#873,.T.);
#873 = EDGE_CURVE('',#865,#798,#874,.T.);
#874 = CIRCLE('',#875,0.5);
#875 = AXIS2_PLACEMENT_3D('',#876,#877,#878);
#876 = CARTESIAN_POINT('',(45.5,-64.1,12.99));
#877 = DIRECTION('',(-0.,0.,1.));
#878 = DIRECTION('',(1.,-2.842E-14,0.));
#879 = PLANE('',#880);
#880 = AXIS2_PLACEMENT_3D('',#881,#882,#883);
#881 = CARTESIAN_POINT('',(40.75,-64.1,12.99));
#882 = DIRECTION('',(0.,0.,1.));
#883 = DIRECTION('',(1.,0.,0.));
#884 = ADVANCED_FACE('',(#885),#910,.F.);
#885 = FACE_BOUND('',#886,.F.);
#886 = EDGE_LOOP('',(#887,#895,#903,#909));
#887 = ORIENTED_EDGE('',*,*,#888,.T.);
#888 = EDGE_CURVE('',#848,#889,#891,.T.);
#889 = VERTEX_POINT('',#890);
#890 = CARTESIAN_POINT('',(36.,-64.6,13.39));
#891 = LINE('',#892,#893);
#892 = CARTESIAN_POINT('',(36.,-64.6,12.99));
#893 = VECTOR('',#894,1.);
#894 = DIRECTION('',(0.,0.,1.));
#895 = ORIENTED_EDGE('',*,*,#896,.T.);
#896 = EDGE_CURVE('',#889,#897,#899,.T.);
#897 = VERTEX_POINT('',#898);
#898 = CARTESIAN_POINT('',(45.5,-64.6,13.39));
#899 = LINE('',#900,#901);
#900 = CARTESIAN_POINT('',(36.,-64.6,13.39));
#901 = VECTOR('',#902,1.);
#902 = DIRECTION('',(1.,0.,0.));
#903 = ORIENTED_EDGE('',*,*,#904,.F.);
#904 = EDGE_CURVE('',#857,#897,#905,.T.);
#905 = LINE('',#906,#907);
#906 = CARTESIAN_POINT('',(45.5,-64.6,12.99));
#907 = VECTOR('',#908,1.);
#908 = DIRECTION('',(0.,0.,1.));
#909 = ORIENTED_EDGE('',*,*,#856,.F.);
#910 = PLANE('',#911);
#911 = AXIS2_PLACEMENT_3D('',#912,#913,#914);
#912 = CARTESIAN_POINT('',(36.,-64.6,12.99));
#913 = DIRECTION('',(0.,1.,0.));
#914 = DIRECTION('',(1.,0.,0.));
#915 = ADVANCED_FACE('',(#916),#952,.T.);
#916 = FACE_BOUND('',#917,.T.);
#917 = EDGE_LOOP('',(#918,#919,#928,#935,#936,#945));
#918 = ORIENTED_EDGE('',*,*,#807,.T.);
#919 = ORIENTED_EDGE('',*,*,#920,.T.);
#920 = EDGE_CURVE('',#808,#921,#923,.T.);
#921 = VERTEX_POINT('',#922);
#922 = CARTESIAN_POINT('',(35.5,-64.1,13.39));
#923 = CIRCLE('',#924,0.5);
#924 = AXIS2_PLACEMENT_3D('',#925,#926,#927);
#925 = CARTESIAN_POINT('',(36.,-64.1,13.39));
#926 = DIRECTION('',(0.,-0.,1.));
#927 = DIRECTION('',(1.421E-14,1.,0.));
#928 = ORIENTED_EDGE('',*,*,#929,.T.);
#929 = EDGE_CURVE('',#921,#889,#930,.T.);
#930 = CIRCLE('',#931,0.5);
#931 = AXIS2_PLACEMENT_3D('',#932,#933,#934);
#932 = CARTESIAN_POINT('',(36.,-64.1,13.39));
#933 = DIRECTION('',(0.,0.,1.));
#934 = DIRECTION('',(-1.,2.842E-14,0.));
#935 = ORIENTED_EDGE('',*,*,#896,.T.);
#936 = ORIENTED_EDGE('',*,*,#937,.T.);
#937 = EDGE_CURVE('',#897,#938,#940,.T.);
#938 = VERTEX_POINT('',#939);
#939 = CARTESIAN_POINT('',(46.,-64.1,13.39));
#940 = CIRCLE('',#941,0.5);
#941 = AXIS2_PLACEMENT_3D('',#942,#943,#944);
#942 = CARTESIAN_POINT('',(45.5,-64.1,13.39));
#943 = DIRECTION('',(0.,0.,1.));
#944 = DIRECTION('',(-1.421E-14,-1.,0.));
#945 = ORIENTED_EDGE('',*,*,#946,.T.);
#946 = EDGE_CURVE('',#938,#800,#947,.T.);
#947 = CIRCLE('',#948,0.5);
#948 = AXIS2_PLACEMENT_3D('',#949,#950,#951);
#949 = CARTESIAN_POINT('',(45.5,-64.1,13.39));
#950 = DIRECTION('',(-0.,0.,1.));
#951 = DIRECTION('',(1.,-2.842E-14,0.));
#952 = PLANE('',#953);
#953 = AXIS2_PLACEMENT_3D('',#954,#955,#956);
#954 = CARTESIAN_POINT('',(40.75,-64.1,13.39));
#955 = DIRECTION('',(0.,0.,1.));
#956 = DIRECTION('',(1.,0.,0.));
#957 = ADVANCED_FACE('',(#958),#966,.T.);
#958 = FACE_BOUND('',#959,.F.);
#959 = EDGE_LOOP('',(#960,#961,#962,#963,#964,#965));
#960 = ORIENTED_EDGE('',*,*,#888,.F.);
#961 = ORIENTED_EDGE('',*,*,#847,.F.);
#962 = ORIENTED_EDGE('',*,*,#838,.F.);
#963 = ORIENTED_EDGE('',*,*,#815,.T.);
#964 = ORIENTED_EDGE('',*,*,#920,.T.);
#965 = ORIENTED_EDGE('',*,*,#929,.T.);
#966 = CYLINDRICAL_SURFACE('',#967,0.5);
#967 = AXIS2_PLACEMENT_3D('',#968,#969,#970);
#968 = CARTESIAN_POINT('',(36.,-64.1,12.99));
#969 = DIRECTION('',(0.,0.,-1.));
#970 = DIRECTION('',(1.421E-14,1.,0.));
#971 = ADVANCED_FACE('',(#972),#980,.T.);
#972 = FACE_BOUND('',#973,.F.);
#973 = EDGE_LOOP('',(#974,#975,#976,#977,#978,#979));
#974 = ORIENTED_EDGE('',*,*,#797,.F.);
#975 = ORIENTED_EDGE('',*,*,#873,.F.);
#976 = ORIENTED_EDGE('',*,*,#864,.F.);
#977 = ORIENTED_EDGE('',*,*,#904,.T.);
#978 = ORIENTED_EDGE('',*,*,#937,.T.);
#979 = ORIENTED_EDGE('',*,*,#946,.T.);
#980 = CYLINDRICAL_SURFACE('',#981,0.5);
#981 = AXIS2_PLACEMENT_3D('',#982,#983,#984);
#982 = CARTESIAN_POINT('',(45.5,-64.1,12.99));
#983 = DIRECTION('',(-0.,-0.,-1.));
#984 = DIRECTION('',(-1.421E-14,-1.,0.));
#985 = MANIFOLD_SOLID_BREP('',#986);
#986 = CLOSED_SHELL('',(#987,#1027,#1060,#1093,#1284,#1475,#1492,#1509,
    #1526,#1543,#1555,#1577,#1594,#1611,#1628,#1645,#1662,#1679,#1691,
    #1713,#1730,#1747,#1764,#1781,#1798,#1815));
#987 = ADVANCED_FACE('',(#988),#1022,.F.);
#988 = FACE_BOUND('',#989,.F.);
#989 = EDGE_LOOP('',(#990,#1000,#1008,#1016));
#990 = ORIENTED_EDGE('',*,*,#991,.T.);
#991 = EDGE_CURVE('',#992,#994,#996,.T.);
#992 = VERTEX_POINT('',#993);
#993 = CARTESIAN_POINT('',(46.7,-12.2,12.99));
#994 = VERTEX_POINT('',#995);
#995 = CARTESIAN_POINT('',(46.7,-12.2,13.39));
#996 = LINE('',#997,#998);
#997 = CARTESIAN_POINT('',(46.7,-12.2,12.99));
#998 = VECTOR('',#999,1.);
#999 = DIRECTION('',(0.,0.,1.));
#1000 = ORIENTED_EDGE('',*,*,#1001,.T.);
#1001 = EDGE_CURVE('',#994,#1002,#1004,.T.);
#1002 = VERTEX_POINT('',#1003);
#1003 = CARTESIAN_POINT('',(27.3,-12.2,13.39));
#1004 = LINE('',#1005,#1006);
#1005 = CARTESIAN_POINT('',(46.7,-12.2,13.39));
#1006 = VECTOR('',#1007,1.);
#1007 = DIRECTION('',(-1.,0.,0.));
#1008 = ORIENTED_EDGE('',*,*,#1009,.F.);
#1009 = EDGE_CURVE('',#1010,#1002,#1012,.T.);
#1010 = VERTEX_POINT('',#1011);
#1011 = CARTESIAN_POINT('',(27.3,-12.2,12.99));
#1012 = LINE('',#1013,#1014);
#1013 = CARTESIAN_POINT('',(27.3,-12.2,12.99));
#1014 = VECTOR('',#1015,1.);
#1015 = DIRECTION('',(0.,0.,1.));
#1016 = ORIENTED_EDGE('',*,*,#1017,.F.);
#1017 = EDGE_CURVE('',#992,#1010,#1018,.T.);
#1018 = LINE('',#1019,#1020);
#1019 = CARTESIAN_POINT('',(46.7,-12.2,12.99));
#1020 = VECTOR('',#1021,1.);
#1021 = DIRECTION('',(-1.,0.,0.));
#1022 = PLANE('',#1023);
#1023 = AXIS2_PLACEMENT_3D('',#1024,#1025,#1026);
#1024 = CARTESIAN_POINT('',(46.7,-12.2,12.99));
#1025 = DIRECTION('',(0.,-1.,0.));
#1026 = DIRECTION('',(-1.,0.,0.));
#1027 = ADVANCED_FACE('',(#1028),#1055,.T.);
#1028 = FACE_BOUND('',#1029,.F.);
#1029 = EDGE_LOOP('',(#1030,#1040,#1047,#1048));
#1030 = ORIENTED_EDGE('',*,*,#1031,.T.);
#1031 = EDGE_CURVE('',#1032,#1034,#1036,.T.);
#1032 = VERTEX_POINT('',#1033);
#1033 = CARTESIAN_POINT('',(47.8,-13.3,12.99));
#1034 = VERTEX_POINT('',#1035);
#1035 = CARTESIAN_POINT('',(47.8,-13.3,13.39));
#1036 = LINE('',#1037,#1038);
#1037 = CARTESIAN_POINT('',(47.8,-13.3,12.99));
#1038 = VECTOR('',#1039,1.);
#1039 = DIRECTION('',(0.,0.,1.));
#1040 = ORIENTED_EDGE('',*,*,#1041,.T.);
#1041 = EDGE_CURVE('',#1034,#994,#1042,.T.);
#1042 = CIRCLE('',#1043,1.1);
#1043 = AXIS2_PLACEMENT_3D('',#1044,#1045,#1046);
#1044 = CARTESIAN_POINT('',(46.7,-13.3,13.39));
#1045 = DIRECTION('',(0.,0.,1.));
#1046 = DIRECTION('',(1.,0.,0.));
#1047 = ORIENTED_EDGE('',*,*,#991,.F.);
#1048 = ORIENTED_EDGE('',*,*,#1049,.F.);
#1049 = EDGE_CURVE('',#1032,#992,#1050,.T.);
#1050 = CIRCLE('',#1051,1.1);
#1051 = AXIS2_PLACEMENT_3D('',#1052,#1053,#1054);
#1052 = CARTESIAN_POINT('',(46.7,-13.3,12.99));
#1053 = DIRECTION('',(0.,0.,1.));
#1054 = DIRECTION('',(1.,0.,0.));
#1055 = CYLINDRICAL_SURFACE('',#1056,1.1);
#1056 = AXIS2_PLACEMENT_3D('',#1057,#1058,#1059);
#1057 = CARTESIAN_POINT('',(46.7,-13.3,12.99));
#1058 = DIRECTION('',(-0.,-0.,-1.));
#1059 = DIRECTION('',(1.,0.,0.));
#1060 = ADVANCED_FACE('',(#1061),#1088,.T.);
#1061 = FACE_BOUND('',#1062,.F.);
#1062 = EDGE_LOOP('',(#1063,#1064,#1073,#1081));
#1063 = ORIENTED_EDGE('',*,*,#1009,.T.);
#1064 = ORIENTED_EDGE('',*,*,#1065,.T.);
#1065 = EDGE_CURVE('',#1002,#1066,#1068,.T.);
#1066 = VERTEX_POINT('',#1067);
#1067 = CARTESIAN_POINT('',(26.2,-13.3,13.39));
#1068 = CIRCLE('',#1069,1.1);
#1069 = AXIS2_PLACEMENT_3D('',#1070,#1071,#1072);
#1070 = CARTESIAN_POINT('',(27.3,-13.3,13.39));
#1071 = DIRECTION('',(0.,0.,1.));
#1072 = DIRECTION('',(-3.23E-15,1.,0.));
#1073 = ORIENTED_EDGE('',*,*,#1074,.F.);
#1074 = EDGE_CURVE('',#1075,#1066,#1077,.T.);
#1075 = VERTEX_POINT('',#1076);
#1076 = CARTESIAN_POINT('',(26.2,-13.3,12.99));
#1077 = LINE('',#1078,#1079);
#1078 = CARTESIAN_POINT('',(26.2,-13.3,12.99));
#1079 = VECTOR('',#1080,1.);
#1080 = DIRECTION('',(0.,0.,1.));
#1081 = ORIENTED_EDGE('',*,*,#1082,.F.);
#1082 = EDGE_CURVE('',#1010,#1075,#1083,.T.);
#1083 = CIRCLE('',#1084,1.1);
#1084 = AXIS2_PLACEMENT_3D('',#1085,#1086,#1087);
#1085 = CARTESIAN_POINT('',(27.3,-13.3,12.99));
#1086 = DIRECTION('',(0.,0.,1.));
#1087 = DIRECTION('',(-3.23E-15,1.,0.));
#1088 = CYLINDRICAL_SURFACE('',#1089,1.1);
#1089 = AXIS2_PLACEMENT_3D('',#1090,#1091,#1092);
#1090 = CARTESIAN_POINT('',(27.3,-13.3,12.99));
#1091 = DIRECTION('',(-0.,-0.,-1.));
#1092 = DIRECTION('',(-3.23E-15,1.,0.));
#1093 = ADVANCED_FACE('',(#1094,#1139,#1209),#1279,.T.);
#1094 = FACE_BOUND('',#1095,.T.);
#1095 = EDGE_LOOP('',(#1096,#1097,#1105,#1114,#1122,#1131,#1137,#1138));
#1096 = ORIENTED_EDGE('',*,*,#1049,.F.);
#1097 = ORIENTED_EDGE('',*,*,#1098,.F.);
#1098 = EDGE_CURVE('',#1099,#1032,#1101,.T.);
#1099 = VERTEX_POINT('',#1100);
#1100 = CARTESIAN_POINT('',(47.8,-53.,12.99));
#1101 = LINE('',#1102,#1103);
#1102 = CARTESIAN_POINT('',(47.8,-53.,12.99));
#1103 = VECTOR('',#1104,1.);
#1104 = DIRECTION('',(0.,1.,0.));
#1105 = ORIENTED_EDGE('',*,*,#1106,.F.);
#1106 = EDGE_CURVE('',#1107,#1099,#1109,.T.);
#1107 = VERTEX_POINT('',#1108);
#1108 = CARTESIAN_POINT('',(46.7,-54.1,12.99));
#1109 = CIRCLE('',#1110,1.1);
#1110 = AXIS2_PLACEMENT_3D('',#1111,#1112,#1113);
#1111 = CARTESIAN_POINT('',(46.7,-53.,12.99));
#1112 = DIRECTION('',(-0.,0.,1.));
#1113 = DIRECTION('',(6.46E-15,-1.,0.));
#1114 = ORIENTED_EDGE('',*,*,#1115,.F.);
#1115 = EDGE_CURVE('',#1116,#1107,#1118,.T.);
#1116 = VERTEX_POINT('',#1117);
#1117 = CARTESIAN_POINT('',(27.3,-54.1,12.99));
#1118 = LINE('',#1119,#1120);
#1119 = CARTESIAN_POINT('',(27.3,-54.1,12.99));
#1120 = VECTOR('',#1121,1.);
#1121 = DIRECTION('',(1.,0.,0.));
#1122 = ORIENTED_EDGE('',*,*,#1123,.F.);
#1123 = EDGE_CURVE('',#1124,#1116,#1126,.T.);
#1124 = VERTEX_POINT('',#1125);
#1125 = CARTESIAN_POINT('',(26.2,-53.,12.99));
#1126 = CIRCLE('',#1127,1.1);
#1127 = AXIS2_PLACEMENT_3D('',#1128,#1129,#1130);
#1128 = CARTESIAN_POINT('',(27.3,-53.,12.99));
#1129 = DIRECTION('',(0.,0.,1.));
#1130 = DIRECTION('',(-1.,0.,0.));
#1131 = ORIENTED_EDGE('',*,*,#1132,.F.);
#1132 = EDGE_CURVE('',#1075,#1124,#1133,.T.);
#1133 = LINE('',#1134,#1135);
#1134 = CARTESIAN_POINT('',(26.2,-13.3,12.99));
#1135 = VECTOR('',#1136,1.);
#1136 = DIRECTION('',(0.,-1.,0.));
#1137 = ORIENTED_EDGE('',*,*,#1082,.F.);
#1138 = ORIENTED_EDGE('',*,*,#1017,.F.);
#1139 = FACE_BOUND('',#1140,.T.);
#1140 = EDGE_LOOP('',(#1141,#1151,#1160,#1168,#1177,#1185,#1194,#1202));
#1141 = ORIENTED_EDGE('',*,*,#1142,.T.);
#1142 = EDGE_CURVE('',#1143,#1145,#1147,.T.);
#1143 = VERTEX_POINT('',#1144);
#1144 = CARTESIAN_POINT('',(45.25,-14.65,12.99));
#1145 = VERTEX_POINT('',#1146);
#1146 = CARTESIAN_POINT('',(29.15,-14.65,12.99));
#1147 = LINE('',#1148,#1149);
#1148 = CARTESIAN_POINT('',(45.25,-14.65,12.99));
#1149 = VECTOR('',#1150,1.);
#1150 = DIRECTION('',(-1.,0.,0.));
#1151 = ORIENTED_EDGE('',*,*,#1152,.T.);
#1152 = EDGE_CURVE('',#1145,#1153,#1155,.T.);
#1153 = VERTEX_POINT('',#1154);
#1154 = CARTESIAN_POINT('',(28.85,-14.95,12.99));
#1155 = CIRCLE('',#1156,0.3);
#1156 = AXIS2_PLACEMENT_3D('',#1157,#1158,#1159);
#1157 = CARTESIAN_POINT('',(29.15,-14.95,12.99));
#1158 = DIRECTION('',(0.,-0.,1.));
#1159 = DIRECTION('',(1.1842E-13,1.,0.));
#1160 = ORIENTED_EDGE('',*,*,#1161,.T.);
#1161 = EDGE_CURVE('',#1153,#1162,#1164,.T.);
#1162 = VERTEX_POINT('',#1163);
#1163 = CARTESIAN_POINT('',(28.85,-52.95,12.99));
#1164 = LINE('',#1165,#1166);
#1165 = CARTESIAN_POINT('',(28.85,-14.95,12.99));
#1166 = VECTOR('',#1167,1.);
#1167 = DIRECTION('',(0.,-1.,0.));
#1168 = ORIENTED_EDGE('',*,*,#1169,.T.);
#1169 = EDGE_CURVE('',#1162,#1170,#1172,.T.);
#1170 = VERTEX_POINT('',#1171);
#1171 = CARTESIAN_POINT('',(29.15,-53.25,12.99));
#1172 = CIRCLE('',#1173,0.3);
#1173 = AXIS2_PLACEMENT_3D('',#1174,#1175,#1176);
#1174 = CARTESIAN_POINT('',(29.15,-52.95,12.99));
#1175 = DIRECTION('',(0.,0.,1.));
#1176 = DIRECTION('',(-1.,4.737E-14,0.));
#1177 = ORIENTED_EDGE('',*,*,#1178,.T.);
#1178 = EDGE_CURVE('',#1170,#1179,#1181,.T.);
#1179 = VERTEX_POINT('',#1180);
#1180 = CARTESIAN_POINT('',(45.25,-53.25,12.99));
#1181 = LINE('',#1182,#1183);
#1182 = CARTESIAN_POINT('',(29.15,-53.25,12.99));
#1183 = VECTOR('',#1184,1.);
#1184 = DIRECTION('',(1.,0.,0.));
#1185 = ORIENTED_EDGE('',*,*,#1186,.T.);
#1186 = EDGE_CURVE('',#1179,#1187,#1189,.T.);
#1187 = VERTEX_POINT('',#1188);
#1188 = CARTESIAN_POINT('',(45.55,-52.95,12.99));
#1189 = CIRCLE('',#1190,0.3);
#1190 = AXIS2_PLACEMENT_3D('',#1191,#1192,#1193);
#1191 = CARTESIAN_POINT('',(45.25,-52.95,12.99));
#1192 = DIRECTION('',(-0.,0.,1.));
#1193 = DIRECTION('',(2.368E-14,-1.,0.));
#1194 = ORIENTED_EDGE('',*,*,#1195,.T.);
#1195 = EDGE_CURVE('',#1187,#1196,#1198,.T.);
#1196 = VERTEX_POINT('',#1197);
#1197 = CARTESIAN_POINT('',(45.55,-14.95,12.99));
#1198 = LINE('',#1199,#1200);
#1199 = CARTESIAN_POINT('',(45.55,-52.95,12.99));
#1200 = VECTOR('',#1201,1.);
#1201 = DIRECTION('',(0.,1.,0.));
#1202 = ORIENTED_EDGE('',*,*,#1203,.T.);
#1203 = EDGE_CURVE('',#1196,#1143,#1204,.T.);
#1204 = CIRCLE('',#1205,0.3);
#1205 = AXIS2_PLACEMENT_3D('',#1206,#1207,#1208);
#1206 = CARTESIAN_POINT('',(45.25,-14.95,12.99));
#1207 = DIRECTION('',(0.,-0.,1.));
#1208 = DIRECTION('',(1.,5.92E-15,0.));
#1209 = FACE_BOUND('',#1210,.T.);
#1210 = EDGE_LOOP('',(#1211,#1222,#1230,#1239,#1247,#1256,#1264,#1273));
#1211 = ORIENTED_EDGE('',*,*,#1212,.T.);
#1212 = EDGE_CURVE('',#1213,#1215,#1217,.T.);
#1213 = VERTEX_POINT('',#1214);
#1214 = CARTESIAN_POINT('',(47.6,-13.2,12.99));
#1215 = VERTEX_POINT('',#1216);
#1216 = CARTESIAN_POINT('',(46.8,-12.4,12.99));
#1217 = CIRCLE('',#1218,0.8);
#1218 = AXIS2_PLACEMENT_3D('',#1219,#1220,#1221);
#1219 = CARTESIAN_POINT('',(46.8,-13.2,12.99));
#1220 = DIRECTION('',(-0.,0.,1.));
#1221 = DIRECTION('',(1.,-6.66E-15,0.));
#1222 = ORIENTED_EDGE('',*,*,#1223,.T.);
#1223 = EDGE_CURVE('',#1215,#1224,#1226,.T.);
#1224 = VERTEX_POINT('',#1225);
#1225 = CARTESIAN_POINT('',(27.2,-12.4,12.99));
#1226 = LINE('',#1227,#1228);
#1227 = CARTESIAN_POINT('',(46.8,-12.4,12.99));
#1228 = VECTOR('',#1229,1.);
#1229 = DIRECTION('',(-1.,0.,0.));
#1230 = ORIENTED_EDGE('',*,*,#1231,.T.);
#1231 = EDGE_CURVE('',#1224,#1232,#1234,.T.);
#1232 = VERTEX_POINT('',#1233);
#1233 = CARTESIAN_POINT('',(26.4,-13.2,12.99));
#1234 = CIRCLE('',#1235,0.8);
#1235 = AXIS2_PLACEMENT_3D('',#1236,#1237,#1238);
#1236 = CARTESIAN_POINT('',(27.2,-13.2,12.99));
#1237 = DIRECTION('',(0.,0.,1.));
#1238 = DIRECTION('',(-1.332E-14,1.,0.));
#1239 = ORIENTED_EDGE('',*,*,#1240,.T.);
#1240 = EDGE_CURVE('',#1232,#1241,#1243,.T.);
#1241 = VERTEX_POINT('',#1242);
#1242 = CARTESIAN_POINT('',(26.4,-13.6,12.99));
#1243 = LINE('',#1244,#1245);
#1244 = CARTESIAN_POINT('',(26.4,-13.2,12.99));
#1245 = VECTOR('',#1246,1.);
#1246 = DIRECTION('',(0.,-1.,0.));
#1247 = ORIENTED_EDGE('',*,*,#1248,.T.);
#1248 = EDGE_CURVE('',#1241,#1249,#1251,.T.);
#1249 = VERTEX_POINT('',#1250);
#1250 = CARTESIAN_POINT('',(27.2,-14.4,12.99));
#1251 = CIRCLE('',#1252,0.8);
#1252 = AXIS2_PLACEMENT_3D('',#1253,#1254,#1255);
#1253 = CARTESIAN_POINT('',(27.2,-13.6,12.99));
#1254 = DIRECTION('',(0.,0.,1.));
#1255 = DIRECTION('',(-1.,-2.442E-14,0.));
#1256 = ORIENTED_EDGE('',*,*,#1257,.T.);
#1257 = EDGE_CURVE('',#1249,#1258,#1260,.T.);
#1258 = VERTEX_POINT('',#1259);
#1259 = CARTESIAN_POINT('',(46.8,-14.4,12.99));
#1260 = LINE('',#1261,#1262);
#1261 = CARTESIAN_POINT('',(27.2,-14.4,12.99));
#1262 = VECTOR('',#1263,1.);
#1263 = DIRECTION('',(1.,0.,0.));
#1264 = ORIENTED_EDGE('',*,*,#1265,.T.);
#1265 = EDGE_CURVE('',#1258,#1266,#1268,.T.);
#1266 = VERTEX_POINT('',#1267);
#1267 = CARTESIAN_POINT('',(47.6,-13.6,12.99));
#1268 = CIRCLE('',#1269,0.8);
#1269 = AXIS2_PLACEMENT_3D('',#1270,#1271,#1272);
#1270 = CARTESIAN_POINT('',(46.8,-13.6,12.99));
#1271 = DIRECTION('',(-0.,0.,1.));
#1272 = DIRECTION('',(0.,-1.,0.));
#1273 = ORIENTED_EDGE('',*,*,#1274,.T.);
#1274 = EDGE_CURVE('',#1266,#1213,#1275,.T.);
#1275 = LINE('',#1276,#1277);
#1276 = CARTESIAN_POINT('',(47.6,-13.6,12.99));
#1277 = VECTOR('',#1278,1.);
#1278 = DIRECTION('',(0.,1.,0.));
#1279 = PLANE('',#1280);
#1280 = AXIS2_PLACEMENT_3D('',#1281,#1282,#1283);
#1281 = CARTESIAN_POINT('',(37.,-33.15,12.99));
#1282 = DIRECTION('',(-0.,-0.,-1.));
#1283 = DIRECTION('',(-1.,0.,0.));
#1284 = ADVANCED_FACE('',(#1285,#1330,#1400),#1470,.T.);
#1285 = FACE_BOUND('',#1286,.T.);
#1286 = EDGE_LOOP('',(#1287,#1288,#1289,#1297,#1306,#1314,#1323,#1329));
#1287 = ORIENTED_EDGE('',*,*,#1001,.T.);
#1288 = ORIENTED_EDGE('',*,*,#1065,.T.);
#1289 = ORIENTED_EDGE('',*,*,#1290,.T.);
#1290 = EDGE_CURVE('',#1066,#1291,#1293,.T.);
#1291 = VERTEX_POINT('',#1292);
#1292 = CARTESIAN_POINT('',(26.2,-53.,13.39));
#1293 = LINE('',#1294,#1295);
#1294 = CARTESIAN_POINT('',(26.2,-13.3,13.39));
#1295 = VECTOR('',#1296,1.);
#1296 = DIRECTION('',(0.,-1.,0.));
#1297 = ORIENTED_EDGE('',*,*,#1298,.T.);
#1298 = EDGE_CURVE('',#1291,#1299,#1301,.T.);
#1299 = VERTEX_POINT('',#1300);
#1300 = CARTESIAN_POINT('',(27.3,-54.1,13.39));
#1301 = CIRCLE('',#1302,1.1);
#1302 = AXIS2_PLACEMENT_3D('',#1303,#1304,#1305);
#1303 = CARTESIAN_POINT('',(27.3,-53.,13.39));
#1304 = DIRECTION('',(0.,0.,1.));
#1305 = DIRECTION('',(-1.,0.,0.));
#1306 = ORIENTED_EDGE('',*,*,#1307,.T.);
#1307 = EDGE_CURVE('',#1299,#1308,#1310,.T.);
#1308 = VERTEX_POINT('',#1309);
#1309 = CARTESIAN_POINT('',(46.7,-54.1,13.39));
#1310 = LINE('',#1311,#1312);
#1311 = CARTESIAN_POINT('',(27.3,-54.1,13.39));
#1312 = VECTOR('',#1313,1.);
#1313 = DIRECTION('',(1.,0.,0.));
#1314 = ORIENTED_EDGE('',*,*,#1315,.T.);
#1315 = EDGE_CURVE('',#1308,#1316,#1318,.T.);
#1316 = VERTEX_POINT('',#1317);
#1317 = CARTESIAN_POINT('',(47.8,-53.,13.39));
#1318 = CIRCLE('',#1319,1.1);
#1319 = AXIS2_PLACEMENT_3D('',#1320,#1321,#1322);
#1320 = CARTESIAN_POINT('',(46.7,-53.,13.39));
#1321 = DIRECTION('',(-0.,0.,1.));
#1322 = DIRECTION('',(6.46E-15,-1.,0.));
#1323 = ORIENTED_EDGE('',*,*,#1324,.T.);
#1324 = EDGE_CURVE('',#1316,#1034,#1325,.T.);
#1325 = LINE('',#1326,#1327);
#1326 = CARTESIAN_POINT('',(47.8,-53.,13.39));
#1327 = VECTOR('',#1328,1.);
#1328 = DIRECTION('',(0.,1.,0.));
#1329 = ORIENTED_EDGE('',*,*,#1041,.T.);
#1330 = FACE_BOUND('',#1331,.T.);
#1331 = EDGE_LOOP('',(#1332,#1342,#1351,#1359,#1368,#1376,#1385,#1393));
#1332 = ORIENTED_EDGE('',*,*,#1333,.F.);
#1333 = EDGE_CURVE('',#1334,#1336,#1338,.T.);
#1334 = VERTEX_POINT('',#1335);
#1335 = CARTESIAN_POINT('',(45.25,-14.65,13.39));
#1336 = VERTEX_POINT('',#1337);
#1337 = CARTESIAN_POINT('',(29.15,-14.65,13.39));
#1338 = LINE('',#1339,#1340);
#1339 = CARTESIAN_POINT('',(45.25,-14.65,13.39));
#1340 = VECTOR('',#1341,1.);
#1341 = DIRECTION('',(-1.,0.,0.));
#1342 = ORIENTED_EDGE('',*,*,#1343,.F.);
#1343 = EDGE_CURVE('',#1344,#1334,#1346,.T.);
#1344 = VERTEX_POINT('',#1345);
#1345 = CARTESIAN_POINT('',(45.55,-14.95,13.39));
#1346 = CIRCLE('',#1347,0.3);
#1347 = AXIS2_PLACEMENT_3D('',#1348,#1349,#1350);
#1348 = CARTESIAN_POINT('',(45.25,-14.95,13.39));
#1349 = DIRECTION('',(0.,-0.,1.));
#1350 = DIRECTION('',(1.,5.92E-15,0.));
#1351 = ORIENTED_EDGE('',*,*,#1352,.F.);
#1352 = EDGE_CURVE('',#1353,#1344,#1355,.T.);
#1353 = VERTEX_POINT('',#1354);
#1354 = CARTESIAN_POINT('',(45.55,-52.95,13.39));
#1355 = LINE('',#1356,#1357);
#1356 = CARTESIAN_POINT('',(45.55,-52.95,13.39));
#1357 = VECTOR('',#1358,1.);
#1358 = DIRECTION('',(0.,1.,0.));
#1359 = ORIENTED_EDGE('',*,*,#1360,.F.);
#1360 = EDGE_CURVE('',#1361,#1353,#1363,.T.);
#1361 = VERTEX_POINT('',#1362);
#1362 = CARTESIAN_POINT('',(45.25,-53.25,13.39));
#1363 = CIRCLE('',#1364,0.3);
#1364 = AXIS2_PLACEMENT_3D('',#1365,#1366,#1367);
#1365 = CARTESIAN_POINT('',(45.25,-52.95,13.39));
#1366 = DIRECTION('',(-0.,0.,1.));
#1367 = DIRECTION('',(2.368E-14,-1.,0.));
#1368 = ORIENTED_EDGE('',*,*,#1369,.F.);
#1369 = EDGE_CURVE('',#1370,#1361,#1372,.T.);
#1370 = VERTEX_POINT('',#1371);
#1371 = CARTESIAN_POINT('',(29.15,-53.25,13.39));
#1372 = LINE('',#1373,#1374);
#1373 = CARTESIAN_POINT('',(29.15,-53.25,13.39));
#1374 = VECTOR('',#1375,1.);
#1375 = DIRECTION('',(1.,0.,0.));
#1376 = ORIENTED_EDGE('',*,*,#1377,.F.);
#1377 = EDGE_CURVE('',#1378,#1370,#1380,.T.);
#1378 = VERTEX_POINT('',#1379);
#1379 = CARTESIAN_POINT('',(28.85,-52.95,13.39));
#1380 = CIRCLE('',#1381,0.3);
#1381 = AXIS2_PLACEMENT_3D('',#1382,#1383,#1384);
#1382 = CARTESIAN_POINT('',(29.15,-52.95,13.39));
#1383 = DIRECTION('',(0.,0.,1.));
#1384 = DIRECTION('',(-1.,4.737E-14,0.));
#1385 = ORIENTED_EDGE('',*,*,#1386,.F.);
#1386 = EDGE_CURVE('',#1387,#1378,#1389,.T.);
#1387 = VERTEX_POINT('',#1388);
#1388 = CARTESIAN_POINT('',(28.85,-14.95,13.39));
#1389 = LINE('',#1390,#1391);
#1390 = CARTESIAN_POINT('',(28.85,-14.95,13.39));
#1391 = VECTOR('',#1392,1.);
#1392 = DIRECTION('',(0.,-1.,0.));
#1393 = ORIENTED_EDGE('',*,*,#1394,.F.);
#1394 = EDGE_CURVE('',#1336,#1387,#1395,.T.);
#1395 = CIRCLE('',#1396,0.3);
#1396 = AXIS2_PLACEMENT_3D('',#1397,#1398,#1399);
#1397 = CARTESIAN_POINT('',(29.15,-14.95,13.39));
#1398 = DIRECTION('',(0.,-0.,1.));
#1399 = DIRECTION('',(1.1842E-13,1.,0.));
#1400 = FACE_BOUND('',#1401,.T.);
#1401 = EDGE_LOOP('',(#1402,#1412,#1421,#1429,#1438,#1446,#1455,#1463));
#1402 = ORIENTED_EDGE('',*,*,#1403,.F.);
#1403 = EDGE_CURVE('',#1404,#1406,#1408,.T.);
#1404 = VERTEX_POINT('',#1405);
#1405 = CARTESIAN_POINT('',(46.8,-12.4,13.39));
#1406 = VERTEX_POINT('',#1407);
#1407 = CARTESIAN_POINT('',(27.2,-12.4,13.39));
#1408 = LINE('',#1409,#1410);
#1409 = CARTESIAN_POINT('',(46.8,-12.4,13.39));
#1410 = VECTOR('',#1411,1.);
#1411 = DIRECTION('',(-1.,0.,0.));
#1412 = ORIENTED_EDGE('',*,*,#1413,.F.);
#1413 = EDGE_CURVE('',#1414,#1404,#1416,.T.);
#1414 = VERTEX_POINT('',#1415);
#1415 = CARTESIAN_POINT('',(47.6,-13.2,13.39));
#1416 = CIRCLE('',#1417,0.8);
#1417 = AXIS2_PLACEMENT_3D('',#1418,#1419,#1420);
#1418 = CARTESIAN_POINT('',(46.8,-13.2,13.39));
#1419 = DIRECTION('',(-0.,0.,1.));
#1420 = DIRECTION('',(1.,-6.66E-15,0.));
#1421 = ORIENTED_EDGE('',*,*,#1422,.F.);
#1422 = EDGE_CURVE('',#1423,#1414,#1425,.T.);
#1423 = VERTEX_POINT('',#1424);
#1424 = CARTESIAN_POINT('',(47.6,-13.6,13.39));
#1425 = LINE('',#1426,#1427);
#1426 = CARTESIAN_POINT('',(47.6,-13.6,13.39));
#1427 = VECTOR('',#1428,1.);
#1428 = DIRECTION('',(0.,1.,0.));
#1429 = ORIENTED_EDGE('',*,*,#1430,.F.);
#1430 = EDGE_CURVE('',#1431,#1423,#1433,.T.);
#1431 = VERTEX_POINT('',#1432);
#1432 = CARTESIAN_POINT('',(46.8,-14.4,13.39));
#1433 = CIRCLE('',#1434,0.8);
#1434 = AXIS2_PLACEMENT_3D('',#1435,#1436,#1437);
#1435 = CARTESIAN_POINT('',(46.8,-13.6,13.39));
#1436 = DIRECTION('',(-0.,0.,1.));
#1437 = DIRECTION('',(0.,-1.,0.));
#1438 = ORIENTED_EDGE('',*,*,#1439,.F.);
#1439 = EDGE_CURVE('',#1440,#1431,#1442,.T.);
#1440 = VERTEX_POINT('',#1441);
#1441 = CARTESIAN_POINT('',(27.2,-14.4,13.39));
#1442 = LINE('',#1443,#1444);
#1443 = CARTESIAN_POINT('',(27.2,-14.4,13.39));
#1444 = VECTOR('',#1445,1.);
#1445 = DIRECTION('',(1.,0.,0.));
#1446 = ORIENTED_EDGE('',*,*,#1447,.F.);
#1447 = EDGE_CURVE('',#1448,#1440,#1450,.T.);
#1448 = VERTEX_POINT('',#1449);
#1449 = CARTESIAN_POINT('',(26.4,-13.6,13.39));
#1450 = CIRCLE('',#1451,0.8);
#1451 = AXIS2_PLACEMENT_3D('',#1452,#1453,#1454);
#1452 = CARTESIAN_POINT('',(27.2,-13.6,13.39));
#1453 = DIRECTION('',(0.,0.,1.));
#1454 = DIRECTION('',(-1.,-2.442E-14,0.));
#1455 = ORIENTED_EDGE('',*,*,#1456,.F.);
#1456 = EDGE_CURVE('',#1457,#1448,#1459,.T.);
#1457 = VERTEX_POINT('',#1458);
#1458 = CARTESIAN_POINT('',(26.4,-13.2,13.39));
#1459 = LINE('',#1460,#1461);
#1460 = CARTESIAN_POINT('',(26.4,-13.2,13.39));
#1461 = VECTOR('',#1462,1.);
#1462 = DIRECTION('',(0.,-1.,0.));
#1463 = ORIENTED_EDGE('',*,*,#1464,.F.);
#1464 = EDGE_CURVE('',#1406,#1457,#1465,.T.);
#1465 = CIRCLE('',#1466,0.8);
#1466 = AXIS2_PLACEMENT_3D('',#1467,#1468,#1469);
#1467 = CARTESIAN_POINT('',(27.2,-13.2,13.39));
#1468 = DIRECTION('',(0.,0.,1.));
#1469 = DIRECTION('',(-1.332E-14,1.,0.));
#1470 = PLANE('',#1471);
#1471 = AXIS2_PLACEMENT_3D('',#1472,#1473,#1474);
#1472 = CARTESIAN_POINT('',(37.,-33.15,13.39));
#1473 = DIRECTION('',(0.,0.,1.));
#1474 = DIRECTION('',(1.,0.,0.));
#1475 = ADVANCED_FACE('',(#1476),#1487,.F.);
#1476 = FACE_BOUND('',#1477,.F.);
#1477 = EDGE_LOOP('',(#1478,#1484,#1485,#1486));
#1478 = ORIENTED_EDGE('',*,*,#1479,.T.);
#1479 = EDGE_CURVE('',#1099,#1316,#1480,.T.);
#1480 = LINE('',#1481,#1482);
#1481 = CARTESIAN_POINT('',(47.8,-53.,12.99));
#1482 = VECTOR('',#1483,1.);
#1483 = DIRECTION('',(0.,0.,1.));
#1484 = ORIENTED_EDGE('',*,*,#1324,.T.);
#1485 = ORIENTED_EDGE('',*,*,#1031,.F.);
#1486 = ORIENTED_EDGE('',*,*,#1098,.F.);
#1487 = PLANE('',#1488);
#1488 = AXIS2_PLACEMENT_3D('',#1489,#1490,#1491);
#1489 = CARTESIAN_POINT('',(47.8,-53.,12.99));
#1490 = DIRECTION('',(-1.,0.,0.));
#1491 = DIRECTION('',(0.,1.,0.));
#1492 = ADVANCED_FACE('',(#1493),#1504,.F.);
#1493 = FACE_BOUND('',#1494,.F.);
#1494 = EDGE_LOOP('',(#1495,#1496,#1497,#1503));
#1495 = ORIENTED_EDGE('',*,*,#1074,.T.);
#1496 = ORIENTED_EDGE('',*,*,#1290,.T.);
#1497 = ORIENTED_EDGE('',*,*,#1498,.F.);
#1498 = EDGE_CURVE('',#1124,#1291,#1499,.T.);
#1499 = LINE('',#1500,#1501);
#1500 = CARTESIAN_POINT('',(26.2,-53.,12.99));
#1501 = VECTOR('',#1502,1.);
#1502 = DIRECTION('',(0.,0.,1.));
#1503 = ORIENTED_EDGE('',*,*,#1132,.F.);
#1504 = PLANE('',#1505);
#1505 = AXIS2_PLACEMENT_3D('',#1506,#1507,#1508);
#1506 = CARTESIAN_POINT('',(26.2,-13.3,12.99));
#1507 = DIRECTION('',(1.,0.,0.));
#1508 = DIRECTION('',(0.,-1.,0.));
#1509 = ADVANCED_FACE('',(#1510),#1521,.T.);
#1510 = FACE_BOUND('',#1511,.F.);
#1511 = EDGE_LOOP('',(#1512,#1518,#1519,#1520));
#1512 = ORIENTED_EDGE('',*,*,#1513,.T.);
#1513 = EDGE_CURVE('',#1107,#1308,#1514,.T.);
#1514 = LINE('',#1515,#1516);
#1515 = CARTESIAN_POINT('',(46.7,-54.1,12.99));
#1516 = VECTOR('',#1517,1.);
#1517 = DIRECTION('',(0.,0.,1.));
#1518 = ORIENTED_EDGE('',*,*,#1315,.T.);
#1519 = ORIENTED_EDGE('',*,*,#1479,.F.);
#1520 = ORIENTED_EDGE('',*,*,#1106,.F.);
#1521 = CYLINDRICAL_SURFACE('',#1522,1.1);
#1522 = AXIS2_PLACEMENT_3D('',#1523,#1524,#1525);
#1523 = CARTESIAN_POINT('',(46.7,-53.,12.99));
#1524 = DIRECTION('',(0.,0.,-1.));
#1525 = DIRECTION('',(6.46E-15,-1.,0.));
#1526 = ADVANCED_FACE('',(#1527),#1538,.F.);
#1527 = FACE_BOUND('',#1528,.F.);
#1528 = EDGE_LOOP('',(#1529,#1535,#1536,#1537));
#1529 = ORIENTED_EDGE('',*,*,#1530,.T.);
#1530 = EDGE_CURVE('',#1116,#1299,#1531,.T.);
#1531 = LINE('',#1532,#1533);
#1532 = CARTESIAN_POINT('',(27.3,-54.1,12.99));
#1533 = VECTOR('',#1534,1.);
#1534 = DIRECTION('',(0.,0.,1.));
#1535 = ORIENTED_EDGE('',*,*,#1307,.T.);
#1536 = ORIENTED_EDGE('',*,*,#1513,.F.);
#1537 = ORIENTED_EDGE('',*,*,#1115,.F.);
#1538 = PLANE('',#1539);
#1539 = AXIS2_PLACEMENT_3D('',#1540,#1541,#1542);
#1540 = CARTESIAN_POINT('',(27.3,-54.1,12.99));
#1541 = DIRECTION('',(0.,1.,0.));
#1542 = DIRECTION('',(1.,0.,0.));
#1543 = ADVANCED_FACE('',(#1544),#1550,.T.);
#1544 = FACE_BOUND('',#1545,.F.);
#1545 = EDGE_LOOP('',(#1546,#1547,#1548,#1549));
#1546 = ORIENTED_EDGE('',*,*,#1498,.T.);
#1547 = ORIENTED_EDGE('',*,*,#1298,.T.);
#1548 = ORIENTED_EDGE('',*,*,#1530,.F.);
#1549 = ORIENTED_EDGE('',*,*,#1123,.F.);
#1550 = CYLINDRICAL_SURFACE('',#1551,1.1);
#1551 = AXIS2_PLACEMENT_3D('',#1552,#1553,#1554);
#1552 = CARTESIAN_POINT('',(27.3,-53.,12.99));
#1553 = DIRECTION('',(-0.,-0.,-1.));
#1554 = DIRECTION('',(-1.,0.,0.));
#1555 = ADVANCED_FACE('',(#1556),#1572,.T.);
#1556 = FACE_BOUND('',#1557,.T.);
#1557 = EDGE_LOOP('',(#1558,#1564,#1565,#1571));
#1558 = ORIENTED_EDGE('',*,*,#1559,.T.);
#1559 = EDGE_CURVE('',#1143,#1334,#1560,.T.);
#1560 = LINE('',#1561,#1562);
#1561 = CARTESIAN_POINT('',(45.25,-14.65,12.99));
#1562 = VECTOR('',#1563,1.);
#1563 = DIRECTION('',(0.,0.,1.));
#1564 = ORIENTED_EDGE('',*,*,#1333,.T.);
#1565 = ORIENTED_EDGE('',*,*,#1566,.F.);
#1566 = EDGE_CURVE('',#1145,#1336,#1567,.T.);
#1567 = LINE('',#1568,#1569);
#1568 = CARTESIAN_POINT('',(29.15,-14.65,12.99));
#1569 = VECTOR('',#1570,1.);
#1570 = DIRECTION('',(0.,0.,1.));
#1571 = ORIENTED_EDGE('',*,*,#1142,.F.);
#1572 = PLANE('',#1573);
#1573 = AXIS2_PLACEMENT_3D('',#1574,#1575,#1576);
#1574 = CARTESIAN_POINT('',(45.25,-14.65,12.99));
#1575 = DIRECTION('',(0.,-1.,0.));
#1576 = DIRECTION('',(-1.,0.,0.));
#1577 = ADVANCED_FACE('',(#1578),#1589,.F.);
#1578 = FACE_BOUND('',#1579,.T.);
#1579 = EDGE_LOOP('',(#1580,#1586,#1587,#1588));
#1580 = ORIENTED_EDGE('',*,*,#1581,.T.);
#1581 = EDGE_CURVE('',#1196,#1344,#1582,.T.);
#1582 = LINE('',#1583,#1584);
#1583 = CARTESIAN_POINT('',(45.55,-14.95,12.99));
#1584 = VECTOR('',#1585,1.);
#1585 = DIRECTION('',(0.,0.,1.));
#1586 = ORIENTED_EDGE('',*,*,#1343,.T.);
#1587 = ORIENTED_EDGE('',*,*,#1559,.F.);
#1588 = ORIENTED_EDGE('',*,*,#1203,.F.);
#1589 = CYLINDRICAL_SURFACE('',#1590,0.3);
#1590 = AXIS2_PLACEMENT_3D('',#1591,#1592,#1593);
#1591 = CARTESIAN_POINT('',(45.25,-14.95,12.99));
#1592 = DIRECTION('',(0.,0.,-1.));
#1593 = DIRECTION('',(1.,5.92E-15,0.));
#1594 = ADVANCED_FACE('',(#1595),#1606,.F.);
#1595 = FACE_BOUND('',#1596,.T.);
#1596 = EDGE_LOOP('',(#1597,#1598,#1599,#1605));
#1597 = ORIENTED_EDGE('',*,*,#1566,.T.);
#1598 = ORIENTED_EDGE('',*,*,#1394,.T.);
#1599 = ORIENTED_EDGE('',*,*,#1600,.F.);
#1600 = EDGE_CURVE('',#1153,#1387,#1601,.T.);
#1601 = LINE('',#1602,#1603);
#1602 = CARTESIAN_POINT('',(28.85,-14.95,12.99));
#1603 = VECTOR('',#1604,1.);
#1604 = DIRECTION('',(0.,0.,1.));
#1605 = ORIENTED_EDGE('',*,*,#1152,.F.);
#1606 = CYLINDRICAL_SURFACE('',#1607,0.3);
#1607 = AXIS2_PLACEMENT_3D('',#1608,#1609,#1610);
#1608 = CARTESIAN_POINT('',(29.15,-14.95,12.99));
#1609 = DIRECTION('',(0.,0.,-1.));
#1610 = DIRECTION('',(1.1842E-13,1.,0.));
#1611 = ADVANCED_FACE('',(#1612),#1623,.T.);
#1612 = FACE_BOUND('',#1613,.T.);
#1613 = EDGE_LOOP('',(#1614,#1620,#1621,#1622));
#1614 = ORIENTED_EDGE('',*,*,#1615,.T.);
#1615 = EDGE_CURVE('',#1187,#1353,#1616,.T.);
#1616 = LINE('',#1617,#1618);
#1617 = CARTESIAN_POINT('',(45.55,-52.95,12.99));
#1618 = VECTOR('',#1619,1.);
#1619 = DIRECTION('',(0.,0.,1.));
#1620 = ORIENTED_EDGE('',*,*,#1352,.T.);
#1621 = ORIENTED_EDGE('',*,*,#1581,.F.);
#1622 = ORIENTED_EDGE('',*,*,#1195,.F.);
#1623 = PLANE('',#1624);
#1624 = AXIS2_PLACEMENT_3D('',#1625,#1626,#1627);
#1625 = CARTESIAN_POINT('',(45.55,-52.95,12.99));
#1626 = DIRECTION('',(-1.,0.,0.));
#1627 = DIRECTION('',(0.,1.,0.));
#1628 = ADVANCED_FACE('',(#1629),#1640,.T.);
#1629 = FACE_BOUND('',#1630,.T.);
#1630 = EDGE_LOOP('',(#1631,#1632,#1633,#1639));
#1631 = ORIENTED_EDGE('',*,*,#1600,.T.);
#1632 = ORIENTED_EDGE('',*,*,#1386,.T.);
#1633 = ORIENTED_EDGE('',*,*,#1634,.F.);
#1634 = EDGE_CURVE('',#1162,#1378,#1635,.T.);
#1635 = LINE('',#1636,#1637);
#1636 = CARTESIAN_POINT('',(28.85,-52.95,12.99));
#1637 = VECTOR('',#1638,1.);
#1638 = DIRECTION('',(0.,0.,1.));
#1639 = ORIENTED_EDGE('',*,*,#1161,.F.);
#1640 = PLANE('',#1641);
#1641 = AXIS2_PLACEMENT_3D('',#1642,#1643,#1644);
#1642 = CARTESIAN_POINT('',(28.85,-14.95,12.99));
#1643 = DIRECTION('',(1.,0.,0.));
#1644 = DIRECTION('',(0.,-1.,0.));
#1645 = ADVANCED_FACE('',(#1646),#1657,.F.);
#1646 = FACE_BOUND('',#1647,.T.);
#1647 = EDGE_LOOP('',(#1648,#1654,#1655,#1656));
#1648 = ORIENTED_EDGE('',*,*,#1649,.T.);
#1649 = EDGE_CURVE('',#1179,#1361,#1650,.T.);
#1650 = LINE('',#1651,#1652);
#1651 = CARTESIAN_POINT('',(45.25,-53.25,12.99));
#1652 = VECTOR('',#1653,1.);
#1653 = DIRECTION('',(0.,0.,1.));
#1654 = ORIENTED_EDGE('',*,*,#1360,.T.);
#1655 = ORIENTED_EDGE('',*,*,#1615,.F.);
#1656 = ORIENTED_EDGE('',*,*,#1186,.F.);
#1657 = CYLINDRICAL_SURFACE('',#1658,0.3);
#1658 = AXIS2_PLACEMENT_3D('',#1659,#1660,#1661);
#1659 = CARTESIAN_POINT('',(45.25,-52.95,12.99));
#1660 = DIRECTION('',(0.,0.,-1.));
#1661 = DIRECTION('',(2.368E-14,-1.,0.));
#1662 = ADVANCED_FACE('',(#1663),#1674,.F.);
#1663 = FACE_BOUND('',#1664,.T.);
#1664 = EDGE_LOOP('',(#1665,#1666,#1667,#1673));
#1665 = ORIENTED_EDGE('',*,*,#1634,.T.);
#1666 = ORIENTED_EDGE('',*,*,#1377,.T.);
#1667 = ORIENTED_EDGE('',*,*,#1668,.F.);
#1668 = EDGE_CURVE('',#1170,#1370,#1669,.T.);
#1669 = LINE('',#1670,#1671);
#1670 = CARTESIAN_POINT('',(29.15,-53.25,12.99));
#1671 = VECTOR('',#1672,1.);
#1672 = DIRECTION('',(0.,0.,1.));
#1673 = ORIENTED_EDGE('',*,*,#1169,.F.);
#1674 = CYLINDRICAL_SURFACE('',#1675,0.3);
#1675 = AXIS2_PLACEMENT_3D('',#1676,#1677,#1678);
#1676 = CARTESIAN_POINT('',(29.15,-52.95,12.99));
#1677 = DIRECTION('',(-0.,-0.,-1.));
#1678 = DIRECTION('',(-1.,4.737E-14,0.));
#1679 = ADVANCED_FACE('',(#1680),#1686,.T.);
#1680 = FACE_BOUND('',#1681,.T.);
#1681 = EDGE_LOOP('',(#1682,#1683,#1684,#1685));
#1682 = ORIENTED_EDGE('',*,*,#1668,.T.);
#1683 = ORIENTED_EDGE('',*,*,#1369,.T.);
#1684 = ORIENTED_EDGE('',*,*,#1649,.F.);
#1685 = ORIENTED_EDGE('',*,*,#1178,.F.);
#1686 = PLANE('',#1687);
#1687 = AXIS2_PLACEMENT_3D('',#1688,#1689,#1690);
#1688 = CARTESIAN_POINT('',(29.15,-53.25,12.99));
#1689 = DIRECTION('',(0.,1.,0.));
#1690 = DIRECTION('',(1.,0.,0.));
#1691 = ADVANCED_FACE('',(#1692),#1708,.F.);
#1692 = FACE_BOUND('',#1693,.T.);
#1693 = EDGE_LOOP('',(#1694,#1700,#1701,#1707));
#1694 = ORIENTED_EDGE('',*,*,#1695,.T.);
#1695 = EDGE_CURVE('',#1213,#1414,#1696,.T.);
#1696 = LINE('',#1697,#1698);
#1697 = CARTESIAN_POINT('',(47.6,-13.2,12.99));
#1698 = VECTOR('',#1699,1.);
#1699 = DIRECTION('',(0.,0.,1.));
#1700 = ORIENTED_EDGE('',*,*,#1413,.T.);
#1701 = ORIENTED_EDGE('',*,*,#1702,.F.);
#1702 = EDGE_CURVE('',#1215,#1404,#1703,.T.);
#1703 = LINE('',#1704,#1705);
#1704 = CARTESIAN_POINT('',(46.8,-12.4,12.99));
#1705 = VECTOR('',#1706,1.);
#1706 = DIRECTION('',(0.,0.,1.));
#1707 = ORIENTED_EDGE('',*,*,#1212,.F.);
#1708 = CYLINDRICAL_SURFACE('',#1709,0.8);
#1709 = AXIS2_PLACEMENT_3D('',#1710,#1711,#1712);
#1710 = CARTESIAN_POINT('',(46.8,-13.2,12.99));
#1711 = DIRECTION('',(0.,0.,-1.));
#1712 = DIRECTION('',(1.,-6.66E-15,0.));
#1713 = ADVANCED_FACE('',(#1714),#1725,.T.);
#1714 = FACE_BOUND('',#1715,.T.);
#1715 = EDGE_LOOP('',(#1716,#1722,#1723,#1724));
#1716 = ORIENTED_EDGE('',*,*,#1717,.T.);
#1717 = EDGE_CURVE('',#1266,#1423,#1718,.T.);
#1718 = LINE('',#1719,#1720);
#1719 = CARTESIAN_POINT('',(47.6,-13.6,12.99));
#1720 = VECTOR('',#1721,1.);
#1721 = DIRECTION('',(0.,0.,1.));
#1722 = ORIENTED_EDGE('',*,*,#1422,.T.);
#1723 = ORIENTED_EDGE('',*,*,#1695,.F.);
#1724 = ORIENTED_EDGE('',*,*,#1274,.F.);
#1725 = PLANE('',#1726);
#1726 = AXIS2_PLACEMENT_3D('',#1727,#1728,#1729);
#1727 = CARTESIAN_POINT('',(47.6,-13.6,12.99));
#1728 = DIRECTION('',(-1.,0.,0.));
#1729 = DIRECTION('',(0.,1.,0.));
#1730 = ADVANCED_FACE('',(#1731),#1742,.F.);
#1731 = FACE_BOUND('',#1732,.T.);
#1732 = EDGE_LOOP('',(#1733,#1739,#1740,#1741));
#1733 = ORIENTED_EDGE('',*,*,#1734,.T.);
#1734 = EDGE_CURVE('',#1258,#1431,#1735,.T.);
#1735 = LINE('',#1736,#1737);
#1736 = CARTESIAN_POINT('',(46.8,-14.4,12.99));
#1737 = VECTOR('',#1738,1.);
#1738 = DIRECTION('',(0.,0.,1.));
#1739 = ORIENTED_EDGE('',*,*,#1430,.T.);
#1740 = ORIENTED_EDGE('',*,*,#1717,.F.);
#1741 = ORIENTED_EDGE('',*,*,#1265,.F.);
#1742 = CYLINDRICAL_SURFACE('',#1743,0.8);
#1743 = AXIS2_PLACEMENT_3D('',#1744,#1745,#1746);
#1744 = CARTESIAN_POINT('',(46.8,-13.6,12.99));
#1745 = DIRECTION('',(0.,0.,-1.));
#1746 = DIRECTION('',(0.,-1.,0.));
#1747 = ADVANCED_FACE('',(#1748),#1759,.T.);
#1748 = FACE_BOUND('',#1749,.T.);
#1749 = EDGE_LOOP('',(#1750,#1756,#1757,#1758));
#1750 = ORIENTED_EDGE('',*,*,#1751,.T.);
#1751 = EDGE_CURVE('',#1249,#1440,#1752,.T.);
#1752 = LINE('',#1753,#1754);
#1753 = CARTESIAN_POINT('',(27.2,-14.4,12.99));
#1754 = VECTOR('',#1755,1.);
#1755 = DIRECTION('',(0.,0.,1.));
#1756 = ORIENTED_EDGE('',*,*,#1439,.T.);
#1757 = ORIENTED_EDGE('',*,*,#1734,.F.);
#1758 = ORIENTED_EDGE('',*,*,#1257,.F.);
#1759 = PLANE('',#1760);
#1760 = AXIS2_PLACEMENT_3D('',#1761,#1762,#1763);
#1761 = CARTESIAN_POINT('',(27.2,-14.4,12.99));
#1762 = DIRECTION('',(0.,1.,0.));
#1763 = DIRECTION('',(1.,0.,0.));
#1764 = ADVANCED_FACE('',(#1765),#1776,.F.);
#1765 = FACE_BOUND('',#1766,.T.);
#1766 = EDGE_LOOP('',(#1767,#1773,#1774,#1775));
#1767 = ORIENTED_EDGE('',*,*,#1768,.T.);
#1768 = EDGE_CURVE('',#1241,#1448,#1769,.T.);
#1769 = LINE('',#1770,#1771);
#1770 = CARTESIAN_POINT('',(26.4,-13.6,12.99));
#1771 = VECTOR('',#1772,1.);
#1772 = DIRECTION('',(0.,0.,1.));
#1773 = ORIENTED_EDGE('',*,*,#1447,.T.);
#1774 = ORIENTED_EDGE('',*,*,#1751,.F.);
#1775 = ORIENTED_EDGE('',*,*,#1248,.F.);
#1776 = CYLINDRICAL_SURFACE('',#1777,0.8);
#1777 = AXIS2_PLACEMENT_3D('',#1778,#1779,#1780);
#1778 = CARTESIAN_POINT('',(27.2,-13.6,12.99));
#1779 = DIRECTION('',(-0.,-0.,-1.));
#1780 = DIRECTION('',(-1.,-2.442E-14,0.));
#1781 = ADVANCED_FACE('',(#1782),#1793,.T.);
#1782 = FACE_BOUND('',#1783,.T.);
#1783 = EDGE_LOOP('',(#1784,#1790,#1791,#1792));
#1784 = ORIENTED_EDGE('',*,*,#1785,.T.);
#1785 = EDGE_CURVE('',#1232,#1457,#1786,.T.);
#1786 = LINE('',#1787,#1788);
#1787 = CARTESIAN_POINT('',(26.4,-13.2,12.99));
#1788 = VECTOR('',#1789,1.);
#1789 = DIRECTION('',(0.,0.,1.));
#1790 = ORIENTED_EDGE('',*,*,#1456,.T.);
#1791 = ORIENTED_EDGE('',*,*,#1768,.F.);
#1792 = ORIENTED_EDGE('',*,*,#1240,.F.);
#1793 = PLANE('',#1794);
#1794 = AXIS2_PLACEMENT_3D('',#1795,#1796,#1797);
#1795 = CARTESIAN_POINT('',(26.4,-13.2,12.99));
#1796 = DIRECTION('',(1.,0.,0.));
#1797 = DIRECTION('',(0.,-1.,0.));
#1798 = ADVANCED_FACE('',(#1799),#1810,.F.);
#1799 = FACE_BOUND('',#1800,.T.);
#1800 = EDGE_LOOP('',(#1801,#1807,#1808,#1809));
#1801 = ORIENTED_EDGE('',*,*,#1802,.T.);
#1802 = EDGE_CURVE('',#1224,#1406,#1803,.T.);
#1803 = LINE('',#1804,#1805);
#1804 = CARTESIAN_POINT('',(27.2,-12.4,12.99));
#1805 = VECTOR('',#1806,1.);
#1806 = DIRECTION('',(0.,0.,1.));
#1807 = ORIENTED_EDGE('',*,*,#1464,.T.);
#1808 = ORIENTED_EDGE('',*,*,#1785,.F.);
#1809 = ORIENTED_EDGE('',*,*,#1231,.F.);
#1810 = CYLINDRICAL_SURFACE('',#1811,0.8);
#1811 = AXIS2_PLACEMENT_3D('',#1812,#1813,#1814);
#1812 = CARTESIAN_POINT('',(27.2,-13.2,12.99));
#1813 = DIRECTION('',(-0.,-0.,-1.));
#1814 = DIRECTION('',(-1.332E-14,1.,0.));
#1815 = ADVANCED_FACE('',(#1816),#1822,.T.);
#1816 = FACE_BOUND('',#1817,.T.);
#1817 = EDGE_LOOP('',(#1818,#1819,#1820,#1821));
#1818 = ORIENTED_EDGE('',*,*,#1702,.T.);
#1819 = ORIENTED_EDGE('',*,*,#1403,.T.);
#1820 = ORIENTED_EDGE('',*,*,#1802,.F.);
#1821 = ORIENTED_EDGE('',*,*,#1223,.F.);
#1822 = PLANE('',#1823);
#1823 = AXIS2_PLACEMENT_3D('',#1824,#1825,#1826);
#1824 = CARTESIAN_POINT('',(46.8,-12.4,12.99));
#1825 = DIRECTION('',(0.,-1.,0.));
#1826 = DIRECTION('',(-1.,0.,0.));
#1827 = ( GEOMETRIC_REPRESENTATION_CONTEXT(3) 
GLOBAL_UNCERTAINTY_ASSIGNED_CONTEXT((#1831)) 
GLOBAL_UNIT_ASSIGNED_CONTEXT((#1828,#1829,#1830)) REPRESENTATION_CONTEXT
('Context #1','3D Context with UNIT and UNCERTAINTY') );
#1828 = ( LENGTH_UNIT() NAMED_UNIT(*) SI_UNIT(.MILLI.,.METRE.) );
#1829 = ( NAMED_UNIT(*) PLANE_ANGLE_UNIT() SI_UNIT($,.RADIAN.) );
#1830 = ( NAMED_UNIT(*) SI_UNIT($,.STERADIAN.) SOLID_ANGLE_UNIT() );
#1831 = UNCERTAINTY_MEASURE_WITH_UNIT(LENGTH_MEASURE(5.E-06),#1828,
  'distance_accuracy_value','confusion accuracy');
#1832 = PRODUCT_RELATED_PRODUCT_CATEGORY('part',$,(#7));
ENDSEC;
END-ISO-10303-21;
