ISO-10303-21;
HEADER;
FILE_DESCRIPTION(('FreeCAD Model'),'2;1');
FILE_NAME('Open CASCADE Shape Model','2026-09-28T16:00:58',('FreeCAD'),(
    'FreeCAD'),'Open CASCADE STEP processor 7.8','FreeCAD','Unknown');
FILE_SCHEMA(('AUTOMOTIVE_DESIGN { 1 0 10303 214 1 1 1 1 }'));
ENDSEC;
DATA;
#1 = APPLICATION_PROTOCOL_DEFINITION('international standard',
  'automotive_design',2000,#2);
#2 = APPLICATION_CONTEXT(
  'core data for automotive mechanical design processes');
#3 = SHAPE_DEFINITION_REPRESENTATION(#4,#10);
#4 = PRODUCT_DEFINITION_SHAPE('','',#5);
#5 = PRODUCT_DEFINITION('design','',#6,#9);
#6 = PRODUCT_DEFINITION_FORMATION('','',#7);
#7 = PRODUCT('Open CASCADE STEP translator 7.8 128',
  'Open CASCADE STEP translator 7.8 128','',(#8));
#8 = PRODUCT_CONTEXT('',#2,'mechanical');
#9 = PRODUCT_DEFINITION_CONTEXT('part definition',#2,'design');
#10 = ADVANCED_BREP_SHAPE_REPRESENTATION('',(#11,#15),#336);
#11 = AXIS2_PLACEMENT_3D('',#12,#13,#14);
#12 = CARTESIAN_POINT('',(0.,0.,0.));
#13 = DIRECTION('',(0.,0.,1.));
#14 = DIRECTION('',(1.,0.,-0.));
#15 = MANIFOLD_SOLID_BREP('',#16);
#16 = CLOSED_SHELL('',(#17,#57,#131,#155,#222,#239,#256,#273,#290,#307,
    #324));
#17 = ADVANCED_FACE('',(#18),#52,.F.);
#18 = FACE_BOUND('',#19,.F.);
#19 = EDGE_LOOP('',(#20,#30,#38,#46));
#20 = ORIENTED_EDGE('',*,*,#21,.F.);
#21 = EDGE_CURVE('',#22,#24,#26,.T.);
#22 = VERTEX_POINT('',#23);
#23 = CARTESIAN_POINT('',(45.3,-52.,12.99));
#24 = VERTEX_POINT('',#25);
#25 = CARTESIAN_POINT('',(45.15,-52.,12.99));
#26 = LINE('',#27,#28);
#27 = CARTESIAN_POINT('',(45.3,-52.,12.99));
#28 = VECTOR('',#29,1.);
#29 = DIRECTION('',(-1.,0.,0.));
#30 = ORIENTED_EDGE('',*,*,#31,.T.);
#31 = EDGE_CURVE('',#22,#32,#34,.T.);
#32 = VERTEX_POINT('',#33);
#33 = CARTESIAN_POINT('',(45.3,-52.,13.39));
#34 = LINE('',#35,#36);
#35 = CARTESIAN_POINT('',(45.3,-52.,12.99));
#36 = VECTOR('',#37,1.);
#37 = DIRECTION('',(0.,0.,1.));
#38 = ORIENTED_EDGE('',*,*,#39,.T.);
#39 = EDGE_CURVE('',#32,#40,#42,.T.);
#40 = VERTEX_POINT('',#41);
#41 = CARTESIAN_POINT('',(45.15,-52.,13.39));
#42 = LINE('',#43,#44);
#43 = CARTESIAN_POINT('',(45.3,-52.,13.39));
#44 = VECTOR('',#45,1.);
#45 = DIRECTION('',(-1.,0.,0.));
#46 = ORIENTED_EDGE('',*,*,#47,.F.);
#47 = EDGE_CURVE('',#24,#40,#48,.T.);
#48 = LINE('',#49,#50);
#49 = CARTESIAN_POINT('',(45.15,-52.,12.345));
#50 = VECTOR('',#51,1.);
#51 = DIRECTION('',(0.,0.,1.));
#52 = PLANE('',#53);
#53 = AXIS2_PLACEMENT_3D('',#54,#55,#56);
#54 = CARTESIAN_POINT('',(45.3,-52.,12.99));
#55 = DIRECTION('',(0.,-1.,0.));
#56 = DIRECTION('',(-1.,0.,0.));
#57 = ADVANCED_FACE('',(#58),#126,.F.);
#58 = FACE_BOUND('',#59,.F.);
#59 = EDGE_LOOP('',(#60,#69,#70,#78,#86,#94,#103,#111,#120));
#60 = ORIENTED_EDGE('',*,*,#61,.T.);
#61 = EDGE_CURVE('',#62,#22,#64,.T.);
#62 = VERTEX_POINT('',#63);
#63 = CARTESIAN_POINT('',(46.3,-53.,12.99));
#64 = CIRCLE('',#65,1.);
#65 = AXIS2_PLACEMENT_3D('',#66,#67,#68);
#66 = CARTESIAN_POINT('',(45.3,-53.,12.99));
#67 = DIRECTION('',(-0.,0.,1.));
#68 = DIRECTION('',(1.,-1.421E-14,0.));
#69 = ORIENTED_EDGE('',*,*,#21,.T.);
#70 = ORIENTED_EDGE('',*,*,#71,.F.);
#71 = EDGE_CURVE('',#72,#24,#74,.T.);
#72 = VERTEX_POINT('',#73);
#73 = CARTESIAN_POINT('',(45.15,-53.,12.99));
#74 = LINE('',#75,#76);
#75 = CARTESIAN_POINT('',(45.15,-46.04641870115,12.99));
#76 = VECTOR('',#77,1.);
#77 = DIRECTION('',(0.,1.,0.));
#78 = ORIENTED_EDGE('',*,*,#79,.T.);
#79 = EDGE_CURVE('',#72,#80,#82,.T.);
#80 = VERTEX_POINT('',#81);
#81 = CARTESIAN_POINT('',(41.5,-53.,12.99));
#82 = LINE('',#83,#84);
#83 = CARTESIAN_POINT('',(33.143912304081,-53.,12.99));
#84 = VECTOR('',#85,1.);
#85 = DIRECTION('',(-1.,0.,0.));
#86 = ORIENTED_EDGE('',*,*,#87,.T.);
#87 = EDGE_CURVE('',#80,#88,#90,.T.);
#88 = VERTEX_POINT('',#89);
#89 = CARTESIAN_POINT('',(41.5,-53.2,12.99));
#90 = LINE('',#91,#92);
#91 = CARTESIAN_POINT('',(41.5,-53.,12.99));
#92 = VECTOR('',#93,1.);
#93 = DIRECTION('',(0.,-1.,0.));
#94 = ORIENTED_EDGE('',*,*,#95,.T.);
#95 = EDGE_CURVE('',#88,#96,#98,.T.);
#96 = VERTEX_POINT('',#97);
#97 = CARTESIAN_POINT('',(42.5,-54.2,12.99));
#98 = CIRCLE('',#99,1.);
#99 = AXIS2_PLACEMENT_3D('',#100,#101,#102);
#100 = CARTESIAN_POINT('',(42.5,-53.2,12.99));
#101 = DIRECTION('',(0.,0.,1.));
#102 = DIRECTION('',(-1.,1.421E-14,0.));
#103 = ORIENTED_EDGE('',*,*,#104,.T.);
#104 = EDGE_CURVE('',#96,#105,#107,.T.);
#105 = VERTEX_POINT('',#106);
#106 = CARTESIAN_POINT('',(45.3,-54.2,12.99));
#107 = LINE('',#108,#109);
#108 = CARTESIAN_POINT('',(42.5,-54.2,12.99));
#109 = VECTOR('',#110,1.);
#110 = DIRECTION('',(1.,0.,0.));
#111 = ORIENTED_EDGE('',*,*,#112,.T.);
#112 = EDGE_CURVE('',#105,#113,#115,.T.);
#113 = VERTEX_POINT('',#114);
#114 = CARTESIAN_POINT('',(46.3,-53.2,12.99));
#115 = CIRCLE('',#116,1.);
#116 = AXIS2_PLACEMENT_3D('',#117,#118,#119);
#117 = CARTESIAN_POINT('',(45.3,-53.2,12.99));
#118 = DIRECTION('',(0.,0.,1.));
#119 = DIRECTION('',(-7.11E-15,-1.,0.));
#120 = ORIENTED_EDGE('',*,*,#121,.T.);
#121 = EDGE_CURVE('',#113,#62,#122,.T.);
#122 = LINE('',#123,#124);
#123 = CARTESIAN_POINT('',(46.3,-53.2,12.99));
#124 = VECTOR('',#125,1.);
#125 = DIRECTION('',(0.,1.,0.));
#126 = PLANE('',#127);
#127 = AXIS2_PLACEMENT_3D('',#128,#129,#130);
#128 = CARTESIAN_POINT('',(43.9,-53.1,12.99));
#129 = DIRECTION('',(0.,0.,1.));
#130 = DIRECTION('',(1.,0.,0.));
#131 = ADVANCED_FACE('',(#132),#150,.F.);
#132 = FACE_BOUND('',#133,.F.);
#133 = EDGE_LOOP('',(#134,#142,#143,#144));
#134 = ORIENTED_EDGE('',*,*,#135,.F.);
#135 = EDGE_CURVE('',#72,#136,#138,.T.);
#136 = VERTEX_POINT('',#137);
#137 = CARTESIAN_POINT('',(45.15,-53.,13.39));
#138 = LINE('',#139,#140);
#139 = CARTESIAN_POINT('',(45.15,-53.,11.7));
#140 = VECTOR('',#141,1.);
#141 = DIRECTION('',(0.,0.,1.));
#142 = ORIENTED_EDGE('',*,*,#71,.T.);
#143 = ORIENTED_EDGE('',*,*,#47,.T.);
#144 = ORIENTED_EDGE('',*,*,#145,.F.);
#145 = EDGE_CURVE('',#136,#40,#146,.T.);
#146 = LINE('',#147,#148);
#147 = CARTESIAN_POINT('',(45.15,-46.04893884022,13.39));
#148 = VECTOR('',#149,1.);
#149 = DIRECTION('',(0.,1.,0.));
#150 = PLANE('',#151);
#151 = AXIS2_PLACEMENT_3D('',#152,#153,#154);
#152 = CARTESIAN_POINT('',(45.15,-53.,11.7));
#153 = DIRECTION('',(1.,0.,0.));
#154 = DIRECTION('',(0.,0.,1.));
#155 = ADVANCED_FACE('',(#156),#217,.T.);
#156 = FACE_BOUND('',#157,.T.);
#157 = EDGE_LOOP('',(#158,#167,#168,#169,#177,#185,#194,#202,#211));
#158 = ORIENTED_EDGE('',*,*,#159,.T.);
#159 = EDGE_CURVE('',#160,#32,#162,.T.);
#160 = VERTEX_POINT('',#161);
#161 = CARTESIAN_POINT('',(46.3,-53.,13.39));
#162 = CIRCLE('',#163,1.);
#163 = AXIS2_PLACEMENT_3D('',#164,#165,#166);
#164 = CARTESIAN_POINT('',(45.3,-53.,13.39));
#165 = DIRECTION('',(-0.,0.,1.));
#166 = DIRECTION('',(1.,-1.421E-14,0.));
#167 = ORIENTED_EDGE('',*,*,#39,.T.);
#168 = ORIENTED_EDGE('',*,*,#145,.F.);
#169 = ORIENTED_EDGE('',*,*,#170,.T.);
#170 = EDGE_CURVE('',#136,#171,#173,.T.);
#171 = VERTEX_POINT('',#172);
#172 = CARTESIAN_POINT('',(41.5,-53.,13.39));
#173 = LINE('',#174,#175);
#174 = CARTESIAN_POINT('',(33.146656284918,-53.,13.39));
#175 = VECTOR('',#176,1.);
#176 = DIRECTION('',(-1.,0.,0.));
#177 = ORIENTED_EDGE('',*,*,#178,.T.);
#178 = EDGE_CURVE('',#171,#179,#181,.T.);
#179 = VERTEX_POINT('',#180);
#180 = CARTESIAN_POINT('',(41.5,-53.2,13.39));
#181 = LINE('',#182,#183);
#182 = CARTESIAN_POINT('',(41.5,-53.,13.39));
#183 = VECTOR('',#184,1.);
#184 = DIRECTION('',(0.,-1.,0.));
#185 = ORIENTED_EDGE('',*,*,#186,.T.);
#186 = EDGE_CURVE('',#179,#187,#189,.T.);
#187 = VERTEX_POINT('',#188);
#188 = CARTESIAN_POINT('',(42.5,-54.2,13.39));
#189 = CIRCLE('',#190,1.);
#190 = AXIS2_PLACEMENT_3D('',#191,#192,#193);
#191 = CARTESIAN_POINT('',(42.5,-53.2,13.39));
#192 = DIRECTION('',(0.,0.,1.));
#193 = DIRECTION('',(-1.,1.421E-14,0.));
#194 = ORIENTED_EDGE('',*,*,#195,.T.);
#195 = EDGE_CURVE('',#187,#196,#198,.T.);
#196 = VERTEX_POINT('',#197);
#197 = CARTESIAN_POINT('',(45.3,-54.2,13.39));
#198 = LINE('',#199,#200);
#199 = CARTESIAN_POINT('',(42.5,-54.2,13.39));
#200 = VECTOR('',#201,1.);
#201 = DIRECTION('',(1.,0.,0.));
#202 = ORIENTED_EDGE('',*,*,#203,.T.);
#203 = EDGE_CURVE('',#196,#204,#206,.T.);
#204 = VERTEX_POINT('',#205);
#205 = CARTESIAN_POINT('',(46.3,-53.2,13.39));
#206 = CIRCLE('',#207,1.);
#207 = AXIS2_PLACEMENT_3D('',#208,#209,#210);
#208 = CARTESIAN_POINT('',(45.3,-53.2,13.39));
#209 = DIRECTION('',(0.,0.,1.));
#210 = DIRECTION('',(-7.11E-15,-1.,0.));
#211 = ORIENTED_EDGE('',*,*,#212,.T.);
#212 = EDGE_CURVE('',#204,#160,#213,.T.);
#213 = LINE('',#214,#215);
#214 = CARTESIAN_POINT('',(46.3,-53.2,13.39));
#215 = VECTOR('',#216,1.);
#216 = DIRECTION('',(0.,1.,0.));
#217 = PLANE('',#218);
#218 = AXIS2_PLACEMENT_3D('',#219,#220,#221);
#219 = CARTESIAN_POINT('',(43.9,-53.1,13.39));
#220 = DIRECTION('',(0.,0.,1.));
#221 = DIRECTION('',(1.,0.,0.));
#222 = ADVANCED_FACE('',(#223),#234,.T.);
#223 = FACE_BOUND('',#224,.F.);
#224 = EDGE_LOOP('',(#225,#231,#232,#233));
#225 = ORIENTED_EDGE('',*,*,#226,.T.);
#226 = EDGE_CURVE('',#62,#160,#227,.T.);
#227 = LINE('',#228,#229);
#228 = CARTESIAN_POINT('',(46.3,-53.,12.99));
#229 = VECTOR('',#230,1.);
#230 = DIRECTION('',(0.,0.,1.));
#231 = ORIENTED_EDGE('',*,*,#159,.T.);
#232 = ORIENTED_EDGE('',*,*,#31,.F.);
#233 = ORIENTED_EDGE('',*,*,#61,.F.);
#234 = CYLINDRICAL_SURFACE('',#235,1.);
#235 = AXIS2_PLACEMENT_3D('',#236,#237,#238);
#236 = CARTESIAN_POINT('',(45.3,-53.,12.99));
#237 = DIRECTION('',(0.,0.,-1.));
#238 = DIRECTION('',(1.,-1.421E-14,0.));
#239 = ADVANCED_FACE('',(#240),#251,.F.);
#240 = FACE_BOUND('',#241,.F.);
#241 = EDGE_LOOP('',(#242,#248,#249,#250));
#242 = ORIENTED_EDGE('',*,*,#243,.T.);
#243 = EDGE_CURVE('',#113,#204,#244,.T.);
#244 = LINE('',#245,#246);
#245 = CARTESIAN_POINT('',(46.3,-53.2,12.99));
#246 = VECTOR('',#247,1.);
#247 = DIRECTION('',(0.,0.,1.));
#248 = ORIENTED_EDGE('',*,*,#212,.T.);
#249 = ORIENTED_EDGE('',*,*,#226,.F.);
#250 = ORIENTED_EDGE('',*,*,#121,.F.);
#251 = PLANE('',#252);
#252 = AXIS2_PLACEMENT_3D('',#253,#254,#255);
#253 = CARTESIAN_POINT('',(46.3,-53.2,12.99));
#254 = DIRECTION('',(-1.,0.,0.));
#255 = DIRECTION('',(0.,1.,0.));
#256 = ADVANCED_FACE('',(#257),#268,.T.);
#257 = FACE_BOUND('',#258,.F.);
#258 = EDGE_LOOP('',(#259,#265,#266,#267));
#259 = ORIENTED_EDGE('',*,*,#260,.T.);
#260 = EDGE_CURVE('',#105,#196,#261,.T.);
#261 = LINE('',#262,#263);
#262 = CARTESIAN_POINT('',(45.3,-54.2,12.99));
#263 = VECTOR('',#264,1.);
#264 = DIRECTION('',(0.,0.,1.));
#265 = ORIENTED_EDGE('',*,*,#203,.T.);
#266 = ORIENTED_EDGE('',*,*,#243,.F.);
#267 = ORIENTED_EDGE('',*,*,#112,.F.);
#268 = CYLINDRICAL_SURFACE('',#269,1.);
#269 = AXIS2_PLACEMENT_3D('',#270,#271,#272);
#270 = CARTESIAN_POINT('',(45.3,-53.2,12.99));
#271 = DIRECTION('',(-0.,-0.,-1.));
#272 = DIRECTION('',(-7.11E-15,-1.,0.));
#273 = ADVANCED_FACE('',(#274),#285,.F.);
#274 = FACE_BOUND('',#275,.F.);
#275 = EDGE_LOOP('',(#276,#282,#283,#284));
#276 = ORIENTED_EDGE('',*,*,#277,.T.);
#277 = EDGE_CURVE('',#96,#187,#278,.T.);
#278 = LINE('',#279,#280);
#279 = CARTESIAN_POINT('',(42.5,-54.2,12.99));
#280 = VECTOR('',#281,1.);
#281 = DIRECTION('',(0.,0.,1.));
#282 = ORIENTED_EDGE('',*,*,#195,.T.);
#283 = ORIENTED_EDGE('',*,*,#260,.F.);
#284 = ORIENTED_EDGE('',*,*,#104,.F.);
#285 = PLANE('',#286);
#286 = AXIS2_PLACEMENT_3D('',#287,#288,#289);
#287 = CARTESIAN_POINT('',(42.5,-54.2,12.99));
#288 = DIRECTION('',(0.,1.,0.));
#289 = DIRECTION('',(1.,0.,0.));
#290 = ADVANCED_FACE('',(#291),#302,.T.);
#291 = FACE_BOUND('',#292,.F.);
#292 = EDGE_LOOP('',(#293,#299,#300,#301));
#293 = ORIENTED_EDGE('',*,*,#294,.T.);
#294 = EDGE_CURVE('',#88,#179,#295,.T.);
#295 = LINE('',#296,#297);
#296 = CARTESIAN_POINT('',(41.5,-53.2,12.99));
#297 = VECTOR('',#298,1.);
#298 = DIRECTION('',(0.,0.,1.));
#299 = ORIENTED_EDGE('',*,*,#186,.T.);
#300 = ORIENTED_EDGE('',*,*,#277,.F.);
#301 = ORIENTED_EDGE('',*,*,#95,.F.);
#302 = CYLINDRICAL_SURFACE('',#303,1.);
#303 = AXIS2_PLACEMENT_3D('',#304,#305,#306);
#304 = CARTESIAN_POINT('',(42.5,-53.2,12.99));
#305 = DIRECTION('',(-0.,-0.,-1.));
#306 = DIRECTION('',(-1.,1.421E-14,0.));
#307 = ADVANCED_FACE('',(#308),#319,.F.);
#308 = FACE_BOUND('',#309,.F.);
#309 = EDGE_LOOP('',(#310,#316,#317,#318));
#310 = ORIENTED_EDGE('',*,*,#311,.T.);
#311 = EDGE_CURVE('',#80,#171,#312,.T.);
#312 = LINE('',#313,#314);
#313 = CARTESIAN_POINT('',(41.5,-53.,12.99));
#314 = VECTOR('',#315,1.);
#315 = DIRECTION('',(0.,0.,1.));
#316 = ORIENTED_EDGE('',*,*,#178,.T.);
#317 = ORIENTED_EDGE('',*,*,#294,.F.);
#318 = ORIENTED_EDGE('',*,*,#87,.F.);
#319 = PLANE('',#320);
#320 = AXIS2_PLACEMENT_3D('',#321,#322,#323);
#321 = CARTESIAN_POINT('',(41.5,-53.,12.99));
#322 = DIRECTION('',(1.,0.,0.));
#323 = DIRECTION('',(0.,-1.,0.));
#324 = ADVANCED_FACE('',(#325),#331,.T.);
#325 = FACE_BOUND('',#326,.T.);
#326 = EDGE_LOOP('',(#327,#328,#329,#330));
#327 = ORIENTED_EDGE('',*,*,#135,.F.);
#328 = ORIENTED_EDGE('',*,*,#79,.T.);
#329 = ORIENTED_EDGE('',*,*,#311,.T.);
#330 = ORIENTED_EDGE('',*,*,#170,.F.);
#331 = PLANE('',#332);
#332 = AXIS2_PLACEMENT_3D('',#333,#334,#335);
#333 = CARTESIAN_POINT('',(29.25,-53.,11.7));
#334 = DIRECTION('',(0.,1.,0.));
#335 = DIRECTION('',(0.,0.,1.));
#336 = ( GEOMETRIC_REPRESENTATION_CONTEXT(3) 
GLOBAL_UNCERTAINTY_ASSIGNED_CONTEXT((#340)) GLOBAL_UNIT_ASSIGNED_CONTEXT
((#337,#338,#339)) REPRESENTATION_CONTEXT('Context #1',
  '3D Context with UNIT and UNCERTAINTY') );
#337 = ( LENGTH_UNIT() NAMED_UNIT(*) SI_UNIT(.MILLI.,.METRE.) );
#338 = ( NAMED_UNIT(*) PLANE_ANGLE_UNIT() SI_UNIT($,.RADIAN.) );
#339 = ( NAMED_UNIT(*) SI_UNIT($,.STERADIAN.) SOLID_ANGLE_UNIT() );
#340 = UNCERTAINTY_MEASURE_WITH_UNIT(LENGTH_MEASURE(1.E-05),#337,
  'distance_accuracy_value','confusion accuracy');
#341 = PRODUCT_RELATED_PRODUCT_CATEGORY('part',$,(#7));
ENDSEC;
END-ISO-10303-21;
