ISO-10303-21;
HEADER;
FILE_DESCRIPTION(('FreeCAD Model'),'2;1');
FILE_NAME('Open CASCADE Shape Model','2026-10-07T22:41:57',('FreeCAD'),(
    'FreeCAD'),'Open CASCADE STEP processor 7.8','FreeCAD','Unknown');
FILE_SCHEMA(('AUTOMOTIVE_DESIGN { 1 0 10303 214 1 1 1 1 }'));
ENDSEC;
DATA;
#1 = APPLICATION_PROTOCOL_DEFINITION('international standard',
  'automotive_design',2000,#2);
#2 = APPLICATION_CONTEXT(
  'core data for automotive mechanical design processes');
#3 = SHAPE_DEFINITION_REPRESENTATION(#4,#10);
#4 = PRODUCT_DEFINITION_SHAPE('','',#5);
#5 = PRODUCT_DEFINITION('design','',#6,#9);
#6 = PRODUCT_DEFINITION_FORMATION('','',#7);
#7 = PRODUCT('Open CASCADE STEP translator 7.8 144',
  'Open CASCADE STEP translator 7.8 144','',(#8));
#8 = PRODUCT_CONTEXT('',#2,'mechanical');
#9 = PRODUCT_DEFINITION_CONTEXT('part definition',#2,'design');
#10 = SHAPE_REPRESENTATION('',(#11,#15,#103),#297);
#11 = AXIS2_PLACEMENT_3D('',#12,#13,#14);
#12 = CARTESIAN_POINT('',(0.,0.,0.));
#13 = DIRECTION('',(0.,0.,1.));
#14 = DIRECTION('',(1.,0.,-0.));
#15 = MANIFOLD_SOLID_BREP('',#16);
#16 = CLOSED_SHELL('',(#17,#59,#75,#93));
#17 = ADVANCED_FACE('',(#18),#54,.T.);
#18 = FACE_BOUND('',#19,.T.);
#19 = EDGE_LOOP('',(#20,#31,#39,#48));
#20 = ORIENTED_EDGE('',*,*,#21,.F.);
#21 = EDGE_CURVE('',#22,#24,#26,.T.);
#22 = VERTEX_POINT('',#23);
#23 = CARTESIAN_POINT('',(34.8,-59.6,13.19));
#24 = VERTEX_POINT('',#25);
#25 = CARTESIAN_POINT('',(39.2,-59.6,13.19));
#26 = CIRCLE('',#27,2.2);
#27 = AXIS2_PLACEMENT_3D('',#28,#29,#30);
#28 = CARTESIAN_POINT('',(37.,-59.59999994039,13.19));
#29 = DIRECTION('',(0.,0.,-1.));
#30 = DIRECTION('',(-1.,-2.709302035E-08,-0.));
#31 = ORIENTED_EDGE('',*,*,#32,.T.);
#32 = EDGE_CURVE('',#22,#33,#35,.T.);
#33 = VERTEX_POINT('',#34);
#34 = CARTESIAN_POINT('',(34.8,-59.6,13.59));
#35 = LINE('',#36,#37);
#36 = CARTESIAN_POINT('',(34.8,-59.6,0.));
#37 = VECTOR('',#38,1.);
#38 = DIRECTION('',(0.,0.,1.));
#39 = ORIENTED_EDGE('',*,*,#40,.T.);
#40 = EDGE_CURVE('',#33,#41,#43,.T.);
#41 = VERTEX_POINT('',#42);
#42 = CARTESIAN_POINT('',(39.2,-59.6,13.59));
#43 = CIRCLE('',#44,2.2);
#44 = AXIS2_PLACEMENT_3D('',#45,#46,#47);
#45 = CARTESIAN_POINT('',(37.,-59.59999994039,13.59));
#46 = DIRECTION('',(0.,0.,-1.));
#47 = DIRECTION('',(-1.,-2.709302035E-08,-0.));
#48 = ORIENTED_EDGE('',*,*,#49,.F.);
#49 = EDGE_CURVE('',#24,#41,#50,.T.);
#50 = LINE('',#51,#52);
#51 = CARTESIAN_POINT('',(39.2,-59.6,0.));
#52 = VECTOR('',#53,1.);
#53 = DIRECTION('',(0.,0.,1.));
#54 = CYLINDRICAL_SURFACE('',#55,2.2);
#55 = AXIS2_PLACEMENT_3D('',#56,#57,#58);
#56 = CARTESIAN_POINT('',(37.,-59.59999994039,0.));
#57 = DIRECTION('',(0.,0.,-1.));
#58 = DIRECTION('',(-1.,-2.709302035E-08,-0.));
#59 = ADVANCED_FACE('',(#60),#70,.F.);
#60 = FACE_BOUND('',#61,.F.);
#61 = EDGE_LOOP('',(#62,#63));
#62 = ORIENTED_EDGE('',*,*,#21,.F.);
#63 = ORIENTED_EDGE('',*,*,#64,.F.);
#64 = EDGE_CURVE('',#24,#22,#65,.T.);
#65 = CIRCLE('',#66,2.2);
#66 = AXIS2_PLACEMENT_3D('',#67,#68,#69);
#67 = CARTESIAN_POINT('',(37.,-59.6000000596,13.19));
#68 = DIRECTION('',(0.,0.,-1.));
#69 = DIRECTION('',(1.,2.709302035E-08,0.));
#70 = PLANE('',#71);
#71 = AXIS2_PLACEMENT_3D('',#72,#73,#74);
#72 = CARTESIAN_POINT('',(0.,-120.,13.19));
#73 = DIRECTION('',(0.,0.,1.));
#74 = DIRECTION('',(1.,0.,0.));
#75 = ADVANCED_FACE('',(#76),#88,.T.);
#76 = FACE_BOUND('',#77,.T.);
#77 = EDGE_LOOP('',(#78,#79,#80,#87));
#78 = ORIENTED_EDGE('',*,*,#64,.F.);
#79 = ORIENTED_EDGE('',*,*,#49,.T.);
#80 = ORIENTED_EDGE('',*,*,#81,.T.);
#81 = EDGE_CURVE('',#41,#33,#82,.T.);
#82 = CIRCLE('',#83,2.2);
#83 = AXIS2_PLACEMENT_3D('',#84,#85,#86);
#84 = CARTESIAN_POINT('',(37.,-59.6000000596,13.59));
#85 = DIRECTION('',(0.,0.,-1.));
#86 = DIRECTION('',(1.,2.709302035E-08,0.));
#87 = ORIENTED_EDGE('',*,*,#32,.F.);
#88 = CYLINDRICAL_SURFACE('',#89,2.2);
#89 = AXIS2_PLACEMENT_3D('',#90,#91,#92);
#90 = CARTESIAN_POINT('',(37.,-59.6000000596,0.));
#91 = DIRECTION('',(0.,0.,-1.));
#92 = DIRECTION('',(1.,2.709302035E-08,0.));
#93 = ADVANCED_FACE('',(#94),#98,.T.);
#94 = FACE_BOUND('',#95,.T.);
#95 = EDGE_LOOP('',(#96,#97));
#96 = ORIENTED_EDGE('',*,*,#40,.F.);
#97 = ORIENTED_EDGE('',*,*,#81,.F.);
#98 = PLANE('',#99);
#99 = AXIS2_PLACEMENT_3D('',#100,#101,#102);
#100 = CARTESIAN_POINT('',(0.,-120.,13.59));
#101 = DIRECTION('',(0.,0.,1.));
#102 = DIRECTION('',(1.,0.,0.));
#103 = MANIFOLD_SOLID_BREP('',#104);
#104 = CLOSED_SHELL('',(#105,#145,#196,#247,#269,#283));
#105 = ADVANCED_FACE('',(#106),#140,.T.);
#106 = FACE_BOUND('',#107,.T.);
#107 = EDGE_LOOP('',(#108,#118,#126,#134));
#108 = ORIENTED_EDGE('',*,*,#109,.F.);
#109 = EDGE_CURVE('',#110,#112,#114,.T.);
#110 = VERTEX_POINT('',#111);
#111 = CARTESIAN_POINT('',(35.2,-12.8,13.19));
#112 = VERTEX_POINT('',#113);
#113 = CARTESIAN_POINT('',(38.8,-12.8,13.19));
#114 = LINE('',#115,#116);
#115 = CARTESIAN_POINT('',(17.6,-12.8,13.19));
#116 = VECTOR('',#117,1.);
#117 = DIRECTION('',(1.,0.,0.));
#118 = ORIENTED_EDGE('',*,*,#119,.T.);
#119 = EDGE_CURVE('',#110,#120,#122,.T.);
#120 = VERTEX_POINT('',#121);
#121 = CARTESIAN_POINT('',(35.2,-12.8,13.59));
#122 = LINE('',#123,#124);
#123 = CARTESIAN_POINT('',(35.2,-12.8,0.));
#124 = VECTOR('',#125,1.);
#125 = DIRECTION('',(0.,0.,1.));
#126 = ORIENTED_EDGE('',*,*,#127,.T.);
#127 = EDGE_CURVE('',#120,#128,#130,.T.);
#128 = VERTEX_POINT('',#129);
#129 = CARTESIAN_POINT('',(38.8,-12.8,13.59));
#130 = LINE('',#131,#132);
#131 = CARTESIAN_POINT('',(17.6,-12.8,13.59));
#132 = VECTOR('',#133,1.);
#133 = DIRECTION('',(1.,0.,0.));
#134 = ORIENTED_EDGE('',*,*,#135,.F.);
#135 = EDGE_CURVE('',#112,#128,#136,.T.);
#136 = LINE('',#137,#138);
#137 = CARTESIAN_POINT('',(38.8,-12.8,0.));
#138 = VECTOR('',#139,1.);
#139 = DIRECTION('',(0.,0.,1.));
#140 = PLANE('',#141);
#141 = AXIS2_PLACEMENT_3D('',#142,#143,#144);
#142 = CARTESIAN_POINT('',(35.2,-12.8,0.));
#143 = DIRECTION('',(0.,1.,0.));
#144 = DIRECTION('',(1.,0.,0.));
#145 = ADVANCED_FACE('',(#146),#191,.F.);
#146 = FACE_BOUND('',#147,.F.);
#147 = EDGE_LOOP('',(#148,#149,#158,#167,#175,#184));
#148 = ORIENTED_EDGE('',*,*,#109,.F.);
#149 = ORIENTED_EDGE('',*,*,#150,.F.);
#150 = EDGE_CURVE('',#151,#110,#153,.T.);
#151 = VERTEX_POINT('',#152);
#152 = CARTESIAN_POINT('',(34.6,-13.4,13.19));
#153 = CIRCLE('',#154,0.6);
#154 = AXIS2_PLACEMENT_3D('',#155,#156,#157);
#155 = CARTESIAN_POINT('',(35.2,-13.4,13.19));
#156 = DIRECTION('',(0.,0.,-1.));
#157 = DIRECTION('',(-1.,-1.48E-14,-0.));
#158 = ORIENTED_EDGE('',*,*,#159,.F.);
#159 = EDGE_CURVE('',#160,#151,#162,.T.);
#160 = VERTEX_POINT('',#161);
#161 = CARTESIAN_POINT('',(35.2,-14.,13.19));
#162 = CIRCLE('',#163,0.6);
#163 = AXIS2_PLACEMENT_3D('',#164,#165,#166);
#164 = CARTESIAN_POINT('',(35.2,-13.4,13.19));
#165 = DIRECTION('',(0.,0.,-1.));
#166 = DIRECTION('',(2.368E-14,-1.,0.));
#167 = ORIENTED_EDGE('',*,*,#168,.F.);
#168 = EDGE_CURVE('',#169,#160,#171,.T.);
#169 = VERTEX_POINT('',#170);
#170 = CARTESIAN_POINT('',(38.8,-14.,13.19));
#171 = LINE('',#172,#173);
#172 = CARTESIAN_POINT('',(19.4,-14.,13.19));
#173 = VECTOR('',#174,1.);
#174 = DIRECTION('',(-1.,0.,0.));
#175 = ORIENTED_EDGE('',*,*,#176,.F.);
#176 = EDGE_CURVE('',#177,#169,#179,.T.);
#177 = VERTEX_POINT('',#178);
#178 = CARTESIAN_POINT('',(39.4,-13.4,13.19));
#179 = CIRCLE('',#180,0.6);
#180 = AXIS2_PLACEMENT_3D('',#181,#182,#183);
#181 = CARTESIAN_POINT('',(38.8,-13.4,13.19));
#182 = DIRECTION('',(0.,0.,-1.));
#183 = DIRECTION('',(1.,-1.184E-14,0.));
#184 = ORIENTED_EDGE('',*,*,#185,.F.);
#185 = EDGE_CURVE('',#112,#177,#186,.T.);
#186 = CIRCLE('',#187,0.6);
#187 = AXIS2_PLACEMENT_3D('',#188,#189,#190);
#188 = CARTESIAN_POINT('',(38.8,-13.4,13.19));
#189 = DIRECTION('',(0.,0.,-1.));
#190 = DIRECTION('',(1.184E-14,1.,0.));
#191 = PLANE('',#192);
#192 = AXIS2_PLACEMENT_3D('',#193,#194,#195);
#193 = CARTESIAN_POINT('',(0.,-120.,13.19));
#194 = DIRECTION('',(0.,0.,1.));
#195 = DIRECTION('',(1.,0.,0.));
#196 = ADVANCED_FACE('',(#197),#242,.T.);
#197 = FACE_BOUND('',#198,.T.);
#198 = EDGE_LOOP('',(#199,#200,#209,#218,#226,#235));
#199 = ORIENTED_EDGE('',*,*,#127,.F.);
#200 = ORIENTED_EDGE('',*,*,#201,.F.);
#201 = EDGE_CURVE('',#202,#120,#204,.T.);
#202 = VERTEX_POINT('',#203);
#203 = CARTESIAN_POINT('',(34.6,-13.4,13.59));
#204 = CIRCLE('',#205,0.6);
#205 = AXIS2_PLACEMENT_3D('',#206,#207,#208);
#206 = CARTESIAN_POINT('',(35.2,-13.4,13.59));
#207 = DIRECTION('',(0.,0.,-1.));
#208 = DIRECTION('',(-1.,-1.48E-14,-0.));
#209 = ORIENTED_EDGE('',*,*,#210,.F.);
#210 = EDGE_CURVE('',#211,#202,#213,.T.);
#211 = VERTEX_POINT('',#212);
#212 = CARTESIAN_POINT('',(35.2,-14.,13.59));
#213 = CIRCLE('',#214,0.6);
#214 = AXIS2_PLACEMENT_3D('',#215,#216,#217);
#215 = CARTESIAN_POINT('',(35.2,-13.4,13.59));
#216 = DIRECTION('',(0.,0.,-1.));
#217 = DIRECTION('',(2.368E-14,-1.,0.));
#218 = ORIENTED_EDGE('',*,*,#219,.F.);
#219 = EDGE_CURVE('',#220,#211,#222,.T.);
#220 = VERTEX_POINT('',#221);
#221 = CARTESIAN_POINT('',(38.8,-14.,13.59));
#222 = LINE('',#223,#224);
#223 = CARTESIAN_POINT('',(19.4,-14.,13.59));
#224 = VECTOR('',#225,1.);
#225 = DIRECTION('',(-1.,0.,0.));
#226 = ORIENTED_EDGE('',*,*,#227,.F.);
#227 = EDGE_CURVE('',#228,#220,#230,.T.);
#228 = VERTEX_POINT('',#229);
#229 = CARTESIAN_POINT('',(39.4,-13.4,13.59));
#230 = CIRCLE('',#231,0.6);
#231 = AXIS2_PLACEMENT_3D('',#232,#233,#234);
#232 = CARTESIAN_POINT('',(38.8,-13.4,13.59));
#233 = DIRECTION('',(0.,0.,-1.));
#234 = DIRECTION('',(1.,-1.184E-14,0.));
#235 = ORIENTED_EDGE('',*,*,#236,.F.);
#236 = EDGE_CURVE('',#128,#228,#237,.T.);
#237 = CIRCLE('',#238,0.6);
#238 = AXIS2_PLACEMENT_3D('',#239,#240,#241);
#239 = CARTESIAN_POINT('',(38.8,-13.4,13.59));
#240 = DIRECTION('',(0.,0.,-1.));
#241 = DIRECTION('',(1.184E-14,1.,0.));
#242 = PLANE('',#243);
#243 = AXIS2_PLACEMENT_3D('',#244,#245,#246);
#244 = CARTESIAN_POINT('',(0.,-120.,13.59));
#245 = DIRECTION('',(0.,0.,1.));
#246 = DIRECTION('',(1.,0.,0.));
#247 = ADVANCED_FACE('',(#248),#264,.T.);
#248 = FACE_BOUND('',#249,.T.);
#249 = EDGE_LOOP('',(#250,#251,#257,#258));
#250 = ORIENTED_EDGE('',*,*,#168,.F.);
#251 = ORIENTED_EDGE('',*,*,#252,.T.);
#252 = EDGE_CURVE('',#169,#220,#253,.T.);
#253 = LINE('',#254,#255);
#254 = CARTESIAN_POINT('',(38.8,-14.,0.));
#255 = VECTOR('',#256,1.);
#256 = DIRECTION('',(0.,0.,1.));
#257 = ORIENTED_EDGE('',*,*,#219,.T.);
#258 = ORIENTED_EDGE('',*,*,#259,.F.);
#259 = EDGE_CURVE('',#160,#211,#260,.T.);
#260 = LINE('',#261,#262);
#261 = CARTESIAN_POINT('',(35.2,-14.,0.));
#262 = VECTOR('',#263,1.);
#263 = DIRECTION('',(0.,0.,1.));
#264 = PLANE('',#265);
#265 = AXIS2_PLACEMENT_3D('',#266,#267,#268);
#266 = CARTESIAN_POINT('',(38.8,-14.,0.));
#267 = DIRECTION('',(0.,-1.,0.));
#268 = DIRECTION('',(-1.,0.,0.));
#269 = ADVANCED_FACE('',(#270),#278,.T.);
#270 = FACE_BOUND('',#271,.T.);
#271 = EDGE_LOOP('',(#272,#273,#274,#275,#276,#277));
#272 = ORIENTED_EDGE('',*,*,#227,.T.);
#273 = ORIENTED_EDGE('',*,*,#252,.F.);
#274 = ORIENTED_EDGE('',*,*,#176,.F.);
#275 = ORIENTED_EDGE('',*,*,#185,.F.);
#276 = ORIENTED_EDGE('',*,*,#135,.T.);
#277 = ORIENTED_EDGE('',*,*,#236,.T.);
#278 = CYLINDRICAL_SURFACE('',#279,0.6);
#279 = AXIS2_PLACEMENT_3D('',#280,#281,#282);
#280 = CARTESIAN_POINT('',(38.8,-13.4,0.));
#281 = DIRECTION('',(0.,0.,-1.));
#282 = DIRECTION('',(1.184E-14,1.,0.));
#283 = ADVANCED_FACE('',(#284),#292,.T.);
#284 = FACE_BOUND('',#285,.T.);
#285 = EDGE_LOOP('',(#286,#287,#288,#289,#290,#291));
#286 = ORIENTED_EDGE('',*,*,#259,.T.);
#287 = ORIENTED_EDGE('',*,*,#210,.T.);
#288 = ORIENTED_EDGE('',*,*,#201,.T.);
#289 = ORIENTED_EDGE('',*,*,#119,.F.);
#290 = ORIENTED_EDGE('',*,*,#150,.F.);
#291 = ORIENTED_EDGE('',*,*,#159,.F.);
#292 = CYLINDRICAL_SURFACE('',#293,0.6);
#293 = AXIS2_PLACEMENT_3D('',#294,#295,#296);
#294 = CARTESIAN_POINT('',(35.2,-13.4,0.));
#295 = DIRECTION('',(0.,0.,-1.));
#296 = DIRECTION('',(-1.,-1.48E-14,-0.));
#297 = ( GEOMETRIC_REPRESENTATION_CONTEXT(3) 
GLOBAL_UNCERTAINTY_ASSIGNED_CONTEXT((#301)) GLOBAL_UNIT_ASSIGNED_CONTEXT
((#298,#299,#300)) REPRESENTATION_CONTEXT('Context #1',
  '3D Context with UNIT and UNCERTAINTY') );
#298 = ( LENGTH_UNIT() NAMED_UNIT(*) SI_UNIT(.MILLI.,.METRE.) );
#299 = ( NAMED_UNIT(*) PLANE_ANGLE_UNIT() SI_UNIT($,.RADIAN.) );
#300 = ( NAMED_UNIT(*) SI_UNIT($,.STERADIAN.) SOLID_ANGLE_UNIT() );
#301 = UNCERTAINTY_MEASURE_WITH_UNIT(LENGTH_MEASURE(5.E-05),#298,
  'distance_accuracy_value','confusion accuracy');
#302 = PRODUCT_RELATED_PRODUCT_CATEGORY('part',$,(#7));
ENDSEC;
END-ISO-10303-21;
