ISO-10303-21;
HEADER;
FILE_DESCRIPTION(('FreeCAD Model'),'2;1');
FILE_NAME('Open CASCADE Shape Model','2026-09-28T16:00:38',('FreeCAD'),(
    'FreeCAD'),'Open CASCADE STEP processor 7.8','FreeCAD','Unknown');
FILE_SCHEMA(('AUTOMOTIVE_DESIGN { 1 0 10303 214 1 1 1 1 }'));
ENDSEC;
DATA;
#1 = APPLICATION_PROTOCOL_DEFINITION('international standard',
  'automotive_design',2000,#2);
#2 = APPLICATION_CONTEXT(
  'core data for automotive mechanical design processes');
#3 = SHAPE_DEFINITION_REPRESENTATION(#4,#10);
#4 = PRODUCT_DEFINITION_SHAPE('','',#5);
#5 = PRODUCT_DEFINITION('design','',#6,#9);
#6 = PRODUCT_DEFINITION_FORMATION('','',#7);
#7 = PRODUCT('Open CASCADE STEP translator 7.8 87',
  'Open CASCADE STEP translator 7.8 87','',(#8));
#8 = PRODUCT_CONTEXT('',#2,'mechanical');
#9 = PRODUCT_DEFINITION_CONTEXT('part definition',#2,'design');
#10 = SHAPE_REPRESENTATION('',(#11,#15,#237,#391),#585);
#11 = AXIS2_PLACEMENT_3D('',#12,#13,#14);
#12 = CARTESIAN_POINT('',(0.,0.,0.));
#13 = DIRECTION('',(0.,0.,1.));
#14 = DIRECTION('',(1.,0.,-0.));
#15 = MANIFOLD_SOLID_BREP('',#16);
#16 = CLOSED_SHELL('',(#17,#59,#108,#132,#174,#191,#208,#225));
#17 = ADVANCED_FACE('',(#18),#54,.T.);
#18 = FACE_BOUND('',#19,.F.);
#19 = EDGE_LOOP('',(#20,#31,#39,#48));
#20 = ORIENTED_EDGE('',*,*,#21,.F.);
#21 = EDGE_CURVE('',#22,#24,#26,.T.);
#22 = VERTEX_POINT('',#23);
#23 = CARTESIAN_POINT('',(45.7,-16.98013158464,12.99));
#24 = VERTEX_POINT('',#25);
#25 = CARTESIAN_POINT('',(45.15,-16.64595037822,12.99));
#26 = CIRCLE('',#27,2.);
#27 = AXIS2_PLACEMENT_3D('',#28,#29,#30);
#28 = CARTESIAN_POINT('',(44.4,-18.5,12.99));
#29 = DIRECTION('',(0.,-0.,1.));
#30 = DIRECTION('',(1.,1.78E-15,0.));
#31 = ORIENTED_EDGE('',*,*,#32,.F.);
#32 = EDGE_CURVE('',#33,#22,#35,.T.);
#33 = VERTEX_POINT('',#34);
#34 = CARTESIAN_POINT('',(45.7,-16.98013158464,13.39));
#35 = LINE('',#36,#37);
#36 = CARTESIAN_POINT('',(45.7,-16.98013158464,12.99));
#37 = VECTOR('',#38,1.);
#38 = DIRECTION('',(0.,0.,-1.));
#39 = ORIENTED_EDGE('',*,*,#40,.T.);
#40 = EDGE_CURVE('',#33,#41,#43,.T.);
#41 = VERTEX_POINT('',#42);
#42 = CARTESIAN_POINT('',(45.15,-16.64595037822,13.39));
#43 = CIRCLE('',#44,2.);
#44 = AXIS2_PLACEMENT_3D('',#45,#46,#47);
#45 = CARTESIAN_POINT('',(44.4,-18.5,13.39));
#46 = DIRECTION('',(0.,-0.,1.));
#47 = DIRECTION('',(1.,1.78E-15,0.));
#48 = ORIENTED_EDGE('',*,*,#49,.T.);
#49 = EDGE_CURVE('',#41,#24,#50,.T.);
#50 = LINE('',#51,#52);
#51 = CARTESIAN_POINT('',(45.15,-16.64595037822,12.99));
#52 = VECTOR('',#53,1.);
#53 = DIRECTION('',(0.,0.,-1.));
#54 = CYLINDRICAL_SURFACE('',#55,2.);
#55 = AXIS2_PLACEMENT_3D('',#56,#57,#58);
#56 = CARTESIAN_POINT('',(44.4,-18.5,12.99));
#57 = DIRECTION('',(0.,0.,-1.));
#58 = DIRECTION('',(1.,1.78E-15,0.));
#59 = ADVANCED_FACE('',(#60),#103,.F.);
#60 = FACE_BOUND('',#61,.F.);
#61 = EDGE_LOOP('',(#62,#70,#71,#79,#88,#96));
#62 = ORIENTED_EDGE('',*,*,#63,.F.);
#63 = EDGE_CURVE('',#22,#64,#66,.T.);
#64 = VERTEX_POINT('',#65);
#65 = CARTESIAN_POINT('',(45.7,-24.3,12.99));
#66 = LINE('',#67,#68);
#67 = CARTESIAN_POINT('',(45.7,-14.7,12.99));
#68 = VECTOR('',#69,1.);
#69 = DIRECTION('',(0.,-1.,0.));
#70 = ORIENTED_EDGE('',*,*,#21,.T.);
#71 = ORIENTED_EDGE('',*,*,#72,.F.);
#72 = EDGE_CURVE('',#73,#24,#75,.T.);
#73 = VERTEX_POINT('',#74);
#74 = CARTESIAN_POINT('',(45.15,-51.05404962177,12.99));
#75 = LINE('',#76,#77);
#76 = CARTESIAN_POINT('',(45.15,-46.04641870115,12.99));
#77 = VECTOR('',#78,1.);
#78 = DIRECTION('',(0.,1.,0.));
#79 = ORIENTED_EDGE('',*,*,#80,.T.);
#80 = EDGE_CURVE('',#73,#81,#83,.T.);
#81 = VERTEX_POINT('',#82);
#82 = CARTESIAN_POINT('',(46.4,-49.2,12.99));
#83 = CIRCLE('',#84,2.);
#84 = AXIS2_PLACEMENT_3D('',#85,#86,#87);
#85 = CARTESIAN_POINT('',(44.4,-49.2,12.99));
#86 = DIRECTION('',(-0.,0.,1.));
#87 = DIRECTION('',(3.55E-15,-1.,0.));
#88 = ORIENTED_EDGE('',*,*,#89,.T.);
#89 = EDGE_CURVE('',#81,#90,#92,.T.);
#90 = VERTEX_POINT('',#91);
#91 = CARTESIAN_POINT('',(46.4,-25.39087121146,12.99));
#92 = LINE('',#93,#94);
#93 = CARTESIAN_POINT('',(46.4,-49.2,12.99));
#94 = VECTOR('',#95,1.);
#95 = DIRECTION('',(0.,1.,0.));
#96 = ORIENTED_EDGE('',*,*,#97,.F.);
#97 = EDGE_CURVE('',#64,#90,#98,.T.);
#98 = CIRCLE('',#99,1.2);
#99 = AXIS2_PLACEMENT_3D('',#100,#101,#102);
#100 = CARTESIAN_POINT('',(46.9,-24.3,12.99));
#101 = DIRECTION('',(0.,0.,1.));
#102 = DIRECTION('',(-1.,-8.88E-15,0.));
#103 = PLANE('',#104);
#104 = AXIS2_PLACEMENT_3D('',#105,#106,#107);
#105 = CARTESIAN_POINT('',(37.2,-33.85,12.99));
#106 = DIRECTION('',(0.,0.,1.));
#107 = DIRECTION('',(1.,0.,0.));
#108 = ADVANCED_FACE('',(#109),#127,.F.);
#109 = FACE_BOUND('',#110,.F.);
#110 = EDGE_LOOP('',(#111,#119,#120,#121));
#111 = ORIENTED_EDGE('',*,*,#112,.T.);
#112 = EDGE_CURVE('',#113,#73,#115,.T.);
#113 = VERTEX_POINT('',#114);
#114 = CARTESIAN_POINT('',(45.15,-51.05404962177,13.39));
#115 = LINE('',#116,#117);
#116 = CARTESIAN_POINT('',(45.15,-51.05404962177,12.99));
#117 = VECTOR('',#118,1.);
#118 = DIRECTION('',(0.,0.,-1.));
#119 = ORIENTED_EDGE('',*,*,#72,.T.);
#120 = ORIENTED_EDGE('',*,*,#49,.F.);
#121 = ORIENTED_EDGE('',*,*,#122,.F.);
#122 = EDGE_CURVE('',#113,#41,#123,.T.);
#123 = LINE('',#124,#125);
#124 = CARTESIAN_POINT('',(45.15,-46.04893884022,13.39));
#125 = VECTOR('',#126,1.);
#126 = DIRECTION('',(0.,1.,0.));
#127 = PLANE('',#128);
#128 = AXIS2_PLACEMENT_3D('',#129,#130,#131);
#129 = CARTESIAN_POINT('',(45.15,-53.,11.7));
#130 = DIRECTION('',(1.,0.,0.));
#131 = DIRECTION('',(0.,0.,1.));
#132 = ADVANCED_FACE('',(#133),#169,.T.);
#133 = FACE_BOUND('',#134,.T.);
#134 = EDGE_LOOP('',(#135,#143,#144,#145,#154,#162));
#135 = ORIENTED_EDGE('',*,*,#136,.F.);
#136 = EDGE_CURVE('',#33,#137,#139,.T.);
#137 = VERTEX_POINT('',#138);
#138 = CARTESIAN_POINT('',(45.7,-24.3,13.39));
#139 = LINE('',#140,#141);
#140 = CARTESIAN_POINT('',(45.7,-14.7,13.39));
#141 = VECTOR('',#142,1.);
#142 = DIRECTION('',(0.,-1.,0.));
#143 = ORIENTED_EDGE('',*,*,#40,.T.);
#144 = ORIENTED_EDGE('',*,*,#122,.F.);
#145 = ORIENTED_EDGE('',*,*,#146,.T.);
#146 = EDGE_CURVE('',#113,#147,#149,.T.);
#147 = VERTEX_POINT('',#148);
#148 = CARTESIAN_POINT('',(46.4,-49.2,13.39));
#149 = CIRCLE('',#150,2.);
#150 = AXIS2_PLACEMENT_3D('',#151,#152,#153);
#151 = CARTESIAN_POINT('',(44.4,-49.2,13.39));
#152 = DIRECTION('',(-0.,0.,1.));
#153 = DIRECTION('',(3.55E-15,-1.,0.));
#154 = ORIENTED_EDGE('',*,*,#155,.T.);
#155 = EDGE_CURVE('',#147,#156,#158,.T.);
#156 = VERTEX_POINT('',#157);
#157 = CARTESIAN_POINT('',(46.4,-25.39087121146,13.39));
#158 = LINE('',#159,#160);
#159 = CARTESIAN_POINT('',(46.4,-49.2,13.39));
#160 = VECTOR('',#161,1.);
#161 = DIRECTION('',(0.,1.,0.));
#162 = ORIENTED_EDGE('',*,*,#163,.F.);
#163 = EDGE_CURVE('',#137,#156,#164,.T.);
#164 = CIRCLE('',#165,1.2);
#165 = AXIS2_PLACEMENT_3D('',#166,#167,#168);
#166 = CARTESIAN_POINT('',(46.9,-24.3,13.39));
#167 = DIRECTION('',(0.,0.,1.));
#168 = DIRECTION('',(-1.,-8.88E-15,0.));
#169 = PLANE('',#170);
#170 = AXIS2_PLACEMENT_3D('',#171,#172,#173);
#171 = CARTESIAN_POINT('',(37.2,-33.85,13.39));
#172 = DIRECTION('',(0.,0.,1.));
#173 = DIRECTION('',(1.,0.,0.));
#174 = ADVANCED_FACE('',(#175),#186,.T.);
#175 = FACE_BOUND('',#176,.T.);
#176 = EDGE_LOOP('',(#177,#178,#179,#180));
#177 = ORIENTED_EDGE('',*,*,#63,.F.);
#178 = ORIENTED_EDGE('',*,*,#32,.F.);
#179 = ORIENTED_EDGE('',*,*,#136,.T.);
#180 = ORIENTED_EDGE('',*,*,#181,.F.);
#181 = EDGE_CURVE('',#64,#137,#182,.T.);
#182 = LINE('',#183,#184);
#183 = CARTESIAN_POINT('',(45.7,-24.3,12.99));
#184 = VECTOR('',#185,1.);
#185 = DIRECTION('',(0.,0.,1.));
#186 = PLANE('',#187);
#187 = AXIS2_PLACEMENT_3D('',#188,#189,#190);
#188 = CARTESIAN_POINT('',(45.7,-14.7,12.99));
#189 = DIRECTION('',(1.,0.,0.));
#190 = DIRECTION('',(0.,-1.,0.));
#191 = ADVANCED_FACE('',(#192),#203,.F.);
#192 = FACE_BOUND('',#193,.T.);
#193 = EDGE_LOOP('',(#194,#195,#196,#197));
#194 = ORIENTED_EDGE('',*,*,#97,.F.);
#195 = ORIENTED_EDGE('',*,*,#181,.T.);
#196 = ORIENTED_EDGE('',*,*,#163,.T.);
#197 = ORIENTED_EDGE('',*,*,#198,.T.);
#198 = EDGE_CURVE('',#156,#90,#199,.T.);
#199 = LINE('',#200,#201);
#200 = CARTESIAN_POINT('',(46.4,-25.39087121146,12.99));
#201 = VECTOR('',#202,1.);
#202 = DIRECTION('',(-0.,-0.,-1.));
#203 = CYLINDRICAL_SURFACE('',#204,1.2);
#204 = AXIS2_PLACEMENT_3D('',#205,#206,#207);
#205 = CARTESIAN_POINT('',(46.9,-24.3,12.99));
#206 = DIRECTION('',(-0.,-0.,-1.));
#207 = DIRECTION('',(-1.,-8.88E-15,0.));
#208 = ADVANCED_FACE('',(#209),#220,.F.);
#209 = FACE_BOUND('',#210,.F.);
#210 = EDGE_LOOP('',(#211,#212,#218,#219));
#211 = ORIENTED_EDGE('',*,*,#89,.F.);
#212 = ORIENTED_EDGE('',*,*,#213,.T.);
#213 = EDGE_CURVE('',#81,#147,#214,.T.);
#214 = LINE('',#215,#216);
#215 = CARTESIAN_POINT('',(46.4,-49.2,12.99));
#216 = VECTOR('',#217,1.);
#217 = DIRECTION('',(0.,0.,1.));
#218 = ORIENTED_EDGE('',*,*,#155,.T.);
#219 = ORIENTED_EDGE('',*,*,#198,.T.);
#220 = PLANE('',#221);
#221 = AXIS2_PLACEMENT_3D('',#222,#223,#224);
#222 = CARTESIAN_POINT('',(46.4,-49.2,12.99));
#223 = DIRECTION('',(-1.,0.,0.));
#224 = DIRECTION('',(0.,1.,0.));
#225 = ADVANCED_FACE('',(#226),#232,.T.);
#226 = FACE_BOUND('',#227,.F.);
#227 = EDGE_LOOP('',(#228,#229,#230,#231));
#228 = ORIENTED_EDGE('',*,*,#80,.F.);
#229 = ORIENTED_EDGE('',*,*,#112,.F.);
#230 = ORIENTED_EDGE('',*,*,#146,.T.);
#231 = ORIENTED_EDGE('',*,*,#213,.F.);
#232 = CYLINDRICAL_SURFACE('',#233,2.);
#233 = AXIS2_PLACEMENT_3D('',#234,#235,#236);
#234 = CARTESIAN_POINT('',(44.4,-49.2,12.99));
#235 = DIRECTION('',(0.,0.,-1.));
#236 = DIRECTION('',(3.55E-15,-1.,0.));
#237 = MANIFOLD_SOLID_BREP('',#238);
#238 = CLOSED_SHELL('',(#239,#281,#313,#337,#362,#379));
#239 = ADVANCED_FACE('',(#240),#276,.T.);
#240 = FACE_BOUND('',#241,.F.);
#241 = EDGE_LOOP('',(#242,#253,#261,#270));
#242 = ORIENTED_EDGE('',*,*,#243,.F.);
#243 = EDGE_CURVE('',#244,#246,#248,.T.);
#244 = VERTEX_POINT('',#245);
#245 = CARTESIAN_POINT('',(29.25,-16.64595037822,12.99));
#246 = VERTEX_POINT('',#247);
#247 = CARTESIAN_POINT('',(28.,-18.5,12.99));
#248 = CIRCLE('',#249,2.);
#249 = AXIS2_PLACEMENT_3D('',#250,#251,#252);
#250 = CARTESIAN_POINT('',(30.,-18.5,12.99));
#251 = DIRECTION('',(0.,-0.,1.));
#252 = DIRECTION('',(1.066E-14,1.,0.));
#253 = ORIENTED_EDGE('',*,*,#254,.F.);
#254 = EDGE_CURVE('',#255,#244,#257,.T.);
#255 = VERTEX_POINT('',#256);
#256 = CARTESIAN_POINT('',(29.25,-16.64595037822,13.39));
#257 = LINE('',#258,#259);
#258 = CARTESIAN_POINT('',(29.25,-16.64595037822,12.99));
#259 = VECTOR('',#260,1.);
#260 = DIRECTION('',(0.,0.,-1.));
#261 = ORIENTED_EDGE('',*,*,#262,.T.);
#262 = EDGE_CURVE('',#255,#263,#265,.T.);
#263 = VERTEX_POINT('',#264);
#264 = CARTESIAN_POINT('',(28.,-18.5,13.39));
#265 = CIRCLE('',#266,2.);
#266 = AXIS2_PLACEMENT_3D('',#267,#268,#269);
#267 = CARTESIAN_POINT('',(30.,-18.5,13.39));
#268 = DIRECTION('',(0.,-0.,1.));
#269 = DIRECTION('',(1.066E-14,1.,0.));
#270 = ORIENTED_EDGE('',*,*,#271,.F.);
#271 = EDGE_CURVE('',#246,#263,#272,.T.);
#272 = LINE('',#273,#274);
#273 = CARTESIAN_POINT('',(28.,-18.5,12.99));
#274 = VECTOR('',#275,1.);
#275 = DIRECTION('',(0.,0.,1.));
#276 = CYLINDRICAL_SURFACE('',#277,2.);
#277 = AXIS2_PLACEMENT_3D('',#278,#279,#280);
#278 = CARTESIAN_POINT('',(30.,-18.5,12.99));
#279 = DIRECTION('',(0.,0.,-1.));
#280 = DIRECTION('',(1.066E-14,1.,0.));
#281 = ADVANCED_FACE('',(#282),#308,.F.);
#282 = FACE_BOUND('',#283,.F.);
#283 = EDGE_LOOP('',(#284,#292,#293,#301));
#284 = ORIENTED_EDGE('',*,*,#285,.T.);
#285 = EDGE_CURVE('',#286,#244,#288,.T.);
#286 = VERTEX_POINT('',#287);
#287 = CARTESIAN_POINT('',(29.25,-51.05404962177,12.99));
#288 = LINE('',#289,#290);
#289 = CARTESIAN_POINT('',(29.25,-46.04641870115,12.99));
#290 = VECTOR('',#291,1.);
#291 = DIRECTION('',(0.,1.,0.));
#292 = ORIENTED_EDGE('',*,*,#243,.T.);
#293 = ORIENTED_EDGE('',*,*,#294,.T.);
#294 = EDGE_CURVE('',#246,#295,#297,.T.);
#295 = VERTEX_POINT('',#296);
#296 = CARTESIAN_POINT('',(28.,-49.2,12.99));
#297 = LINE('',#298,#299);
#298 = CARTESIAN_POINT('',(28.,-18.5,12.99));
#299 = VECTOR('',#300,1.);
#300 = DIRECTION('',(0.,-1.,0.));
#301 = ORIENTED_EDGE('',*,*,#302,.T.);
#302 = EDGE_CURVE('',#295,#286,#303,.T.);
#303 = CIRCLE('',#304,2.);
#304 = AXIS2_PLACEMENT_3D('',#305,#306,#307);
#305 = CARTESIAN_POINT('',(30.,-49.2,12.99));
#306 = DIRECTION('',(0.,0.,1.));
#307 = DIRECTION('',(-1.,7.11E-15,0.));
#308 = PLANE('',#309);
#309 = AXIS2_PLACEMENT_3D('',#310,#311,#312);
#310 = CARTESIAN_POINT('',(37.2,-33.85,12.99));
#311 = DIRECTION('',(0.,0.,1.));
#312 = DIRECTION('',(1.,0.,0.));
#313 = ADVANCED_FACE('',(#314),#332,.F.);
#314 = FACE_BOUND('',#315,.F.);
#315 = EDGE_LOOP('',(#316,#317,#325,#331));
#316 = ORIENTED_EDGE('',*,*,#271,.T.);
#317 = ORIENTED_EDGE('',*,*,#318,.T.);
#318 = EDGE_CURVE('',#263,#319,#321,.T.);
#319 = VERTEX_POINT('',#320);
#320 = CARTESIAN_POINT('',(28.,-49.2,13.39));
#321 = LINE('',#322,#323);
#322 = CARTESIAN_POINT('',(28.,-18.5,13.39));
#323 = VECTOR('',#324,1.);
#324 = DIRECTION('',(0.,-1.,0.));
#325 = ORIENTED_EDGE('',*,*,#326,.F.);
#326 = EDGE_CURVE('',#295,#319,#327,.T.);
#327 = LINE('',#328,#329);
#328 = CARTESIAN_POINT('',(28.,-49.2,12.99));
#329 = VECTOR('',#330,1.);
#330 = DIRECTION('',(0.,0.,1.));
#331 = ORIENTED_EDGE('',*,*,#294,.F.);
#332 = PLANE('',#333);
#333 = AXIS2_PLACEMENT_3D('',#334,#335,#336);
#334 = CARTESIAN_POINT('',(28.,-18.5,12.99));
#335 = DIRECTION('',(1.,0.,0.));
#336 = DIRECTION('',(0.,-1.,0.));
#337 = ADVANCED_FACE('',(#338),#357,.T.);
#338 = FACE_BOUND('',#339,.T.);
#339 = EDGE_LOOP('',(#340,#348,#349,#350));
#340 = ORIENTED_EDGE('',*,*,#341,.T.);
#341 = EDGE_CURVE('',#342,#255,#344,.T.);
#342 = VERTEX_POINT('',#343);
#343 = CARTESIAN_POINT('',(29.25,-51.05404962177,13.39));
#344 = LINE('',#345,#346);
#345 = CARTESIAN_POINT('',(29.25,-46.04893884022,13.39));
#346 = VECTOR('',#347,1.);
#347 = DIRECTION('',(0.,1.,0.));
#348 = ORIENTED_EDGE('',*,*,#262,.T.);
#349 = ORIENTED_EDGE('',*,*,#318,.T.);
#350 = ORIENTED_EDGE('',*,*,#351,.T.);
#351 = EDGE_CURVE('',#319,#342,#352,.T.);
#352 = CIRCLE('',#353,2.);
#353 = AXIS2_PLACEMENT_3D('',#354,#355,#356);
#354 = CARTESIAN_POINT('',(30.,-49.2,13.39));
#355 = DIRECTION('',(0.,0.,1.));
#356 = DIRECTION('',(-1.,7.11E-15,0.));
#357 = PLANE('',#358);
#358 = AXIS2_PLACEMENT_3D('',#359,#360,#361);
#359 = CARTESIAN_POINT('',(37.2,-33.85,13.39));
#360 = DIRECTION('',(0.,0.,1.));
#361 = DIRECTION('',(1.,0.,0.));
#362 = ADVANCED_FACE('',(#363),#374,.T.);
#363 = FACE_BOUND('',#364,.T.);
#364 = EDGE_LOOP('',(#365,#371,#372,#373));
#365 = ORIENTED_EDGE('',*,*,#366,.T.);
#366 = EDGE_CURVE('',#342,#286,#367,.T.);
#367 = LINE('',#368,#369);
#368 = CARTESIAN_POINT('',(29.25,-51.05404962177,12.99));
#369 = VECTOR('',#370,1.);
#370 = DIRECTION('',(-0.,-0.,-1.));
#371 = ORIENTED_EDGE('',*,*,#285,.T.);
#372 = ORIENTED_EDGE('',*,*,#254,.F.);
#373 = ORIENTED_EDGE('',*,*,#341,.F.);
#374 = PLANE('',#375);
#375 = AXIS2_PLACEMENT_3D('',#376,#377,#378);
#376 = CARTESIAN_POINT('',(29.25,-53.,11.7));
#377 = DIRECTION('',(1.,0.,0.));
#378 = DIRECTION('',(0.,0.,1.));
#379 = ADVANCED_FACE('',(#380),#386,.T.);
#380 = FACE_BOUND('',#381,.F.);
#381 = EDGE_LOOP('',(#382,#383,#384,#385));
#382 = ORIENTED_EDGE('',*,*,#302,.F.);
#383 = ORIENTED_EDGE('',*,*,#326,.T.);
#384 = ORIENTED_EDGE('',*,*,#351,.T.);
#385 = ORIENTED_EDGE('',*,*,#366,.T.);
#386 = CYLINDRICAL_SURFACE('',#387,2.);
#387 = AXIS2_PLACEMENT_3D('',#388,#389,#390);
#388 = CARTESIAN_POINT('',(30.,-49.2,12.99));
#389 = DIRECTION('',(-0.,-0.,-1.));
#390 = DIRECTION('',(-1.,7.11E-15,0.));
#391 = MANIFOLD_SOLID_BREP('',#392);
#392 = CLOSED_SHELL('',(#393,#433,#484,#515,#557,#571));
#393 = ADVANCED_FACE('',(#394),#428,.F.);
#394 = FACE_BOUND('',#395,.F.);
#395 = EDGE_LOOP('',(#396,#406,#414,#422));
#396 = ORIENTED_EDGE('',*,*,#397,.T.);
#397 = EDGE_CURVE('',#398,#400,#402,.T.);
#398 = VERTEX_POINT('',#399);
#399 = CARTESIAN_POINT('',(44.6,-63.3,12.99));
#400 = VERTEX_POINT('',#401);
#401 = CARTESIAN_POINT('',(44.6,-63.3,13.39));
#402 = LINE('',#403,#404);
#403 = CARTESIAN_POINT('',(44.6,-63.3,12.99));
#404 = VECTOR('',#405,1.);
#405 = DIRECTION('',(0.,0.,1.));
#406 = ORIENTED_EDGE('',*,*,#407,.T.);
#407 = EDGE_CURVE('',#400,#408,#410,.T.);
#408 = VERTEX_POINT('',#409);
#409 = CARTESIAN_POINT('',(29.4,-63.3,13.39));
#410 = LINE('',#411,#412);
#411 = CARTESIAN_POINT('',(44.6,-63.3,13.39));
#412 = VECTOR('',#413,1.);
#413 = DIRECTION('',(-1.,0.,0.));
#414 = ORIENTED_EDGE('',*,*,#415,.F.);
#415 = EDGE_CURVE('',#416,#408,#418,.T.);
#416 = VERTEX_POINT('',#417);
#417 = CARTESIAN_POINT('',(29.4,-63.3,12.99));
#418 = LINE('',#419,#420);
#419 = CARTESIAN_POINT('',(29.4,-63.3,12.99));
#420 = VECTOR('',#421,1.);
#421 = DIRECTION('',(0.,0.,1.));
#422 = ORIENTED_EDGE('',*,*,#423,.F.);
#423 = EDGE_CURVE('',#398,#416,#424,.T.);
#424 = LINE('',#425,#426);
#425 = CARTESIAN_POINT('',(44.6,-63.3,12.99));
#426 = VECTOR('',#427,1.);
#427 = DIRECTION('',(-1.,0.,0.));
#428 = PLANE('',#429);
#429 = AXIS2_PLACEMENT_3D('',#430,#431,#432);
#430 = CARTESIAN_POINT('',(44.6,-63.3,12.99));
#431 = DIRECTION('',(0.,-1.,0.));
#432 = DIRECTION('',(-1.,0.,0.));
#433 = ADVANCED_FACE('',(#434),#479,.F.);
#434 = FACE_BOUND('',#435,.F.);
#435 = EDGE_LOOP('',(#436,#437,#446,#455,#463,#472));
#436 = ORIENTED_EDGE('',*,*,#423,.T.);
#437 = ORIENTED_EDGE('',*,*,#438,.T.);
#438 = EDGE_CURVE('',#416,#439,#441,.T.);
#439 = VERTEX_POINT('',#440);
#440 = CARTESIAN_POINT('',(28.8,-63.9,12.99));
#441 = CIRCLE('',#442,0.6);
#442 = AXIS2_PLACEMENT_3D('',#443,#444,#445);
#443 = CARTESIAN_POINT('',(29.4,-63.9,12.99));
#444 = DIRECTION('',(0.,0.,1.));
#445 = DIRECTION('',(-1.776E-14,1.,0.));
#446 = ORIENTED_EDGE('',*,*,#447,.T.);
#447 = EDGE_CURVE('',#439,#448,#450,.T.);
#448 = VERTEX_POINT('',#449);
#449 = CARTESIAN_POINT('',(29.4,-64.5,12.99));
#450 = CIRCLE('',#451,0.6);
#451 = AXIS2_PLACEMENT_3D('',#452,#453,#454);
#452 = CARTESIAN_POINT('',(29.4,-63.9,12.99));
#453 = DIRECTION('',(0.,0.,1.));
#454 = DIRECTION('',(-1.,0.,0.));
#455 = ORIENTED_EDGE('',*,*,#456,.T.);
#456 = EDGE_CURVE('',#448,#457,#459,.T.);
#457 = VERTEX_POINT('',#458);
#458 = CARTESIAN_POINT('',(44.6,-64.5,12.99));
#459 = LINE('',#460,#461);
#460 = CARTESIAN_POINT('',(29.4,-64.5,12.99));
#461 = VECTOR('',#462,1.);
#462 = DIRECTION('',(1.,0.,0.));
#463 = ORIENTED_EDGE('',*,*,#464,.T.);
#464 = EDGE_CURVE('',#457,#465,#467,.T.);
#465 = VERTEX_POINT('',#466);
#466 = CARTESIAN_POINT('',(45.2,-63.9,12.99));
#467 = CIRCLE('',#468,0.6);
#468 = AXIS2_PLACEMENT_3D('',#469,#470,#471);
#469 = CARTESIAN_POINT('',(44.6,-63.9,12.99));
#470 = DIRECTION('',(-0.,0.,1.));
#471 = DIRECTION('',(2.368E-14,-1.,0.));
#472 = ORIENTED_EDGE('',*,*,#473,.T.);
#473 = EDGE_CURVE('',#465,#398,#474,.T.);
#474 = CIRCLE('',#475,0.6);
#475 = AXIS2_PLACEMENT_3D('',#476,#477,#478);
#476 = CARTESIAN_POINT('',(44.6,-63.9,12.99));
#477 = DIRECTION('',(0.,0.,1.));
#478 = DIRECTION('',(1.,0.,0.));
#479 = PLANE('',#480);
#480 = AXIS2_PLACEMENT_3D('',#481,#482,#483);
#481 = CARTESIAN_POINT('',(37.,-63.9,12.99));
#482 = DIRECTION('',(0.,0.,1.));
#483 = DIRECTION('',(1.,0.,0.));
#484 = ADVANCED_FACE('',(#485),#510,.F.);
#485 = FACE_BOUND('',#486,.F.);
#486 = EDGE_LOOP('',(#487,#495,#503,#509));
#487 = ORIENTED_EDGE('',*,*,#488,.T.);
#488 = EDGE_CURVE('',#448,#489,#491,.T.);
#489 = VERTEX_POINT('',#490);
#490 = CARTESIAN_POINT('',(29.4,-64.5,13.39));
#491 = LINE('',#492,#493);
#492 = CARTESIAN_POINT('',(29.4,-64.5,12.99));
#493 = VECTOR('',#494,1.);
#494 = DIRECTION('',(0.,0.,1.));
#495 = ORIENTED_EDGE('',*,*,#496,.T.);
#496 = EDGE_CURVE('',#489,#497,#499,.T.);
#497 = VERTEX_POINT('',#498);
#498 = CARTESIAN_POINT('',(44.6,-64.5,13.39));
#499 = LINE('',#500,#501);
#500 = CARTESIAN_POINT('',(29.4,-64.5,13.39));
#501 = VECTOR('',#502,1.);
#502 = DIRECTION('',(1.,0.,0.));
#503 = ORIENTED_EDGE('',*,*,#504,.F.);
#504 = EDGE_CURVE('',#457,#497,#505,.T.);
#505 = LINE('',#506,#507);
#506 = CARTESIAN_POINT('',(44.6,-64.5,12.99));
#507 = VECTOR('',#508,1.);
#508 = DIRECTION('',(0.,0.,1.));
#509 = ORIENTED_EDGE('',*,*,#456,.F.);
#510 = PLANE('',#511);
#511 = AXIS2_PLACEMENT_3D('',#512,#513,#514);
#512 = CARTESIAN_POINT('',(29.4,-64.5,12.99));
#513 = DIRECTION('',(0.,1.,0.));
#514 = DIRECTION('',(1.,0.,0.));
#515 = ADVANCED_FACE('',(#516),#552,.T.);
#516 = FACE_BOUND('',#517,.T.);
#517 = EDGE_LOOP('',(#518,#519,#528,#535,#536,#545));
#518 = ORIENTED_EDGE('',*,*,#407,.T.);
#519 = ORIENTED_EDGE('',*,*,#520,.T.);
#520 = EDGE_CURVE('',#408,#521,#523,.T.);
#521 = VERTEX_POINT('',#522);
#522 = CARTESIAN_POINT('',(28.8,-63.9,13.39));
#523 = CIRCLE('',#524,0.6);
#524 = AXIS2_PLACEMENT_3D('',#525,#526,#527);
#525 = CARTESIAN_POINT('',(29.4,-63.9,13.39));
#526 = DIRECTION('',(0.,0.,1.));
#527 = DIRECTION('',(-1.776E-14,1.,0.));
#528 = ORIENTED_EDGE('',*,*,#529,.T.);
#529 = EDGE_CURVE('',#521,#489,#530,.T.);
#530 = CIRCLE('',#531,0.6);
#531 = AXIS2_PLACEMENT_3D('',#532,#533,#534);
#532 = CARTESIAN_POINT('',(29.4,-63.9,13.39));
#533 = DIRECTION('',(0.,0.,1.));
#534 = DIRECTION('',(-1.,0.,0.));
#535 = ORIENTED_EDGE('',*,*,#496,.T.);
#536 = ORIENTED_EDGE('',*,*,#537,.T.);
#537 = EDGE_CURVE('',#497,#538,#540,.T.);
#538 = VERTEX_POINT('',#539);
#539 = CARTESIAN_POINT('',(45.2,-63.9,13.39));
#540 = CIRCLE('',#541,0.6);
#541 = AXIS2_PLACEMENT_3D('',#542,#543,#544);
#542 = CARTESIAN_POINT('',(44.6,-63.9,13.39));
#543 = DIRECTION('',(-0.,0.,1.));
#544 = DIRECTION('',(2.368E-14,-1.,0.));
#545 = ORIENTED_EDGE('',*,*,#546,.T.);
#546 = EDGE_CURVE('',#538,#400,#547,.T.);
#547 = CIRCLE('',#548,0.6);
#548 = AXIS2_PLACEMENT_3D('',#549,#550,#551);
#549 = CARTESIAN_POINT('',(44.6,-63.9,13.39));
#550 = DIRECTION('',(0.,0.,1.));
#551 = DIRECTION('',(1.,0.,0.));
#552 = PLANE('',#553);
#553 = AXIS2_PLACEMENT_3D('',#554,#555,#556);
#554 = CARTESIAN_POINT('',(37.,-63.9,13.39));
#555 = DIRECTION('',(0.,0.,1.));
#556 = DIRECTION('',(1.,0.,0.));
#557 = ADVANCED_FACE('',(#558),#566,.T.);
#558 = FACE_BOUND('',#559,.F.);
#559 = EDGE_LOOP('',(#560,#561,#562,#563,#564,#565));
#560 = ORIENTED_EDGE('',*,*,#488,.F.);
#561 = ORIENTED_EDGE('',*,*,#447,.F.);
#562 = ORIENTED_EDGE('',*,*,#438,.F.);
#563 = ORIENTED_EDGE('',*,*,#415,.T.);
#564 = ORIENTED_EDGE('',*,*,#520,.T.);
#565 = ORIENTED_EDGE('',*,*,#529,.T.);
#566 = CYLINDRICAL_SURFACE('',#567,0.6);
#567 = AXIS2_PLACEMENT_3D('',#568,#569,#570);
#568 = CARTESIAN_POINT('',(29.4,-63.9,12.99));
#569 = DIRECTION('',(-0.,-0.,-1.));
#570 = DIRECTION('',(-1.776E-14,1.,0.));
#571 = ADVANCED_FACE('',(#572),#580,.T.);
#572 = FACE_BOUND('',#573,.F.);
#573 = EDGE_LOOP('',(#574,#575,#576,#577,#578,#579));
#574 = ORIENTED_EDGE('',*,*,#397,.F.);
#575 = ORIENTED_EDGE('',*,*,#473,.F.);
#576 = ORIENTED_EDGE('',*,*,#464,.F.);
#577 = ORIENTED_EDGE('',*,*,#504,.T.);
#578 = ORIENTED_EDGE('',*,*,#537,.T.);
#579 = ORIENTED_EDGE('',*,*,#546,.T.);
#580 = CYLINDRICAL_SURFACE('',#581,0.6);
#581 = AXIS2_PLACEMENT_3D('',#582,#583,#584);
#582 = CARTESIAN_POINT('',(44.6,-63.9,12.99));
#583 = DIRECTION('',(0.,0.,-1.));
#584 = DIRECTION('',(2.368E-14,-1.,0.));
#585 = ( GEOMETRIC_REPRESENTATION_CONTEXT(3) 
GLOBAL_UNCERTAINTY_ASSIGNED_CONTEXT((#589)) GLOBAL_UNIT_ASSIGNED_CONTEXT
((#586,#587,#588)) REPRESENTATION_CONTEXT('Context #1',
  '3D Context with UNIT and UNCERTAINTY') );
#586 = ( LENGTH_UNIT() NAMED_UNIT(*) SI_UNIT(.MILLI.,.METRE.) );
#587 = ( NAMED_UNIT(*) PLANE_ANGLE_UNIT() SI_UNIT($,.RADIAN.) );
#588 = ( NAMED_UNIT(*) SI_UNIT($,.STERADIAN.) SOLID_ANGLE_UNIT() );
#589 = UNCERTAINTY_MEASURE_WITH_UNIT(LENGTH_MEASURE(1.E-05),#586,
  'distance_accuracy_value','confusion accuracy');
#590 = PRODUCT_RELATED_PRODUCT_CATEGORY('part',$,(#7));
ENDSEC;
END-ISO-10303-21;
