ISO-10303-21;
HEADER;
FILE_DESCRIPTION(('FreeCAD Model'),'2;1');
FILE_NAME('Open CASCADE Shape Model','2026-09-28T16:00:44',('FreeCAD'),(
    'FreeCAD'),'Open CASCADE STEP processor 7.8','FreeCAD','Unknown');
FILE_SCHEMA(('AUTOMOTIVE_DESIGN { 1 0 10303 214 1 1 1 1 }'));
ENDSEC;
DATA;
#1 = APPLICATION_PROTOCOL_DEFINITION('international standard',
  'automotive_design',2000,#2);
#2 = APPLICATION_CONTEXT(
  'core data for automotive mechanical design processes');
#3 = SHAPE_DEFINITION_REPRESENTATION(#4,#10);
#4 = PRODUCT_DEFINITION_SHAPE('','',#5);
#5 = PRODUCT_DEFINITION('design','',#6,#9);
#6 = PRODUCT_DEFINITION_FORMATION('','',#7);
#7 = PRODUCT('Open CASCADE STEP translator 7.8 92',
  'Open CASCADE STEP translator 7.8 92','',(#8));
#8 = PRODUCT_CONTEXT('',#2,'mechanical');
#9 = PRODUCT_DEFINITION_CONTEXT('part definition',#2,'design');
#10 = SHAPE_REPRESENTATION('',(#11,#15,#169,#323,#872,#925),#978);
#11 = AXIS2_PLACEMENT_3D('',#12,#13,#14);
#12 = CARTESIAN_POINT('',(0.,0.,0.));
#13 = DIRECTION('',(0.,0.,1.));
#14 = DIRECTION('',(1.,0.,-0.));
#15 = MANIFOLD_SOLID_BREP('',#16);
#16 = CLOSED_SHELL('',(#17,#59,#91,#115,#140,#157));
#17 = ADVANCED_FACE('',(#18),#54,.T.);
#18 = FACE_BOUND('',#19,.F.);
#19 = EDGE_LOOP('',(#20,#31,#39,#48));
#20 = ORIENTED_EDGE('',*,*,#21,.F.);
#21 = EDGE_CURVE('',#22,#24,#26,.T.);
#22 = VERTEX_POINT('',#23);
#23 = CARTESIAN_POINT('',(46.4,-18.5,12.99));
#24 = VERTEX_POINT('',#25);
#25 = CARTESIAN_POINT('',(45.15,-16.64595037822,12.99));
#26 = CIRCLE('',#27,2.);
#27 = AXIS2_PLACEMENT_3D('',#28,#29,#30);
#28 = CARTESIAN_POINT('',(44.4,-18.5,12.99));
#29 = DIRECTION('',(0.,-0.,1.));
#30 = DIRECTION('',(1.,1.78E-15,0.));
#31 = ORIENTED_EDGE('',*,*,#32,.T.);
#32 = EDGE_CURVE('',#22,#33,#35,.T.);
#33 = VERTEX_POINT('',#34);
#34 = CARTESIAN_POINT('',(46.4,-18.5,13.39));
#35 = LINE('',#36,#37);
#36 = CARTESIAN_POINT('',(46.4,-18.5,12.99));
#37 = VECTOR('',#38,1.);
#38 = DIRECTION('',(0.,0.,1.));
#39 = ORIENTED_EDGE('',*,*,#40,.T.);
#40 = EDGE_CURVE('',#33,#41,#43,.T.);
#41 = VERTEX_POINT('',#42);
#42 = CARTESIAN_POINT('',(45.15,-16.64595037822,13.39));
#43 = CIRCLE('',#44,2.);
#44 = AXIS2_PLACEMENT_3D('',#45,#46,#47);
#45 = CARTESIAN_POINT('',(44.4,-18.5,13.39));
#46 = DIRECTION('',(0.,-0.,1.));
#47 = DIRECTION('',(1.,1.78E-15,0.));
#48 = ORIENTED_EDGE('',*,*,#49,.T.);
#49 = EDGE_CURVE('',#41,#24,#50,.T.);
#50 = LINE('',#51,#52);
#51 = CARTESIAN_POINT('',(45.15,-16.64595037822,12.99));
#52 = VECTOR('',#53,1.);
#53 = DIRECTION('',(0.,0.,-1.));
#54 = CYLINDRICAL_SURFACE('',#55,2.);
#55 = AXIS2_PLACEMENT_3D('',#56,#57,#58);
#56 = CARTESIAN_POINT('',(44.4,-18.5,12.99));
#57 = DIRECTION('',(0.,0.,-1.));
#58 = DIRECTION('',(1.,1.78E-15,0.));
#59 = ADVANCED_FACE('',(#60),#86,.F.);
#60 = FACE_BOUND('',#61,.F.);
#61 = EDGE_LOOP('',(#62,#63,#71,#80));
#62 = ORIENTED_EDGE('',*,*,#21,.T.);
#63 = ORIENTED_EDGE('',*,*,#64,.F.);
#64 = EDGE_CURVE('',#65,#24,#67,.T.);
#65 = VERTEX_POINT('',#66);
#66 = CARTESIAN_POINT('',(45.15,-51.05404962177,12.99));
#67 = LINE('',#68,#69);
#68 = CARTESIAN_POINT('',(45.15,-46.04641870115,12.99));
#69 = VECTOR('',#70,1.);
#70 = DIRECTION('',(0.,1.,0.));
#71 = ORIENTED_EDGE('',*,*,#72,.T.);
#72 = EDGE_CURVE('',#65,#73,#75,.T.);
#73 = VERTEX_POINT('',#74);
#74 = CARTESIAN_POINT('',(46.4,-49.2,12.99));
#75 = CIRCLE('',#76,2.);
#76 = AXIS2_PLACEMENT_3D('',#77,#78,#79);
#77 = CARTESIAN_POINT('',(44.4,-49.2,12.99));
#78 = DIRECTION('',(-0.,0.,1.));
#79 = DIRECTION('',(3.55E-15,-1.,0.));
#80 = ORIENTED_EDGE('',*,*,#81,.T.);
#81 = EDGE_CURVE('',#73,#22,#82,.T.);
#82 = LINE('',#83,#84);
#83 = CARTESIAN_POINT('',(46.4,-49.2,12.99));
#84 = VECTOR('',#85,1.);
#85 = DIRECTION('',(0.,1.,0.));
#86 = PLANE('',#87);
#87 = AXIS2_PLACEMENT_3D('',#88,#89,#90);
#88 = CARTESIAN_POINT('',(37.2,-33.85,12.99));
#89 = DIRECTION('',(0.,0.,1.));
#90 = DIRECTION('',(1.,0.,0.));
#91 = ADVANCED_FACE('',(#92),#110,.F.);
#92 = FACE_BOUND('',#93,.F.);
#93 = EDGE_LOOP('',(#94,#102,#103,#104));
#94 = ORIENTED_EDGE('',*,*,#95,.T.);
#95 = EDGE_CURVE('',#96,#65,#98,.T.);
#96 = VERTEX_POINT('',#97);
#97 = CARTESIAN_POINT('',(45.15,-51.05404962177,13.39));
#98 = LINE('',#99,#100);
#99 = CARTESIAN_POINT('',(45.15,-51.05404962177,12.99));
#100 = VECTOR('',#101,1.);
#101 = DIRECTION('',(0.,0.,-1.));
#102 = ORIENTED_EDGE('',*,*,#64,.T.);
#103 = ORIENTED_EDGE('',*,*,#49,.F.);
#104 = ORIENTED_EDGE('',*,*,#105,.F.);
#105 = EDGE_CURVE('',#96,#41,#106,.T.);
#106 = LINE('',#107,#108);
#107 = CARTESIAN_POINT('',(45.15,-46.04893884022,13.39));
#108 = VECTOR('',#109,1.);
#109 = DIRECTION('',(0.,1.,0.));
#110 = PLANE('',#111);
#111 = AXIS2_PLACEMENT_3D('',#112,#113,#114);
#112 = CARTESIAN_POINT('',(45.15,-53.,11.7));
#113 = DIRECTION('',(1.,0.,0.));
#114 = DIRECTION('',(0.,0.,1.));
#115 = ADVANCED_FACE('',(#116),#135,.T.);
#116 = FACE_BOUND('',#117,.T.);
#117 = EDGE_LOOP('',(#118,#119,#120,#129));
#118 = ORIENTED_EDGE('',*,*,#40,.T.);
#119 = ORIENTED_EDGE('',*,*,#105,.F.);
#120 = ORIENTED_EDGE('',*,*,#121,.T.);
#121 = EDGE_CURVE('',#96,#122,#124,.T.);
#122 = VERTEX_POINT('',#123);
#123 = CARTESIAN_POINT('',(46.4,-49.2,13.39));
#124 = CIRCLE('',#125,2.);
#125 = AXIS2_PLACEMENT_3D('',#126,#127,#128);
#126 = CARTESIAN_POINT('',(44.4,-49.2,13.39));
#127 = DIRECTION('',(-0.,0.,1.));
#128 = DIRECTION('',(3.55E-15,-1.,0.));
#129 = ORIENTED_EDGE('',*,*,#130,.T.);
#130 = EDGE_CURVE('',#122,#33,#131,.T.);
#131 = LINE('',#132,#133);
#132 = CARTESIAN_POINT('',(46.4,-49.2,13.39));
#133 = VECTOR('',#134,1.);
#134 = DIRECTION('',(0.,1.,0.));
#135 = PLANE('',#136);
#136 = AXIS2_PLACEMENT_3D('',#137,#138,#139);
#137 = CARTESIAN_POINT('',(37.2,-33.85,13.39));
#138 = DIRECTION('',(0.,0.,1.));
#139 = DIRECTION('',(1.,0.,0.));
#140 = ADVANCED_FACE('',(#141),#152,.F.);
#141 = FACE_BOUND('',#142,.F.);
#142 = EDGE_LOOP('',(#143,#149,#150,#151));
#143 = ORIENTED_EDGE('',*,*,#144,.T.);
#144 = EDGE_CURVE('',#73,#122,#145,.T.);
#145 = LINE('',#146,#147);
#146 = CARTESIAN_POINT('',(46.4,-49.2,12.99));
#147 = VECTOR('',#148,1.);
#148 = DIRECTION('',(0.,0.,1.));
#149 = ORIENTED_EDGE('',*,*,#130,.T.);
#150 = ORIENTED_EDGE('',*,*,#32,.F.);
#151 = ORIENTED_EDGE('',*,*,#81,.F.);
#152 = PLANE('',#153);
#153 = AXIS2_PLACEMENT_3D('',#154,#155,#156);
#154 = CARTESIAN_POINT('',(46.4,-49.2,12.99));
#155 = DIRECTION('',(-1.,0.,0.));
#156 = DIRECTION('',(0.,1.,0.));
#157 = ADVANCED_FACE('',(#158),#164,.T.);
#158 = FACE_BOUND('',#159,.F.);
#159 = EDGE_LOOP('',(#160,#161,#162,#163));
#160 = ORIENTED_EDGE('',*,*,#72,.F.);
#161 = ORIENTED_EDGE('',*,*,#95,.F.);
#162 = ORIENTED_EDGE('',*,*,#121,.T.);
#163 = ORIENTED_EDGE('',*,*,#144,.F.);
#164 = CYLINDRICAL_SURFACE('',#165,2.);
#165 = AXIS2_PLACEMENT_3D('',#166,#167,#168);
#166 = CARTESIAN_POINT('',(44.4,-49.2,12.99));
#167 = DIRECTION('',(0.,0.,-1.));
#168 = DIRECTION('',(3.55E-15,-1.,0.));
#169 = MANIFOLD_SOLID_BREP('',#170);
#170 = CLOSED_SHELL('',(#171,#213,#245,#269,#294,#311));
#171 = ADVANCED_FACE('',(#172),#208,.T.);
#172 = FACE_BOUND('',#173,.F.);
#173 = EDGE_LOOP('',(#174,#185,#193,#202));
#174 = ORIENTED_EDGE('',*,*,#175,.F.);
#175 = EDGE_CURVE('',#176,#178,#180,.T.);
#176 = VERTEX_POINT('',#177);
#177 = CARTESIAN_POINT('',(29.25,-16.64595037822,12.99));
#178 = VERTEX_POINT('',#179);
#179 = CARTESIAN_POINT('',(28.,-18.5,12.99));
#180 = CIRCLE('',#181,2.);
#181 = AXIS2_PLACEMENT_3D('',#182,#183,#184);
#182 = CARTESIAN_POINT('',(30.,-18.5,12.99));
#183 = DIRECTION('',(0.,-0.,1.));
#184 = DIRECTION('',(1.066E-14,1.,0.));
#185 = ORIENTED_EDGE('',*,*,#186,.F.);
#186 = EDGE_CURVE('',#187,#176,#189,.T.);
#187 = VERTEX_POINT('',#188);
#188 = CARTESIAN_POINT('',(29.25,-16.64595037822,13.39));
#189 = LINE('',#190,#191);
#190 = CARTESIAN_POINT('',(29.25,-16.64595037822,12.99));
#191 = VECTOR('',#192,1.);
#192 = DIRECTION('',(0.,0.,-1.));
#193 = ORIENTED_EDGE('',*,*,#194,.T.);
#194 = EDGE_CURVE('',#187,#195,#197,.T.);
#195 = VERTEX_POINT('',#196);
#196 = CARTESIAN_POINT('',(28.,-18.5,13.39));
#197 = CIRCLE('',#198,2.);
#198 = AXIS2_PLACEMENT_3D('',#199,#200,#201);
#199 = CARTESIAN_POINT('',(30.,-18.5,13.39));
#200 = DIRECTION('',(0.,-0.,1.));
#201 = DIRECTION('',(1.066E-14,1.,0.));
#202 = ORIENTED_EDGE('',*,*,#203,.F.);
#203 = EDGE_CURVE('',#178,#195,#204,.T.);
#204 = LINE('',#205,#206);
#205 = CARTESIAN_POINT('',(28.,-18.5,12.99));
#206 = VECTOR('',#207,1.);
#207 = DIRECTION('',(0.,0.,1.));
#208 = CYLINDRICAL_SURFACE('',#209,2.);
#209 = AXIS2_PLACEMENT_3D('',#210,#211,#212);
#210 = CARTESIAN_POINT('',(30.,-18.5,12.99));
#211 = DIRECTION('',(0.,0.,-1.));
#212 = DIRECTION('',(1.066E-14,1.,0.));
#213 = ADVANCED_FACE('',(#214),#240,.F.);
#214 = FACE_BOUND('',#215,.F.);
#215 = EDGE_LOOP('',(#216,#224,#225,#233));
#216 = ORIENTED_EDGE('',*,*,#217,.T.);
#217 = EDGE_CURVE('',#218,#176,#220,.T.);
#218 = VERTEX_POINT('',#219);
#219 = CARTESIAN_POINT('',(29.25,-51.05404962177,12.99));
#220 = LINE('',#221,#222);
#221 = CARTESIAN_POINT('',(29.25,-46.04641870115,12.99));
#222 = VECTOR('',#223,1.);
#223 = DIRECTION('',(0.,1.,0.));
#224 = ORIENTED_EDGE('',*,*,#175,.T.);
#225 = ORIENTED_EDGE('',*,*,#226,.T.);
#226 = EDGE_CURVE('',#178,#227,#229,.T.);
#227 = VERTEX_POINT('',#228);
#228 = CARTESIAN_POINT('',(28.,-49.2,12.99));
#229 = LINE('',#230,#231);
#230 = CARTESIAN_POINT('',(28.,-18.5,12.99));
#231 = VECTOR('',#232,1.);
#232 = DIRECTION('',(0.,-1.,0.));
#233 = ORIENTED_EDGE('',*,*,#234,.T.);
#234 = EDGE_CURVE('',#227,#218,#235,.T.);
#235 = CIRCLE('',#236,2.);
#236 = AXIS2_PLACEMENT_3D('',#237,#238,#239);
#237 = CARTESIAN_POINT('',(30.,-49.2,12.99));
#238 = DIRECTION('',(0.,0.,1.));
#239 = DIRECTION('',(-1.,7.11E-15,0.));
#240 = PLANE('',#241);
#241 = AXIS2_PLACEMENT_3D('',#242,#243,#244);
#242 = CARTESIAN_POINT('',(37.2,-33.85,12.99));
#243 = DIRECTION('',(0.,0.,1.));
#244 = DIRECTION('',(1.,0.,0.));
#245 = ADVANCED_FACE('',(#246),#264,.F.);
#246 = FACE_BOUND('',#247,.F.);
#247 = EDGE_LOOP('',(#248,#249,#257,#263));
#248 = ORIENTED_EDGE('',*,*,#203,.T.);
#249 = ORIENTED_EDGE('',*,*,#250,.T.);
#250 = EDGE_CURVE('',#195,#251,#253,.T.);
#251 = VERTEX_POINT('',#252);
#252 = CARTESIAN_POINT('',(28.,-49.2,13.39));
#253 = LINE('',#254,#255);
#254 = CARTESIAN_POINT('',(28.,-18.5,13.39));
#255 = VECTOR('',#256,1.);
#256 = DIRECTION('',(0.,-1.,0.));
#257 = ORIENTED_EDGE('',*,*,#258,.F.);
#258 = EDGE_CURVE('',#227,#251,#259,.T.);
#259 = LINE('',#260,#261);
#260 = CARTESIAN_POINT('',(28.,-49.2,12.99));
#261 = VECTOR('',#262,1.);
#262 = DIRECTION('',(0.,0.,1.));
#263 = ORIENTED_EDGE('',*,*,#226,.F.);
#264 = PLANE('',#265);
#265 = AXIS2_PLACEMENT_3D('',#266,#267,#268);
#266 = CARTESIAN_POINT('',(28.,-18.5,12.99));
#267 = DIRECTION('',(1.,0.,0.));
#268 = DIRECTION('',(0.,-1.,0.));
#269 = ADVANCED_FACE('',(#270),#289,.T.);
#270 = FACE_BOUND('',#271,.T.);
#271 = EDGE_LOOP('',(#272,#280,#281,#282));
#272 = ORIENTED_EDGE('',*,*,#273,.T.);
#273 = EDGE_CURVE('',#274,#187,#276,.T.);
#274 = VERTEX_POINT('',#275);
#275 = CARTESIAN_POINT('',(29.25,-51.05404962177,13.39));
#276 = LINE('',#277,#278);
#277 = CARTESIAN_POINT('',(29.25,-46.04893884022,13.39));
#278 = VECTOR('',#279,1.);
#279 = DIRECTION('',(0.,1.,0.));
#280 = ORIENTED_EDGE('',*,*,#194,.T.);
#281 = ORIENTED_EDGE('',*,*,#250,.T.);
#282 = ORIENTED_EDGE('',*,*,#283,.T.);
#283 = EDGE_CURVE('',#251,#274,#284,.T.);
#284 = CIRCLE('',#285,2.);
#285 = AXIS2_PLACEMENT_3D('',#286,#287,#288);
#286 = CARTESIAN_POINT('',(30.,-49.2,13.39));
#287 = DIRECTION('',(0.,0.,1.));
#288 = DIRECTION('',(-1.,7.11E-15,0.));
#289 = PLANE('',#290);
#290 = AXIS2_PLACEMENT_3D('',#291,#292,#293);
#291 = CARTESIAN_POINT('',(37.2,-33.85,13.39));
#292 = DIRECTION('',(0.,0.,1.));
#293 = DIRECTION('',(1.,0.,0.));
#294 = ADVANCED_FACE('',(#295),#306,.T.);
#295 = FACE_BOUND('',#296,.T.);
#296 = EDGE_LOOP('',(#297,#303,#304,#305));
#297 = ORIENTED_EDGE('',*,*,#298,.T.);
#298 = EDGE_CURVE('',#274,#218,#299,.T.);
#299 = LINE('',#300,#301);
#300 = CARTESIAN_POINT('',(29.25,-51.05404962177,12.99));
#301 = VECTOR('',#302,1.);
#302 = DIRECTION('',(-0.,-0.,-1.));
#303 = ORIENTED_EDGE('',*,*,#217,.T.);
#304 = ORIENTED_EDGE('',*,*,#186,.F.);
#305 = ORIENTED_EDGE('',*,*,#273,.F.);
#306 = PLANE('',#307);
#307 = AXIS2_PLACEMENT_3D('',#308,#309,#310);
#308 = CARTESIAN_POINT('',(29.25,-53.,11.7));
#309 = DIRECTION('',(1.,0.,0.));
#310 = DIRECTION('',(0.,0.,1.));
#311 = ADVANCED_FACE('',(#312),#318,.T.);
#312 = FACE_BOUND('',#313,.F.);
#313 = EDGE_LOOP('',(#314,#315,#316,#317));
#314 = ORIENTED_EDGE('',*,*,#234,.F.);
#315 = ORIENTED_EDGE('',*,*,#258,.T.);
#316 = ORIENTED_EDGE('',*,*,#283,.T.);
#317 = ORIENTED_EDGE('',*,*,#298,.T.);
#318 = CYLINDRICAL_SURFACE('',#319,2.);
#319 = AXIS2_PLACEMENT_3D('',#320,#321,#322);
#320 = CARTESIAN_POINT('',(30.,-49.2,12.99));
#321 = DIRECTION('',(-0.,-0.,-1.));
#322 = DIRECTION('',(-1.,7.11E-15,0.));
#323 = MANIFOLD_SOLID_BREP('',#324);
#324 = CLOSED_SHELL('',(#325,#365,#501,#526,#654,#671,#688,#705,#722,
    #739,#756,#773,#790,#802,#824,#843,#860));
#325 = ADVANCED_FACE('',(#326),#360,.F.);
#326 = FACE_BOUND('',#327,.F.);
#327 = EDGE_LOOP('',(#328,#338,#346,#354));
#328 = ORIENTED_EDGE('',*,*,#329,.F.);
#329 = EDGE_CURVE('',#330,#332,#334,.T.);
#330 = VERTEX_POINT('',#331);
#331 = CARTESIAN_POINT('',(29.25,-52.5,12.99));
#332 = VERTEX_POINT('',#333);
#333 = CARTESIAN_POINT('',(29.1,-52.5,12.99));
#334 = LINE('',#335,#336);
#335 = CARTESIAN_POINT('',(44.9,-52.5,12.99));
#336 = VECTOR('',#337,1.);
#337 = DIRECTION('',(-1.,0.,0.));
#338 = ORIENTED_EDGE('',*,*,#339,.T.);
#339 = EDGE_CURVE('',#330,#340,#342,.T.);
#340 = VERTEX_POINT('',#341);
#341 = CARTESIAN_POINT('',(29.25,-52.5,13.39));
#342 = LINE('',#343,#344);
#343 = CARTESIAN_POINT('',(29.25,-52.5,12.345));
#344 = VECTOR('',#345,1.);
#345 = DIRECTION('',(0.,0.,1.));
#346 = ORIENTED_EDGE('',*,*,#347,.T.);
#347 = EDGE_CURVE('',#340,#348,#350,.T.);
#348 = VERTEX_POINT('',#349);
#349 = CARTESIAN_POINT('',(29.1,-52.5,13.39));
#350 = LINE('',#351,#352);
#351 = CARTESIAN_POINT('',(44.9,-52.5,13.39));
#352 = VECTOR('',#353,1.);
#353 = DIRECTION('',(-1.,0.,0.));
#354 = ORIENTED_EDGE('',*,*,#355,.F.);
#355 = EDGE_CURVE('',#332,#348,#356,.T.);
#356 = LINE('',#357,#358);
#357 = CARTESIAN_POINT('',(29.1,-52.5,12.99));
#358 = VECTOR('',#359,1.);
#359 = DIRECTION('',(0.,0.,1.));
#360 = PLANE('',#361);
#361 = AXIS2_PLACEMENT_3D('',#362,#363,#364);
#362 = CARTESIAN_POINT('',(44.9,-52.5,12.99));
#363 = DIRECTION('',(0.,-1.,0.));
#364 = DIRECTION('',(-1.,0.,0.));
#365 = ADVANCED_FACE('',(#366,#451),#496,.F.);
#366 = FACE_BOUND('',#367,.F.);
#367 = EDGE_LOOP('',(#368,#376,#377,#386,#394,#403,#411,#420,#428,#437,
    #445));
#368 = ORIENTED_EDGE('',*,*,#369,.T.);
#369 = EDGE_CURVE('',#370,#330,#372,.T.);
#370 = VERTEX_POINT('',#371);
#371 = CARTESIAN_POINT('',(29.25,-53.,12.99));
#372 = LINE('',#373,#374);
#373 = CARTESIAN_POINT('',(29.25,-46.04641870115,12.99));
#374 = VECTOR('',#375,1.);
#375 = DIRECTION('',(0.,1.,0.));
#376 = ORIENTED_EDGE('',*,*,#329,.T.);
#377 = ORIENTED_EDGE('',*,*,#378,.T.);
#378 = EDGE_CURVE('',#332,#379,#381,.T.);
#379 = VERTEX_POINT('',#380);
#380 = CARTESIAN_POINT('',(27.3,-54.3,12.99));
#381 = CIRCLE('',#382,1.8);
#382 = AXIS2_PLACEMENT_3D('',#383,#384,#385);
#383 = CARTESIAN_POINT('',(29.1,-54.3,12.99));
#384 = DIRECTION('',(0.,-0.,1.));
#385 = DIRECTION('',(1.97E-15,1.,0.));
#386 = ORIENTED_EDGE('',*,*,#387,.T.);
#387 = EDGE_CURVE('',#379,#388,#390,.T.);
#388 = VERTEX_POINT('',#389);
#389 = CARTESIAN_POINT('',(27.3,-59.5,12.99));
#390 = LINE('',#391,#392);
#391 = CARTESIAN_POINT('',(27.3,-54.3,12.99));
#392 = VECTOR('',#393,1.);
#393 = DIRECTION('',(0.,-1.,0.));
#394 = ORIENTED_EDGE('',*,*,#395,.T.);
#395 = EDGE_CURVE('',#388,#396,#398,.T.);
#396 = VERTEX_POINT('',#397);
#397 = CARTESIAN_POINT('',(29.1,-61.3,12.99));
#398 = CIRCLE('',#399,1.8);
#399 = AXIS2_PLACEMENT_3D('',#400,#401,#402);
#400 = CARTESIAN_POINT('',(29.1,-59.5,12.99));
#401 = DIRECTION('',(0.,0.,1.));
#402 = DIRECTION('',(-1.,-3.95E-15,0.));
#403 = ORIENTED_EDGE('',*,*,#404,.T.);
#404 = EDGE_CURVE('',#396,#405,#407,.T.);
#405 = VERTEX_POINT('',#406);
#406 = CARTESIAN_POINT('',(44.9,-61.3,12.99));
#407 = LINE('',#408,#409);
#408 = CARTESIAN_POINT('',(29.1,-61.3,12.99));
#409 = VECTOR('',#410,1.);
#410 = DIRECTION('',(1.,0.,0.));
#411 = ORIENTED_EDGE('',*,*,#412,.T.);
#412 = EDGE_CURVE('',#405,#413,#415,.T.);
#413 = VERTEX_POINT('',#414);
#414 = CARTESIAN_POINT('',(46.7,-59.5,12.99));
#415 = CIRCLE('',#416,1.8);
#416 = AXIS2_PLACEMENT_3D('',#417,#418,#419);
#417 = CARTESIAN_POINT('',(44.9,-59.5,12.99));
#418 = DIRECTION('',(-0.,0.,1.));
#419 = DIRECTION('',(3.95E-15,-1.,0.));
#420 = ORIENTED_EDGE('',*,*,#421,.T.);
#421 = EDGE_CURVE('',#413,#422,#424,.T.);
#422 = VERTEX_POINT('',#423);
#423 = CARTESIAN_POINT('',(46.7,-54.3,12.99));
#424 = LINE('',#425,#426);
#425 = CARTESIAN_POINT('',(46.7,-59.5,12.99));
#426 = VECTOR('',#427,1.);
#427 = DIRECTION('',(0.,1.,0.));
#428 = ORIENTED_EDGE('',*,*,#429,.T.);
#429 = EDGE_CURVE('',#422,#430,#432,.T.);
#430 = VERTEX_POINT('',#431);
#431 = CARTESIAN_POINT('',(45.15,-52.517445653,12.99));
#432 = CIRCLE('',#433,1.8);
#433 = AXIS2_PLACEMENT_3D('',#434,#435,#436);
#434 = CARTESIAN_POINT('',(44.9,-54.3,12.99));
#435 = DIRECTION('',(0.,-0.,1.));
#436 = DIRECTION('',(1.,3.95E-15,0.));
#437 = ORIENTED_EDGE('',*,*,#438,.F.);
#438 = EDGE_CURVE('',#439,#430,#441,.T.);
#439 = VERTEX_POINT('',#440);
#440 = CARTESIAN_POINT('',(45.15,-53.,12.99));
#441 = LINE('',#442,#443);
#442 = CARTESIAN_POINT('',(45.15,-46.04641870115,12.99));
#443 = VECTOR('',#444,1.);
#444 = DIRECTION('',(0.,1.,0.));
#445 = ORIENTED_EDGE('',*,*,#446,.T.);
#446 = EDGE_CURVE('',#439,#370,#447,.T.);
#447 = LINE('',#448,#449);
#448 = CARTESIAN_POINT('',(33.143912304081,-53.,12.99));
#449 = VECTOR('',#450,1.);
#450 = DIRECTION('',(-1.,0.,0.));
#451 = FACE_BOUND('',#452,.F.);
#452 = EDGE_LOOP('',(#453,#463,#472,#480,#489));
#453 = ORIENTED_EDGE('',*,*,#454,.F.);
#454 = EDGE_CURVE('',#455,#457,#459,.T.);
#455 = VERTEX_POINT('',#456);
#456 = CARTESIAN_POINT('',(34.792296279363,-57.35,12.99));
#457 = VERTEX_POINT('',#458);
#458 = CARTESIAN_POINT('',(39.207703720637,-57.35,12.99));
#459 = LINE('',#460,#461);
#460 = CARTESIAN_POINT('',(34.6,-57.35,12.99));
#461 = VECTOR('',#462,1.);
#462 = DIRECTION('',(1.,0.,0.));
#463 = ORIENTED_EDGE('',*,*,#464,.F.);
#464 = EDGE_CURVE('',#465,#455,#467,.T.);
#465 = VERTEX_POINT('',#466);
#466 = CARTESIAN_POINT('',(34.792296279363,-56.25,12.99));
#467 = CIRCLE('',#468,2.65);
#468 = AXIS2_PLACEMENT_3D('',#469,#470,#471);
#469 = CARTESIAN_POINT('',(32.2,-56.8,12.99));
#470 = DIRECTION('',(0.,0.,1.));
#471 = DIRECTION('',(1.,0.,0.));
#472 = ORIENTED_EDGE('',*,*,#473,.T.);
#473 = EDGE_CURVE('',#465,#474,#476,.T.);
#474 = VERTEX_POINT('',#475);
#475 = CARTESIAN_POINT('',(39.207703720637,-56.25,12.99));
#476 = LINE('',#477,#478);
#477 = CARTESIAN_POINT('',(34.6,-56.25,12.99));
#478 = VECTOR('',#479,1.);
#479 = DIRECTION('',(1.,0.,0.));
#480 = ORIENTED_EDGE('',*,*,#481,.F.);
#481 = EDGE_CURVE('',#482,#474,#484,.T.);
#482 = VERTEX_POINT('',#483);
#483 = CARTESIAN_POINT('',(44.45,-56.8,12.99));
#484 = CIRCLE('',#485,2.65);
#485 = AXIS2_PLACEMENT_3D('',#486,#487,#488);
#486 = CARTESIAN_POINT('',(41.8,-56.8,12.99));
#487 = DIRECTION('',(0.,0.,1.));
#488 = DIRECTION('',(1.,0.,0.));
#489 = ORIENTED_EDGE('',*,*,#490,.F.);
#490 = EDGE_CURVE('',#457,#482,#491,.T.);
#491 = CIRCLE('',#492,2.65);
#492 = AXIS2_PLACEMENT_3D('',#493,#494,#495);
#493 = CARTESIAN_POINT('',(41.8,-56.8,12.99));
#494 = DIRECTION('',(0.,0.,1.));
#495 = DIRECTION('',(1.,0.,0.));
#496 = PLANE('',#497);
#497 = AXIS2_PLACEMENT_3D('',#498,#499,#500);
#498 = CARTESIAN_POINT('',(37.,-56.9,12.99));
#499 = DIRECTION('',(0.,0.,1.));
#500 = DIRECTION('',(1.,0.,0.));
#501 = ADVANCED_FACE('',(#502),#521,.T.);
#502 = FACE_BOUND('',#503,.F.);
#503 = EDGE_LOOP('',(#504,#505,#514,#520));
#504 = ORIENTED_EDGE('',*,*,#355,.T.);
#505 = ORIENTED_EDGE('',*,*,#506,.T.);
#506 = EDGE_CURVE('',#348,#507,#509,.T.);
#507 = VERTEX_POINT('',#508);
#508 = CARTESIAN_POINT('',(27.3,-54.3,13.39));
#509 = CIRCLE('',#510,1.8);
#510 = AXIS2_PLACEMENT_3D('',#511,#512,#513);
#511 = CARTESIAN_POINT('',(29.1,-54.3,13.39));
#512 = DIRECTION('',(0.,-0.,1.));
#513 = DIRECTION('',(1.97E-15,1.,0.));
#514 = ORIENTED_EDGE('',*,*,#515,.F.);
#515 = EDGE_CURVE('',#379,#507,#516,.T.);
#516 = LINE('',#517,#518);
#517 = CARTESIAN_POINT('',(27.3,-54.3,12.99));
#518 = VECTOR('',#519,1.);
#519 = DIRECTION('',(0.,0.,1.));
#520 = ORIENTED_EDGE('',*,*,#378,.F.);
#521 = CYLINDRICAL_SURFACE('',#522,1.8);
#522 = AXIS2_PLACEMENT_3D('',#523,#524,#525);
#523 = CARTESIAN_POINT('',(29.1,-54.3,12.99));
#524 = DIRECTION('',(0.,0.,-1.));
#525 = DIRECTION('',(1.97E-15,1.,0.));
#526 = ADVANCED_FACE('',(#527,#604),#649,.T.);
#527 = FACE_BOUND('',#528,.T.);
#528 = EDGE_LOOP('',(#529,#537,#538,#539,#547,#556,#564,#573,#581,#590,
    #598));
#529 = ORIENTED_EDGE('',*,*,#530,.T.);
#530 = EDGE_CURVE('',#531,#340,#533,.T.);
#531 = VERTEX_POINT('',#532);
#532 = CARTESIAN_POINT('',(29.25,-53.,13.39));
#533 = LINE('',#534,#535);
#534 = CARTESIAN_POINT('',(29.25,-46.04893884022,13.39));
#535 = VECTOR('',#536,1.);
#536 = DIRECTION('',(0.,1.,0.));
#537 = ORIENTED_EDGE('',*,*,#347,.T.);
#538 = ORIENTED_EDGE('',*,*,#506,.T.);
#539 = ORIENTED_EDGE('',*,*,#540,.T.);
#540 = EDGE_CURVE('',#507,#541,#543,.T.);
#541 = VERTEX_POINT('',#542);
#542 = CARTESIAN_POINT('',(27.3,-59.5,13.39));
#543 = LINE('',#544,#545);
#544 = CARTESIAN_POINT('',(27.3,-54.3,13.39));
#545 = VECTOR('',#546,1.);
#546 = DIRECTION('',(0.,-1.,0.));
#547 = ORIENTED_EDGE('',*,*,#548,.T.);
#548 = EDGE_CURVE('',#541,#549,#551,.T.);
#549 = VERTEX_POINT('',#550);
#550 = CARTESIAN_POINT('',(29.1,-61.3,13.39));
#551 = CIRCLE('',#552,1.8);
#552 = AXIS2_PLACEMENT_3D('',#553,#554,#555);
#553 = CARTESIAN_POINT('',(29.1,-59.5,13.39));
#554 = DIRECTION('',(0.,0.,1.));
#555 = DIRECTION('',(-1.,-3.95E-15,0.));
#556 = ORIENTED_EDGE('',*,*,#557,.T.);
#557 = EDGE_CURVE('',#549,#558,#560,.T.);
#558 = VERTEX_POINT('',#559);
#559 = CARTESIAN_POINT('',(44.9,-61.3,13.39));
#560 = LINE('',#561,#562);
#561 = CARTESIAN_POINT('',(29.1,-61.3,13.39));
#562 = VECTOR('',#563,1.);
#563 = DIRECTION('',(1.,0.,0.));
#564 = ORIENTED_EDGE('',*,*,#565,.T.);
#565 = EDGE_CURVE('',#558,#566,#568,.T.);
#566 = VERTEX_POINT('',#567);
#567 = CARTESIAN_POINT('',(46.7,-59.5,13.39));
#568 = CIRCLE('',#569,1.8);
#569 = AXIS2_PLACEMENT_3D('',#570,#571,#572);
#570 = CARTESIAN_POINT('',(44.9,-59.5,13.39));
#571 = DIRECTION('',(-0.,0.,1.));
#572 = DIRECTION('',(3.95E-15,-1.,0.));
#573 = ORIENTED_EDGE('',*,*,#574,.T.);
#574 = EDGE_CURVE('',#566,#575,#577,.T.);
#575 = VERTEX_POINT('',#576);
#576 = CARTESIAN_POINT('',(46.7,-54.3,13.39));
#577 = LINE('',#578,#579);
#578 = CARTESIAN_POINT('',(46.7,-59.5,13.39));
#579 = VECTOR('',#580,1.);
#580 = DIRECTION('',(0.,1.,0.));
#581 = ORIENTED_EDGE('',*,*,#582,.T.);
#582 = EDGE_CURVE('',#575,#583,#585,.T.);
#583 = VERTEX_POINT('',#584);
#584 = CARTESIAN_POINT('',(45.15,-52.517445653,13.39));
#585 = CIRCLE('',#586,1.8);
#586 = AXIS2_PLACEMENT_3D('',#587,#588,#589);
#587 = CARTESIAN_POINT('',(44.9,-54.3,13.39));
#588 = DIRECTION('',(0.,-0.,1.));
#589 = DIRECTION('',(1.,3.95E-15,0.));
#590 = ORIENTED_EDGE('',*,*,#591,.F.);
#591 = EDGE_CURVE('',#592,#583,#594,.T.);
#592 = VERTEX_POINT('',#593);
#593 = CARTESIAN_POINT('',(45.15,-53.,13.39));
#594 = LINE('',#595,#596);
#595 = CARTESIAN_POINT('',(45.15,-46.04893884022,13.39));
#596 = VECTOR('',#597,1.);
#597 = DIRECTION('',(0.,1.,0.));
#598 = ORIENTED_EDGE('',*,*,#599,.T.);
#599 = EDGE_CURVE('',#592,#531,#600,.T.);
#600 = LINE('',#601,#602);
#601 = CARTESIAN_POINT('',(33.146656284918,-53.,13.39));
#602 = VECTOR('',#603,1.);
#603 = DIRECTION('',(-1.,0.,0.));
#604 = FACE_BOUND('',#605,.T.);
#605 = EDGE_LOOP('',(#606,#616,#625,#633,#642));
#606 = ORIENTED_EDGE('',*,*,#607,.F.);
#607 = EDGE_CURVE('',#608,#610,#612,.T.);
#608 = VERTEX_POINT('',#609);
#609 = CARTESIAN_POINT('',(34.792296279363,-57.35,13.39));
#610 = VERTEX_POINT('',#611);
#611 = CARTESIAN_POINT('',(39.207703720637,-57.35,13.39));
#612 = LINE('',#613,#614);
#613 = CARTESIAN_POINT('',(34.6,-57.35,13.39));
#614 = VECTOR('',#615,1.);
#615 = DIRECTION('',(1.,0.,0.));
#616 = ORIENTED_EDGE('',*,*,#617,.F.);
#617 = EDGE_CURVE('',#618,#608,#620,.T.);
#618 = VERTEX_POINT('',#619);
#619 = CARTESIAN_POINT('',(34.792296279363,-56.25,13.39));
#620 = CIRCLE('',#621,2.65);
#621 = AXIS2_PLACEMENT_3D('',#622,#623,#624);
#622 = CARTESIAN_POINT('',(32.2,-56.8,13.39));
#623 = DIRECTION('',(0.,0.,1.));
#624 = DIRECTION('',(1.,0.,0.));
#625 = ORIENTED_EDGE('',*,*,#626,.T.);
#626 = EDGE_CURVE('',#618,#627,#629,.T.);
#627 = VERTEX_POINT('',#628);
#628 = CARTESIAN_POINT('',(39.207703720637,-56.25,13.39));
#629 = LINE('',#630,#631);
#630 = CARTESIAN_POINT('',(34.6,-56.25,13.39));
#631 = VECTOR('',#632,1.);
#632 = DIRECTION('',(1.,0.,0.));
#633 = ORIENTED_EDGE('',*,*,#634,.F.);
#634 = EDGE_CURVE('',#635,#627,#637,.T.);
#635 = VERTEX_POINT('',#636);
#636 = CARTESIAN_POINT('',(44.45,-56.8,13.39));
#637 = CIRCLE('',#638,2.65);
#638 = AXIS2_PLACEMENT_3D('',#639,#640,#641);
#639 = CARTESIAN_POINT('',(41.8,-56.8,13.39));
#640 = DIRECTION('',(0.,0.,1.));
#641 = DIRECTION('',(1.,0.,0.));
#642 = ORIENTED_EDGE('',*,*,#643,.F.);
#643 = EDGE_CURVE('',#610,#635,#644,.T.);
#644 = CIRCLE('',#645,2.65);
#645 = AXIS2_PLACEMENT_3D('',#646,#647,#648);
#646 = CARTESIAN_POINT('',(41.8,-56.8,13.39));
#647 = DIRECTION('',(0.,0.,1.));
#648 = DIRECTION('',(1.,0.,0.));
#649 = PLANE('',#650);
#650 = AXIS2_PLACEMENT_3D('',#651,#652,#653);
#651 = CARTESIAN_POINT('',(37.,-56.9,13.39));
#652 = DIRECTION('',(0.,0.,1.));
#653 = DIRECTION('',(1.,0.,0.));
#654 = ADVANCED_FACE('',(#655),#666,.T.);
#655 = FACE_BOUND('',#656,.T.);
#656 = EDGE_LOOP('',(#657,#663,#664,#665));
#657 = ORIENTED_EDGE('',*,*,#658,.F.);
#658 = EDGE_CURVE('',#370,#531,#659,.T.);
#659 = LINE('',#660,#661);
#660 = CARTESIAN_POINT('',(29.25,-53.,11.7));
#661 = VECTOR('',#662,1.);
#662 = DIRECTION('',(0.,0.,1.));
#663 = ORIENTED_EDGE('',*,*,#369,.T.);
#664 = ORIENTED_EDGE('',*,*,#339,.T.);
#665 = ORIENTED_EDGE('',*,*,#530,.F.);
#666 = PLANE('',#667);
#667 = AXIS2_PLACEMENT_3D('',#668,#669,#670);
#668 = CARTESIAN_POINT('',(29.25,-53.,11.7));
#669 = DIRECTION('',(1.,0.,0.));
#670 = DIRECTION('',(0.,0.,1.));
#671 = ADVANCED_FACE('',(#672),#683,.T.);
#672 = FACE_BOUND('',#673,.T.);
#673 = EDGE_LOOP('',(#674,#680,#681,#682));
#674 = ORIENTED_EDGE('',*,*,#675,.F.);
#675 = EDGE_CURVE('',#439,#592,#676,.T.);
#676 = LINE('',#677,#678);
#677 = CARTESIAN_POINT('',(45.15,-53.,11.7));
#678 = VECTOR('',#679,1.);
#679 = DIRECTION('',(0.,0.,1.));
#680 = ORIENTED_EDGE('',*,*,#446,.T.);
#681 = ORIENTED_EDGE('',*,*,#658,.T.);
#682 = ORIENTED_EDGE('',*,*,#599,.F.);
#683 = PLANE('',#684);
#684 = AXIS2_PLACEMENT_3D('',#685,#686,#687);
#685 = CARTESIAN_POINT('',(29.25,-53.,11.7));
#686 = DIRECTION('',(0.,1.,0.));
#687 = DIRECTION('',(0.,0.,1.));
#688 = ADVANCED_FACE('',(#689),#700,.F.);
#689 = FACE_BOUND('',#690,.F.);
#690 = EDGE_LOOP('',(#691,#692,#693,#699));
#691 = ORIENTED_EDGE('',*,*,#675,.F.);
#692 = ORIENTED_EDGE('',*,*,#438,.T.);
#693 = ORIENTED_EDGE('',*,*,#694,.F.);
#694 = EDGE_CURVE('',#583,#430,#695,.T.);
#695 = LINE('',#696,#697);
#696 = CARTESIAN_POINT('',(45.15,-52.517445653,12.99));
#697 = VECTOR('',#698,1.);
#698 = DIRECTION('',(0.,0.,-1.));
#699 = ORIENTED_EDGE('',*,*,#591,.F.);
#700 = PLANE('',#701);
#701 = AXIS2_PLACEMENT_3D('',#702,#703,#704);
#702 = CARTESIAN_POINT('',(45.15,-53.,11.7));
#703 = DIRECTION('',(1.,0.,0.));
#704 = DIRECTION('',(0.,0.,1.));
#705 = ADVANCED_FACE('',(#706),#717,.T.);
#706 = FACE_BOUND('',#707,.F.);
#707 = EDGE_LOOP('',(#708,#709,#715,#716));
#708 = ORIENTED_EDGE('',*,*,#429,.F.);
#709 = ORIENTED_EDGE('',*,*,#710,.T.);
#710 = EDGE_CURVE('',#422,#575,#711,.T.);
#711 = LINE('',#712,#713);
#712 = CARTESIAN_POINT('',(46.7,-54.3,12.99));
#713 = VECTOR('',#714,1.);
#714 = DIRECTION('',(0.,0.,1.));
#715 = ORIENTED_EDGE('',*,*,#582,.T.);
#716 = ORIENTED_EDGE('',*,*,#694,.T.);
#717 = CYLINDRICAL_SURFACE('',#718,1.8);
#718 = AXIS2_PLACEMENT_3D('',#719,#720,#721);
#719 = CARTESIAN_POINT('',(44.9,-54.3,12.99));
#720 = DIRECTION('',(0.,0.,-1.));
#721 = DIRECTION('',(1.,3.95E-15,0.));
#722 = ADVANCED_FACE('',(#723),#734,.F.);
#723 = FACE_BOUND('',#724,.F.);
#724 = EDGE_LOOP('',(#725,#726,#727,#733));
#725 = ORIENTED_EDGE('',*,*,#515,.T.);
#726 = ORIENTED_EDGE('',*,*,#540,.T.);
#727 = ORIENTED_EDGE('',*,*,#728,.F.);
#728 = EDGE_CURVE('',#388,#541,#729,.T.);
#729 = LINE('',#730,#731);
#730 = CARTESIAN_POINT('',(27.3,-59.5,12.99));
#731 = VECTOR('',#732,1.);
#732 = DIRECTION('',(0.,0.,1.));
#733 = ORIENTED_EDGE('',*,*,#387,.F.);
#734 = PLANE('',#735);
#735 = AXIS2_PLACEMENT_3D('',#736,#737,#738);
#736 = CARTESIAN_POINT('',(27.3,-54.3,12.99));
#737 = DIRECTION('',(1.,0.,0.));
#738 = DIRECTION('',(0.,-1.,0.));
#739 = ADVANCED_FACE('',(#740),#751,.F.);
#740 = FACE_BOUND('',#741,.F.);
#741 = EDGE_LOOP('',(#742,#748,#749,#750));
#742 = ORIENTED_EDGE('',*,*,#743,.T.);
#743 = EDGE_CURVE('',#413,#566,#744,.T.);
#744 = LINE('',#745,#746);
#745 = CARTESIAN_POINT('',(46.7,-59.5,12.99));
#746 = VECTOR('',#747,1.);
#747 = DIRECTION('',(0.,0.,1.));
#748 = ORIENTED_EDGE('',*,*,#574,.T.);
#749 = ORIENTED_EDGE('',*,*,#710,.F.);
#750 = ORIENTED_EDGE('',*,*,#421,.F.);
#751 = PLANE('',#752);
#752 = AXIS2_PLACEMENT_3D('',#753,#754,#755);
#753 = CARTESIAN_POINT('',(46.7,-59.5,12.99));
#754 = DIRECTION('',(-1.,0.,0.));
#755 = DIRECTION('',(0.,1.,0.));
#756 = ADVANCED_FACE('',(#757),#768,.T.);
#757 = FACE_BOUND('',#758,.F.);
#758 = EDGE_LOOP('',(#759,#760,#761,#767));
#759 = ORIENTED_EDGE('',*,*,#728,.T.);
#760 = ORIENTED_EDGE('',*,*,#548,.T.);
#761 = ORIENTED_EDGE('',*,*,#762,.F.);
#762 = EDGE_CURVE('',#396,#549,#763,.T.);
#763 = LINE('',#764,#765);
#764 = CARTESIAN_POINT('',(29.1,-61.3,12.99));
#765 = VECTOR('',#766,1.);
#766 = DIRECTION('',(0.,0.,1.));
#767 = ORIENTED_EDGE('',*,*,#395,.F.);
#768 = CYLINDRICAL_SURFACE('',#769,1.8);
#769 = AXIS2_PLACEMENT_3D('',#770,#771,#772);
#770 = CARTESIAN_POINT('',(29.1,-59.5,12.99));
#771 = DIRECTION('',(-0.,-0.,-1.));
#772 = DIRECTION('',(-1.,-3.95E-15,0.));
#773 = ADVANCED_FACE('',(#774),#785,.T.);
#774 = FACE_BOUND('',#775,.F.);
#775 = EDGE_LOOP('',(#776,#782,#783,#784));
#776 = ORIENTED_EDGE('',*,*,#777,.T.);
#777 = EDGE_CURVE('',#405,#558,#778,.T.);
#778 = LINE('',#779,#780);
#779 = CARTESIAN_POINT('',(44.9,-61.3,12.99));
#780 = VECTOR('',#781,1.);
#781 = DIRECTION('',(0.,0.,1.));
#782 = ORIENTED_EDGE('',*,*,#565,.T.);
#783 = ORIENTED_EDGE('',*,*,#743,.F.);
#784 = ORIENTED_EDGE('',*,*,#412,.F.);
#785 = CYLINDRICAL_SURFACE('',#786,1.8);
#786 = AXIS2_PLACEMENT_3D('',#787,#788,#789);
#787 = CARTESIAN_POINT('',(44.9,-59.5,12.99));
#788 = DIRECTION('',(0.,0.,-1.));
#789 = DIRECTION('',(3.95E-15,-1.,0.));
#790 = ADVANCED_FACE('',(#791),#797,.F.);
#791 = FACE_BOUND('',#792,.F.);
#792 = EDGE_LOOP('',(#793,#794,#795,#796));
#793 = ORIENTED_EDGE('',*,*,#762,.T.);
#794 = ORIENTED_EDGE('',*,*,#557,.T.);
#795 = ORIENTED_EDGE('',*,*,#777,.F.);
#796 = ORIENTED_EDGE('',*,*,#404,.F.);
#797 = PLANE('',#798);
#798 = AXIS2_PLACEMENT_3D('',#799,#800,#801);
#799 = CARTESIAN_POINT('',(29.1,-61.3,12.99));
#800 = DIRECTION('',(0.,1.,0.));
#801 = DIRECTION('',(1.,0.,0.));
#802 = ADVANCED_FACE('',(#803),#819,.T.);
#803 = FACE_BOUND('',#804,.T.);
#804 = EDGE_LOOP('',(#805,#806,#812,#813));
#805 = ORIENTED_EDGE('',*,*,#454,.F.);
#806 = ORIENTED_EDGE('',*,*,#807,.F.);
#807 = EDGE_CURVE('',#608,#455,#808,.T.);
#808 = LINE('',#809,#810);
#809 = CARTESIAN_POINT('',(34.792296279363,-57.35,12.99));
#810 = VECTOR('',#811,1.);
#811 = DIRECTION('',(-0.,-0.,-1.));
#812 = ORIENTED_EDGE('',*,*,#607,.T.);
#813 = ORIENTED_EDGE('',*,*,#814,.T.);
#814 = EDGE_CURVE('',#610,#457,#815,.T.);
#815 = LINE('',#816,#817);
#816 = CARTESIAN_POINT('',(39.207703720637,-57.35,12.99));
#817 = VECTOR('',#818,1.);
#818 = DIRECTION('',(-0.,-0.,-1.));
#819 = PLANE('',#820);
#820 = AXIS2_PLACEMENT_3D('',#821,#822,#823);
#821 = CARTESIAN_POINT('',(34.6,-57.35,12.99));
#822 = DIRECTION('',(0.,1.,0.));
#823 = DIRECTION('',(0.,0.,1.));
#824 = ADVANCED_FACE('',(#825),#838,.F.);
#825 = FACE_BOUND('',#826,.T.);
#826 = EDGE_LOOP('',(#827,#828,#829,#830,#836,#837));
#827 = ORIENTED_EDGE('',*,*,#814,.F.);
#828 = ORIENTED_EDGE('',*,*,#643,.T.);
#829 = ORIENTED_EDGE('',*,*,#634,.T.);
#830 = ORIENTED_EDGE('',*,*,#831,.T.);
#831 = EDGE_CURVE('',#627,#474,#832,.T.);
#832 = LINE('',#833,#834);
#833 = CARTESIAN_POINT('',(39.207703720637,-56.25,12.99));
#834 = VECTOR('',#835,1.);
#835 = DIRECTION('',(-0.,-0.,-1.));
#836 = ORIENTED_EDGE('',*,*,#481,.F.);
#837 = ORIENTED_EDGE('',*,*,#490,.F.);
#838 = CYLINDRICAL_SURFACE('',#839,2.65);
#839 = AXIS2_PLACEMENT_3D('',#840,#841,#842);
#840 = CARTESIAN_POINT('',(41.8,-56.8,12.99));
#841 = DIRECTION('',(-0.,-0.,-1.));
#842 = DIRECTION('',(1.,0.,0.));
#843 = ADVANCED_FACE('',(#844),#855,.F.);
#844 = FACE_BOUND('',#845,.F.);
#845 = EDGE_LOOP('',(#846,#847,#853,#854));
#846 = ORIENTED_EDGE('',*,*,#473,.F.);
#847 = ORIENTED_EDGE('',*,*,#848,.F.);
#848 = EDGE_CURVE('',#618,#465,#849,.T.);
#849 = LINE('',#850,#851);
#850 = CARTESIAN_POINT('',(34.792296279363,-56.25,12.99));
#851 = VECTOR('',#852,1.);
#852 = DIRECTION('',(-0.,-0.,-1.));
#853 = ORIENTED_EDGE('',*,*,#626,.T.);
#854 = ORIENTED_EDGE('',*,*,#831,.T.);
#855 = PLANE('',#856);
#856 = AXIS2_PLACEMENT_3D('',#857,#858,#859);
#857 = CARTESIAN_POINT('',(34.6,-56.25,12.99));
#858 = DIRECTION('',(0.,1.,0.));
#859 = DIRECTION('',(0.,0.,1.));
#860 = ADVANCED_FACE('',(#861),#867,.F.);
#861 = FACE_BOUND('',#862,.T.);
#862 = EDGE_LOOP('',(#863,#864,#865,#866));
#863 = ORIENTED_EDGE('',*,*,#464,.F.);
#864 = ORIENTED_EDGE('',*,*,#848,.F.);
#865 = ORIENTED_EDGE('',*,*,#617,.T.);
#866 = ORIENTED_EDGE('',*,*,#807,.T.);
#867 = CYLINDRICAL_SURFACE('',#868,2.65);
#868 = AXIS2_PLACEMENT_3D('',#869,#870,#871);
#869 = CARTESIAN_POINT('',(32.2,-56.8,12.99));
#870 = DIRECTION('',(-0.,-0.,-1.));
#871 = DIRECTION('',(1.,0.,0.));
#872 = MANIFOLD_SOLID_BREP('',#873);
#873 = CLOSED_SHELL('',(#874,#891,#916));
#874 = ADVANCED_FACE('',(#875),#886,.F.);
#875 = FACE_BOUND('',#876,.F.);
#876 = EDGE_LOOP('',(#877));
#877 = ORIENTED_EDGE('',*,*,#878,.T.);
#878 = EDGE_CURVE('',#879,#879,#881,.T.);
#879 = VERTEX_POINT('',#880);
#880 = CARTESIAN_POINT('',(33.75,-56.8,12.99));
#881 = CIRCLE('',#882,1.55);
#882 = AXIS2_PLACEMENT_3D('',#883,#884,#885);
#883 = CARTESIAN_POINT('',(32.2,-56.8,12.99));
#884 = DIRECTION('',(0.,0.,1.));
#885 = DIRECTION('',(1.,0.,0.));
#886 = PLANE('',#887);
#887 = AXIS2_PLACEMENT_3D('',#888,#889,#890);
#888 = CARTESIAN_POINT('',(37.,-56.9,12.99));
#889 = DIRECTION('',(0.,0.,1.));
#890 = DIRECTION('',(1.,0.,0.));
#891 = ADVANCED_FACE('',(#892),#911,.T.);
#892 = FACE_BOUND('',#893,.F.);
#893 = EDGE_LOOP('',(#894,#902,#909,#910));
#894 = ORIENTED_EDGE('',*,*,#895,.T.);
#895 = EDGE_CURVE('',#879,#896,#898,.T.);
#896 = VERTEX_POINT('',#897);
#897 = CARTESIAN_POINT('',(33.75,-56.8,13.39));
#898 = LINE('',#899,#900);
#899 = CARTESIAN_POINT('',(33.75,-56.8,12.99));
#900 = VECTOR('',#901,1.);
#901 = DIRECTION('',(0.,0.,1.));
#902 = ORIENTED_EDGE('',*,*,#903,.T.);
#903 = EDGE_CURVE('',#896,#896,#904,.T.);
#904 = CIRCLE('',#905,1.55);
#905 = AXIS2_PLACEMENT_3D('',#906,#907,#908);
#906 = CARTESIAN_POINT('',(32.2,-56.8,13.39));
#907 = DIRECTION('',(0.,0.,1.));
#908 = DIRECTION('',(1.,0.,0.));
#909 = ORIENTED_EDGE('',*,*,#895,.F.);
#910 = ORIENTED_EDGE('',*,*,#878,.F.);
#911 = CYLINDRICAL_SURFACE('',#912,1.55);
#912 = AXIS2_PLACEMENT_3D('',#913,#914,#915);
#913 = CARTESIAN_POINT('',(32.2,-56.8,12.99));
#914 = DIRECTION('',(-0.,-0.,-1.));
#915 = DIRECTION('',(1.,0.,0.));
#916 = ADVANCED_FACE('',(#917),#920,.T.);
#917 = FACE_BOUND('',#918,.T.);
#918 = EDGE_LOOP('',(#919));
#919 = ORIENTED_EDGE('',*,*,#903,.T.);
#920 = PLANE('',#921);
#921 = AXIS2_PLACEMENT_3D('',#922,#923,#924);
#922 = CARTESIAN_POINT('',(37.,-56.9,13.39));
#923 = DIRECTION('',(0.,0.,1.));
#924 = DIRECTION('',(1.,0.,0.));
#925 = MANIFOLD_SOLID_BREP('',#926);
#926 = CLOSED_SHELL('',(#927,#944,#969));
#927 = ADVANCED_FACE('',(#928),#939,.F.);
#928 = FACE_BOUND('',#929,.F.);
#929 = EDGE_LOOP('',(#930));
#930 = ORIENTED_EDGE('',*,*,#931,.T.);
#931 = EDGE_CURVE('',#932,#932,#934,.T.);
#932 = VERTEX_POINT('',#933);
#933 = CARTESIAN_POINT('',(43.35,-56.8,12.99));
#934 = CIRCLE('',#935,1.55);
#935 = AXIS2_PLACEMENT_3D('',#936,#937,#938);
#936 = CARTESIAN_POINT('',(41.8,-56.8,12.99));
#937 = DIRECTION('',(0.,0.,1.));
#938 = DIRECTION('',(1.,0.,0.));
#939 = PLANE('',#940);
#940 = AXIS2_PLACEMENT_3D('',#941,#942,#943);
#941 = CARTESIAN_POINT('',(37.,-56.9,12.99));
#942 = DIRECTION('',(0.,0.,1.));
#943 = DIRECTION('',(1.,0.,0.));
#944 = ADVANCED_FACE('',(#945),#964,.T.);
#945 = FACE_BOUND('',#946,.F.);
#946 = EDGE_LOOP('',(#947,#955,#962,#963));
#947 = ORIENTED_EDGE('',*,*,#948,.T.);
#948 = EDGE_CURVE('',#932,#949,#951,.T.);
#949 = VERTEX_POINT('',#950);
#950 = CARTESIAN_POINT('',(43.35,-56.8,13.39));
#951 = LINE('',#952,#953);
#952 = CARTESIAN_POINT('',(43.35,-56.8,12.99));
#953 = VECTOR('',#954,1.);
#954 = DIRECTION('',(0.,0.,1.));
#955 = ORIENTED_EDGE('',*,*,#956,.T.);
#956 = EDGE_CURVE('',#949,#949,#957,.T.);
#957 = CIRCLE('',#958,1.55);
#958 = AXIS2_PLACEMENT_3D('',#959,#960,#961);
#959 = CARTESIAN_POINT('',(41.8,-56.8,13.39));
#960 = DIRECTION('',(0.,0.,1.));
#961 = DIRECTION('',(1.,0.,0.));
#962 = ORIENTED_EDGE('',*,*,#948,.F.);
#963 = ORIENTED_EDGE('',*,*,#931,.F.);
#964 = CYLINDRICAL_SURFACE('',#965,1.55);
#965 = AXIS2_PLACEMENT_3D('',#966,#967,#968);
#966 = CARTESIAN_POINT('',(41.8,-56.8,12.99));
#967 = DIRECTION('',(-0.,-0.,-1.));
#968 = DIRECTION('',(1.,0.,0.));
#969 = ADVANCED_FACE('',(#970),#973,.T.);
#970 = FACE_BOUND('',#971,.T.);
#971 = EDGE_LOOP('',(#972));
#972 = ORIENTED_EDGE('',*,*,#956,.T.);
#973 = PLANE('',#974);
#974 = AXIS2_PLACEMENT_3D('',#975,#976,#977);
#975 = CARTESIAN_POINT('',(37.,-56.9,13.39));
#976 = DIRECTION('',(0.,0.,1.));
#977 = DIRECTION('',(1.,0.,0.));
#978 = ( GEOMETRIC_REPRESENTATION_CONTEXT(3) 
GLOBAL_UNCERTAINTY_ASSIGNED_CONTEXT((#982)) GLOBAL_UNIT_ASSIGNED_CONTEXT
((#979,#980,#981)) REPRESENTATION_CONTEXT('Context #1',
  '3D Context with UNIT and UNCERTAINTY') );
#979 = ( LENGTH_UNIT() NAMED_UNIT(*) SI_UNIT(.MILLI.,.METRE.) );
#980 = ( NAMED_UNIT(*) PLANE_ANGLE_UNIT() SI_UNIT($,.RADIAN.) );
#981 = ( NAMED_UNIT(*) SI_UNIT($,.STERADIAN.) SOLID_ANGLE_UNIT() );
#982 = UNCERTAINTY_MEASURE_WITH_UNIT(LENGTH_MEASURE(2.E-05),#979,
  'distance_accuracy_value','confusion accuracy');
#983 = PRODUCT_RELATED_PRODUCT_CATEGORY('part',$,(#7));
ENDSEC;
END-ISO-10303-21;
