ISO-10303-21;
HEADER;
FILE_DESCRIPTION(('FreeCAD Model'),'2;1');
FILE_NAME('Open CASCADE Shape Model','2026-09-27T22:12:11',('FreeCAD'),(
    'FreeCAD'),'Open CASCADE STEP processor 7.8','FreeCAD','Unknown');
FILE_SCHEMA(('AUTOMOTIVE_DESIGN { 1 0 10303 214 1 1 1 1 }'));
ENDSEC;
DATA;
#1 = APPLICATION_PROTOCOL_DEFINITION('international standard',
  'automotive_design',2000,#2);
#2 = APPLICATION_CONTEXT(
  'core data for automotive mechanical design processes');
#3 = SHAPE_DEFINITION_REPRESENTATION(#4,#10);
#4 = PRODUCT_DEFINITION_SHAPE('','',#5);
#5 = PRODUCT_DEFINITION('design','',#6,#9);
#6 = PRODUCT_DEFINITION_FORMATION('','',#7);
#7 = PRODUCT('Open CASCADE STEP translator 7.8 103',
  'Open CASCADE STEP translator 7.8 103','',(#8));
#8 = PRODUCT_CONTEXT('',#2,'mechanical');
#9 = PRODUCT_DEFINITION_CONTEXT('part definition',#2,'design');
#10 = SHAPE_REPRESENTATION('',(#11,#15,#264),#513);
#11 = AXIS2_PLACEMENT_3D('',#12,#13,#14);
#12 = CARTESIAN_POINT('',(0.,0.,0.));
#13 = DIRECTION('',(0.,0.,1.));
#14 = DIRECTION('',(1.,0.,-0.));
#15 = MANIFOLD_SOLID_BREP('',#16);
#16 = CLOSED_SHELL('',(#17,#57,#112,#136,#184,#201,#218,#235,#252));
#17 = ADVANCED_FACE('',(#18),#52,.F.);
#18 = FACE_BOUND('',#19,.F.);
#19 = EDGE_LOOP('',(#20,#30,#38,#46));
#20 = ORIENTED_EDGE('',*,*,#21,.F.);
#21 = EDGE_CURVE('',#22,#24,#26,.T.);
#22 = VERTEX_POINT('',#23);
#23 = CARTESIAN_POINT('',(47.,-51.3,12.99));
#24 = VERTEX_POINT('',#25);
#25 = CARTESIAN_POINT('',(45.15,-51.3,12.99));
#26 = LINE('',#27,#28);
#27 = CARTESIAN_POINT('',(47.,-51.3,12.99));
#28 = VECTOR('',#29,1.);
#29 = DIRECTION('',(-1.,0.,0.));
#30 = ORIENTED_EDGE('',*,*,#31,.T.);
#31 = EDGE_CURVE('',#22,#32,#34,.T.);
#32 = VERTEX_POINT('',#33);
#33 = CARTESIAN_POINT('',(47.,-51.3,13.39));
#34 = LINE('',#35,#36);
#35 = CARTESIAN_POINT('',(47.,-51.3,12.99));
#36 = VECTOR('',#37,1.);
#37 = DIRECTION('',(0.,0.,1.));
#38 = ORIENTED_EDGE('',*,*,#39,.T.);
#39 = EDGE_CURVE('',#32,#40,#42,.T.);
#40 = VERTEX_POINT('',#41);
#41 = CARTESIAN_POINT('',(45.15,-51.3,13.39));
#42 = LINE('',#43,#44);
#43 = CARTESIAN_POINT('',(47.,-51.3,13.39));
#44 = VECTOR('',#45,1.);
#45 = DIRECTION('',(-1.,0.,0.));
#46 = ORIENTED_EDGE('',*,*,#47,.F.);
#47 = EDGE_CURVE('',#24,#40,#48,.T.);
#48 = LINE('',#49,#50);
#49 = CARTESIAN_POINT('',(45.15,-51.3,12.345));
#50 = VECTOR('',#51,1.);
#51 = DIRECTION('',(0.,0.,1.));
#52 = PLANE('',#53);
#53 = AXIS2_PLACEMENT_3D('',#54,#55,#56);
#54 = CARTESIAN_POINT('',(47.,-51.3,12.99));
#55 = DIRECTION('',(0.,-1.,0.));
#56 = DIRECTION('',(-1.,0.,0.));
#57 = ADVANCED_FACE('',(#58),#107,.F.);
#58 = FACE_BOUND('',#59,.F.);
#59 = EDGE_LOOP('',(#60,#68,#69,#77,#85,#93,#101));
#60 = ORIENTED_EDGE('',*,*,#61,.T.);
#61 = EDGE_CURVE('',#62,#22,#64,.T.);
#62 = VERTEX_POINT('',#63);
#63 = CARTESIAN_POINT('',(47.,-57.2,12.99));
#64 = LINE('',#65,#66);
#65 = CARTESIAN_POINT('',(47.,-57.2,12.99));
#66 = VECTOR('',#67,1.);
#67 = DIRECTION('',(0.,1.,0.));
#68 = ORIENTED_EDGE('',*,*,#21,.T.);
#69 = ORIENTED_EDGE('',*,*,#70,.F.);
#70 = EDGE_CURVE('',#71,#24,#73,.T.);
#71 = VERTEX_POINT('',#72);
#72 = CARTESIAN_POINT('',(45.15,-53.,12.99));
#73 = LINE('',#74,#75);
#74 = CARTESIAN_POINT('',(45.15,-46.04641870115,12.99));
#75 = VECTOR('',#76,1.);
#76 = DIRECTION('',(0.,1.,0.));
#77 = ORIENTED_EDGE('',*,*,#78,.T.);
#78 = EDGE_CURVE('',#71,#79,#81,.T.);
#79 = VERTEX_POINT('',#80);
#80 = CARTESIAN_POINT('',(39.004347826087,-53.,12.99));
#81 = LINE('',#82,#83);
#82 = CARTESIAN_POINT('',(33.143912304081,-53.,12.99));
#83 = VECTOR('',#84,1.);
#84 = DIRECTION('',(-1.,0.,0.));
#85 = ORIENTED_EDGE('',*,*,#86,.T.);
#86 = EDGE_CURVE('',#79,#87,#89,.T.);
#87 = VERTEX_POINT('',#88);
#88 = CARTESIAN_POINT('',(38.5,-55.9,12.99));
#89 = LINE('',#90,#91);
#90 = CARTESIAN_POINT('',(39.3,-51.3,12.99));
#91 = VECTOR('',#92,1.);
#92 = DIRECTION('',(-0.171341174751,-0.98521175482,0.));
#93 = ORIENTED_EDGE('',*,*,#94,.T.);
#94 = EDGE_CURVE('',#87,#95,#97,.T.);
#95 = VERTEX_POINT('',#96);
#96 = CARTESIAN_POINT('',(42.6,-58.6,12.99));
#97 = LINE('',#98,#99);
#98 = CARTESIAN_POINT('',(38.5,-55.9,12.99));
#99 = VECTOR('',#100,1.);
#100 = DIRECTION('',(0.83517086482,-0.549990569516,0.));
#101 = ORIENTED_EDGE('',*,*,#102,.T.);
#102 = EDGE_CURVE('',#95,#62,#103,.T.);
#103 = LINE('',#104,#105);
#104 = CARTESIAN_POINT('',(42.6,-58.6,12.99));
#105 = VECTOR('',#106,1.);
#106 = DIRECTION('',(0.952925780013,0.303203657277,0.));
#107 = PLANE('',#108);
#108 = AXIS2_PLACEMENT_3D('',#109,#110,#111);
#109 = CARTESIAN_POINT('',(43.068200542904,-54.45978167292,12.99));
#110 = DIRECTION('',(0.,0.,1.));
#111 = DIRECTION('',(1.,0.,0.));
#112 = ADVANCED_FACE('',(#113),#131,.F.);
#113 = FACE_BOUND('',#114,.F.);
#114 = EDGE_LOOP('',(#115,#123,#124,#125));
#115 = ORIENTED_EDGE('',*,*,#116,.F.);
#116 = EDGE_CURVE('',#71,#117,#119,.T.);
#117 = VERTEX_POINT('',#118);
#118 = CARTESIAN_POINT('',(45.15,-53.,13.39));
#119 = LINE('',#120,#121);
#120 = CARTESIAN_POINT('',(45.15,-53.,11.7));
#121 = VECTOR('',#122,1.);
#122 = DIRECTION('',(0.,0.,1.));
#123 = ORIENTED_EDGE('',*,*,#70,.T.);
#124 = ORIENTED_EDGE('',*,*,#47,.T.);
#125 = ORIENTED_EDGE('',*,*,#126,.F.);
#126 = EDGE_CURVE('',#117,#40,#127,.T.);
#127 = LINE('',#128,#129);
#128 = CARTESIAN_POINT('',(45.15,-46.04893884022,13.39));
#129 = VECTOR('',#130,1.);
#130 = DIRECTION('',(0.,1.,0.));
#131 = PLANE('',#132);
#132 = AXIS2_PLACEMENT_3D('',#133,#134,#135);
#133 = CARTESIAN_POINT('',(45.15,-53.,11.7));
#134 = DIRECTION('',(1.,0.,0.));
#135 = DIRECTION('',(0.,0.,1.));
#136 = ADVANCED_FACE('',(#137),#179,.T.);
#137 = FACE_BOUND('',#138,.T.);
#138 = EDGE_LOOP('',(#139,#147,#148,#149,#157,#165,#173));
#139 = ORIENTED_EDGE('',*,*,#140,.T.);
#140 = EDGE_CURVE('',#141,#32,#143,.T.);
#141 = VERTEX_POINT('',#142);
#142 = CARTESIAN_POINT('',(47.,-57.2,13.39));
#143 = LINE('',#144,#145);
#144 = CARTESIAN_POINT('',(47.,-57.2,13.39));
#145 = VECTOR('',#146,1.);
#146 = DIRECTION('',(0.,1.,0.));
#147 = ORIENTED_EDGE('',*,*,#39,.T.);
#148 = ORIENTED_EDGE('',*,*,#126,.F.);
#149 = ORIENTED_EDGE('',*,*,#150,.T.);
#150 = EDGE_CURVE('',#117,#151,#153,.T.);
#151 = VERTEX_POINT('',#152);
#152 = CARTESIAN_POINT('',(39.004347826087,-53.,13.39));
#153 = LINE('',#154,#155);
#154 = CARTESIAN_POINT('',(33.146656284918,-53.,13.39));
#155 = VECTOR('',#156,1.);
#156 = DIRECTION('',(-1.,0.,0.));
#157 = ORIENTED_EDGE('',*,*,#158,.T.);
#158 = EDGE_CURVE('',#151,#159,#161,.T.);
#159 = VERTEX_POINT('',#160);
#160 = CARTESIAN_POINT('',(38.5,-55.9,13.39));
#161 = LINE('',#162,#163);
#162 = CARTESIAN_POINT('',(39.3,-51.3,13.39));
#163 = VECTOR('',#164,1.);
#164 = DIRECTION('',(-0.171341174751,-0.98521175482,0.));
#165 = ORIENTED_EDGE('',*,*,#166,.T.);
#166 = EDGE_CURVE('',#159,#167,#169,.T.);
#167 = VERTEX_POINT('',#168);
#168 = CARTESIAN_POINT('',(42.6,-58.6,13.39));
#169 = LINE('',#170,#171);
#170 = CARTESIAN_POINT('',(38.5,-55.9,13.39));
#171 = VECTOR('',#172,1.);
#172 = DIRECTION('',(0.83517086482,-0.549990569516,0.));
#173 = ORIENTED_EDGE('',*,*,#174,.T.);
#174 = EDGE_CURVE('',#167,#141,#175,.T.);
#175 = LINE('',#176,#177);
#176 = CARTESIAN_POINT('',(42.6,-58.6,13.39));
#177 = VECTOR('',#178,1.);
#178 = DIRECTION('',(0.952925780013,0.303203657277,0.));
#179 = PLANE('',#180);
#180 = AXIS2_PLACEMENT_3D('',#181,#182,#183);
#181 = CARTESIAN_POINT('',(43.068200542904,-54.45978167292,13.39));
#182 = DIRECTION('',(0.,0.,1.));
#183 = DIRECTION('',(1.,0.,0.));
#184 = ADVANCED_FACE('',(#185),#196,.F.);
#185 = FACE_BOUND('',#186,.F.);
#186 = EDGE_LOOP('',(#187,#193,#194,#195));
#187 = ORIENTED_EDGE('',*,*,#188,.T.);
#188 = EDGE_CURVE('',#62,#141,#189,.T.);
#189 = LINE('',#190,#191);
#190 = CARTESIAN_POINT('',(47.,-57.2,12.99));
#191 = VECTOR('',#192,1.);
#192 = DIRECTION('',(0.,0.,1.));
#193 = ORIENTED_EDGE('',*,*,#140,.T.);
#194 = ORIENTED_EDGE('',*,*,#31,.F.);
#195 = ORIENTED_EDGE('',*,*,#61,.F.);
#196 = PLANE('',#197);
#197 = AXIS2_PLACEMENT_3D('',#198,#199,#200);
#198 = CARTESIAN_POINT('',(47.,-57.2,12.99));
#199 = DIRECTION('',(-1.,0.,0.));
#200 = DIRECTION('',(0.,1.,0.));
#201 = ADVANCED_FACE('',(#202),#213,.F.);
#202 = FACE_BOUND('',#203,.F.);
#203 = EDGE_LOOP('',(#204,#210,#211,#212));
#204 = ORIENTED_EDGE('',*,*,#205,.T.);
#205 = EDGE_CURVE('',#95,#167,#206,.T.);
#206 = LINE('',#207,#208);
#207 = CARTESIAN_POINT('',(42.6,-58.6,12.99));
#208 = VECTOR('',#209,1.);
#209 = DIRECTION('',(0.,0.,1.));
#210 = ORIENTED_EDGE('',*,*,#174,.T.);
#211 = ORIENTED_EDGE('',*,*,#188,.F.);
#212 = ORIENTED_EDGE('',*,*,#102,.F.);
#213 = PLANE('',#214);
#214 = AXIS2_PLACEMENT_3D('',#215,#216,#217);
#215 = CARTESIAN_POINT('',(42.6,-58.6,12.99));
#216 = DIRECTION('',(-0.303203657277,0.952925780013,0.));
#217 = DIRECTION('',(0.952925780013,0.303203657277,0.));
#218 = ADVANCED_FACE('',(#219),#230,.F.);
#219 = FACE_BOUND('',#220,.F.);
#220 = EDGE_LOOP('',(#221,#227,#228,#229));
#221 = ORIENTED_EDGE('',*,*,#222,.T.);
#222 = EDGE_CURVE('',#87,#159,#223,.T.);
#223 = LINE('',#224,#225);
#224 = CARTESIAN_POINT('',(38.5,-55.9,12.99));
#225 = VECTOR('',#226,1.);
#226 = DIRECTION('',(0.,0.,1.));
#227 = ORIENTED_EDGE('',*,*,#166,.T.);
#228 = ORIENTED_EDGE('',*,*,#205,.F.);
#229 = ORIENTED_EDGE('',*,*,#94,.F.);
#230 = PLANE('',#231);
#231 = AXIS2_PLACEMENT_3D('',#232,#233,#234);
#232 = CARTESIAN_POINT('',(38.5,-55.9,12.99));
#233 = DIRECTION('',(0.549990569516,0.83517086482,0.));
#234 = DIRECTION('',(0.83517086482,-0.549990569516,0.));
#235 = ADVANCED_FACE('',(#236),#247,.F.);
#236 = FACE_BOUND('',#237,.F.);
#237 = EDGE_LOOP('',(#238,#239,#245,#246));
#238 = ORIENTED_EDGE('',*,*,#86,.F.);
#239 = ORIENTED_EDGE('',*,*,#240,.T.);
#240 = EDGE_CURVE('',#79,#151,#241,.T.);
#241 = LINE('',#242,#243);
#242 = CARTESIAN_POINT('',(39.004347826087,-53.,12.345));
#243 = VECTOR('',#244,1.);
#244 = DIRECTION('',(0.,0.,1.));
#245 = ORIENTED_EDGE('',*,*,#158,.T.);
#246 = ORIENTED_EDGE('',*,*,#222,.F.);
#247 = PLANE('',#248);
#248 = AXIS2_PLACEMENT_3D('',#249,#250,#251);
#249 = CARTESIAN_POINT('',(39.3,-51.3,12.99));
#250 = DIRECTION('',(0.98521175482,-0.171341174751,0.));
#251 = DIRECTION('',(-0.171341174751,-0.98521175482,0.));
#252 = ADVANCED_FACE('',(#253),#259,.T.);
#253 = FACE_BOUND('',#254,.T.);
#254 = EDGE_LOOP('',(#255,#256,#257,#258));
#255 = ORIENTED_EDGE('',*,*,#116,.F.);
#256 = ORIENTED_EDGE('',*,*,#78,.T.);
#257 = ORIENTED_EDGE('',*,*,#240,.T.);
#258 = ORIENTED_EDGE('',*,*,#150,.F.);
#259 = PLANE('',#260);
#260 = AXIS2_PLACEMENT_3D('',#261,#262,#263);
#261 = CARTESIAN_POINT('',(29.25,-53.,11.7));
#262 = DIRECTION('',(0.,1.,0.));
#263 = DIRECTION('',(0.,0.,1.));
#264 = MANIFOLD_SOLID_BREP('',#265);
#265 = CLOSED_SHELL('',(#266,#306,#361,#385,#433,#450,#467,#484,#501));
#266 = ADVANCED_FACE('',(#267),#301,.F.);
#267 = FACE_BOUND('',#268,.F.);
#268 = EDGE_LOOP('',(#269,#279,#287,#295));
#269 = ORIENTED_EDGE('',*,*,#270,.F.);
#270 = EDGE_CURVE('',#271,#273,#275,.T.);
#271 = VERTEX_POINT('',#272);
#272 = CARTESIAN_POINT('',(29.25,-51.3,12.99));
#273 = VERTEX_POINT('',#274);
#274 = CARTESIAN_POINT('',(27.,-51.3,12.99));
#275 = LINE('',#276,#277);
#276 = CARTESIAN_POINT('',(34.9,-51.3,12.99));
#277 = VECTOR('',#278,1.);
#278 = DIRECTION('',(-1.,0.,0.));
#279 = ORIENTED_EDGE('',*,*,#280,.T.);
#280 = EDGE_CURVE('',#271,#281,#283,.T.);
#281 = VERTEX_POINT('',#282);
#282 = CARTESIAN_POINT('',(29.25,-51.3,13.39));
#283 = LINE('',#284,#285);
#284 = CARTESIAN_POINT('',(29.25,-51.3,12.345));
#285 = VECTOR('',#286,1.);
#286 = DIRECTION('',(0.,0.,1.));
#287 = ORIENTED_EDGE('',*,*,#288,.T.);
#288 = EDGE_CURVE('',#281,#289,#291,.T.);
#289 = VERTEX_POINT('',#290);
#290 = CARTESIAN_POINT('',(27.,-51.3,13.39));
#291 = LINE('',#292,#293);
#292 = CARTESIAN_POINT('',(34.9,-51.3,13.39));
#293 = VECTOR('',#294,1.);
#294 = DIRECTION('',(-1.,0.,0.));
#295 = ORIENTED_EDGE('',*,*,#296,.F.);
#296 = EDGE_CURVE('',#273,#289,#297,.T.);
#297 = LINE('',#298,#299);
#298 = CARTESIAN_POINT('',(27.,-51.3,12.99));
#299 = VECTOR('',#300,1.);
#300 = DIRECTION('',(0.,0.,1.));
#301 = PLANE('',#302);
#302 = AXIS2_PLACEMENT_3D('',#303,#304,#305);
#303 = CARTESIAN_POINT('',(34.9,-51.3,12.99));
#304 = DIRECTION('',(0.,-1.,0.));
#305 = DIRECTION('',(-1.,0.,0.));
#306 = ADVANCED_FACE('',(#307),#356,.F.);
#307 = FACE_BOUND('',#308,.F.);
#308 = EDGE_LOOP('',(#309,#317,#318,#326,#334,#342,#350));
#309 = ORIENTED_EDGE('',*,*,#310,.T.);
#310 = EDGE_CURVE('',#311,#271,#313,.T.);
#311 = VERTEX_POINT('',#312);
#312 = CARTESIAN_POINT('',(29.25,-53.,12.99));
#313 = LINE('',#314,#315);
#314 = CARTESIAN_POINT('',(29.25,-46.04641870115,12.99));
#315 = VECTOR('',#316,1.);
#316 = DIRECTION('',(0.,1.,0.));
#317 = ORIENTED_EDGE('',*,*,#270,.T.);
#318 = ORIENTED_EDGE('',*,*,#319,.T.);
#319 = EDGE_CURVE('',#273,#320,#322,.T.);
#320 = VERTEX_POINT('',#321);
#321 = CARTESIAN_POINT('',(27.,-56.8,12.99));
#322 = LINE('',#323,#324);
#323 = CARTESIAN_POINT('',(27.,-51.3,12.99));
#324 = VECTOR('',#325,1.);
#325 = DIRECTION('',(0.,-1.,0.));
#326 = ORIENTED_EDGE('',*,*,#327,.T.);
#327 = EDGE_CURVE('',#320,#328,#330,.T.);
#328 = VERTEX_POINT('',#329);
#329 = CARTESIAN_POINT('',(31.6,-57.2,12.99));
#330 = LINE('',#331,#332);
#331 = CARTESIAN_POINT('',(27.,-56.8,12.99));
#332 = VECTOR('',#333,1.);
#333 = DIRECTION('',(0.996240588196,-8.662961636484E-02,0.));
#334 = ORIENTED_EDGE('',*,*,#335,.T.);
#335 = EDGE_CURVE('',#328,#336,#338,.T.);
#336 = VERTEX_POINT('',#337);
#337 = CARTESIAN_POINT('',(33.9,-55.9,12.99));
#338 = LINE('',#339,#340);
#339 = CARTESIAN_POINT('',(31.6,-57.2,12.99));
#340 = VECTOR('',#341,1.);
#341 = DIRECTION('',(0.87056283872,0.492057256668,0.));
#342 = ORIENTED_EDGE('',*,*,#343,.T.);
#343 = EDGE_CURVE('',#336,#344,#346,.T.);
#344 = VERTEX_POINT('',#345);
#345 = CARTESIAN_POINT('',(34.530434782609,-53.,12.99));
#346 = LINE('',#347,#348);
#347 = CARTESIAN_POINT('',(33.9,-55.9,12.99));
#348 = VECTOR('',#349,1.);
#349 = DIRECTION('',(0.212429644331,0.977176363923,0.));
#350 = ORIENTED_EDGE('',*,*,#351,.T.);
#351 = EDGE_CURVE('',#344,#311,#352,.T.);
#352 = LINE('',#353,#354);
#353 = CARTESIAN_POINT('',(33.143912304081,-53.,12.99));
#354 = VECTOR('',#355,1.);
#355 = DIRECTION('',(-1.,0.,0.));
#356 = PLANE('',#357);
#357 = AXIS2_PLACEMENT_3D('',#358,#359,#360);
#358 = CARTESIAN_POINT('',(30.620930637782,-53.9074032681,12.99));
#359 = DIRECTION('',(0.,0.,1.));
#360 = DIRECTION('',(1.,0.,0.));
#361 = ADVANCED_FACE('',(#362),#380,.F.);
#362 = FACE_BOUND('',#363,.F.);
#363 = EDGE_LOOP('',(#364,#365,#373,#379));
#364 = ORIENTED_EDGE('',*,*,#296,.T.);
#365 = ORIENTED_EDGE('',*,*,#366,.T.);
#366 = EDGE_CURVE('',#289,#367,#369,.T.);
#367 = VERTEX_POINT('',#368);
#368 = CARTESIAN_POINT('',(27.,-56.8,13.39));
#369 = LINE('',#370,#371);
#370 = CARTESIAN_POINT('',(27.,-51.3,13.39));
#371 = VECTOR('',#372,1.);
#372 = DIRECTION('',(0.,-1.,0.));
#373 = ORIENTED_EDGE('',*,*,#374,.F.);
#374 = EDGE_CURVE('',#320,#367,#375,.T.);
#375 = LINE('',#376,#377);
#376 = CARTESIAN_POINT('',(27.,-56.8,12.99));
#377 = VECTOR('',#378,1.);
#378 = DIRECTION('',(0.,0.,1.));
#379 = ORIENTED_EDGE('',*,*,#319,.F.);
#380 = PLANE('',#381);
#381 = AXIS2_PLACEMENT_3D('',#382,#383,#384);
#382 = CARTESIAN_POINT('',(27.,-51.3,12.99));
#383 = DIRECTION('',(1.,0.,0.));
#384 = DIRECTION('',(0.,-1.,0.));
#385 = ADVANCED_FACE('',(#386),#428,.T.);
#386 = FACE_BOUND('',#387,.T.);
#387 = EDGE_LOOP('',(#388,#396,#397,#398,#406,#414,#422));
#388 = ORIENTED_EDGE('',*,*,#389,.T.);
#389 = EDGE_CURVE('',#390,#281,#392,.T.);
#390 = VERTEX_POINT('',#391);
#391 = CARTESIAN_POINT('',(29.25,-53.,13.39));
#392 = LINE('',#393,#394);
#393 = CARTESIAN_POINT('',(29.25,-46.04893884022,13.39));
#394 = VECTOR('',#395,1.);
#395 = DIRECTION('',(0.,1.,0.));
#396 = ORIENTED_EDGE('',*,*,#288,.T.);
#397 = ORIENTED_EDGE('',*,*,#366,.T.);
#398 = ORIENTED_EDGE('',*,*,#399,.T.);
#399 = EDGE_CURVE('',#367,#400,#402,.T.);
#400 = VERTEX_POINT('',#401);
#401 = CARTESIAN_POINT('',(31.6,-57.2,13.39));
#402 = LINE('',#403,#404);
#403 = CARTESIAN_POINT('',(27.,-56.8,13.39));
#404 = VECTOR('',#405,1.);
#405 = DIRECTION('',(0.996240588196,-8.662961636484E-02,0.));
#406 = ORIENTED_EDGE('',*,*,#407,.T.);
#407 = EDGE_CURVE('',#400,#408,#410,.T.);
#408 = VERTEX_POINT('',#409);
#409 = CARTESIAN_POINT('',(33.9,-55.9,13.39));
#410 = LINE('',#411,#412);
#411 = CARTESIAN_POINT('',(31.6,-57.2,13.39));
#412 = VECTOR('',#413,1.);
#413 = DIRECTION('',(0.87056283872,0.492057256668,0.));
#414 = ORIENTED_EDGE('',*,*,#415,.T.);
#415 = EDGE_CURVE('',#408,#416,#418,.T.);
#416 = VERTEX_POINT('',#417);
#417 = CARTESIAN_POINT('',(34.530434782609,-53.,13.39));
#418 = LINE('',#419,#420);
#419 = CARTESIAN_POINT('',(33.9,-55.9,13.39));
#420 = VECTOR('',#421,1.);
#421 = DIRECTION('',(0.212429644331,0.977176363923,0.));
#422 = ORIENTED_EDGE('',*,*,#423,.T.);
#423 = EDGE_CURVE('',#416,#390,#424,.T.);
#424 = LINE('',#425,#426);
#425 = CARTESIAN_POINT('',(33.146656284918,-53.,13.39));
#426 = VECTOR('',#427,1.);
#427 = DIRECTION('',(-1.,0.,0.));
#428 = PLANE('',#429);
#429 = AXIS2_PLACEMENT_3D('',#430,#431,#432);
#430 = CARTESIAN_POINT('',(30.620930637782,-53.9074032681,13.39));
#431 = DIRECTION('',(0.,0.,1.));
#432 = DIRECTION('',(1.,0.,0.));
#433 = ADVANCED_FACE('',(#434),#445,.T.);
#434 = FACE_BOUND('',#435,.T.);
#435 = EDGE_LOOP('',(#436,#442,#443,#444));
#436 = ORIENTED_EDGE('',*,*,#437,.F.);
#437 = EDGE_CURVE('',#311,#390,#438,.T.);
#438 = LINE('',#439,#440);
#439 = CARTESIAN_POINT('',(29.25,-53.,11.7));
#440 = VECTOR('',#441,1.);
#441 = DIRECTION('',(0.,0.,1.));
#442 = ORIENTED_EDGE('',*,*,#310,.T.);
#443 = ORIENTED_EDGE('',*,*,#280,.T.);
#444 = ORIENTED_EDGE('',*,*,#389,.F.);
#445 = PLANE('',#446);
#446 = AXIS2_PLACEMENT_3D('',#447,#448,#449);
#447 = CARTESIAN_POINT('',(29.25,-53.,11.7));
#448 = DIRECTION('',(1.,0.,0.));
#449 = DIRECTION('',(0.,0.,1.));
#450 = ADVANCED_FACE('',(#451),#462,.T.);
#451 = FACE_BOUND('',#452,.T.);
#452 = EDGE_LOOP('',(#453,#459,#460,#461));
#453 = ORIENTED_EDGE('',*,*,#454,.T.);
#454 = EDGE_CURVE('',#416,#344,#455,.T.);
#455 = LINE('',#456,#457);
#456 = CARTESIAN_POINT('',(34.530434782609,-53.,12.345));
#457 = VECTOR('',#458,1.);
#458 = DIRECTION('',(0.,0.,-1.));
#459 = ORIENTED_EDGE('',*,*,#351,.T.);
#460 = ORIENTED_EDGE('',*,*,#437,.T.);
#461 = ORIENTED_EDGE('',*,*,#423,.F.);
#462 = PLANE('',#463);
#463 = AXIS2_PLACEMENT_3D('',#464,#465,#466);
#464 = CARTESIAN_POINT('',(29.25,-53.,11.7));
#465 = DIRECTION('',(0.,1.,0.));
#466 = DIRECTION('',(0.,0.,1.));
#467 = ADVANCED_FACE('',(#468),#479,.F.);
#468 = FACE_BOUND('',#469,.F.);
#469 = EDGE_LOOP('',(#470,#471,#477,#478));
#470 = ORIENTED_EDGE('',*,*,#343,.F.);
#471 = ORIENTED_EDGE('',*,*,#472,.T.);
#472 = EDGE_CURVE('',#336,#408,#473,.T.);
#473 = LINE('',#474,#475);
#474 = CARTESIAN_POINT('',(33.9,-55.9,12.99));
#475 = VECTOR('',#476,1.);
#476 = DIRECTION('',(0.,0.,1.));
#477 = ORIENTED_EDGE('',*,*,#415,.T.);
#478 = ORIENTED_EDGE('',*,*,#454,.T.);
#479 = PLANE('',#480);
#480 = AXIS2_PLACEMENT_3D('',#481,#482,#483);
#481 = CARTESIAN_POINT('',(33.9,-55.9,12.99));
#482 = DIRECTION('',(-0.977176363923,0.212429644331,0.));
#483 = DIRECTION('',(0.212429644331,0.977176363923,0.));
#484 = ADVANCED_FACE('',(#485),#496,.F.);
#485 = FACE_BOUND('',#486,.F.);
#486 = EDGE_LOOP('',(#487,#493,#494,#495));
#487 = ORIENTED_EDGE('',*,*,#488,.T.);
#488 = EDGE_CURVE('',#328,#400,#489,.T.);
#489 = LINE('',#490,#491);
#490 = CARTESIAN_POINT('',(31.6,-57.2,12.99));
#491 = VECTOR('',#492,1.);
#492 = DIRECTION('',(0.,0.,1.));
#493 = ORIENTED_EDGE('',*,*,#407,.T.);
#494 = ORIENTED_EDGE('',*,*,#472,.F.);
#495 = ORIENTED_EDGE('',*,*,#335,.F.);
#496 = PLANE('',#497);
#497 = AXIS2_PLACEMENT_3D('',#498,#499,#500);
#498 = CARTESIAN_POINT('',(31.6,-57.2,12.99));
#499 = DIRECTION('',(-0.492057256668,0.87056283872,0.));
#500 = DIRECTION('',(0.87056283872,0.492057256668,0.));
#501 = ADVANCED_FACE('',(#502),#508,.F.);
#502 = FACE_BOUND('',#503,.F.);
#503 = EDGE_LOOP('',(#504,#505,#506,#507));
#504 = ORIENTED_EDGE('',*,*,#374,.T.);
#505 = ORIENTED_EDGE('',*,*,#399,.T.);
#506 = ORIENTED_EDGE('',*,*,#488,.F.);
#507 = ORIENTED_EDGE('',*,*,#327,.F.);
#508 = PLANE('',#509);
#509 = AXIS2_PLACEMENT_3D('',#510,#511,#512);
#510 = CARTESIAN_POINT('',(27.,-56.8,12.99));
#511 = DIRECTION('',(8.662961636484E-02,0.996240588196,0.));
#512 = DIRECTION('',(0.996240588196,-8.662961636484E-02,0.));
#513 = ( GEOMETRIC_REPRESENTATION_CONTEXT(3) 
GLOBAL_UNCERTAINTY_ASSIGNED_CONTEXT((#517)) GLOBAL_UNIT_ASSIGNED_CONTEXT
((#514,#515,#516)) REPRESENTATION_CONTEXT('Context #1',
  '3D Context with UNIT and UNCERTAINTY') );
#514 = ( LENGTH_UNIT() NAMED_UNIT(*) SI_UNIT(.MILLI.,.METRE.) );
#515 = ( NAMED_UNIT(*) PLANE_ANGLE_UNIT() SI_UNIT($,.RADIAN.) );
#516 = ( NAMED_UNIT(*) SI_UNIT($,.STERADIAN.) SOLID_ANGLE_UNIT() );
#517 = UNCERTAINTY_MEASURE_WITH_UNIT(LENGTH_MEASURE(1.E-05),#514,
  'distance_accuracy_value','confusion accuracy');
#518 = PRODUCT_RELATED_PRODUCT_CATEGORY('part',$,(#7));
ENDSEC;
END-ISO-10303-21;
