ISO-10303-21;
HEADER;
FILE_DESCRIPTION(('FreeCAD Model'),'2;1');
FILE_NAME('Open CASCADE Shape Model','2026-09-28T16:00:38',('FreeCAD'),(
    'FreeCAD'),'Open CASCADE STEP processor 7.8','FreeCAD','Unknown');
FILE_SCHEMA(('AUTOMOTIVE_DESIGN { 1 0 10303 214 1 1 1 1 }'));
ENDSEC;
DATA;
#1 = APPLICATION_PROTOCOL_DEFINITION('international standard',
  'automotive_design',2000,#2);
#2 = APPLICATION_CONTEXT(
  'core data for automotive mechanical design processes');
#3 = SHAPE_DEFINITION_REPRESENTATION(#4,#10);
#4 = PRODUCT_DEFINITION_SHAPE('','',#5);
#5 = PRODUCT_DEFINITION('design','',#6,#9);
#6 = PRODUCT_DEFINITION_FORMATION('','',#7);
#7 = PRODUCT('Open CASCADE STEP translator 7.8 88',
  'Open CASCADE STEP translator 7.8 88','',(#8));
#8 = PRODUCT_CONTEXT('',#2,'mechanical');
#9 = PRODUCT_DEFINITION_CONTEXT('part definition',#2,'design');
#10 = SHAPE_REPRESENTATION('',(#11,#15,#579),#869);
#11 = AXIS2_PLACEMENT_3D('',#12,#13,#14);
#12 = CARTESIAN_POINT('',(0.,0.,0.));
#13 = DIRECTION('',(0.,0.,1.));
#14 = DIRECTION('',(1.,0.,-0.));
#15 = MANIFOLD_SOLID_BREP('',#16);
#16 = CLOSED_SHELL('',(#17,#57,#88,#212,#237,#261,#285,#310,#334,#358,
    #382,#416,#440,#465,#489,#513,#537,#554));
#17 = ADVANCED_FACE('',(#18),#52,.F.);
#18 = FACE_BOUND('',#19,.F.);
#19 = EDGE_LOOP('',(#20,#30,#38,#46));
#20 = ORIENTED_EDGE('',*,*,#21,.F.);
#21 = EDGE_CURVE('',#22,#24,#26,.T.);
#22 = VERTEX_POINT('',#23);
#23 = CARTESIAN_POINT('',(25.,-15.5,12.99));
#24 = VERTEX_POINT('',#25);
#25 = CARTESIAN_POINT('',(25.,-15.5,13.39));
#26 = LINE('',#27,#28);
#27 = CARTESIAN_POINT('',(25.,-15.5,12.99));
#28 = VECTOR('',#29,1.);
#29 = DIRECTION('',(0.,0.,1.));
#30 = ORIENTED_EDGE('',*,*,#31,.T.);
#31 = EDGE_CURVE('',#22,#32,#34,.T.);
#32 = VERTEX_POINT('',#33);
#33 = CARTESIAN_POINT('',(25.,-13.4,12.99));
#34 = LINE('',#35,#36);
#35 = CARTESIAN_POINT('',(25.,-15.5,12.99));
#36 = VECTOR('',#37,1.);
#37 = DIRECTION('',(0.,1.,0.));
#38 = ORIENTED_EDGE('',*,*,#39,.T.);
#39 = EDGE_CURVE('',#32,#40,#42,.T.);
#40 = VERTEX_POINT('',#41);
#41 = CARTESIAN_POINT('',(25.,-13.4,13.39));
#42 = LINE('',#43,#44);
#43 = CARTESIAN_POINT('',(25.,-13.4,6.3));
#44 = VECTOR('',#45,1.);
#45 = DIRECTION('',(0.,0.,1.));
#46 = ORIENTED_EDGE('',*,*,#47,.F.);
#47 = EDGE_CURVE('',#24,#40,#48,.T.);
#48 = LINE('',#49,#50);
#49 = CARTESIAN_POINT('',(25.,-15.5,13.39));
#50 = VECTOR('',#51,1.);
#51 = DIRECTION('',(0.,1.,0.));
#52 = PLANE('',#53);
#53 = AXIS2_PLACEMENT_3D('',#54,#55,#56);
#54 = CARTESIAN_POINT('',(25.,-15.5,12.99));
#55 = DIRECTION('',(1.,0.,0.));
#56 = DIRECTION('',(0.,0.,1.));
#57 = ADVANCED_FACE('',(#58),#83,.F.);
#58 = FACE_BOUND('',#59,.F.);
#59 = EDGE_LOOP('',(#60,#68,#69,#77));
#60 = ORIENTED_EDGE('',*,*,#61,.F.);
#61 = EDGE_CURVE('',#22,#62,#64,.T.);
#62 = VERTEX_POINT('',#63);
#63 = CARTESIAN_POINT('',(29.25,-15.5,12.99));
#64 = LINE('',#65,#66);
#65 = CARTESIAN_POINT('',(25.,-15.5,12.99));
#66 = VECTOR('',#67,1.);
#67 = DIRECTION('',(1.,0.,0.));
#68 = ORIENTED_EDGE('',*,*,#21,.T.);
#69 = ORIENTED_EDGE('',*,*,#70,.T.);
#70 = EDGE_CURVE('',#24,#71,#73,.T.);
#71 = VERTEX_POINT('',#72);
#72 = CARTESIAN_POINT('',(29.25,-15.5,13.39));
#73 = LINE('',#74,#75);
#74 = CARTESIAN_POINT('',(25.,-15.5,13.39));
#75 = VECTOR('',#76,1.);
#76 = DIRECTION('',(1.,0.,0.));
#77 = ORIENTED_EDGE('',*,*,#78,.T.);
#78 = EDGE_CURVE('',#71,#62,#79,.T.);
#79 = LINE('',#80,#81);
#80 = CARTESIAN_POINT('',(29.25,-15.5,12.345));
#81 = VECTOR('',#82,1.);
#82 = DIRECTION('',(0.,0.,-1.));
#83 = PLANE('',#84);
#84 = AXIS2_PLACEMENT_3D('',#85,#86,#87);
#85 = CARTESIAN_POINT('',(25.,-15.5,12.99));
#86 = DIRECTION('',(0.,1.,0.));
#87 = DIRECTION('',(0.,0.,1.));
#88 = ADVANCED_FACE('',(#89),#207,.T.);
#89 = FACE_BOUND('',#90,.T.);
#90 = EDGE_LOOP('',(#91,#101,#108,#109,#110,#118,#126,#134,#142,#150,
    #159,#167,#176,#184,#192,#200));
#91 = ORIENTED_EDGE('',*,*,#92,.F.);
#92 = EDGE_CURVE('',#93,#95,#97,.T.);
#93 = VERTEX_POINT('',#94);
#94 = CARTESIAN_POINT('',(27.4,-11.,13.39));
#95 = VERTEX_POINT('',#96);
#96 = CARTESIAN_POINT('',(47.8,-11.,13.39));
#97 = LINE('',#98,#99);
#98 = CARTESIAN_POINT('',(25.,-11.,13.39));
#99 = VECTOR('',#100,1.);
#100 = DIRECTION('',(1.,0.,0.));
#101 = ORIENTED_EDGE('',*,*,#102,.T.);
#102 = EDGE_CURVE('',#93,#40,#103,.T.);
#103 = CIRCLE('',#104,2.4);
#104 = AXIS2_PLACEMENT_3D('',#105,#106,#107);
#105 = CARTESIAN_POINT('',(27.4,-13.4,13.39));
#106 = DIRECTION('',(0.,0.,1.));
#107 = DIRECTION('',(-5.92E-15,1.,0.));
#108 = ORIENTED_EDGE('',*,*,#47,.F.);
#109 = ORIENTED_EDGE('',*,*,#70,.T.);
#110 = ORIENTED_EDGE('',*,*,#111,.T.);
#111 = EDGE_CURVE('',#71,#112,#114,.T.);
#112 = VERTEX_POINT('',#113);
#113 = CARTESIAN_POINT('',(29.25,-15.1,13.39));
#114 = LINE('',#115,#116);
#115 = CARTESIAN_POINT('',(29.25,-46.04893884022,13.39));
#116 = VECTOR('',#117,1.);
#117 = DIRECTION('',(0.,1.,0.));
#118 = ORIENTED_EDGE('',*,*,#119,.F.);
#119 = EDGE_CURVE('',#120,#112,#122,.T.);
#120 = VERTEX_POINT('',#121);
#121 = CARTESIAN_POINT('',(45.15,-15.1,13.39));
#122 = LINE('',#123,#124);
#123 = CARTESIAN_POINT('',(33.146656284918,-15.1,13.39));
#124 = VECTOR('',#125,1.);
#125 = DIRECTION('',(-1.,0.,0.));
#126 = ORIENTED_EDGE('',*,*,#127,.F.);
#127 = EDGE_CURVE('',#128,#120,#130,.T.);
#128 = VERTEX_POINT('',#129);
#129 = CARTESIAN_POINT('',(45.15,-15.5,13.39));
#130 = LINE('',#131,#132);
#131 = CARTESIAN_POINT('',(45.15,-46.04893884022,13.39));
#132 = VECTOR('',#133,1.);
#133 = DIRECTION('',(0.,1.,0.));
#134 = ORIENTED_EDGE('',*,*,#135,.T.);
#135 = EDGE_CURVE('',#128,#136,#138,.T.);
#136 = VERTEX_POINT('',#137);
#137 = CARTESIAN_POINT('',(45.7,-15.5,13.39));
#138 = LINE('',#139,#140);
#139 = CARTESIAN_POINT('',(25.,-15.5,13.39));
#140 = VECTOR('',#141,1.);
#141 = DIRECTION('',(1.,0.,0.));
#142 = ORIENTED_EDGE('',*,*,#143,.T.);
#143 = EDGE_CURVE('',#136,#144,#146,.T.);
#144 = VERTEX_POINT('',#145);
#145 = CARTESIAN_POINT('',(45.7,-24.3,13.39));
#146 = LINE('',#147,#148);
#147 = CARTESIAN_POINT('',(45.7,-14.7,13.39));
#148 = VECTOR('',#149,1.);
#149 = DIRECTION('',(0.,-1.,0.));
#150 = ORIENTED_EDGE('',*,*,#151,.T.);
#151 = EDGE_CURVE('',#144,#152,#154,.T.);
#152 = VERTEX_POINT('',#153);
#153 = CARTESIAN_POINT('',(46.9,-25.5,13.39));
#154 = CIRCLE('',#155,1.2);
#155 = AXIS2_PLACEMENT_3D('',#156,#157,#158);
#156 = CARTESIAN_POINT('',(46.9,-24.3,13.39));
#157 = DIRECTION('',(0.,0.,1.));
#158 = DIRECTION('',(-1.,-8.88E-15,0.));
#159 = ORIENTED_EDGE('',*,*,#160,.T.);
#160 = EDGE_CURVE('',#152,#161,#163,.T.);
#161 = VERTEX_POINT('',#162);
#162 = CARTESIAN_POINT('',(47.,-25.5,13.39));
#163 = LINE('',#164,#165);
#164 = CARTESIAN_POINT('',(46.9,-25.5,13.39));
#165 = VECTOR('',#166,1.);
#166 = DIRECTION('',(1.,0.,0.));
#167 = ORIENTED_EDGE('',*,*,#168,.T.);
#168 = EDGE_CURVE('',#161,#169,#171,.T.);
#169 = VERTEX_POINT('',#170);
#170 = CARTESIAN_POINT('',(48.2,-24.3,13.39));
#171 = CIRCLE('',#172,1.2);
#172 = AXIS2_PLACEMENT_3D('',#173,#174,#175);
#173 = CARTESIAN_POINT('',(47.,-24.3,13.39));
#174 = DIRECTION('',(-0.,0.,1.));
#175 = DIRECTION('',(5.92E-15,-1.,0.));
#176 = ORIENTED_EDGE('',*,*,#177,.T.);
#177 = EDGE_CURVE('',#169,#178,#180,.T.);
#178 = VERTEX_POINT('',#179);
#179 = CARTESIAN_POINT('',(48.2,-15.5,13.39));
#180 = LINE('',#181,#182);
#181 = CARTESIAN_POINT('',(48.2,-24.3,13.39));
#182 = VECTOR('',#183,1.);
#183 = DIRECTION('',(0.,1.,0.));
#184 = ORIENTED_EDGE('',*,*,#185,.T.);
#185 = EDGE_CURVE('',#178,#186,#188,.T.);
#186 = VERTEX_POINT('',#187);
#187 = CARTESIAN_POINT('',(49.,-15.5,13.39));
#188 = LINE('',#189,#190);
#189 = CARTESIAN_POINT('',(25.,-15.5,13.39));
#190 = VECTOR('',#191,1.);
#191 = DIRECTION('',(1.,0.,0.));
#192 = ORIENTED_EDGE('',*,*,#193,.T.);
#193 = EDGE_CURVE('',#186,#194,#196,.T.);
#194 = VERTEX_POINT('',#195);
#195 = CARTESIAN_POINT('',(49.,-12.2,13.39));
#196 = LINE('',#197,#198);
#197 = CARTESIAN_POINT('',(49.,-15.5,13.39));
#198 = VECTOR('',#199,1.);
#199 = DIRECTION('',(0.,1.,0.));
#200 = ORIENTED_EDGE('',*,*,#201,.T.);
#201 = EDGE_CURVE('',#194,#95,#202,.T.);
#202 = CIRCLE('',#203,1.2);
#203 = AXIS2_PLACEMENT_3D('',#204,#205,#206);
#204 = CARTESIAN_POINT('',(47.8,-12.2,13.39));
#205 = DIRECTION('',(0.,-0.,1.));
#206 = DIRECTION('',(1.,7.4E-15,0.));
#207 = PLANE('',#208);
#208 = AXIS2_PLACEMENT_3D('',#209,#210,#211);
#209 = CARTESIAN_POINT('',(39.480324615031,-15.31257543031,13.39));
#210 = DIRECTION('',(0.,0.,1.));
#211 = DIRECTION('',(1.,0.,0.));
#212 = ADVANCED_FACE('',(#213),#232,.T.);
#213 = FACE_BOUND('',#214,.F.);
#214 = EDGE_LOOP('',(#215,#224,#230,#231));
#215 = ORIENTED_EDGE('',*,*,#216,.T.);
#216 = EDGE_CURVE('',#32,#217,#219,.T.);
#217 = VERTEX_POINT('',#218);
#218 = CARTESIAN_POINT('',(27.4,-11.,12.99));
#219 = CIRCLE('',#220,2.4);
#220 = AXIS2_PLACEMENT_3D('',#221,#222,#223);
#221 = CARTESIAN_POINT('',(27.4,-13.4,12.99));
#222 = DIRECTION('',(0.,0.,-1.));
#223 = DIRECTION('',(-5.92E-15,1.,0.));
#224 = ORIENTED_EDGE('',*,*,#225,.T.);
#225 = EDGE_CURVE('',#217,#93,#226,.T.);
#226 = LINE('',#227,#228);
#227 = CARTESIAN_POINT('',(27.4,-11.,6.3));
#228 = VECTOR('',#229,1.);
#229 = DIRECTION('',(0.,0.,1.));
#230 = ORIENTED_EDGE('',*,*,#102,.T.);
#231 = ORIENTED_EDGE('',*,*,#39,.F.);
#232 = CYLINDRICAL_SURFACE('',#233,2.4);
#233 = AXIS2_PLACEMENT_3D('',#234,#235,#236);
#234 = CARTESIAN_POINT('',(27.4,-13.4,6.3));
#235 = DIRECTION('',(-0.,-0.,-1.));
#236 = DIRECTION('',(-5.92E-15,1.,0.));
#237 = ADVANCED_FACE('',(#238),#256,.T.);
#238 = FACE_BOUND('',#239,.T.);
#239 = EDGE_LOOP('',(#240,#241,#249,#255));
#240 = ORIENTED_EDGE('',*,*,#78,.T.);
#241 = ORIENTED_EDGE('',*,*,#242,.T.);
#242 = EDGE_CURVE('',#62,#243,#245,.T.);
#243 = VERTEX_POINT('',#244);
#244 = CARTESIAN_POINT('',(29.25,-15.1,12.99));
#245 = LINE('',#246,#247);
#246 = CARTESIAN_POINT('',(29.25,-46.04641870115,12.99));
#247 = VECTOR('',#248,1.);
#248 = DIRECTION('',(0.,1.,0.));
#249 = ORIENTED_EDGE('',*,*,#250,.T.);
#250 = EDGE_CURVE('',#243,#112,#251,.T.);
#251 = LINE('',#252,#253);
#252 = CARTESIAN_POINT('',(29.25,-15.1,11.7));
#253 = VECTOR('',#254,1.);
#254 = DIRECTION('',(0.,0.,1.));
#255 = ORIENTED_EDGE('',*,*,#111,.F.);
#256 = PLANE('',#257);
#257 = AXIS2_PLACEMENT_3D('',#258,#259,#260);
#258 = CARTESIAN_POINT('',(29.25,-53.,11.7));
#259 = DIRECTION('',(1.,0.,0.));
#260 = DIRECTION('',(0.,0.,1.));
#261 = ADVANCED_FACE('',(#262),#280,.T.);
#262 = FACE_BOUND('',#263,.T.);
#263 = EDGE_LOOP('',(#264,#272,#273,#274));
#264 = ORIENTED_EDGE('',*,*,#265,.F.);
#265 = EDGE_CURVE('',#217,#266,#268,.T.);
#266 = VERTEX_POINT('',#267);
#267 = CARTESIAN_POINT('',(47.8,-11.,12.99));
#268 = LINE('',#269,#270);
#269 = CARTESIAN_POINT('',(25.,-11.,12.99));
#270 = VECTOR('',#271,1.);
#271 = DIRECTION('',(1.,0.,0.));
#272 = ORIENTED_EDGE('',*,*,#225,.T.);
#273 = ORIENTED_EDGE('',*,*,#92,.T.);
#274 = ORIENTED_EDGE('',*,*,#275,.F.);
#275 = EDGE_CURVE('',#266,#95,#276,.T.);
#276 = LINE('',#277,#278);
#277 = CARTESIAN_POINT('',(47.8,-11.,6.3));
#278 = VECTOR('',#279,1.);
#279 = DIRECTION('',(0.,0.,1.));
#280 = PLANE('',#281);
#281 = AXIS2_PLACEMENT_3D('',#282,#283,#284);
#282 = CARTESIAN_POINT('',(25.,-11.,12.99));
#283 = DIRECTION('',(0.,1.,0.));
#284 = DIRECTION('',(0.,0.,1.));
#285 = ADVANCED_FACE('',(#286),#305,.T.);
#286 = FACE_BOUND('',#287,.F.);
#287 = EDGE_LOOP('',(#288,#297,#303,#304));
#288 = ORIENTED_EDGE('',*,*,#289,.T.);
#289 = EDGE_CURVE('',#266,#290,#292,.T.);
#290 = VERTEX_POINT('',#291);
#291 = CARTESIAN_POINT('',(49.,-12.2,12.99));
#292 = CIRCLE('',#293,1.2);
#293 = AXIS2_PLACEMENT_3D('',#294,#295,#296);
#294 = CARTESIAN_POINT('',(47.8,-12.2,12.99));
#295 = DIRECTION('',(0.,0.,-1.));
#296 = DIRECTION('',(1.,7.4E-15,0.));
#297 = ORIENTED_EDGE('',*,*,#298,.T.);
#298 = EDGE_CURVE('',#290,#194,#299,.T.);
#299 = LINE('',#300,#301);
#300 = CARTESIAN_POINT('',(49.,-12.2,6.3));
#301 = VECTOR('',#302,1.);
#302 = DIRECTION('',(0.,0.,1.));
#303 = ORIENTED_EDGE('',*,*,#201,.T.);
#304 = ORIENTED_EDGE('',*,*,#275,.F.);
#305 = CYLINDRICAL_SURFACE('',#306,1.2);
#306 = AXIS2_PLACEMENT_3D('',#307,#308,#309);
#307 = CARTESIAN_POINT('',(47.8,-12.2,6.3));
#308 = DIRECTION('',(0.,0.,-1.));
#309 = DIRECTION('',(1.,7.4E-15,0.));
#310 = ADVANCED_FACE('',(#311),#329,.T.);
#311 = FACE_BOUND('',#312,.T.);
#312 = EDGE_LOOP('',(#313,#321,#327,#328));
#313 = ORIENTED_EDGE('',*,*,#314,.F.);
#314 = EDGE_CURVE('',#315,#186,#317,.T.);
#315 = VERTEX_POINT('',#316);
#316 = CARTESIAN_POINT('',(49.,-15.5,12.99));
#317 = LINE('',#318,#319);
#318 = CARTESIAN_POINT('',(49.,-15.5,12.99));
#319 = VECTOR('',#320,1.);
#320 = DIRECTION('',(0.,0.,1.));
#321 = ORIENTED_EDGE('',*,*,#322,.T.);
#322 = EDGE_CURVE('',#315,#290,#323,.T.);
#323 = LINE('',#324,#325);
#324 = CARTESIAN_POINT('',(49.,-15.5,12.99));
#325 = VECTOR('',#326,1.);
#326 = DIRECTION('',(0.,1.,0.));
#327 = ORIENTED_EDGE('',*,*,#298,.T.);
#328 = ORIENTED_EDGE('',*,*,#193,.F.);
#329 = PLANE('',#330);
#330 = AXIS2_PLACEMENT_3D('',#331,#332,#333);
#331 = CARTESIAN_POINT('',(49.,-15.5,12.99));
#332 = DIRECTION('',(1.,0.,0.));
#333 = DIRECTION('',(0.,0.,1.));
#334 = ADVANCED_FACE('',(#335),#353,.F.);
#335 = FACE_BOUND('',#336,.F.);
#336 = EDGE_LOOP('',(#337,#345,#351,#352));
#337 = ORIENTED_EDGE('',*,*,#338,.F.);
#338 = EDGE_CURVE('',#339,#315,#341,.T.);
#339 = VERTEX_POINT('',#340);
#340 = CARTESIAN_POINT('',(48.2,-15.5,12.99));
#341 = LINE('',#342,#343);
#342 = CARTESIAN_POINT('',(25.,-15.5,12.99));
#343 = VECTOR('',#344,1.);
#344 = DIRECTION('',(1.,0.,0.));
#345 = ORIENTED_EDGE('',*,*,#346,.T.);
#346 = EDGE_CURVE('',#339,#178,#347,.T.);
#347 = LINE('',#348,#349);
#348 = CARTESIAN_POINT('',(48.2,-15.5,12.99));
#349 = VECTOR('',#350,1.);
#350 = DIRECTION('',(0.,0.,1.));
#351 = ORIENTED_EDGE('',*,*,#185,.T.);
#352 = ORIENTED_EDGE('',*,*,#314,.F.);
#353 = PLANE('',#354);
#354 = AXIS2_PLACEMENT_3D('',#355,#356,#357);
#355 = CARTESIAN_POINT('',(25.,-15.5,12.99));
#356 = DIRECTION('',(0.,1.,0.));
#357 = DIRECTION('',(0.,0.,1.));
#358 = ADVANCED_FACE('',(#359),#377,.F.);
#359 = FACE_BOUND('',#360,.F.);
#360 = EDGE_LOOP('',(#361,#369,#375,#376));
#361 = ORIENTED_EDGE('',*,*,#362,.F.);
#362 = EDGE_CURVE('',#363,#339,#365,.T.);
#363 = VERTEX_POINT('',#364);
#364 = CARTESIAN_POINT('',(48.2,-24.3,12.99));
#365 = LINE('',#366,#367);
#366 = CARTESIAN_POINT('',(48.2,-24.3,12.99));
#367 = VECTOR('',#368,1.);
#368 = DIRECTION('',(0.,1.,0.));
#369 = ORIENTED_EDGE('',*,*,#370,.T.);
#370 = EDGE_CURVE('',#363,#169,#371,.T.);
#371 = LINE('',#372,#373);
#372 = CARTESIAN_POINT('',(48.2,-24.3,12.99));
#373 = VECTOR('',#374,1.);
#374 = DIRECTION('',(0.,0.,1.));
#375 = ORIENTED_EDGE('',*,*,#177,.T.);
#376 = ORIENTED_EDGE('',*,*,#346,.F.);
#377 = PLANE('',#378);
#378 = AXIS2_PLACEMENT_3D('',#379,#380,#381);
#379 = CARTESIAN_POINT('',(48.2,-24.3,12.99));
#380 = DIRECTION('',(-1.,0.,0.));
#381 = DIRECTION('',(0.,1.,0.));
#382 = ADVANCED_FACE('',(#383),#411,.T.);
#383 = FACE_BOUND('',#384,.F.);
#384 = EDGE_LOOP('',(#385,#393,#394,#395,#404));
#385 = ORIENTED_EDGE('',*,*,#386,.T.);
#386 = EDGE_CURVE('',#387,#161,#389,.T.);
#387 = VERTEX_POINT('',#388);
#388 = CARTESIAN_POINT('',(47.,-25.5,12.99));
#389 = LINE('',#390,#391);
#390 = CARTESIAN_POINT('',(47.,-25.5,12.99));
#391 = VECTOR('',#392,1.);
#392 = DIRECTION('',(0.,0.,1.));
#393 = ORIENTED_EDGE('',*,*,#168,.T.);
#394 = ORIENTED_EDGE('',*,*,#370,.F.);
#395 = ORIENTED_EDGE('',*,*,#396,.F.);
#396 = EDGE_CURVE('',#397,#363,#399,.T.);
#397 = VERTEX_POINT('',#398);
#398 = CARTESIAN_POINT('',(47.8,-25.194427191,12.99));
#399 = CIRCLE('',#400,1.2);
#400 = AXIS2_PLACEMENT_3D('',#401,#402,#403);
#401 = CARTESIAN_POINT('',(47.,-24.3,12.99));
#402 = DIRECTION('',(-0.,0.,1.));
#403 = DIRECTION('',(5.92E-15,-1.,0.));
#404 = ORIENTED_EDGE('',*,*,#405,.F.);
#405 = EDGE_CURVE('',#387,#397,#406,.T.);
#406 = CIRCLE('',#407,1.2);
#407 = AXIS2_PLACEMENT_3D('',#408,#409,#410);
#408 = CARTESIAN_POINT('',(47.,-24.3,12.99));
#409 = DIRECTION('',(-0.,0.,1.));
#410 = DIRECTION('',(5.92E-15,-1.,0.));
#411 = CYLINDRICAL_SURFACE('',#412,1.2);
#412 = AXIS2_PLACEMENT_3D('',#413,#414,#415);
#413 = CARTESIAN_POINT('',(47.,-24.3,12.99));
#414 = DIRECTION('',(0.,0.,-1.));
#415 = DIRECTION('',(5.92E-15,-1.,0.));
#416 = ADVANCED_FACE('',(#417),#435,.F.);
#417 = FACE_BOUND('',#418,.F.);
#418 = EDGE_LOOP('',(#419,#427,#428,#429));
#419 = ORIENTED_EDGE('',*,*,#420,.T.);
#420 = EDGE_CURVE('',#421,#152,#423,.T.);
#421 = VERTEX_POINT('',#422);
#422 = CARTESIAN_POINT('',(46.9,-25.5,12.99));
#423 = LINE('',#424,#425);
#424 = CARTESIAN_POINT('',(46.9,-25.5,12.99));
#425 = VECTOR('',#426,1.);
#426 = DIRECTION('',(0.,0.,1.));
#427 = ORIENTED_EDGE('',*,*,#160,.T.);
#428 = ORIENTED_EDGE('',*,*,#386,.F.);
#429 = ORIENTED_EDGE('',*,*,#430,.F.);
#430 = EDGE_CURVE('',#421,#387,#431,.T.);
#431 = LINE('',#432,#433);
#432 = CARTESIAN_POINT('',(46.9,-25.5,12.99));
#433 = VECTOR('',#434,1.);
#434 = DIRECTION('',(1.,0.,0.));
#435 = PLANE('',#436);
#436 = AXIS2_PLACEMENT_3D('',#437,#438,#439);
#437 = CARTESIAN_POINT('',(46.9,-25.5,12.99));
#438 = DIRECTION('',(0.,1.,0.));
#439 = DIRECTION('',(1.,0.,0.));
#440 = ADVANCED_FACE('',(#441),#460,.T.);
#441 = FACE_BOUND('',#442,.F.);
#442 = EDGE_LOOP('',(#443,#451,#452,#453));
#443 = ORIENTED_EDGE('',*,*,#444,.T.);
#444 = EDGE_CURVE('',#445,#144,#447,.T.);
#445 = VERTEX_POINT('',#446);
#446 = CARTESIAN_POINT('',(45.7,-24.3,12.99));
#447 = LINE('',#448,#449);
#448 = CARTESIAN_POINT('',(45.7,-24.3,12.99));
#449 = VECTOR('',#450,1.);
#450 = DIRECTION('',(0.,0.,1.));
#451 = ORIENTED_EDGE('',*,*,#151,.T.);
#452 = ORIENTED_EDGE('',*,*,#420,.F.);
#453 = ORIENTED_EDGE('',*,*,#454,.F.);
#454 = EDGE_CURVE('',#445,#421,#455,.T.);
#455 = CIRCLE('',#456,1.2);
#456 = AXIS2_PLACEMENT_3D('',#457,#458,#459);
#457 = CARTESIAN_POINT('',(46.9,-24.3,12.99));
#458 = DIRECTION('',(0.,0.,1.));
#459 = DIRECTION('',(-1.,-8.88E-15,0.));
#460 = CYLINDRICAL_SURFACE('',#461,1.2);
#461 = AXIS2_PLACEMENT_3D('',#462,#463,#464);
#462 = CARTESIAN_POINT('',(46.9,-24.3,12.99));
#463 = DIRECTION('',(-0.,-0.,-1.));
#464 = DIRECTION('',(-1.,-8.88E-15,0.));
#465 = ADVANCED_FACE('',(#466),#484,.F.);
#466 = FACE_BOUND('',#467,.F.);
#467 = EDGE_LOOP('',(#468,#476,#482,#483));
#468 = ORIENTED_EDGE('',*,*,#469,.F.);
#469 = EDGE_CURVE('',#470,#445,#472,.T.);
#470 = VERTEX_POINT('',#471);
#471 = CARTESIAN_POINT('',(45.7,-15.5,12.99));
#472 = LINE('',#473,#474);
#473 = CARTESIAN_POINT('',(45.7,-14.7,12.99));
#474 = VECTOR('',#475,1.);
#475 = DIRECTION('',(0.,-1.,0.));
#476 = ORIENTED_EDGE('',*,*,#477,.F.);
#477 = EDGE_CURVE('',#136,#470,#478,.T.);
#478 = LINE('',#479,#480);
#479 = CARTESIAN_POINT('',(45.7,-15.5,12.99));
#480 = VECTOR('',#481,1.);
#481 = DIRECTION('',(0.,0.,-1.));
#482 = ORIENTED_EDGE('',*,*,#143,.T.);
#483 = ORIENTED_EDGE('',*,*,#444,.F.);
#484 = PLANE('',#485);
#485 = AXIS2_PLACEMENT_3D('',#486,#487,#488);
#486 = CARTESIAN_POINT('',(45.7,-14.7,12.99));
#487 = DIRECTION('',(1.,0.,0.));
#488 = DIRECTION('',(0.,-1.,0.));
#489 = ADVANCED_FACE('',(#490),#508,.F.);
#490 = FACE_BOUND('',#491,.F.);
#491 = EDGE_LOOP('',(#492,#500,#506,#507));
#492 = ORIENTED_EDGE('',*,*,#493,.F.);
#493 = EDGE_CURVE('',#494,#470,#496,.T.);
#494 = VERTEX_POINT('',#495);
#495 = CARTESIAN_POINT('',(45.15,-15.5,12.99));
#496 = LINE('',#497,#498);
#497 = CARTESIAN_POINT('',(25.,-15.5,12.99));
#498 = VECTOR('',#499,1.);
#499 = DIRECTION('',(1.,0.,0.));
#500 = ORIENTED_EDGE('',*,*,#501,.F.);
#501 = EDGE_CURVE('',#128,#494,#502,.T.);
#502 = LINE('',#503,#504);
#503 = CARTESIAN_POINT('',(45.15,-15.5,12.345));
#504 = VECTOR('',#505,1.);
#505 = DIRECTION('',(0.,0.,-1.));
#506 = ORIENTED_EDGE('',*,*,#135,.T.);
#507 = ORIENTED_EDGE('',*,*,#477,.T.);
#508 = PLANE('',#509);
#509 = AXIS2_PLACEMENT_3D('',#510,#511,#512);
#510 = CARTESIAN_POINT('',(25.,-15.5,12.99));
#511 = DIRECTION('',(0.,1.,0.));
#512 = DIRECTION('',(0.,0.,1.));
#513 = ADVANCED_FACE('',(#514),#532,.F.);
#514 = FACE_BOUND('',#515,.F.);
#515 = EDGE_LOOP('',(#516,#517,#525,#531));
#516 = ORIENTED_EDGE('',*,*,#501,.T.);
#517 = ORIENTED_EDGE('',*,*,#518,.T.);
#518 = EDGE_CURVE('',#494,#519,#521,.T.);
#519 = VERTEX_POINT('',#520);
#520 = CARTESIAN_POINT('',(45.15,-15.1,12.99));
#521 = LINE('',#522,#523);
#522 = CARTESIAN_POINT('',(45.15,-46.04641870115,12.99));
#523 = VECTOR('',#524,1.);
#524 = DIRECTION('',(0.,1.,0.));
#525 = ORIENTED_EDGE('',*,*,#526,.T.);
#526 = EDGE_CURVE('',#519,#120,#527,.T.);
#527 = LINE('',#528,#529);
#528 = CARTESIAN_POINT('',(45.15,-15.1,11.7));
#529 = VECTOR('',#530,1.);
#530 = DIRECTION('',(0.,0.,1.));
#531 = ORIENTED_EDGE('',*,*,#127,.F.);
#532 = PLANE('',#533);
#533 = AXIS2_PLACEMENT_3D('',#534,#535,#536);
#534 = CARTESIAN_POINT('',(45.15,-53.,11.7));
#535 = DIRECTION('',(1.,0.,0.));
#536 = DIRECTION('',(0.,0.,1.));
#537 = ADVANCED_FACE('',(#538),#549,.F.);
#538 = FACE_BOUND('',#539,.F.);
#539 = EDGE_LOOP('',(#540,#541,#547,#548));
#540 = ORIENTED_EDGE('',*,*,#526,.F.);
#541 = ORIENTED_EDGE('',*,*,#542,.T.);
#542 = EDGE_CURVE('',#519,#243,#543,.T.);
#543 = LINE('',#544,#545);
#544 = CARTESIAN_POINT('',(33.143912304081,-15.1,12.99));
#545 = VECTOR('',#546,1.);
#546 = DIRECTION('',(-1.,0.,0.));
#547 = ORIENTED_EDGE('',*,*,#250,.T.);
#548 = ORIENTED_EDGE('',*,*,#119,.F.);
#549 = PLANE('',#550);
#550 = AXIS2_PLACEMENT_3D('',#551,#552,#553);
#551 = CARTESIAN_POINT('',(29.25,-15.1,11.7));
#552 = DIRECTION('',(0.,1.,0.));
#553 = DIRECTION('',(0.,0.,1.));
#554 = ADVANCED_FACE('',(#555),#574,.T.);
#555 = FACE_BOUND('',#556,.T.);
#556 = EDGE_LOOP('',(#557,#558,#559,#560,#561,#562,#563,#564,#565,#566,
    #567,#568,#569,#570,#571,#572,#573));
#557 = ORIENTED_EDGE('',*,*,#216,.T.);
#558 = ORIENTED_EDGE('',*,*,#265,.T.);
#559 = ORIENTED_EDGE('',*,*,#289,.T.);
#560 = ORIENTED_EDGE('',*,*,#322,.F.);
#561 = ORIENTED_EDGE('',*,*,#338,.F.);
#562 = ORIENTED_EDGE('',*,*,#362,.F.);
#563 = ORIENTED_EDGE('',*,*,#396,.F.);
#564 = ORIENTED_EDGE('',*,*,#405,.F.);
#565 = ORIENTED_EDGE('',*,*,#430,.F.);
#566 = ORIENTED_EDGE('',*,*,#454,.F.);
#567 = ORIENTED_EDGE('',*,*,#469,.F.);
#568 = ORIENTED_EDGE('',*,*,#493,.F.);
#569 = ORIENTED_EDGE('',*,*,#518,.T.);
#570 = ORIENTED_EDGE('',*,*,#542,.T.);
#571 = ORIENTED_EDGE('',*,*,#242,.F.);
#572 = ORIENTED_EDGE('',*,*,#61,.F.);
#573 = ORIENTED_EDGE('',*,*,#31,.T.);
#574 = PLANE('',#575);
#575 = AXIS2_PLACEMENT_3D('',#576,#577,#578);
#576 = CARTESIAN_POINT('',(39.601945584708,-15.33092200545,12.99));
#577 = DIRECTION('',(-0.,-0.,-1.));
#578 = DIRECTION('',(-1.,0.,0.));
#579 = MANIFOLD_SOLID_BREP('',#580);
#580 = CLOSED_SHELL('',(#581,#621,#654,#685,#718,#749,#782,#813,#837,
    #853));
#581 = ADVANCED_FACE('',(#582),#616,.F.);
#582 = FACE_BOUND('',#583,.F.);
#583 = EDGE_LOOP('',(#584,#594,#602,#610));
#584 = ORIENTED_EDGE('',*,*,#585,.T.);
#585 = EDGE_CURVE('',#586,#588,#590,.T.);
#586 = VERTEX_POINT('',#587);
#587 = CARTESIAN_POINT('',(41.2,-54.,12.99));
#588 = VERTEX_POINT('',#589);
#589 = CARTESIAN_POINT('',(41.2,-54.,13.39));
#590 = LINE('',#591,#592);
#591 = CARTESIAN_POINT('',(41.2,-54.,12.99));
#592 = VECTOR('',#593,1.);
#593 = DIRECTION('',(0.,0.,1.));
#594 = ORIENTED_EDGE('',*,*,#595,.T.);
#595 = EDGE_CURVE('',#588,#596,#598,.T.);
#596 = VERTEX_POINT('',#597);
#597 = CARTESIAN_POINT('',(32.8,-54.,13.39));
#598 = LINE('',#599,#600);
#599 = CARTESIAN_POINT('',(41.2,-54.,13.39));
#600 = VECTOR('',#601,1.);
#601 = DIRECTION('',(-1.,0.,0.));
#602 = ORIENTED_EDGE('',*,*,#603,.F.);
#603 = EDGE_CURVE('',#604,#596,#606,.T.);
#604 = VERTEX_POINT('',#605);
#605 = CARTESIAN_POINT('',(32.8,-54.,12.99));
#606 = LINE('',#607,#608);
#607 = CARTESIAN_POINT('',(32.8,-54.,12.99));
#608 = VECTOR('',#609,1.);
#609 = DIRECTION('',(0.,0.,1.));
#610 = ORIENTED_EDGE('',*,*,#611,.F.);
#611 = EDGE_CURVE('',#586,#604,#612,.T.);
#612 = LINE('',#613,#614);
#613 = CARTESIAN_POINT('',(41.2,-54.,12.99));
#614 = VECTOR('',#615,1.);
#615 = DIRECTION('',(-1.,0.,0.));
#616 = PLANE('',#617);
#617 = AXIS2_PLACEMENT_3D('',#618,#619,#620);
#618 = CARTESIAN_POINT('',(41.2,-54.,12.99));
#619 = DIRECTION('',(0.,-1.,0.));
#620 = DIRECTION('',(-1.,0.,0.));
#621 = ADVANCED_FACE('',(#622),#649,.T.);
#622 = FACE_BOUND('',#623,.F.);
#623 = EDGE_LOOP('',(#624,#625,#634,#642));
#624 = ORIENTED_EDGE('',*,*,#603,.T.);
#625 = ORIENTED_EDGE('',*,*,#626,.T.);
#626 = EDGE_CURVE('',#596,#627,#629,.T.);
#627 = VERTEX_POINT('',#628);
#628 = CARTESIAN_POINT('',(31.8,-55.,13.39));
#629 = CIRCLE('',#630,1.);
#630 = AXIS2_PLACEMENT_3D('',#631,#632,#633);
#631 = CARTESIAN_POINT('',(32.8,-55.,13.39));
#632 = DIRECTION('',(0.,-0.,1.));
#633 = DIRECTION('',(7.11E-15,1.,0.));
#634 = ORIENTED_EDGE('',*,*,#635,.F.);
#635 = EDGE_CURVE('',#636,#627,#638,.T.);
#636 = VERTEX_POINT('',#637);
#637 = CARTESIAN_POINT('',(31.8,-55.,12.99));
#638 = LINE('',#639,#640);
#639 = CARTESIAN_POINT('',(31.8,-55.,12.99));
#640 = VECTOR('',#641,1.);
#641 = DIRECTION('',(0.,0.,1.));
#642 = ORIENTED_EDGE('',*,*,#643,.F.);
#643 = EDGE_CURVE('',#604,#636,#644,.T.);
#644 = CIRCLE('',#645,1.);
#645 = AXIS2_PLACEMENT_3D('',#646,#647,#648);
#646 = CARTESIAN_POINT('',(32.8,-55.,12.99));
#647 = DIRECTION('',(0.,-0.,1.));
#648 = DIRECTION('',(7.11E-15,1.,0.));
#649 = CYLINDRICAL_SURFACE('',#650,1.);
#650 = AXIS2_PLACEMENT_3D('',#651,#652,#653);
#651 = CARTESIAN_POINT('',(32.8,-55.,12.99));
#652 = DIRECTION('',(0.,0.,-1.));
#653 = DIRECTION('',(7.11E-15,1.,0.));
#654 = ADVANCED_FACE('',(#655),#680,.F.);
#655 = FACE_BOUND('',#656,.F.);
#656 = EDGE_LOOP('',(#657,#658,#666,#674));
#657 = ORIENTED_EDGE('',*,*,#635,.T.);
#658 = ORIENTED_EDGE('',*,*,#659,.T.);
#659 = EDGE_CURVE('',#627,#660,#662,.T.);
#660 = VERTEX_POINT('',#661);
#661 = CARTESIAN_POINT('',(31.8,-55.2,13.39));
#662 = LINE('',#663,#664);
#663 = CARTESIAN_POINT('',(31.8,-55.,13.39));
#664 = VECTOR('',#665,1.);
#665 = DIRECTION('',(0.,-1.,0.));
#666 = ORIENTED_EDGE('',*,*,#667,.F.);
#667 = EDGE_CURVE('',#668,#660,#670,.T.);
#668 = VERTEX_POINT('',#669);
#669 = CARTESIAN_POINT('',(31.8,-55.2,12.99));
#670 = LINE('',#671,#672);
#671 = CARTESIAN_POINT('',(31.8,-55.2,12.99));
#672 = VECTOR('',#673,1.);
#673 = DIRECTION('',(0.,0.,1.));
#674 = ORIENTED_EDGE('',*,*,#675,.F.);
#675 = EDGE_CURVE('',#636,#668,#676,.T.);
#676 = LINE('',#677,#678);
#677 = CARTESIAN_POINT('',(31.8,-55.,12.99));
#678 = VECTOR('',#679,1.);
#679 = DIRECTION('',(0.,-1.,0.));
#680 = PLANE('',#681);
#681 = AXIS2_PLACEMENT_3D('',#682,#683,#684);
#682 = CARTESIAN_POINT('',(31.8,-55.,12.99));
#683 = DIRECTION('',(1.,0.,0.));
#684 = DIRECTION('',(0.,-1.,0.));
#685 = ADVANCED_FACE('',(#686),#713,.T.);
#686 = FACE_BOUND('',#687,.F.);
#687 = EDGE_LOOP('',(#688,#689,#698,#706));
#688 = ORIENTED_EDGE('',*,*,#667,.T.);
#689 = ORIENTED_EDGE('',*,*,#690,.T.);
#690 = EDGE_CURVE('',#660,#691,#693,.T.);
#691 = VERTEX_POINT('',#692);
#692 = CARTESIAN_POINT('',(32.8,-56.2,13.39));
#693 = CIRCLE('',#694,1.);
#694 = AXIS2_PLACEMENT_3D('',#695,#696,#697);
#695 = CARTESIAN_POINT('',(32.8,-55.2,13.39));
#696 = DIRECTION('',(0.,0.,1.));
#697 = DIRECTION('',(-1.,1.421E-14,0.));
#698 = ORIENTED_EDGE('',*,*,#699,.F.);
#699 = EDGE_CURVE('',#700,#691,#702,.T.);
#700 = VERTEX_POINT('',#701);
#701 = CARTESIAN_POINT('',(32.8,-56.2,12.99));
#702 = LINE('',#703,#704);
#703 = CARTESIAN_POINT('',(32.8,-56.2,12.99));
#704 = VECTOR('',#705,1.);
#705 = DIRECTION('',(0.,0.,1.));
#706 = ORIENTED_EDGE('',*,*,#707,.F.);
#707 = EDGE_CURVE('',#668,#700,#708,.T.);
#708 = CIRCLE('',#709,1.);
#709 = AXIS2_PLACEMENT_3D('',#710,#711,#712);
#710 = CARTESIAN_POINT('',(32.8,-55.2,12.99));
#711 = DIRECTION('',(0.,0.,1.));
#712 = DIRECTION('',(-1.,1.421E-14,0.));
#713 = CYLINDRICAL_SURFACE('',#714,1.);
#714 = AXIS2_PLACEMENT_3D('',#715,#716,#717);
#715 = CARTESIAN_POINT('',(32.8,-55.2,12.99));
#716 = DIRECTION('',(-0.,-0.,-1.));
#717 = DIRECTION('',(-1.,1.421E-14,0.));
#718 = ADVANCED_FACE('',(#719),#744,.F.);
#719 = FACE_BOUND('',#720,.F.);
#720 = EDGE_LOOP('',(#721,#722,#730,#738));
#721 = ORIENTED_EDGE('',*,*,#699,.T.);
#722 = ORIENTED_EDGE('',*,*,#723,.T.);
#723 = EDGE_CURVE('',#691,#724,#726,.T.);
#724 = VERTEX_POINT('',#725);
#725 = CARTESIAN_POINT('',(41.2,-56.2,13.39));
#726 = LINE('',#727,#728);
#727 = CARTESIAN_POINT('',(32.8,-56.2,13.39));
#728 = VECTOR('',#729,1.);
#729 = DIRECTION('',(1.,0.,0.));
#730 = ORIENTED_EDGE('',*,*,#731,.F.);
#731 = EDGE_CURVE('',#732,#724,#734,.T.);
#732 = VERTEX_POINT('',#733);
#733 = CARTESIAN_POINT('',(41.2,-56.2,12.99));
#734 = LINE('',#735,#736);
#735 = CARTESIAN_POINT('',(41.2,-56.2,12.99));
#736 = VECTOR('',#737,1.);
#737 = DIRECTION('',(0.,0.,1.));
#738 = ORIENTED_EDGE('',*,*,#739,.F.);
#739 = EDGE_CURVE('',#700,#732,#740,.T.);
#740 = LINE('',#741,#742);
#741 = CARTESIAN_POINT('',(32.8,-56.2,12.99));
#742 = VECTOR('',#743,1.);
#743 = DIRECTION('',(1.,0.,0.));
#744 = PLANE('',#745);
#745 = AXIS2_PLACEMENT_3D('',#746,#747,#748);
#746 = CARTESIAN_POINT('',(32.8,-56.2,12.99));
#747 = DIRECTION('',(0.,1.,0.));
#748 = DIRECTION('',(1.,0.,0.));
#749 = ADVANCED_FACE('',(#750),#777,.T.);
#750 = FACE_BOUND('',#751,.F.);
#751 = EDGE_LOOP('',(#752,#753,#762,#770));
#752 = ORIENTED_EDGE('',*,*,#731,.T.);
#753 = ORIENTED_EDGE('',*,*,#754,.T.);
#754 = EDGE_CURVE('',#724,#755,#757,.T.);
#755 = VERTEX_POINT('',#756);
#756 = CARTESIAN_POINT('',(42.2,-55.2,13.39));
#757 = CIRCLE('',#758,1.);
#758 = AXIS2_PLACEMENT_3D('',#759,#760,#761);
#759 = CARTESIAN_POINT('',(41.2,-55.2,13.39));
#760 = DIRECTION('',(0.,0.,1.));
#761 = DIRECTION('',(-7.11E-15,-1.,0.));
#762 = ORIENTED_EDGE('',*,*,#763,.F.);
#763 = EDGE_CURVE('',#764,#755,#766,.T.);
#764 = VERTEX_POINT('',#765);
#765 = CARTESIAN_POINT('',(42.2,-55.2,12.99));
#766 = LINE('',#767,#768);
#767 = CARTESIAN_POINT('',(42.2,-55.2,12.99));
#768 = VECTOR('',#769,1.);
#769 = DIRECTION('',(0.,0.,1.));
#770 = ORIENTED_EDGE('',*,*,#771,.F.);
#771 = EDGE_CURVE('',#732,#764,#772,.T.);
#772 = CIRCLE('',#773,1.);
#773 = AXIS2_PLACEMENT_3D('',#774,#775,#776);
#774 = CARTESIAN_POINT('',(41.2,-55.2,12.99));
#775 = DIRECTION('',(0.,0.,1.));
#776 = DIRECTION('',(-7.11E-15,-1.,0.));
#777 = CYLINDRICAL_SURFACE('',#778,1.);
#778 = AXIS2_PLACEMENT_3D('',#779,#780,#781);
#779 = CARTESIAN_POINT('',(41.2,-55.2,12.99));
#780 = DIRECTION('',(-0.,-0.,-1.));
#781 = DIRECTION('',(-7.11E-15,-1.,0.));
#782 = ADVANCED_FACE('',(#783),#808,.F.);
#783 = FACE_BOUND('',#784,.F.);
#784 = EDGE_LOOP('',(#785,#786,#794,#802));
#785 = ORIENTED_EDGE('',*,*,#763,.T.);
#786 = ORIENTED_EDGE('',*,*,#787,.T.);
#787 = EDGE_CURVE('',#755,#788,#790,.T.);
#788 = VERTEX_POINT('',#789);
#789 = CARTESIAN_POINT('',(42.2,-55.,13.39));
#790 = LINE('',#791,#792);
#791 = CARTESIAN_POINT('',(42.2,-55.2,13.39));
#792 = VECTOR('',#793,1.);
#793 = DIRECTION('',(0.,1.,0.));
#794 = ORIENTED_EDGE('',*,*,#795,.F.);
#795 = EDGE_CURVE('',#796,#788,#798,.T.);
#796 = VERTEX_POINT('',#797);
#797 = CARTESIAN_POINT('',(42.2,-55.,12.99));
#798 = LINE('',#799,#800);
#799 = CARTESIAN_POINT('',(42.2,-55.,12.99));
#800 = VECTOR('',#801,1.);
#801 = DIRECTION('',(0.,0.,1.));
#802 = ORIENTED_EDGE('',*,*,#803,.F.);
#803 = EDGE_CURVE('',#764,#796,#804,.T.);
#804 = LINE('',#805,#806);
#805 = CARTESIAN_POINT('',(42.2,-55.2,12.99));
#806 = VECTOR('',#807,1.);
#807 = DIRECTION('',(0.,1.,0.));
#808 = PLANE('',#809);
#809 = AXIS2_PLACEMENT_3D('',#810,#811,#812);
#810 = CARTESIAN_POINT('',(42.2,-55.2,12.99));
#811 = DIRECTION('',(-1.,0.,0.));
#812 = DIRECTION('',(0.,1.,0.));
#813 = ADVANCED_FACE('',(#814),#832,.T.);
#814 = FACE_BOUND('',#815,.F.);
#815 = EDGE_LOOP('',(#816,#817,#824,#825));
#816 = ORIENTED_EDGE('',*,*,#795,.T.);
#817 = ORIENTED_EDGE('',*,*,#818,.T.);
#818 = EDGE_CURVE('',#788,#588,#819,.T.);
#819 = CIRCLE('',#820,1.);
#820 = AXIS2_PLACEMENT_3D('',#821,#822,#823);
#821 = CARTESIAN_POINT('',(41.2,-55.,13.39));
#822 = DIRECTION('',(-0.,0.,1.));
#823 = DIRECTION('',(1.,-1.421E-14,0.));
#824 = ORIENTED_EDGE('',*,*,#585,.F.);
#825 = ORIENTED_EDGE('',*,*,#826,.F.);
#826 = EDGE_CURVE('',#796,#586,#827,.T.);
#827 = CIRCLE('',#828,1.);
#828 = AXIS2_PLACEMENT_3D('',#829,#830,#831);
#829 = CARTESIAN_POINT('',(41.2,-55.,12.99));
#830 = DIRECTION('',(-0.,0.,1.));
#831 = DIRECTION('',(1.,-1.421E-14,0.));
#832 = CYLINDRICAL_SURFACE('',#833,1.);
#833 = AXIS2_PLACEMENT_3D('',#834,#835,#836);
#834 = CARTESIAN_POINT('',(41.2,-55.,12.99));
#835 = DIRECTION('',(0.,0.,-1.));
#836 = DIRECTION('',(1.,-1.421E-14,0.));
#837 = ADVANCED_FACE('',(#838),#848,.F.);
#838 = FACE_BOUND('',#839,.F.);
#839 = EDGE_LOOP('',(#840,#841,#842,#843,#844,#845,#846,#847));
#840 = ORIENTED_EDGE('',*,*,#611,.T.);
#841 = ORIENTED_EDGE('',*,*,#643,.T.);
#842 = ORIENTED_EDGE('',*,*,#675,.T.);
#843 = ORIENTED_EDGE('',*,*,#707,.T.);
#844 = ORIENTED_EDGE('',*,*,#739,.T.);
#845 = ORIENTED_EDGE('',*,*,#771,.T.);
#846 = ORIENTED_EDGE('',*,*,#803,.T.);
#847 = ORIENTED_EDGE('',*,*,#826,.T.);
#848 = PLANE('',#849);
#849 = AXIS2_PLACEMENT_3D('',#850,#851,#852);
#850 = CARTESIAN_POINT('',(37.,-55.1,12.99));
#851 = DIRECTION('',(0.,0.,1.));
#852 = DIRECTION('',(1.,0.,0.));
#853 = ADVANCED_FACE('',(#854),#864,.T.);
#854 = FACE_BOUND('',#855,.T.);
#855 = EDGE_LOOP('',(#856,#857,#858,#859,#860,#861,#862,#863));
#856 = ORIENTED_EDGE('',*,*,#595,.T.);
#857 = ORIENTED_EDGE('',*,*,#626,.T.);
#858 = ORIENTED_EDGE('',*,*,#659,.T.);
#859 = ORIENTED_EDGE('',*,*,#690,.T.);
#860 = ORIENTED_EDGE('',*,*,#723,.T.);
#861 = ORIENTED_EDGE('',*,*,#754,.T.);
#862 = ORIENTED_EDGE('',*,*,#787,.T.);
#863 = ORIENTED_EDGE('',*,*,#818,.T.);
#864 = PLANE('',#865);
#865 = AXIS2_PLACEMENT_3D('',#866,#867,#868);
#866 = CARTESIAN_POINT('',(37.,-55.1,13.39));
#867 = DIRECTION('',(0.,0.,1.));
#868 = DIRECTION('',(1.,0.,0.));
#869 = ( GEOMETRIC_REPRESENTATION_CONTEXT(3) 
GLOBAL_UNCERTAINTY_ASSIGNED_CONTEXT((#873)) GLOBAL_UNIT_ASSIGNED_CONTEXT
((#870,#871,#872)) REPRESENTATION_CONTEXT('Context #1',
  '3D Context with UNIT and UNCERTAINTY') );
#870 = ( LENGTH_UNIT() NAMED_UNIT(*) SI_UNIT(.MILLI.,.METRE.) );
#871 = ( NAMED_UNIT(*) PLANE_ANGLE_UNIT() SI_UNIT($,.RADIAN.) );
#872 = ( NAMED_UNIT(*) SI_UNIT($,.STERADIAN.) SOLID_ANGLE_UNIT() );
#873 = UNCERTAINTY_MEASURE_WITH_UNIT(LENGTH_MEASURE(2.E-05),#870,
  'distance_accuracy_value','confusion accuracy');
#874 = PRODUCT_RELATED_PRODUCT_CATEGORY('part',$,(#7));
ENDSEC;
END-ISO-10303-21;
