ISO-10303-21;
HEADER;
FILE_DESCRIPTION(('FreeCAD Model'),'2;1');
FILE_NAME('Open CASCADE Shape Model','2026-09-28T16:01:00',('FreeCAD'),(
    'FreeCAD'),'Open CASCADE STEP processor 7.8','FreeCAD','Unknown');
FILE_SCHEMA(('AUTOMOTIVE_DESIGN { 1 0 10303 214 1 1 1 1 }'));
ENDSEC;
DATA;
#1 = APPLICATION_PROTOCOL_DEFINITION('international standard',
  'automotive_design',2000,#2);
#2 = APPLICATION_CONTEXT(
  'core data for automotive mechanical design processes');
#3 = SHAPE_DEFINITION_REPRESENTATION(#4,#10);
#4 = PRODUCT_DEFINITION_SHAPE('','',#5);
#5 = PRODUCT_DEFINITION('design','',#6,#9);
#6 = PRODUCT_DEFINITION_FORMATION('','',#7);
#7 = PRODUCT('Open CASCADE STEP translator 7.8 133',
  'Open CASCADE STEP translator 7.8 133','',(#8));
#8 = PRODUCT_CONTEXT('',#2,'mechanical');
#9 = PRODUCT_DEFINITION_CONTEXT('part definition',#2,'design');
#10 = SHAPE_REPRESENTATION('',(#11,#15,#437),#1172);
#11 = AXIS2_PLACEMENT_3D('',#12,#13,#14);
#12 = CARTESIAN_POINT('',(0.,0.,0.));
#13 = DIRECTION('',(0.,0.,1.));
#14 = DIRECTION('',(1.,0.,-0.));
#15 = MANIFOLD_SOLID_BREP('',#16);
#16 = CLOSED_SHELL('',(#17,#57,#90,#123,#206,#289,#306,#323,#340,#357,
    #374,#391,#408,#425));
#17 = ADVANCED_FACE('',(#18),#52,.F.);
#18 = FACE_BOUND('',#19,.F.);
#19 = EDGE_LOOP('',(#20,#30,#38,#46));
#20 = ORIENTED_EDGE('',*,*,#21,.T.);
#21 = EDGE_CURVE('',#22,#24,#26,.T.);
#22 = VERTEX_POINT('',#23);
#23 = CARTESIAN_POINT('',(46.8,-12.4,12.99));
#24 = VERTEX_POINT('',#25);
#25 = CARTESIAN_POINT('',(46.8,-12.4,13.39));
#26 = LINE('',#27,#28);
#27 = CARTESIAN_POINT('',(46.8,-12.4,12.99));
#28 = VECTOR('',#29,1.);
#29 = DIRECTION('',(0.,0.,1.));
#30 = ORIENTED_EDGE('',*,*,#31,.T.);
#31 = EDGE_CURVE('',#24,#32,#34,.T.);
#32 = VERTEX_POINT('',#33);
#33 = CARTESIAN_POINT('',(27.2,-12.4,13.39));
#34 = LINE('',#35,#36);
#35 = CARTESIAN_POINT('',(46.8,-12.4,13.39));
#36 = VECTOR('',#37,1.);
#37 = DIRECTION('',(-1.,0.,0.));
#38 = ORIENTED_EDGE('',*,*,#39,.F.);
#39 = EDGE_CURVE('',#40,#32,#42,.T.);
#40 = VERTEX_POINT('',#41);
#41 = CARTESIAN_POINT('',(27.2,-12.4,12.99));
#42 = LINE('',#43,#44);
#43 = CARTESIAN_POINT('',(27.2,-12.4,12.99));
#44 = VECTOR('',#45,1.);
#45 = DIRECTION('',(0.,0.,1.));
#46 = ORIENTED_EDGE('',*,*,#47,.F.);
#47 = EDGE_CURVE('',#22,#40,#48,.T.);
#48 = LINE('',#49,#50);
#49 = CARTESIAN_POINT('',(46.8,-12.4,12.99));
#50 = VECTOR('',#51,1.);
#51 = DIRECTION('',(-1.,0.,0.));
#52 = PLANE('',#53);
#53 = AXIS2_PLACEMENT_3D('',#54,#55,#56);
#54 = CARTESIAN_POINT('',(46.8,-12.4,12.99));
#55 = DIRECTION('',(0.,-1.,0.));
#56 = DIRECTION('',(-1.,0.,0.));
#57 = ADVANCED_FACE('',(#58),#85,.T.);
#58 = FACE_BOUND('',#59,.F.);
#59 = EDGE_LOOP('',(#60,#70,#77,#78));
#60 = ORIENTED_EDGE('',*,*,#61,.T.);
#61 = EDGE_CURVE('',#62,#64,#66,.T.);
#62 = VERTEX_POINT('',#63);
#63 = CARTESIAN_POINT('',(47.6,-13.2,12.99));
#64 = VERTEX_POINT('',#65);
#65 = CARTESIAN_POINT('',(47.6,-13.2,13.39));
#66 = LINE('',#67,#68);
#67 = CARTESIAN_POINT('',(47.6,-13.2,12.99));
#68 = VECTOR('',#69,1.);
#69 = DIRECTION('',(0.,0.,1.));
#70 = ORIENTED_EDGE('',*,*,#71,.T.);
#71 = EDGE_CURVE('',#64,#24,#72,.T.);
#72 = CIRCLE('',#73,0.8);
#73 = AXIS2_PLACEMENT_3D('',#74,#75,#76);
#74 = CARTESIAN_POINT('',(46.8,-13.2,13.39));
#75 = DIRECTION('',(-0.,0.,1.));
#76 = DIRECTION('',(1.,-6.66E-15,0.));
#77 = ORIENTED_EDGE('',*,*,#21,.F.);
#78 = ORIENTED_EDGE('',*,*,#79,.F.);
#79 = EDGE_CURVE('',#62,#22,#80,.T.);
#80 = CIRCLE('',#81,0.8);
#81 = AXIS2_PLACEMENT_3D('',#82,#83,#84);
#82 = CARTESIAN_POINT('',(46.8,-13.2,12.99));
#83 = DIRECTION('',(-0.,0.,1.));
#84 = DIRECTION('',(1.,-6.66E-15,0.));
#85 = CYLINDRICAL_SURFACE('',#86,0.8);
#86 = AXIS2_PLACEMENT_3D('',#87,#88,#89);
#87 = CARTESIAN_POINT('',(46.8,-13.2,12.99));
#88 = DIRECTION('',(0.,0.,-1.));
#89 = DIRECTION('',(1.,-6.66E-15,0.));
#90 = ADVANCED_FACE('',(#91),#118,.T.);
#91 = FACE_BOUND('',#92,.F.);
#92 = EDGE_LOOP('',(#93,#94,#103,#111));
#93 = ORIENTED_EDGE('',*,*,#39,.T.);
#94 = ORIENTED_EDGE('',*,*,#95,.T.);
#95 = EDGE_CURVE('',#32,#96,#98,.T.);
#96 = VERTEX_POINT('',#97);
#97 = CARTESIAN_POINT('',(26.4,-13.2,13.39));
#98 = CIRCLE('',#99,0.8);
#99 = AXIS2_PLACEMENT_3D('',#100,#101,#102);
#100 = CARTESIAN_POINT('',(27.2,-13.2,13.39));
#101 = DIRECTION('',(0.,0.,1.));
#102 = DIRECTION('',(-1.332E-14,1.,0.));
#103 = ORIENTED_EDGE('',*,*,#104,.F.);
#104 = EDGE_CURVE('',#105,#96,#107,.T.);
#105 = VERTEX_POINT('',#106);
#106 = CARTESIAN_POINT('',(26.4,-13.2,12.99));
#107 = LINE('',#108,#109);
#108 = CARTESIAN_POINT('',(26.4,-13.2,12.99));
#109 = VECTOR('',#110,1.);
#110 = DIRECTION('',(0.,0.,1.));
#111 = ORIENTED_EDGE('',*,*,#112,.F.);
#112 = EDGE_CURVE('',#40,#105,#113,.T.);
#113 = CIRCLE('',#114,0.8);
#114 = AXIS2_PLACEMENT_3D('',#115,#116,#117);
#115 = CARTESIAN_POINT('',(27.2,-13.2,12.99));
#116 = DIRECTION('',(0.,0.,1.));
#117 = DIRECTION('',(-1.332E-14,1.,0.));
#118 = CYLINDRICAL_SURFACE('',#119,0.8);
#119 = AXIS2_PLACEMENT_3D('',#120,#121,#122);
#120 = CARTESIAN_POINT('',(27.2,-13.2,12.99));
#121 = DIRECTION('',(-0.,-0.,-1.));
#122 = DIRECTION('',(-1.332E-14,1.,0.));
#123 = ADVANCED_FACE('',(#124),#201,.F.);
#124 = FACE_BOUND('',#125,.F.);
#125 = EDGE_LOOP('',(#126,#127,#128,#129,#137,#146,#154,#162,#170,#178,
    #186,#195));
#126 = ORIENTED_EDGE('',*,*,#79,.T.);
#127 = ORIENTED_EDGE('',*,*,#47,.T.);
#128 = ORIENTED_EDGE('',*,*,#112,.T.);
#129 = ORIENTED_EDGE('',*,*,#130,.T.);
#130 = EDGE_CURVE('',#105,#131,#133,.T.);
#131 = VERTEX_POINT('',#132);
#132 = CARTESIAN_POINT('',(26.4,-14.5,12.99));
#133 = LINE('',#134,#135);
#134 = CARTESIAN_POINT('',(26.4,-13.2,12.99));
#135 = VECTOR('',#136,1.);
#136 = DIRECTION('',(0.,-1.,0.));
#137 = ORIENTED_EDGE('',*,*,#138,.T.);
#138 = EDGE_CURVE('',#131,#139,#141,.T.);
#139 = VERTEX_POINT('',#140);
#140 = CARTESIAN_POINT('',(27.2,-15.3,12.99));
#141 = CIRCLE('',#142,0.8);
#142 = AXIS2_PLACEMENT_3D('',#143,#144,#145);
#143 = CARTESIAN_POINT('',(27.2,-14.5,12.99));
#144 = DIRECTION('',(0.,0.,1.));
#145 = DIRECTION('',(-1.,-2.665E-14,0.));
#146 = ORIENTED_EDGE('',*,*,#147,.T.);
#147 = EDGE_CURVE('',#139,#148,#150,.T.);
#148 = VERTEX_POINT('',#149);
#149 = CARTESIAN_POINT('',(29.25,-15.3,12.99));
#150 = LINE('',#151,#152);
#151 = CARTESIAN_POINT('',(27.2,-15.3,12.99));
#152 = VECTOR('',#153,1.);
#153 = DIRECTION('',(1.,0.,0.));
#154 = ORIENTED_EDGE('',*,*,#155,.T.);
#155 = EDGE_CURVE('',#148,#156,#158,.T.);
#156 = VERTEX_POINT('',#157);
#157 = CARTESIAN_POINT('',(29.25,-15.1,12.99));
#158 = LINE('',#159,#160);
#159 = CARTESIAN_POINT('',(29.25,-46.04641870115,12.99));
#160 = VECTOR('',#161,1.);
#161 = DIRECTION('',(0.,1.,0.));
#162 = ORIENTED_EDGE('',*,*,#163,.F.);
#163 = EDGE_CURVE('',#164,#156,#166,.T.);
#164 = VERTEX_POINT('',#165);
#165 = CARTESIAN_POINT('',(45.15,-15.1,12.99));
#166 = LINE('',#167,#168);
#167 = CARTESIAN_POINT('',(33.143912304081,-15.1,12.99));
#168 = VECTOR('',#169,1.);
#169 = DIRECTION('',(-1.,0.,0.));
#170 = ORIENTED_EDGE('',*,*,#171,.F.);
#171 = EDGE_CURVE('',#172,#164,#174,.T.);
#172 = VERTEX_POINT('',#173);
#173 = CARTESIAN_POINT('',(45.15,-15.3,12.99));
#174 = LINE('',#175,#176);
#175 = CARTESIAN_POINT('',(45.15,-46.04641870115,12.99));
#176 = VECTOR('',#177,1.);
#177 = DIRECTION('',(0.,1.,0.));
#178 = ORIENTED_EDGE('',*,*,#179,.T.);
#179 = EDGE_CURVE('',#172,#180,#182,.T.);
#180 = VERTEX_POINT('',#181);
#181 = CARTESIAN_POINT('',(46.8,-15.3,12.99));
#182 = LINE('',#183,#184);
#183 = CARTESIAN_POINT('',(27.2,-15.3,12.99));
#184 = VECTOR('',#185,1.);
#185 = DIRECTION('',(1.,0.,0.));
#186 = ORIENTED_EDGE('',*,*,#187,.T.);
#187 = EDGE_CURVE('',#180,#188,#190,.T.);
#188 = VERTEX_POINT('',#189);
#189 = CARTESIAN_POINT('',(47.6,-14.5,12.99));
#190 = CIRCLE('',#191,0.8);
#191 = AXIS2_PLACEMENT_3D('',#192,#193,#194);
#192 = CARTESIAN_POINT('',(46.8,-14.5,12.99));
#193 = DIRECTION('',(-0.,0.,1.));
#194 = DIRECTION('',(0.,-1.,0.));
#195 = ORIENTED_EDGE('',*,*,#196,.T.);
#196 = EDGE_CURVE('',#188,#62,#197,.T.);
#197 = LINE('',#198,#199);
#198 = CARTESIAN_POINT('',(47.6,-14.5,12.99));
#199 = VECTOR('',#200,1.);
#200 = DIRECTION('',(0.,1.,0.));
#201 = PLANE('',#202);
#202 = AXIS2_PLACEMENT_3D('',#203,#204,#205);
#203 = CARTESIAN_POINT('',(37.,-13.85,12.99));
#204 = DIRECTION('',(0.,0.,1.));
#205 = DIRECTION('',(1.,0.,0.));
#206 = ADVANCED_FACE('',(#207),#284,.T.);
#207 = FACE_BOUND('',#208,.T.);
#208 = EDGE_LOOP('',(#209,#210,#211,#212,#220,#229,#237,#245,#253,#261,
    #269,#278));
#209 = ORIENTED_EDGE('',*,*,#71,.T.);
#210 = ORIENTED_EDGE('',*,*,#31,.T.);
#211 = ORIENTED_EDGE('',*,*,#95,.T.);
#212 = ORIENTED_EDGE('',*,*,#213,.T.);
#213 = EDGE_CURVE('',#96,#214,#216,.T.);
#214 = VERTEX_POINT('',#215);
#215 = CARTESIAN_POINT('',(26.4,-14.5,13.39));
#216 = LINE('',#217,#218);
#217 = CARTESIAN_POINT('',(26.4,-13.2,13.39));
#218 = VECTOR('',#219,1.);
#219 = DIRECTION('',(0.,-1.,0.));
#220 = ORIENTED_EDGE('',*,*,#221,.T.);
#221 = EDGE_CURVE('',#214,#222,#224,.T.);
#222 = VERTEX_POINT('',#223);
#223 = CARTESIAN_POINT('',(27.2,-15.3,13.39));
#224 = CIRCLE('',#225,0.8);
#225 = AXIS2_PLACEMENT_3D('',#226,#227,#228);
#226 = CARTESIAN_POINT('',(27.2,-14.5,13.39));
#227 = DIRECTION('',(0.,0.,1.));
#228 = DIRECTION('',(-1.,-2.665E-14,0.));
#229 = ORIENTED_EDGE('',*,*,#230,.T.);
#230 = EDGE_CURVE('',#222,#231,#233,.T.);
#231 = VERTEX_POINT('',#232);
#232 = CARTESIAN_POINT('',(29.25,-15.3,13.39));
#233 = LINE('',#234,#235);
#234 = CARTESIAN_POINT('',(27.2,-15.3,13.39));
#235 = VECTOR('',#236,1.);
#236 = DIRECTION('',(1.,0.,0.));
#237 = ORIENTED_EDGE('',*,*,#238,.T.);
#238 = EDGE_CURVE('',#231,#239,#241,.T.);
#239 = VERTEX_POINT('',#240);
#240 = CARTESIAN_POINT('',(29.25,-15.1,13.39));
#241 = LINE('',#242,#243);
#242 = CARTESIAN_POINT('',(29.25,-46.04893884022,13.39));
#243 = VECTOR('',#244,1.);
#244 = DIRECTION('',(0.,1.,0.));
#245 = ORIENTED_EDGE('',*,*,#246,.F.);
#246 = EDGE_CURVE('',#247,#239,#249,.T.);
#247 = VERTEX_POINT('',#248);
#248 = CARTESIAN_POINT('',(45.15,-15.1,13.39));
#249 = LINE('',#250,#251);
#250 = CARTESIAN_POINT('',(33.146656284918,-15.1,13.39));
#251 = VECTOR('',#252,1.);
#252 = DIRECTION('',(-1.,0.,0.));
#253 = ORIENTED_EDGE('',*,*,#254,.F.);
#254 = EDGE_CURVE('',#255,#247,#257,.T.);
#255 = VERTEX_POINT('',#256);
#256 = CARTESIAN_POINT('',(45.15,-15.3,13.39));
#257 = LINE('',#258,#259);
#258 = CARTESIAN_POINT('',(45.15,-46.04893884022,13.39));
#259 = VECTOR('',#260,1.);
#260 = DIRECTION('',(0.,1.,0.));
#261 = ORIENTED_EDGE('',*,*,#262,.T.);
#262 = EDGE_CURVE('',#255,#263,#265,.T.);
#263 = VERTEX_POINT('',#264);
#264 = CARTESIAN_POINT('',(46.8,-15.3,13.39));
#265 = LINE('',#266,#267);
#266 = CARTESIAN_POINT('',(27.2,-15.3,13.39));
#267 = VECTOR('',#268,1.);
#268 = DIRECTION('',(1.,0.,0.));
#269 = ORIENTED_EDGE('',*,*,#270,.T.);
#270 = EDGE_CURVE('',#263,#271,#273,.T.);
#271 = VERTEX_POINT('',#272);
#272 = CARTESIAN_POINT('',(47.6,-14.5,13.39));
#273 = CIRCLE('',#274,0.8);
#274 = AXIS2_PLACEMENT_3D('',#275,#276,#277);
#275 = CARTESIAN_POINT('',(46.8,-14.5,13.39));
#276 = DIRECTION('',(-0.,0.,1.));
#277 = DIRECTION('',(0.,-1.,0.));
#278 = ORIENTED_EDGE('',*,*,#279,.T.);
#279 = EDGE_CURVE('',#271,#64,#280,.T.);
#280 = LINE('',#281,#282);
#281 = CARTESIAN_POINT('',(47.6,-14.5,13.39));
#282 = VECTOR('',#283,1.);
#283 = DIRECTION('',(0.,1.,0.));
#284 = PLANE('',#285);
#285 = AXIS2_PLACEMENT_3D('',#286,#287,#288);
#286 = CARTESIAN_POINT('',(37.,-13.85,13.39));
#287 = DIRECTION('',(0.,0.,1.));
#288 = DIRECTION('',(1.,0.,0.));
#289 = ADVANCED_FACE('',(#290),#301,.F.);
#290 = FACE_BOUND('',#291,.F.);
#291 = EDGE_LOOP('',(#292,#298,#299,#300));
#292 = ORIENTED_EDGE('',*,*,#293,.T.);
#293 = EDGE_CURVE('',#188,#271,#294,.T.);
#294 = LINE('',#295,#296);
#295 = CARTESIAN_POINT('',(47.6,-14.5,12.99));
#296 = VECTOR('',#297,1.);
#297 = DIRECTION('',(0.,0.,1.));
#298 = ORIENTED_EDGE('',*,*,#279,.T.);
#299 = ORIENTED_EDGE('',*,*,#61,.F.);
#300 = ORIENTED_EDGE('',*,*,#196,.F.);
#301 = PLANE('',#302);
#302 = AXIS2_PLACEMENT_3D('',#303,#304,#305);
#303 = CARTESIAN_POINT('',(47.6,-14.5,12.99));
#304 = DIRECTION('',(-1.,0.,0.));
#305 = DIRECTION('',(0.,1.,0.));
#306 = ADVANCED_FACE('',(#307),#318,.F.);
#307 = FACE_BOUND('',#308,.F.);
#308 = EDGE_LOOP('',(#309,#310,#311,#317));
#309 = ORIENTED_EDGE('',*,*,#104,.T.);
#310 = ORIENTED_EDGE('',*,*,#213,.T.);
#311 = ORIENTED_EDGE('',*,*,#312,.F.);
#312 = EDGE_CURVE('',#131,#214,#313,.T.);
#313 = LINE('',#314,#315);
#314 = CARTESIAN_POINT('',(26.4,-14.5,12.99));
#315 = VECTOR('',#316,1.);
#316 = DIRECTION('',(0.,0.,1.));
#317 = ORIENTED_EDGE('',*,*,#130,.F.);
#318 = PLANE('',#319);
#319 = AXIS2_PLACEMENT_3D('',#320,#321,#322);
#320 = CARTESIAN_POINT('',(26.4,-13.2,12.99));
#321 = DIRECTION('',(1.,0.,0.));
#322 = DIRECTION('',(0.,-1.,0.));
#323 = ADVANCED_FACE('',(#324),#335,.T.);
#324 = FACE_BOUND('',#325,.F.);
#325 = EDGE_LOOP('',(#326,#332,#333,#334));
#326 = ORIENTED_EDGE('',*,*,#327,.T.);
#327 = EDGE_CURVE('',#180,#263,#328,.T.);
#328 = LINE('',#329,#330);
#329 = CARTESIAN_POINT('',(46.8,-15.3,12.99));
#330 = VECTOR('',#331,1.);
#331 = DIRECTION('',(0.,0.,1.));
#332 = ORIENTED_EDGE('',*,*,#270,.T.);
#333 = ORIENTED_EDGE('',*,*,#293,.F.);
#334 = ORIENTED_EDGE('',*,*,#187,.F.);
#335 = CYLINDRICAL_SURFACE('',#336,0.8);
#336 = AXIS2_PLACEMENT_3D('',#337,#338,#339);
#337 = CARTESIAN_POINT('',(46.8,-14.5,12.99));
#338 = DIRECTION('',(0.,0.,-1.));
#339 = DIRECTION('',(0.,-1.,0.));
#340 = ADVANCED_FACE('',(#341),#352,.F.);
#341 = FACE_BOUND('',#342,.F.);
#342 = EDGE_LOOP('',(#343,#344,#350,#351));
#343 = ORIENTED_EDGE('',*,*,#179,.F.);
#344 = ORIENTED_EDGE('',*,*,#345,.F.);
#345 = EDGE_CURVE('',#255,#172,#346,.T.);
#346 = LINE('',#347,#348);
#347 = CARTESIAN_POINT('',(45.15,-15.3,12.345));
#348 = VECTOR('',#349,1.);
#349 = DIRECTION('',(0.,0.,-1.));
#350 = ORIENTED_EDGE('',*,*,#262,.T.);
#351 = ORIENTED_EDGE('',*,*,#327,.F.);
#352 = PLANE('',#353);
#353 = AXIS2_PLACEMENT_3D('',#354,#355,#356);
#354 = CARTESIAN_POINT('',(27.2,-15.3,12.99));
#355 = DIRECTION('',(0.,1.,0.));
#356 = DIRECTION('',(1.,0.,0.));
#357 = ADVANCED_FACE('',(#358),#369,.F.);
#358 = FACE_BOUND('',#359,.F.);
#359 = EDGE_LOOP('',(#360,#361,#362,#368));
#360 = ORIENTED_EDGE('',*,*,#345,.T.);
#361 = ORIENTED_EDGE('',*,*,#171,.T.);
#362 = ORIENTED_EDGE('',*,*,#363,.T.);
#363 = EDGE_CURVE('',#164,#247,#364,.T.);
#364 = LINE('',#365,#366);
#365 = CARTESIAN_POINT('',(45.15,-15.1,11.7));
#366 = VECTOR('',#367,1.);
#367 = DIRECTION('',(0.,0.,1.));
#368 = ORIENTED_EDGE('',*,*,#254,.F.);
#369 = PLANE('',#370);
#370 = AXIS2_PLACEMENT_3D('',#371,#372,#373);
#371 = CARTESIAN_POINT('',(45.15,-53.,11.7));
#372 = DIRECTION('',(1.,0.,0.));
#373 = DIRECTION('',(0.,0.,1.));
#374 = ADVANCED_FACE('',(#375),#386,.F.);
#375 = FACE_BOUND('',#376,.F.);
#376 = EDGE_LOOP('',(#377,#378,#379,#385));
#377 = ORIENTED_EDGE('',*,*,#363,.F.);
#378 = ORIENTED_EDGE('',*,*,#163,.T.);
#379 = ORIENTED_EDGE('',*,*,#380,.T.);
#380 = EDGE_CURVE('',#156,#239,#381,.T.);
#381 = LINE('',#382,#383);
#382 = CARTESIAN_POINT('',(29.25,-15.1,11.7));
#383 = VECTOR('',#384,1.);
#384 = DIRECTION('',(0.,0.,1.));
#385 = ORIENTED_EDGE('',*,*,#246,.F.);
#386 = PLANE('',#387);
#387 = AXIS2_PLACEMENT_3D('',#388,#389,#390);
#388 = CARTESIAN_POINT('',(29.25,-15.1,11.7));
#389 = DIRECTION('',(0.,1.,0.));
#390 = DIRECTION('',(0.,0.,1.));
#391 = ADVANCED_FACE('',(#392),#403,.T.);
#392 = FACE_BOUND('',#393,.T.);
#393 = EDGE_LOOP('',(#394,#400,#401,#402));
#394 = ORIENTED_EDGE('',*,*,#395,.T.);
#395 = EDGE_CURVE('',#231,#148,#396,.T.);
#396 = LINE('',#397,#398);
#397 = CARTESIAN_POINT('',(29.25,-15.3,12.345));
#398 = VECTOR('',#399,1.);
#399 = DIRECTION('',(0.,0.,-1.));
#400 = ORIENTED_EDGE('',*,*,#155,.T.);
#401 = ORIENTED_EDGE('',*,*,#380,.T.);
#402 = ORIENTED_EDGE('',*,*,#238,.F.);
#403 = PLANE('',#404);
#404 = AXIS2_PLACEMENT_3D('',#405,#406,#407);
#405 = CARTESIAN_POINT('',(29.25,-53.,11.7));
#406 = DIRECTION('',(1.,0.,0.));
#407 = DIRECTION('',(0.,0.,1.));
#408 = ADVANCED_FACE('',(#409),#420,.F.);
#409 = FACE_BOUND('',#410,.F.);
#410 = EDGE_LOOP('',(#411,#412,#418,#419));
#411 = ORIENTED_EDGE('',*,*,#147,.F.);
#412 = ORIENTED_EDGE('',*,*,#413,.T.);
#413 = EDGE_CURVE('',#139,#222,#414,.T.);
#414 = LINE('',#415,#416);
#415 = CARTESIAN_POINT('',(27.2,-15.3,12.99));
#416 = VECTOR('',#417,1.);
#417 = DIRECTION('',(0.,0.,1.));
#418 = ORIENTED_EDGE('',*,*,#230,.T.);
#419 = ORIENTED_EDGE('',*,*,#395,.T.);
#420 = PLANE('',#421);
#421 = AXIS2_PLACEMENT_3D('',#422,#423,#424);
#422 = CARTESIAN_POINT('',(27.2,-15.3,12.99));
#423 = DIRECTION('',(0.,1.,0.));
#424 = DIRECTION('',(1.,0.,0.));
#425 = ADVANCED_FACE('',(#426),#432,.T.);
#426 = FACE_BOUND('',#427,.F.);
#427 = EDGE_LOOP('',(#428,#429,#430,#431));
#428 = ORIENTED_EDGE('',*,*,#312,.T.);
#429 = ORIENTED_EDGE('',*,*,#221,.T.);
#430 = ORIENTED_EDGE('',*,*,#413,.F.);
#431 = ORIENTED_EDGE('',*,*,#138,.F.);
#432 = CYLINDRICAL_SURFACE('',#433,0.8);
#433 = AXIS2_PLACEMENT_3D('',#434,#435,#436);
#434 = CARTESIAN_POINT('',(27.2,-14.5,12.99));
#435 = DIRECTION('',(-0.,-0.,-1.));
#436 = DIRECTION('',(-1.,-2.665E-14,0.));
#437 = MANIFOLD_SOLID_BREP('',#438);
#438 = CLOSED_SHELL('',(#439,#479,#658,#683,#854,#871,#888,#905,#922,
    #939,#956,#973,#985,#1007,#1024,#1041,#1058,#1075,#1092,#1109,#1121,
    #1143,#1160));
#439 = ADVANCED_FACE('',(#440),#474,.F.);
#440 = FACE_BOUND('',#441,.F.);
#441 = EDGE_LOOP('',(#442,#452,#460,#468));
#442 = ORIENTED_EDGE('',*,*,#443,.F.);
#443 = EDGE_CURVE('',#444,#446,#448,.T.);
#444 = VERTEX_POINT('',#445);
#445 = CARTESIAN_POINT('',(29.25,-52.8,12.99));
#446 = VERTEX_POINT('',#447);
#447 = CARTESIAN_POINT('',(28.5,-52.8,12.99));
#448 = LINE('',#449,#450);
#449 = CARTESIAN_POINT('',(32.,-52.8,12.99));
#450 = VECTOR('',#451,1.);
#451 = DIRECTION('',(-1.,0.,0.));
#452 = ORIENTED_EDGE('',*,*,#453,.T.);
#453 = EDGE_CURVE('',#444,#454,#456,.T.);
#454 = VERTEX_POINT('',#455);
#455 = CARTESIAN_POINT('',(29.25,-52.8,13.39));
#456 = LINE('',#457,#458);
#457 = CARTESIAN_POINT('',(29.25,-52.8,12.345));
#458 = VECTOR('',#459,1.);
#459 = DIRECTION('',(0.,0.,1.));
#460 = ORIENTED_EDGE('',*,*,#461,.T.);
#461 = EDGE_CURVE('',#454,#462,#464,.T.);
#462 = VERTEX_POINT('',#463);
#463 = CARTESIAN_POINT('',(28.5,-52.8,13.39));
#464 = LINE('',#465,#466);
#465 = CARTESIAN_POINT('',(32.,-52.8,13.39));
#466 = VECTOR('',#467,1.);
#467 = DIRECTION('',(-1.,0.,0.));
#468 = ORIENTED_EDGE('',*,*,#469,.F.);
#469 = EDGE_CURVE('',#446,#462,#470,.T.);
#470 = LINE('',#471,#472);
#471 = CARTESIAN_POINT('',(28.5,-52.8,12.99));
#472 = VECTOR('',#473,1.);
#473 = DIRECTION('',(0.,0.,1.));
#474 = PLANE('',#475);
#475 = AXIS2_PLACEMENT_3D('',#476,#477,#478);
#476 = CARTESIAN_POINT('',(32.,-52.8,12.99));
#477 = DIRECTION('',(0.,-1.,0.));
#478 = DIRECTION('',(-1.,0.,0.));
#479 = ADVANCED_FACE('',(#480,#557,#627),#653,.F.);
#480 = FACE_BOUND('',#481,.F.);
#481 = EDGE_LOOP('',(#482,#490,#491,#500,#508,#517,#525,#534,#542,#551)
  );
#482 = ORIENTED_EDGE('',*,*,#483,.T.);
#483 = EDGE_CURVE('',#484,#444,#486,.T.);
#484 = VERTEX_POINT('',#485);
#485 = CARTESIAN_POINT('',(29.25,-53.,12.99));
#486 = LINE('',#487,#488);
#487 = CARTESIAN_POINT('',(29.25,-46.04641870115,12.99));
#488 = VECTOR('',#489,1.);
#489 = DIRECTION('',(0.,1.,0.));
#490 = ORIENTED_EDGE('',*,*,#443,.T.);
#491 = ORIENTED_EDGE('',*,*,#492,.T.);
#492 = EDGE_CURVE('',#446,#493,#495,.T.);
#493 = VERTEX_POINT('',#494);
#494 = CARTESIAN_POINT('',(27.5,-53.8,12.99));
#495 = CIRCLE('',#496,1.);
#496 = AXIS2_PLACEMENT_3D('',#497,#498,#499);
#497 = CARTESIAN_POINT('',(28.5,-53.8,12.99));
#498 = DIRECTION('',(0.,-0.,1.));
#499 = DIRECTION('',(7.11E-15,1.,0.));
#500 = ORIENTED_EDGE('',*,*,#501,.T.);
#501 = EDGE_CURVE('',#493,#502,#504,.T.);
#502 = VERTEX_POINT('',#503);
#503 = CARTESIAN_POINT('',(27.5,-63.,12.99));
#504 = LINE('',#505,#506);
#505 = CARTESIAN_POINT('',(27.5,-53.8,12.99));
#506 = VECTOR('',#507,1.);
#507 = DIRECTION('',(0.,-1.,0.));
#508 = ORIENTED_EDGE('',*,*,#509,.T.);
#509 = EDGE_CURVE('',#502,#510,#512,.T.);
#510 = VERTEX_POINT('',#511);
#511 = CARTESIAN_POINT('',(28.5,-64.,12.99));
#512 = CIRCLE('',#513,1.);
#513 = AXIS2_PLACEMENT_3D('',#514,#515,#516);
#514 = CARTESIAN_POINT('',(28.5,-63.,12.99));
#515 = DIRECTION('',(0.,0.,1.));
#516 = DIRECTION('',(-1.,1.421E-14,0.));
#517 = ORIENTED_EDGE('',*,*,#518,.T.);
#518 = EDGE_CURVE('',#510,#519,#521,.T.);
#519 = VERTEX_POINT('',#520);
#520 = CARTESIAN_POINT('',(32.,-64.,12.99));
#521 = LINE('',#522,#523);
#522 = CARTESIAN_POINT('',(28.5,-64.,12.99));
#523 = VECTOR('',#524,1.);
#524 = DIRECTION('',(1.,0.,0.));
#525 = ORIENTED_EDGE('',*,*,#526,.T.);
#526 = EDGE_CURVE('',#519,#527,#529,.T.);
#527 = VERTEX_POINT('',#528);
#528 = CARTESIAN_POINT('',(33.,-63.,12.99));
#529 = CIRCLE('',#530,1.);
#530 = AXIS2_PLACEMENT_3D('',#531,#532,#533);
#531 = CARTESIAN_POINT('',(32.,-63.,12.99));
#532 = DIRECTION('',(0.,0.,1.));
#533 = DIRECTION('',(-7.11E-15,-1.,0.));
#534 = ORIENTED_EDGE('',*,*,#535,.T.);
#535 = EDGE_CURVE('',#527,#536,#538,.T.);
#536 = VERTEX_POINT('',#537);
#537 = CARTESIAN_POINT('',(33.,-53.8,12.99));
#538 = LINE('',#539,#540);
#539 = CARTESIAN_POINT('',(33.,-63.,12.99));
#540 = VECTOR('',#541,1.);
#541 = DIRECTION('',(0.,1.,0.));
#542 = ORIENTED_EDGE('',*,*,#543,.T.);
#543 = EDGE_CURVE('',#536,#544,#546,.T.);
#544 = VERTEX_POINT('',#545);
#545 = CARTESIAN_POINT('',(32.6,-53.,12.99));
#546 = CIRCLE('',#547,1.);
#547 = AXIS2_PLACEMENT_3D('',#548,#549,#550);
#548 = CARTESIAN_POINT('',(32.,-53.8,12.99));
#549 = DIRECTION('',(-0.,0.,1.));
#550 = DIRECTION('',(1.,-1.421E-14,0.));
#551 = ORIENTED_EDGE('',*,*,#552,.T.);
#552 = EDGE_CURVE('',#544,#484,#553,.T.);
#553 = LINE('',#554,#555);
#554 = CARTESIAN_POINT('',(33.143912304081,-53.,12.99));
#555 = VECTOR('',#556,1.);
#556 = DIRECTION('',(-1.,0.,0.));
#557 = FACE_BOUND('',#558,.F.);
#558 = EDGE_LOOP('',(#559,#569,#578,#586,#595,#603,#612,#620));
#559 = ORIENTED_EDGE('',*,*,#560,.F.);
#560 = EDGE_CURVE('',#561,#563,#565,.T.);
#561 = VERTEX_POINT('',#562);
#562 = CARTESIAN_POINT('',(31.1,-59.8,12.99));
#563 = VERTEX_POINT('',#564);
#564 = CARTESIAN_POINT('',(29.4,-59.8,12.99));
#565 = LINE('',#566,#567);
#566 = CARTESIAN_POINT('',(31.1,-59.8,12.99));
#567 = VECTOR('',#568,1.);
#568 = DIRECTION('',(-1.,0.,0.));
#569 = ORIENTED_EDGE('',*,*,#570,.F.);
#570 = EDGE_CURVE('',#571,#561,#573,.T.);
#571 = VERTEX_POINT('',#572);
#572 = CARTESIAN_POINT('',(31.5,-60.2,12.99));
#573 = CIRCLE('',#574,0.4);
#574 = AXIS2_PLACEMENT_3D('',#575,#576,#577);
#575 = CARTESIAN_POINT('',(31.1,-60.2,12.99));
#576 = DIRECTION('',(-0.,0.,1.));
#577 = DIRECTION('',(1.,-3.553E-14,0.));
#578 = ORIENTED_EDGE('',*,*,#579,.F.);
#579 = EDGE_CURVE('',#580,#571,#582,.T.);
#580 = VERTEX_POINT('',#581);
#581 = CARTESIAN_POINT('',(31.5,-61.9,12.99));
#582 = LINE('',#583,#584);
#583 = CARTESIAN_POINT('',(31.5,-61.9,12.99));
#584 = VECTOR('',#585,1.);
#585 = DIRECTION('',(0.,1.,0.));
#586 = ORIENTED_EDGE('',*,*,#587,.F.);
#587 = EDGE_CURVE('',#588,#580,#590,.T.);
#588 = VERTEX_POINT('',#589);
#589 = CARTESIAN_POINT('',(31.1,-62.3,12.99));
#590 = CIRCLE('',#591,0.4);
#591 = AXIS2_PLACEMENT_3D('',#592,#593,#594);
#592 = CARTESIAN_POINT('',(31.1,-61.9,12.99));
#593 = DIRECTION('',(0.,0.,1.));
#594 = DIRECTION('',(-4.441E-14,-1.,0.));
#595 = ORIENTED_EDGE('',*,*,#596,.F.);
#596 = EDGE_CURVE('',#597,#588,#599,.T.);
#597 = VERTEX_POINT('',#598);
#598 = CARTESIAN_POINT('',(29.4,-62.3,12.99));
#599 = LINE('',#600,#601);
#600 = CARTESIAN_POINT('',(29.4,-62.3,12.99));
#601 = VECTOR('',#602,1.);
#602 = DIRECTION('',(1.,0.,0.));
#603 = ORIENTED_EDGE('',*,*,#604,.F.);
#604 = EDGE_CURVE('',#605,#597,#607,.T.);
#605 = VERTEX_POINT('',#606);
#606 = CARTESIAN_POINT('',(29.,-61.9,12.99));
#607 = CIRCLE('',#608,0.4);
#608 = AXIS2_PLACEMENT_3D('',#609,#610,#611);
#609 = CARTESIAN_POINT('',(29.4,-61.9,12.99));
#610 = DIRECTION('',(0.,0.,1.));
#611 = DIRECTION('',(-1.,3.553E-14,0.));
#612 = ORIENTED_EDGE('',*,*,#613,.F.);
#613 = EDGE_CURVE('',#614,#605,#616,.T.);
#614 = VERTEX_POINT('',#615);
#615 = CARTESIAN_POINT('',(29.,-60.2,12.99));
#616 = LINE('',#617,#618);
#617 = CARTESIAN_POINT('',(29.,-60.2,12.99));
#618 = VECTOR('',#619,1.);
#619 = DIRECTION('',(0.,-1.,0.));
#620 = ORIENTED_EDGE('',*,*,#621,.F.);
#621 = EDGE_CURVE('',#563,#614,#622,.T.);
#622 = CIRCLE('',#623,0.4);
#623 = AXIS2_PLACEMENT_3D('',#624,#625,#626);
#624 = CARTESIAN_POINT('',(29.4,-60.2,12.99));
#625 = DIRECTION('',(0.,-0.,1.));
#626 = DIRECTION('',(4.441E-14,1.,0.));
#627 = FACE_BOUND('',#628,.F.);
#628 = EDGE_LOOP('',(#629,#639,#647));
#629 = ORIENTED_EDGE('',*,*,#630,.F.);
#630 = EDGE_CURVE('',#631,#633,#635,.T.);
#631 = VERTEX_POINT('',#632);
#632 = CARTESIAN_POINT('',(31.7,-54.4,12.99));
#633 = VERTEX_POINT('',#634);
#634 = CARTESIAN_POINT('',(28.6,-56.,12.99));
#635 = LINE('',#636,#637);
#636 = CARTESIAN_POINT('',(31.7,-54.4,12.99));
#637 = VECTOR('',#638,1.);
#638 = DIRECTION('',(-0.888620657055,-0.45864291977,0.));
#639 = ORIENTED_EDGE('',*,*,#640,.F.);
#640 = EDGE_CURVE('',#641,#631,#643,.T.);
#641 = VERTEX_POINT('',#642);
#642 = CARTESIAN_POINT('',(31.7,-57.6,12.99));
#643 = LINE('',#644,#645);
#644 = CARTESIAN_POINT('',(31.7,-57.6,12.99));
#645 = VECTOR('',#646,1.);
#646 = DIRECTION('',(0.,1.,0.));
#647 = ORIENTED_EDGE('',*,*,#648,.F.);
#648 = EDGE_CURVE('',#633,#641,#649,.T.);
#649 = LINE('',#650,#651);
#650 = CARTESIAN_POINT('',(28.6,-56.,12.99));
#651 = VECTOR('',#652,1.);
#652 = DIRECTION('',(0.888620657055,-0.45864291977,0.));
#653 = PLANE('',#654);
#654 = AXIS2_PLACEMENT_3D('',#655,#656,#657);
#655 = CARTESIAN_POINT('',(30.25,-58.4,12.99));
#656 = DIRECTION('',(0.,0.,1.));
#657 = DIRECTION('',(1.,0.,0.));
#658 = ADVANCED_FACE('',(#659),#678,.T.);
#659 = FACE_BOUND('',#660,.F.);
#660 = EDGE_LOOP('',(#661,#662,#671,#677));
#661 = ORIENTED_EDGE('',*,*,#469,.T.);
#662 = ORIENTED_EDGE('',*,*,#663,.T.);
#663 = EDGE_CURVE('',#462,#664,#666,.T.);
#664 = VERTEX_POINT('',#665);
#665 = CARTESIAN_POINT('',(27.5,-53.8,13.39));
#666 = CIRCLE('',#667,1.);
#667 = AXIS2_PLACEMENT_3D('',#668,#669,#670);
#668 = CARTESIAN_POINT('',(28.5,-53.8,13.39));
#669 = DIRECTION('',(0.,-0.,1.));
#670 = DIRECTION('',(7.11E-15,1.,0.));
#671 = ORIENTED_EDGE('',*,*,#672,.F.);
#672 = EDGE_CURVE('',#493,#664,#673,.T.);
#673 = LINE('',#674,#675);
#674 = CARTESIAN_POINT('',(27.5,-53.8,12.99));
#675 = VECTOR('',#676,1.);
#676 = DIRECTION('',(0.,0.,1.));
#677 = ORIENTED_EDGE('',*,*,#492,.F.);
#678 = CYLINDRICAL_SURFACE('',#679,1.);
#679 = AXIS2_PLACEMENT_3D('',#680,#681,#682);
#680 = CARTESIAN_POINT('',(28.5,-53.8,12.99));
#681 = DIRECTION('',(0.,0.,-1.));
#682 = DIRECTION('',(7.11E-15,1.,0.));
#683 = ADVANCED_FACE('',(#684,#753,#823),#849,.T.);
#684 = FACE_BOUND('',#685,.T.);
#685 = EDGE_LOOP('',(#686,#694,#695,#696,#704,#713,#721,#730,#738,#747)
  );
#686 = ORIENTED_EDGE('',*,*,#687,.T.);
#687 = EDGE_CURVE('',#688,#454,#690,.T.);
#688 = VERTEX_POINT('',#689);
#689 = CARTESIAN_POINT('',(29.25,-53.,13.39));
#690 = LINE('',#691,#692);
#691 = CARTESIAN_POINT('',(29.25,-46.04893884022,13.39));
#692 = VECTOR('',#693,1.);
#693 = DIRECTION('',(0.,1.,0.));
#694 = ORIENTED_EDGE('',*,*,#461,.T.);
#695 = ORIENTED_EDGE('',*,*,#663,.T.);
#696 = ORIENTED_EDGE('',*,*,#697,.T.);
#697 = EDGE_CURVE('',#664,#698,#700,.T.);
#698 = VERTEX_POINT('',#699);
#699 = CARTESIAN_POINT('',(27.5,-63.,13.39));
#700 = LINE('',#701,#702);
#701 = CARTESIAN_POINT('',(27.5,-53.8,13.39));
#702 = VECTOR('',#703,1.);
#703 = DIRECTION('',(0.,-1.,0.));
#704 = ORIENTED_EDGE('',*,*,#705,.T.);
#705 = EDGE_CURVE('',#698,#706,#708,.T.);
#706 = VERTEX_POINT('',#707);
#707 = CARTESIAN_POINT('',(28.5,-64.,13.39));
#708 = CIRCLE('',#709,1.);
#709 = AXIS2_PLACEMENT_3D('',#710,#711,#712);
#710 = CARTESIAN_POINT('',(28.5,-63.,13.39));
#711 = DIRECTION('',(0.,0.,1.));
#712 = DIRECTION('',(-1.,1.421E-14,0.));
#713 = ORIENTED_EDGE('',*,*,#714,.T.);
#714 = EDGE_CURVE('',#706,#715,#717,.T.);
#715 = VERTEX_POINT('',#716);
#716 = CARTESIAN_POINT('',(32.,-64.,13.39));
#717 = LINE('',#718,#719);
#718 = CARTESIAN_POINT('',(28.5,-64.,13.39));
#719 = VECTOR('',#720,1.);
#720 = DIRECTION('',(1.,0.,0.));
#721 = ORIENTED_EDGE('',*,*,#722,.T.);
#722 = EDGE_CURVE('',#715,#723,#725,.T.);
#723 = VERTEX_POINT('',#724);
#724 = CARTESIAN_POINT('',(33.,-63.,13.39));
#725 = CIRCLE('',#726,1.);
#726 = AXIS2_PLACEMENT_3D('',#727,#728,#729);
#727 = CARTESIAN_POINT('',(32.,-63.,13.39));
#728 = DIRECTION('',(0.,0.,1.));
#729 = DIRECTION('',(-7.11E-15,-1.,0.));
#730 = ORIENTED_EDGE('',*,*,#731,.T.);
#731 = EDGE_CURVE('',#723,#732,#734,.T.);
#732 = VERTEX_POINT('',#733);
#733 = CARTESIAN_POINT('',(33.,-53.8,13.39));
#734 = LINE('',#735,#736);
#735 = CARTESIAN_POINT('',(33.,-63.,13.39));
#736 = VECTOR('',#737,1.);
#737 = DIRECTION('',(0.,1.,0.));
#738 = ORIENTED_EDGE('',*,*,#739,.T.);
#739 = EDGE_CURVE('',#732,#740,#742,.T.);
#740 = VERTEX_POINT('',#741);
#741 = CARTESIAN_POINT('',(32.6,-53.,13.39));
#742 = CIRCLE('',#743,1.);
#743 = AXIS2_PLACEMENT_3D('',#744,#745,#746);
#744 = CARTESIAN_POINT('',(32.,-53.8,13.39));
#745 = DIRECTION('',(-0.,0.,1.));
#746 = DIRECTION('',(1.,-1.421E-14,0.));
#747 = ORIENTED_EDGE('',*,*,#748,.T.);
#748 = EDGE_CURVE('',#740,#688,#749,.T.);
#749 = LINE('',#750,#751);
#750 = CARTESIAN_POINT('',(33.146656284918,-53.,13.39));
#751 = VECTOR('',#752,1.);
#752 = DIRECTION('',(-1.,0.,0.));
#753 = FACE_BOUND('',#754,.T.);
#754 = EDGE_LOOP('',(#755,#765,#774,#782,#791,#799,#808,#816));
#755 = ORIENTED_EDGE('',*,*,#756,.F.);
#756 = EDGE_CURVE('',#757,#759,#761,.T.);
#757 = VERTEX_POINT('',#758);
#758 = CARTESIAN_POINT('',(31.1,-59.8,13.39));
#759 = VERTEX_POINT('',#760);
#760 = CARTESIAN_POINT('',(29.4,-59.8,13.39));
#761 = LINE('',#762,#763);
#762 = CARTESIAN_POINT('',(31.1,-59.8,13.39));
#763 = VECTOR('',#764,1.);
#764 = DIRECTION('',(-1.,0.,0.));
#765 = ORIENTED_EDGE('',*,*,#766,.F.);
#766 = EDGE_CURVE('',#767,#757,#769,.T.);
#767 = VERTEX_POINT('',#768);
#768 = CARTESIAN_POINT('',(31.5,-60.2,13.39));
#769 = CIRCLE('',#770,0.4);
#770 = AXIS2_PLACEMENT_3D('',#771,#772,#773);
#771 = CARTESIAN_POINT('',(31.1,-60.2,13.39));
#772 = DIRECTION('',(-0.,0.,1.));
#773 = DIRECTION('',(1.,-3.553E-14,0.));
#774 = ORIENTED_EDGE('',*,*,#775,.F.);
#775 = EDGE_CURVE('',#776,#767,#778,.T.);
#776 = VERTEX_POINT('',#777);
#777 = CARTESIAN_POINT('',(31.5,-61.9,13.39));
#778 = LINE('',#779,#780);
#779 = CARTESIAN_POINT('',(31.5,-61.9,13.39));
#780 = VECTOR('',#781,1.);
#781 = DIRECTION('',(0.,1.,0.));
#782 = ORIENTED_EDGE('',*,*,#783,.F.);
#783 = EDGE_CURVE('',#784,#776,#786,.T.);
#784 = VERTEX_POINT('',#785);
#785 = CARTESIAN_POINT('',(31.1,-62.3,13.39));
#786 = CIRCLE('',#787,0.4);
#787 = AXIS2_PLACEMENT_3D('',#788,#789,#790);
#788 = CARTESIAN_POINT('',(31.1,-61.9,13.39));
#789 = DIRECTION('',(0.,0.,1.));
#790 = DIRECTION('',(-4.441E-14,-1.,0.));
#791 = ORIENTED_EDGE('',*,*,#792,.F.);
#792 = EDGE_CURVE('',#793,#784,#795,.T.);
#793 = VERTEX_POINT('',#794);
#794 = CARTESIAN_POINT('',(29.4,-62.3,13.39));
#795 = LINE('',#796,#797);
#796 = CARTESIAN_POINT('',(29.4,-62.3,13.39));
#797 = VECTOR('',#798,1.);
#798 = DIRECTION('',(1.,0.,0.));
#799 = ORIENTED_EDGE('',*,*,#800,.F.);
#800 = EDGE_CURVE('',#801,#793,#803,.T.);
#801 = VERTEX_POINT('',#802);
#802 = CARTESIAN_POINT('',(29.,-61.9,13.39));
#803 = CIRCLE('',#804,0.4);
#804 = AXIS2_PLACEMENT_3D('',#805,#806,#807);
#805 = CARTESIAN_POINT('',(29.4,-61.9,13.39));
#806 = DIRECTION('',(0.,0.,1.));
#807 = DIRECTION('',(-1.,3.553E-14,0.));
#808 = ORIENTED_EDGE('',*,*,#809,.F.);
#809 = EDGE_CURVE('',#810,#801,#812,.T.);
#810 = VERTEX_POINT('',#811);
#811 = CARTESIAN_POINT('',(29.,-60.2,13.39));
#812 = LINE('',#813,#814);
#813 = CARTESIAN_POINT('',(29.,-60.2,13.39));
#814 = VECTOR('',#815,1.);
#815 = DIRECTION('',(0.,-1.,0.));
#816 = ORIENTED_EDGE('',*,*,#817,.F.);
#817 = EDGE_CURVE('',#759,#810,#818,.T.);
#818 = CIRCLE('',#819,0.4);
#819 = AXIS2_PLACEMENT_3D('',#820,#821,#822);
#820 = CARTESIAN_POINT('',(29.4,-60.2,13.39));
#821 = DIRECTION('',(0.,-0.,1.));
#822 = DIRECTION('',(4.441E-14,1.,0.));
#823 = FACE_BOUND('',#824,.T.);
#824 = EDGE_LOOP('',(#825,#835,#843));
#825 = ORIENTED_EDGE('',*,*,#826,.F.);
#826 = EDGE_CURVE('',#827,#829,#831,.T.);
#827 = VERTEX_POINT('',#828);
#828 = CARTESIAN_POINT('',(31.7,-54.4,13.39));
#829 = VERTEX_POINT('',#830);
#830 = CARTESIAN_POINT('',(28.6,-56.,13.39));
#831 = LINE('',#832,#833);
#832 = CARTESIAN_POINT('',(31.7,-54.4,13.39));
#833 = VECTOR('',#834,1.);
#834 = DIRECTION('',(-0.888620657055,-0.45864291977,0.));
#835 = ORIENTED_EDGE('',*,*,#836,.F.);
#836 = EDGE_CURVE('',#837,#827,#839,.T.);
#837 = VERTEX_POINT('',#838);
#838 = CARTESIAN_POINT('',(31.7,-57.6,13.39));
#839 = LINE('',#840,#841);
#840 = CARTESIAN_POINT('',(31.7,-57.6,13.39));
#841 = VECTOR('',#842,1.);
#842 = DIRECTION('',(0.,1.,0.));
#843 = ORIENTED_EDGE('',*,*,#844,.F.);
#844 = EDGE_CURVE('',#829,#837,#845,.T.);
#845 = LINE('',#846,#847);
#846 = CARTESIAN_POINT('',(28.6,-56.,13.39));
#847 = VECTOR('',#848,1.);
#848 = DIRECTION('',(0.888620657055,-0.45864291977,0.));
#849 = PLANE('',#850);
#850 = AXIS2_PLACEMENT_3D('',#851,#852,#853);
#851 = CARTESIAN_POINT('',(30.25,-58.4,13.39));
#852 = DIRECTION('',(0.,0.,1.));
#853 = DIRECTION('',(1.,0.,0.));
#854 = ADVANCED_FACE('',(#855),#866,.T.);
#855 = FACE_BOUND('',#856,.T.);
#856 = EDGE_LOOP('',(#857,#863,#864,#865));
#857 = ORIENTED_EDGE('',*,*,#858,.F.);
#858 = EDGE_CURVE('',#484,#688,#859,.T.);
#859 = LINE('',#860,#861);
#860 = CARTESIAN_POINT('',(29.25,-53.,11.7));
#861 = VECTOR('',#862,1.);
#862 = DIRECTION('',(0.,0.,1.));
#863 = ORIENTED_EDGE('',*,*,#483,.T.);
#864 = ORIENTED_EDGE('',*,*,#453,.T.);
#865 = ORIENTED_EDGE('',*,*,#687,.F.);
#866 = PLANE('',#867);
#867 = AXIS2_PLACEMENT_3D('',#868,#869,#870);
#868 = CARTESIAN_POINT('',(29.25,-53.,11.7));
#869 = DIRECTION('',(1.,0.,0.));
#870 = DIRECTION('',(0.,0.,1.));
#871 = ADVANCED_FACE('',(#872),#883,.T.);
#872 = FACE_BOUND('',#873,.T.);
#873 = EDGE_LOOP('',(#874,#880,#881,#882));
#874 = ORIENTED_EDGE('',*,*,#875,.T.);
#875 = EDGE_CURVE('',#740,#544,#876,.T.);
#876 = LINE('',#877,#878);
#877 = CARTESIAN_POINT('',(32.6,-53.,12.99));
#878 = VECTOR('',#879,1.);
#879 = DIRECTION('',(0.,0.,-1.));
#880 = ORIENTED_EDGE('',*,*,#552,.T.);
#881 = ORIENTED_EDGE('',*,*,#858,.T.);
#882 = ORIENTED_EDGE('',*,*,#748,.F.);
#883 = PLANE('',#884);
#884 = AXIS2_PLACEMENT_3D('',#885,#886,#887);
#885 = CARTESIAN_POINT('',(29.25,-53.,11.7));
#886 = DIRECTION('',(0.,1.,0.));
#887 = DIRECTION('',(0.,0.,1.));
#888 = ADVANCED_FACE('',(#889),#900,.T.);
#889 = FACE_BOUND('',#890,.F.);
#890 = EDGE_LOOP('',(#891,#892,#898,#899));
#891 = ORIENTED_EDGE('',*,*,#543,.F.);
#892 = ORIENTED_EDGE('',*,*,#893,.T.);
#893 = EDGE_CURVE('',#536,#732,#894,.T.);
#894 = LINE('',#895,#896);
#895 = CARTESIAN_POINT('',(33.,-53.8,12.99));
#896 = VECTOR('',#897,1.);
#897 = DIRECTION('',(0.,0.,1.));
#898 = ORIENTED_EDGE('',*,*,#739,.T.);
#899 = ORIENTED_EDGE('',*,*,#875,.T.);
#900 = CYLINDRICAL_SURFACE('',#901,1.);
#901 = AXIS2_PLACEMENT_3D('',#902,#903,#904);
#902 = CARTESIAN_POINT('',(32.,-53.8,12.99));
#903 = DIRECTION('',(0.,0.,-1.));
#904 = DIRECTION('',(1.,-1.421E-14,0.));
#905 = ADVANCED_FACE('',(#906),#917,.F.);
#906 = FACE_BOUND('',#907,.F.);
#907 = EDGE_LOOP('',(#908,#914,#915,#916));
#908 = ORIENTED_EDGE('',*,*,#909,.T.);
#909 = EDGE_CURVE('',#527,#723,#910,.T.);
#910 = LINE('',#911,#912);
#911 = CARTESIAN_POINT('',(33.,-63.,12.99));
#912 = VECTOR('',#913,1.);
#913 = DIRECTION('',(0.,0.,1.));
#914 = ORIENTED_EDGE('',*,*,#731,.T.);
#915 = ORIENTED_EDGE('',*,*,#893,.F.);
#916 = ORIENTED_EDGE('',*,*,#535,.F.);
#917 = PLANE('',#918);
#918 = AXIS2_PLACEMENT_3D('',#919,#920,#921);
#919 = CARTESIAN_POINT('',(33.,-63.,12.99));
#920 = DIRECTION('',(-1.,0.,0.));
#921 = DIRECTION('',(0.,1.,0.));
#922 = ADVANCED_FACE('',(#923),#934,.F.);
#923 = FACE_BOUND('',#924,.F.);
#924 = EDGE_LOOP('',(#925,#926,#927,#933));
#925 = ORIENTED_EDGE('',*,*,#672,.T.);
#926 = ORIENTED_EDGE('',*,*,#697,.T.);
#927 = ORIENTED_EDGE('',*,*,#928,.F.);
#928 = EDGE_CURVE('',#502,#698,#929,.T.);
#929 = LINE('',#930,#931);
#930 = CARTESIAN_POINT('',(27.5,-63.,12.99));
#931 = VECTOR('',#932,1.);
#932 = DIRECTION('',(0.,0.,1.));
#933 = ORIENTED_EDGE('',*,*,#501,.F.);
#934 = PLANE('',#935);
#935 = AXIS2_PLACEMENT_3D('',#936,#937,#938);
#936 = CARTESIAN_POINT('',(27.5,-53.8,12.99));
#937 = DIRECTION('',(1.,0.,0.));
#938 = DIRECTION('',(0.,-1.,0.));
#939 = ADVANCED_FACE('',(#940),#951,.T.);
#940 = FACE_BOUND('',#941,.F.);
#941 = EDGE_LOOP('',(#942,#948,#949,#950));
#942 = ORIENTED_EDGE('',*,*,#943,.T.);
#943 = EDGE_CURVE('',#519,#715,#944,.T.);
#944 = LINE('',#945,#946);
#945 = CARTESIAN_POINT('',(32.,-64.,12.99));
#946 = VECTOR('',#947,1.);
#947 = DIRECTION('',(0.,0.,1.));
#948 = ORIENTED_EDGE('',*,*,#722,.T.);
#949 = ORIENTED_EDGE('',*,*,#909,.F.);
#950 = ORIENTED_EDGE('',*,*,#526,.F.);
#951 = CYLINDRICAL_SURFACE('',#952,1.);
#952 = AXIS2_PLACEMENT_3D('',#953,#954,#955);
#953 = CARTESIAN_POINT('',(32.,-63.,12.99));
#954 = DIRECTION('',(-0.,-0.,-1.));
#955 = DIRECTION('',(-7.11E-15,-1.,0.));
#956 = ADVANCED_FACE('',(#957),#968,.T.);
#957 = FACE_BOUND('',#958,.F.);
#958 = EDGE_LOOP('',(#959,#960,#961,#967));
#959 = ORIENTED_EDGE('',*,*,#928,.T.);
#960 = ORIENTED_EDGE('',*,*,#705,.T.);
#961 = ORIENTED_EDGE('',*,*,#962,.F.);
#962 = EDGE_CURVE('',#510,#706,#963,.T.);
#963 = LINE('',#964,#965);
#964 = CARTESIAN_POINT('',(28.5,-64.,12.99));
#965 = VECTOR('',#966,1.);
#966 = DIRECTION('',(0.,0.,1.));
#967 = ORIENTED_EDGE('',*,*,#509,.F.);
#968 = CYLINDRICAL_SURFACE('',#969,1.);
#969 = AXIS2_PLACEMENT_3D('',#970,#971,#972);
#970 = CARTESIAN_POINT('',(28.5,-63.,12.99));
#971 = DIRECTION('',(-0.,-0.,-1.));
#972 = DIRECTION('',(-1.,1.421E-14,0.));
#973 = ADVANCED_FACE('',(#974),#980,.F.);
#974 = FACE_BOUND('',#975,.F.);
#975 = EDGE_LOOP('',(#976,#977,#978,#979));
#976 = ORIENTED_EDGE('',*,*,#962,.T.);
#977 = ORIENTED_EDGE('',*,*,#714,.T.);
#978 = ORIENTED_EDGE('',*,*,#943,.F.);
#979 = ORIENTED_EDGE('',*,*,#518,.F.);
#980 = PLANE('',#981);
#981 = AXIS2_PLACEMENT_3D('',#982,#983,#984);
#982 = CARTESIAN_POINT('',(28.5,-64.,12.99));
#983 = DIRECTION('',(0.,1.,0.));
#984 = DIRECTION('',(1.,0.,0.));
#985 = ADVANCED_FACE('',(#986),#1002,.T.);
#986 = FACE_BOUND('',#987,.T.);
#987 = EDGE_LOOP('',(#988,#994,#995,#1001));
#988 = ORIENTED_EDGE('',*,*,#989,.T.);
#989 = EDGE_CURVE('',#561,#757,#990,.T.);
#990 = LINE('',#991,#992);
#991 = CARTESIAN_POINT('',(31.1,-59.8,12.99));
#992 = VECTOR('',#993,1.);
#993 = DIRECTION('',(0.,0.,1.));
#994 = ORIENTED_EDGE('',*,*,#756,.T.);
#995 = ORIENTED_EDGE('',*,*,#996,.F.);
#996 = EDGE_CURVE('',#563,#759,#997,.T.);
#997 = LINE('',#998,#999);
#998 = CARTESIAN_POINT('',(29.4,-59.8,12.99));
#999 = VECTOR('',#1000,1.);
#1000 = DIRECTION('',(0.,0.,1.));
#1001 = ORIENTED_EDGE('',*,*,#560,.F.);
#1002 = PLANE('',#1003);
#1003 = AXIS2_PLACEMENT_3D('',#1004,#1005,#1006);
#1004 = CARTESIAN_POINT('',(31.1,-59.8,12.99));
#1005 = DIRECTION('',(0.,-1.,0.));
#1006 = DIRECTION('',(-1.,0.,0.));
#1007 = ADVANCED_FACE('',(#1008),#1019,.F.);
#1008 = FACE_BOUND('',#1009,.T.);
#1009 = EDGE_LOOP('',(#1010,#1011,#1012,#1018));
#1010 = ORIENTED_EDGE('',*,*,#996,.T.);
#1011 = ORIENTED_EDGE('',*,*,#817,.T.);
#1012 = ORIENTED_EDGE('',*,*,#1013,.F.);
#1013 = EDGE_CURVE('',#614,#810,#1014,.T.);
#1014 = LINE('',#1015,#1016);
#1015 = CARTESIAN_POINT('',(29.,-60.2,12.99));
#1016 = VECTOR('',#1017,1.);
#1017 = DIRECTION('',(0.,0.,1.));
#1018 = ORIENTED_EDGE('',*,*,#621,.F.);
#1019 = CYLINDRICAL_SURFACE('',#1020,0.4);
#1020 = AXIS2_PLACEMENT_3D('',#1021,#1022,#1023);
#1021 = CARTESIAN_POINT('',(29.4,-60.2,12.99));
#1022 = DIRECTION('',(0.,0.,-1.));
#1023 = DIRECTION('',(4.441E-14,1.,0.));
#1024 = ADVANCED_FACE('',(#1025),#1036,.T.);
#1025 = FACE_BOUND('',#1026,.T.);
#1026 = EDGE_LOOP('',(#1027,#1028,#1029,#1035));
#1027 = ORIENTED_EDGE('',*,*,#1013,.T.);
#1028 = ORIENTED_EDGE('',*,*,#809,.T.);
#1029 = ORIENTED_EDGE('',*,*,#1030,.F.);
#1030 = EDGE_CURVE('',#605,#801,#1031,.T.);
#1031 = LINE('',#1032,#1033);
#1032 = CARTESIAN_POINT('',(29.,-61.9,12.99));
#1033 = VECTOR('',#1034,1.);
#1034 = DIRECTION('',(0.,0.,1.));
#1035 = ORIENTED_EDGE('',*,*,#613,.F.);
#1036 = PLANE('',#1037);
#1037 = AXIS2_PLACEMENT_3D('',#1038,#1039,#1040);
#1038 = CARTESIAN_POINT('',(29.,-60.2,12.99));
#1039 = DIRECTION('',(1.,0.,0.));
#1040 = DIRECTION('',(0.,-1.,0.));
#1041 = ADVANCED_FACE('',(#1042),#1053,.F.);
#1042 = FACE_BOUND('',#1043,.T.);
#1043 = EDGE_LOOP('',(#1044,#1045,#1046,#1052));
#1044 = ORIENTED_EDGE('',*,*,#1030,.T.);
#1045 = ORIENTED_EDGE('',*,*,#800,.T.);
#1046 = ORIENTED_EDGE('',*,*,#1047,.F.);
#1047 = EDGE_CURVE('',#597,#793,#1048,.T.);
#1048 = LINE('',#1049,#1050);
#1049 = CARTESIAN_POINT('',(29.4,-62.3,12.99));
#1050 = VECTOR('',#1051,1.);
#1051 = DIRECTION('',(0.,0.,1.));
#1052 = ORIENTED_EDGE('',*,*,#604,.F.);
#1053 = CYLINDRICAL_SURFACE('',#1054,0.4);
#1054 = AXIS2_PLACEMENT_3D('',#1055,#1056,#1057);
#1055 = CARTESIAN_POINT('',(29.4,-61.9,12.99));
#1056 = DIRECTION('',(-0.,-0.,-1.));
#1057 = DIRECTION('',(-1.,3.553E-14,0.));
#1058 = ADVANCED_FACE('',(#1059),#1070,.T.);
#1059 = FACE_BOUND('',#1060,.T.);
#1060 = EDGE_LOOP('',(#1061,#1062,#1063,#1069));
#1061 = ORIENTED_EDGE('',*,*,#1047,.T.);
#1062 = ORIENTED_EDGE('',*,*,#792,.T.);
#1063 = ORIENTED_EDGE('',*,*,#1064,.F.);
#1064 = EDGE_CURVE('',#588,#784,#1065,.T.);
#1065 = LINE('',#1066,#1067);
#1066 = CARTESIAN_POINT('',(31.1,-62.3,12.99));
#1067 = VECTOR('',#1068,1.);
#1068 = DIRECTION('',(0.,0.,1.));
#1069 = ORIENTED_EDGE('',*,*,#596,.F.);
#1070 = PLANE('',#1071);
#1071 = AXIS2_PLACEMENT_3D('',#1072,#1073,#1074);
#1072 = CARTESIAN_POINT('',(29.4,-62.3,12.99));
#1073 = DIRECTION('',(0.,1.,0.));
#1074 = DIRECTION('',(1.,0.,0.));
#1075 = ADVANCED_FACE('',(#1076),#1087,.F.);
#1076 = FACE_BOUND('',#1077,.T.);
#1077 = EDGE_LOOP('',(#1078,#1079,#1080,#1086));
#1078 = ORIENTED_EDGE('',*,*,#1064,.T.);
#1079 = ORIENTED_EDGE('',*,*,#783,.T.);
#1080 = ORIENTED_EDGE('',*,*,#1081,.F.);
#1081 = EDGE_CURVE('',#580,#776,#1082,.T.);
#1082 = LINE('',#1083,#1084);
#1083 = CARTESIAN_POINT('',(31.5,-61.9,12.99));
#1084 = VECTOR('',#1085,1.);
#1085 = DIRECTION('',(0.,0.,1.));
#1086 = ORIENTED_EDGE('',*,*,#587,.F.);
#1087 = CYLINDRICAL_SURFACE('',#1088,0.4);
#1088 = AXIS2_PLACEMENT_3D('',#1089,#1090,#1091);
#1089 = CARTESIAN_POINT('',(31.1,-61.9,12.99));
#1090 = DIRECTION('',(-0.,-0.,-1.));
#1091 = DIRECTION('',(-4.441E-14,-1.,0.));
#1092 = ADVANCED_FACE('',(#1093),#1104,.T.);
#1093 = FACE_BOUND('',#1094,.T.);
#1094 = EDGE_LOOP('',(#1095,#1096,#1097,#1103));
#1095 = ORIENTED_EDGE('',*,*,#1081,.T.);
#1096 = ORIENTED_EDGE('',*,*,#775,.T.);
#1097 = ORIENTED_EDGE('',*,*,#1098,.F.);
#1098 = EDGE_CURVE('',#571,#767,#1099,.T.);
#1099 = LINE('',#1100,#1101);
#1100 = CARTESIAN_POINT('',(31.5,-60.2,12.99));
#1101 = VECTOR('',#1102,1.);
#1102 = DIRECTION('',(0.,0.,1.));
#1103 = ORIENTED_EDGE('',*,*,#579,.F.);
#1104 = PLANE('',#1105);
#1105 = AXIS2_PLACEMENT_3D('',#1106,#1107,#1108);
#1106 = CARTESIAN_POINT('',(31.5,-61.9,12.99));
#1107 = DIRECTION('',(-1.,0.,0.));
#1108 = DIRECTION('',(0.,1.,0.));
#1109 = ADVANCED_FACE('',(#1110),#1116,.F.);
#1110 = FACE_BOUND('',#1111,.T.);
#1111 = EDGE_LOOP('',(#1112,#1113,#1114,#1115));
#1112 = ORIENTED_EDGE('',*,*,#1098,.T.);
#1113 = ORIENTED_EDGE('',*,*,#766,.T.);
#1114 = ORIENTED_EDGE('',*,*,#989,.F.);
#1115 = ORIENTED_EDGE('',*,*,#570,.F.);
#1116 = CYLINDRICAL_SURFACE('',#1117,0.4);
#1117 = AXIS2_PLACEMENT_3D('',#1118,#1119,#1120);
#1118 = CARTESIAN_POINT('',(31.1,-60.2,12.99));
#1119 = DIRECTION('',(0.,0.,-1.));
#1120 = DIRECTION('',(1.,-3.553E-14,0.));
#1121 = ADVANCED_FACE('',(#1122),#1138,.T.);
#1122 = FACE_BOUND('',#1123,.T.);
#1123 = EDGE_LOOP('',(#1124,#1130,#1131,#1137));
#1124 = ORIENTED_EDGE('',*,*,#1125,.T.);
#1125 = EDGE_CURVE('',#631,#827,#1126,.T.);
#1126 = LINE('',#1127,#1128);
#1127 = CARTESIAN_POINT('',(31.7,-54.4,12.99));
#1128 = VECTOR('',#1129,1.);
#1129 = DIRECTION('',(0.,0.,1.));
#1130 = ORIENTED_EDGE('',*,*,#826,.T.);
#1131 = ORIENTED_EDGE('',*,*,#1132,.F.);
#1132 = EDGE_CURVE('',#633,#829,#1133,.T.);
#1133 = LINE('',#1134,#1135);
#1134 = CARTESIAN_POINT('',(28.6,-56.,12.99));
#1135 = VECTOR('',#1136,1.);
#1136 = DIRECTION('',(0.,0.,1.));
#1137 = ORIENTED_EDGE('',*,*,#630,.F.);
#1138 = PLANE('',#1139);
#1139 = AXIS2_PLACEMENT_3D('',#1140,#1141,#1142);
#1140 = CARTESIAN_POINT('',(31.7,-54.4,12.99));
#1141 = DIRECTION('',(0.45864291977,-0.888620657055,0.));
#1142 = DIRECTION('',(-0.888620657055,-0.45864291977,0.));
#1143 = ADVANCED_FACE('',(#1144),#1155,.T.);
#1144 = FACE_BOUND('',#1145,.T.);
#1145 = EDGE_LOOP('',(#1146,#1147,#1148,#1154));
#1146 = ORIENTED_EDGE('',*,*,#1132,.T.);
#1147 = ORIENTED_EDGE('',*,*,#844,.T.);
#1148 = ORIENTED_EDGE('',*,*,#1149,.F.);
#1149 = EDGE_CURVE('',#641,#837,#1150,.T.);
#1150 = LINE('',#1151,#1152);
#1151 = CARTESIAN_POINT('',(31.7,-57.6,12.99));
#1152 = VECTOR('',#1153,1.);
#1153 = DIRECTION('',(0.,0.,1.));
#1154 = ORIENTED_EDGE('',*,*,#648,.F.);
#1155 = PLANE('',#1156);
#1156 = AXIS2_PLACEMENT_3D('',#1157,#1158,#1159);
#1157 = CARTESIAN_POINT('',(28.6,-56.,12.99));
#1158 = DIRECTION('',(0.45864291977,0.888620657055,0.));
#1159 = DIRECTION('',(0.888620657055,-0.45864291977,0.));
#1160 = ADVANCED_FACE('',(#1161),#1167,.T.);
#1161 = FACE_BOUND('',#1162,.T.);
#1162 = EDGE_LOOP('',(#1163,#1164,#1165,#1166));
#1163 = ORIENTED_EDGE('',*,*,#1149,.T.);
#1164 = ORIENTED_EDGE('',*,*,#836,.T.);
#1165 = ORIENTED_EDGE('',*,*,#1125,.F.);
#1166 = ORIENTED_EDGE('',*,*,#640,.F.);
#1167 = PLANE('',#1168);
#1168 = AXIS2_PLACEMENT_3D('',#1169,#1170,#1171);
#1169 = CARTESIAN_POINT('',(31.7,-57.6,12.99));
#1170 = DIRECTION('',(-1.,0.,0.));
#1171 = DIRECTION('',(0.,1.,0.));
#1172 = ( GEOMETRIC_REPRESENTATION_CONTEXT(3) 
GLOBAL_UNCERTAINTY_ASSIGNED_CONTEXT((#1176)) 
GLOBAL_UNIT_ASSIGNED_CONTEXT((#1173,#1174,#1175)) REPRESENTATION_CONTEXT
('Context #1','3D Context with UNIT and UNCERTAINTY') );
#1173 = ( LENGTH_UNIT() NAMED_UNIT(*) SI_UNIT(.MILLI.,.METRE.) );
#1174 = ( NAMED_UNIT(*) PLANE_ANGLE_UNIT() SI_UNIT($,.RADIAN.) );
#1175 = ( NAMED_UNIT(*) SI_UNIT($,.STERADIAN.) SOLID_ANGLE_UNIT() );
#1176 = UNCERTAINTY_MEASURE_WITH_UNIT(LENGTH_MEASURE(1.E-05),#1173,
  'distance_accuracy_value','confusion accuracy');
#1177 = PRODUCT_RELATED_PRODUCT_CATEGORY('part',$,(#7));
ENDSEC;
END-ISO-10303-21;
