ISO-10303-21;
HEADER;
FILE_DESCRIPTION(('FreeCAD Model'),'2;1');
FILE_NAME('Open CASCADE Shape Model','2026-10-07T22:41:13',('FreeCAD'),(
    'FreeCAD'),'Open CASCADE STEP processor 7.8','FreeCAD','Unknown');
FILE_SCHEMA(('AUTOMOTIVE_DESIGN { 1 0 10303 214 1 1 1 1 }'));
ENDSEC;
DATA;
#1 = APPLICATION_PROTOCOL_DEFINITION('international standard',
  'automotive_design',2000,#2);
#2 = APPLICATION_CONTEXT(
  'core data for automotive mechanical design processes');
#3 = SHAPE_DEFINITION_REPRESENTATION(#4,#10);
#4 = PRODUCT_DEFINITION_SHAPE('','',#5);
#5 = PRODUCT_DEFINITION('design','',#6,#9);
#6 = PRODUCT_DEFINITION_FORMATION('','',#7);
#7 = PRODUCT('Open CASCADE STEP translator 7.8 114',
  'Open CASCADE STEP translator 7.8 114','',(#8));
#8 = PRODUCT_CONTEXT('',#2,'mechanical');
#9 = PRODUCT_DEFINITION_CONTEXT('part definition',#2,'design');
#10 = SHAPE_REPRESENTATION('',(#11,#15,#289,#563,#837),#1111);
#11 = AXIS2_PLACEMENT_3D('',#12,#13,#14);
#12 = CARTESIAN_POINT('',(0.,0.,0.));
#13 = DIRECTION('',(0.,0.,1.));
#14 = DIRECTION('',(1.,0.,-0.));
#15 = MANIFOLD_SOLID_BREP('',#16);
#16 = CLOSED_SHELL('',(#17,#114,#194,#279));
#17 = ADVANCED_FACE('',(#18),#106,.T.);
#18 = FACE_BOUND('',#19,.T.);
#19 = EDGE_LOOP('',(#20,#57,#65,#100));
#20 = ORIENTED_EDGE('',*,*,#21,.T.);
#21 = EDGE_CURVE('',#22,#24,#26,.T.);
#22 = VERTEX_POINT('',#23);
#23 = CARTESIAN_POINT('',(36.3,-57.03,13.19));
#24 = VERTEX_POINT('',#25);
#25 = CARTESIAN_POINT('',(30.8,-53.4,13.19));
#26 = B_SPLINE_CURVE_WITH_KNOTS('',8,(#27,#28,#29,#30,#31,#32,#33,#34,
    #35,#36,#37,#38,#39,#40,#41,#42,#43,#44,#45,#46,#47,#48,#49,#50,#51,
    #52,#53,#54,#55,#56),.UNSPECIFIED.,.F.,.F.,(9,7,7,7,9),(0.,
    0.152812604419,0.319706985369,0.560194692454,1.),.UNSPECIFIED.);
#27 = CARTESIAN_POINT('',(36.3,-57.03,13.19));
#28 = CARTESIAN_POINT('',(36.3,-56.89216034531,13.19));
#29 = CARTESIAN_POINT('',(36.290841068365,-56.75428676468,13.19));
#30 = CARTESIAN_POINT('',(36.272767582194,-56.61708647352,13.19));
#31 = CARTESIAN_POINT('',(36.246129078909,-56.48117720869,13.19));
#32 = CARTESIAN_POINT('',(36.211340228253,-56.34709334722,13.19));
#33 = CARTESIAN_POINT('',(36.168850691818,-56.21529101196,13.19));
#34 = CARTESIAN_POINT('',(36.119124870109,-56.08615216412,13.19));
#35 = CARTESIAN_POINT('',(36.000932308426,-55.82219706562,13.19));
#36 = CARTESIAN_POINT('',(35.931159156916,-55.68795186412,13.19));
#37 = CARTESIAN_POINT('',(35.853904229436,-55.55761892837,13.19));
#38 = CARTESIAN_POINT('',(35.769752456507,-55.43148329738,13.19));
#39 = CARTESIAN_POINT('',(35.679270630855,-55.30975573378,13.19));
#40 = CARTESIAN_POINT('',(35.582996485918,-55.19258025859,13.19));
#41 = CARTESIAN_POINT('',(35.481427774334,-55.08004168611,13.19));
#42 = CARTESIAN_POINT('',(35.221669798388,-54.81673919712,13.19));
#43 = CARTESIAN_POINT('',(35.058316324266,-54.67105562148,13.19));
#44 = CARTESIAN_POINT('',(34.886268743506,-54.53517985279,13.19));
#45 = CARTESIAN_POINT('',(34.70672288785,-54.40906403035,13.19));
#46 = CARTESIAN_POINT('',(34.520751411842,-54.29256118576,13.19));
#47 = CARTESIAN_POINT('',(34.329296340795,-54.18543908143,13.19));
#48 = CARTESIAN_POINT('',(34.133155356221,-54.0874017134,13.19));
#49 = CARTESIAN_POINT('',(33.566846721294,-53.8348367836,13.19));
#50 = CARTESIAN_POINT('',(33.187652576103,-53.70104404678,13.19));
#51 = CARTESIAN_POINT('',(32.799084837309,-53.59447772291,13.19));
#52 = CARTESIAN_POINT('',(32.404159273789,-53.51311802395,13.19));
#53 = CARTESIAN_POINT('',(32.005302477207,-53.45487613028,13.19));
#54 = CARTESIAN_POINT('',(31.604312926474,-53.41777743945,13.19));
#55 = CARTESIAN_POINT('',(31.202368600012,-53.4,13.19));
#56 = CARTESIAN_POINT('',(30.8,-53.4,13.19));
#57 = ORIENTED_EDGE('',*,*,#58,.T.);
#58 = EDGE_CURVE('',#24,#59,#61,.T.);
#59 = VERTEX_POINT('',#60);
#60 = CARTESIAN_POINT('',(30.8,-53.4,13.59));
#61 = LINE('',#62,#63);
#62 = CARTESIAN_POINT('',(30.8,-53.4,0.));
#63 = VECTOR('',#64,1.);
#64 = DIRECTION('',(0.,0.,1.));
#65 = ORIENTED_EDGE('',*,*,#66,.F.);
#66 = EDGE_CURVE('',#67,#59,#69,.T.);
#67 = VERTEX_POINT('',#68);
#68 = CARTESIAN_POINT('',(36.3,-57.03,13.59));
#69 = B_SPLINE_CURVE_WITH_KNOTS('',8,(#70,#71,#72,#73,#74,#75,#76,#77,
    #78,#79,#80,#81,#82,#83,#84,#85,#86,#87,#88,#89,#90,#91,#92,#93,#94,
    #95,#96,#97,#98,#99),.UNSPECIFIED.,.F.,.F.,(9,7,7,7,9),(0.,
    0.152812604419,0.319706985369,0.560194692454,1.),.UNSPECIFIED.);
#70 = CARTESIAN_POINT('',(36.3,-57.03,13.59));
#71 = CARTESIAN_POINT('',(36.3,-56.89216034531,13.59));
#72 = CARTESIAN_POINT('',(36.290841068365,-56.75428676468,13.59));
#73 = CARTESIAN_POINT('',(36.272767582194,-56.61708647352,13.59));
#74 = CARTESIAN_POINT('',(36.246129078909,-56.48117720869,13.59));
#75 = CARTESIAN_POINT('',(36.211340228253,-56.34709334722,13.59));
#76 = CARTESIAN_POINT('',(36.168850691818,-56.21529101196,13.59));
#77 = CARTESIAN_POINT('',(36.119124870109,-56.08615216412,13.59));
#78 = CARTESIAN_POINT('',(36.000932308426,-55.82219706562,13.59));
#79 = CARTESIAN_POINT('',(35.931159156916,-55.68795186412,13.59));
#80 = CARTESIAN_POINT('',(35.853904229436,-55.55761892837,13.59));
#81 = CARTESIAN_POINT('',(35.769752456507,-55.43148329738,13.59));
#82 = CARTESIAN_POINT('',(35.679270630855,-55.30975573378,13.59));
#83 = CARTESIAN_POINT('',(35.582996485918,-55.19258025859,13.59));
#84 = CARTESIAN_POINT('',(35.481427774334,-55.08004168611,13.59));
#85 = CARTESIAN_POINT('',(35.221669798388,-54.81673919712,13.59));
#86 = CARTESIAN_POINT('',(35.058316324266,-54.67105562148,13.59));
#87 = CARTESIAN_POINT('',(34.886268743506,-54.53517985279,13.59));
#88 = CARTESIAN_POINT('',(34.70672288785,-54.40906403035,13.59));
#89 = CARTESIAN_POINT('',(34.520751411842,-54.29256118576,13.59));
#90 = CARTESIAN_POINT('',(34.329296340795,-54.18543908143,13.59));
#91 = CARTESIAN_POINT('',(34.133155356221,-54.0874017134,13.59));
#92 = CARTESIAN_POINT('',(33.566846721294,-53.8348367836,13.59));
#93 = CARTESIAN_POINT('',(33.187652576103,-53.70104404678,13.59));
#94 = CARTESIAN_POINT('',(32.799084837309,-53.59447772291,13.59));
#95 = CARTESIAN_POINT('',(32.404159273789,-53.51311802395,13.59));
#96 = CARTESIAN_POINT('',(32.005302477207,-53.45487613028,13.59));
#97 = CARTESIAN_POINT('',(31.604312926474,-53.41777743945,13.59));
#98 = CARTESIAN_POINT('',(31.202368600012,-53.4,13.59));
#99 = CARTESIAN_POINT('',(30.8,-53.4,13.59));
#100 = ORIENTED_EDGE('',*,*,#101,.F.);
#101 = EDGE_CURVE('',#22,#67,#102,.T.);
#102 = LINE('',#103,#104);
#103 = CARTESIAN_POINT('',(36.3,-57.03,0.));
#104 = VECTOR('',#105,1.);
#105 = DIRECTION('',(0.,0.,1.));
#106 = SURFACE_OF_LINEAR_EXTRUSION('',#107,#112);
#107 = B_SPLINE_CURVE_WITH_KNOTS('',3,(#108,#109,#110,#111),
  .UNSPECIFIED.,.F.,.F.,(4,4),(0.,1.),.PIECEWISE_BEZIER_KNOTS.);
#108 = CARTESIAN_POINT('',(30.8,-53.4,0.));
#109 = CARTESIAN_POINT('',(34.45,-53.4,0.));
#110 = CARTESIAN_POINT('',(36.3,-55.32,0.));
#111 = CARTESIAN_POINT('',(36.3,-57.03,0.));
#112 = VECTOR('',#113,1.);
#113 = DIRECTION('',(-0.,-0.,-1.));
#114 = ADVANCED_FACE('',(#115),#189,.F.);
#115 = FACE_BOUND('',#116,.F.);
#116 = EDGE_LOOP('',(#117,#188));
#117 = ORIENTED_EDGE('',*,*,#118,.T.);
#118 = EDGE_CURVE('',#24,#22,#119,.T.);
#119 = B_SPLINE_CURVE_WITH_KNOTS('',7,(#120,#121,#122,#123,#124,#125,
    #126,#127,#128,#129,#130,#131,#132,#133,#134,#135,#136,#137,#138,
    #139,#140,#141,#142,#143,#144,#145,#146,#147,#148,#149,#150,#151,
    #152,#153,#154,#155,#156,#157,#158,#159,#160,#161,#162,#163,#164,
    #165,#166,#167,#168,#169,#170,#171,#172,#173,#174,#175,#176,#177,
    #178,#179,#180,#181,#182,#183,#184,#185,#186,#187),.UNSPECIFIED.,.F.
  ,.F.,(8,6,6,6,6,6,6,6,6,6,6,8),(0.,0.210030095682,0.37214113996,
    0.526965898017,0.618153904779,0.671886308622,0.79601577085,
    0.847577982248,0.916085617704,0.958546271499,0.975463051861,1.),
  .UNSPECIFIED.);
#120 = CARTESIAN_POINT('',(30.8,-53.4,13.19));
#121 = CARTESIAN_POINT('',(30.8,-53.72415751969,13.19));
#122 = CARTESIAN_POINT('',(30.808033804129,-54.04821775495,13.19));
#123 = CARTESIAN_POINT('',(30.824868538006,-54.37204860869,13.19));
#124 = CARTESIAN_POINT('',(30.851420038571,-54.69532668015,13.19));
#125 = CARTESIAN_POINT('',(30.888784767768,-55.01753248673,13.19));
#126 = CARTESIAN_POINT('',(30.938252062239,-55.33794963597,13.19));
#127 = CARTESIAN_POINT('',(31.050287371584,-55.90085517479,13.19));
#128 = CARTESIAN_POINT('',(31.107267475085,-56.14432109367,13.19));
#129 = CARTESIAN_POINT('',(31.17318314284,-56.38567996713,13.19));
#130 = CARTESIAN_POINT('',(31.248902945679,-56.62428013956,13.19));
#131 = CARTESIAN_POINT('',(31.335376920941,-56.8591904953,13.19));
#132 = CARTESIAN_POINT('',(31.433642884095,-57.08919685886,13.19));
#133 = CARTESIAN_POINT('',(31.651090441136,-57.52632229186,13.19));
#134 = CARTESIAN_POINT('',(31.769068278395,-57.73387430115,13.19));
#135 = CARTESIAN_POINT('',(31.899803218929,-57.93414977375,13.19));
#136 = CARTESIAN_POINT('',(32.044200574007,-58.12519371586,13.19));
#137 = CARTESIAN_POINT('',(32.20292861369,-58.30449165159,13.19));
#138 = CARTESIAN_POINT('',(32.376200118627,-58.46914305037,13.19));
#139 = CARTESIAN_POINT('',(32.673774270239,-58.70265915931,13.19));
#140 = CARTESIAN_POINT('',(32.788897553386,-58.78305181197,13.19));
#141 = CARTESIAN_POINT('',(32.908656586861,-58.85660991138,13.19));
#142 = CARTESIAN_POINT('',(33.032758123492,-58.92267748728,13.19));
#143 = CARTESIAN_POINT('',(33.160789387826,-58.98063893381,13.19));
#144 = CARTESIAN_POINT('',(33.292201061402,-59.02995228023,13.19));
#145 = CARTESIAN_POINT('',(33.505297148081,-59.09390105836,13.19));
#146 = CARTESIAN_POINT('',(33.585242327832,-59.11446236172,13.19));
#147 = CARTESIAN_POINT('',(33.66598128917,-59.13178772776,13.19));
#148 = CARTESIAN_POINT('',(33.74736466979,-59.14580628077,13.19));
#149 = CARTESIAN_POINT('',(33.829235120169,-59.15646310545,13.19));
#150 = CARTESIAN_POINT('',(33.91142730356,-59.16371924691,13.19));
#151 = CARTESIAN_POINT('',(34.183986325254,-59.17640524458,13.19));
#152 = CARTESIAN_POINT('',(34.375020995075,-59.16698795643,13.19));
#153 = CARTESIAN_POINT('',(34.564723014248,-59.1390085591,13.19));
#154 = CARTESIAN_POINT('',(34.750974770115,-59.09264512263,13.19));
#155 = CARTESIAN_POINT('',(34.931653570845,-59.02835518152,13.19));
#156 = CARTESIAN_POINT('',(35.104624825661,-58.94681185584,13.19));
#157 = CARTESIAN_POINT('',(35.335531558937,-58.80832173196,13.19));
#158 = CARTESIAN_POINT('',(35.401607058786,-58.7648613466,13.19));
#159 = CARTESIAN_POINT('',(35.465840525868,-58.71865143346,13.19));
#160 = CARTESIAN_POINT('',(35.528080868583,-58.66976606262,13.19));
#161 = CARTESIAN_POINT('',(35.588177924423,-58.61828824137,13.19));
#162 = CARTESIAN_POINT('',(35.645983743988,-58.56431138477,13.19));
#163 = CARTESIAN_POINT('',(35.774920866168,-58.43304453355,13.19));
#164 = CARTESIAN_POINT('',(35.844195715835,-58.35391521642,13.19));
#165 = CARTESIAN_POINT('',(35.908827684326,-58.27080980069,13.19));
#166 = CARTESIAN_POINT('',(35.968493044848,-58.18401744332,13.19));
#167 = CARTESIAN_POINT('',(36.022898885704,-58.09386177634,13.19));
#168 = CARTESIAN_POINT('',(36.07179459102,-58.00070820074,13.19));
#169 = CARTESIAN_POINT('',(36.141763895527,-57.84564201888,13.19));
#170 = CARTESIAN_POINT('',(36.166349230618,-57.78531353003,13.19));
#171 = CARTESIAN_POINT('',(36.188701815903,-57.72408945049,13.19));
#172 = CARTESIAN_POINT('',(36.208788127025,-57.66207036257,13.19));
#173 = CARTESIAN_POINT('',(36.226586304636,-57.59935870384,13.19));
#174 = CARTESIAN_POINT('',(36.242086154402,-57.53605876718,13.19));
#175 = CARTESIAN_POINT('',(36.260549361009,-57.44686524064,13.19));
#176 = CARTESIAN_POINT('',(36.265445057241,-57.42137700097,13.19));
#177 = CARTESIAN_POINT('',(36.269976376031,-57.39581855367,13.19));
#178 = CARTESIAN_POINT('',(36.274143758214,-57.3701964062,13.19));
#179 = CARTESIAN_POINT('',(36.277947945128,-57.34451700157,13.19));
#180 = CARTESIAN_POINT('',(36.28138997861,-57.31878671834,13.19));
#181 = CARTESIAN_POINT('',(36.288940360755,-57.25562673647,13.19));
#182 = CARTESIAN_POINT('',(36.292650393115,-57.21814775035,13.19));
#183 = CARTESIAN_POINT('',(36.295605474986,-57.18059421852,13.19));
#184 = CARTESIAN_POINT('',(36.297810930826,-57.14298485415,13.19));
#185 = CARTESIAN_POINT('',(36.299273232645,-57.10533777723,13.19));
#186 = CARTESIAN_POINT('',(36.3,-57.06767051461,13.19));
#187 = CARTESIAN_POINT('',(36.3,-57.03,13.19));
#188 = ORIENTED_EDGE('',*,*,#21,.T.);
#189 = PLANE('',#190);
#190 = AXIS2_PLACEMENT_3D('',#191,#192,#193);
#191 = CARTESIAN_POINT('',(0.,-120.,13.19));
#192 = DIRECTION('',(0.,0.,1.));
#193 = DIRECTION('',(1.,0.,0.));
#194 = ADVANCED_FACE('',(#195),#271,.T.);
#195 = FACE_BOUND('',#196,.T.);
#196 = EDGE_LOOP('',(#197,#198,#199,#270));
#197 = ORIENTED_EDGE('',*,*,#118,.T.);
#198 = ORIENTED_EDGE('',*,*,#101,.T.);
#199 = ORIENTED_EDGE('',*,*,#200,.F.);
#200 = EDGE_CURVE('',#59,#67,#201,.T.);
#201 = B_SPLINE_CURVE_WITH_KNOTS('',7,(#202,#203,#204,#205,#206,#207,
    #208,#209,#210,#211,#212,#213,#214,#215,#216,#217,#218,#219,#220,
    #221,#222,#223,#224,#225,#226,#227,#228,#229,#230,#231,#232,#233,
    #234,#235,#236,#237,#238,#239,#240,#241,#242,#243,#244,#245,#246,
    #247,#248,#249,#250,#251,#252,#253,#254,#255,#256,#257,#258,#259,
    #260,#261,#262,#263,#264,#265,#266,#267,#268,#269),.UNSPECIFIED.,.F.
  ,.F.,(8,6,6,6,6,6,6,6,6,6,6,8),(0.,0.210030095682,0.37214113996,
    0.526965898017,0.618153904779,0.671886308622,0.79601577085,
    0.847577982248,0.916085617704,0.958546271499,0.975463051861,1.),
  .UNSPECIFIED.);
#202 = CARTESIAN_POINT('',(30.8,-53.4,13.59));
#203 = CARTESIAN_POINT('',(30.8,-53.72415751969,13.59));
#204 = CARTESIAN_POINT('',(30.808033804129,-54.04821775495,13.59));
#205 = CARTESIAN_POINT('',(30.824868538006,-54.37204860869,13.59));
#206 = CARTESIAN_POINT('',(30.851420038571,-54.69532668015,13.59));
#207 = CARTESIAN_POINT('',(30.888784767768,-55.01753248673,13.59));
#208 = CARTESIAN_POINT('',(30.938252062239,-55.33794963597,13.59));
#209 = CARTESIAN_POINT('',(31.050287371584,-55.90085517479,13.59));
#210 = CARTESIAN_POINT('',(31.107267475085,-56.14432109367,13.59));
#211 = CARTESIAN_POINT('',(31.17318314284,-56.38567996713,13.59));
#212 = CARTESIAN_POINT('',(31.248902945679,-56.62428013956,13.59));
#213 = CARTESIAN_POINT('',(31.335376920941,-56.8591904953,13.59));
#214 = CARTESIAN_POINT('',(31.433642884095,-57.08919685886,13.59));
#215 = CARTESIAN_POINT('',(31.651090441136,-57.52632229186,13.59));
#216 = CARTESIAN_POINT('',(31.769068278395,-57.73387430115,13.59));
#217 = CARTESIAN_POINT('',(31.899803218929,-57.93414977375,13.59));
#218 = CARTESIAN_POINT('',(32.044200574007,-58.12519371586,13.59));
#219 = CARTESIAN_POINT('',(32.20292861369,-58.30449165159,13.59));
#220 = CARTESIAN_POINT('',(32.376200118627,-58.46914305037,13.59));
#221 = CARTESIAN_POINT('',(32.673774270239,-58.70265915931,13.59));
#222 = CARTESIAN_POINT('',(32.788897553386,-58.78305181197,13.59));
#223 = CARTESIAN_POINT('',(32.908656586861,-58.85660991138,13.59));
#224 = CARTESIAN_POINT('',(33.032758123492,-58.92267748728,13.59));
#225 = CARTESIAN_POINT('',(33.160789387826,-58.98063893381,13.59));
#226 = CARTESIAN_POINT('',(33.292201061402,-59.02995228023,13.59));
#227 = CARTESIAN_POINT('',(33.505297148081,-59.09390105836,13.59));
#228 = CARTESIAN_POINT('',(33.585242327832,-59.11446236172,13.59));
#229 = CARTESIAN_POINT('',(33.66598128917,-59.13178772776,13.59));
#230 = CARTESIAN_POINT('',(33.74736466979,-59.14580628077,13.59));
#231 = CARTESIAN_POINT('',(33.829235120169,-59.15646310545,13.59));
#232 = CARTESIAN_POINT('',(33.91142730356,-59.16371924691,13.59));
#233 = CARTESIAN_POINT('',(34.183986325254,-59.17640524458,13.59));
#234 = CARTESIAN_POINT('',(34.375020995075,-59.16698795643,13.59));
#235 = CARTESIAN_POINT('',(34.564723014248,-59.1390085591,13.59));
#236 = CARTESIAN_POINT('',(34.750974770115,-59.09264512263,13.59));
#237 = CARTESIAN_POINT('',(34.931653570845,-59.02835518152,13.59));
#238 = CARTESIAN_POINT('',(35.104624825661,-58.94681185584,13.59));
#239 = CARTESIAN_POINT('',(35.335531558937,-58.80832173196,13.59));
#240 = CARTESIAN_POINT('',(35.401607058786,-58.7648613466,13.59));
#241 = CARTESIAN_POINT('',(35.465840525868,-58.71865143346,13.59));
#242 = CARTESIAN_POINT('',(35.528080868583,-58.66976606262,13.59));
#243 = CARTESIAN_POINT('',(35.588177924423,-58.61828824137,13.59));
#244 = CARTESIAN_POINT('',(35.645983743988,-58.56431138477,13.59));
#245 = CARTESIAN_POINT('',(35.774920866168,-58.43304453355,13.59));
#246 = CARTESIAN_POINT('',(35.844195715835,-58.35391521642,13.59));
#247 = CARTESIAN_POINT('',(35.908827684326,-58.27080980069,13.59));
#248 = CARTESIAN_POINT('',(35.968493044848,-58.18401744332,13.59));
#249 = CARTESIAN_POINT('',(36.022898885704,-58.09386177634,13.59));
#250 = CARTESIAN_POINT('',(36.07179459102,-58.00070820074,13.59));
#251 = CARTESIAN_POINT('',(36.141763895527,-57.84564201888,13.59));
#252 = CARTESIAN_POINT('',(36.166349230618,-57.78531353003,13.59));
#253 = CARTESIAN_POINT('',(36.188701815903,-57.72408945049,13.59));
#254 = CARTESIAN_POINT('',(36.208788127025,-57.66207036257,13.59));
#255 = CARTESIAN_POINT('',(36.226586304636,-57.59935870384,13.59));
#256 = CARTESIAN_POINT('',(36.242086154402,-57.53605876718,13.59));
#257 = CARTESIAN_POINT('',(36.260549361009,-57.44686524064,13.59));
#258 = CARTESIAN_POINT('',(36.265445057241,-57.42137700097,13.59));
#259 = CARTESIAN_POINT('',(36.269976376031,-57.39581855367,13.59));
#260 = CARTESIAN_POINT('',(36.274143758214,-57.3701964062,13.59));
#261 = CARTESIAN_POINT('',(36.277947945128,-57.34451700157,13.59));
#262 = CARTESIAN_POINT('',(36.28138997861,-57.31878671834,13.59));
#263 = CARTESIAN_POINT('',(36.288940360755,-57.25562673647,13.59));
#264 = CARTESIAN_POINT('',(36.292650393115,-57.21814775035,13.59));
#265 = CARTESIAN_POINT('',(36.295605474986,-57.18059421852,13.59));
#266 = CARTESIAN_POINT('',(36.297810930826,-57.14298485415,13.59));
#267 = CARTESIAN_POINT('',(36.299273232645,-57.10533777723,13.59));
#268 = CARTESIAN_POINT('',(36.3,-57.06767051461,13.59));
#269 = CARTESIAN_POINT('',(36.3,-57.03,13.59));
#270 = ORIENTED_EDGE('',*,*,#58,.F.);
#271 = SURFACE_OF_LINEAR_EXTRUSION('',#272,#277);
#272 = B_SPLINE_CURVE_WITH_KNOTS('',3,(#273,#274,#275,#276),
  .UNSPECIFIED.,.F.,.F.,(4,4),(0.,1.),.PIECEWISE_BEZIER_KNOTS.);
#273 = CARTESIAN_POINT('',(36.3,-57.03,0.));
#274 = CARTESIAN_POINT('',(36.3,-59.92,0.));
#275 = CARTESIAN_POINT('',(30.8,-60.88,0.));
#276 = CARTESIAN_POINT('',(30.8,-53.4,0.));
#277 = VECTOR('',#278,1.);
#278 = DIRECTION('',(-0.,-0.,-1.));
#279 = ADVANCED_FACE('',(#280),#284,.T.);
#280 = FACE_BOUND('',#281,.T.);
#281 = EDGE_LOOP('',(#282,#283));
#282 = ORIENTED_EDGE('',*,*,#200,.T.);
#283 = ORIENTED_EDGE('',*,*,#66,.T.);
#284 = PLANE('',#285);
#285 = AXIS2_PLACEMENT_3D('',#286,#287,#288);
#286 = CARTESIAN_POINT('',(0.,-120.,13.59));
#287 = DIRECTION('',(0.,0.,1.));
#288 = DIRECTION('',(1.,0.,0.));
#289 = MANIFOLD_SOLID_BREP('',#290);
#290 = CLOSED_SHELL('',(#291,#388,#468,#553));
#291 = ADVANCED_FACE('',(#292),#380,.F.);
#292 = FACE_BOUND('',#293,.F.);
#293 = EDGE_LOOP('',(#294,#331,#339,#374));
#294 = ORIENTED_EDGE('',*,*,#295,.T.);
#295 = EDGE_CURVE('',#296,#298,#300,.T.);
#296 = VERTEX_POINT('',#297);
#297 = CARTESIAN_POINT('',(37.7,-57.03,13.19));
#298 = VERTEX_POINT('',#299);
#299 = CARTESIAN_POINT('',(43.2,-53.4,13.19));
#300 = B_SPLINE_CURVE_WITH_KNOTS('',8,(#301,#302,#303,#304,#305,#306,
    #307,#308,#309,#310,#311,#312,#313,#314,#315,#316,#317,#318,#319,
    #320,#321,#322,#323,#324,#325,#326,#327,#328,#329,#330),
  .UNSPECIFIED.,.F.,.F.,(9,7,7,7,9),(0.,0.152812604418,0.319706985369,
    0.560194692454,1.),.UNSPECIFIED.);
#301 = CARTESIAN_POINT('',(37.7,-57.03,13.19));
#302 = CARTESIAN_POINT('',(37.7,-56.89216034531,13.19));
#303 = CARTESIAN_POINT('',(37.709158931635,-56.75428676468,13.19));
#304 = CARTESIAN_POINT('',(37.727232417806,-56.61708647352,13.19));
#305 = CARTESIAN_POINT('',(37.753870921091,-56.48117720869,13.19));
#306 = CARTESIAN_POINT('',(37.788659771747,-56.34709334722,13.19));
#307 = CARTESIAN_POINT('',(37.831149308182,-56.21529101196,13.19));
#308 = CARTESIAN_POINT('',(37.880875129891,-56.08615216412,13.19));
#309 = CARTESIAN_POINT('',(37.999067691574,-55.82219706562,13.19));
#310 = CARTESIAN_POINT('',(38.068840843084,-55.68795186412,13.19));
#311 = CARTESIAN_POINT('',(38.146095770564,-55.55761892837,13.19));
#312 = CARTESIAN_POINT('',(38.230247543493,-55.43148329738,13.19));
#313 = CARTESIAN_POINT('',(38.320729369145,-55.30975573378,13.19));
#314 = CARTESIAN_POINT('',(38.417003514082,-55.19258025859,13.19));
#315 = CARTESIAN_POINT('',(38.518572225666,-55.08004168611,13.19));
#316 = CARTESIAN_POINT('',(38.778330201612,-54.81673919712,13.19));
#317 = CARTESIAN_POINT('',(38.941683675734,-54.67105562148,13.19));
#318 = CARTESIAN_POINT('',(39.113731256494,-54.53517985279,13.19));
#319 = CARTESIAN_POINT('',(39.29327711215,-54.40906403035,13.19));
#320 = CARTESIAN_POINT('',(39.479248588158,-54.29256118576,13.19));
#321 = CARTESIAN_POINT('',(39.670703659205,-54.18543908143,13.19));
#322 = CARTESIAN_POINT('',(39.866844643778,-54.0874017134,13.19));
#323 = CARTESIAN_POINT('',(40.433153278707,-53.8348367836,13.19));
#324 = CARTESIAN_POINT('',(40.812347423893,-53.70104404678,13.19));
#325 = CARTESIAN_POINT('',(41.2009151627,-53.59447772291,13.19));
#326 = CARTESIAN_POINT('',(41.5958407262,-53.51311802395,13.19));
#327 = CARTESIAN_POINT('',(41.994697522803,-53.45487613028,13.19));
#328 = CARTESIAN_POINT('',(42.395687073521,-53.41777743945,13.19));
#329 = CARTESIAN_POINT('',(42.797631399989,-53.4,13.19));
#330 = CARTESIAN_POINT('',(43.2,-53.4,13.19));
#331 = ORIENTED_EDGE('',*,*,#332,.T.);
#332 = EDGE_CURVE('',#298,#333,#335,.T.);
#333 = VERTEX_POINT('',#334);
#334 = CARTESIAN_POINT('',(43.2,-53.4,13.59));
#335 = LINE('',#336,#337);
#336 = CARTESIAN_POINT('',(43.2,-53.4,0.));
#337 = VECTOR('',#338,1.);
#338 = DIRECTION('',(0.,0.,1.));
#339 = ORIENTED_EDGE('',*,*,#340,.F.);
#340 = EDGE_CURVE('',#341,#333,#343,.T.);
#341 = VERTEX_POINT('',#342);
#342 = CARTESIAN_POINT('',(37.7,-57.03,13.59));
#343 = B_SPLINE_CURVE_WITH_KNOTS('',8,(#344,#345,#346,#347,#348,#349,
    #350,#351,#352,#353,#354,#355,#356,#357,#358,#359,#360,#361,#362,
    #363,#364,#365,#366,#367,#368,#369,#370,#371,#372,#373),
  .UNSPECIFIED.,.F.,.F.,(9,7,7,7,9),(0.,0.152812604418,0.319706985369,
    0.560194692454,1.),.UNSPECIFIED.);
#344 = CARTESIAN_POINT('',(37.7,-57.03,13.59));
#345 = CARTESIAN_POINT('',(37.7,-56.89216034531,13.59));
#346 = CARTESIAN_POINT('',(37.709158931635,-56.75428676468,13.59));
#347 = CARTESIAN_POINT('',(37.727232417806,-56.61708647352,13.59));
#348 = CARTESIAN_POINT('',(37.753870921091,-56.48117720869,13.59));
#349 = CARTESIAN_POINT('',(37.788659771747,-56.34709334722,13.59));
#350 = CARTESIAN_POINT('',(37.831149308182,-56.21529101196,13.59));
#351 = CARTESIAN_POINT('',(37.880875129891,-56.08615216412,13.59));
#352 = CARTESIAN_POINT('',(37.999067691574,-55.82219706562,13.59));
#353 = CARTESIAN_POINT('',(38.068840843084,-55.68795186412,13.59));
#354 = CARTESIAN_POINT('',(38.146095770564,-55.55761892837,13.59));
#355 = CARTESIAN_POINT('',(38.230247543493,-55.43148329738,13.59));
#356 = CARTESIAN_POINT('',(38.320729369145,-55.30975573378,13.59));
#357 = CARTESIAN_POINT('',(38.417003514082,-55.19258025859,13.59));
#358 = CARTESIAN_POINT('',(38.518572225666,-55.08004168611,13.59));
#359 = CARTESIAN_POINT('',(38.778330201612,-54.81673919712,13.59));
#360 = CARTESIAN_POINT('',(38.941683675734,-54.67105562148,13.59));
#361 = CARTESIAN_POINT('',(39.113731256494,-54.53517985279,13.59));
#362 = CARTESIAN_POINT('',(39.29327711215,-54.40906403035,13.59));
#363 = CARTESIAN_POINT('',(39.479248588158,-54.29256118576,13.59));
#364 = CARTESIAN_POINT('',(39.670703659205,-54.18543908143,13.59));
#365 = CARTESIAN_POINT('',(39.866844643778,-54.0874017134,13.59));
#366 = CARTESIAN_POINT('',(40.433153278707,-53.8348367836,13.59));
#367 = CARTESIAN_POINT('',(40.812347423893,-53.70104404678,13.59));
#368 = CARTESIAN_POINT('',(41.2009151627,-53.59447772291,13.59));
#369 = CARTESIAN_POINT('',(41.5958407262,-53.51311802395,13.59));
#370 = CARTESIAN_POINT('',(41.994697522803,-53.45487613028,13.59));
#371 = CARTESIAN_POINT('',(42.395687073521,-53.41777743945,13.59));
#372 = CARTESIAN_POINT('',(42.797631399989,-53.4,13.59));
#373 = CARTESIAN_POINT('',(43.2,-53.4,13.59));
#374 = ORIENTED_EDGE('',*,*,#375,.F.);
#375 = EDGE_CURVE('',#296,#341,#376,.T.);
#376 = LINE('',#377,#378);
#377 = CARTESIAN_POINT('',(37.7,-57.03,0.));
#378 = VECTOR('',#379,1.);
#379 = DIRECTION('',(0.,0.,1.));
#380 = SURFACE_OF_LINEAR_EXTRUSION('',#381,#386);
#381 = B_SPLINE_CURVE_WITH_KNOTS('',3,(#382,#383,#384,#385),
  .UNSPECIFIED.,.F.,.F.,(4,4),(0.,1.),.PIECEWISE_BEZIER_KNOTS.);
#382 = CARTESIAN_POINT('',(43.2,-53.4,0.));
#383 = CARTESIAN_POINT('',(39.55,-53.4,0.));
#384 = CARTESIAN_POINT('',(37.7,-55.32,0.));
#385 = CARTESIAN_POINT('',(37.7,-57.03,0.));
#386 = VECTOR('',#387,1.);
#387 = DIRECTION('',(-0.,-0.,-1.));
#388 = ADVANCED_FACE('',(#389),#463,.F.);
#389 = FACE_BOUND('',#390,.F.);
#390 = EDGE_LOOP('',(#391,#392));
#391 = ORIENTED_EDGE('',*,*,#295,.F.);
#392 = ORIENTED_EDGE('',*,*,#393,.F.);
#393 = EDGE_CURVE('',#298,#296,#394,.T.);
#394 = B_SPLINE_CURVE_WITH_KNOTS('',7,(#395,#396,#397,#398,#399,#400,
    #401,#402,#403,#404,#405,#406,#407,#408,#409,#410,#411,#412,#413,
    #414,#415,#416,#417,#418,#419,#420,#421,#422,#423,#424,#425,#426,
    #427,#428,#429,#430,#431,#432,#433,#434,#435,#436,#437,#438,#439,
    #440,#441,#442,#443,#444,#445,#446,#447,#448,#449,#450,#451,#452,
    #453,#454,#455,#456,#457,#458,#459,#460,#461,#462),.UNSPECIFIED.,.F.
  ,.F.,(8,6,6,6,6,6,6,6,6,6,6,8),(0.,0.210030095682,0.37214113996,
    0.526965898017,0.618153904779,0.671886308622,0.79601577085,
    0.847577982248,0.916085617704,0.958546271499,0.975463051861,1.),
  .UNSPECIFIED.);
#395 = CARTESIAN_POINT('',(43.2,-53.4,13.19));
#396 = CARTESIAN_POINT('',(43.2,-53.72415751969,13.19));
#397 = CARTESIAN_POINT('',(43.191966195871,-54.04821775495,13.19));
#398 = CARTESIAN_POINT('',(43.175131461994,-54.37204860869,13.19));
#399 = CARTESIAN_POINT('',(43.148579961429,-54.69532668015,13.19));
#400 = CARTESIAN_POINT('',(43.111215232233,-55.01753248673,13.19));
#401 = CARTESIAN_POINT('',(43.061747937761,-55.33794963597,13.19));
#402 = CARTESIAN_POINT('',(42.949712628416,-55.90085517479,13.19));
#403 = CARTESIAN_POINT('',(42.892732524915,-56.14432109367,13.19));
#404 = CARTESIAN_POINT('',(42.82681685716,-56.38567996713,13.19));
#405 = CARTESIAN_POINT('',(42.751097054321,-56.62428013956,13.19));
#406 = CARTESIAN_POINT('',(42.664623079059,-56.8591904953,13.19));
#407 = CARTESIAN_POINT('',(42.566357115905,-57.08919685886,13.19));
#408 = CARTESIAN_POINT('',(42.348909558864,-57.52632229186,13.19));
#409 = CARTESIAN_POINT('',(42.230931721605,-57.73387430115,13.19));
#410 = CARTESIAN_POINT('',(42.100196781071,-57.93414977375,13.19));
#411 = CARTESIAN_POINT('',(41.955799425993,-58.12519371586,13.19));
#412 = CARTESIAN_POINT('',(41.797071386311,-58.30449165159,13.19));
#413 = CARTESIAN_POINT('',(41.623799881372,-58.46914305037,13.19));
#414 = CARTESIAN_POINT('',(41.326225729761,-58.70265915931,13.19));
#415 = CARTESIAN_POINT('',(41.211102446614,-58.78305181197,13.19));
#416 = CARTESIAN_POINT('',(41.091343413139,-58.85660991138,13.19));
#417 = CARTESIAN_POINT('',(40.967241876508,-58.92267748728,13.19));
#418 = CARTESIAN_POINT('',(40.839210612174,-58.98063893381,13.19));
#419 = CARTESIAN_POINT('',(40.707798938598,-59.02995228023,13.19));
#420 = CARTESIAN_POINT('',(40.494702851919,-59.09390105836,13.19));
#421 = CARTESIAN_POINT('',(40.414757672168,-59.11446236172,13.19));
#422 = CARTESIAN_POINT('',(40.33401871083,-59.13178772776,13.19));
#423 = CARTESIAN_POINT('',(40.25263533021,-59.14580628077,13.19));
#424 = CARTESIAN_POINT('',(40.170764879831,-59.15646310545,13.19));
#425 = CARTESIAN_POINT('',(40.08857269644,-59.16371924691,13.19));
#426 = CARTESIAN_POINT('',(39.816013674746,-59.17640524458,13.19));
#427 = CARTESIAN_POINT('',(39.624979004925,-59.16698795643,13.19));
#428 = CARTESIAN_POINT('',(39.435276985752,-59.1390085591,13.19));
#429 = CARTESIAN_POINT('',(39.249025229886,-59.09264512263,13.19));
#430 = CARTESIAN_POINT('',(39.068346429155,-59.02835518152,13.19));
#431 = CARTESIAN_POINT('',(38.895375174339,-58.94681185584,13.19));
#432 = CARTESIAN_POINT('',(38.664468441063,-58.80832173196,13.19));
#433 = CARTESIAN_POINT('',(38.598392941214,-58.7648613466,13.19));
#434 = CARTESIAN_POINT('',(38.534159474132,-58.71865143346,13.19));
#435 = CARTESIAN_POINT('',(38.471919131417,-58.66976606262,13.19));
#436 = CARTESIAN_POINT('',(38.411822075577,-58.61828824137,13.19));
#437 = CARTESIAN_POINT('',(38.354016256012,-58.56431138477,13.19));
#438 = CARTESIAN_POINT('',(38.225079133832,-58.43304453355,13.19));
#439 = CARTESIAN_POINT('',(38.155804284165,-58.35391521642,13.19));
#440 = CARTESIAN_POINT('',(38.091172315674,-58.27080980069,13.19));
#441 = CARTESIAN_POINT('',(38.031506955152,-58.18401744332,13.19));
#442 = CARTESIAN_POINT('',(37.977101114296,-58.09386177635,13.19));
#443 = CARTESIAN_POINT('',(37.92820540898,-58.00070820074,13.19));
#444 = CARTESIAN_POINT('',(37.858236104473,-57.84564201888,13.19));
#445 = CARTESIAN_POINT('',(37.833650769382,-57.78531353003,13.19));
#446 = CARTESIAN_POINT('',(37.811298184097,-57.72408945049,13.19));
#447 = CARTESIAN_POINT('',(37.791211872975,-57.66207036257,13.19));
#448 = CARTESIAN_POINT('',(37.773413695364,-57.59935870384,13.19));
#449 = CARTESIAN_POINT('',(37.757913845598,-57.53605876718,13.19));
#450 = CARTESIAN_POINT('',(37.739450638991,-57.44686524064,13.19));
#451 = CARTESIAN_POINT('',(37.734554942759,-57.42137700097,13.19));
#452 = CARTESIAN_POINT('',(37.730023623969,-57.39581855367,13.19));
#453 = CARTESIAN_POINT('',(37.725856241786,-57.3701964062,13.19));
#454 = CARTESIAN_POINT('',(37.722052054872,-57.34451700157,13.19));
#455 = CARTESIAN_POINT('',(37.71861002139,-57.31878671834,13.19));
#456 = CARTESIAN_POINT('',(37.711059639245,-57.25562673647,13.19));
#457 = CARTESIAN_POINT('',(37.707349606885,-57.21814775035,13.19));
#458 = CARTESIAN_POINT('',(37.704394525014,-57.18059421852,13.19));
#459 = CARTESIAN_POINT('',(37.702189069174,-57.14298485415,13.19));
#460 = CARTESIAN_POINT('',(37.700726767355,-57.10533777723,13.19));
#461 = CARTESIAN_POINT('',(37.7,-57.06767051461,13.19));
#462 = CARTESIAN_POINT('',(37.7,-57.03,13.19));
#463 = PLANE('',#464);
#464 = AXIS2_PLACEMENT_3D('',#465,#466,#467);
#465 = CARTESIAN_POINT('',(0.,-120.,13.19));
#466 = DIRECTION('',(0.,0.,1.));
#467 = DIRECTION('',(1.,0.,0.));
#468 = ADVANCED_FACE('',(#469),#545,.F.);
#469 = FACE_BOUND('',#470,.F.);
#470 = EDGE_LOOP('',(#471,#472,#473,#544));
#471 = ORIENTED_EDGE('',*,*,#393,.T.);
#472 = ORIENTED_EDGE('',*,*,#375,.T.);
#473 = ORIENTED_EDGE('',*,*,#474,.F.);
#474 = EDGE_CURVE('',#333,#341,#475,.T.);
#475 = B_SPLINE_CURVE_WITH_KNOTS('',7,(#476,#477,#478,#479,#480,#481,
    #482,#483,#484,#485,#486,#487,#488,#489,#490,#491,#492,#493,#494,
    #495,#496,#497,#498,#499,#500,#501,#502,#503,#504,#505,#506,#507,
    #508,#509,#510,#511,#512,#513,#514,#515,#516,#517,#518,#519,#520,
    #521,#522,#523,#524,#525,#526,#527,#528,#529,#530,#531,#532,#533,
    #534,#535,#536,#537,#538,#539,#540,#541,#542,#543),.UNSPECIFIED.,.F.
  ,.F.,(8,6,6,6,6,6,6,6,6,6,6,8),(0.,0.210030095682,0.37214113996,
    0.526965898017,0.618153904779,0.671886308622,0.79601577085,
    0.847577982248,0.916085617704,0.958546271499,0.975463051861,1.),
  .UNSPECIFIED.);
#476 = CARTESIAN_POINT('',(43.2,-53.4,13.59));
#477 = CARTESIAN_POINT('',(43.2,-53.72415751969,13.59));
#478 = CARTESIAN_POINT('',(43.191966195871,-54.04821775495,13.59));
#479 = CARTESIAN_POINT('',(43.175131461994,-54.37204860869,13.59));
#480 = CARTESIAN_POINT('',(43.148579961429,-54.69532668015,13.59));
#481 = CARTESIAN_POINT('',(43.111215232233,-55.01753248673,13.59));
#482 = CARTESIAN_POINT('',(43.061747937761,-55.33794963597,13.59));
#483 = CARTESIAN_POINT('',(42.949712628416,-55.90085517479,13.59));
#484 = CARTESIAN_POINT('',(42.892732524915,-56.14432109367,13.59));
#485 = CARTESIAN_POINT('',(42.82681685716,-56.38567996713,13.59));
#486 = CARTESIAN_POINT('',(42.751097054321,-56.62428013956,13.59));
#487 = CARTESIAN_POINT('',(42.664623079059,-56.8591904953,13.59));
#488 = CARTESIAN_POINT('',(42.566357115905,-57.08919685886,13.59));
#489 = CARTESIAN_POINT('',(42.348909558864,-57.52632229186,13.59));
#490 = CARTESIAN_POINT('',(42.230931721605,-57.73387430115,13.59));
#491 = CARTESIAN_POINT('',(42.100196781071,-57.93414977375,13.59));
#492 = CARTESIAN_POINT('',(41.955799425993,-58.12519371586,13.59));
#493 = CARTESIAN_POINT('',(41.797071386311,-58.30449165159,13.59));
#494 = CARTESIAN_POINT('',(41.623799881372,-58.46914305037,13.59));
#495 = CARTESIAN_POINT('',(41.326225729761,-58.70265915931,13.59));
#496 = CARTESIAN_POINT('',(41.211102446614,-58.78305181197,13.59));
#497 = CARTESIAN_POINT('',(41.091343413139,-58.85660991138,13.59));
#498 = CARTESIAN_POINT('',(40.967241876508,-58.92267748728,13.59));
#499 = CARTESIAN_POINT('',(40.839210612174,-58.98063893381,13.59));
#500 = CARTESIAN_POINT('',(40.707798938598,-59.02995228023,13.59));
#501 = CARTESIAN_POINT('',(40.494702851919,-59.09390105836,13.59));
#502 = CARTESIAN_POINT('',(40.414757672168,-59.11446236172,13.59));
#503 = CARTESIAN_POINT('',(40.33401871083,-59.13178772776,13.59));
#504 = CARTESIAN_POINT('',(40.25263533021,-59.14580628077,13.59));
#505 = CARTESIAN_POINT('',(40.170764879831,-59.15646310545,13.59));
#506 = CARTESIAN_POINT('',(40.08857269644,-59.16371924691,13.59));
#507 = CARTESIAN_POINT('',(39.816013674746,-59.17640524458,13.59));
#508 = CARTESIAN_POINT('',(39.624979004925,-59.16698795643,13.59));
#509 = CARTESIAN_POINT('',(39.435276985752,-59.1390085591,13.59));
#510 = CARTESIAN_POINT('',(39.249025229886,-59.09264512263,13.59));
#511 = CARTESIAN_POINT('',(39.068346429155,-59.02835518152,13.59));
#512 = CARTESIAN_POINT('',(38.895375174339,-58.94681185584,13.59));
#513 = CARTESIAN_POINT('',(38.664468441063,-58.80832173196,13.59));
#514 = CARTESIAN_POINT('',(38.598392941214,-58.7648613466,13.59));
#515 = CARTESIAN_POINT('',(38.534159474132,-58.71865143346,13.59));
#516 = CARTESIAN_POINT('',(38.471919131417,-58.66976606262,13.59));
#517 = CARTESIAN_POINT('',(38.411822075577,-58.61828824137,13.59));
#518 = CARTESIAN_POINT('',(38.354016256012,-58.56431138477,13.59));
#519 = CARTESIAN_POINT('',(38.225079133832,-58.43304453355,13.59));
#520 = CARTESIAN_POINT('',(38.155804284165,-58.35391521642,13.59));
#521 = CARTESIAN_POINT('',(38.091172315674,-58.27080980069,13.59));
#522 = CARTESIAN_POINT('',(38.031506955152,-58.18401744332,13.59));
#523 = CARTESIAN_POINT('',(37.977101114296,-58.09386177635,13.59));
#524 = CARTESIAN_POINT('',(37.92820540898,-58.00070820074,13.59));
#525 = CARTESIAN_POINT('',(37.858236104473,-57.84564201888,13.59));
#526 = CARTESIAN_POINT('',(37.833650769382,-57.78531353003,13.59));
#527 = CARTESIAN_POINT('',(37.811298184097,-57.72408945049,13.59));
#528 = CARTESIAN_POINT('',(37.791211872975,-57.66207036257,13.59));
#529 = CARTESIAN_POINT('',(37.773413695364,-57.59935870384,13.59));
#530 = CARTESIAN_POINT('',(37.757913845598,-57.53605876718,13.59));
#531 = CARTESIAN_POINT('',(37.739450638991,-57.44686524064,13.59));
#532 = CARTESIAN_POINT('',(37.734554942759,-57.42137700097,13.59));
#533 = CARTESIAN_POINT('',(37.730023623969,-57.39581855367,13.59));
#534 = CARTESIAN_POINT('',(37.725856241786,-57.3701964062,13.59));
#535 = CARTESIAN_POINT('',(37.722052054872,-57.34451700157,13.59));
#536 = CARTESIAN_POINT('',(37.71861002139,-57.31878671834,13.59));
#537 = CARTESIAN_POINT('',(37.711059639245,-57.25562673647,13.59));
#538 = CARTESIAN_POINT('',(37.707349606885,-57.21814775035,13.59));
#539 = CARTESIAN_POINT('',(37.704394525014,-57.18059421852,13.59));
#540 = CARTESIAN_POINT('',(37.702189069174,-57.14298485415,13.59));
#541 = CARTESIAN_POINT('',(37.700726767355,-57.10533777723,13.59));
#542 = CARTESIAN_POINT('',(37.7,-57.06767051461,13.59));
#543 = CARTESIAN_POINT('',(37.7,-57.03,13.59));
#544 = ORIENTED_EDGE('',*,*,#332,.F.);
#545 = SURFACE_OF_LINEAR_EXTRUSION('',#546,#551);
#546 = B_SPLINE_CURVE_WITH_KNOTS('',3,(#547,#548,#549,#550),
  .UNSPECIFIED.,.F.,.F.,(4,4),(0.,1.),.PIECEWISE_BEZIER_KNOTS.);
#547 = CARTESIAN_POINT('',(37.7,-57.03,0.));
#548 = CARTESIAN_POINT('',(37.7,-59.92,0.));
#549 = CARTESIAN_POINT('',(43.2,-60.88,0.));
#550 = CARTESIAN_POINT('',(43.2,-53.4,0.));
#551 = VECTOR('',#552,1.);
#552 = DIRECTION('',(-0.,-0.,-1.));
#553 = ADVANCED_FACE('',(#554),#558,.T.);
#554 = FACE_BOUND('',#555,.T.);
#555 = EDGE_LOOP('',(#556,#557));
#556 = ORIENTED_EDGE('',*,*,#340,.F.);
#557 = ORIENTED_EDGE('',*,*,#474,.F.);
#558 = PLANE('',#559);
#559 = AXIS2_PLACEMENT_3D('',#560,#561,#562);
#560 = CARTESIAN_POINT('',(0.,-120.,13.59));
#561 = DIRECTION('',(0.,0.,1.));
#562 = DIRECTION('',(1.,0.,0.));
#563 = MANIFOLD_SOLID_BREP('',#564);
#564 = CLOSED_SHELL('',(#565,#662,#742,#827));
#565 = ADVANCED_FACE('',(#566),#654,.F.);
#566 = FACE_BOUND('',#567,.F.);
#567 = EDGE_LOOP('',(#568,#605,#613,#648));
#568 = ORIENTED_EDGE('',*,*,#569,.T.);
#569 = EDGE_CURVE('',#570,#572,#574,.T.);
#570 = VERTEX_POINT('',#571);
#571 = CARTESIAN_POINT('',(36.3,-62.17,13.19));
#572 = VERTEX_POINT('',#573);
#573 = CARTESIAN_POINT('',(30.8,-65.8,13.19));
#574 = B_SPLINE_CURVE_WITH_KNOTS('',8,(#575,#576,#577,#578,#579,#580,
    #581,#582,#583,#584,#585,#586,#587,#588,#589,#590,#591,#592,#593,
    #594,#595,#596,#597,#598,#599,#600,#601,#602,#603,#604),
  .UNSPECIFIED.,.F.,.F.,(9,7,7,7,9),(0.,0.152812604419,0.31970698537,
    0.560194692455,1.),.UNSPECIFIED.);
#575 = CARTESIAN_POINT('',(36.3,-62.17,13.19));
#576 = CARTESIAN_POINT('',(36.3,-62.30783965468,13.19));
#577 = CARTESIAN_POINT('',(36.290841068365,-62.44571323531,13.19));
#578 = CARTESIAN_POINT('',(36.272767582194,-62.58291352647,13.19));
#579 = CARTESIAN_POINT('',(36.246129078909,-62.7188227913,13.19));
#580 = CARTESIAN_POINT('',(36.211340228253,-62.85290665277,13.19));
#581 = CARTESIAN_POINT('',(36.168850691818,-62.98470898803,13.19));
#582 = CARTESIAN_POINT('',(36.119124870109,-63.11384783587,13.19));
#583 = CARTESIAN_POINT('',(36.000932308426,-63.37780293437,13.19));
#584 = CARTESIAN_POINT('',(35.931159156916,-63.51204813587,13.19));
#585 = CARTESIAN_POINT('',(35.853904229436,-63.64238107162,13.19));
#586 = CARTESIAN_POINT('',(35.769752456507,-63.76851670261,13.19));
#587 = CARTESIAN_POINT('',(35.679270630856,-63.89024426621,13.19));
#588 = CARTESIAN_POINT('',(35.582996485918,-64.00741974141,13.19));
#589 = CARTESIAN_POINT('',(35.481427774334,-64.11995831388,13.19));
#590 = CARTESIAN_POINT('',(35.221669798388,-64.38326080287,13.19));
#591 = CARTESIAN_POINT('',(35.058316324266,-64.52894437852,13.19));
#592 = CARTESIAN_POINT('',(34.886268743506,-64.6648201472,13.19));
#593 = CARTESIAN_POINT('',(34.70672288785,-64.79093596964,13.19));
#594 = CARTESIAN_POINT('',(34.520751411842,-64.90743881423,13.19));
#595 = CARTESIAN_POINT('',(34.329296340795,-65.01456091856,13.19));
#596 = CARTESIAN_POINT('',(34.133155356222,-65.11259828659,13.19));
#597 = CARTESIAN_POINT('',(33.566846721295,-65.36516321639,13.19));
#598 = CARTESIAN_POINT('',(33.187652576099,-65.49895595321,13.19));
#599 = CARTESIAN_POINT('',(32.799084837317,-65.60552227708,13.19));
#600 = CARTESIAN_POINT('',(32.404159273778,-65.68688197605,13.19));
#601 = CARTESIAN_POINT('',(32.005302477216,-65.74512386971,13.19));
#602 = CARTESIAN_POINT('',(31.60431292647,-65.78222256054,13.19));
#603 = CARTESIAN_POINT('',(31.202368600013,-65.8,13.19));
#604 = CARTESIAN_POINT('',(30.8,-65.8,13.19));
#605 = ORIENTED_EDGE('',*,*,#606,.T.);
#606 = EDGE_CURVE('',#572,#607,#609,.T.);
#607 = VERTEX_POINT('',#608);
#608 = CARTESIAN_POINT('',(30.8,-65.8,13.59));
#609 = LINE('',#610,#611);
#610 = CARTESIAN_POINT('',(30.8,-65.8,0.));
#611 = VECTOR('',#612,1.);
#612 = DIRECTION('',(0.,0.,1.));
#613 = ORIENTED_EDGE('',*,*,#614,.F.);
#614 = EDGE_CURVE('',#615,#607,#617,.T.);
#615 = VERTEX_POINT('',#616);
#616 = CARTESIAN_POINT('',(36.3,-62.17,13.59));
#617 = B_SPLINE_CURVE_WITH_KNOTS('',8,(#618,#619,#620,#621,#622,#623,
    #624,#625,#626,#627,#628,#629,#630,#631,#632,#633,#634,#635,#636,
    #637,#638,#639,#640,#641,#642,#643,#644,#645,#646,#647),
  .UNSPECIFIED.,.F.,.F.,(9,7,7,7,9),(0.,0.152812604419,0.31970698537,
    0.560194692455,1.),.UNSPECIFIED.);
#618 = CARTESIAN_POINT('',(36.3,-62.17,13.59));
#619 = CARTESIAN_POINT('',(36.3,-62.30783965468,13.59));
#620 = CARTESIAN_POINT('',(36.290841068365,-62.44571323531,13.59));
#621 = CARTESIAN_POINT('',(36.272767582194,-62.58291352647,13.59));
#622 = CARTESIAN_POINT('',(36.246129078909,-62.7188227913,13.59));
#623 = CARTESIAN_POINT('',(36.211340228253,-62.85290665277,13.59));
#624 = CARTESIAN_POINT('',(36.168850691818,-62.98470898803,13.59));
#625 = CARTESIAN_POINT('',(36.119124870109,-63.11384783587,13.59));
#626 = CARTESIAN_POINT('',(36.000932308426,-63.37780293437,13.59));
#627 = CARTESIAN_POINT('',(35.931159156916,-63.51204813587,13.59));
#628 = CARTESIAN_POINT('',(35.853904229436,-63.64238107162,13.59));
#629 = CARTESIAN_POINT('',(35.769752456507,-63.76851670261,13.59));
#630 = CARTESIAN_POINT('',(35.679270630856,-63.89024426621,13.59));
#631 = CARTESIAN_POINT('',(35.582996485918,-64.00741974141,13.59));
#632 = CARTESIAN_POINT('',(35.481427774334,-64.11995831388,13.59));
#633 = CARTESIAN_POINT('',(35.221669798388,-64.38326080287,13.59));
#634 = CARTESIAN_POINT('',(35.058316324266,-64.52894437852,13.59));
#635 = CARTESIAN_POINT('',(34.886268743506,-64.6648201472,13.59));
#636 = CARTESIAN_POINT('',(34.70672288785,-64.79093596964,13.59));
#637 = CARTESIAN_POINT('',(34.520751411842,-64.90743881423,13.59));
#638 = CARTESIAN_POINT('',(34.329296340795,-65.01456091856,13.59));
#639 = CARTESIAN_POINT('',(34.133155356222,-65.11259828659,13.59));
#640 = CARTESIAN_POINT('',(33.566846721295,-65.36516321639,13.59));
#641 = CARTESIAN_POINT('',(33.187652576099,-65.49895595321,13.59));
#642 = CARTESIAN_POINT('',(32.799084837317,-65.60552227708,13.59));
#643 = CARTESIAN_POINT('',(32.404159273778,-65.68688197605,13.59));
#644 = CARTESIAN_POINT('',(32.005302477216,-65.74512386971,13.59));
#645 = CARTESIAN_POINT('',(31.60431292647,-65.78222256054,13.59));
#646 = CARTESIAN_POINT('',(31.202368600013,-65.8,13.59));
#647 = CARTESIAN_POINT('',(30.8,-65.8,13.59));
#648 = ORIENTED_EDGE('',*,*,#649,.F.);
#649 = EDGE_CURVE('',#570,#615,#650,.T.);
#650 = LINE('',#651,#652);
#651 = CARTESIAN_POINT('',(36.3,-62.17,0.));
#652 = VECTOR('',#653,1.);
#653 = DIRECTION('',(0.,0.,1.));
#654 = SURFACE_OF_LINEAR_EXTRUSION('',#655,#660);
#655 = B_SPLINE_CURVE_WITH_KNOTS('',3,(#656,#657,#658,#659),
  .UNSPECIFIED.,.F.,.F.,(4,4),(0.,1.),.PIECEWISE_BEZIER_KNOTS.);
#656 = CARTESIAN_POINT('',(30.8,-65.8,0.));
#657 = CARTESIAN_POINT('',(34.45,-65.8,0.));
#658 = CARTESIAN_POINT('',(36.3,-63.88,0.));
#659 = CARTESIAN_POINT('',(36.3,-62.17,0.));
#660 = VECTOR('',#661,1.);
#661 = DIRECTION('',(-0.,-0.,-1.));
#662 = ADVANCED_FACE('',(#663),#737,.F.);
#663 = FACE_BOUND('',#664,.F.);
#664 = EDGE_LOOP('',(#665,#666));
#665 = ORIENTED_EDGE('',*,*,#569,.F.);
#666 = ORIENTED_EDGE('',*,*,#667,.F.);
#667 = EDGE_CURVE('',#572,#570,#668,.T.);
#668 = B_SPLINE_CURVE_WITH_KNOTS('',7,(#669,#670,#671,#672,#673,#674,
    #675,#676,#677,#678,#679,#680,#681,#682,#683,#684,#685,#686,#687,
    #688,#689,#690,#691,#692,#693,#694,#695,#696,#697,#698,#699,#700,
    #701,#702,#703,#704,#705,#706,#707,#708,#709,#710,#711,#712,#713,
    #714,#715,#716,#717,#718,#719,#720,#721,#722,#723,#724,#725,#726,
    #727,#728,#729,#730,#731,#732,#733,#734,#735,#736),.UNSPECIFIED.,.F.
  ,.F.,(8,6,6,6,6,6,6,6,6,6,6,8),(0.,0.210030095682,0.37214113996,
    0.526965898016,0.618153904779,0.671886308622,0.79601577085,
    0.847577982248,0.916085617704,0.958546271499,0.975463051861,1.),
  .UNSPECIFIED.);
#669 = CARTESIAN_POINT('',(30.8,-65.8,13.19));
#670 = CARTESIAN_POINT('',(30.8,-65.4758424803,13.19));
#671 = CARTESIAN_POINT('',(30.808033804129,-65.15178224505,13.19));
#672 = CARTESIAN_POINT('',(30.824868538007,-64.8279513913,13.19));
#673 = CARTESIAN_POINT('',(30.851420038571,-64.50467331984,13.19));
#674 = CARTESIAN_POINT('',(30.888784767768,-64.18246751326,13.19));
#675 = CARTESIAN_POINT('',(30.938252062239,-63.86205036402,13.19));
#676 = CARTESIAN_POINT('',(31.050287371584,-63.2991448252,13.19));
#677 = CARTESIAN_POINT('',(31.107267475085,-63.05567890632,13.19));
#678 = CARTESIAN_POINT('',(31.17318314284,-62.81432003286,13.19));
#679 = CARTESIAN_POINT('',(31.248902945679,-62.57571986043,13.19));
#680 = CARTESIAN_POINT('',(31.335376920941,-62.34080950469,13.19));
#681 = CARTESIAN_POINT('',(31.433642884095,-62.11080314113,13.19));
#682 = CARTESIAN_POINT('',(31.651090441136,-61.67367770813,13.19));
#683 = CARTESIAN_POINT('',(31.769068278395,-61.46612569884,13.19));
#684 = CARTESIAN_POINT('',(31.899803218929,-61.26585022624,13.19));
#685 = CARTESIAN_POINT('',(32.044200574007,-61.07480628413,13.19));
#686 = CARTESIAN_POINT('',(32.20292861369,-60.8955083484,13.19));
#687 = CARTESIAN_POINT('',(32.376200118627,-60.73085694962,13.19));
#688 = CARTESIAN_POINT('',(32.673774270239,-60.49734084068,13.19));
#689 = CARTESIAN_POINT('',(32.788897553386,-60.41694818803,13.19));
#690 = CARTESIAN_POINT('',(32.908656586861,-60.34339008861,13.19));
#691 = CARTESIAN_POINT('',(33.032758123492,-60.27732251271,13.19));
#692 = CARTESIAN_POINT('',(33.160789387826,-60.21936106619,13.19));
#693 = CARTESIAN_POINT('',(33.292201061402,-60.17004771977,13.19));
#694 = CARTESIAN_POINT('',(33.505297148081,-60.10609894163,13.19));
#695 = CARTESIAN_POINT('',(33.585242327832,-60.08553763827,13.19));
#696 = CARTESIAN_POINT('',(33.66598128917,-60.06821227223,13.19));
#697 = CARTESIAN_POINT('',(33.74736466979,-60.05419371923,13.19));
#698 = CARTESIAN_POINT('',(33.829235120169,-60.04353689454,13.19));
#699 = CARTESIAN_POINT('',(33.91142730356,-60.03628075308,13.19));
#700 = CARTESIAN_POINT('',(34.183986325254,-60.02359475541,13.19));
#701 = CARTESIAN_POINT('',(34.375020995074,-60.03301204356,13.19));
#702 = CARTESIAN_POINT('',(34.564723014249,-60.06099144089,13.19));
#703 = CARTESIAN_POINT('',(34.750974770115,-60.10735487736,13.19));
#704 = CARTESIAN_POINT('',(34.931653570844,-60.17164481847,13.19));
#705 = CARTESIAN_POINT('',(35.104624825661,-60.25318814415,13.19));
#706 = CARTESIAN_POINT('',(35.335531558937,-60.39167826803,13.19));
#707 = CARTESIAN_POINT('',(35.401607058786,-60.43513865339,13.19));
#708 = CARTESIAN_POINT('',(35.465840525868,-60.48134856653,13.19));
#709 = CARTESIAN_POINT('',(35.528080868583,-60.53023393737,13.19));
#710 = CARTESIAN_POINT('',(35.588177924423,-60.58171175862,13.19));
#711 = CARTESIAN_POINT('',(35.645983743988,-60.63568861522,13.19));
#712 = CARTESIAN_POINT('',(35.774920866168,-60.76695546644,13.19));
#713 = CARTESIAN_POINT('',(35.844195715835,-60.84608478357,13.19));
#714 = CARTESIAN_POINT('',(35.908827684326,-60.9291901993,13.19));
#715 = CARTESIAN_POINT('',(35.968493044848,-61.01598255667,13.19));
#716 = CARTESIAN_POINT('',(36.022898885704,-61.10613822365,13.19));
#717 = CARTESIAN_POINT('',(36.07179459102,-61.19929179925,13.19));
#718 = CARTESIAN_POINT('',(36.141763895527,-61.35435798111,13.19));
#719 = CARTESIAN_POINT('',(36.166349230618,-61.41468646996,13.19));
#720 = CARTESIAN_POINT('',(36.188701815903,-61.4759105495,13.19));
#721 = CARTESIAN_POINT('',(36.208788127025,-61.53792963743,13.19));
#722 = CARTESIAN_POINT('',(36.226586304636,-61.60064129615,13.19));
#723 = CARTESIAN_POINT('',(36.242086154402,-61.66394123282,13.19));
#724 = CARTESIAN_POINT('',(36.260549361009,-61.75313475935,13.19));
#725 = CARTESIAN_POINT('',(36.265445057241,-61.77862299902,13.19));
#726 = CARTESIAN_POINT('',(36.269976376031,-61.80418144632,13.19));
#727 = CARTESIAN_POINT('',(36.274143758214,-61.82980359379,13.19));
#728 = CARTESIAN_POINT('',(36.277947945128,-61.85548299842,13.19));
#729 = CARTESIAN_POINT('',(36.28138997861,-61.88121328165,13.19));
#730 = CARTESIAN_POINT('',(36.288940360755,-61.94437326352,13.19));
#731 = CARTESIAN_POINT('',(36.292650393115,-61.98185224964,13.19));
#732 = CARTESIAN_POINT('',(36.295605474986,-62.01940578147,13.19));
#733 = CARTESIAN_POINT('',(36.297810930826,-62.05701514584,13.19));
#734 = CARTESIAN_POINT('',(36.299273232645,-62.09466222276,13.19));
#735 = CARTESIAN_POINT('',(36.3,-62.13232948538,13.19));
#736 = CARTESIAN_POINT('',(36.3,-62.17,13.19));
#737 = PLANE('',#738);
#738 = AXIS2_PLACEMENT_3D('',#739,#740,#741);
#739 = CARTESIAN_POINT('',(0.,-120.,13.19));
#740 = DIRECTION('',(0.,0.,1.));
#741 = DIRECTION('',(1.,0.,0.));
#742 = ADVANCED_FACE('',(#743),#819,.F.);
#743 = FACE_BOUND('',#744,.F.);
#744 = EDGE_LOOP('',(#745,#746,#747,#818));
#745 = ORIENTED_EDGE('',*,*,#667,.T.);
#746 = ORIENTED_EDGE('',*,*,#649,.T.);
#747 = ORIENTED_EDGE('',*,*,#748,.F.);
#748 = EDGE_CURVE('',#607,#615,#749,.T.);
#749 = B_SPLINE_CURVE_WITH_KNOTS('',7,(#750,#751,#752,#753,#754,#755,
    #756,#757,#758,#759,#760,#761,#762,#763,#764,#765,#766,#767,#768,
    #769,#770,#771,#772,#773,#774,#775,#776,#777,#778,#779,#780,#781,
    #782,#783,#784,#785,#786,#787,#788,#789,#790,#791,#792,#793,#794,
    #795,#796,#797,#798,#799,#800,#801,#802,#803,#804,#805,#806,#807,
    #808,#809,#810,#811,#812,#813,#814,#815,#816,#817),.UNSPECIFIED.,.F.
  ,.F.,(8,6,6,6,6,6,6,6,6,6,6,8),(0.,0.210030095682,0.37214113996,
    0.526965898016,0.618153904779,0.671886308622,0.79601577085,
    0.847577982248,0.916085617704,0.958546271499,0.975463051861,1.),
  .UNSPECIFIED.);
#750 = CARTESIAN_POINT('',(30.8,-65.8,13.59));
#751 = CARTESIAN_POINT('',(30.8,-65.4758424803,13.59));
#752 = CARTESIAN_POINT('',(30.808033804129,-65.15178224505,13.59));
#753 = CARTESIAN_POINT('',(30.824868538007,-64.8279513913,13.59));
#754 = CARTESIAN_POINT('',(30.851420038571,-64.50467331984,13.59));
#755 = CARTESIAN_POINT('',(30.888784767768,-64.18246751326,13.59));
#756 = CARTESIAN_POINT('',(30.938252062239,-63.86205036402,13.59));
#757 = CARTESIAN_POINT('',(31.050287371584,-63.2991448252,13.59));
#758 = CARTESIAN_POINT('',(31.107267475085,-63.05567890632,13.59));
#759 = CARTESIAN_POINT('',(31.17318314284,-62.81432003286,13.59));
#760 = CARTESIAN_POINT('',(31.248902945679,-62.57571986043,13.59));
#761 = CARTESIAN_POINT('',(31.335376920941,-62.34080950469,13.59));
#762 = CARTESIAN_POINT('',(31.433642884095,-62.11080314113,13.59));
#763 = CARTESIAN_POINT('',(31.651090441136,-61.67367770813,13.59));
#764 = CARTESIAN_POINT('',(31.769068278395,-61.46612569884,13.59));
#765 = CARTESIAN_POINT('',(31.899803218929,-61.26585022624,13.59));
#766 = CARTESIAN_POINT('',(32.044200574007,-61.07480628413,13.59));
#767 = CARTESIAN_POINT('',(32.20292861369,-60.8955083484,13.59));
#768 = CARTESIAN_POINT('',(32.376200118627,-60.73085694962,13.59));
#769 = CARTESIAN_POINT('',(32.673774270239,-60.49734084068,13.59));
#770 = CARTESIAN_POINT('',(32.788897553386,-60.41694818803,13.59));
#771 = CARTESIAN_POINT('',(32.908656586861,-60.34339008861,13.59));
#772 = CARTESIAN_POINT('',(33.032758123492,-60.27732251271,13.59));
#773 = CARTESIAN_POINT('',(33.160789387826,-60.21936106619,13.59));
#774 = CARTESIAN_POINT('',(33.292201061402,-60.17004771977,13.59));
#775 = CARTESIAN_POINT('',(33.505297148081,-60.10609894163,13.59));
#776 = CARTESIAN_POINT('',(33.585242327832,-60.08553763827,13.59));
#777 = CARTESIAN_POINT('',(33.66598128917,-60.06821227223,13.59));
#778 = CARTESIAN_POINT('',(33.74736466979,-60.05419371923,13.59));
#779 = CARTESIAN_POINT('',(33.829235120169,-60.04353689454,13.59));
#780 = CARTESIAN_POINT('',(33.91142730356,-60.03628075308,13.59));
#781 = CARTESIAN_POINT('',(34.183986325254,-60.02359475541,13.59));
#782 = CARTESIAN_POINT('',(34.375020995074,-60.03301204356,13.59));
#783 = CARTESIAN_POINT('',(34.564723014249,-60.06099144089,13.59));
#784 = CARTESIAN_POINT('',(34.750974770115,-60.10735487736,13.59));
#785 = CARTESIAN_POINT('',(34.931653570844,-60.17164481847,13.59));
#786 = CARTESIAN_POINT('',(35.104624825661,-60.25318814415,13.59));
#787 = CARTESIAN_POINT('',(35.335531558937,-60.39167826803,13.59));
#788 = CARTESIAN_POINT('',(35.401607058786,-60.43513865339,13.59));
#789 = CARTESIAN_POINT('',(35.465840525868,-60.48134856653,13.59));
#790 = CARTESIAN_POINT('',(35.528080868583,-60.53023393737,13.59));
#791 = CARTESIAN_POINT('',(35.588177924423,-60.58171175862,13.59));
#792 = CARTESIAN_POINT('',(35.645983743988,-60.63568861522,13.59));
#793 = CARTESIAN_POINT('',(35.774920866168,-60.76695546644,13.59));
#794 = CARTESIAN_POINT('',(35.844195715835,-60.84608478357,13.59));
#795 = CARTESIAN_POINT('',(35.908827684326,-60.9291901993,13.59));
#796 = CARTESIAN_POINT('',(35.968493044848,-61.01598255667,13.59));
#797 = CARTESIAN_POINT('',(36.022898885704,-61.10613822365,13.59));
#798 = CARTESIAN_POINT('',(36.07179459102,-61.19929179925,13.59));
#799 = CARTESIAN_POINT('',(36.141763895527,-61.35435798111,13.59));
#800 = CARTESIAN_POINT('',(36.166349230618,-61.41468646996,13.59));
#801 = CARTESIAN_POINT('',(36.188701815903,-61.4759105495,13.59));
#802 = CARTESIAN_POINT('',(36.208788127025,-61.53792963743,13.59));
#803 = CARTESIAN_POINT('',(36.226586304636,-61.60064129615,13.59));
#804 = CARTESIAN_POINT('',(36.242086154402,-61.66394123282,13.59));
#805 = CARTESIAN_POINT('',(36.260549361009,-61.75313475935,13.59));
#806 = CARTESIAN_POINT('',(36.265445057241,-61.77862299902,13.59));
#807 = CARTESIAN_POINT('',(36.269976376031,-61.80418144632,13.59));
#808 = CARTESIAN_POINT('',(36.274143758214,-61.82980359379,13.59));
#809 = CARTESIAN_POINT('',(36.277947945128,-61.85548299842,13.59));
#810 = CARTESIAN_POINT('',(36.28138997861,-61.88121328165,13.59));
#811 = CARTESIAN_POINT('',(36.288940360755,-61.94437326352,13.59));
#812 = CARTESIAN_POINT('',(36.292650393115,-61.98185224964,13.59));
#813 = CARTESIAN_POINT('',(36.295605474986,-62.01940578147,13.59));
#814 = CARTESIAN_POINT('',(36.297810930826,-62.05701514584,13.59));
#815 = CARTESIAN_POINT('',(36.299273232645,-62.09466222276,13.59));
#816 = CARTESIAN_POINT('',(36.3,-62.13232948538,13.59));
#817 = CARTESIAN_POINT('',(36.3,-62.17,13.59));
#818 = ORIENTED_EDGE('',*,*,#606,.F.);
#819 = SURFACE_OF_LINEAR_EXTRUSION('',#820,#825);
#820 = B_SPLINE_CURVE_WITH_KNOTS('',3,(#821,#822,#823,#824),
  .UNSPECIFIED.,.F.,.F.,(4,4),(0.,1.),.PIECEWISE_BEZIER_KNOTS.);
#821 = CARTESIAN_POINT('',(36.3,-62.17,0.));
#822 = CARTESIAN_POINT('',(36.3,-59.28,0.));
#823 = CARTESIAN_POINT('',(30.8,-58.32,0.));
#824 = CARTESIAN_POINT('',(30.8,-65.8,0.));
#825 = VECTOR('',#826,1.);
#826 = DIRECTION('',(-0.,-0.,-1.));
#827 = ADVANCED_FACE('',(#828),#832,.T.);
#828 = FACE_BOUND('',#829,.T.);
#829 = EDGE_LOOP('',(#830,#831));
#830 = ORIENTED_EDGE('',*,*,#614,.F.);
#831 = ORIENTED_EDGE('',*,*,#748,.F.);
#832 = PLANE('',#833);
#833 = AXIS2_PLACEMENT_3D('',#834,#835,#836);
#834 = CARTESIAN_POINT('',(0.,-120.,13.59));
#835 = DIRECTION('',(0.,0.,1.));
#836 = DIRECTION('',(1.,0.,0.));
#837 = MANIFOLD_SOLID_BREP('',#838);
#838 = CLOSED_SHELL('',(#839,#936,#1016,#1101));
#839 = ADVANCED_FACE('',(#840),#928,.T.);
#840 = FACE_BOUND('',#841,.T.);
#841 = EDGE_LOOP('',(#842,#879,#887,#922));
#842 = ORIENTED_EDGE('',*,*,#843,.T.);
#843 = EDGE_CURVE('',#844,#846,#848,.T.);
#844 = VERTEX_POINT('',#845);
#845 = CARTESIAN_POINT('',(37.7,-62.17,13.19));
#846 = VERTEX_POINT('',#847);
#847 = CARTESIAN_POINT('',(43.2,-65.8,13.19));
#848 = B_SPLINE_CURVE_WITH_KNOTS('',8,(#849,#850,#851,#852,#853,#854,
    #855,#856,#857,#858,#859,#860,#861,#862,#863,#864,#865,#866,#867,
    #868,#869,#870,#871,#872,#873,#874,#875,#876,#877,#878),
  .UNSPECIFIED.,.F.,.F.,(9,7,7,7,9),(0.,0.152812604419,0.31970698537,
    0.560194692455,1.),.UNSPECIFIED.);
#849 = CARTESIAN_POINT('',(37.7,-62.17,13.19));
#850 = CARTESIAN_POINT('',(37.7,-62.30783965468,13.19));
#851 = CARTESIAN_POINT('',(37.709158931635,-62.44571323531,13.19));
#852 = CARTESIAN_POINT('',(37.727232417806,-62.58291352647,13.19));
#853 = CARTESIAN_POINT('',(37.753870921091,-62.7188227913,13.19));
#854 = CARTESIAN_POINT('',(37.788659771746,-62.85290665277,13.19));
#855 = CARTESIAN_POINT('',(37.831149308182,-62.98470898803,13.19));
#856 = CARTESIAN_POINT('',(37.880875129891,-63.11384783587,13.19));
#857 = CARTESIAN_POINT('',(37.999067691574,-63.37780293437,13.19));
#858 = CARTESIAN_POINT('',(38.068840843084,-63.51204813587,13.19));
#859 = CARTESIAN_POINT('',(38.146095770564,-63.64238107162,13.19));
#860 = CARTESIAN_POINT('',(38.230247543493,-63.76851670261,13.19));
#861 = CARTESIAN_POINT('',(38.320729369145,-63.89024426621,13.19));
#862 = CARTESIAN_POINT('',(38.417003514082,-64.00741974141,13.19));
#863 = CARTESIAN_POINT('',(38.518572225666,-64.11995831388,13.19));
#864 = CARTESIAN_POINT('',(38.778330201612,-64.38326080287,13.19));
#865 = CARTESIAN_POINT('',(38.941683675735,-64.52894437852,13.19));
#866 = CARTESIAN_POINT('',(39.113731256494,-64.6648201472,13.19));
#867 = CARTESIAN_POINT('',(39.29327711215,-64.79093596964,13.19));
#868 = CARTESIAN_POINT('',(39.479248588158,-64.90743881423,13.19));
#869 = CARTESIAN_POINT('',(39.670703659205,-65.01456091856,13.19));
#870 = CARTESIAN_POINT('',(39.866844643778,-65.11259828659,13.19));
#871 = CARTESIAN_POINT('',(40.433153278706,-65.36516321639,13.19));
#872 = CARTESIAN_POINT('',(40.812347423897,-65.49895595321,13.19));
#873 = CARTESIAN_POINT('',(41.200915162692,-65.60552227708,13.19));
#874 = CARTESIAN_POINT('',(41.59584072621,-65.68688197604,13.19));
#875 = CARTESIAN_POINT('',(41.994697522794,-65.74512386971,13.19));
#876 = CARTESIAN_POINT('',(42.395687073526,-65.78222256054,13.19));
#877 = CARTESIAN_POINT('',(42.797631399988,-65.8,13.19));
#878 = CARTESIAN_POINT('',(43.2,-65.8,13.19));
#879 = ORIENTED_EDGE('',*,*,#880,.T.);
#880 = EDGE_CURVE('',#846,#881,#883,.T.);
#881 = VERTEX_POINT('',#882);
#882 = CARTESIAN_POINT('',(43.2,-65.8,13.59));
#883 = LINE('',#884,#885);
#884 = CARTESIAN_POINT('',(43.2,-65.8,0.));
#885 = VECTOR('',#886,1.);
#886 = DIRECTION('',(0.,0.,1.));
#887 = ORIENTED_EDGE('',*,*,#888,.F.);
#888 = EDGE_CURVE('',#889,#881,#891,.T.);
#889 = VERTEX_POINT('',#890);
#890 = CARTESIAN_POINT('',(37.7,-62.17,13.59));
#891 = B_SPLINE_CURVE_WITH_KNOTS('',8,(#892,#893,#894,#895,#896,#897,
    #898,#899,#900,#901,#902,#903,#904,#905,#906,#907,#908,#909,#910,
    #911,#912,#913,#914,#915,#916,#917,#918,#919,#920,#921),
  .UNSPECIFIED.,.F.,.F.,(9,7,7,7,9),(0.,0.152812604419,0.31970698537,
    0.560194692455,1.),.UNSPECIFIED.);
#892 = CARTESIAN_POINT('',(37.7,-62.17,13.59));
#893 = CARTESIAN_POINT('',(37.7,-62.30783965468,13.59));
#894 = CARTESIAN_POINT('',(37.709158931635,-62.44571323531,13.59));
#895 = CARTESIAN_POINT('',(37.727232417806,-62.58291352647,13.59));
#896 = CARTESIAN_POINT('',(37.753870921091,-62.7188227913,13.59));
#897 = CARTESIAN_POINT('',(37.788659771746,-62.85290665277,13.59));
#898 = CARTESIAN_POINT('',(37.831149308182,-62.98470898803,13.59));
#899 = CARTESIAN_POINT('',(37.880875129891,-63.11384783587,13.59));
#900 = CARTESIAN_POINT('',(37.999067691574,-63.37780293437,13.59));
#901 = CARTESIAN_POINT('',(38.068840843084,-63.51204813587,13.59));
#902 = CARTESIAN_POINT('',(38.146095770564,-63.64238107162,13.59));
#903 = CARTESIAN_POINT('',(38.230247543493,-63.76851670261,13.59));
#904 = CARTESIAN_POINT('',(38.320729369145,-63.89024426621,13.59));
#905 = CARTESIAN_POINT('',(38.417003514082,-64.00741974141,13.59));
#906 = CARTESIAN_POINT('',(38.518572225666,-64.11995831388,13.59));
#907 = CARTESIAN_POINT('',(38.778330201612,-64.38326080287,13.59));
#908 = CARTESIAN_POINT('',(38.941683675735,-64.52894437852,13.59));
#909 = CARTESIAN_POINT('',(39.113731256494,-64.6648201472,13.59));
#910 = CARTESIAN_POINT('',(39.29327711215,-64.79093596964,13.59));
#911 = CARTESIAN_POINT('',(39.479248588158,-64.90743881423,13.59));
#912 = CARTESIAN_POINT('',(39.670703659205,-65.01456091856,13.59));
#913 = CARTESIAN_POINT('',(39.866844643778,-65.11259828659,13.59));
#914 = CARTESIAN_POINT('',(40.433153278706,-65.36516321639,13.59));
#915 = CARTESIAN_POINT('',(40.812347423897,-65.49895595321,13.59));
#916 = CARTESIAN_POINT('',(41.200915162692,-65.60552227708,13.59));
#917 = CARTESIAN_POINT('',(41.59584072621,-65.68688197604,13.59));
#918 = CARTESIAN_POINT('',(41.994697522794,-65.74512386971,13.59));
#919 = CARTESIAN_POINT('',(42.395687073526,-65.78222256054,13.59));
#920 = CARTESIAN_POINT('',(42.797631399988,-65.8,13.59));
#921 = CARTESIAN_POINT('',(43.2,-65.8,13.59));
#922 = ORIENTED_EDGE('',*,*,#923,.F.);
#923 = EDGE_CURVE('',#844,#889,#924,.T.);
#924 = LINE('',#925,#926);
#925 = CARTESIAN_POINT('',(37.7,-62.17,0.));
#926 = VECTOR('',#927,1.);
#927 = DIRECTION('',(0.,0.,1.));
#928 = SURFACE_OF_LINEAR_EXTRUSION('',#929,#934);
#929 = B_SPLINE_CURVE_WITH_KNOTS('',3,(#930,#931,#932,#933),
  .UNSPECIFIED.,.F.,.F.,(4,4),(0.,1.),.PIECEWISE_BEZIER_KNOTS.);
#930 = CARTESIAN_POINT('',(43.2,-65.8,0.));
#931 = CARTESIAN_POINT('',(39.55,-65.8,0.));
#932 = CARTESIAN_POINT('',(37.7,-63.88,0.));
#933 = CARTESIAN_POINT('',(37.7,-62.17,0.));
#934 = VECTOR('',#935,1.);
#935 = DIRECTION('',(-0.,-0.,-1.));
#936 = ADVANCED_FACE('',(#937),#1011,.F.);
#937 = FACE_BOUND('',#938,.F.);
#938 = EDGE_LOOP('',(#939,#1010));
#939 = ORIENTED_EDGE('',*,*,#940,.T.);
#940 = EDGE_CURVE('',#846,#844,#941,.T.);
#941 = B_SPLINE_CURVE_WITH_KNOTS('',7,(#942,#943,#944,#945,#946,#947,
    #948,#949,#950,#951,#952,#953,#954,#955,#956,#957,#958,#959,#960,
    #961,#962,#963,#964,#965,#966,#967,#968,#969,#970,#971,#972,#973,
    #974,#975,#976,#977,#978,#979,#980,#981,#982,#983,#984,#985,#986,
    #987,#988,#989,#990,#991,#992,#993,#994,#995,#996,#997,#998,#999,
    #1000,#1001,#1002,#1003,#1004,#1005,#1006,#1007,#1008,#1009),
  .UNSPECIFIED.,.F.,.F.,(8,6,6,6,6,6,6,6,6,6,6,8),(0.,0.210030095682,
    0.37214113996,0.526965898016,0.618153904779,0.671886308622,
    0.79601577085,0.847577982248,0.916085617704,0.958546271499,
    0.975463051861,1.),.UNSPECIFIED.);
#942 = CARTESIAN_POINT('',(43.2,-65.8,13.19));
#943 = CARTESIAN_POINT('',(43.2,-65.4758424803,13.19));
#944 = CARTESIAN_POINT('',(43.191966195872,-65.15178224505,13.19));
#945 = CARTESIAN_POINT('',(43.175131461993,-64.8279513913,13.19));
#946 = CARTESIAN_POINT('',(43.14857996143,-64.50467331984,13.19));
#947 = CARTESIAN_POINT('',(43.111215232232,-64.18246751326,13.19));
#948 = CARTESIAN_POINT('',(43.061747937761,-63.86205036402,13.19));
#949 = CARTESIAN_POINT('',(42.949712628416,-63.2991448252,13.19));
#950 = CARTESIAN_POINT('',(42.892732524915,-63.05567890632,13.19));
#951 = CARTESIAN_POINT('',(42.82681685716,-62.81432003286,13.19));
#952 = CARTESIAN_POINT('',(42.75109705432,-62.57571986043,13.19));
#953 = CARTESIAN_POINT('',(42.664623079059,-62.34080950469,13.19));
#954 = CARTESIAN_POINT('',(42.566357115905,-62.11080314113,13.19));
#955 = CARTESIAN_POINT('',(42.348909558864,-61.67367770813,13.19));
#956 = CARTESIAN_POINT('',(42.230931721605,-61.46612569884,13.19));
#957 = CARTESIAN_POINT('',(42.100196781071,-61.26585022624,13.19));
#958 = CARTESIAN_POINT('',(41.955799425993,-61.07480628413,13.19));
#959 = CARTESIAN_POINT('',(41.79707138631,-60.8955083484,13.19));
#960 = CARTESIAN_POINT('',(41.623799881373,-60.73085694962,13.19));
#961 = CARTESIAN_POINT('',(41.326225729761,-60.49734084068,13.19));
#962 = CARTESIAN_POINT('',(41.211102446614,-60.41694818803,13.19));
#963 = CARTESIAN_POINT('',(41.091343413139,-60.34339008861,13.19));
#964 = CARTESIAN_POINT('',(40.967241876508,-60.27732251271,13.19));
#965 = CARTESIAN_POINT('',(40.839210612174,-60.21936106619,13.19));
#966 = CARTESIAN_POINT('',(40.707798938598,-60.17004771977,13.19));
#967 = CARTESIAN_POINT('',(40.494702851919,-60.10609894163,13.19));
#968 = CARTESIAN_POINT('',(40.414757672168,-60.08553763827,13.19));
#969 = CARTESIAN_POINT('',(40.33401871083,-60.06821227223,13.19));
#970 = CARTESIAN_POINT('',(40.25263533021,-60.05419371923,13.19));
#971 = CARTESIAN_POINT('',(40.170764879831,-60.04353689454,13.19));
#972 = CARTESIAN_POINT('',(40.08857269644,-60.03628075308,13.19));
#973 = CARTESIAN_POINT('',(39.816013674746,-60.02359475541,13.19));
#974 = CARTESIAN_POINT('',(39.624979004925,-60.03301204356,13.19));
#975 = CARTESIAN_POINT('',(39.435276985752,-60.06099144089,13.19));
#976 = CARTESIAN_POINT('',(39.249025229886,-60.10735487736,13.19));
#977 = CARTESIAN_POINT('',(39.068346429155,-60.17164481847,13.19));
#978 = CARTESIAN_POINT('',(38.895375174339,-60.25318814415,13.19));
#979 = CARTESIAN_POINT('',(38.664468441063,-60.39167826803,13.19));
#980 = CARTESIAN_POINT('',(38.598392941214,-60.43513865339,13.19));
#981 = CARTESIAN_POINT('',(38.534159474132,-60.48134856653,13.19));
#982 = CARTESIAN_POINT('',(38.471919131417,-60.53023393737,13.19));
#983 = CARTESIAN_POINT('',(38.411822075577,-60.58171175862,13.19));
#984 = CARTESIAN_POINT('',(38.354016256012,-60.63568861522,13.19));
#985 = CARTESIAN_POINT('',(38.225079133832,-60.76695546644,13.19));
#986 = CARTESIAN_POINT('',(38.155804284165,-60.84608478357,13.19));
#987 = CARTESIAN_POINT('',(38.091172315674,-60.9291901993,13.19));
#988 = CARTESIAN_POINT('',(38.031506955152,-61.01598255667,13.19));
#989 = CARTESIAN_POINT('',(37.977101114296,-61.10613822365,13.19));
#990 = CARTESIAN_POINT('',(37.92820540898,-61.19929179925,13.19));
#991 = CARTESIAN_POINT('',(37.858236104473,-61.35435798111,13.19));
#992 = CARTESIAN_POINT('',(37.833650769382,-61.41468646996,13.19));
#993 = CARTESIAN_POINT('',(37.811298184097,-61.4759105495,13.19));
#994 = CARTESIAN_POINT('',(37.791211872975,-61.53792963743,13.19));
#995 = CARTESIAN_POINT('',(37.773413695364,-61.60064129615,13.19));
#996 = CARTESIAN_POINT('',(37.757913845598,-61.66394123282,13.19));
#997 = CARTESIAN_POINT('',(37.739450638991,-61.75313475935,13.19));
#998 = CARTESIAN_POINT('',(37.734554942759,-61.77862299902,13.19));
#999 = CARTESIAN_POINT('',(37.730023623969,-61.80418144632,13.19));
#1000 = CARTESIAN_POINT('',(37.725856241786,-61.82980359379,13.19));
#1001 = CARTESIAN_POINT('',(37.722052054872,-61.85548299842,13.19));
#1002 = CARTESIAN_POINT('',(37.71861002139,-61.88121328165,13.19));
#1003 = CARTESIAN_POINT('',(37.711059639245,-61.94437326352,13.19));
#1004 = CARTESIAN_POINT('',(37.707349606885,-61.98185224964,13.19));
#1005 = CARTESIAN_POINT('',(37.704394525014,-62.01940578147,13.19));
#1006 = CARTESIAN_POINT('',(37.702189069174,-62.05701514584,13.19));
#1007 = CARTESIAN_POINT('',(37.700726767355,-62.09466222276,13.19));
#1008 = CARTESIAN_POINT('',(37.7,-62.13232948538,13.19));
#1009 = CARTESIAN_POINT('',(37.7,-62.17,13.19));
#1010 = ORIENTED_EDGE('',*,*,#843,.T.);
#1011 = PLANE('',#1012);
#1012 = AXIS2_PLACEMENT_3D('',#1013,#1014,#1015);
#1013 = CARTESIAN_POINT('',(0.,-120.,13.19));
#1014 = DIRECTION('',(0.,0.,1.));
#1015 = DIRECTION('',(1.,0.,0.));
#1016 = ADVANCED_FACE('',(#1017),#1093,.T.);
#1017 = FACE_BOUND('',#1018,.T.);
#1018 = EDGE_LOOP('',(#1019,#1020,#1021,#1092));
#1019 = ORIENTED_EDGE('',*,*,#940,.T.);
#1020 = ORIENTED_EDGE('',*,*,#923,.T.);
#1021 = ORIENTED_EDGE('',*,*,#1022,.F.);
#1022 = EDGE_CURVE('',#881,#889,#1023,.T.);
#1023 = B_SPLINE_CURVE_WITH_KNOTS('',7,(#1024,#1025,#1026,#1027,#1028,
    #1029,#1030,#1031,#1032,#1033,#1034,#1035,#1036,#1037,#1038,#1039,
    #1040,#1041,#1042,#1043,#1044,#1045,#1046,#1047,#1048,#1049,#1050,
    #1051,#1052,#1053,#1054,#1055,#1056,#1057,#1058,#1059,#1060,#1061,
    #1062,#1063,#1064,#1065,#1066,#1067,#1068,#1069,#1070,#1071,#1072,
    #1073,#1074,#1075,#1076,#1077,#1078,#1079,#1080,#1081,#1082,#1083,
    #1084,#1085,#1086,#1087,#1088,#1089,#1090,#1091),.UNSPECIFIED.,.F.,
  .F.,(8,6,6,6,6,6,6,6,6,6,6,8),(0.,0.210030095682,0.37214113996,
    0.526965898016,0.618153904779,0.671886308622,0.79601577085,
    0.847577982248,0.916085617704,0.958546271499,0.975463051861,1.),
  .UNSPECIFIED.);
#1024 = CARTESIAN_POINT('',(43.2,-65.8,13.59));
#1025 = CARTESIAN_POINT('',(43.2,-65.4758424803,13.59));
#1026 = CARTESIAN_POINT('',(43.191966195872,-65.15178224505,13.59));
#1027 = CARTESIAN_POINT('',(43.175131461993,-64.8279513913,13.59));
#1028 = CARTESIAN_POINT('',(43.14857996143,-64.50467331984,13.59));
#1029 = CARTESIAN_POINT('',(43.111215232232,-64.18246751326,13.59));
#1030 = CARTESIAN_POINT('',(43.061747937761,-63.86205036402,13.59));
#1031 = CARTESIAN_POINT('',(42.949712628416,-63.2991448252,13.59));
#1032 = CARTESIAN_POINT('',(42.892732524915,-63.05567890632,13.59));
#1033 = CARTESIAN_POINT('',(42.82681685716,-62.81432003286,13.59));
#1034 = CARTESIAN_POINT('',(42.75109705432,-62.57571986043,13.59));
#1035 = CARTESIAN_POINT('',(42.664623079059,-62.34080950469,13.59));
#1036 = CARTESIAN_POINT('',(42.566357115905,-62.11080314113,13.59));
#1037 = CARTESIAN_POINT('',(42.348909558864,-61.67367770813,13.59));
#1038 = CARTESIAN_POINT('',(42.230931721605,-61.46612569884,13.59));
#1039 = CARTESIAN_POINT('',(42.100196781071,-61.26585022624,13.59));
#1040 = CARTESIAN_POINT('',(41.955799425993,-61.07480628413,13.59));
#1041 = CARTESIAN_POINT('',(41.79707138631,-60.8955083484,13.59));
#1042 = CARTESIAN_POINT('',(41.623799881373,-60.73085694962,13.59));
#1043 = CARTESIAN_POINT('',(41.326225729761,-60.49734084068,13.59));
#1044 = CARTESIAN_POINT('',(41.211102446614,-60.41694818803,13.59));
#1045 = CARTESIAN_POINT('',(41.091343413139,-60.34339008861,13.59));
#1046 = CARTESIAN_POINT('',(40.967241876508,-60.27732251271,13.59));
#1047 = CARTESIAN_POINT('',(40.839210612174,-60.21936106619,13.59));
#1048 = CARTESIAN_POINT('',(40.707798938598,-60.17004771977,13.59));
#1049 = CARTESIAN_POINT('',(40.494702851919,-60.10609894163,13.59));
#1050 = CARTESIAN_POINT('',(40.414757672168,-60.08553763827,13.59));
#1051 = CARTESIAN_POINT('',(40.33401871083,-60.06821227223,13.59));
#1052 = CARTESIAN_POINT('',(40.25263533021,-60.05419371923,13.59));
#1053 = CARTESIAN_POINT('',(40.170764879831,-60.04353689454,13.59));
#1054 = CARTESIAN_POINT('',(40.08857269644,-60.03628075308,13.59));
#1055 = CARTESIAN_POINT('',(39.816013674746,-60.02359475541,13.59));
#1056 = CARTESIAN_POINT('',(39.624979004925,-60.03301204356,13.59));
#1057 = CARTESIAN_POINT('',(39.435276985752,-60.06099144089,13.59));
#1058 = CARTESIAN_POINT('',(39.249025229886,-60.10735487736,13.59));
#1059 = CARTESIAN_POINT('',(39.068346429155,-60.17164481847,13.59));
#1060 = CARTESIAN_POINT('',(38.895375174339,-60.25318814415,13.59));
#1061 = CARTESIAN_POINT('',(38.664468441063,-60.39167826803,13.59));
#1062 = CARTESIAN_POINT('',(38.598392941214,-60.43513865339,13.59));
#1063 = CARTESIAN_POINT('',(38.534159474132,-60.48134856653,13.59));
#1064 = CARTESIAN_POINT('',(38.471919131417,-60.53023393737,13.59));
#1065 = CARTESIAN_POINT('',(38.411822075577,-60.58171175862,13.59));
#1066 = CARTESIAN_POINT('',(38.354016256012,-60.63568861522,13.59));
#1067 = CARTESIAN_POINT('',(38.225079133832,-60.76695546644,13.59));
#1068 = CARTESIAN_POINT('',(38.155804284165,-60.84608478357,13.59));
#1069 = CARTESIAN_POINT('',(38.091172315674,-60.9291901993,13.59));
#1070 = CARTESIAN_POINT('',(38.031506955152,-61.01598255667,13.59));
#1071 = CARTESIAN_POINT('',(37.977101114296,-61.10613822365,13.59));
#1072 = CARTESIAN_POINT('',(37.92820540898,-61.19929179925,13.59));
#1073 = CARTESIAN_POINT('',(37.858236104473,-61.35435798111,13.59));
#1074 = CARTESIAN_POINT('',(37.833650769382,-61.41468646996,13.59));
#1075 = CARTESIAN_POINT('',(37.811298184097,-61.4759105495,13.59));
#1076 = CARTESIAN_POINT('',(37.791211872975,-61.53792963743,13.59));
#1077 = CARTESIAN_POINT('',(37.773413695364,-61.60064129615,13.59));
#1078 = CARTESIAN_POINT('',(37.757913845598,-61.66394123282,13.59));
#1079 = CARTESIAN_POINT('',(37.739450638991,-61.75313475935,13.59));
#1080 = CARTESIAN_POINT('',(37.734554942759,-61.77862299902,13.59));
#1081 = CARTESIAN_POINT('',(37.730023623969,-61.80418144632,13.59));
#1082 = CARTESIAN_POINT('',(37.725856241786,-61.82980359379,13.59));
#1083 = CARTESIAN_POINT('',(37.722052054872,-61.85548299842,13.59));
#1084 = CARTESIAN_POINT('',(37.71861002139,-61.88121328165,13.59));
#1085 = CARTESIAN_POINT('',(37.711059639245,-61.94437326352,13.59));
#1086 = CARTESIAN_POINT('',(37.707349606885,-61.98185224964,13.59));
#1087 = CARTESIAN_POINT('',(37.704394525014,-62.01940578147,13.59));
#1088 = CARTESIAN_POINT('',(37.702189069174,-62.05701514584,13.59));
#1089 = CARTESIAN_POINT('',(37.700726767355,-62.09466222276,13.59));
#1090 = CARTESIAN_POINT('',(37.7,-62.13232948538,13.59));
#1091 = CARTESIAN_POINT('',(37.7,-62.17,13.59));
#1092 = ORIENTED_EDGE('',*,*,#880,.F.);
#1093 = SURFACE_OF_LINEAR_EXTRUSION('',#1094,#1099);
#1094 = B_SPLINE_CURVE_WITH_KNOTS('',3,(#1095,#1096,#1097,#1098),
  .UNSPECIFIED.,.F.,.F.,(4,4),(0.,1.),.PIECEWISE_BEZIER_KNOTS.);
#1095 = CARTESIAN_POINT('',(37.7,-62.17,0.));
#1096 = CARTESIAN_POINT('',(37.7,-59.28,0.));
#1097 = CARTESIAN_POINT('',(43.2,-58.32,0.));
#1098 = CARTESIAN_POINT('',(43.2,-65.8,0.));
#1099 = VECTOR('',#1100,1.);
#1100 = DIRECTION('',(-0.,-0.,-1.));
#1101 = ADVANCED_FACE('',(#1102),#1106,.T.);
#1102 = FACE_BOUND('',#1103,.T.);
#1103 = EDGE_LOOP('',(#1104,#1105));
#1104 = ORIENTED_EDGE('',*,*,#1022,.T.);
#1105 = ORIENTED_EDGE('',*,*,#888,.T.);
#1106 = PLANE('',#1107);
#1107 = AXIS2_PLACEMENT_3D('',#1108,#1109,#1110);
#1108 = CARTESIAN_POINT('',(0.,-120.,13.59));
#1109 = DIRECTION('',(0.,0.,1.));
#1110 = DIRECTION('',(1.,0.,0.));
#1111 = ( GEOMETRIC_REPRESENTATION_CONTEXT(3) 
GLOBAL_UNCERTAINTY_ASSIGNED_CONTEXT((#1115)) 
GLOBAL_UNIT_ASSIGNED_CONTEXT((#1112,#1113,#1114)) REPRESENTATION_CONTEXT
('Context #1','3D Context with UNIT and UNCERTAINTY') );
#1112 = ( LENGTH_UNIT() NAMED_UNIT(*) SI_UNIT(.MILLI.,.METRE.) );
#1113 = ( NAMED_UNIT(*) PLANE_ANGLE_UNIT() SI_UNIT($,.RADIAN.) );
#1114 = ( NAMED_UNIT(*) SI_UNIT($,.STERADIAN.) SOLID_ANGLE_UNIT() );
#1115 = UNCERTAINTY_MEASURE_WITH_UNIT(LENGTH_MEASURE(5.E-06),#1112,
  'distance_accuracy_value','confusion accuracy');
#1116 = PRODUCT_RELATED_PRODUCT_CATEGORY('part',$,(#7));
ENDSEC;
END-ISO-10303-21;
