ISO-10303-21;
HEADER;
FILE_DESCRIPTION(('FreeCAD Model'),'2;1');
FILE_NAME('Open CASCADE Shape Model','2026-09-28T16:00:52',('FreeCAD'),(
    'FreeCAD'),'Open CASCADE STEP processor 7.8','FreeCAD','Unknown');
FILE_SCHEMA(('AUTOMOTIVE_DESIGN { 1 0 10303 214 1 1 1 1 }'));
ENDSEC;
DATA;
#1 = APPLICATION_PROTOCOL_DEFINITION('international standard',
  'automotive_design',2000,#2);
#2 = APPLICATION_CONTEXT(
  'core data for automotive mechanical design processes');
#3 = SHAPE_DEFINITION_REPRESENTATION(#4,#10);
#4 = PRODUCT_DEFINITION_SHAPE('','',#5);
#5 = PRODUCT_DEFINITION('design','',#6,#9);
#6 = PRODUCT_DEFINITION_FORMATION('','',#7);
#7 = PRODUCT('Open CASCADE STEP translator 7.8 114',
  'Open CASCADE STEP translator 7.8 114','',(#8));
#8 = PRODUCT_CONTEXT('',#2,'mechanical');
#9 = PRODUCT_DEFINITION_CONTEXT('part definition',#2,'design');
#10 = SHAPE_REPRESENTATION('',(#11,#15,#189,#363,#537,#711),#905);
#11 = AXIS2_PLACEMENT_3D('',#12,#13,#14);
#12 = CARTESIAN_POINT('',(0.,0.,0.));
#13 = DIRECTION('',(0.,0.,1.));
#14 = DIRECTION('',(1.,0.,-0.));
#15 = MANIFOLD_SOLID_BREP('',#16);
#16 = CLOSED_SHELL('',(#17,#57,#90,#121,#148,#175));
#17 = ADVANCED_FACE('',(#18),#52,.T.);
#18 = FACE_BOUND('',#19,.T.);
#19 = EDGE_LOOP('',(#20,#30,#38,#46));
#20 = ORIENTED_EDGE('',*,*,#21,.T.);
#21 = EDGE_CURVE('',#22,#24,#26,.T.);
#22 = VERTEX_POINT('',#23);
#23 = CARTESIAN_POINT('',(36.40249223595,-63.20124611797,12.99));
#24 = VERTEX_POINT('',#25);
#25 = CARTESIAN_POINT('',(36.40249223595,-63.20124611797,13.39));
#26 = LINE('',#27,#28);
#27 = CARTESIAN_POINT('',(36.40249223595,-63.20124611797,12.99));
#28 = VECTOR('',#29,1.);
#29 = DIRECTION('',(0.,0.,1.));
#30 = ORIENTED_EDGE('',*,*,#31,.T.);
#31 = EDGE_CURVE('',#24,#32,#34,.T.);
#32 = VERTEX_POINT('',#33);
#33 = CARTESIAN_POINT('',(35.40249223595,-65.20124611797,13.39));
#34 = LINE('',#35,#36);
#35 = CARTESIAN_POINT('',(36.40249223595,-63.20124611797,13.39));
#36 = VECTOR('',#37,1.);
#37 = DIRECTION('',(-0.4472135955,-0.894427191,0.));
#38 = ORIENTED_EDGE('',*,*,#39,.F.);
#39 = EDGE_CURVE('',#40,#32,#42,.T.);
#40 = VERTEX_POINT('',#41);
#41 = CARTESIAN_POINT('',(35.40249223595,-65.20124611797,12.99));
#42 = LINE('',#43,#44);
#43 = CARTESIAN_POINT('',(35.40249223595,-65.20124611797,12.99));
#44 = VECTOR('',#45,1.);
#45 = DIRECTION('',(0.,0.,1.));
#46 = ORIENTED_EDGE('',*,*,#47,.F.);
#47 = EDGE_CURVE('',#22,#40,#48,.T.);
#48 = LINE('',#49,#50);
#49 = CARTESIAN_POINT('',(36.40249223595,-63.20124611797,12.99));
#50 = VECTOR('',#51,1.);
#51 = DIRECTION('',(-0.4472135955,-0.894427191,0.));
#52 = PLANE('',#53);
#53 = AXIS2_PLACEMENT_3D('',#54,#55,#56);
#54 = CARTESIAN_POINT('',(36.40249223595,-63.20124611797,12.99));
#55 = DIRECTION('',(0.894427191,-0.4472135955,0.));
#56 = DIRECTION('',(-0.4472135955,-0.894427191,0.));
#57 = ADVANCED_FACE('',(#58),#85,.T.);
#58 = FACE_BOUND('',#59,.F.);
#59 = EDGE_LOOP('',(#60,#69,#77,#84));
#60 = ORIENTED_EDGE('',*,*,#61,.F.);
#61 = EDGE_CURVE('',#62,#40,#64,.T.);
#62 = VERTEX_POINT('',#63);
#63 = CARTESIAN_POINT('',(34.59750776405,-64.79875388202,12.99));
#64 = CIRCLE('',#65,0.45);
#65 = AXIS2_PLACEMENT_3D('',#66,#67,#68);
#66 = CARTESIAN_POINT('',(35.,-65.,12.99));
#67 = DIRECTION('',(0.,0.,1.));
#68 = DIRECTION('',(1.,0.,0.));
#69 = ORIENTED_EDGE('',*,*,#70,.T.);
#70 = EDGE_CURVE('',#62,#71,#73,.T.);
#71 = VERTEX_POINT('',#72);
#72 = CARTESIAN_POINT('',(34.59750776405,-64.79875388202,13.39));
#73 = LINE('',#74,#75);
#74 = CARTESIAN_POINT('',(34.59750776405,-64.79875388202,12.99));
#75 = VECTOR('',#76,1.);
#76 = DIRECTION('',(0.,0.,1.));
#77 = ORIENTED_EDGE('',*,*,#78,.T.);
#78 = EDGE_CURVE('',#71,#32,#79,.T.);
#79 = CIRCLE('',#80,0.45);
#80 = AXIS2_PLACEMENT_3D('',#81,#82,#83);
#81 = CARTESIAN_POINT('',(35.,-65.,13.39));
#82 = DIRECTION('',(0.,0.,1.));
#83 = DIRECTION('',(1.,0.,0.));
#84 = ORIENTED_EDGE('',*,*,#39,.F.);
#85 = CYLINDRICAL_SURFACE('',#86,0.45);
#86 = AXIS2_PLACEMENT_3D('',#87,#88,#89);
#87 = CARTESIAN_POINT('',(35.,-65.,12.99));
#88 = DIRECTION('',(-0.,-0.,-1.));
#89 = DIRECTION('',(1.,0.,0.));
#90 = ADVANCED_FACE('',(#91),#116,.T.);
#91 = FACE_BOUND('',#92,.T.);
#92 = EDGE_LOOP('',(#93,#94,#102,#110));
#93 = ORIENTED_EDGE('',*,*,#70,.T.);
#94 = ORIENTED_EDGE('',*,*,#95,.T.);
#95 = EDGE_CURVE('',#71,#96,#98,.T.);
#96 = VERTEX_POINT('',#97);
#97 = CARTESIAN_POINT('',(35.59750776405,-62.79875388202,13.39));
#98 = LINE('',#99,#100);
#99 = CARTESIAN_POINT('',(34.59750776405,-64.79875388202,13.39));
#100 = VECTOR('',#101,1.);
#101 = DIRECTION('',(0.4472135955,0.894427191,0.));
#102 = ORIENTED_EDGE('',*,*,#103,.F.);
#103 = EDGE_CURVE('',#104,#96,#106,.T.);
#104 = VERTEX_POINT('',#105);
#105 = CARTESIAN_POINT('',(35.59750776405,-62.79875388202,12.99));
#106 = LINE('',#107,#108);
#107 = CARTESIAN_POINT('',(35.59750776405,-62.79875388202,12.99));
#108 = VECTOR('',#109,1.);
#109 = DIRECTION('',(0.,0.,1.));
#110 = ORIENTED_EDGE('',*,*,#111,.F.);
#111 = EDGE_CURVE('',#62,#104,#112,.T.);
#112 = LINE('',#113,#114);
#113 = CARTESIAN_POINT('',(34.59750776405,-64.79875388202,12.99));
#114 = VECTOR('',#115,1.);
#115 = DIRECTION('',(0.4472135955,0.894427191,0.));
#116 = PLANE('',#117);
#117 = AXIS2_PLACEMENT_3D('',#118,#119,#120);
#118 = CARTESIAN_POINT('',(34.59750776405,-64.79875388202,12.99));
#119 = DIRECTION('',(-0.894427191,0.4472135955,0.));
#120 = DIRECTION('',(0.4472135955,0.894427191,0.));
#121 = ADVANCED_FACE('',(#122),#143,.T.);
#122 = FACE_BOUND('',#123,.T.);
#123 = EDGE_LOOP('',(#124,#125,#126,#127,#136));
#124 = ORIENTED_EDGE('',*,*,#47,.T.);
#125 = ORIENTED_EDGE('',*,*,#61,.F.);
#126 = ORIENTED_EDGE('',*,*,#111,.T.);
#127 = ORIENTED_EDGE('',*,*,#128,.F.);
#128 = EDGE_CURVE('',#129,#104,#131,.T.);
#129 = VERTEX_POINT('',#130);
#130 = CARTESIAN_POINT('',(36.45,-63.,12.99));
#131 = CIRCLE('',#132,0.45);
#132 = AXIS2_PLACEMENT_3D('',#133,#134,#135);
#133 = CARTESIAN_POINT('',(36.,-63.,12.99));
#134 = DIRECTION('',(0.,0.,1.));
#135 = DIRECTION('',(1.,0.,0.));
#136 = ORIENTED_EDGE('',*,*,#137,.F.);
#137 = EDGE_CURVE('',#22,#129,#138,.T.);
#138 = CIRCLE('',#139,0.45);
#139 = AXIS2_PLACEMENT_3D('',#140,#141,#142);
#140 = CARTESIAN_POINT('',(36.,-63.,12.99));
#141 = DIRECTION('',(0.,0.,1.));
#142 = DIRECTION('',(1.,0.,0.));
#143 = PLANE('',#144);
#144 = AXIS2_PLACEMENT_3D('',#145,#146,#147);
#145 = CARTESIAN_POINT('',(35.503762097404,-63.99514847612,12.99));
#146 = DIRECTION('',(-0.,-0.,-1.));
#147 = DIRECTION('',(-1.,0.,0.));
#148 = ADVANCED_FACE('',(#149),#170,.T.);
#149 = FACE_BOUND('',#150,.T.);
#150 = EDGE_LOOP('',(#151,#152,#161,#168,#169));
#151 = ORIENTED_EDGE('',*,*,#31,.F.);
#152 = ORIENTED_EDGE('',*,*,#153,.T.);
#153 = EDGE_CURVE('',#24,#154,#156,.T.);
#154 = VERTEX_POINT('',#155);
#155 = CARTESIAN_POINT('',(36.45,-63.,13.39));
#156 = CIRCLE('',#157,0.45);
#157 = AXIS2_PLACEMENT_3D('',#158,#159,#160);
#158 = CARTESIAN_POINT('',(36.,-63.,13.39));
#159 = DIRECTION('',(0.,0.,1.));
#160 = DIRECTION('',(1.,0.,0.));
#161 = ORIENTED_EDGE('',*,*,#162,.T.);
#162 = EDGE_CURVE('',#154,#96,#163,.T.);
#163 = CIRCLE('',#164,0.45);
#164 = AXIS2_PLACEMENT_3D('',#165,#166,#167);
#165 = CARTESIAN_POINT('',(36.,-63.,13.39));
#166 = DIRECTION('',(0.,0.,1.));
#167 = DIRECTION('',(1.,0.,0.));
#168 = ORIENTED_EDGE('',*,*,#95,.F.);
#169 = ORIENTED_EDGE('',*,*,#78,.T.);
#170 = PLANE('',#171);
#171 = AXIS2_PLACEMENT_3D('',#172,#173,#174);
#172 = CARTESIAN_POINT('',(35.503762097404,-63.99514847612,13.39));
#173 = DIRECTION('',(0.,0.,1.));
#174 = DIRECTION('',(1.,0.,0.));
#175 = ADVANCED_FACE('',(#176),#184,.T.);
#176 = FACE_BOUND('',#177,.F.);
#177 = EDGE_LOOP('',(#178,#179,#180,#181,#182,#183));
#178 = ORIENTED_EDGE('',*,*,#103,.F.);
#179 = ORIENTED_EDGE('',*,*,#128,.F.);
#180 = ORIENTED_EDGE('',*,*,#137,.F.);
#181 = ORIENTED_EDGE('',*,*,#21,.T.);
#182 = ORIENTED_EDGE('',*,*,#153,.T.);
#183 = ORIENTED_EDGE('',*,*,#162,.T.);
#184 = CYLINDRICAL_SURFACE('',#185,0.45);
#185 = AXIS2_PLACEMENT_3D('',#186,#187,#188);
#186 = CARTESIAN_POINT('',(36.,-63.,12.99));
#187 = DIRECTION('',(-0.,-0.,-1.));
#188 = DIRECTION('',(1.,0.,0.));
#189 = MANIFOLD_SOLID_BREP('',#190);
#190 = CLOSED_SHELL('',(#191,#231,#264,#295,#322,#349));
#191 = ADVANCED_FACE('',(#192),#226,.T.);
#192 = FACE_BOUND('',#193,.T.);
#193 = EDGE_LOOP('',(#194,#204,#212,#220));
#194 = ORIENTED_EDGE('',*,*,#195,.T.);
#195 = EDGE_CURVE('',#196,#198,#200,.T.);
#196 = VERTEX_POINT('',#197);
#197 = CARTESIAN_POINT('',(33.90249223595,-63.20124611797,12.99));
#198 = VERTEX_POINT('',#199);
#199 = CARTESIAN_POINT('',(33.90249223595,-63.20124611797,13.39));
#200 = LINE('',#201,#202);
#201 = CARTESIAN_POINT('',(33.90249223595,-63.20124611797,12.99));
#202 = VECTOR('',#203,1.);
#203 = DIRECTION('',(0.,0.,1.));
#204 = ORIENTED_EDGE('',*,*,#205,.T.);
#205 = EDGE_CURVE('',#198,#206,#208,.T.);
#206 = VERTEX_POINT('',#207);
#207 = CARTESIAN_POINT('',(32.90249223595,-65.20124611797,13.39));
#208 = LINE('',#209,#210);
#209 = CARTESIAN_POINT('',(33.90249223595,-63.20124611797,13.39));
#210 = VECTOR('',#211,1.);
#211 = DIRECTION('',(-0.4472135955,-0.894427191,0.));
#212 = ORIENTED_EDGE('',*,*,#213,.F.);
#213 = EDGE_CURVE('',#214,#206,#216,.T.);
#214 = VERTEX_POINT('',#215);
#215 = CARTESIAN_POINT('',(32.90249223595,-65.20124611797,12.99));
#216 = LINE('',#217,#218);
#217 = CARTESIAN_POINT('',(32.90249223595,-65.20124611797,12.99));
#218 = VECTOR('',#219,1.);
#219 = DIRECTION('',(0.,0.,1.));
#220 = ORIENTED_EDGE('',*,*,#221,.F.);
#221 = EDGE_CURVE('',#196,#214,#222,.T.);
#222 = LINE('',#223,#224);
#223 = CARTESIAN_POINT('',(33.90249223595,-63.20124611797,12.99));
#224 = VECTOR('',#225,1.);
#225 = DIRECTION('',(-0.4472135955,-0.894427191,0.));
#226 = PLANE('',#227);
#227 = AXIS2_PLACEMENT_3D('',#228,#229,#230);
#228 = CARTESIAN_POINT('',(33.90249223595,-63.20124611797,12.99));
#229 = DIRECTION('',(0.894427191,-0.4472135955,0.));
#230 = DIRECTION('',(-0.4472135955,-0.894427191,0.));
#231 = ADVANCED_FACE('',(#232),#259,.T.);
#232 = FACE_BOUND('',#233,.F.);
#233 = EDGE_LOOP('',(#234,#243,#251,#258));
#234 = ORIENTED_EDGE('',*,*,#235,.F.);
#235 = EDGE_CURVE('',#236,#214,#238,.T.);
#236 = VERTEX_POINT('',#237);
#237 = CARTESIAN_POINT('',(32.09750776405,-64.79875388202,12.99));
#238 = CIRCLE('',#239,0.45);
#239 = AXIS2_PLACEMENT_3D('',#240,#241,#242);
#240 = CARTESIAN_POINT('',(32.5,-65.,12.99));
#241 = DIRECTION('',(0.,0.,1.));
#242 = DIRECTION('',(1.,0.,0.));
#243 = ORIENTED_EDGE('',*,*,#244,.T.);
#244 = EDGE_CURVE('',#236,#245,#247,.T.);
#245 = VERTEX_POINT('',#246);
#246 = CARTESIAN_POINT('',(32.09750776405,-64.79875388202,13.39));
#247 = LINE('',#248,#249);
#248 = CARTESIAN_POINT('',(32.09750776405,-64.79875388202,12.99));
#249 = VECTOR('',#250,1.);
#250 = DIRECTION('',(0.,0.,1.));
#251 = ORIENTED_EDGE('',*,*,#252,.T.);
#252 = EDGE_CURVE('',#245,#206,#253,.T.);
#253 = CIRCLE('',#254,0.45);
#254 = AXIS2_PLACEMENT_3D('',#255,#256,#257);
#255 = CARTESIAN_POINT('',(32.5,-65.,13.39));
#256 = DIRECTION('',(0.,0.,1.));
#257 = DIRECTION('',(1.,0.,0.));
#258 = ORIENTED_EDGE('',*,*,#213,.F.);
#259 = CYLINDRICAL_SURFACE('',#260,0.45);
#260 = AXIS2_PLACEMENT_3D('',#261,#262,#263);
#261 = CARTESIAN_POINT('',(32.5,-65.,12.99));
#262 = DIRECTION('',(-0.,-0.,-1.));
#263 = DIRECTION('',(1.,0.,0.));
#264 = ADVANCED_FACE('',(#265),#290,.T.);
#265 = FACE_BOUND('',#266,.T.);
#266 = EDGE_LOOP('',(#267,#268,#276,#284));
#267 = ORIENTED_EDGE('',*,*,#244,.T.);
#268 = ORIENTED_EDGE('',*,*,#269,.T.);
#269 = EDGE_CURVE('',#245,#270,#272,.T.);
#270 = VERTEX_POINT('',#271);
#271 = CARTESIAN_POINT('',(33.09750776405,-62.79875388202,13.39));
#272 = LINE('',#273,#274);
#273 = CARTESIAN_POINT('',(32.09750776405,-64.79875388202,13.39));
#274 = VECTOR('',#275,1.);
#275 = DIRECTION('',(0.4472135955,0.894427191,0.));
#276 = ORIENTED_EDGE('',*,*,#277,.F.);
#277 = EDGE_CURVE('',#278,#270,#280,.T.);
#278 = VERTEX_POINT('',#279);
#279 = CARTESIAN_POINT('',(33.09750776405,-62.79875388202,12.99));
#280 = LINE('',#281,#282);
#281 = CARTESIAN_POINT('',(33.09750776405,-62.79875388202,12.99));
#282 = VECTOR('',#283,1.);
#283 = DIRECTION('',(0.,0.,1.));
#284 = ORIENTED_EDGE('',*,*,#285,.F.);
#285 = EDGE_CURVE('',#236,#278,#286,.T.);
#286 = LINE('',#287,#288);
#287 = CARTESIAN_POINT('',(32.09750776405,-64.79875388202,12.99));
#288 = VECTOR('',#289,1.);
#289 = DIRECTION('',(0.4472135955,0.894427191,0.));
#290 = PLANE('',#291);
#291 = AXIS2_PLACEMENT_3D('',#292,#293,#294);
#292 = CARTESIAN_POINT('',(32.09750776405,-64.79875388202,12.99));
#293 = DIRECTION('',(-0.894427191,0.4472135955,0.));
#294 = DIRECTION('',(0.4472135955,0.894427191,0.));
#295 = ADVANCED_FACE('',(#296),#317,.T.);
#296 = FACE_BOUND('',#297,.T.);
#297 = EDGE_LOOP('',(#298,#299,#300,#301,#310));
#298 = ORIENTED_EDGE('',*,*,#221,.T.);
#299 = ORIENTED_EDGE('',*,*,#235,.F.);
#300 = ORIENTED_EDGE('',*,*,#285,.T.);
#301 = ORIENTED_EDGE('',*,*,#302,.F.);
#302 = EDGE_CURVE('',#303,#278,#305,.T.);
#303 = VERTEX_POINT('',#304);
#304 = CARTESIAN_POINT('',(33.95,-63.,12.99));
#305 = CIRCLE('',#306,0.45);
#306 = AXIS2_PLACEMENT_3D('',#307,#308,#309);
#307 = CARTESIAN_POINT('',(33.5,-63.,12.99));
#308 = DIRECTION('',(0.,0.,1.));
#309 = DIRECTION('',(1.,0.,0.));
#310 = ORIENTED_EDGE('',*,*,#311,.F.);
#311 = EDGE_CURVE('',#196,#303,#312,.T.);
#312 = CIRCLE('',#313,0.45);
#313 = AXIS2_PLACEMENT_3D('',#314,#315,#316);
#314 = CARTESIAN_POINT('',(33.5,-63.,12.99));
#315 = DIRECTION('',(0.,0.,1.));
#316 = DIRECTION('',(1.,0.,0.));
#317 = PLANE('',#318);
#318 = AXIS2_PLACEMENT_3D('',#319,#320,#321);
#319 = CARTESIAN_POINT('',(33.003762097404,-63.99514847612,12.99));
#320 = DIRECTION('',(-0.,-0.,-1.));
#321 = DIRECTION('',(-1.,0.,0.));
#322 = ADVANCED_FACE('',(#323),#344,.T.);
#323 = FACE_BOUND('',#324,.T.);
#324 = EDGE_LOOP('',(#325,#326,#335,#342,#343));
#325 = ORIENTED_EDGE('',*,*,#205,.F.);
#326 = ORIENTED_EDGE('',*,*,#327,.T.);
#327 = EDGE_CURVE('',#198,#328,#330,.T.);
#328 = VERTEX_POINT('',#329);
#329 = CARTESIAN_POINT('',(33.95,-63.,13.39));
#330 = CIRCLE('',#331,0.45);
#331 = AXIS2_PLACEMENT_3D('',#332,#333,#334);
#332 = CARTESIAN_POINT('',(33.5,-63.,13.39));
#333 = DIRECTION('',(0.,0.,1.));
#334 = DIRECTION('',(1.,0.,0.));
#335 = ORIENTED_EDGE('',*,*,#336,.T.);
#336 = EDGE_CURVE('',#328,#270,#337,.T.);
#337 = CIRCLE('',#338,0.45);
#338 = AXIS2_PLACEMENT_3D('',#339,#340,#341);
#339 = CARTESIAN_POINT('',(33.5,-63.,13.39));
#340 = DIRECTION('',(0.,0.,1.));
#341 = DIRECTION('',(1.,0.,0.));
#342 = ORIENTED_EDGE('',*,*,#269,.F.);
#343 = ORIENTED_EDGE('',*,*,#252,.T.);
#344 = PLANE('',#345);
#345 = AXIS2_PLACEMENT_3D('',#346,#347,#348);
#346 = CARTESIAN_POINT('',(33.003762097404,-63.99514847612,13.39));
#347 = DIRECTION('',(0.,0.,1.));
#348 = DIRECTION('',(1.,0.,0.));
#349 = ADVANCED_FACE('',(#350),#358,.T.);
#350 = FACE_BOUND('',#351,.F.);
#351 = EDGE_LOOP('',(#352,#353,#354,#355,#356,#357));
#352 = ORIENTED_EDGE('',*,*,#277,.F.);
#353 = ORIENTED_EDGE('',*,*,#302,.F.);
#354 = ORIENTED_EDGE('',*,*,#311,.F.);
#355 = ORIENTED_EDGE('',*,*,#195,.T.);
#356 = ORIENTED_EDGE('',*,*,#327,.T.);
#357 = ORIENTED_EDGE('',*,*,#336,.T.);
#358 = CYLINDRICAL_SURFACE('',#359,0.45);
#359 = AXIS2_PLACEMENT_3D('',#360,#361,#362);
#360 = CARTESIAN_POINT('',(33.5,-63.,12.99));
#361 = DIRECTION('',(-0.,-0.,-1.));
#362 = DIRECTION('',(1.,0.,0.));
#363 = MANIFOLD_SOLID_BREP('',#364);
#364 = CLOSED_SHELL('',(#365,#405,#438,#469,#496,#523));
#365 = ADVANCED_FACE('',(#366),#400,.T.);
#366 = FACE_BOUND('',#367,.T.);
#367 = EDGE_LOOP('',(#368,#378,#386,#394));
#368 = ORIENTED_EDGE('',*,*,#369,.T.);
#369 = EDGE_CURVE('',#370,#372,#374,.T.);
#370 = VERTEX_POINT('',#371);
#371 = CARTESIAN_POINT('',(31.40249223595,-63.20124611797,12.99));
#372 = VERTEX_POINT('',#373);
#373 = CARTESIAN_POINT('',(31.40249223595,-63.20124611797,13.39));
#374 = LINE('',#375,#376);
#375 = CARTESIAN_POINT('',(31.40249223595,-63.20124611797,12.99));
#376 = VECTOR('',#377,1.);
#377 = DIRECTION('',(0.,0.,1.));
#378 = ORIENTED_EDGE('',*,*,#379,.T.);
#379 = EDGE_CURVE('',#372,#380,#382,.T.);
#380 = VERTEX_POINT('',#381);
#381 = CARTESIAN_POINT('',(30.40249223595,-65.20124611797,13.39));
#382 = LINE('',#383,#384);
#383 = CARTESIAN_POINT('',(31.40249223595,-63.20124611797,13.39));
#384 = VECTOR('',#385,1.);
#385 = DIRECTION('',(-0.4472135955,-0.894427191,0.));
#386 = ORIENTED_EDGE('',*,*,#387,.F.);
#387 = EDGE_CURVE('',#388,#380,#390,.T.);
#388 = VERTEX_POINT('',#389);
#389 = CARTESIAN_POINT('',(30.40249223595,-65.20124611797,12.99));
#390 = LINE('',#391,#392);
#391 = CARTESIAN_POINT('',(30.40249223595,-65.20124611797,12.99));
#392 = VECTOR('',#393,1.);
#393 = DIRECTION('',(0.,0.,1.));
#394 = ORIENTED_EDGE('',*,*,#395,.F.);
#395 = EDGE_CURVE('',#370,#388,#396,.T.);
#396 = LINE('',#397,#398);
#397 = CARTESIAN_POINT('',(31.40249223595,-63.20124611797,12.99));
#398 = VECTOR('',#399,1.);
#399 = DIRECTION('',(-0.4472135955,-0.894427191,0.));
#400 = PLANE('',#401);
#401 = AXIS2_PLACEMENT_3D('',#402,#403,#404);
#402 = CARTESIAN_POINT('',(31.40249223595,-63.20124611797,12.99));
#403 = DIRECTION('',(0.894427191,-0.4472135955,0.));
#404 = DIRECTION('',(-0.4472135955,-0.894427191,0.));
#405 = ADVANCED_FACE('',(#406),#433,.T.);
#406 = FACE_BOUND('',#407,.F.);
#407 = EDGE_LOOP('',(#408,#417,#425,#432));
#408 = ORIENTED_EDGE('',*,*,#409,.F.);
#409 = EDGE_CURVE('',#410,#388,#412,.T.);
#410 = VERTEX_POINT('',#411);
#411 = CARTESIAN_POINT('',(29.59750776405,-64.79875388202,12.99));
#412 = CIRCLE('',#413,0.45);
#413 = AXIS2_PLACEMENT_3D('',#414,#415,#416);
#414 = CARTESIAN_POINT('',(30.,-65.,12.99));
#415 = DIRECTION('',(0.,0.,1.));
#416 = DIRECTION('',(1.,0.,0.));
#417 = ORIENTED_EDGE('',*,*,#418,.T.);
#418 = EDGE_CURVE('',#410,#419,#421,.T.);
#419 = VERTEX_POINT('',#420);
#420 = CARTESIAN_POINT('',(29.59750776405,-64.79875388202,13.39));
#421 = LINE('',#422,#423);
#422 = CARTESIAN_POINT('',(29.59750776405,-64.79875388202,12.99));
#423 = VECTOR('',#424,1.);
#424 = DIRECTION('',(0.,0.,1.));
#425 = ORIENTED_EDGE('',*,*,#426,.T.);
#426 = EDGE_CURVE('',#419,#380,#427,.T.);
#427 = CIRCLE('',#428,0.45);
#428 = AXIS2_PLACEMENT_3D('',#429,#430,#431);
#429 = CARTESIAN_POINT('',(30.,-65.,13.39));
#430 = DIRECTION('',(0.,0.,1.));
#431 = DIRECTION('',(1.,0.,0.));
#432 = ORIENTED_EDGE('',*,*,#387,.F.);
#433 = CYLINDRICAL_SURFACE('',#434,0.45);
#434 = AXIS2_PLACEMENT_3D('',#435,#436,#437);
#435 = CARTESIAN_POINT('',(30.,-65.,12.99));
#436 = DIRECTION('',(-0.,-0.,-1.));
#437 = DIRECTION('',(1.,0.,0.));
#438 = ADVANCED_FACE('',(#439),#464,.T.);
#439 = FACE_BOUND('',#440,.T.);
#440 = EDGE_LOOP('',(#441,#442,#450,#458));
#441 = ORIENTED_EDGE('',*,*,#418,.T.);
#442 = ORIENTED_EDGE('',*,*,#443,.T.);
#443 = EDGE_CURVE('',#419,#444,#446,.T.);
#444 = VERTEX_POINT('',#445);
#445 = CARTESIAN_POINT('',(30.59750776405,-62.79875388202,13.39));
#446 = LINE('',#447,#448);
#447 = CARTESIAN_POINT('',(29.59750776405,-64.79875388202,13.39));
#448 = VECTOR('',#449,1.);
#449 = DIRECTION('',(0.4472135955,0.894427191,0.));
#450 = ORIENTED_EDGE('',*,*,#451,.F.);
#451 = EDGE_CURVE('',#452,#444,#454,.T.);
#452 = VERTEX_POINT('',#453);
#453 = CARTESIAN_POINT('',(30.59750776405,-62.79875388202,12.99));
#454 = LINE('',#455,#456);
#455 = CARTESIAN_POINT('',(30.59750776405,-62.79875388202,12.99));
#456 = VECTOR('',#457,1.);
#457 = DIRECTION('',(0.,0.,1.));
#458 = ORIENTED_EDGE('',*,*,#459,.F.);
#459 = EDGE_CURVE('',#410,#452,#460,.T.);
#460 = LINE('',#461,#462);
#461 = CARTESIAN_POINT('',(29.59750776405,-64.79875388202,12.99));
#462 = VECTOR('',#463,1.);
#463 = DIRECTION('',(0.4472135955,0.894427191,0.));
#464 = PLANE('',#465);
#465 = AXIS2_PLACEMENT_3D('',#466,#467,#468);
#466 = CARTESIAN_POINT('',(29.59750776405,-64.79875388202,12.99));
#467 = DIRECTION('',(-0.894427191,0.4472135955,0.));
#468 = DIRECTION('',(0.4472135955,0.894427191,0.));
#469 = ADVANCED_FACE('',(#470),#491,.T.);
#470 = FACE_BOUND('',#471,.T.);
#471 = EDGE_LOOP('',(#472,#473,#474,#475,#484));
#472 = ORIENTED_EDGE('',*,*,#395,.T.);
#473 = ORIENTED_EDGE('',*,*,#409,.F.);
#474 = ORIENTED_EDGE('',*,*,#459,.T.);
#475 = ORIENTED_EDGE('',*,*,#476,.F.);
#476 = EDGE_CURVE('',#477,#452,#479,.T.);
#477 = VERTEX_POINT('',#478);
#478 = CARTESIAN_POINT('',(31.45,-63.,12.99));
#479 = CIRCLE('',#480,0.45);
#480 = AXIS2_PLACEMENT_3D('',#481,#482,#483);
#481 = CARTESIAN_POINT('',(31.,-63.,12.99));
#482 = DIRECTION('',(0.,0.,1.));
#483 = DIRECTION('',(1.,0.,0.));
#484 = ORIENTED_EDGE('',*,*,#485,.F.);
#485 = EDGE_CURVE('',#370,#477,#486,.T.);
#486 = CIRCLE('',#487,0.45);
#487 = AXIS2_PLACEMENT_3D('',#488,#489,#490);
#488 = CARTESIAN_POINT('',(31.,-63.,12.99));
#489 = DIRECTION('',(0.,0.,1.));
#490 = DIRECTION('',(1.,0.,0.));
#491 = PLANE('',#492);
#492 = AXIS2_PLACEMENT_3D('',#493,#494,#495);
#493 = CARTESIAN_POINT('',(30.503762097404,-63.99514847612,12.99));
#494 = DIRECTION('',(-0.,-0.,-1.));
#495 = DIRECTION('',(-1.,0.,0.));
#496 = ADVANCED_FACE('',(#497),#518,.T.);
#497 = FACE_BOUND('',#498,.T.);
#498 = EDGE_LOOP('',(#499,#500,#509,#516,#517));
#499 = ORIENTED_EDGE('',*,*,#379,.F.);
#500 = ORIENTED_EDGE('',*,*,#501,.T.);
#501 = EDGE_CURVE('',#372,#502,#504,.T.);
#502 = VERTEX_POINT('',#503);
#503 = CARTESIAN_POINT('',(31.45,-63.,13.39));
#504 = CIRCLE('',#505,0.45);
#505 = AXIS2_PLACEMENT_3D('',#506,#507,#508);
#506 = CARTESIAN_POINT('',(31.,-63.,13.39));
#507 = DIRECTION('',(0.,0.,1.));
#508 = DIRECTION('',(1.,0.,0.));
#509 = ORIENTED_EDGE('',*,*,#510,.T.);
#510 = EDGE_CURVE('',#502,#444,#511,.T.);
#511 = CIRCLE('',#512,0.45);
#512 = AXIS2_PLACEMENT_3D('',#513,#514,#515);
#513 = CARTESIAN_POINT('',(31.,-63.,13.39));
#514 = DIRECTION('',(0.,0.,1.));
#515 = DIRECTION('',(1.,0.,0.));
#516 = ORIENTED_EDGE('',*,*,#443,.F.);
#517 = ORIENTED_EDGE('',*,*,#426,.T.);
#518 = PLANE('',#519);
#519 = AXIS2_PLACEMENT_3D('',#520,#521,#522);
#520 = CARTESIAN_POINT('',(30.503762097404,-63.99514847612,13.39));
#521 = DIRECTION('',(0.,0.,1.));
#522 = DIRECTION('',(1.,0.,0.));
#523 = ADVANCED_FACE('',(#524),#532,.T.);
#524 = FACE_BOUND('',#525,.F.);
#525 = EDGE_LOOP('',(#526,#527,#528,#529,#530,#531));
#526 = ORIENTED_EDGE('',*,*,#451,.F.);
#527 = ORIENTED_EDGE('',*,*,#476,.F.);
#528 = ORIENTED_EDGE('',*,*,#485,.F.);
#529 = ORIENTED_EDGE('',*,*,#369,.T.);
#530 = ORIENTED_EDGE('',*,*,#501,.T.);
#531 = ORIENTED_EDGE('',*,*,#510,.T.);
#532 = CYLINDRICAL_SURFACE('',#533,0.45);
#533 = AXIS2_PLACEMENT_3D('',#534,#535,#536);
#534 = CARTESIAN_POINT('',(31.,-63.,12.99));
#535 = DIRECTION('',(-0.,-0.,-1.));
#536 = DIRECTION('',(1.,0.,0.));
#537 = MANIFOLD_SOLID_BREP('',#538);
#538 = CLOSED_SHELL('',(#539,#579,#612,#643,#670,#697));
#539 = ADVANCED_FACE('',(#540),#574,.T.);
#540 = FACE_BOUND('',#541,.T.);
#541 = EDGE_LOOP('',(#542,#552,#560,#568));
#542 = ORIENTED_EDGE('',*,*,#543,.T.);
#543 = EDGE_CURVE('',#544,#546,#548,.T.);
#544 = VERTEX_POINT('',#545);
#545 = CARTESIAN_POINT('',(28.90249223595,-63.20124611797,12.99));
#546 = VERTEX_POINT('',#547);
#547 = CARTESIAN_POINT('',(28.90249223595,-63.20124611797,13.39));
#548 = LINE('',#549,#550);
#549 = CARTESIAN_POINT('',(28.90249223595,-63.20124611797,12.99));
#550 = VECTOR('',#551,1.);
#551 = DIRECTION('',(0.,0.,1.));
#552 = ORIENTED_EDGE('',*,*,#553,.T.);
#553 = EDGE_CURVE('',#546,#554,#556,.T.);
#554 = VERTEX_POINT('',#555);
#555 = CARTESIAN_POINT('',(27.90249223595,-65.20124611797,13.39));
#556 = LINE('',#557,#558);
#557 = CARTESIAN_POINT('',(28.90249223595,-63.20124611797,13.39));
#558 = VECTOR('',#559,1.);
#559 = DIRECTION('',(-0.4472135955,-0.894427191,0.));
#560 = ORIENTED_EDGE('',*,*,#561,.F.);
#561 = EDGE_CURVE('',#562,#554,#564,.T.);
#562 = VERTEX_POINT('',#563);
#563 = CARTESIAN_POINT('',(27.90249223595,-65.20124611797,12.99));
#564 = LINE('',#565,#566);
#565 = CARTESIAN_POINT('',(27.90249223595,-65.20124611797,12.99));
#566 = VECTOR('',#567,1.);
#567 = DIRECTION('',(0.,0.,1.));
#568 = ORIENTED_EDGE('',*,*,#569,.F.);
#569 = EDGE_CURVE('',#544,#562,#570,.T.);
#570 = LINE('',#571,#572);
#571 = CARTESIAN_POINT('',(28.90249223595,-63.20124611797,12.99));
#572 = VECTOR('',#573,1.);
#573 = DIRECTION('',(-0.4472135955,-0.894427191,0.));
#574 = PLANE('',#575);
#575 = AXIS2_PLACEMENT_3D('',#576,#577,#578);
#576 = CARTESIAN_POINT('',(28.90249223595,-63.20124611797,12.99));
#577 = DIRECTION('',(0.894427191,-0.4472135955,0.));
#578 = DIRECTION('',(-0.4472135955,-0.894427191,0.));
#579 = ADVANCED_FACE('',(#580),#607,.T.);
#580 = FACE_BOUND('',#581,.F.);
#581 = EDGE_LOOP('',(#582,#591,#599,#606));
#582 = ORIENTED_EDGE('',*,*,#583,.F.);
#583 = EDGE_CURVE('',#584,#562,#586,.T.);
#584 = VERTEX_POINT('',#585);
#585 = CARTESIAN_POINT('',(27.09750776405,-64.79875388202,12.99));
#586 = CIRCLE('',#587,0.45);
#587 = AXIS2_PLACEMENT_3D('',#588,#589,#590);
#588 = CARTESIAN_POINT('',(27.5,-65.,12.99));
#589 = DIRECTION('',(0.,0.,1.));
#590 = DIRECTION('',(1.,0.,0.));
#591 = ORIENTED_EDGE('',*,*,#592,.T.);
#592 = EDGE_CURVE('',#584,#593,#595,.T.);
#593 = VERTEX_POINT('',#594);
#594 = CARTESIAN_POINT('',(27.09750776405,-64.79875388202,13.39));
#595 = LINE('',#596,#597);
#596 = CARTESIAN_POINT('',(27.09750776405,-64.79875388202,12.99));
#597 = VECTOR('',#598,1.);
#598 = DIRECTION('',(0.,0.,1.));
#599 = ORIENTED_EDGE('',*,*,#600,.T.);
#600 = EDGE_CURVE('',#593,#554,#601,.T.);
#601 = CIRCLE('',#602,0.45);
#602 = AXIS2_PLACEMENT_3D('',#603,#604,#605);
#603 = CARTESIAN_POINT('',(27.5,-65.,13.39));
#604 = DIRECTION('',(0.,0.,1.));
#605 = DIRECTION('',(1.,0.,0.));
#606 = ORIENTED_EDGE('',*,*,#561,.F.);
#607 = CYLINDRICAL_SURFACE('',#608,0.45);
#608 = AXIS2_PLACEMENT_3D('',#609,#610,#611);
#609 = CARTESIAN_POINT('',(27.5,-65.,12.99));
#610 = DIRECTION('',(-0.,-0.,-1.));
#611 = DIRECTION('',(1.,0.,0.));
#612 = ADVANCED_FACE('',(#613),#638,.T.);
#613 = FACE_BOUND('',#614,.T.);
#614 = EDGE_LOOP('',(#615,#616,#624,#632));
#615 = ORIENTED_EDGE('',*,*,#592,.T.);
#616 = ORIENTED_EDGE('',*,*,#617,.T.);
#617 = EDGE_CURVE('',#593,#618,#620,.T.);
#618 = VERTEX_POINT('',#619);
#619 = CARTESIAN_POINT('',(28.09750776405,-62.79875388202,13.39));
#620 = LINE('',#621,#622);
#621 = CARTESIAN_POINT('',(27.09750776405,-64.79875388202,13.39));
#622 = VECTOR('',#623,1.);
#623 = DIRECTION('',(0.4472135955,0.894427191,0.));
#624 = ORIENTED_EDGE('',*,*,#625,.F.);
#625 = EDGE_CURVE('',#626,#618,#628,.T.);
#626 = VERTEX_POINT('',#627);
#627 = CARTESIAN_POINT('',(28.09750776405,-62.79875388202,12.99));
#628 = LINE('',#629,#630);
#629 = CARTESIAN_POINT('',(28.09750776405,-62.79875388202,12.99));
#630 = VECTOR('',#631,1.);
#631 = DIRECTION('',(0.,0.,1.));
#632 = ORIENTED_EDGE('',*,*,#633,.F.);
#633 = EDGE_CURVE('',#584,#626,#634,.T.);
#634 = LINE('',#635,#636);
#635 = CARTESIAN_POINT('',(27.09750776405,-64.79875388202,12.99));
#636 = VECTOR('',#637,1.);
#637 = DIRECTION('',(0.4472135955,0.894427191,0.));
#638 = PLANE('',#639);
#639 = AXIS2_PLACEMENT_3D('',#640,#641,#642);
#640 = CARTESIAN_POINT('',(27.09750776405,-64.79875388202,12.99));
#641 = DIRECTION('',(-0.894427191,0.4472135955,0.));
#642 = DIRECTION('',(0.4472135955,0.894427191,0.));
#643 = ADVANCED_FACE('',(#644),#665,.T.);
#644 = FACE_BOUND('',#645,.T.);
#645 = EDGE_LOOP('',(#646,#647,#648,#649,#658));
#646 = ORIENTED_EDGE('',*,*,#569,.T.);
#647 = ORIENTED_EDGE('',*,*,#583,.F.);
#648 = ORIENTED_EDGE('',*,*,#633,.T.);
#649 = ORIENTED_EDGE('',*,*,#650,.F.);
#650 = EDGE_CURVE('',#651,#626,#653,.T.);
#651 = VERTEX_POINT('',#652);
#652 = CARTESIAN_POINT('',(28.95,-63.,12.99));
#653 = CIRCLE('',#654,0.45);
#654 = AXIS2_PLACEMENT_3D('',#655,#656,#657);
#655 = CARTESIAN_POINT('',(28.5,-63.,12.99));
#656 = DIRECTION('',(0.,0.,1.));
#657 = DIRECTION('',(1.,0.,0.));
#658 = ORIENTED_EDGE('',*,*,#659,.F.);
#659 = EDGE_CURVE('',#544,#651,#660,.T.);
#660 = CIRCLE('',#661,0.45);
#661 = AXIS2_PLACEMENT_3D('',#662,#663,#664);
#662 = CARTESIAN_POINT('',(28.5,-63.,12.99));
#663 = DIRECTION('',(0.,0.,1.));
#664 = DIRECTION('',(1.,0.,0.));
#665 = PLANE('',#666);
#666 = AXIS2_PLACEMENT_3D('',#667,#668,#669);
#667 = CARTESIAN_POINT('',(28.003762097404,-63.99514847612,12.99));
#668 = DIRECTION('',(-0.,-0.,-1.));
#669 = DIRECTION('',(-1.,0.,0.));
#670 = ADVANCED_FACE('',(#671),#692,.T.);
#671 = FACE_BOUND('',#672,.T.);
#672 = EDGE_LOOP('',(#673,#674,#683,#690,#691));
#673 = ORIENTED_EDGE('',*,*,#553,.F.);
#674 = ORIENTED_EDGE('',*,*,#675,.T.);
#675 = EDGE_CURVE('',#546,#676,#678,.T.);
#676 = VERTEX_POINT('',#677);
#677 = CARTESIAN_POINT('',(28.95,-63.,13.39));
#678 = CIRCLE('',#679,0.45);
#679 = AXIS2_PLACEMENT_3D('',#680,#681,#682);
#680 = CARTESIAN_POINT('',(28.5,-63.,13.39));
#681 = DIRECTION('',(0.,0.,1.));
#682 = DIRECTION('',(1.,0.,0.));
#683 = ORIENTED_EDGE('',*,*,#684,.T.);
#684 = EDGE_CURVE('',#676,#618,#685,.T.);
#685 = CIRCLE('',#686,0.45);
#686 = AXIS2_PLACEMENT_3D('',#687,#688,#689);
#687 = CARTESIAN_POINT('',(28.5,-63.,13.39));
#688 = DIRECTION('',(0.,0.,1.));
#689 = DIRECTION('',(1.,0.,0.));
#690 = ORIENTED_EDGE('',*,*,#617,.F.);
#691 = ORIENTED_EDGE('',*,*,#600,.T.);
#692 = PLANE('',#693);
#693 = AXIS2_PLACEMENT_3D('',#694,#695,#696);
#694 = CARTESIAN_POINT('',(28.003762097404,-63.99514847612,13.39));
#695 = DIRECTION('',(0.,0.,1.));
#696 = DIRECTION('',(1.,0.,0.));
#697 = ADVANCED_FACE('',(#698),#706,.T.);
#698 = FACE_BOUND('',#699,.F.);
#699 = EDGE_LOOP('',(#700,#701,#702,#703,#704,#705));
#700 = ORIENTED_EDGE('',*,*,#625,.F.);
#701 = ORIENTED_EDGE('',*,*,#650,.F.);
#702 = ORIENTED_EDGE('',*,*,#659,.F.);
#703 = ORIENTED_EDGE('',*,*,#543,.T.);
#704 = ORIENTED_EDGE('',*,*,#675,.T.);
#705 = ORIENTED_EDGE('',*,*,#684,.T.);
#706 = CYLINDRICAL_SURFACE('',#707,0.45);
#707 = AXIS2_PLACEMENT_3D('',#708,#709,#710);
#708 = CARTESIAN_POINT('',(28.5,-63.,12.99));
#709 = DIRECTION('',(-0.,-0.,-1.));
#710 = DIRECTION('',(1.,0.,0.));
#711 = MANIFOLD_SOLID_BREP('',#712);
#712 = CLOSED_SHELL('',(#713,#753,#804,#835,#877,#891));
#713 = ADVANCED_FACE('',(#714),#748,.F.);
#714 = FACE_BOUND('',#715,.F.);
#715 = EDGE_LOOP('',(#716,#726,#734,#742));
#716 = ORIENTED_EDGE('',*,*,#717,.T.);
#717 = EDGE_CURVE('',#718,#720,#722,.T.);
#718 = VERTEX_POINT('',#719);
#719 = CARTESIAN_POINT('',(45.3,-63.4,12.99));
#720 = VERTEX_POINT('',#721);
#721 = CARTESIAN_POINT('',(45.3,-63.4,13.39));
#722 = LINE('',#723,#724);
#723 = CARTESIAN_POINT('',(45.3,-63.4,12.99));
#724 = VECTOR('',#725,1.);
#725 = DIRECTION('',(0.,0.,1.));
#726 = ORIENTED_EDGE('',*,*,#727,.T.);
#727 = EDGE_CURVE('',#720,#728,#730,.T.);
#728 = VERTEX_POINT('',#729);
#729 = CARTESIAN_POINT('',(41.5,-63.4,13.39));
#730 = LINE('',#731,#732);
#731 = CARTESIAN_POINT('',(45.3,-63.4,13.39));
#732 = VECTOR('',#733,1.);
#733 = DIRECTION('',(-1.,0.,0.));
#734 = ORIENTED_EDGE('',*,*,#735,.F.);
#735 = EDGE_CURVE('',#736,#728,#738,.T.);
#736 = VERTEX_POINT('',#737);
#737 = CARTESIAN_POINT('',(41.5,-63.4,12.99));
#738 = LINE('',#739,#740);
#739 = CARTESIAN_POINT('',(41.5,-63.4,12.99));
#740 = VECTOR('',#741,1.);
#741 = DIRECTION('',(0.,0.,1.));
#742 = ORIENTED_EDGE('',*,*,#743,.F.);
#743 = EDGE_CURVE('',#718,#736,#744,.T.);
#744 = LINE('',#745,#746);
#745 = CARTESIAN_POINT('',(45.3,-63.4,12.99));
#746 = VECTOR('',#747,1.);
#747 = DIRECTION('',(-1.,0.,0.));
#748 = PLANE('',#749);
#749 = AXIS2_PLACEMENT_3D('',#750,#751,#752);
#750 = CARTESIAN_POINT('',(45.3,-63.4,12.99));
#751 = DIRECTION('',(0.,-1.,0.));
#752 = DIRECTION('',(-1.,0.,0.));
#753 = ADVANCED_FACE('',(#754),#799,.F.);
#754 = FACE_BOUND('',#755,.F.);
#755 = EDGE_LOOP('',(#756,#757,#766,#775,#783,#792));
#756 = ORIENTED_EDGE('',*,*,#743,.T.);
#757 = ORIENTED_EDGE('',*,*,#758,.T.);
#758 = EDGE_CURVE('',#736,#759,#761,.T.);
#759 = VERTEX_POINT('',#760);
#760 = CARTESIAN_POINT('',(41.,-63.9,12.99));
#761 = CIRCLE('',#762,0.5);
#762 = AXIS2_PLACEMENT_3D('',#763,#764,#765);
#763 = CARTESIAN_POINT('',(41.5,-63.9,12.99));
#764 = DIRECTION('',(0.,-0.,1.));
#765 = DIRECTION('',(1.421E-14,1.,0.));
#766 = ORIENTED_EDGE('',*,*,#767,.T.);
#767 = EDGE_CURVE('',#759,#768,#770,.T.);
#768 = VERTEX_POINT('',#769);
#769 = CARTESIAN_POINT('',(41.5,-64.4,12.99));
#770 = CIRCLE('',#771,0.5);
#771 = AXIS2_PLACEMENT_3D('',#772,#773,#774);
#772 = CARTESIAN_POINT('',(41.5,-63.9,12.99));
#773 = DIRECTION('',(0.,0.,1.));
#774 = DIRECTION('',(-1.,1.421E-14,0.));
#775 = ORIENTED_EDGE('',*,*,#776,.T.);
#776 = EDGE_CURVE('',#768,#777,#779,.T.);
#777 = VERTEX_POINT('',#778);
#778 = CARTESIAN_POINT('',(45.3,-64.4,12.99));
#779 = LINE('',#780,#781);
#780 = CARTESIAN_POINT('',(41.5,-64.4,12.99));
#781 = VECTOR('',#782,1.);
#782 = DIRECTION('',(1.,0.,0.));
#783 = ORIENTED_EDGE('',*,*,#784,.T.);
#784 = EDGE_CURVE('',#777,#785,#787,.T.);
#785 = VERTEX_POINT('',#786);
#786 = CARTESIAN_POINT('',(45.8,-63.9,12.99));
#787 = CIRCLE('',#788,0.5);
#788 = AXIS2_PLACEMENT_3D('',#789,#790,#791);
#789 = CARTESIAN_POINT('',(45.3,-63.9,12.99));
#790 = DIRECTION('',(0.,0.,1.));
#791 = DIRECTION('',(-1.421E-14,-1.,0.));
#792 = ORIENTED_EDGE('',*,*,#793,.T.);
#793 = EDGE_CURVE('',#785,#718,#794,.T.);
#794 = CIRCLE('',#795,0.5);
#795 = AXIS2_PLACEMENT_3D('',#796,#797,#798);
#796 = CARTESIAN_POINT('',(45.3,-63.9,12.99));
#797 = DIRECTION('',(-0.,0.,1.));
#798 = DIRECTION('',(1.,-1.421E-14,0.));
#799 = PLANE('',#800);
#800 = AXIS2_PLACEMENT_3D('',#801,#802,#803);
#801 = CARTESIAN_POINT('',(43.4,-63.9,12.99));
#802 = DIRECTION('',(0.,0.,1.));
#803 = DIRECTION('',(1.,0.,0.));
#804 = ADVANCED_FACE('',(#805),#830,.F.);
#805 = FACE_BOUND('',#806,.F.);
#806 = EDGE_LOOP('',(#807,#815,#823,#829));
#807 = ORIENTED_EDGE('',*,*,#808,.T.);
#808 = EDGE_CURVE('',#768,#809,#811,.T.);
#809 = VERTEX_POINT('',#810);
#810 = CARTESIAN_POINT('',(41.5,-64.4,13.39));
#811 = LINE('',#812,#813);
#812 = CARTESIAN_POINT('',(41.5,-64.4,12.99));
#813 = VECTOR('',#814,1.);
#814 = DIRECTION('',(0.,0.,1.));
#815 = ORIENTED_EDGE('',*,*,#816,.T.);
#816 = EDGE_CURVE('',#809,#817,#819,.T.);
#817 = VERTEX_POINT('',#818);
#818 = CARTESIAN_POINT('',(45.3,-64.4,13.39));
#819 = LINE('',#820,#821);
#820 = CARTESIAN_POINT('',(41.5,-64.4,13.39));
#821 = VECTOR('',#822,1.);
#822 = DIRECTION('',(1.,0.,0.));
#823 = ORIENTED_EDGE('',*,*,#824,.F.);
#824 = EDGE_CURVE('',#777,#817,#825,.T.);
#825 = LINE('',#826,#827);
#826 = CARTESIAN_POINT('',(45.3,-64.4,12.99));
#827 = VECTOR('',#828,1.);
#828 = DIRECTION('',(0.,0.,1.));
#829 = ORIENTED_EDGE('',*,*,#776,.F.);
#830 = PLANE('',#831);
#831 = AXIS2_PLACEMENT_3D('',#832,#833,#834);
#832 = CARTESIAN_POINT('',(41.5,-64.4,12.99));
#833 = DIRECTION('',(0.,1.,0.));
#834 = DIRECTION('',(1.,0.,0.));
#835 = ADVANCED_FACE('',(#836),#872,.T.);
#836 = FACE_BOUND('',#837,.T.);
#837 = EDGE_LOOP('',(#838,#839,#848,#855,#856,#865));
#838 = ORIENTED_EDGE('',*,*,#727,.T.);
#839 = ORIENTED_EDGE('',*,*,#840,.T.);
#840 = EDGE_CURVE('',#728,#841,#843,.T.);
#841 = VERTEX_POINT('',#842);
#842 = CARTESIAN_POINT('',(41.,-63.9,13.39));
#843 = CIRCLE('',#844,0.5);
#844 = AXIS2_PLACEMENT_3D('',#845,#846,#847);
#845 = CARTESIAN_POINT('',(41.5,-63.9,13.39));
#846 = DIRECTION('',(0.,-0.,1.));
#847 = DIRECTION('',(1.421E-14,1.,0.));
#848 = ORIENTED_EDGE('',*,*,#849,.T.);
#849 = EDGE_CURVE('',#841,#809,#850,.T.);
#850 = CIRCLE('',#851,0.5);
#851 = AXIS2_PLACEMENT_3D('',#852,#853,#854);
#852 = CARTESIAN_POINT('',(41.5,-63.9,13.39));
#853 = DIRECTION('',(0.,0.,1.));
#854 = DIRECTION('',(-1.,1.421E-14,0.));
#855 = ORIENTED_EDGE('',*,*,#816,.T.);
#856 = ORIENTED_EDGE('',*,*,#857,.T.);
#857 = EDGE_CURVE('',#817,#858,#860,.T.);
#858 = VERTEX_POINT('',#859);
#859 = CARTESIAN_POINT('',(45.8,-63.9,13.39));
#860 = CIRCLE('',#861,0.5);
#861 = AXIS2_PLACEMENT_3D('',#862,#863,#864);
#862 = CARTESIAN_POINT('',(45.3,-63.9,13.39));
#863 = DIRECTION('',(0.,0.,1.));
#864 = DIRECTION('',(-1.421E-14,-1.,0.));
#865 = ORIENTED_EDGE('',*,*,#866,.T.);
#866 = EDGE_CURVE('',#858,#720,#867,.T.);
#867 = CIRCLE('',#868,0.5);
#868 = AXIS2_PLACEMENT_3D('',#869,#870,#871);
#869 = CARTESIAN_POINT('',(45.3,-63.9,13.39));
#870 = DIRECTION('',(-0.,0.,1.));
#871 = DIRECTION('',(1.,-1.421E-14,0.));
#872 = PLANE('',#873);
#873 = AXIS2_PLACEMENT_3D('',#874,#875,#876);
#874 = CARTESIAN_POINT('',(43.4,-63.9,13.39));
#875 = DIRECTION('',(0.,0.,1.));
#876 = DIRECTION('',(1.,0.,0.));
#877 = ADVANCED_FACE('',(#878),#886,.T.);
#878 = FACE_BOUND('',#879,.F.);
#879 = EDGE_LOOP('',(#880,#881,#882,#883,#884,#885));
#880 = ORIENTED_EDGE('',*,*,#808,.F.);
#881 = ORIENTED_EDGE('',*,*,#767,.F.);
#882 = ORIENTED_EDGE('',*,*,#758,.F.);
#883 = ORIENTED_EDGE('',*,*,#735,.T.);
#884 = ORIENTED_EDGE('',*,*,#840,.T.);
#885 = ORIENTED_EDGE('',*,*,#849,.T.);
#886 = CYLINDRICAL_SURFACE('',#887,0.5);
#887 = AXIS2_PLACEMENT_3D('',#888,#889,#890);
#888 = CARTESIAN_POINT('',(41.5,-63.9,12.99));
#889 = DIRECTION('',(0.,0.,-1.));
#890 = DIRECTION('',(1.421E-14,1.,0.));
#891 = ADVANCED_FACE('',(#892),#900,.T.);
#892 = FACE_BOUND('',#893,.F.);
#893 = EDGE_LOOP('',(#894,#895,#896,#897,#898,#899));
#894 = ORIENTED_EDGE('',*,*,#717,.F.);
#895 = ORIENTED_EDGE('',*,*,#793,.F.);
#896 = ORIENTED_EDGE('',*,*,#784,.F.);
#897 = ORIENTED_EDGE('',*,*,#824,.T.);
#898 = ORIENTED_EDGE('',*,*,#857,.T.);
#899 = ORIENTED_EDGE('',*,*,#866,.T.);
#900 = CYLINDRICAL_SURFACE('',#901,0.5);
#901 = AXIS2_PLACEMENT_3D('',#902,#903,#904);
#902 = CARTESIAN_POINT('',(45.3,-63.9,12.99));
#903 = DIRECTION('',(-0.,-0.,-1.));
#904 = DIRECTION('',(-1.421E-14,-1.,0.));
#905 = ( GEOMETRIC_REPRESENTATION_CONTEXT(3) 
GLOBAL_UNCERTAINTY_ASSIGNED_CONTEXT((#909)) GLOBAL_UNIT_ASSIGNED_CONTEXT
((#906,#907,#908)) REPRESENTATION_CONTEXT('Context #1',
  '3D Context with UNIT and UNCERTAINTY') );
#906 = ( LENGTH_UNIT() NAMED_UNIT(*) SI_UNIT(.MILLI.,.METRE.) );
#907 = ( NAMED_UNIT(*) PLANE_ANGLE_UNIT() SI_UNIT($,.RADIAN.) );
#908 = ( NAMED_UNIT(*) SI_UNIT($,.STERADIAN.) SOLID_ANGLE_UNIT() );
#909 = UNCERTAINTY_MEASURE_WITH_UNIT(LENGTH_MEASURE(1.E-07),#906,
  'distance_accuracy_value','confusion accuracy');
#910 = PRODUCT_RELATED_PRODUCT_CATEGORY('part',$,(#7));
ENDSEC;
END-ISO-10303-21;
