ISO-10303-21;
HEADER;
FILE_DESCRIPTION(('FreeCAD Model'),'2;1');
FILE_NAME('Open CASCADE Shape Model','2026-09-28T20:39:47',('FreeCAD'),(
    'FreeCAD'),'Open CASCADE STEP processor 7.8','FreeCAD','Unknown');
FILE_SCHEMA(('AUTOMOTIVE_DESIGN { 1 0 10303 214 1 1 1 1 }'));
ENDSEC;
DATA;
#1 = APPLICATION_PROTOCOL_DEFINITION('international standard',
  'automotive_design',2000,#2);
#2 = APPLICATION_CONTEXT(
  'core data for automotive mechanical design processes');
#3 = SHAPE_DEFINITION_REPRESENTATION(#4,#10);
#4 = PRODUCT_DEFINITION_SHAPE('','',#5);
#5 = PRODUCT_DEFINITION('design','',#6,#9);
#6 = PRODUCT_DEFINITION_FORMATION('','',#7);
#7 = PRODUCT('Open CASCADE STEP translator 7.8 97',
  'Open CASCADE STEP translator 7.8 97','',(#8));
#8 = PRODUCT_CONTEXT('',#2,'mechanical');
#9 = PRODUCT_DEFINITION_CONTEXT('part definition',#2,'design');
#10 = ADVANCED_BREP_SHAPE_REPRESENTATION('',(#11,#15),#922);
#11 = AXIS2_PLACEMENT_3D('',#12,#13,#14);
#12 = CARTESIAN_POINT('',(0.,0.,0.));
#13 = DIRECTION('',(0.,0.,1.));
#14 = DIRECTION('',(1.,0.,-0.));
#15 = MANIFOLD_SOLID_BREP('',#16);
#16 = CLOSED_SHELL('',(#17,#57,#90,#123,#324,#525,#542,#559,#576,#593,
    #605,#627,#644,#661,#678,#695,#714,#734,#754,#774,#794,#811,#831,
    #851,#871,#893,#910));
#17 = ADVANCED_FACE('',(#18),#52,.F.);
#18 = FACE_BOUND('',#19,.F.);
#19 = EDGE_LOOP('',(#20,#30,#38,#46));
#20 = ORIENTED_EDGE('',*,*,#21,.T.);
#21 = EDGE_CURVE('',#22,#24,#26,.T.);
#22 = VERTEX_POINT('',#23);
#23 = CARTESIAN_POINT('',(46.7,-12.2,13.19));
#24 = VERTEX_POINT('',#25);
#25 = CARTESIAN_POINT('',(46.7,-12.2,13.59));
#26 = LINE('',#27,#28);
#27 = CARTESIAN_POINT('',(46.7,-12.2,13.19));
#28 = VECTOR('',#29,1.);
#29 = DIRECTION('',(0.,0.,1.));
#30 = ORIENTED_EDGE('',*,*,#31,.T.);
#31 = EDGE_CURVE('',#24,#32,#34,.T.);
#32 = VERTEX_POINT('',#33);
#33 = CARTESIAN_POINT('',(27.3,-12.2,13.59));
#34 = LINE('',#35,#36);
#35 = CARTESIAN_POINT('',(46.7,-12.2,13.59));
#36 = VECTOR('',#37,1.);
#37 = DIRECTION('',(-1.,0.,0.));
#38 = ORIENTED_EDGE('',*,*,#39,.F.);
#39 = EDGE_CURVE('',#40,#32,#42,.T.);
#40 = VERTEX_POINT('',#41);
#41 = CARTESIAN_POINT('',(27.3,-12.2,13.19));
#42 = LINE('',#43,#44);
#43 = CARTESIAN_POINT('',(27.3,-12.2,13.19));
#44 = VECTOR('',#45,1.);
#45 = DIRECTION('',(0.,0.,1.));
#46 = ORIENTED_EDGE('',*,*,#47,.F.);
#47 = EDGE_CURVE('',#22,#40,#48,.T.);
#48 = LINE('',#49,#50);
#49 = CARTESIAN_POINT('',(46.7,-12.2,13.19));
#50 = VECTOR('',#51,1.);
#51 = DIRECTION('',(-1.,0.,0.));
#52 = PLANE('',#53);
#53 = AXIS2_PLACEMENT_3D('',#54,#55,#56);
#54 = CARTESIAN_POINT('',(46.7,-12.2,13.19));
#55 = DIRECTION('',(0.,-1.,0.));
#56 = DIRECTION('',(-1.,0.,0.));
#57 = ADVANCED_FACE('',(#58),#85,.T.);
#58 = FACE_BOUND('',#59,.F.);
#59 = EDGE_LOOP('',(#60,#70,#77,#78));
#60 = ORIENTED_EDGE('',*,*,#61,.T.);
#61 = EDGE_CURVE('',#62,#64,#66,.T.);
#62 = VERTEX_POINT('',#63);
#63 = CARTESIAN_POINT('',(47.8,-13.3,13.19));
#64 = VERTEX_POINT('',#65);
#65 = CARTESIAN_POINT('',(47.8,-13.3,13.59));
#66 = LINE('',#67,#68);
#67 = CARTESIAN_POINT('',(47.8,-13.3,13.19));
#68 = VECTOR('',#69,1.);
#69 = DIRECTION('',(0.,0.,1.));
#70 = ORIENTED_EDGE('',*,*,#71,.T.);
#71 = EDGE_CURVE('',#64,#24,#72,.T.);
#72 = CIRCLE('',#73,1.1);
#73 = AXIS2_PLACEMENT_3D('',#74,#75,#76);
#74 = CARTESIAN_POINT('',(46.7,-13.3,13.59));
#75 = DIRECTION('',(0.,0.,1.));
#76 = DIRECTION('',(1.,0.,0.));
#77 = ORIENTED_EDGE('',*,*,#21,.F.);
#78 = ORIENTED_EDGE('',*,*,#79,.F.);
#79 = EDGE_CURVE('',#62,#22,#80,.T.);
#80 = CIRCLE('',#81,1.1);
#81 = AXIS2_PLACEMENT_3D('',#82,#83,#84);
#82 = CARTESIAN_POINT('',(46.7,-13.3,13.19));
#83 = DIRECTION('',(0.,0.,1.));
#84 = DIRECTION('',(1.,0.,0.));
#85 = CYLINDRICAL_SURFACE('',#86,1.1);
#86 = AXIS2_PLACEMENT_3D('',#87,#88,#89);
#87 = CARTESIAN_POINT('',(46.7,-13.3,13.19));
#88 = DIRECTION('',(-0.,-0.,-1.));
#89 = DIRECTION('',(1.,0.,0.));
#90 = ADVANCED_FACE('',(#91),#118,.T.);
#91 = FACE_BOUND('',#92,.F.);
#92 = EDGE_LOOP('',(#93,#94,#103,#111));
#93 = ORIENTED_EDGE('',*,*,#39,.T.);
#94 = ORIENTED_EDGE('',*,*,#95,.T.);
#95 = EDGE_CURVE('',#32,#96,#98,.T.);
#96 = VERTEX_POINT('',#97);
#97 = CARTESIAN_POINT('',(26.2,-13.3,13.59));
#98 = CIRCLE('',#99,1.1);
#99 = AXIS2_PLACEMENT_3D('',#100,#101,#102);
#100 = CARTESIAN_POINT('',(27.3,-13.3,13.59));
#101 = DIRECTION('',(0.,0.,1.));
#102 = DIRECTION('',(-3.23E-15,1.,0.));
#103 = ORIENTED_EDGE('',*,*,#104,.F.);
#104 = EDGE_CURVE('',#105,#96,#107,.T.);
#105 = VERTEX_POINT('',#106);
#106 = CARTESIAN_POINT('',(26.2,-13.3,13.19));
#107 = LINE('',#108,#109);
#108 = CARTESIAN_POINT('',(26.2,-13.3,13.19));
#109 = VECTOR('',#110,1.);
#110 = DIRECTION('',(0.,0.,1.));
#111 = ORIENTED_EDGE('',*,*,#112,.F.);
#112 = EDGE_CURVE('',#40,#105,#113,.T.);
#113 = CIRCLE('',#114,1.1);
#114 = AXIS2_PLACEMENT_3D('',#115,#116,#117);
#115 = CARTESIAN_POINT('',(27.3,-13.3,13.19));
#116 = DIRECTION('',(0.,0.,1.));
#117 = DIRECTION('',(-3.23E-15,1.,0.));
#118 = CYLINDRICAL_SURFACE('',#119,1.1);
#119 = AXIS2_PLACEMENT_3D('',#120,#121,#122);
#120 = CARTESIAN_POINT('',(27.3,-13.3,13.19));
#121 = DIRECTION('',(-0.,-0.,-1.));
#122 = DIRECTION('',(-3.23E-15,1.,0.));
#123 = ADVANCED_FACE('',(#124,#169),#319,.F.);
#124 = FACE_BOUND('',#125,.F.);
#125 = EDGE_LOOP('',(#126,#127,#128,#136,#145,#153,#162,#168));
#126 = ORIENTED_EDGE('',*,*,#47,.T.);
#127 = ORIENTED_EDGE('',*,*,#112,.T.);
#128 = ORIENTED_EDGE('',*,*,#129,.T.);
#129 = EDGE_CURVE('',#105,#130,#132,.T.);
#130 = VERTEX_POINT('',#131);
#131 = CARTESIAN_POINT('',(26.2,-64.7,13.19));
#132 = LINE('',#133,#134);
#133 = CARTESIAN_POINT('',(26.2,-13.3,13.19));
#134 = VECTOR('',#135,1.);
#135 = DIRECTION('',(0.,-1.,0.));
#136 = ORIENTED_EDGE('',*,*,#137,.T.);
#137 = EDGE_CURVE('',#130,#138,#140,.T.);
#138 = VERTEX_POINT('',#139);
#139 = CARTESIAN_POINT('',(27.3,-65.8,13.19));
#140 = CIRCLE('',#141,1.1);
#141 = AXIS2_PLACEMENT_3D('',#142,#143,#144);
#142 = CARTESIAN_POINT('',(27.3,-64.7,13.19));
#143 = DIRECTION('',(0.,0.,1.));
#144 = DIRECTION('',(-1.,0.,0.));
#145 = ORIENTED_EDGE('',*,*,#146,.T.);
#146 = EDGE_CURVE('',#138,#147,#149,.T.);
#147 = VERTEX_POINT('',#148);
#148 = CARTESIAN_POINT('',(46.7,-65.8,13.19));
#149 = LINE('',#150,#151);
#150 = CARTESIAN_POINT('',(27.3,-65.8,13.19));
#151 = VECTOR('',#152,1.);
#152 = DIRECTION('',(1.,0.,0.));
#153 = ORIENTED_EDGE('',*,*,#154,.T.);
#154 = EDGE_CURVE('',#147,#155,#157,.T.);
#155 = VERTEX_POINT('',#156);
#156 = CARTESIAN_POINT('',(47.8,-64.7,13.19));
#157 = CIRCLE('',#158,1.1);
#158 = AXIS2_PLACEMENT_3D('',#159,#160,#161);
#159 = CARTESIAN_POINT('',(46.7,-64.7,13.19));
#160 = DIRECTION('',(-0.,0.,1.));
#161 = DIRECTION('',(6.46E-15,-1.,0.));
#162 = ORIENTED_EDGE('',*,*,#163,.T.);
#163 = EDGE_CURVE('',#155,#62,#164,.T.);
#164 = LINE('',#165,#166);
#165 = CARTESIAN_POINT('',(47.8,-64.7,13.19));
#166 = VECTOR('',#167,1.);
#167 = DIRECTION('',(0.,1.,0.));
#168 = ORIENTED_EDGE('',*,*,#79,.T.);
#169 = FACE_BOUND('',#170,.F.);
#170 = EDGE_LOOP('',(#171,#181,#190,#198,#207,#216,#225,#234,#242,#251,
    #260,#269,#278,#287,#295,#304,#312));
#171 = ORIENTED_EDGE('',*,*,#172,.F.);
#172 = EDGE_CURVE('',#173,#175,#177,.T.);
#173 = VERTEX_POINT('',#174);
#174 = CARTESIAN_POINT('',(45.25,-14.65,13.19));
#175 = VERTEX_POINT('',#176);
#176 = CARTESIAN_POINT('',(29.15,-14.65,13.19));
#177 = LINE('',#178,#179);
#178 = CARTESIAN_POINT('',(45.25,-14.65,13.19));
#179 = VECTOR('',#180,1.);
#180 = DIRECTION('',(-1.,0.,0.));
#181 = ORIENTED_EDGE('',*,*,#182,.F.);
#182 = EDGE_CURVE('',#183,#173,#185,.T.);
#183 = VERTEX_POINT('',#184);
#184 = CARTESIAN_POINT('',(45.55,-14.95,13.19));
#185 = CIRCLE('',#186,0.3);
#186 = AXIS2_PLACEMENT_3D('',#187,#188,#189);
#187 = CARTESIAN_POINT('',(45.25,-14.95,13.19));
#188 = DIRECTION('',(0.,-0.,1.));
#189 = DIRECTION('',(1.,5.92E-15,0.));
#190 = ORIENTED_EDGE('',*,*,#191,.F.);
#191 = EDGE_CURVE('',#192,#183,#194,.T.);
#192 = VERTEX_POINT('',#193);
#193 = CARTESIAN_POINT('',(45.55,-52.57528221325,13.19));
#194 = LINE('',#195,#196);
#195 = CARTESIAN_POINT('',(45.55,-52.95,13.19));
#196 = VECTOR('',#197,1.);
#197 = DIRECTION('',(0.,1.,0.));
#198 = ORIENTED_EDGE('',*,*,#199,.T.);
#199 = EDGE_CURVE('',#192,#200,#202,.T.);
#200 = VERTEX_POINT('',#201);
#201 = CARTESIAN_POINT('',(47.55,-32.5,13.19));
#202 = B_SPLINE_CURVE_WITH_KNOTS('',3,(#203,#204,#205,#206),
  .UNSPECIFIED.,.F.,.F.,(4,4),(0.,1.),.PIECEWISE_BEZIER_KNOTS.);
#203 = CARTESIAN_POINT('',(42.2,-57.5,13.19));
#204 = CARTESIAN_POINT('',(46.5,-54.5,13.19));
#205 = CARTESIAN_POINT('',(46.8,-48.4,13.19));
#206 = CARTESIAN_POINT('',(47.55,-32.5,13.19));
#207 = ORIENTED_EDGE('',*,*,#208,.T.);
#208 = EDGE_CURVE('',#200,#209,#211,.T.);
#209 = VERTEX_POINT('',#210);
#210 = CARTESIAN_POINT('',(45.85,-54.5,13.19));
#211 = B_SPLINE_CURVE_WITH_KNOTS('',3,(#212,#213,#214,#215),
  .UNSPECIFIED.,.F.,.F.,(4,4),(0.,1.),.PIECEWISE_BEZIER_KNOTS.);
#212 = CARTESIAN_POINT('',(47.55,-32.5,13.19));
#213 = CARTESIAN_POINT('',(47.5,-44.,13.19));
#214 = CARTESIAN_POINT('',(47.1,-50.9,13.19));
#215 = CARTESIAN_POINT('',(45.85,-54.5,13.19));
#216 = ORIENTED_EDGE('',*,*,#217,.T.);
#217 = EDGE_CURVE('',#209,#218,#220,.T.);
#218 = VERTEX_POINT('',#219);
#219 = CARTESIAN_POINT('',(32.,-64.1,13.19));
#220 = B_SPLINE_CURVE_WITH_KNOTS('',3,(#221,#222,#223,#224),
  .UNSPECIFIED.,.F.,.F.,(4,4),(0.,1.),.PIECEWISE_BEZIER_KNOTS.);
#221 = CARTESIAN_POINT('',(45.85,-54.5,13.19));
#222 = CARTESIAN_POINT('',(43.5,-62.9,13.19));
#223 = CARTESIAN_POINT('',(38.9,-66.1,13.19));
#224 = CARTESIAN_POINT('',(32.,-64.1,13.19));
#225 = ORIENTED_EDGE('',*,*,#226,.T.);
#226 = EDGE_CURVE('',#218,#227,#229,.T.);
#227 = VERTEX_POINT('',#228);
#228 = CARTESIAN_POINT('',(26.5,-61.1,13.19));
#229 = B_SPLINE_CURVE_WITH_KNOTS('',3,(#230,#231,#232,#233),
  .UNSPECIFIED.,.F.,.F.,(4,4),(0.,1.),.PIECEWISE_BEZIER_KNOTS.);
#230 = CARTESIAN_POINT('',(32.,-64.1,13.19));
#231 = CARTESIAN_POINT('',(29.8,-63.6,13.19));
#232 = CARTESIAN_POINT('',(27.5,-62.5,13.19));
#233 = CARTESIAN_POINT('',(26.5,-61.1,13.19));
#234 = ORIENTED_EDGE('',*,*,#235,.T.);
#235 = EDGE_CURVE('',#227,#236,#238,.T.);
#236 = VERTEX_POINT('',#237);
#237 = CARTESIAN_POINT('',(26.5,-55.8,13.19));
#238 = LINE('',#239,#240);
#239 = CARTESIAN_POINT('',(26.5,-61.1,13.19));
#240 = VECTOR('',#241,1.);
#241 = DIRECTION('',(0.,1.,0.));
#242 = ORIENTED_EDGE('',*,*,#243,.T.);
#243 = EDGE_CURVE('',#236,#244,#246,.T.);
#244 = VERTEX_POINT('',#245);
#245 = CARTESIAN_POINT('',(33.3,-60.7,13.19));
#246 = B_SPLINE_CURVE_WITH_KNOTS('',3,(#247,#248,#249,#250),
  .UNSPECIFIED.,.F.,.F.,(4,4),(0.,1.),.PIECEWISE_BEZIER_KNOTS.);
#247 = CARTESIAN_POINT('',(26.5,-55.8,13.19));
#248 = CARTESIAN_POINT('',(28.4,-59.8,13.19));
#249 = CARTESIAN_POINT('',(30.9,-61.1,13.19));
#250 = CARTESIAN_POINT('',(33.3,-60.7,13.19));
#251 = ORIENTED_EDGE('',*,*,#252,.T.);
#252 = EDGE_CURVE('',#244,#253,#255,.T.);
#253 = VERTEX_POINT('',#254);
#254 = CARTESIAN_POINT('',(37.5,-56.5,13.19));
#255 = B_SPLINE_CURVE_WITH_KNOTS('',3,(#256,#257,#258,#259),
  .UNSPECIFIED.,.F.,.F.,(4,4),(0.,1.),.PIECEWISE_BEZIER_KNOTS.);
#256 = CARTESIAN_POINT('',(33.3,-60.7,13.19));
#257 = CARTESIAN_POINT('',(34.4,-60.5,13.19));
#258 = CARTESIAN_POINT('',(34.1,-56.5,13.19));
#259 = CARTESIAN_POINT('',(37.5,-56.5,13.19));
#260 = ORIENTED_EDGE('',*,*,#261,.T.);
#261 = EDGE_CURVE('',#253,#262,#264,.T.);
#262 = VERTEX_POINT('',#263);
#263 = CARTESIAN_POINT('',(42.2,-57.5,13.19));
#264 = B_SPLINE_CURVE_WITH_KNOTS('',3,(#265,#266,#267,#268),
  .UNSPECIFIED.,.F.,.F.,(4,4),(0.,1.),.PIECEWISE_BEZIER_KNOTS.);
#265 = CARTESIAN_POINT('',(37.5,-56.5,13.19));
#266 = CARTESIAN_POINT('',(40.6,-56.5,13.19));
#267 = CARTESIAN_POINT('',(40.4,-59.5,13.19));
#268 = CARTESIAN_POINT('',(42.2,-57.5,13.19));
#269 = ORIENTED_EDGE('',*,*,#270,.T.);
#270 = EDGE_CURVE('',#262,#271,#273,.T.);
#271 = VERTEX_POINT('',#272);
#272 = CARTESIAN_POINT('',(45.323257534699,-53.24091808745,13.19));
#273 = B_SPLINE_CURVE_WITH_KNOTS('',3,(#274,#275,#276,#277),
  .UNSPECIFIED.,.F.,.F.,(4,4),(0.,1.),.PIECEWISE_BEZIER_KNOTS.);
#274 = CARTESIAN_POINT('',(42.2,-57.5,13.19));
#275 = CARTESIAN_POINT('',(46.5,-54.5,13.19));
#276 = CARTESIAN_POINT('',(46.8,-48.4,13.19));
#277 = CARTESIAN_POINT('',(47.55,-32.5,13.19));
#278 = ORIENTED_EDGE('',*,*,#279,.F.);
#279 = EDGE_CURVE('',#280,#271,#282,.T.);
#280 = VERTEX_POINT('',#281);
#281 = CARTESIAN_POINT('',(45.25,-53.25,13.19));
#282 = CIRCLE('',#283,0.3);
#283 = AXIS2_PLACEMENT_3D('',#284,#285,#286);
#284 = CARTESIAN_POINT('',(45.25,-52.95,13.19));
#285 = DIRECTION('',(-0.,0.,1.));
#286 = DIRECTION('',(2.368E-14,-1.,0.));
#287 = ORIENTED_EDGE('',*,*,#288,.F.);
#288 = EDGE_CURVE('',#289,#280,#291,.T.);
#289 = VERTEX_POINT('',#290);
#290 = CARTESIAN_POINT('',(29.15,-53.25,13.19));
#291 = LINE('',#292,#293);
#292 = CARTESIAN_POINT('',(29.15,-53.25,13.19));
#293 = VECTOR('',#294,1.);
#294 = DIRECTION('',(1.,0.,0.));
#295 = ORIENTED_EDGE('',*,*,#296,.F.);
#296 = EDGE_CURVE('',#297,#289,#299,.T.);
#297 = VERTEX_POINT('',#298);
#298 = CARTESIAN_POINT('',(28.85,-52.95,13.19));
#299 = CIRCLE('',#300,0.3);
#300 = AXIS2_PLACEMENT_3D('',#301,#302,#303);
#301 = CARTESIAN_POINT('',(29.15,-52.95,13.19));
#302 = DIRECTION('',(0.,0.,1.));
#303 = DIRECTION('',(-1.,4.737E-14,0.));
#304 = ORIENTED_EDGE('',*,*,#305,.F.);
#305 = EDGE_CURVE('',#306,#297,#308,.T.);
#306 = VERTEX_POINT('',#307);
#307 = CARTESIAN_POINT('',(28.85,-14.95,13.19));
#308 = LINE('',#309,#310);
#309 = CARTESIAN_POINT('',(28.85,-14.95,13.19));
#310 = VECTOR('',#311,1.);
#311 = DIRECTION('',(0.,-1.,0.));
#312 = ORIENTED_EDGE('',*,*,#313,.F.);
#313 = EDGE_CURVE('',#175,#306,#314,.T.);
#314 = CIRCLE('',#315,0.3);
#315 = AXIS2_PLACEMENT_3D('',#316,#317,#318);
#316 = CARTESIAN_POINT('',(29.15,-14.95,13.19));
#317 = DIRECTION('',(0.,-0.,1.));
#318 = DIRECTION('',(1.1842E-13,1.,0.));
#319 = PLANE('',#320);
#320 = AXIS2_PLACEMENT_3D('',#321,#322,#323);
#321 = CARTESIAN_POINT('',(37.,-39.,13.19));
#322 = DIRECTION('',(0.,0.,1.));
#323 = DIRECTION('',(1.,0.,0.));
#324 = ADVANCED_FACE('',(#325,#370),#520,.T.);
#325 = FACE_BOUND('',#326,.T.);
#326 = EDGE_LOOP('',(#327,#328,#329,#337,#346,#354,#363,#369));
#327 = ORIENTED_EDGE('',*,*,#31,.T.);
#328 = ORIENTED_EDGE('',*,*,#95,.T.);
#329 = ORIENTED_EDGE('',*,*,#330,.T.);
#330 = EDGE_CURVE('',#96,#331,#333,.T.);
#331 = VERTEX_POINT('',#332);
#332 = CARTESIAN_POINT('',(26.2,-64.7,13.59));
#333 = LINE('',#334,#335);
#334 = CARTESIAN_POINT('',(26.2,-13.3,13.59));
#335 = VECTOR('',#336,1.);
#336 = DIRECTION('',(0.,-1.,0.));
#337 = ORIENTED_EDGE('',*,*,#338,.T.);
#338 = EDGE_CURVE('',#331,#339,#341,.T.);
#339 = VERTEX_POINT('',#340);
#340 = CARTESIAN_POINT('',(27.3,-65.8,13.59));
#341 = CIRCLE('',#342,1.1);
#342 = AXIS2_PLACEMENT_3D('',#343,#344,#345);
#343 = CARTESIAN_POINT('',(27.3,-64.7,13.59));
#344 = DIRECTION('',(0.,0.,1.));
#345 = DIRECTION('',(-1.,0.,0.));
#346 = ORIENTED_EDGE('',*,*,#347,.T.);
#347 = EDGE_CURVE('',#339,#348,#350,.T.);
#348 = VERTEX_POINT('',#349);
#349 = CARTESIAN_POINT('',(46.7,-65.8,13.59));
#350 = LINE('',#351,#352);
#351 = CARTESIAN_POINT('',(27.3,-65.8,13.59));
#352 = VECTOR('',#353,1.);
#353 = DIRECTION('',(1.,0.,0.));
#354 = ORIENTED_EDGE('',*,*,#355,.T.);
#355 = EDGE_CURVE('',#348,#356,#358,.T.);
#356 = VERTEX_POINT('',#357);
#357 = CARTESIAN_POINT('',(47.8,-64.7,13.59));
#358 = CIRCLE('',#359,1.1);
#359 = AXIS2_PLACEMENT_3D('',#360,#361,#362);
#360 = CARTESIAN_POINT('',(46.7,-64.7,13.59));
#361 = DIRECTION('',(-0.,0.,1.));
#362 = DIRECTION('',(6.46E-15,-1.,0.));
#363 = ORIENTED_EDGE('',*,*,#364,.T.);
#364 = EDGE_CURVE('',#356,#64,#365,.T.);
#365 = LINE('',#366,#367);
#366 = CARTESIAN_POINT('',(47.8,-64.7,13.59));
#367 = VECTOR('',#368,1.);
#368 = DIRECTION('',(0.,1.,0.));
#369 = ORIENTED_EDGE('',*,*,#71,.T.);
#370 = FACE_BOUND('',#371,.T.);
#371 = EDGE_LOOP('',(#372,#382,#391,#399,#408,#417,#426,#435,#443,#452,
    #461,#470,#479,#488,#496,#505,#513));
#372 = ORIENTED_EDGE('',*,*,#373,.F.);
#373 = EDGE_CURVE('',#374,#376,#378,.T.);
#374 = VERTEX_POINT('',#375);
#375 = CARTESIAN_POINT('',(45.25,-14.65,13.59));
#376 = VERTEX_POINT('',#377);
#377 = CARTESIAN_POINT('',(29.15,-14.65,13.59));
#378 = LINE('',#379,#380);
#379 = CARTESIAN_POINT('',(45.25,-14.65,13.59));
#380 = VECTOR('',#381,1.);
#381 = DIRECTION('',(-1.,0.,0.));
#382 = ORIENTED_EDGE('',*,*,#383,.F.);
#383 = EDGE_CURVE('',#384,#374,#386,.T.);
#384 = VERTEX_POINT('',#385);
#385 = CARTESIAN_POINT('',(45.55,-14.95,13.59));
#386 = CIRCLE('',#387,0.3);
#387 = AXIS2_PLACEMENT_3D('',#388,#389,#390);
#388 = CARTESIAN_POINT('',(45.25,-14.95,13.59));
#389 = DIRECTION('',(0.,-0.,1.));
#390 = DIRECTION('',(1.,5.92E-15,0.));
#391 = ORIENTED_EDGE('',*,*,#392,.F.);
#392 = EDGE_CURVE('',#393,#384,#395,.T.);
#393 = VERTEX_POINT('',#394);
#394 = CARTESIAN_POINT('',(45.55,-52.57528221325,13.59));
#395 = LINE('',#396,#397);
#396 = CARTESIAN_POINT('',(45.55,-52.95,13.59));
#397 = VECTOR('',#398,1.);
#398 = DIRECTION('',(0.,1.,0.));
#399 = ORIENTED_EDGE('',*,*,#400,.T.);
#400 = EDGE_CURVE('',#393,#401,#403,.T.);
#401 = VERTEX_POINT('',#402);
#402 = CARTESIAN_POINT('',(47.55,-32.5,13.59));
#403 = B_SPLINE_CURVE_WITH_KNOTS('',3,(#404,#405,#406,#407),
  .UNSPECIFIED.,.F.,.F.,(4,4),(0.,1.),.PIECEWISE_BEZIER_KNOTS.);
#404 = CARTESIAN_POINT('',(42.2,-57.5,13.59));
#405 = CARTESIAN_POINT('',(46.5,-54.5,13.59));
#406 = CARTESIAN_POINT('',(46.8,-48.4,13.59));
#407 = CARTESIAN_POINT('',(47.55,-32.5,13.59));
#408 = ORIENTED_EDGE('',*,*,#409,.T.);
#409 = EDGE_CURVE('',#401,#410,#412,.T.);
#410 = VERTEX_POINT('',#411);
#411 = CARTESIAN_POINT('',(45.85,-54.5,13.59));
#412 = B_SPLINE_CURVE_WITH_KNOTS('',3,(#413,#414,#415,#416),
  .UNSPECIFIED.,.F.,.F.,(4,4),(0.,1.),.PIECEWISE_BEZIER_KNOTS.);
#413 = CARTESIAN_POINT('',(47.55,-32.5,13.59));
#414 = CARTESIAN_POINT('',(47.5,-44.,13.59));
#415 = CARTESIAN_POINT('',(47.1,-50.9,13.59));
#416 = CARTESIAN_POINT('',(45.85,-54.5,13.59));
#417 = ORIENTED_EDGE('',*,*,#418,.T.);
#418 = EDGE_CURVE('',#410,#419,#421,.T.);
#419 = VERTEX_POINT('',#420);
#420 = CARTESIAN_POINT('',(32.,-64.1,13.59));
#421 = B_SPLINE_CURVE_WITH_KNOTS('',3,(#422,#423,#424,#425),
  .UNSPECIFIED.,.F.,.F.,(4,4),(0.,1.),.PIECEWISE_BEZIER_KNOTS.);
#422 = CARTESIAN_POINT('',(45.85,-54.5,13.59));
#423 = CARTESIAN_POINT('',(43.5,-62.9,13.59));
#424 = CARTESIAN_POINT('',(38.9,-66.1,13.59));
#425 = CARTESIAN_POINT('',(32.,-64.1,13.59));
#426 = ORIENTED_EDGE('',*,*,#427,.T.);
#427 = EDGE_CURVE('',#419,#428,#430,.T.);
#428 = VERTEX_POINT('',#429);
#429 = CARTESIAN_POINT('',(26.5,-61.1,13.59));
#430 = B_SPLINE_CURVE_WITH_KNOTS('',3,(#431,#432,#433,#434),
  .UNSPECIFIED.,.F.,.F.,(4,4),(0.,1.),.PIECEWISE_BEZIER_KNOTS.);
#431 = CARTESIAN_POINT('',(32.,-64.1,13.59));
#432 = CARTESIAN_POINT('',(29.8,-63.6,13.59));
#433 = CARTESIAN_POINT('',(27.5,-62.5,13.59));
#434 = CARTESIAN_POINT('',(26.5,-61.1,13.59));
#435 = ORIENTED_EDGE('',*,*,#436,.T.);
#436 = EDGE_CURVE('',#428,#437,#439,.T.);
#437 = VERTEX_POINT('',#438);
#438 = CARTESIAN_POINT('',(26.5,-55.8,13.59));
#439 = LINE('',#440,#441);
#440 = CARTESIAN_POINT('',(26.5,-61.1,13.59));
#441 = VECTOR('',#442,1.);
#442 = DIRECTION('',(0.,1.,0.));
#443 = ORIENTED_EDGE('',*,*,#444,.T.);
#444 = EDGE_CURVE('',#437,#445,#447,.T.);
#445 = VERTEX_POINT('',#446);
#446 = CARTESIAN_POINT('',(33.3,-60.7,13.59));
#447 = B_SPLINE_CURVE_WITH_KNOTS('',3,(#448,#449,#450,#451),
  .UNSPECIFIED.,.F.,.F.,(4,4),(0.,1.),.PIECEWISE_BEZIER_KNOTS.);
#448 = CARTESIAN_POINT('',(26.5,-55.8,13.59));
#449 = CARTESIAN_POINT('',(28.4,-59.8,13.59));
#450 = CARTESIAN_POINT('',(30.9,-61.1,13.59));
#451 = CARTESIAN_POINT('',(33.3,-60.7,13.59));
#452 = ORIENTED_EDGE('',*,*,#453,.T.);
#453 = EDGE_CURVE('',#445,#454,#456,.T.);
#454 = VERTEX_POINT('',#455);
#455 = CARTESIAN_POINT('',(37.5,-56.5,13.59));
#456 = B_SPLINE_CURVE_WITH_KNOTS('',3,(#457,#458,#459,#460),
  .UNSPECIFIED.,.F.,.F.,(4,4),(0.,1.),.PIECEWISE_BEZIER_KNOTS.);
#457 = CARTESIAN_POINT('',(33.3,-60.7,13.59));
#458 = CARTESIAN_POINT('',(34.4,-60.5,13.59));
#459 = CARTESIAN_POINT('',(34.1,-56.5,13.59));
#460 = CARTESIAN_POINT('',(37.5,-56.5,13.59));
#461 = ORIENTED_EDGE('',*,*,#462,.T.);
#462 = EDGE_CURVE('',#454,#463,#465,.T.);
#463 = VERTEX_POINT('',#464);
#464 = CARTESIAN_POINT('',(42.2,-57.5,13.59));
#465 = B_SPLINE_CURVE_WITH_KNOTS('',3,(#466,#467,#468,#469),
  .UNSPECIFIED.,.F.,.F.,(4,4),(0.,1.),.PIECEWISE_BEZIER_KNOTS.);
#466 = CARTESIAN_POINT('',(37.5,-56.5,13.59));
#467 = CARTESIAN_POINT('',(40.6,-56.5,13.59));
#468 = CARTESIAN_POINT('',(40.4,-59.5,13.59));
#469 = CARTESIAN_POINT('',(42.2,-57.5,13.59));
#470 = ORIENTED_EDGE('',*,*,#471,.T.);
#471 = EDGE_CURVE('',#463,#472,#474,.T.);
#472 = VERTEX_POINT('',#473);
#473 = CARTESIAN_POINT('',(45.323257534699,-53.24091808745,13.59));
#474 = B_SPLINE_CURVE_WITH_KNOTS('',3,(#475,#476,#477,#478),
  .UNSPECIFIED.,.F.,.F.,(4,4),(0.,1.),.PIECEWISE_BEZIER_KNOTS.);
#475 = CARTESIAN_POINT('',(42.2,-57.5,13.59));
#476 = CARTESIAN_POINT('',(46.5,-54.5,13.59));
#477 = CARTESIAN_POINT('',(46.8,-48.4,13.59));
#478 = CARTESIAN_POINT('',(47.55,-32.5,13.59));
#479 = ORIENTED_EDGE('',*,*,#480,.F.);
#480 = EDGE_CURVE('',#481,#472,#483,.T.);
#481 = VERTEX_POINT('',#482);
#482 = CARTESIAN_POINT('',(45.25,-53.25,13.59));
#483 = CIRCLE('',#484,0.3);
#484 = AXIS2_PLACEMENT_3D('',#485,#486,#487);
#485 = CARTESIAN_POINT('',(45.25,-52.95,13.59));
#486 = DIRECTION('',(-0.,0.,1.));
#487 = DIRECTION('',(2.368E-14,-1.,0.));
#488 = ORIENTED_EDGE('',*,*,#489,.F.);
#489 = EDGE_CURVE('',#490,#481,#492,.T.);
#490 = VERTEX_POINT('',#491);
#491 = CARTESIAN_POINT('',(29.15,-53.25,13.59));
#492 = LINE('',#493,#494);
#493 = CARTESIAN_POINT('',(29.15,-53.25,13.59));
#494 = VECTOR('',#495,1.);
#495 = DIRECTION('',(1.,0.,0.));
#496 = ORIENTED_EDGE('',*,*,#497,.F.);
#497 = EDGE_CURVE('',#498,#490,#500,.T.);
#498 = VERTEX_POINT('',#499);
#499 = CARTESIAN_POINT('',(28.85,-52.95,13.59));
#500 = CIRCLE('',#501,0.3);
#501 = AXIS2_PLACEMENT_3D('',#502,#503,#504);
#502 = CARTESIAN_POINT('',(29.15,-52.95,13.59));
#503 = DIRECTION('',(0.,0.,1.));
#504 = DIRECTION('',(-1.,4.737E-14,0.));
#505 = ORIENTED_EDGE('',*,*,#506,.F.);
#506 = EDGE_CURVE('',#507,#498,#509,.T.);
#507 = VERTEX_POINT('',#508);
#508 = CARTESIAN_POINT('',(28.85,-14.95,13.59));
#509 = LINE('',#510,#511);
#510 = CARTESIAN_POINT('',(28.85,-14.95,13.59));
#511 = VECTOR('',#512,1.);
#512 = DIRECTION('',(0.,-1.,0.));
#513 = ORIENTED_EDGE('',*,*,#514,.F.);
#514 = EDGE_CURVE('',#376,#507,#515,.T.);
#515 = CIRCLE('',#516,0.3);
#516 = AXIS2_PLACEMENT_3D('',#517,#518,#519);
#517 = CARTESIAN_POINT('',(29.15,-14.95,13.59));
#518 = DIRECTION('',(0.,-0.,1.));
#519 = DIRECTION('',(1.1842E-13,1.,0.));
#520 = PLANE('',#521);
#521 = AXIS2_PLACEMENT_3D('',#522,#523,#524);
#522 = CARTESIAN_POINT('',(37.,-39.,13.59));
#523 = DIRECTION('',(0.,0.,1.));
#524 = DIRECTION('',(1.,0.,0.));
#525 = ADVANCED_FACE('',(#526),#537,.F.);
#526 = FACE_BOUND('',#527,.F.);
#527 = EDGE_LOOP('',(#528,#534,#535,#536));
#528 = ORIENTED_EDGE('',*,*,#529,.T.);
#529 = EDGE_CURVE('',#155,#356,#530,.T.);
#530 = LINE('',#531,#532);
#531 = CARTESIAN_POINT('',(47.8,-64.7,13.19));
#532 = VECTOR('',#533,1.);
#533 = DIRECTION('',(0.,0.,1.));
#534 = ORIENTED_EDGE('',*,*,#364,.T.);
#535 = ORIENTED_EDGE('',*,*,#61,.F.);
#536 = ORIENTED_EDGE('',*,*,#163,.F.);
#537 = PLANE('',#538);
#538 = AXIS2_PLACEMENT_3D('',#539,#540,#541);
#539 = CARTESIAN_POINT('',(47.8,-64.7,13.19));
#540 = DIRECTION('',(-1.,0.,0.));
#541 = DIRECTION('',(0.,1.,0.));
#542 = ADVANCED_FACE('',(#543),#554,.F.);
#543 = FACE_BOUND('',#544,.F.);
#544 = EDGE_LOOP('',(#545,#546,#547,#553));
#545 = ORIENTED_EDGE('',*,*,#104,.T.);
#546 = ORIENTED_EDGE('',*,*,#330,.T.);
#547 = ORIENTED_EDGE('',*,*,#548,.F.);
#548 = EDGE_CURVE('',#130,#331,#549,.T.);
#549 = LINE('',#550,#551);
#550 = CARTESIAN_POINT('',(26.2,-64.7,13.19));
#551 = VECTOR('',#552,1.);
#552 = DIRECTION('',(0.,0.,1.));
#553 = ORIENTED_EDGE('',*,*,#129,.F.);
#554 = PLANE('',#555);
#555 = AXIS2_PLACEMENT_3D('',#556,#557,#558);
#556 = CARTESIAN_POINT('',(26.2,-13.3,13.19));
#557 = DIRECTION('',(1.,0.,0.));
#558 = DIRECTION('',(0.,-1.,0.));
#559 = ADVANCED_FACE('',(#560),#571,.T.);
#560 = FACE_BOUND('',#561,.F.);
#561 = EDGE_LOOP('',(#562,#568,#569,#570));
#562 = ORIENTED_EDGE('',*,*,#563,.T.);
#563 = EDGE_CURVE('',#147,#348,#564,.T.);
#564 = LINE('',#565,#566);
#565 = CARTESIAN_POINT('',(46.7,-65.8,13.19));
#566 = VECTOR('',#567,1.);
#567 = DIRECTION('',(0.,0.,1.));
#568 = ORIENTED_EDGE('',*,*,#355,.T.);
#569 = ORIENTED_EDGE('',*,*,#529,.F.);
#570 = ORIENTED_EDGE('',*,*,#154,.F.);
#571 = CYLINDRICAL_SURFACE('',#572,1.1);
#572 = AXIS2_PLACEMENT_3D('',#573,#574,#575);
#573 = CARTESIAN_POINT('',(46.7,-64.7,13.19));
#574 = DIRECTION('',(0.,0.,-1.));
#575 = DIRECTION('',(6.46E-15,-1.,0.));
#576 = ADVANCED_FACE('',(#577),#588,.T.);
#577 = FACE_BOUND('',#578,.F.);
#578 = EDGE_LOOP('',(#579,#580,#581,#587));
#579 = ORIENTED_EDGE('',*,*,#548,.T.);
#580 = ORIENTED_EDGE('',*,*,#338,.T.);
#581 = ORIENTED_EDGE('',*,*,#582,.F.);
#582 = EDGE_CURVE('',#138,#339,#583,.T.);
#583 = LINE('',#584,#585);
#584 = CARTESIAN_POINT('',(27.3,-65.8,13.19));
#585 = VECTOR('',#586,1.);
#586 = DIRECTION('',(0.,0.,1.));
#587 = ORIENTED_EDGE('',*,*,#137,.F.);
#588 = CYLINDRICAL_SURFACE('',#589,1.1);
#589 = AXIS2_PLACEMENT_3D('',#590,#591,#592);
#590 = CARTESIAN_POINT('',(27.3,-64.7,13.19));
#591 = DIRECTION('',(-0.,-0.,-1.));
#592 = DIRECTION('',(-1.,0.,0.));
#593 = ADVANCED_FACE('',(#594),#600,.F.);
#594 = FACE_BOUND('',#595,.F.);
#595 = EDGE_LOOP('',(#596,#597,#598,#599));
#596 = ORIENTED_EDGE('',*,*,#582,.T.);
#597 = ORIENTED_EDGE('',*,*,#347,.T.);
#598 = ORIENTED_EDGE('',*,*,#563,.F.);
#599 = ORIENTED_EDGE('',*,*,#146,.F.);
#600 = PLANE('',#601);
#601 = AXIS2_PLACEMENT_3D('',#602,#603,#604);
#602 = CARTESIAN_POINT('',(27.3,-65.8,13.19));
#603 = DIRECTION('',(0.,1.,0.));
#604 = DIRECTION('',(1.,0.,0.));
#605 = ADVANCED_FACE('',(#606),#622,.T.);
#606 = FACE_BOUND('',#607,.T.);
#607 = EDGE_LOOP('',(#608,#614,#615,#621));
#608 = ORIENTED_EDGE('',*,*,#609,.T.);
#609 = EDGE_CURVE('',#173,#374,#610,.T.);
#610 = LINE('',#611,#612);
#611 = CARTESIAN_POINT('',(45.25,-14.65,13.19));
#612 = VECTOR('',#613,1.);
#613 = DIRECTION('',(0.,0.,1.));
#614 = ORIENTED_EDGE('',*,*,#373,.T.);
#615 = ORIENTED_EDGE('',*,*,#616,.F.);
#616 = EDGE_CURVE('',#175,#376,#617,.T.);
#617 = LINE('',#618,#619);
#618 = CARTESIAN_POINT('',(29.15,-14.65,13.19));
#619 = VECTOR('',#620,1.);
#620 = DIRECTION('',(0.,0.,1.));
#621 = ORIENTED_EDGE('',*,*,#172,.F.);
#622 = PLANE('',#623);
#623 = AXIS2_PLACEMENT_3D('',#624,#625,#626);
#624 = CARTESIAN_POINT('',(45.25,-14.65,13.19));
#625 = DIRECTION('',(0.,-1.,0.));
#626 = DIRECTION('',(-1.,0.,0.));
#627 = ADVANCED_FACE('',(#628),#639,.F.);
#628 = FACE_BOUND('',#629,.T.);
#629 = EDGE_LOOP('',(#630,#631,#632,#638));
#630 = ORIENTED_EDGE('',*,*,#616,.T.);
#631 = ORIENTED_EDGE('',*,*,#514,.T.);
#632 = ORIENTED_EDGE('',*,*,#633,.F.);
#633 = EDGE_CURVE('',#306,#507,#634,.T.);
#634 = LINE('',#635,#636);
#635 = CARTESIAN_POINT('',(28.85,-14.95,13.19));
#636 = VECTOR('',#637,1.);
#637 = DIRECTION('',(0.,0.,1.));
#638 = ORIENTED_EDGE('',*,*,#313,.F.);
#639 = CYLINDRICAL_SURFACE('',#640,0.3);
#640 = AXIS2_PLACEMENT_3D('',#641,#642,#643);
#641 = CARTESIAN_POINT('',(29.15,-14.95,13.19));
#642 = DIRECTION('',(0.,0.,-1.));
#643 = DIRECTION('',(1.1842E-13,1.,0.));
#644 = ADVANCED_FACE('',(#645),#656,.T.);
#645 = FACE_BOUND('',#646,.T.);
#646 = EDGE_LOOP('',(#647,#648,#649,#655));
#647 = ORIENTED_EDGE('',*,*,#633,.T.);
#648 = ORIENTED_EDGE('',*,*,#506,.T.);
#649 = ORIENTED_EDGE('',*,*,#650,.F.);
#650 = EDGE_CURVE('',#297,#498,#651,.T.);
#651 = LINE('',#652,#653);
#652 = CARTESIAN_POINT('',(28.85,-52.95,13.19));
#653 = VECTOR('',#654,1.);
#654 = DIRECTION('',(0.,0.,1.));
#655 = ORIENTED_EDGE('',*,*,#305,.F.);
#656 = PLANE('',#657);
#657 = AXIS2_PLACEMENT_3D('',#658,#659,#660);
#658 = CARTESIAN_POINT('',(28.85,-14.95,13.19));
#659 = DIRECTION('',(1.,0.,0.));
#660 = DIRECTION('',(0.,-1.,0.));
#661 = ADVANCED_FACE('',(#662),#673,.F.);
#662 = FACE_BOUND('',#663,.T.);
#663 = EDGE_LOOP('',(#664,#665,#666,#672));
#664 = ORIENTED_EDGE('',*,*,#650,.T.);
#665 = ORIENTED_EDGE('',*,*,#497,.T.);
#666 = ORIENTED_EDGE('',*,*,#667,.F.);
#667 = EDGE_CURVE('',#289,#490,#668,.T.);
#668 = LINE('',#669,#670);
#669 = CARTESIAN_POINT('',(29.15,-53.25,13.19));
#670 = VECTOR('',#671,1.);
#671 = DIRECTION('',(0.,0.,1.));
#672 = ORIENTED_EDGE('',*,*,#296,.F.);
#673 = CYLINDRICAL_SURFACE('',#674,0.3);
#674 = AXIS2_PLACEMENT_3D('',#675,#676,#677);
#675 = CARTESIAN_POINT('',(29.15,-52.95,13.19));
#676 = DIRECTION('',(-0.,-0.,-1.));
#677 = DIRECTION('',(-1.,4.737E-14,0.));
#678 = ADVANCED_FACE('',(#679),#690,.T.);
#679 = FACE_BOUND('',#680,.T.);
#680 = EDGE_LOOP('',(#681,#682,#683,#689));
#681 = ORIENTED_EDGE('',*,*,#667,.T.);
#682 = ORIENTED_EDGE('',*,*,#489,.T.);
#683 = ORIENTED_EDGE('',*,*,#684,.F.);
#684 = EDGE_CURVE('',#280,#481,#685,.T.);
#685 = LINE('',#686,#687);
#686 = CARTESIAN_POINT('',(45.25,-53.25,13.19));
#687 = VECTOR('',#688,1.);
#688 = DIRECTION('',(0.,0.,1.));
#689 = ORIENTED_EDGE('',*,*,#288,.F.);
#690 = PLANE('',#691);
#691 = AXIS2_PLACEMENT_3D('',#692,#693,#694);
#692 = CARTESIAN_POINT('',(29.15,-53.25,13.19));
#693 = DIRECTION('',(0.,1.,0.));
#694 = DIRECTION('',(1.,0.,0.));
#695 = ADVANCED_FACE('',(#696),#709,.F.);
#696 = FACE_BOUND('',#697,.T.);
#697 = EDGE_LOOP('',(#698,#699,#700,#701));
#698 = ORIENTED_EDGE('',*,*,#279,.F.);
#699 = ORIENTED_EDGE('',*,*,#684,.T.);
#700 = ORIENTED_EDGE('',*,*,#480,.T.);
#701 = ORIENTED_EDGE('',*,*,#702,.T.);
#702 = EDGE_CURVE('',#472,#271,#703,.T.);
#703 = B_SPLINE_CURVE_WITH_KNOTS('',4,(#704,#705,#706,#707,#708),
  .UNSPECIFIED.,.F.,.F.,(5,5),(0.,1.),.PIECEWISE_BEZIER_KNOTS.);
#704 = CARTESIAN_POINT('',(45.323257534699,-53.24091808745,
    13.59011597993));
#705 = CARTESIAN_POINT('',(45.323257534699,-53.24091808745,
    13.490057989965));
#706 = CARTESIAN_POINT('',(45.323257534699,-53.24091808745,13.39));
#707 = CARTESIAN_POINT('',(45.323257534699,-53.24091808745,
    13.289942010035));
#708 = CARTESIAN_POINT('',(45.323257534699,-53.24091808745,
    13.18988402007));
#709 = CYLINDRICAL_SURFACE('',#710,0.3);
#710 = AXIS2_PLACEMENT_3D('',#711,#712,#713);
#711 = CARTESIAN_POINT('',(45.25,-52.95,13.19));
#712 = DIRECTION('',(0.,0.,-1.));
#713 = DIRECTION('',(2.368E-14,-1.,0.));
#714 = ADVANCED_FACE('',(#715),#726,.F.);
#715 = FACE_BOUND('',#716,.F.);
#716 = EDGE_LOOP('',(#717,#718,#724,#725));
#717 = ORIENTED_EDGE('',*,*,#270,.F.);
#718 = ORIENTED_EDGE('',*,*,#719,.T.);
#719 = EDGE_CURVE('',#262,#463,#720,.T.);
#720 = LINE('',#721,#722);
#721 = CARTESIAN_POINT('',(42.2,-57.5,13.19));
#722 = VECTOR('',#723,1.);
#723 = DIRECTION('',(0.,0.,1.));
#724 = ORIENTED_EDGE('',*,*,#471,.T.);
#725 = ORIENTED_EDGE('',*,*,#702,.T.);
#726 = SURFACE_OF_LINEAR_EXTRUSION('',#727,#732);
#727 = B_SPLINE_CURVE_WITH_KNOTS('',3,(#728,#729,#730,#731),
  .UNSPECIFIED.,.F.,.F.,(4,4),(0.,1.),.PIECEWISE_BEZIER_KNOTS.);
#728 = CARTESIAN_POINT('',(42.2,-57.5,13.19));
#729 = CARTESIAN_POINT('',(46.5,-54.5,13.19));
#730 = CARTESIAN_POINT('',(46.8,-48.4,13.19));
#731 = CARTESIAN_POINT('',(47.55,-32.5,13.19));
#732 = VECTOR('',#733,1.);
#733 = DIRECTION('',(-0.,-0.,-1.));
#734 = ADVANCED_FACE('',(#735),#746,.F.);
#735 = FACE_BOUND('',#736,.F.);
#736 = EDGE_LOOP('',(#737,#743,#744,#745));
#737 = ORIENTED_EDGE('',*,*,#738,.T.);
#738 = EDGE_CURVE('',#253,#454,#739,.T.);
#739 = LINE('',#740,#741);
#740 = CARTESIAN_POINT('',(37.5,-56.5,13.19));
#741 = VECTOR('',#742,1.);
#742 = DIRECTION('',(0.,0.,1.));
#743 = ORIENTED_EDGE('',*,*,#462,.T.);
#744 = ORIENTED_EDGE('',*,*,#719,.F.);
#745 = ORIENTED_EDGE('',*,*,#261,.F.);
#746 = SURFACE_OF_LINEAR_EXTRUSION('',#747,#752);
#747 = B_SPLINE_CURVE_WITH_KNOTS('',3,(#748,#749,#750,#751),
  .UNSPECIFIED.,.F.,.F.,(4,4),(0.,1.),.PIECEWISE_BEZIER_KNOTS.);
#748 = CARTESIAN_POINT('',(37.5,-56.5,13.19));
#749 = CARTESIAN_POINT('',(40.6,-56.5,13.19));
#750 = CARTESIAN_POINT('',(40.4,-59.5,13.19));
#751 = CARTESIAN_POINT('',(42.2,-57.5,13.19));
#752 = VECTOR('',#753,1.);
#753 = DIRECTION('',(-0.,-0.,-1.));
#754 = ADVANCED_FACE('',(#755),#766,.F.);
#755 = FACE_BOUND('',#756,.F.);
#756 = EDGE_LOOP('',(#757,#763,#764,#765));
#757 = ORIENTED_EDGE('',*,*,#758,.T.);
#758 = EDGE_CURVE('',#244,#445,#759,.T.);
#759 = LINE('',#760,#761);
#760 = CARTESIAN_POINT('',(33.3,-60.7,13.19));
#761 = VECTOR('',#762,1.);
#762 = DIRECTION('',(0.,0.,1.));
#763 = ORIENTED_EDGE('',*,*,#453,.T.);
#764 = ORIENTED_EDGE('',*,*,#738,.F.);
#765 = ORIENTED_EDGE('',*,*,#252,.F.);
#766 = SURFACE_OF_LINEAR_EXTRUSION('',#767,#772);
#767 = B_SPLINE_CURVE_WITH_KNOTS('',3,(#768,#769,#770,#771),
  .UNSPECIFIED.,.F.,.F.,(4,4),(0.,1.),.PIECEWISE_BEZIER_KNOTS.);
#768 = CARTESIAN_POINT('',(33.3,-60.7,13.19));
#769 = CARTESIAN_POINT('',(34.4,-60.5,13.19));
#770 = CARTESIAN_POINT('',(34.1,-56.5,13.19));
#771 = CARTESIAN_POINT('',(37.5,-56.5,13.19));
#772 = VECTOR('',#773,1.);
#773 = DIRECTION('',(-0.,-0.,-1.));
#774 = ADVANCED_FACE('',(#775),#786,.F.);
#775 = FACE_BOUND('',#776,.F.);
#776 = EDGE_LOOP('',(#777,#783,#784,#785));
#777 = ORIENTED_EDGE('',*,*,#778,.T.);
#778 = EDGE_CURVE('',#236,#437,#779,.T.);
#779 = LINE('',#780,#781);
#780 = CARTESIAN_POINT('',(26.5,-55.8,13.19));
#781 = VECTOR('',#782,1.);
#782 = DIRECTION('',(0.,0.,1.));
#783 = ORIENTED_EDGE('',*,*,#444,.T.);
#784 = ORIENTED_EDGE('',*,*,#758,.F.);
#785 = ORIENTED_EDGE('',*,*,#243,.F.);
#786 = SURFACE_OF_LINEAR_EXTRUSION('',#787,#792);
#787 = B_SPLINE_CURVE_WITH_KNOTS('',3,(#788,#789,#790,#791),
  .UNSPECIFIED.,.F.,.F.,(4,4),(0.,1.),.PIECEWISE_BEZIER_KNOTS.);
#788 = CARTESIAN_POINT('',(26.5,-55.8,13.19));
#789 = CARTESIAN_POINT('',(28.4,-59.8,13.19));
#790 = CARTESIAN_POINT('',(30.9,-61.1,13.19));
#791 = CARTESIAN_POINT('',(33.3,-60.7,13.19));
#792 = VECTOR('',#793,1.);
#793 = DIRECTION('',(-0.,-0.,-1.));
#794 = ADVANCED_FACE('',(#795),#806,.F.);
#795 = FACE_BOUND('',#796,.F.);
#796 = EDGE_LOOP('',(#797,#803,#804,#805));
#797 = ORIENTED_EDGE('',*,*,#798,.T.);
#798 = EDGE_CURVE('',#227,#428,#799,.T.);
#799 = LINE('',#800,#801);
#800 = CARTESIAN_POINT('',(26.5,-61.1,13.19));
#801 = VECTOR('',#802,1.);
#802 = DIRECTION('',(0.,0.,1.));
#803 = ORIENTED_EDGE('',*,*,#436,.T.);
#804 = ORIENTED_EDGE('',*,*,#778,.F.);
#805 = ORIENTED_EDGE('',*,*,#235,.F.);
#806 = PLANE('',#807);
#807 = AXIS2_PLACEMENT_3D('',#808,#809,#810);
#808 = CARTESIAN_POINT('',(26.5,-61.1,13.19));
#809 = DIRECTION('',(-1.,0.,0.));
#810 = DIRECTION('',(0.,1.,0.));
#811 = ADVANCED_FACE('',(#812),#823,.F.);
#812 = FACE_BOUND('',#813,.F.);
#813 = EDGE_LOOP('',(#814,#820,#821,#822));
#814 = ORIENTED_EDGE('',*,*,#815,.T.);
#815 = EDGE_CURVE('',#218,#419,#816,.T.);
#816 = LINE('',#817,#818);
#817 = CARTESIAN_POINT('',(32.,-64.1,13.19));
#818 = VECTOR('',#819,1.);
#819 = DIRECTION('',(0.,0.,1.));
#820 = ORIENTED_EDGE('',*,*,#427,.T.);
#821 = ORIENTED_EDGE('',*,*,#798,.F.);
#822 = ORIENTED_EDGE('',*,*,#226,.F.);
#823 = SURFACE_OF_LINEAR_EXTRUSION('',#824,#829);
#824 = B_SPLINE_CURVE_WITH_KNOTS('',3,(#825,#826,#827,#828),
  .UNSPECIFIED.,.F.,.F.,(4,4),(0.,1.),.PIECEWISE_BEZIER_KNOTS.);
#825 = CARTESIAN_POINT('',(32.,-64.1,13.19));
#826 = CARTESIAN_POINT('',(29.8,-63.6,13.19));
#827 = CARTESIAN_POINT('',(27.5,-62.5,13.19));
#828 = CARTESIAN_POINT('',(26.5,-61.1,13.19));
#829 = VECTOR('',#830,1.);
#830 = DIRECTION('',(-0.,-0.,-1.));
#831 = ADVANCED_FACE('',(#832),#843,.F.);
#832 = FACE_BOUND('',#833,.F.);
#833 = EDGE_LOOP('',(#834,#840,#841,#842));
#834 = ORIENTED_EDGE('',*,*,#835,.T.);
#835 = EDGE_CURVE('',#209,#410,#836,.T.);
#836 = LINE('',#837,#838);
#837 = CARTESIAN_POINT('',(45.85,-54.5,13.19));
#838 = VECTOR('',#839,1.);
#839 = DIRECTION('',(0.,0.,1.));
#840 = ORIENTED_EDGE('',*,*,#418,.T.);
#841 = ORIENTED_EDGE('',*,*,#815,.F.);
#842 = ORIENTED_EDGE('',*,*,#217,.F.);
#843 = SURFACE_OF_LINEAR_EXTRUSION('',#844,#849);
#844 = B_SPLINE_CURVE_WITH_KNOTS('',3,(#845,#846,#847,#848),
  .UNSPECIFIED.,.F.,.F.,(4,4),(0.,1.),.PIECEWISE_BEZIER_KNOTS.);
#845 = CARTESIAN_POINT('',(45.85,-54.5,13.19));
#846 = CARTESIAN_POINT('',(43.5,-62.9,13.19));
#847 = CARTESIAN_POINT('',(38.9,-66.1,13.19));
#848 = CARTESIAN_POINT('',(32.,-64.1,13.19));
#849 = VECTOR('',#850,1.);
#850 = DIRECTION('',(-0.,-0.,-1.));
#851 = ADVANCED_FACE('',(#852),#863,.F.);
#852 = FACE_BOUND('',#853,.F.);
#853 = EDGE_LOOP('',(#854,#860,#861,#862));
#854 = ORIENTED_EDGE('',*,*,#855,.T.);
#855 = EDGE_CURVE('',#200,#401,#856,.T.);
#856 = LINE('',#857,#858);
#857 = CARTESIAN_POINT('',(47.55,-32.5,13.19));
#858 = VECTOR('',#859,1.);
#859 = DIRECTION('',(0.,0.,1.));
#860 = ORIENTED_EDGE('',*,*,#409,.T.);
#861 = ORIENTED_EDGE('',*,*,#835,.F.);
#862 = ORIENTED_EDGE('',*,*,#208,.F.);
#863 = SURFACE_OF_LINEAR_EXTRUSION('',#864,#869);
#864 = B_SPLINE_CURVE_WITH_KNOTS('',3,(#865,#866,#867,#868),
  .UNSPECIFIED.,.F.,.F.,(4,4),(0.,1.),.PIECEWISE_BEZIER_KNOTS.);
#865 = CARTESIAN_POINT('',(47.55,-32.5,13.19));
#866 = CARTESIAN_POINT('',(47.5,-44.,13.19));
#867 = CARTESIAN_POINT('',(47.1,-50.9,13.19));
#868 = CARTESIAN_POINT('',(45.85,-54.5,13.19));
#869 = VECTOR('',#870,1.);
#870 = DIRECTION('',(-0.,-0.,-1.));
#871 = ADVANCED_FACE('',(#872),#885,.F.);
#872 = FACE_BOUND('',#873,.F.);
#873 = EDGE_LOOP('',(#874,#875,#883,#884));
#874 = ORIENTED_EDGE('',*,*,#199,.F.);
#875 = ORIENTED_EDGE('',*,*,#876,.F.);
#876 = EDGE_CURVE('',#393,#192,#877,.T.);
#877 = B_SPLINE_CURVE_WITH_KNOTS('',4,(#878,#879,#880,#881,#882),
  .UNSPECIFIED.,.F.,.F.,(5,5),(0.,1.),.PIECEWISE_BEZIER_KNOTS.);
#878 = CARTESIAN_POINT('',(45.55,-52.57528221325,13.59));
#879 = CARTESIAN_POINT('',(45.55,-52.57528221325,13.490000000007));
#880 = CARTESIAN_POINT('',(45.55,-52.57528221325,13.39));
#881 = CARTESIAN_POINT('',(45.55,-52.57528221325,13.289999999993));
#882 = CARTESIAN_POINT('',(45.55,-52.57528221325,13.19));
#883 = ORIENTED_EDGE('',*,*,#400,.T.);
#884 = ORIENTED_EDGE('',*,*,#855,.F.);
#885 = SURFACE_OF_LINEAR_EXTRUSION('',#886,#891);
#886 = B_SPLINE_CURVE_WITH_KNOTS('',3,(#887,#888,#889,#890),
  .UNSPECIFIED.,.F.,.F.,(4,4),(0.,1.),.PIECEWISE_BEZIER_KNOTS.);
#887 = CARTESIAN_POINT('',(42.2,-57.5,13.19));
#888 = CARTESIAN_POINT('',(46.5,-54.5,13.19));
#889 = CARTESIAN_POINT('',(46.8,-48.4,13.19));
#890 = CARTESIAN_POINT('',(47.55,-32.5,13.19));
#891 = VECTOR('',#892,1.);
#892 = DIRECTION('',(-0.,-0.,-1.));
#893 = ADVANCED_FACE('',(#894),#905,.T.);
#894 = FACE_BOUND('',#895,.T.);
#895 = EDGE_LOOP('',(#896,#897,#898,#899));
#896 = ORIENTED_EDGE('',*,*,#191,.F.);
#897 = ORIENTED_EDGE('',*,*,#876,.F.);
#898 = ORIENTED_EDGE('',*,*,#392,.T.);
#899 = ORIENTED_EDGE('',*,*,#900,.F.);
#900 = EDGE_CURVE('',#183,#384,#901,.T.);
#901 = LINE('',#902,#903);
#902 = CARTESIAN_POINT('',(45.55,-14.95,13.19));
#903 = VECTOR('',#904,1.);
#904 = DIRECTION('',(0.,0.,1.));
#905 = PLANE('',#906);
#906 = AXIS2_PLACEMENT_3D('',#907,#908,#909);
#907 = CARTESIAN_POINT('',(45.55,-52.95,13.19));
#908 = DIRECTION('',(-1.,0.,0.));
#909 = DIRECTION('',(0.,1.,0.));
#910 = ADVANCED_FACE('',(#911),#917,.F.);
#911 = FACE_BOUND('',#912,.T.);
#912 = EDGE_LOOP('',(#913,#914,#915,#916));
#913 = ORIENTED_EDGE('',*,*,#900,.T.);
#914 = ORIENTED_EDGE('',*,*,#383,.T.);
#915 = ORIENTED_EDGE('',*,*,#609,.F.);
#916 = ORIENTED_EDGE('',*,*,#182,.F.);
#917 = CYLINDRICAL_SURFACE('',#918,0.3);
#918 = AXIS2_PLACEMENT_3D('',#919,#920,#921);
#919 = CARTESIAN_POINT('',(45.25,-14.95,13.19));
#920 = DIRECTION('',(0.,0.,-1.));
#921 = DIRECTION('',(1.,5.92E-15,0.));
#922 = ( GEOMETRIC_REPRESENTATION_CONTEXT(3) 
GLOBAL_UNCERTAINTY_ASSIGNED_CONTEXT((#926)) GLOBAL_UNIT_ASSIGNED_CONTEXT
((#923,#924,#925)) REPRESENTATION_CONTEXT('Context #1',
  '3D Context with UNIT and UNCERTAINTY') );
#923 = ( LENGTH_UNIT() NAMED_UNIT(*) SI_UNIT(.MILLI.,.METRE.) );
#924 = ( NAMED_UNIT(*) PLANE_ANGLE_UNIT() SI_UNIT($,.RADIAN.) );
#925 = ( NAMED_UNIT(*) SI_UNIT($,.STERADIAN.) SOLID_ANGLE_UNIT() );
#926 = UNCERTAINTY_MEASURE_WITH_UNIT(LENGTH_MEASURE(5.E-07),#923,
  'distance_accuracy_value','confusion accuracy');
#927 = PRODUCT_RELATED_PRODUCT_CATEGORY('part',$,(#7));
ENDSEC;
END-ISO-10303-21;
