ISO-10303-21;
HEADER;
FILE_DESCRIPTION(('FreeCAD Model'),'2;1');
FILE_NAME('Open CASCADE Shape Model','2026-10-07T22:42:05',('FreeCAD'),(
    'FreeCAD'),'Open CASCADE STEP processor 7.8','FreeCAD','Unknown');
FILE_SCHEMA(('AUTOMOTIVE_DESIGN { 1 0 10303 214 1 1 1 1 }'));
ENDSEC;
DATA;
#1 = APPLICATION_PROTOCOL_DEFINITION('international standard',
  'automotive_design',2000,#2);
#2 = APPLICATION_CONTEXT(
  'core data for automotive mechanical design processes');
#3 = SHAPE_DEFINITION_REPRESENTATION(#4,#10);
#4 = PRODUCT_DEFINITION_SHAPE('','',#5);
#5 = PRODUCT_DEFINITION('design','',#6,#9);
#6 = PRODUCT_DEFINITION_FORMATION('','',#7);
#7 = PRODUCT('Open CASCADE STEP translator 7.8 149',
  'Open CASCADE STEP translator 7.8 149','',(#8));
#8 = PRODUCT_CONTEXT('',#2,'mechanical');
#9 = PRODUCT_DEFINITION_CONTEXT('part definition',#2,'design');
#10 = SHAPE_REPRESENTATION('',(#11,#15,#209,#403),#756);
#11 = AXIS2_PLACEMENT_3D('',#12,#13,#14);
#12 = CARTESIAN_POINT('',(0.,0.,0.));
#13 = DIRECTION('',(0.,0.,1.));
#14 = DIRECTION('',(1.,0.,-0.));
#15 = MANIFOLD_SOLID_BREP('',#16);
#16 = CLOSED_SHELL('',(#17,#77,#108,#159,#181,#195));
#17 = ADVANCED_FACE('',(#18),#72,.F.);
#18 = FACE_BOUND('',#19,.F.);
#19 = EDGE_LOOP('',(#20,#31,#40,#48,#57,#66));
#20 = ORIENTED_EDGE('',*,*,#21,.F.);
#21 = EDGE_CURVE('',#22,#24,#26,.T.);
#22 = VERTEX_POINT('',#23);
#23 = CARTESIAN_POINT('',(26.25,-20.,13.19));
#24 = VERTEX_POINT('',#25);
#25 = CARTESIAN_POINT('',(26.7,-20.45,13.19));
#26 = CIRCLE('',#27,0.45);
#27 = AXIS2_PLACEMENT_3D('',#28,#29,#30);
#28 = CARTESIAN_POINT('',(26.25,-20.45,13.19));
#29 = DIRECTION('',(0.,0.,-1.));
#30 = DIRECTION('',(0.,1.,0.));
#31 = ORIENTED_EDGE('',*,*,#32,.F.);
#32 = EDGE_CURVE('',#33,#22,#35,.T.);
#33 = VERTEX_POINT('',#34);
#34 = CARTESIAN_POINT('',(25.8,-20.45,13.19));
#35 = CIRCLE('',#36,0.45);
#36 = AXIS2_PLACEMENT_3D('',#37,#38,#39);
#37 = CARTESIAN_POINT('',(26.25,-20.45,13.19));
#38 = DIRECTION('',(0.,0.,-1.));
#39 = DIRECTION('',(-1.,-7.89E-15,-0.));
#40 = ORIENTED_EDGE('',*,*,#41,.F.);
#41 = EDGE_CURVE('',#42,#33,#44,.T.);
#42 = VERTEX_POINT('',#43);
#43 = CARTESIAN_POINT('',(25.8,-46.55,13.19));
#44 = LINE('',#45,#46);
#45 = CARTESIAN_POINT('',(25.8,-83.275,13.19));
#46 = VECTOR('',#47,1.);
#47 = DIRECTION('',(0.,1.,0.));
#48 = ORIENTED_EDGE('',*,*,#49,.F.);
#49 = EDGE_CURVE('',#50,#42,#52,.T.);
#50 = VERTEX_POINT('',#51);
#51 = CARTESIAN_POINT('',(26.25,-47.,13.19));
#52 = CIRCLE('',#53,0.45);
#53 = AXIS2_PLACEMENT_3D('',#54,#55,#56);
#54 = CARTESIAN_POINT('',(26.25,-46.55,13.19));
#55 = DIRECTION('',(0.,0.,-1.));
#56 = DIRECTION('',(7.89E-15,-1.,0.));
#57 = ORIENTED_EDGE('',*,*,#58,.F.);
#58 = EDGE_CURVE('',#59,#50,#61,.T.);
#59 = VERTEX_POINT('',#60);
#60 = CARTESIAN_POINT('',(26.7,-46.55,13.19));
#61 = CIRCLE('',#62,0.45);
#62 = AXIS2_PLACEMENT_3D('',#63,#64,#65);
#63 = CARTESIAN_POINT('',(26.25,-46.55,13.19));
#64 = DIRECTION('',(0.,0.,-1.));
#65 = DIRECTION('',(1.,1.579E-14,0.));
#66 = ORIENTED_EDGE('',*,*,#67,.F.);
#67 = EDGE_CURVE('',#24,#59,#68,.T.);
#68 = LINE('',#69,#70);
#69 = CARTESIAN_POINT('',(26.7,-70.225,13.19));
#70 = VECTOR('',#71,1.);
#71 = DIRECTION('',(0.,-1.,0.));
#72 = PLANE('',#73);
#73 = AXIS2_PLACEMENT_3D('',#74,#75,#76);
#74 = CARTESIAN_POINT('',(0.,-120.,13.19));
#75 = DIRECTION('',(0.,0.,1.));
#76 = DIRECTION('',(1.,0.,0.));
#77 = ADVANCED_FACE('',(#78),#103,.T.);
#78 = FACE_BOUND('',#79,.T.);
#79 = EDGE_LOOP('',(#80,#81,#89,#97));
#80 = ORIENTED_EDGE('',*,*,#67,.F.);
#81 = ORIENTED_EDGE('',*,*,#82,.T.);
#82 = EDGE_CURVE('',#24,#83,#85,.T.);
#83 = VERTEX_POINT('',#84);
#84 = CARTESIAN_POINT('',(26.7,-20.45,13.59));
#85 = LINE('',#86,#87);
#86 = CARTESIAN_POINT('',(26.7,-20.45,0.));
#87 = VECTOR('',#88,1.);
#88 = DIRECTION('',(0.,0.,1.));
#89 = ORIENTED_EDGE('',*,*,#90,.T.);
#90 = EDGE_CURVE('',#83,#91,#93,.T.);
#91 = VERTEX_POINT('',#92);
#92 = CARTESIAN_POINT('',(26.7,-46.55,13.59));
#93 = LINE('',#94,#95);
#94 = CARTESIAN_POINT('',(26.7,-70.225,13.59));
#95 = VECTOR('',#96,1.);
#96 = DIRECTION('',(0.,-1.,0.));
#97 = ORIENTED_EDGE('',*,*,#98,.F.);
#98 = EDGE_CURVE('',#59,#91,#99,.T.);
#99 = LINE('',#100,#101);
#100 = CARTESIAN_POINT('',(26.7,-46.55,0.));
#101 = VECTOR('',#102,1.);
#102 = DIRECTION('',(0.,0.,1.));
#103 = PLANE('',#104);
#104 = AXIS2_PLACEMENT_3D('',#105,#106,#107);
#105 = CARTESIAN_POINT('',(26.7,-20.45,0.));
#106 = DIRECTION('',(1.,0.,0.));
#107 = DIRECTION('',(0.,-1.,0.));
#108 = ADVANCED_FACE('',(#109),#154,.T.);
#109 = FACE_BOUND('',#110,.T.);
#110 = EDGE_LOOP('',(#111,#120,#129,#137,#146,#153));
#111 = ORIENTED_EDGE('',*,*,#112,.F.);
#112 = EDGE_CURVE('',#113,#83,#115,.T.);
#113 = VERTEX_POINT('',#114);
#114 = CARTESIAN_POINT('',(26.25,-20.,13.59));
#115 = CIRCLE('',#116,0.45);
#116 = AXIS2_PLACEMENT_3D('',#117,#118,#119);
#117 = CARTESIAN_POINT('',(26.25,-20.45,13.59));
#118 = DIRECTION('',(0.,0.,-1.));
#119 = DIRECTION('',(0.,1.,0.));
#120 = ORIENTED_EDGE('',*,*,#121,.F.);
#121 = EDGE_CURVE('',#122,#113,#124,.T.);
#122 = VERTEX_POINT('',#123);
#123 = CARTESIAN_POINT('',(25.8,-20.45,13.59));
#124 = CIRCLE('',#125,0.45);
#125 = AXIS2_PLACEMENT_3D('',#126,#127,#128);
#126 = CARTESIAN_POINT('',(26.25,-20.45,13.59));
#127 = DIRECTION('',(0.,0.,-1.));
#128 = DIRECTION('',(-1.,-7.89E-15,-0.));
#129 = ORIENTED_EDGE('',*,*,#130,.F.);
#130 = EDGE_CURVE('',#131,#122,#133,.T.);
#131 = VERTEX_POINT('',#132);
#132 = CARTESIAN_POINT('',(25.8,-46.55,13.59));
#133 = LINE('',#134,#135);
#134 = CARTESIAN_POINT('',(25.8,-83.275,13.59));
#135 = VECTOR('',#136,1.);
#136 = DIRECTION('',(0.,1.,0.));
#137 = ORIENTED_EDGE('',*,*,#138,.F.);
#138 = EDGE_CURVE('',#139,#131,#141,.T.);
#139 = VERTEX_POINT('',#140);
#140 = CARTESIAN_POINT('',(26.25,-47.,13.59));
#141 = CIRCLE('',#142,0.45);
#142 = AXIS2_PLACEMENT_3D('',#143,#144,#145);
#143 = CARTESIAN_POINT('',(26.25,-46.55,13.59));
#144 = DIRECTION('',(0.,0.,-1.));
#145 = DIRECTION('',(7.89E-15,-1.,0.));
#146 = ORIENTED_EDGE('',*,*,#147,.F.);
#147 = EDGE_CURVE('',#91,#139,#148,.T.);
#148 = CIRCLE('',#149,0.45);
#149 = AXIS2_PLACEMENT_3D('',#150,#151,#152);
#150 = CARTESIAN_POINT('',(26.25,-46.55,13.59));
#151 = DIRECTION('',(0.,0.,-1.));
#152 = DIRECTION('',(1.,1.579E-14,0.));
#153 = ORIENTED_EDGE('',*,*,#90,.F.);
#154 = PLANE('',#155);
#155 = AXIS2_PLACEMENT_3D('',#156,#157,#158);
#156 = CARTESIAN_POINT('',(0.,-120.,13.59));
#157 = DIRECTION('',(0.,0.,1.));
#158 = DIRECTION('',(1.,0.,0.));
#159 = ADVANCED_FACE('',(#160),#176,.T.);
#160 = FACE_BOUND('',#161,.T.);
#161 = EDGE_LOOP('',(#162,#163,#169,#170));
#162 = ORIENTED_EDGE('',*,*,#41,.F.);
#163 = ORIENTED_EDGE('',*,*,#164,.T.);
#164 = EDGE_CURVE('',#42,#131,#165,.T.);
#165 = LINE('',#166,#167);
#166 = CARTESIAN_POINT('',(25.8,-46.55,0.));
#167 = VECTOR('',#168,1.);
#168 = DIRECTION('',(0.,0.,1.));
#169 = ORIENTED_EDGE('',*,*,#130,.T.);
#170 = ORIENTED_EDGE('',*,*,#171,.F.);
#171 = EDGE_CURVE('',#33,#122,#172,.T.);
#172 = LINE('',#173,#174);
#173 = CARTESIAN_POINT('',(25.8,-20.45,0.));
#174 = VECTOR('',#175,1.);
#175 = DIRECTION('',(0.,0.,1.));
#176 = PLANE('',#177);
#177 = AXIS2_PLACEMENT_3D('',#178,#179,#180);
#178 = CARTESIAN_POINT('',(25.8,-46.55,0.));
#179 = DIRECTION('',(-1.,0.,0.));
#180 = DIRECTION('',(0.,1.,0.));
#181 = ADVANCED_FACE('',(#182),#190,.T.);
#182 = FACE_BOUND('',#183,.T.);
#183 = EDGE_LOOP('',(#184,#185,#186,#187,#188,#189));
#184 = ORIENTED_EDGE('',*,*,#171,.T.);
#185 = ORIENTED_EDGE('',*,*,#121,.T.);
#186 = ORIENTED_EDGE('',*,*,#112,.T.);
#187 = ORIENTED_EDGE('',*,*,#82,.F.);
#188 = ORIENTED_EDGE('',*,*,#21,.F.);
#189 = ORIENTED_EDGE('',*,*,#32,.F.);
#190 = CYLINDRICAL_SURFACE('',#191,0.45);
#191 = AXIS2_PLACEMENT_3D('',#192,#193,#194);
#192 = CARTESIAN_POINT('',(26.25,-20.45,0.));
#193 = DIRECTION('',(0.,0.,-1.));
#194 = DIRECTION('',(0.,1.,0.));
#195 = ADVANCED_FACE('',(#196),#204,.T.);
#196 = FACE_BOUND('',#197,.T.);
#197 = EDGE_LOOP('',(#198,#199,#200,#201,#202,#203));
#198 = ORIENTED_EDGE('',*,*,#138,.T.);
#199 = ORIENTED_EDGE('',*,*,#164,.F.);
#200 = ORIENTED_EDGE('',*,*,#49,.F.);
#201 = ORIENTED_EDGE('',*,*,#58,.F.);
#202 = ORIENTED_EDGE('',*,*,#98,.T.);
#203 = ORIENTED_EDGE('',*,*,#147,.T.);
#204 = CYLINDRICAL_SURFACE('',#205,0.45);
#205 = AXIS2_PLACEMENT_3D('',#206,#207,#208);
#206 = CARTESIAN_POINT('',(26.25,-46.55,0.));
#207 = DIRECTION('',(0.,0.,-1.));
#208 = DIRECTION('',(1.,1.579E-14,0.));
#209 = MANIFOLD_SOLID_BREP('',#210);
#210 = CLOSED_SHELL('',(#211,#271,#302,#353,#375,#389));
#211 = ADVANCED_FACE('',(#212),#266,.F.);
#212 = FACE_BOUND('',#213,.F.);
#213 = EDGE_LOOP('',(#214,#225,#234,#242,#251,#260));
#214 = ORIENTED_EDGE('',*,*,#215,.F.);
#215 = EDGE_CURVE('',#216,#218,#220,.T.);
#216 = VERTEX_POINT('',#217);
#217 = CARTESIAN_POINT('',(47.75,-20.,13.19));
#218 = VERTEX_POINT('',#219);
#219 = CARTESIAN_POINT('',(48.2,-20.45,13.19));
#220 = CIRCLE('',#221,0.45);
#221 = AXIS2_PLACEMENT_3D('',#222,#223,#224);
#222 = CARTESIAN_POINT('',(47.75,-20.45,13.19));
#223 = DIRECTION('',(0.,0.,-1.));
#224 = DIRECTION('',(0.,1.,0.));
#225 = ORIENTED_EDGE('',*,*,#226,.F.);
#226 = EDGE_CURVE('',#227,#216,#229,.T.);
#227 = VERTEX_POINT('',#228);
#228 = CARTESIAN_POINT('',(47.3,-20.45,13.19));
#229 = CIRCLE('',#230,0.45);
#230 = AXIS2_PLACEMENT_3D('',#231,#232,#233);
#231 = CARTESIAN_POINT('',(47.75,-20.45,13.19));
#232 = DIRECTION('',(0.,0.,-1.));
#233 = DIRECTION('',(-1.,0.,0.));
#234 = ORIENTED_EDGE('',*,*,#235,.F.);
#235 = EDGE_CURVE('',#236,#227,#238,.T.);
#236 = VERTEX_POINT('',#237);
#237 = CARTESIAN_POINT('',(47.3,-46.55,13.19));
#238 = LINE('',#239,#240);
#239 = CARTESIAN_POINT('',(47.3,-83.275,13.19));
#240 = VECTOR('',#241,1.);
#241 = DIRECTION('',(0.,1.,0.));
#242 = ORIENTED_EDGE('',*,*,#243,.F.);
#243 = EDGE_CURVE('',#244,#236,#246,.T.);
#244 = VERTEX_POINT('',#245);
#245 = CARTESIAN_POINT('',(47.75,-47.,13.19));
#246 = CIRCLE('',#247,0.45);
#247 = AXIS2_PLACEMENT_3D('',#248,#249,#250);
#248 = CARTESIAN_POINT('',(47.75,-46.55,13.19));
#249 = DIRECTION('',(0.,0.,-1.));
#250 = DIRECTION('',(1.579E-14,-1.,0.));
#251 = ORIENTED_EDGE('',*,*,#252,.F.);
#252 = EDGE_CURVE('',#253,#244,#255,.T.);
#253 = VERTEX_POINT('',#254);
#254 = CARTESIAN_POINT('',(48.2,-46.55,13.19));
#255 = CIRCLE('',#256,0.45);
#256 = AXIS2_PLACEMENT_3D('',#257,#258,#259);
#257 = CARTESIAN_POINT('',(47.75,-46.55,13.19));
#258 = DIRECTION('',(0.,0.,-1.));
#259 = DIRECTION('',(1.,1.579E-14,0.));
#260 = ORIENTED_EDGE('',*,*,#261,.F.);
#261 = EDGE_CURVE('',#218,#253,#262,.T.);
#262 = LINE('',#263,#264);
#263 = CARTESIAN_POINT('',(48.2,-70.225,13.19));
#264 = VECTOR('',#265,1.);
#265 = DIRECTION('',(0.,-1.,0.));
#266 = PLANE('',#267);
#267 = AXIS2_PLACEMENT_3D('',#268,#269,#270);
#268 = CARTESIAN_POINT('',(0.,-120.,13.19));
#269 = DIRECTION('',(0.,0.,1.));
#270 = DIRECTION('',(1.,0.,0.));
#271 = ADVANCED_FACE('',(#272),#297,.T.);
#272 = FACE_BOUND('',#273,.T.);
#273 = EDGE_LOOP('',(#274,#275,#283,#291));
#274 = ORIENTED_EDGE('',*,*,#261,.F.);
#275 = ORIENTED_EDGE('',*,*,#276,.T.);
#276 = EDGE_CURVE('',#218,#277,#279,.T.);
#277 = VERTEX_POINT('',#278);
#278 = CARTESIAN_POINT('',(48.2,-20.45,13.59));
#279 = LINE('',#280,#281);
#280 = CARTESIAN_POINT('',(48.2,-20.45,0.));
#281 = VECTOR('',#282,1.);
#282 = DIRECTION('',(0.,0.,1.));
#283 = ORIENTED_EDGE('',*,*,#284,.T.);
#284 = EDGE_CURVE('',#277,#285,#287,.T.);
#285 = VERTEX_POINT('',#286);
#286 = CARTESIAN_POINT('',(48.2,-46.55,13.59));
#287 = LINE('',#288,#289);
#288 = CARTESIAN_POINT('',(48.2,-70.225,13.59));
#289 = VECTOR('',#290,1.);
#290 = DIRECTION('',(0.,-1.,0.));
#291 = ORIENTED_EDGE('',*,*,#292,.F.);
#292 = EDGE_CURVE('',#253,#285,#293,.T.);
#293 = LINE('',#294,#295);
#294 = CARTESIAN_POINT('',(48.2,-46.55,0.));
#295 = VECTOR('',#296,1.);
#296 = DIRECTION('',(0.,0.,1.));
#297 = PLANE('',#298);
#298 = AXIS2_PLACEMENT_3D('',#299,#300,#301);
#299 = CARTESIAN_POINT('',(48.2,-20.45,0.));
#300 = DIRECTION('',(1.,0.,0.));
#301 = DIRECTION('',(0.,-1.,0.));
#302 = ADVANCED_FACE('',(#303),#348,.T.);
#303 = FACE_BOUND('',#304,.T.);
#304 = EDGE_LOOP('',(#305,#314,#323,#331,#340,#347));
#305 = ORIENTED_EDGE('',*,*,#306,.F.);
#306 = EDGE_CURVE('',#307,#277,#309,.T.);
#307 = VERTEX_POINT('',#308);
#308 = CARTESIAN_POINT('',(47.75,-20.,13.59));
#309 = CIRCLE('',#310,0.45);
#310 = AXIS2_PLACEMENT_3D('',#311,#312,#313);
#311 = CARTESIAN_POINT('',(47.75,-20.45,13.59));
#312 = DIRECTION('',(0.,0.,-1.));
#313 = DIRECTION('',(0.,1.,0.));
#314 = ORIENTED_EDGE('',*,*,#315,.F.);
#315 = EDGE_CURVE('',#316,#307,#318,.T.);
#316 = VERTEX_POINT('',#317);
#317 = CARTESIAN_POINT('',(47.3,-20.45,13.59));
#318 = CIRCLE('',#319,0.45);
#319 = AXIS2_PLACEMENT_3D('',#320,#321,#322);
#320 = CARTESIAN_POINT('',(47.75,-20.45,13.59));
#321 = DIRECTION('',(0.,0.,-1.));
#322 = DIRECTION('',(-1.,0.,0.));
#323 = ORIENTED_EDGE('',*,*,#324,.F.);
#324 = EDGE_CURVE('',#325,#316,#327,.T.);
#325 = VERTEX_POINT('',#326);
#326 = CARTESIAN_POINT('',(47.3,-46.55,13.59));
#327 = LINE('',#328,#329);
#328 = CARTESIAN_POINT('',(47.3,-83.275,13.59));
#329 = VECTOR('',#330,1.);
#330 = DIRECTION('',(0.,1.,0.));
#331 = ORIENTED_EDGE('',*,*,#332,.F.);
#332 = EDGE_CURVE('',#333,#325,#335,.T.);
#333 = VERTEX_POINT('',#334);
#334 = CARTESIAN_POINT('',(47.75,-47.,13.59));
#335 = CIRCLE('',#336,0.45);
#336 = AXIS2_PLACEMENT_3D('',#337,#338,#339);
#337 = CARTESIAN_POINT('',(47.75,-46.55,13.59));
#338 = DIRECTION('',(0.,0.,-1.));
#339 = DIRECTION('',(1.579E-14,-1.,0.));
#340 = ORIENTED_EDGE('',*,*,#341,.F.);
#341 = EDGE_CURVE('',#285,#333,#342,.T.);
#342 = CIRCLE('',#343,0.45);
#343 = AXIS2_PLACEMENT_3D('',#344,#345,#346);
#344 = CARTESIAN_POINT('',(47.75,-46.55,13.59));
#345 = DIRECTION('',(0.,0.,-1.));
#346 = DIRECTION('',(1.,1.579E-14,0.));
#347 = ORIENTED_EDGE('',*,*,#284,.F.);
#348 = PLANE('',#349);
#349 = AXIS2_PLACEMENT_3D('',#350,#351,#352);
#350 = CARTESIAN_POINT('',(0.,-120.,13.59));
#351 = DIRECTION('',(0.,0.,1.));
#352 = DIRECTION('',(1.,0.,0.));
#353 = ADVANCED_FACE('',(#354),#370,.T.);
#354 = FACE_BOUND('',#355,.T.);
#355 = EDGE_LOOP('',(#356,#357,#363,#364));
#356 = ORIENTED_EDGE('',*,*,#235,.F.);
#357 = ORIENTED_EDGE('',*,*,#358,.T.);
#358 = EDGE_CURVE('',#236,#325,#359,.T.);
#359 = LINE('',#360,#361);
#360 = CARTESIAN_POINT('',(47.3,-46.55,0.));
#361 = VECTOR('',#362,1.);
#362 = DIRECTION('',(0.,0.,1.));
#363 = ORIENTED_EDGE('',*,*,#324,.T.);
#364 = ORIENTED_EDGE('',*,*,#365,.F.);
#365 = EDGE_CURVE('',#227,#316,#366,.T.);
#366 = LINE('',#367,#368);
#367 = CARTESIAN_POINT('',(47.3,-20.45,0.));
#368 = VECTOR('',#369,1.);
#369 = DIRECTION('',(0.,0.,1.));
#370 = PLANE('',#371);
#371 = AXIS2_PLACEMENT_3D('',#372,#373,#374);
#372 = CARTESIAN_POINT('',(47.3,-46.55,0.));
#373 = DIRECTION('',(-1.,0.,0.));
#374 = DIRECTION('',(0.,1.,0.));
#375 = ADVANCED_FACE('',(#376),#384,.T.);
#376 = FACE_BOUND('',#377,.T.);
#377 = EDGE_LOOP('',(#378,#379,#380,#381,#382,#383));
#378 = ORIENTED_EDGE('',*,*,#365,.T.);
#379 = ORIENTED_EDGE('',*,*,#315,.T.);
#380 = ORIENTED_EDGE('',*,*,#306,.T.);
#381 = ORIENTED_EDGE('',*,*,#276,.F.);
#382 = ORIENTED_EDGE('',*,*,#215,.F.);
#383 = ORIENTED_EDGE('',*,*,#226,.F.);
#384 = CYLINDRICAL_SURFACE('',#385,0.45);
#385 = AXIS2_PLACEMENT_3D('',#386,#387,#388);
#386 = CARTESIAN_POINT('',(47.75,-20.45,0.));
#387 = DIRECTION('',(0.,0.,-1.));
#388 = DIRECTION('',(0.,1.,0.));
#389 = ADVANCED_FACE('',(#390),#398,.T.);
#390 = FACE_BOUND('',#391,.T.);
#391 = EDGE_LOOP('',(#392,#393,#394,#395,#396,#397));
#392 = ORIENTED_EDGE('',*,*,#332,.T.);
#393 = ORIENTED_EDGE('',*,*,#358,.F.);
#394 = ORIENTED_EDGE('',*,*,#243,.F.);
#395 = ORIENTED_EDGE('',*,*,#252,.F.);
#396 = ORIENTED_EDGE('',*,*,#292,.T.);
#397 = ORIENTED_EDGE('',*,*,#341,.T.);
#398 = CYLINDRICAL_SURFACE('',#399,0.45);
#399 = AXIS2_PLACEMENT_3D('',#400,#401,#402);
#400 = CARTESIAN_POINT('',(47.75,-46.55,0.));
#401 = DIRECTION('',(0.,0.,-1.));
#402 = DIRECTION('',(1.,1.579E-14,0.));
#403 = MANIFOLD_SOLID_BREP('',#404);
#404 = CLOSED_SHELL('',(#405,#445,#566,#648,#707,#724,#744));
#405 = ADVANCED_FACE('',(#406),#440,.T.);
#406 = FACE_BOUND('',#407,.T.);
#407 = EDGE_LOOP('',(#408,#418,#426,#434));
#408 = ORIENTED_EDGE('',*,*,#409,.F.);
#409 = EDGE_CURVE('',#410,#412,#414,.T.);
#410 = VERTEX_POINT('',#411);
#411 = CARTESIAN_POINT('',(26.2,-65.8,13.19));
#412 = VERTEX_POINT('',#413);
#413 = CARTESIAN_POINT('',(26.2,-63.8,13.19));
#414 = LINE('',#415,#416);
#415 = CARTESIAN_POINT('',(26.2,-92.9,13.19));
#416 = VECTOR('',#417,1.);
#417 = DIRECTION('',(0.,1.,0.));
#418 = ORIENTED_EDGE('',*,*,#419,.T.);
#419 = EDGE_CURVE('',#410,#420,#422,.T.);
#420 = VERTEX_POINT('',#421);
#421 = CARTESIAN_POINT('',(26.2,-65.8,13.59));
#422 = LINE('',#423,#424);
#423 = CARTESIAN_POINT('',(26.2,-65.8,0.));
#424 = VECTOR('',#425,1.);
#425 = DIRECTION('',(0.,0.,1.));
#426 = ORIENTED_EDGE('',*,*,#427,.T.);
#427 = EDGE_CURVE('',#420,#428,#430,.T.);
#428 = VERTEX_POINT('',#429);
#429 = CARTESIAN_POINT('',(26.2,-63.8,13.59));
#430 = LINE('',#431,#432);
#431 = CARTESIAN_POINT('',(26.2,-92.9,13.59));
#432 = VECTOR('',#433,1.);
#433 = DIRECTION('',(0.,1.,0.));
#434 = ORIENTED_EDGE('',*,*,#435,.F.);
#435 = EDGE_CURVE('',#412,#428,#436,.T.);
#436 = LINE('',#437,#438);
#437 = CARTESIAN_POINT('',(26.2,-63.8,0.));
#438 = VECTOR('',#439,1.);
#439 = DIRECTION('',(0.,0.,1.));
#440 = PLANE('',#441);
#441 = AXIS2_PLACEMENT_3D('',#442,#443,#444);
#442 = CARTESIAN_POINT('',(26.2,-65.8,0.));
#443 = DIRECTION('',(-1.,0.,0.));
#444 = DIRECTION('',(0.,1.,0.));
#445 = ADVANCED_FACE('',(#446),#561,.F.);
#446 = FACE_BOUND('',#447,.F.);
#447 = EDGE_LOOP('',(#448,#449,#457,#465,#500));
#448 = ORIENTED_EDGE('',*,*,#409,.F.);
#449 = ORIENTED_EDGE('',*,*,#450,.F.);
#450 = EDGE_CURVE('',#451,#410,#453,.T.);
#451 = VERTEX_POINT('',#452);
#452 = CARTESIAN_POINT('',(47.8,-65.8,13.19));
#453 = LINE('',#454,#455);
#454 = CARTESIAN_POINT('',(23.9,-65.8,13.19));
#455 = VECTOR('',#456,1.);
#456 = DIRECTION('',(-1.,0.,0.));
#457 = ORIENTED_EDGE('',*,*,#458,.F.);
#458 = EDGE_CURVE('',#459,#451,#461,.T.);
#459 = VERTEX_POINT('',#460);
#460 = CARTESIAN_POINT('',(47.8,-64.35,13.19));
#461 = LINE('',#462,#463);
#462 = CARTESIAN_POINT('',(47.8,-92.175,13.19));
#463 = VECTOR('',#464,1.);
#464 = DIRECTION('',(0.,-1.,0.));
#465 = ORIENTED_EDGE('',*,*,#466,.T.);
#466 = EDGE_CURVE('',#459,#467,#469,.T.);
#467 = VERTEX_POINT('',#468);
#468 = CARTESIAN_POINT('',(40.,-64.3,13.19));
#469 = B_SPLINE_CURVE_WITH_KNOTS('',8,(#470,#471,#472,#473,#474,#475,
    #476,#477,#478,#479,#480,#481,#482,#483,#484,#485,#486,#487,#488,
    #489,#490,#491,#492,#493,#494,#495,#496,#497,#498,#499),
  .UNSPECIFIED.,.F.,.F.,(9,7,7,7,9),(0.,0.28425291759,0.478358624137,
    0.707910713621,1.),.UNSPECIFIED.);
#470 = CARTESIAN_POINT('',(47.8,-64.35,13.19));
#471 = CARTESIAN_POINT('',(47.532519233627,-64.2664122605,13.19));
#472 = CARTESIAN_POINT('',(47.263752875101,-64.18733195324,13.19));
#473 = CARTESIAN_POINT('',(46.99353517174,-64.11372769566,13.19));
#474 = CARTESIAN_POINT('',(46.721738735323,-64.04669835974,13.19));
#475 = CARTESIAN_POINT('',(46.448284940677,-63.98741360359,13.19));
#476 = CARTESIAN_POINT('',(46.173174595719,-63.9369157684,13.19));
#477 = CARTESIAN_POINT('',(45.896593140092,-63.89572829562,13.19));
#478 = CARTESIAN_POINT('',(45.429309424419,-63.84214283114,13.19));
#479 = CARTESIAN_POINT('',(45.23917690461,-63.82475555986,13.19));
#480 = CARTESIAN_POINT('',(45.048639968137,-63.81173578153,13.19));
#481 = CARTESIAN_POINT('',(44.857804001248,-63.80298044937,13.19));
#482 = CARTESIAN_POINT('',(44.666765548338,-63.79828164671,13.19));
#483 = CARTESIAN_POINT('',(44.475611883445,-63.7973635459,13.19));
#484 = CARTESIAN_POINT('',(44.284419380579,-63.79992306351,13.19));
#485 = CARTESIAN_POINT('',(43.867174801421,-63.81242336182,13.19));
#486 = CARTESIAN_POINT('',(43.641128030255,-63.82362740393,13.19));
#487 = CARTESIAN_POINT('',(43.415172272184,-63.83874965304,13.19));
#488 = CARTESIAN_POINT('',(43.18934991808,-63.85727676871,13.19));
#489 = CARTESIAN_POINT('',(42.963686417482,-63.87873526861,13.19));
#490 = CARTESIAN_POINT('',(42.738190499248,-63.90271299709,13.19));
#491 = CARTESIAN_POINT('',(42.512853352961,-63.92886161536,13.19));
#492 = CARTESIAN_POINT('',(42.001086845065,-63.99253173005,13.19));
#493 = CARTESIAN_POINT('',(41.71476687435,-64.03120827356,13.19));
#494 = CARTESIAN_POINT('',(41.428645233246,-64.07229036005,13.19));
#495 = CARTESIAN_POINT('',(41.142690489126,-64.11529317931,13.19));
#496 = CARTESIAN_POINT('',(40.856876022413,-64.15983668209,13.19));
#497 = CARTESIAN_POINT('',(40.571175814183,-64.205620905,13.19));
#498 = CARTESIAN_POINT('',(40.285561401436,-64.25240643309,13.19));
#499 = CARTESIAN_POINT('',(40.,-64.3,13.19));
#500 = ORIENTED_EDGE('',*,*,#501,.T.);
#501 = EDGE_CURVE('',#467,#412,#502,.T.);
#502 = B_SPLINE_CURVE_WITH_KNOTS('',8,(#503,#504,#505,#506,#507,#508,
    #509,#510,#511,#512,#513,#514,#515,#516,#517,#518,#519,#520,#521,
    #522,#523,#524,#525,#526,#527,#528,#529,#530,#531,#532,#533,#534,
    #535,#536,#537,#538,#539,#540,#541,#542,#543,#544,#545,#546,#547,
    #548,#549,#550,#551,#552,#553,#554,#555,#556,#557,#558,#559,#560),
  .UNSPECIFIED.,.F.,.F.,(9,7,7,7,7,7,7,7,9),(0.,6.341096436717E-02,
    0.345163470705,0.398817080555,0.431592966484,0.487412274422,
    0.654415821767,0.788221339776,1.),.UNSPECIFIED.);
#503 = CARTESIAN_POINT('',(40.,-64.3,13.19));
#504 = CARTESIAN_POINT('',(39.890757274596,-64.31747883606,13.19));
#505 = CARTESIAN_POINT('',(39.781324686821,-64.33374637088,13.19));
#506 = CARTESIAN_POINT('',(39.67171650889,-64.34878899339,13.19));
#507 = CARTESIAN_POINT('',(39.561947520487,-64.36259506359,13.19));
#508 = CARTESIAN_POINT('',(39.452033037032,-64.37515515525,13.19));
#509 = CARTESIAN_POINT('',(39.341988937937,-64.38646229861,13.19));
#510 = CARTESIAN_POINT('',(39.231831694866,-64.39651222309,13.19));
#511 = CARTESIAN_POINT('',(38.631692424119,-64.44436612653,13.19));
#512 = CARTESIAN_POINT('',(38.13960628075,-64.45860578318,13.19));
#513 = CARTESIAN_POINT('',(37.64736079741,-64.44780802014,13.19));
#514 = CARTESIAN_POINT('',(37.156420796214,-64.41312710646,13.19));
#515 = CARTESIAN_POINT('',(36.667682693402,-64.35712361422,13.19));
#516 = CARTESIAN_POINT('',(36.181498745202,-64.28366925593,13.19));
#517 = CARTESIAN_POINT('',(35.697747277649,-64.19733844716,13.19));
#518 = CARTESIAN_POINT('',(35.124121648301,-64.08493750581,13.19));
#519 = CARTESIAN_POINT('',(35.032419294845,-64.06666172206,13.19));
#520 = CARTESIAN_POINT('',(34.940769721831,-64.04812329486,13.19));
#521 = CARTESIAN_POINT('',(34.849167076467,-64.02935513563,13.19));
#522 = CARTESIAN_POINT('',(34.757605176666,-64.01039026764,13.19));
#523 = CARTESIAN_POINT('',(34.66607751105,-63.99126182601,13.19));
#524 = CARTESIAN_POINT('',(34.57457723895,-63.97200305772,13.19));
#525 = CARTESIAN_POINT('',(34.427213911634,-63.94082330079,13.19));
#526 = CARTESIAN_POINT('',(34.371338236238,-63.92896306096,13.19));
#527 = CARTESIAN_POINT('',(34.315468558207,-63.91707418159,13.19));
#528 = CARTESIAN_POINT('',(34.259603267259,-63.90516422335,13.19));
#529 = CARTESIAN_POINT('',(34.203740748843,-63.89324072809,13.19));
#530 = CARTESIAN_POINT('',(34.147879384137,-63.88131121888,13.19));
#531 = CARTESIAN_POINT('',(34.092017550045,-63.86938319996,13.19));
#532 = CARTESIAN_POINT('',(33.941013980101,-63.83716530836,13.19));
#533 = CARTESIAN_POINT('',(33.845868445912,-63.81689240378,13.19));
#534 = CARTESIAN_POINT('',(33.750708840746,-63.79668251944,13.19));
#535 = CARTESIAN_POINT('',(33.655527303734,-63.77657230664,13.19));
#536 = CARTESIAN_POINT('',(33.560316289018,-63.75659799162,13.19));
#537 = CARTESIAN_POINT('',(33.465068565756,-63.73679537559,13.19));
#538 = CARTESIAN_POINT('',(33.369777218121,-63.71719983468,13.19));
#539 = CARTESIAN_POINT('',(32.989187019708,-63.63994331589,13.19));
#540 = CARTESIAN_POINT('',(32.703492455749,-63.58420668997,13.19));
#541 = CARTESIAN_POINT('',(32.417171810543,-63.53156556678,13.19));
#542 = CARTESIAN_POINT('',(32.130101038314,-63.48290680988,13.19));
#543 = CARTESIAN_POINT('',(31.84221671603,-63.43904722018,13.19));
#544 = CARTESIAN_POINT('',(31.553519908393,-63.40071032226,13.19));
#545 = CARTESIAN_POINT('',(31.264079372191,-63.36850773832,13.19));
#546 = CARTESIAN_POINT('',(30.741645875269,-63.3224280316,13.19));
#547 = CARTESIAN_POINT('',(30.508860042748,-63.30617977829,13.19));
#548 = CARTESIAN_POINT('',(30.275758828305,-63.2944321609,13.19));
#549 = CARTESIAN_POINT('',(30.04243556791,-63.28738248425,13.19));
#550 = CARTESIAN_POINT('',(29.808994809211,-63.28517309805,13.19));
#551 = CARTESIAN_POINT('',(29.575552338146,-63.28789269838,13.19));
#552 = CARTESIAN_POINT('',(29.342235130568,-63.29557942,13.19));
#553 = CARTESIAN_POINT('',(28.740318690273,-63.32824145839,13.19));
#554 = CARTESIAN_POINT('',(28.372066292389,-63.3606835505,13.19));
#555 = CARTESIAN_POINT('',(28.004968211613,-63.40552864907,13.19));
#556 = CARTESIAN_POINT('',(27.639473984441,-63.46246963139,13.19));
#557 = CARTESIAN_POINT('',(27.275954329382,-63.5310128589,13.19));
#558 = CARTESIAN_POINT('',(26.914713398424,-63.61055528191,13.19));
#559 = CARTESIAN_POINT('',(26.555997458075,-63.70044138884,13.19));
#560 = CARTESIAN_POINT('',(26.2,-63.8,13.19));
#561 = PLANE('',#562);
#562 = AXIS2_PLACEMENT_3D('',#563,#564,#565);
#563 = CARTESIAN_POINT('',(0.,-120.,13.19));
#564 = DIRECTION('',(0.,0.,1.));
#565 = DIRECTION('',(1.,0.,0.));
#566 = ADVANCED_FACE('',(#567),#640,.T.);
#567 = FACE_BOUND('',#568,.T.);
#568 = EDGE_LOOP('',(#569,#570,#571,#634));
#569 = ORIENTED_EDGE('',*,*,#501,.T.);
#570 = ORIENTED_EDGE('',*,*,#435,.T.);
#571 = ORIENTED_EDGE('',*,*,#572,.F.);
#572 = EDGE_CURVE('',#573,#428,#575,.T.);
#573 = VERTEX_POINT('',#574);
#574 = CARTESIAN_POINT('',(40.,-64.3,13.59));
#575 = B_SPLINE_CURVE_WITH_KNOTS('',8,(#576,#577,#578,#579,#580,#581,
    #582,#583,#584,#585,#586,#587,#588,#589,#590,#591,#592,#593,#594,
    #595,#596,#597,#598,#599,#600,#601,#602,#603,#604,#605,#606,#607,
    #608,#609,#610,#611,#612,#613,#614,#615,#616,#617,#618,#619,#620,
    #621,#622,#623,#624,#625,#626,#627,#628,#629,#630,#631,#632,#633),
  .UNSPECIFIED.,.F.,.F.,(9,7,7,7,7,7,7,7,9),(0.,6.341096436717E-02,
    0.345163470705,0.398817080555,0.431592966484,0.487412274422,
    0.654415821767,0.788221339776,1.),.UNSPECIFIED.);
#576 = CARTESIAN_POINT('',(40.,-64.3,13.59));
#577 = CARTESIAN_POINT('',(39.890757274596,-64.31747883606,13.59));
#578 = CARTESIAN_POINT('',(39.781324686821,-64.33374637088,13.59));
#579 = CARTESIAN_POINT('',(39.67171650889,-64.34878899339,13.59));
#580 = CARTESIAN_POINT('',(39.561947520487,-64.36259506359,13.59));
#581 = CARTESIAN_POINT('',(39.452033037032,-64.37515515525,13.59));
#582 = CARTESIAN_POINT('',(39.341988937937,-64.38646229861,13.59));
#583 = CARTESIAN_POINT('',(39.231831694866,-64.39651222309,13.59));
#584 = CARTESIAN_POINT('',(38.631692424119,-64.44436612653,13.59));
#585 = CARTESIAN_POINT('',(38.13960628075,-64.45860578318,13.59));
#586 = CARTESIAN_POINT('',(37.64736079741,-64.44780802014,13.59));
#587 = CARTESIAN_POINT('',(37.156420796214,-64.41312710646,13.59));
#588 = CARTESIAN_POINT('',(36.667682693402,-64.35712361422,13.59));
#589 = CARTESIAN_POINT('',(36.181498745202,-64.28366925593,13.59));
#590 = CARTESIAN_POINT('',(35.697747277649,-64.19733844716,13.59));
#591 = CARTESIAN_POINT('',(35.124121648301,-64.08493750581,13.59));
#592 = CARTESIAN_POINT('',(35.032419294845,-64.06666172206,13.59));
#593 = CARTESIAN_POINT('',(34.940769721831,-64.04812329486,13.59));
#594 = CARTESIAN_POINT('',(34.849167076467,-64.02935513563,13.59));
#595 = CARTESIAN_POINT('',(34.757605176666,-64.01039026764,13.59));
#596 = CARTESIAN_POINT('',(34.66607751105,-63.99126182601,13.59));
#597 = CARTESIAN_POINT('',(34.57457723895,-63.97200305772,13.59));
#598 = CARTESIAN_POINT('',(34.427213911634,-63.94082330079,13.59));
#599 = CARTESIAN_POINT('',(34.371338236238,-63.92896306096,13.59));
#600 = CARTESIAN_POINT('',(34.315468558207,-63.91707418159,13.59));
#601 = CARTESIAN_POINT('',(34.259603267259,-63.90516422335,13.59));
#602 = CARTESIAN_POINT('',(34.203740748843,-63.89324072809,13.59));
#603 = CARTESIAN_POINT('',(34.147879384137,-63.88131121888,13.59));
#604 = CARTESIAN_POINT('',(34.092017550045,-63.86938319996,13.59));
#605 = CARTESIAN_POINT('',(33.941013980101,-63.83716530836,13.59));
#606 = CARTESIAN_POINT('',(33.845868445912,-63.81689240378,13.59));
#607 = CARTESIAN_POINT('',(33.750708840746,-63.79668251944,13.59));
#608 = CARTESIAN_POINT('',(33.655527303734,-63.77657230664,13.59));
#609 = CARTESIAN_POINT('',(33.560316289018,-63.75659799162,13.59));
#610 = CARTESIAN_POINT('',(33.465068565756,-63.73679537559,13.59));
#611 = CARTESIAN_POINT('',(33.369777218121,-63.71719983468,13.59));
#612 = CARTESIAN_POINT('',(32.989187019708,-63.63994331589,13.59));
#613 = CARTESIAN_POINT('',(32.703492455749,-63.58420668997,13.59));
#614 = CARTESIAN_POINT('',(32.417171810543,-63.53156556678,13.59));
#615 = CARTESIAN_POINT('',(32.130101038314,-63.48290680988,13.59));
#616 = CARTESIAN_POINT('',(31.84221671603,-63.43904722018,13.59));
#617 = CARTESIAN_POINT('',(31.553519908393,-63.40071032226,13.59));
#618 = CARTESIAN_POINT('',(31.264079372191,-63.36850773832,13.59));
#619 = CARTESIAN_POINT('',(30.741645875269,-63.3224280316,13.59));
#620 = CARTESIAN_POINT('',(30.508860042748,-63.30617977829,13.59));
#621 = CARTESIAN_POINT('',(30.275758828305,-63.2944321609,13.59));
#622 = CARTESIAN_POINT('',(30.04243556791,-63.28738248425,13.59));
#623 = CARTESIAN_POINT('',(29.808994809211,-63.28517309805,13.59));
#624 = CARTESIAN_POINT('',(29.575552338146,-63.28789269838,13.59));
#625 = CARTESIAN_POINT('',(29.342235130568,-63.29557942,13.59));
#626 = CARTESIAN_POINT('',(28.740318690273,-63.32824145839,13.59));
#627 = CARTESIAN_POINT('',(28.372066292389,-63.3606835505,13.59));
#628 = CARTESIAN_POINT('',(28.004968211613,-63.40552864907,13.59));
#629 = CARTESIAN_POINT('',(27.639473984441,-63.46246963139,13.59));
#630 = CARTESIAN_POINT('',(27.275954329382,-63.5310128589,13.59));
#631 = CARTESIAN_POINT('',(26.914713398424,-63.61055528191,13.59));
#632 = CARTESIAN_POINT('',(26.555997458075,-63.70044138884,13.59));
#633 = CARTESIAN_POINT('',(26.2,-63.8,13.59));
#634 = ORIENTED_EDGE('',*,*,#635,.F.);
#635 = EDGE_CURVE('',#467,#573,#636,.T.);
#636 = LINE('',#637,#638);
#637 = CARTESIAN_POINT('',(40.,-64.3,0.));
#638 = VECTOR('',#639,1.);
#639 = DIRECTION('',(0.,0.,1.));
#640 = SURFACE_OF_LINEAR_EXTRUSION('',#641,#646);
#641 = B_SPLINE_CURVE_WITH_KNOTS('',3,(#642,#643,#644,#645),
  .UNSPECIFIED.,.F.,.F.,(4,4),(0.,1.),.PIECEWISE_BEZIER_KNOTS.);
#642 = CARTESIAN_POINT('',(26.2,-63.8,0.));
#643 = CARTESIAN_POINT('',(32.1,-62.15,0.));
#644 = CARTESIAN_POINT('',(35.,-65.1,0.));
#645 = CARTESIAN_POINT('',(40.,-64.3,0.));
#646 = VECTOR('',#647,1.);
#647 = DIRECTION('',(-0.,-0.,-1.));
#648 = ADVANCED_FACE('',(#649),#702,.T.);
#649 = FACE_BOUND('',#650,.T.);
#650 = EDGE_LOOP('',(#651,#652,#660,#668,#701));
#651 = ORIENTED_EDGE('',*,*,#427,.F.);
#652 = ORIENTED_EDGE('',*,*,#653,.F.);
#653 = EDGE_CURVE('',#654,#420,#656,.T.);
#654 = VERTEX_POINT('',#655);
#655 = CARTESIAN_POINT('',(47.8,-65.8,13.59));
#656 = LINE('',#657,#658);
#657 = CARTESIAN_POINT('',(23.9,-65.8,13.59));
#658 = VECTOR('',#659,1.);
#659 = DIRECTION('',(-1.,0.,0.));
#660 = ORIENTED_EDGE('',*,*,#661,.F.);
#661 = EDGE_CURVE('',#662,#654,#664,.T.);
#662 = VERTEX_POINT('',#663);
#663 = CARTESIAN_POINT('',(47.8,-64.35,13.59));
#664 = LINE('',#665,#666);
#665 = CARTESIAN_POINT('',(47.8,-92.175,13.59));
#666 = VECTOR('',#667,1.);
#667 = DIRECTION('',(0.,-1.,0.));
#668 = ORIENTED_EDGE('',*,*,#669,.T.);
#669 = EDGE_CURVE('',#662,#573,#670,.T.);
#670 = B_SPLINE_CURVE_WITH_KNOTS('',8,(#671,#672,#673,#674,#675,#676,
    #677,#678,#679,#680,#681,#682,#683,#684,#685,#686,#687,#688,#689,
    #690,#691,#692,#693,#694,#695,#696,#697,#698,#699,#700),
  .UNSPECIFIED.,.F.,.F.,(9,7,7,7,9),(0.,0.28425291759,0.478358624137,
    0.707910713621,1.),.UNSPECIFIED.);
#671 = CARTESIAN_POINT('',(47.8,-64.35,13.59));
#672 = CARTESIAN_POINT('',(47.532519233627,-64.2664122605,13.59));
#673 = CARTESIAN_POINT('',(47.263752875101,-64.18733195324,13.59));
#674 = CARTESIAN_POINT('',(46.99353517174,-64.11372769566,13.59));
#675 = CARTESIAN_POINT('',(46.721738735323,-64.04669835974,13.59));
#676 = CARTESIAN_POINT('',(46.448284940677,-63.98741360359,13.59));
#677 = CARTESIAN_POINT('',(46.173174595719,-63.9369157684,13.59));
#678 = CARTESIAN_POINT('',(45.896593140092,-63.89572829562,13.59));
#679 = CARTESIAN_POINT('',(45.429309424419,-63.84214283114,13.59));
#680 = CARTESIAN_POINT('',(45.23917690461,-63.82475555986,13.59));
#681 = CARTESIAN_POINT('',(45.048639968137,-63.81173578153,13.59));
#682 = CARTESIAN_POINT('',(44.857804001248,-63.80298044937,13.59));
#683 = CARTESIAN_POINT('',(44.666765548338,-63.79828164671,13.59));
#684 = CARTESIAN_POINT('',(44.475611883445,-63.7973635459,13.59));
#685 = CARTESIAN_POINT('',(44.284419380579,-63.79992306351,13.59));
#686 = CARTESIAN_POINT('',(43.867174801421,-63.81242336182,13.59));
#687 = CARTESIAN_POINT('',(43.641128030255,-63.82362740393,13.59));
#688 = CARTESIAN_POINT('',(43.415172272184,-63.83874965304,13.59));
#689 = CARTESIAN_POINT('',(43.18934991808,-63.85727676871,13.59));
#690 = CARTESIAN_POINT('',(42.963686417482,-63.87873526861,13.59));
#691 = CARTESIAN_POINT('',(42.738190499248,-63.90271299709,13.59));
#692 = CARTESIAN_POINT('',(42.512853352961,-63.92886161536,13.59));
#693 = CARTESIAN_POINT('',(42.001086845065,-63.99253173005,13.59));
#694 = CARTESIAN_POINT('',(41.71476687435,-64.03120827356,13.59));
#695 = CARTESIAN_POINT('',(41.428645233246,-64.07229036005,13.59));
#696 = CARTESIAN_POINT('',(41.142690489126,-64.11529317931,13.59));
#697 = CARTESIAN_POINT('',(40.856876022413,-64.15983668209,13.59));
#698 = CARTESIAN_POINT('',(40.571175814183,-64.205620905,13.59));
#699 = CARTESIAN_POINT('',(40.285561401436,-64.25240643309,13.59));
#700 = CARTESIAN_POINT('',(40.,-64.3,13.59));
#701 = ORIENTED_EDGE('',*,*,#572,.T.);
#702 = PLANE('',#703);
#703 = AXIS2_PLACEMENT_3D('',#704,#705,#706);
#704 = CARTESIAN_POINT('',(0.,-120.,13.59));
#705 = DIRECTION('',(0.,0.,1.));
#706 = DIRECTION('',(1.,0.,0.));
#707 = ADVANCED_FACE('',(#708),#719,.T.);
#708 = FACE_BOUND('',#709,.T.);
#709 = EDGE_LOOP('',(#710,#711,#717,#718));
#710 = ORIENTED_EDGE('',*,*,#450,.F.);
#711 = ORIENTED_EDGE('',*,*,#712,.T.);
#712 = EDGE_CURVE('',#451,#654,#713,.T.);
#713 = LINE('',#714,#715);
#714 = CARTESIAN_POINT('',(47.8,-65.8,0.));
#715 = VECTOR('',#716,1.);
#716 = DIRECTION('',(0.,0.,1.));
#717 = ORIENTED_EDGE('',*,*,#653,.T.);
#718 = ORIENTED_EDGE('',*,*,#419,.F.);
#719 = PLANE('',#720);
#720 = AXIS2_PLACEMENT_3D('',#721,#722,#723);
#721 = CARTESIAN_POINT('',(47.8,-65.8,0.));
#722 = DIRECTION('',(0.,-1.,0.));
#723 = DIRECTION('',(-1.,0.,0.));
#724 = ADVANCED_FACE('',(#725),#736,.T.);
#725 = FACE_BOUND('',#726,.T.);
#726 = EDGE_LOOP('',(#727,#728,#729,#730));
#727 = ORIENTED_EDGE('',*,*,#466,.T.);
#728 = ORIENTED_EDGE('',*,*,#635,.T.);
#729 = ORIENTED_EDGE('',*,*,#669,.F.);
#730 = ORIENTED_EDGE('',*,*,#731,.F.);
#731 = EDGE_CURVE('',#459,#662,#732,.T.);
#732 = LINE('',#733,#734);
#733 = CARTESIAN_POINT('',(47.8,-64.35,0.));
#734 = VECTOR('',#735,1.);
#735 = DIRECTION('',(0.,0.,1.));
#736 = SURFACE_OF_LINEAR_EXTRUSION('',#737,#742);
#737 = B_SPLINE_CURVE_WITH_KNOTS('',3,(#738,#739,#740,#741),
  .UNSPECIFIED.,.F.,.F.,(4,4),(0.,1.),.PIECEWISE_BEZIER_KNOTS.);
#738 = CARTESIAN_POINT('',(40.,-64.3,0.));
#739 = CARTESIAN_POINT('',(43.9,-63.65,0.));
#740 = CARTESIAN_POINT('',(45.4,-63.6,0.));
#741 = CARTESIAN_POINT('',(47.8,-64.35,0.));
#742 = VECTOR('',#743,1.);
#743 = DIRECTION('',(-0.,-0.,-1.));
#744 = ADVANCED_FACE('',(#745),#751,.T.);
#745 = FACE_BOUND('',#746,.T.);
#746 = EDGE_LOOP('',(#747,#748,#749,#750));
#747 = ORIENTED_EDGE('',*,*,#458,.F.);
#748 = ORIENTED_EDGE('',*,*,#731,.T.);
#749 = ORIENTED_EDGE('',*,*,#661,.T.);
#750 = ORIENTED_EDGE('',*,*,#712,.F.);
#751 = PLANE('',#752);
#752 = AXIS2_PLACEMENT_3D('',#753,#754,#755);
#753 = CARTESIAN_POINT('',(47.8,-64.35,0.));
#754 = DIRECTION('',(1.,0.,0.));
#755 = DIRECTION('',(0.,-1.,0.));
#756 = ( GEOMETRIC_REPRESENTATION_CONTEXT(3) 
GLOBAL_UNCERTAINTY_ASSIGNED_CONTEXT((#760)) GLOBAL_UNIT_ASSIGNED_CONTEXT
((#757,#758,#759)) REPRESENTATION_CONTEXT('Context #1',
  '3D Context with UNIT and UNCERTAINTY') );
#757 = ( LENGTH_UNIT() NAMED_UNIT(*) SI_UNIT(.MILLI.,.METRE.) );
#758 = ( NAMED_UNIT(*) PLANE_ANGLE_UNIT() SI_UNIT($,.RADIAN.) );
#759 = ( NAMED_UNIT(*) SI_UNIT($,.STERADIAN.) SOLID_ANGLE_UNIT() );
#760 = UNCERTAINTY_MEASURE_WITH_UNIT(LENGTH_MEASURE(5.E-05),#757,
  'distance_accuracy_value','confusion accuracy');
#761 = PRODUCT_RELATED_PRODUCT_CATEGORY('part',$,(#7));
ENDSEC;
END-ISO-10303-21;
