ISO-10303-21;
HEADER;
FILE_DESCRIPTION(('FreeCAD Model'),'2;1');
FILE_NAME('Open CASCADE Shape Model','2026-09-28T16:00:38',('FreeCAD'),(
    'FreeCAD'),'Open CASCADE STEP processor 7.8','FreeCAD','Unknown');
FILE_SCHEMA(('AUTOMOTIVE_DESIGN { 1 0 10303 214 1 1 1 1 }'));
ENDSEC;
DATA;
#1 = APPLICATION_PROTOCOL_DEFINITION('international standard',
  'automotive_design',2000,#2);
#2 = APPLICATION_CONTEXT(
  'core data for automotive mechanical design processes');
#3 = SHAPE_DEFINITION_REPRESENTATION(#4,#10);
#4 = PRODUCT_DEFINITION_SHAPE('','',#5);
#5 = PRODUCT_DEFINITION('design','',#6,#9);
#6 = PRODUCT_DEFINITION_FORMATION('','',#7);
#7 = PRODUCT('Open CASCADE STEP translator 7.8 89',
  'Open CASCADE STEP translator 7.8 89','',(#8));
#8 = PRODUCT_CONTEXT('',#2,'mechanical');
#9 = PRODUCT_DEFINITION_CONTEXT('part definition',#2,'design');
#10 = ADVANCED_BREP_SHAPE_REPRESENTATION('',(#11,#15),#235);
#11 = AXIS2_PLACEMENT_3D('',#12,#13,#14);
#12 = CARTESIAN_POINT('',(0.,0.,0.));
#13 = DIRECTION('',(0.,0.,1.));
#14 = DIRECTION('',(1.,0.,-0.));
#15 = MANIFOLD_SOLID_BREP('',#16);
#16 = CLOSED_SHELL('',(#17,#57,#106,#131,#172,#189,#206,#223));
#17 = ADVANCED_FACE('',(#18),#52,.F.);
#18 = FACE_BOUND('',#19,.F.);
#19 = EDGE_LOOP('',(#20,#30,#38,#46));
#20 = ORIENTED_EDGE('',*,*,#21,.F.);
#21 = EDGE_CURVE('',#22,#24,#26,.T.);
#22 = VERTEX_POINT('',#23);
#23 = CARTESIAN_POINT('',(44.,-62.,12.99));
#24 = VERTEX_POINT('',#25);
#25 = CARTESIAN_POINT('',(42.148041721721,-55.51814602602,12.99));
#26 = LINE('',#27,#28);
#27 = CARTESIAN_POINT('',(44.,-62.,12.99));
#28 = VECTOR('',#29,1.);
#29 = DIRECTION('',(-0.274721127897,0.961523947641,0.));
#30 = ORIENTED_EDGE('',*,*,#31,.T.);
#31 = EDGE_CURVE('',#22,#32,#34,.T.);
#32 = VERTEX_POINT('',#33);
#33 = CARTESIAN_POINT('',(44.,-62.,13.39));
#34 = LINE('',#35,#36);
#35 = CARTESIAN_POINT('',(44.,-62.,12.99));
#36 = VECTOR('',#37,1.);
#37 = DIRECTION('',(0.,0.,1.));
#38 = ORIENTED_EDGE('',*,*,#39,.T.);
#39 = EDGE_CURVE('',#32,#40,#42,.T.);
#40 = VERTEX_POINT('',#41);
#41 = CARTESIAN_POINT('',(42.148041721721,-55.51814602602,13.39));
#42 = LINE('',#43,#44);
#43 = CARTESIAN_POINT('',(44.,-62.,13.39));
#44 = VECTOR('',#45,1.);
#45 = DIRECTION('',(-0.274721127897,0.961523947641,0.));
#46 = ORIENTED_EDGE('',*,*,#47,.T.);
#47 = EDGE_CURVE('',#40,#24,#48,.T.);
#48 = LINE('',#49,#50);
#49 = CARTESIAN_POINT('',(42.148041721721,-55.51814602602,12.99));
#50 = VECTOR('',#51,1.);
#51 = DIRECTION('',(-0.,-0.,-1.));
#52 = PLANE('',#53);
#53 = AXIS2_PLACEMENT_3D('',#54,#55,#56);
#54 = CARTESIAN_POINT('',(44.,-62.,12.99));
#55 = DIRECTION('',(-0.961523947641,-0.274721127897,0.));
#56 = DIRECTION('',(-0.274721127897,0.961523947641,0.));
#57 = ADVANCED_FACE('',(#58),#101,.F.);
#58 = FACE_BOUND('',#59,.F.);
#59 = EDGE_LOOP('',(#60,#61,#70,#78,#87,#95));
#60 = ORIENTED_EDGE('',*,*,#21,.T.);
#61 = ORIENTED_EDGE('',*,*,#62,.F.);
#62 = EDGE_CURVE('',#63,#24,#65,.T.);
#63 = VERTEX_POINT('',#64);
#64 = CARTESIAN_POINT('',(41.2,-56.2,12.99));
#65 = CIRCLE('',#66,1.);
#66 = AXIS2_PLACEMENT_3D('',#67,#68,#69);
#67 = CARTESIAN_POINT('',(41.2,-55.2,12.99));
#68 = DIRECTION('',(0.,0.,1.));
#69 = DIRECTION('',(-7.11E-15,-1.,0.));
#70 = ORIENTED_EDGE('',*,*,#71,.F.);
#71 = EDGE_CURVE('',#72,#63,#74,.T.);
#72 = VERTEX_POINT('',#73);
#73 = CARTESIAN_POINT('',(32.8,-56.2,12.99));
#74 = LINE('',#75,#76);
#75 = CARTESIAN_POINT('',(32.8,-56.2,12.99));
#76 = VECTOR('',#77,1.);
#77 = DIRECTION('',(1.,0.,0.));
#78 = ORIENTED_EDGE('',*,*,#79,.F.);
#79 = EDGE_CURVE('',#80,#72,#82,.T.);
#80 = VERTEX_POINT('',#81);
#81 = CARTESIAN_POINT('',(31.851958278279,-55.51814602602,12.99));
#82 = CIRCLE('',#83,1.);
#83 = AXIS2_PLACEMENT_3D('',#84,#85,#86);
#84 = CARTESIAN_POINT('',(32.8,-55.2,12.99));
#85 = DIRECTION('',(0.,0.,1.));
#86 = DIRECTION('',(-1.,1.421E-14,0.));
#87 = ORIENTED_EDGE('',*,*,#88,.T.);
#88 = EDGE_CURVE('',#80,#89,#91,.T.);
#89 = VERTEX_POINT('',#90);
#90 = CARTESIAN_POINT('',(30.,-62.,12.99));
#91 = LINE('',#92,#93);
#92 = CARTESIAN_POINT('',(32.,-55.,12.99));
#93 = VECTOR('',#94,1.);
#94 = DIRECTION('',(-0.274721127897,-0.961523947641,0.));
#95 = ORIENTED_EDGE('',*,*,#96,.T.);
#96 = EDGE_CURVE('',#89,#22,#97,.T.);
#97 = LINE('',#98,#99);
#98 = CARTESIAN_POINT('',(30.,-62.,12.99));
#99 = VECTOR('',#100,1.);
#100 = DIRECTION('',(1.,0.,0.));
#101 = PLANE('',#102);
#102 = AXIS2_PLACEMENT_3D('',#103,#104,#105);
#103 = CARTESIAN_POINT('',(37.,-58.86306847005,12.99));
#104 = DIRECTION('',(0.,0.,1.));
#105 = DIRECTION('',(1.,0.,0.));
#106 = ADVANCED_FACE('',(#107),#126,.F.);
#107 = FACE_BOUND('',#108,.T.);
#108 = EDGE_LOOP('',(#109,#110,#118,#125));
#109 = ORIENTED_EDGE('',*,*,#62,.F.);
#110 = ORIENTED_EDGE('',*,*,#111,.T.);
#111 = EDGE_CURVE('',#63,#112,#114,.T.);
#112 = VERTEX_POINT('',#113);
#113 = CARTESIAN_POINT('',(41.2,-56.2,13.39));
#114 = LINE('',#115,#116);
#115 = CARTESIAN_POINT('',(41.2,-56.2,12.99));
#116 = VECTOR('',#117,1.);
#117 = DIRECTION('',(0.,0.,1.));
#118 = ORIENTED_EDGE('',*,*,#119,.T.);
#119 = EDGE_CURVE('',#112,#40,#120,.T.);
#120 = CIRCLE('',#121,1.);
#121 = AXIS2_PLACEMENT_3D('',#122,#123,#124);
#122 = CARTESIAN_POINT('',(41.2,-55.2,13.39));
#123 = DIRECTION('',(0.,0.,1.));
#124 = DIRECTION('',(-7.11E-15,-1.,0.));
#125 = ORIENTED_EDGE('',*,*,#47,.T.);
#126 = CYLINDRICAL_SURFACE('',#127,1.);
#127 = AXIS2_PLACEMENT_3D('',#128,#129,#130);
#128 = CARTESIAN_POINT('',(41.2,-55.2,12.99));
#129 = DIRECTION('',(-0.,-0.,-1.));
#130 = DIRECTION('',(-7.11E-15,-1.,0.));
#131 = ADVANCED_FACE('',(#132),#167,.T.);
#132 = FACE_BOUND('',#133,.T.);
#133 = EDGE_LOOP('',(#134,#135,#136,#144,#153,#161));
#134 = ORIENTED_EDGE('',*,*,#39,.T.);
#135 = ORIENTED_EDGE('',*,*,#119,.F.);
#136 = ORIENTED_EDGE('',*,*,#137,.F.);
#137 = EDGE_CURVE('',#138,#112,#140,.T.);
#138 = VERTEX_POINT('',#139);
#139 = CARTESIAN_POINT('',(32.8,-56.2,13.39));
#140 = LINE('',#141,#142);
#141 = CARTESIAN_POINT('',(32.8,-56.2,13.39));
#142 = VECTOR('',#143,1.);
#143 = DIRECTION('',(1.,0.,0.));
#144 = ORIENTED_EDGE('',*,*,#145,.F.);
#145 = EDGE_CURVE('',#146,#138,#148,.T.);
#146 = VERTEX_POINT('',#147);
#147 = CARTESIAN_POINT('',(31.851958278279,-55.51814602602,13.39));
#148 = CIRCLE('',#149,1.);
#149 = AXIS2_PLACEMENT_3D('',#150,#151,#152);
#150 = CARTESIAN_POINT('',(32.8,-55.2,13.39));
#151 = DIRECTION('',(0.,0.,1.));
#152 = DIRECTION('',(-1.,1.421E-14,0.));
#153 = ORIENTED_EDGE('',*,*,#154,.T.);
#154 = EDGE_CURVE('',#146,#155,#157,.T.);
#155 = VERTEX_POINT('',#156);
#156 = CARTESIAN_POINT('',(30.,-62.,13.39));
#157 = LINE('',#158,#159);
#158 = CARTESIAN_POINT('',(32.,-55.,13.39));
#159 = VECTOR('',#160,1.);
#160 = DIRECTION('',(-0.274721127897,-0.961523947641,0.));
#161 = ORIENTED_EDGE('',*,*,#162,.T.);
#162 = EDGE_CURVE('',#155,#32,#163,.T.);
#163 = LINE('',#164,#165);
#164 = CARTESIAN_POINT('',(30.,-62.,13.39));
#165 = VECTOR('',#166,1.);
#166 = DIRECTION('',(1.,0.,0.));
#167 = PLANE('',#168);
#168 = AXIS2_PLACEMENT_3D('',#169,#170,#171);
#169 = CARTESIAN_POINT('',(37.,-58.86306847005,13.39));
#170 = DIRECTION('',(0.,0.,1.));
#171 = DIRECTION('',(1.,0.,0.));
#172 = ADVANCED_FACE('',(#173),#184,.F.);
#173 = FACE_BOUND('',#174,.F.);
#174 = EDGE_LOOP('',(#175,#181,#182,#183));
#175 = ORIENTED_EDGE('',*,*,#176,.T.);
#176 = EDGE_CURVE('',#89,#155,#177,.T.);
#177 = LINE('',#178,#179);
#178 = CARTESIAN_POINT('',(30.,-62.,12.99));
#179 = VECTOR('',#180,1.);
#180 = DIRECTION('',(0.,0.,1.));
#181 = ORIENTED_EDGE('',*,*,#162,.T.);
#182 = ORIENTED_EDGE('',*,*,#31,.F.);
#183 = ORIENTED_EDGE('',*,*,#96,.F.);
#184 = PLANE('',#185);
#185 = AXIS2_PLACEMENT_3D('',#186,#187,#188);
#186 = CARTESIAN_POINT('',(30.,-62.,12.99));
#187 = DIRECTION('',(0.,1.,0.));
#188 = DIRECTION('',(1.,0.,0.));
#189 = ADVANCED_FACE('',(#190),#201,.F.);
#190 = FACE_BOUND('',#191,.F.);
#191 = EDGE_LOOP('',(#192,#193,#199,#200));
#192 = ORIENTED_EDGE('',*,*,#88,.F.);
#193 = ORIENTED_EDGE('',*,*,#194,.F.);
#194 = EDGE_CURVE('',#146,#80,#195,.T.);
#195 = LINE('',#196,#197);
#196 = CARTESIAN_POINT('',(31.851958278279,-55.51814602602,12.99));
#197 = VECTOR('',#198,1.);
#198 = DIRECTION('',(-0.,-0.,-1.));
#199 = ORIENTED_EDGE('',*,*,#154,.T.);
#200 = ORIENTED_EDGE('',*,*,#176,.F.);
#201 = PLANE('',#202);
#202 = AXIS2_PLACEMENT_3D('',#203,#204,#205);
#203 = CARTESIAN_POINT('',(32.,-55.,12.99));
#204 = DIRECTION('',(0.961523947641,-0.274721127897,0.));
#205 = DIRECTION('',(-0.274721127897,-0.961523947641,0.));
#206 = ADVANCED_FACE('',(#207),#218,.F.);
#207 = FACE_BOUND('',#208,.T.);
#208 = EDGE_LOOP('',(#209,#210,#211,#212));
#209 = ORIENTED_EDGE('',*,*,#79,.F.);
#210 = ORIENTED_EDGE('',*,*,#194,.F.);
#211 = ORIENTED_EDGE('',*,*,#145,.T.);
#212 = ORIENTED_EDGE('',*,*,#213,.F.);
#213 = EDGE_CURVE('',#72,#138,#214,.T.);
#214 = LINE('',#215,#216);
#215 = CARTESIAN_POINT('',(32.8,-56.2,12.99));
#216 = VECTOR('',#217,1.);
#217 = DIRECTION('',(0.,0.,1.));
#218 = CYLINDRICAL_SURFACE('',#219,1.);
#219 = AXIS2_PLACEMENT_3D('',#220,#221,#222);
#220 = CARTESIAN_POINT('',(32.8,-55.2,12.99));
#221 = DIRECTION('',(-0.,-0.,-1.));
#222 = DIRECTION('',(-1.,1.421E-14,0.));
#223 = ADVANCED_FACE('',(#224),#230,.T.);
#224 = FACE_BOUND('',#225,.T.);
#225 = EDGE_LOOP('',(#226,#227,#228,#229));
#226 = ORIENTED_EDGE('',*,*,#213,.T.);
#227 = ORIENTED_EDGE('',*,*,#137,.T.);
#228 = ORIENTED_EDGE('',*,*,#111,.F.);
#229 = ORIENTED_EDGE('',*,*,#71,.F.);
#230 = PLANE('',#231);
#231 = AXIS2_PLACEMENT_3D('',#232,#233,#234);
#232 = CARTESIAN_POINT('',(32.8,-56.2,12.99));
#233 = DIRECTION('',(0.,1.,0.));
#234 = DIRECTION('',(1.,0.,0.));
#235 = ( GEOMETRIC_REPRESENTATION_CONTEXT(3) 
GLOBAL_UNCERTAINTY_ASSIGNED_CONTEXT((#239)) GLOBAL_UNIT_ASSIGNED_CONTEXT
((#236,#237,#238)) REPRESENTATION_CONTEXT('Context #1',
  '3D Context with UNIT and UNCERTAINTY') );
#236 = ( LENGTH_UNIT() NAMED_UNIT(*) SI_UNIT(.MILLI.,.METRE.) );
#237 = ( NAMED_UNIT(*) PLANE_ANGLE_UNIT() SI_UNIT($,.RADIAN.) );
#238 = ( NAMED_UNIT(*) SI_UNIT($,.STERADIAN.) SOLID_ANGLE_UNIT() );
#239 = UNCERTAINTY_MEASURE_WITH_UNIT(LENGTH_MEASURE(1.E-07),#236,
  'distance_accuracy_value','confusion accuracy');
#240 = PRODUCT_RELATED_PRODUCT_CATEGORY('part',$,(#7));
ENDSEC;
END-ISO-10303-21;
