ISO-10303-21;
HEADER;
FILE_DESCRIPTION(('FreeCAD Model'),'2;1');
FILE_NAME('Open CASCADE Shape Model','2026-09-28T17:28:26',('FreeCAD'),(
    'FreeCAD'),'Open CASCADE STEP processor 7.8','FreeCAD','Unknown');
FILE_SCHEMA(('AUTOMOTIVE_DESIGN { 1 0 10303 214 1 1 1 1 }'));
ENDSEC;
DATA;
#1 = APPLICATION_PROTOCOL_DEFINITION('international standard',
  'automotive_design',2000,#2);
#2 = APPLICATION_CONTEXT(
  'core data for automotive mechanical design processes');
#3 = SHAPE_DEFINITION_REPRESENTATION(#4,#10);
#4 = PRODUCT_DEFINITION_SHAPE('','',#5);
#5 = PRODUCT_DEFINITION('design','',#6,#9);
#6 = PRODUCT_DEFINITION_FORMATION('','',#7);
#7 = PRODUCT('Open CASCADE STEP translator 7.8 102',
  'Open CASCADE STEP translator 7.8 102','',(#8));
#8 = PRODUCT_CONTEXT('',#2,'mechanical');
#9 = PRODUCT_DEFINITION_CONTEXT('part definition',#2,'design');
#10 = SHAPE_REPRESENTATION('',(#11,#15,#165,#218,#271,#324,#377),#1073);
#11 = AXIS2_PLACEMENT_3D('',#12,#13,#14);
#12 = CARTESIAN_POINT('',(0.,0.,0.));
#13 = DIRECTION('',(0.,0.,1.));
#14 = DIRECTION('',(1.,0.,-0.));
#15 = MANIFOLD_SOLID_BREP('',#16);
#16 = CLOSED_SHELL('',(#17,#57,#88,#119,#141,#153));
#17 = ADVANCED_FACE('',(#18),#52,.F.);
#18 = FACE_BOUND('',#19,.F.);
#19 = EDGE_LOOP('',(#20,#30,#38,#46));
#20 = ORIENTED_EDGE('',*,*,#21,.T.);
#21 = EDGE_CURVE('',#22,#24,#26,.T.);
#22 = VERTEX_POINT('',#23);
#23 = CARTESIAN_POINT('',(47.6,-54.9,12.99));
#24 = VERTEX_POINT('',#25);
#25 = CARTESIAN_POINT('',(47.6,-54.9,13.39));
#26 = LINE('',#27,#28);
#27 = CARTESIAN_POINT('',(47.6,-54.9,12.99));
#28 = VECTOR('',#29,1.);
#29 = DIRECTION('',(0.,0.,1.));
#30 = ORIENTED_EDGE('',*,*,#31,.T.);
#31 = EDGE_CURVE('',#24,#32,#34,.T.);
#32 = VERTEX_POINT('',#33);
#33 = CARTESIAN_POINT('',(44.5,-54.9,13.39));
#34 = LINE('',#35,#36);
#35 = CARTESIAN_POINT('',(47.6,-54.9,13.39));
#36 = VECTOR('',#37,1.);
#37 = DIRECTION('',(-1.,0.,0.));
#38 = ORIENTED_EDGE('',*,*,#39,.F.);
#39 = EDGE_CURVE('',#40,#32,#42,.T.);
#40 = VERTEX_POINT('',#41);
#41 = CARTESIAN_POINT('',(44.5,-54.9,12.99));
#42 = LINE('',#43,#44);
#43 = CARTESIAN_POINT('',(44.5,-54.9,12.99));
#44 = VECTOR('',#45,1.);
#45 = DIRECTION('',(0.,0.,1.));
#46 = ORIENTED_EDGE('',*,*,#47,.F.);
#47 = EDGE_CURVE('',#22,#40,#48,.T.);
#48 = LINE('',#49,#50);
#49 = CARTESIAN_POINT('',(47.6,-54.9,12.99));
#50 = VECTOR('',#51,1.);
#51 = DIRECTION('',(-1.,0.,0.));
#52 = PLANE('',#53);
#53 = AXIS2_PLACEMENT_3D('',#54,#55,#56);
#54 = CARTESIAN_POINT('',(47.6,-54.9,12.99));
#55 = DIRECTION('',(0.,-1.,0.));
#56 = DIRECTION('',(-1.,0.,0.));
#57 = ADVANCED_FACE('',(#58),#83,.F.);
#58 = FACE_BOUND('',#59,.F.);
#59 = EDGE_LOOP('',(#60,#61,#69,#77));
#60 = ORIENTED_EDGE('',*,*,#39,.T.);
#61 = ORIENTED_EDGE('',*,*,#62,.T.);
#62 = EDGE_CURVE('',#32,#63,#65,.T.);
#63 = VERTEX_POINT('',#64);
#64 = CARTESIAN_POINT('',(26.4,-60.2,13.39));
#65 = LINE('',#66,#67);
#66 = CARTESIAN_POINT('',(44.5,-54.9,13.39));
#67 = VECTOR('',#68,1.);
#68 = DIRECTION('',(-0.959702535678,-0.281017869563,0.));
#69 = ORIENTED_EDGE('',*,*,#70,.F.);
#70 = EDGE_CURVE('',#71,#63,#73,.T.);
#71 = VERTEX_POINT('',#72);
#72 = CARTESIAN_POINT('',(26.4,-60.2,12.99));
#73 = LINE('',#74,#75);
#74 = CARTESIAN_POINT('',(26.4,-60.2,12.99));
#75 = VECTOR('',#76,1.);
#76 = DIRECTION('',(0.,0.,1.));
#77 = ORIENTED_EDGE('',*,*,#78,.F.);
#78 = EDGE_CURVE('',#40,#71,#79,.T.);
#79 = LINE('',#80,#81);
#80 = CARTESIAN_POINT('',(44.5,-54.9,12.99));
#81 = VECTOR('',#82,1.);
#82 = DIRECTION('',(-0.959702535678,-0.281017869563,0.));
#83 = PLANE('',#84);
#84 = AXIS2_PLACEMENT_3D('',#85,#86,#87);
#85 = CARTESIAN_POINT('',(44.5,-54.9,12.99));
#86 = DIRECTION('',(0.281017869563,-0.959702535678,0.));
#87 = DIRECTION('',(-0.959702535678,-0.281017869563,0.));
#88 = ADVANCED_FACE('',(#89),#114,.F.);
#89 = FACE_BOUND('',#90,.F.);
#90 = EDGE_LOOP('',(#91,#92,#100,#108));
#91 = ORIENTED_EDGE('',*,*,#70,.T.);
#92 = ORIENTED_EDGE('',*,*,#93,.T.);
#93 = EDGE_CURVE('',#63,#94,#96,.T.);
#94 = VERTEX_POINT('',#95);
#95 = CARTESIAN_POINT('',(26.4,-61.8,13.39));
#96 = LINE('',#97,#98);
#97 = CARTESIAN_POINT('',(26.4,-60.2,13.39));
#98 = VECTOR('',#99,1.);
#99 = DIRECTION('',(0.,-1.,0.));
#100 = ORIENTED_EDGE('',*,*,#101,.F.);
#101 = EDGE_CURVE('',#102,#94,#104,.T.);
#102 = VERTEX_POINT('',#103);
#103 = CARTESIAN_POINT('',(26.4,-61.8,12.99));
#104 = LINE('',#105,#106);
#105 = CARTESIAN_POINT('',(26.4,-61.8,12.99));
#106 = VECTOR('',#107,1.);
#107 = DIRECTION('',(0.,0.,1.));
#108 = ORIENTED_EDGE('',*,*,#109,.F.);
#109 = EDGE_CURVE('',#71,#102,#110,.T.);
#110 = LINE('',#111,#112);
#111 = CARTESIAN_POINT('',(26.4,-60.2,12.99));
#112 = VECTOR('',#113,1.);
#113 = DIRECTION('',(0.,-1.,0.));
#114 = PLANE('',#115);
#115 = AXIS2_PLACEMENT_3D('',#116,#117,#118);
#116 = CARTESIAN_POINT('',(26.4,-60.2,12.99));
#117 = DIRECTION('',(1.,0.,0.));
#118 = DIRECTION('',(0.,-1.,0.));
#119 = ADVANCED_FACE('',(#120),#136,.F.);
#120 = FACE_BOUND('',#121,.F.);
#121 = EDGE_LOOP('',(#122,#123,#129,#130));
#122 = ORIENTED_EDGE('',*,*,#101,.T.);
#123 = ORIENTED_EDGE('',*,*,#124,.T.);
#124 = EDGE_CURVE('',#94,#24,#125,.T.);
#125 = LINE('',#126,#127);
#126 = CARTESIAN_POINT('',(26.4,-61.8,13.39));
#127 = VECTOR('',#128,1.);
#128 = DIRECTION('',(0.950902133618,0.309491732168,0.));
#129 = ORIENTED_EDGE('',*,*,#21,.F.);
#130 = ORIENTED_EDGE('',*,*,#131,.F.);
#131 = EDGE_CURVE('',#102,#22,#132,.T.);
#132 = LINE('',#133,#134);
#133 = CARTESIAN_POINT('',(26.4,-61.8,12.99));
#134 = VECTOR('',#135,1.);
#135 = DIRECTION('',(0.950902133618,0.309491732168,0.));
#136 = PLANE('',#137);
#137 = AXIS2_PLACEMENT_3D('',#138,#139,#140);
#138 = CARTESIAN_POINT('',(26.4,-61.8,12.99));
#139 = DIRECTION('',(-0.309491732168,0.950902133618,0.));
#140 = DIRECTION('',(0.950902133618,0.309491732168,0.));
#141 = ADVANCED_FACE('',(#142),#148,.F.);
#142 = FACE_BOUND('',#143,.F.);
#143 = EDGE_LOOP('',(#144,#145,#146,#147));
#144 = ORIENTED_EDGE('',*,*,#47,.T.);
#145 = ORIENTED_EDGE('',*,*,#78,.T.);
#146 = ORIENTED_EDGE('',*,*,#109,.T.);
#147 = ORIENTED_EDGE('',*,*,#131,.T.);
#148 = PLANE('',#149);
#149 = AXIS2_PLACEMENT_3D('',#150,#151,#152);
#150 = CARTESIAN_POINT('',(36.604445245423,-57.88018901139,12.99));
#151 = DIRECTION('',(0.,0.,1.));
#152 = DIRECTION('',(1.,0.,0.));
#153 = ADVANCED_FACE('',(#154),#160,.T.);
#154 = FACE_BOUND('',#155,.T.);
#155 = EDGE_LOOP('',(#156,#157,#158,#159));
#156 = ORIENTED_EDGE('',*,*,#31,.T.);
#157 = ORIENTED_EDGE('',*,*,#62,.T.);
#158 = ORIENTED_EDGE('',*,*,#93,.T.);
#159 = ORIENTED_EDGE('',*,*,#124,.T.);
#160 = PLANE('',#161);
#161 = AXIS2_PLACEMENT_3D('',#162,#163,#164);
#162 = CARTESIAN_POINT('',(36.604445245423,-57.88018901139,13.39));
#163 = DIRECTION('',(0.,0.,1.));
#164 = DIRECTION('',(1.,0.,0.));
#165 = MANIFOLD_SOLID_BREP('',#166);
#166 = CLOSED_SHELL('',(#167,#200,#209));
#167 = ADVANCED_FACE('',(#168),#195,.T.);
#168 = FACE_BOUND('',#169,.F.);
#169 = EDGE_LOOP('',(#170,#180,#187,#188));
#170 = ORIENTED_EDGE('',*,*,#171,.T.);
#171 = EDGE_CURVE('',#172,#174,#176,.T.);
#172 = VERTEX_POINT('',#173);
#173 = CARTESIAN_POINT('',(45.55,-59.9,12.99));
#174 = VERTEX_POINT('',#175);
#175 = CARTESIAN_POINT('',(45.55,-59.9,13.39));
#176 = LINE('',#177,#178);
#177 = CARTESIAN_POINT('',(45.55,-59.9,12.99));
#178 = VECTOR('',#179,1.);
#179 = DIRECTION('',(0.,0.,1.));
#180 = ORIENTED_EDGE('',*,*,#181,.T.);
#181 = EDGE_CURVE('',#174,#174,#182,.T.);
#182 = CIRCLE('',#183,1.55);
#183 = AXIS2_PLACEMENT_3D('',#184,#185,#186);
#184 = CARTESIAN_POINT('',(44.,-59.9,13.39));
#185 = DIRECTION('',(0.,0.,1.));
#186 = DIRECTION('',(1.,0.,0.));
#187 = ORIENTED_EDGE('',*,*,#171,.F.);
#188 = ORIENTED_EDGE('',*,*,#189,.F.);
#189 = EDGE_CURVE('',#172,#172,#190,.T.);
#190 = CIRCLE('',#191,1.55);
#191 = AXIS2_PLACEMENT_3D('',#192,#193,#194);
#192 = CARTESIAN_POINT('',(44.,-59.9,12.99));
#193 = DIRECTION('',(0.,0.,1.));
#194 = DIRECTION('',(1.,0.,0.));
#195 = CYLINDRICAL_SURFACE('',#196,1.55);
#196 = AXIS2_PLACEMENT_3D('',#197,#198,#199);
#197 = CARTESIAN_POINT('',(44.,-59.9,12.99));
#198 = DIRECTION('',(-0.,-0.,-1.));
#199 = DIRECTION('',(1.,0.,0.));
#200 = ADVANCED_FACE('',(#201),#204,.F.);
#201 = FACE_BOUND('',#202,.T.);
#202 = EDGE_LOOP('',(#203));
#203 = ORIENTED_EDGE('',*,*,#189,.F.);
#204 = PLANE('',#205);
#205 = AXIS2_PLACEMENT_3D('',#206,#207,#208);
#206 = CARTESIAN_POINT('',(44.,-59.9,12.99));
#207 = DIRECTION('',(0.,0.,1.));
#208 = DIRECTION('',(1.,0.,0.));
#209 = ADVANCED_FACE('',(#210),#213,.T.);
#210 = FACE_BOUND('',#211,.F.);
#211 = EDGE_LOOP('',(#212));
#212 = ORIENTED_EDGE('',*,*,#181,.F.);
#213 = PLANE('',#214);
#214 = AXIS2_PLACEMENT_3D('',#215,#216,#217);
#215 = CARTESIAN_POINT('',(44.,-59.9,13.39));
#216 = DIRECTION('',(0.,0.,1.));
#217 = DIRECTION('',(1.,0.,0.));
#218 = MANIFOLD_SOLID_BREP('',#219);
#219 = CLOSED_SHELL('',(#220,#253,#262));
#220 = ADVANCED_FACE('',(#221),#248,.T.);
#221 = FACE_BOUND('',#222,.F.);
#222 = EDGE_LOOP('',(#223,#233,#240,#241));
#223 = ORIENTED_EDGE('',*,*,#224,.T.);
#224 = EDGE_CURVE('',#225,#227,#229,.T.);
#225 = VERTEX_POINT('',#226);
#226 = CARTESIAN_POINT('',(40.55,-59.9,12.99));
#227 = VERTEX_POINT('',#228);
#228 = CARTESIAN_POINT('',(40.55,-59.9,13.39));
#229 = LINE('',#230,#231);
#230 = CARTESIAN_POINT('',(40.55,-59.9,12.99));
#231 = VECTOR('',#232,1.);
#232 = DIRECTION('',(0.,0.,1.));
#233 = ORIENTED_EDGE('',*,*,#234,.T.);
#234 = EDGE_CURVE('',#227,#227,#235,.T.);
#235 = CIRCLE('',#236,1.55);
#236 = AXIS2_PLACEMENT_3D('',#237,#238,#239);
#237 = CARTESIAN_POINT('',(39.,-59.9,13.39));
#238 = DIRECTION('',(0.,0.,1.));
#239 = DIRECTION('',(1.,0.,0.));
#240 = ORIENTED_EDGE('',*,*,#224,.F.);
#241 = ORIENTED_EDGE('',*,*,#242,.F.);
#242 = EDGE_CURVE('',#225,#225,#243,.T.);
#243 = CIRCLE('',#244,1.55);
#244 = AXIS2_PLACEMENT_3D('',#245,#246,#247);
#245 = CARTESIAN_POINT('',(39.,-59.9,12.99));
#246 = DIRECTION('',(0.,0.,1.));
#247 = DIRECTION('',(1.,0.,0.));
#248 = CYLINDRICAL_SURFACE('',#249,1.55);
#249 = AXIS2_PLACEMENT_3D('',#250,#251,#252);
#250 = CARTESIAN_POINT('',(39.,-59.9,12.99));
#251 = DIRECTION('',(-0.,-0.,-1.));
#252 = DIRECTION('',(1.,0.,0.));
#253 = ADVANCED_FACE('',(#254),#257,.F.);
#254 = FACE_BOUND('',#255,.T.);
#255 = EDGE_LOOP('',(#256));
#256 = ORIENTED_EDGE('',*,*,#242,.F.);
#257 = PLANE('',#258);
#258 = AXIS2_PLACEMENT_3D('',#259,#260,#261);
#259 = CARTESIAN_POINT('',(39.,-59.9,12.99));
#260 = DIRECTION('',(0.,0.,1.));
#261 = DIRECTION('',(1.,0.,0.));
#262 = ADVANCED_FACE('',(#263),#266,.T.);
#263 = FACE_BOUND('',#264,.F.);
#264 = EDGE_LOOP('',(#265));
#265 = ORIENTED_EDGE('',*,*,#234,.F.);
#266 = PLANE('',#267);
#267 = AXIS2_PLACEMENT_3D('',#268,#269,#270);
#268 = CARTESIAN_POINT('',(39.,-59.9,13.39));
#269 = DIRECTION('',(0.,0.,1.));
#270 = DIRECTION('',(1.,0.,0.));
#271 = MANIFOLD_SOLID_BREP('',#272);
#272 = CLOSED_SHELL('',(#273,#306,#315));
#273 = ADVANCED_FACE('',(#274),#301,.T.);
#274 = FACE_BOUND('',#275,.F.);
#275 = EDGE_LOOP('',(#276,#286,#293,#294));
#276 = ORIENTED_EDGE('',*,*,#277,.T.);
#277 = EDGE_CURVE('',#278,#280,#282,.T.);
#278 = VERTEX_POINT('',#279);
#279 = CARTESIAN_POINT('',(45.55,-64.1,12.99));
#280 = VERTEX_POINT('',#281);
#281 = CARTESIAN_POINT('',(45.55,-64.1,13.39));
#282 = LINE('',#283,#284);
#283 = CARTESIAN_POINT('',(45.55,-64.1,12.99));
#284 = VECTOR('',#285,1.);
#285 = DIRECTION('',(0.,0.,1.));
#286 = ORIENTED_EDGE('',*,*,#287,.T.);
#287 = EDGE_CURVE('',#280,#280,#288,.T.);
#288 = CIRCLE('',#289,1.55);
#289 = AXIS2_PLACEMENT_3D('',#290,#291,#292);
#290 = CARTESIAN_POINT('',(44.,-64.1,13.39));
#291 = DIRECTION('',(0.,0.,1.));
#292 = DIRECTION('',(1.,0.,0.));
#293 = ORIENTED_EDGE('',*,*,#277,.F.);
#294 = ORIENTED_EDGE('',*,*,#295,.F.);
#295 = EDGE_CURVE('',#278,#278,#296,.T.);
#296 = CIRCLE('',#297,1.55);
#297 = AXIS2_PLACEMENT_3D('',#298,#299,#300);
#298 = CARTESIAN_POINT('',(44.,-64.1,12.99));
#299 = DIRECTION('',(0.,0.,1.));
#300 = DIRECTION('',(1.,0.,0.));
#301 = CYLINDRICAL_SURFACE('',#302,1.55);
#302 = AXIS2_PLACEMENT_3D('',#303,#304,#305);
#303 = CARTESIAN_POINT('',(44.,-64.1,12.99));
#304 = DIRECTION('',(-0.,-0.,-1.));
#305 = DIRECTION('',(1.,0.,0.));
#306 = ADVANCED_FACE('',(#307),#310,.F.);
#307 = FACE_BOUND('',#308,.T.);
#308 = EDGE_LOOP('',(#309));
#309 = ORIENTED_EDGE('',*,*,#295,.F.);
#310 = PLANE('',#311);
#311 = AXIS2_PLACEMENT_3D('',#312,#313,#314);
#312 = CARTESIAN_POINT('',(44.,-64.1,12.99));
#313 = DIRECTION('',(0.,0.,1.));
#314 = DIRECTION('',(1.,0.,0.));
#315 = ADVANCED_FACE('',(#316),#319,.T.);
#316 = FACE_BOUND('',#317,.F.);
#317 = EDGE_LOOP('',(#318));
#318 = ORIENTED_EDGE('',*,*,#287,.F.);
#319 = PLANE('',#320);
#320 = AXIS2_PLACEMENT_3D('',#321,#322,#323);
#321 = CARTESIAN_POINT('',(44.,-64.1,13.39));
#322 = DIRECTION('',(0.,0.,1.));
#323 = DIRECTION('',(1.,0.,0.));
#324 = MANIFOLD_SOLID_BREP('',#325);
#325 = CLOSED_SHELL('',(#326,#359,#368));
#326 = ADVANCED_FACE('',(#327),#354,.T.);
#327 = FACE_BOUND('',#328,.F.);
#328 = EDGE_LOOP('',(#329,#339,#346,#347));
#329 = ORIENTED_EDGE('',*,*,#330,.T.);
#330 = EDGE_CURVE('',#331,#333,#335,.T.);
#331 = VERTEX_POINT('',#332);
#332 = CARTESIAN_POINT('',(40.55,-64.1,12.99));
#333 = VERTEX_POINT('',#334);
#334 = CARTESIAN_POINT('',(40.55,-64.1,13.39));
#335 = LINE('',#336,#337);
#336 = CARTESIAN_POINT('',(40.55,-64.1,12.99));
#337 = VECTOR('',#338,1.);
#338 = DIRECTION('',(0.,0.,1.));
#339 = ORIENTED_EDGE('',*,*,#340,.T.);
#340 = EDGE_CURVE('',#333,#333,#341,.T.);
#341 = CIRCLE('',#342,1.55);
#342 = AXIS2_PLACEMENT_3D('',#343,#344,#345);
#343 = CARTESIAN_POINT('',(39.,-64.1,13.39));
#344 = DIRECTION('',(0.,0.,1.));
#345 = DIRECTION('',(1.,0.,0.));
#346 = ORIENTED_EDGE('',*,*,#330,.F.);
#347 = ORIENTED_EDGE('',*,*,#348,.F.);
#348 = EDGE_CURVE('',#331,#331,#349,.T.);
#349 = CIRCLE('',#350,1.55);
#350 = AXIS2_PLACEMENT_3D('',#351,#352,#353);
#351 = CARTESIAN_POINT('',(39.,-64.1,12.99));
#352 = DIRECTION('',(0.,0.,1.));
#353 = DIRECTION('',(1.,0.,0.));
#354 = CYLINDRICAL_SURFACE('',#355,1.55);
#355 = AXIS2_PLACEMENT_3D('',#356,#357,#358);
#356 = CARTESIAN_POINT('',(39.,-64.1,12.99));
#357 = DIRECTION('',(-0.,-0.,-1.));
#358 = DIRECTION('',(1.,0.,0.));
#359 = ADVANCED_FACE('',(#360),#363,.F.);
#360 = FACE_BOUND('',#361,.T.);
#361 = EDGE_LOOP('',(#362));
#362 = ORIENTED_EDGE('',*,*,#348,.F.);
#363 = PLANE('',#364);
#364 = AXIS2_PLACEMENT_3D('',#365,#366,#367);
#365 = CARTESIAN_POINT('',(39.,-64.1,12.99));
#366 = DIRECTION('',(0.,0.,1.));
#367 = DIRECTION('',(1.,0.,0.));
#368 = ADVANCED_FACE('',(#369),#372,.T.);
#369 = FACE_BOUND('',#370,.F.);
#370 = EDGE_LOOP('',(#371));
#371 = ORIENTED_EDGE('',*,*,#340,.F.);
#372 = PLANE('',#373);
#373 = AXIS2_PLACEMENT_3D('',#374,#375,#376);
#374 = CARTESIAN_POINT('',(39.,-64.1,13.39));
#375 = DIRECTION('',(0.,0.,1.));
#376 = DIRECTION('',(1.,0.,0.));
#377 = MANIFOLD_SOLID_BREP('',#378);
#378 = CLOSED_SHELL('',(#379,#419,#452,#485,#637,#789,#806,#823,#840,
    #857,#869,#891,#908,#925,#942,#959,#976,#993,#1010,#1027,#1044,#1061
    ));
#379 = ADVANCED_FACE('',(#380),#414,.F.);
#380 = FACE_BOUND('',#381,.F.);
#381 = EDGE_LOOP('',(#382,#392,#400,#408));
#382 = ORIENTED_EDGE('',*,*,#383,.T.);
#383 = EDGE_CURVE('',#384,#386,#388,.T.);
#384 = VERTEX_POINT('',#385);
#385 = CARTESIAN_POINT('',(46.7,-12.2,12.99));
#386 = VERTEX_POINT('',#387);
#387 = CARTESIAN_POINT('',(46.7,-12.2,13.39));
#388 = LINE('',#389,#390);
#389 = CARTESIAN_POINT('',(46.7,-12.2,12.99));
#390 = VECTOR('',#391,1.);
#391 = DIRECTION('',(0.,0.,1.));
#392 = ORIENTED_EDGE('',*,*,#393,.T.);
#393 = EDGE_CURVE('',#386,#394,#396,.T.);
#394 = VERTEX_POINT('',#395);
#395 = CARTESIAN_POINT('',(27.3,-12.2,13.39));
#396 = LINE('',#397,#398);
#397 = CARTESIAN_POINT('',(46.7,-12.2,13.39));
#398 = VECTOR('',#399,1.);
#399 = DIRECTION('',(-1.,0.,0.));
#400 = ORIENTED_EDGE('',*,*,#401,.F.);
#401 = EDGE_CURVE('',#402,#394,#404,.T.);
#402 = VERTEX_POINT('',#403);
#403 = CARTESIAN_POINT('',(27.3,-12.2,12.99));
#404 = LINE('',#405,#406);
#405 = CARTESIAN_POINT('',(27.3,-12.2,12.99));
#406 = VECTOR('',#407,1.);
#407 = DIRECTION('',(0.,0.,1.));
#408 = ORIENTED_EDGE('',*,*,#409,.F.);
#409 = EDGE_CURVE('',#384,#402,#410,.T.);
#410 = LINE('',#411,#412);
#411 = CARTESIAN_POINT('',(46.7,-12.2,12.99));
#412 = VECTOR('',#413,1.);
#413 = DIRECTION('',(-1.,0.,0.));
#414 = PLANE('',#415);
#415 = AXIS2_PLACEMENT_3D('',#416,#417,#418);
#416 = CARTESIAN_POINT('',(46.7,-12.2,12.99));
#417 = DIRECTION('',(0.,-1.,0.));
#418 = DIRECTION('',(-1.,0.,0.));
#419 = ADVANCED_FACE('',(#420),#447,.T.);
#420 = FACE_BOUND('',#421,.F.);
#421 = EDGE_LOOP('',(#422,#432,#439,#440));
#422 = ORIENTED_EDGE('',*,*,#423,.T.);
#423 = EDGE_CURVE('',#424,#426,#428,.T.);
#424 = VERTEX_POINT('',#425);
#425 = CARTESIAN_POINT('',(47.8,-13.3,12.99));
#426 = VERTEX_POINT('',#427);
#427 = CARTESIAN_POINT('',(47.8,-13.3,13.39));
#428 = LINE('',#429,#430);
#429 = CARTESIAN_POINT('',(47.8,-13.3,12.99));
#430 = VECTOR('',#431,1.);
#431 = DIRECTION('',(0.,0.,1.));
#432 = ORIENTED_EDGE('',*,*,#433,.T.);
#433 = EDGE_CURVE('',#426,#386,#434,.T.);
#434 = CIRCLE('',#435,1.1);
#435 = AXIS2_PLACEMENT_3D('',#436,#437,#438);
#436 = CARTESIAN_POINT('',(46.7,-13.3,13.39));
#437 = DIRECTION('',(0.,0.,1.));
#438 = DIRECTION('',(1.,0.,0.));
#439 = ORIENTED_EDGE('',*,*,#383,.F.);
#440 = ORIENTED_EDGE('',*,*,#441,.F.);
#441 = EDGE_CURVE('',#424,#384,#442,.T.);
#442 = CIRCLE('',#443,1.1);
#443 = AXIS2_PLACEMENT_3D('',#444,#445,#446);
#444 = CARTESIAN_POINT('',(46.7,-13.3,12.99));
#445 = DIRECTION('',(0.,0.,1.));
#446 = DIRECTION('',(1.,0.,0.));
#447 = CYLINDRICAL_SURFACE('',#448,1.1);
#448 = AXIS2_PLACEMENT_3D('',#449,#450,#451);
#449 = CARTESIAN_POINT('',(46.7,-13.3,12.99));
#450 = DIRECTION('',(-0.,-0.,-1.));
#451 = DIRECTION('',(1.,0.,0.));
#452 = ADVANCED_FACE('',(#453),#480,.T.);
#453 = FACE_BOUND('',#454,.F.);
#454 = EDGE_LOOP('',(#455,#456,#465,#473));
#455 = ORIENTED_EDGE('',*,*,#401,.T.);
#456 = ORIENTED_EDGE('',*,*,#457,.T.);
#457 = EDGE_CURVE('',#394,#458,#460,.T.);
#458 = VERTEX_POINT('',#459);
#459 = CARTESIAN_POINT('',(26.2,-13.3,13.39));
#460 = CIRCLE('',#461,1.1);
#461 = AXIS2_PLACEMENT_3D('',#462,#463,#464);
#462 = CARTESIAN_POINT('',(27.3,-13.3,13.39));
#463 = DIRECTION('',(0.,0.,1.));
#464 = DIRECTION('',(-3.23E-15,1.,0.));
#465 = ORIENTED_EDGE('',*,*,#466,.F.);
#466 = EDGE_CURVE('',#467,#458,#469,.T.);
#467 = VERTEX_POINT('',#468);
#468 = CARTESIAN_POINT('',(26.2,-13.3,12.99));
#469 = LINE('',#470,#471);
#470 = CARTESIAN_POINT('',(26.2,-13.3,12.99));
#471 = VECTOR('',#472,1.);
#472 = DIRECTION('',(0.,0.,1.));
#473 = ORIENTED_EDGE('',*,*,#474,.F.);
#474 = EDGE_CURVE('',#402,#467,#475,.T.);
#475 = CIRCLE('',#476,1.1);
#476 = AXIS2_PLACEMENT_3D('',#477,#478,#479);
#477 = CARTESIAN_POINT('',(27.3,-13.3,12.99));
#478 = DIRECTION('',(0.,0.,1.));
#479 = DIRECTION('',(-3.23E-15,1.,0.));
#480 = CYLINDRICAL_SURFACE('',#481,1.1);
#481 = AXIS2_PLACEMENT_3D('',#482,#483,#484);
#482 = CARTESIAN_POINT('',(27.3,-13.3,12.99));
#483 = DIRECTION('',(-0.,-0.,-1.));
#484 = DIRECTION('',(-3.23E-15,1.,0.));
#485 = ADVANCED_FACE('',(#486,#531),#632,.T.);
#486 = FACE_BOUND('',#487,.T.);
#487 = EDGE_LOOP('',(#488,#489,#497,#506,#514,#523,#529,#530));
#488 = ORIENTED_EDGE('',*,*,#441,.F.);
#489 = ORIENTED_EDGE('',*,*,#490,.F.);
#490 = EDGE_CURVE('',#491,#424,#493,.T.);
#491 = VERTEX_POINT('',#492);
#492 = CARTESIAN_POINT('',(47.8,-53.7,12.99));
#493 = LINE('',#494,#495);
#494 = CARTESIAN_POINT('',(47.8,-53.7,12.99));
#495 = VECTOR('',#496,1.);
#496 = DIRECTION('',(0.,1.,0.));
#497 = ORIENTED_EDGE('',*,*,#498,.F.);
#498 = EDGE_CURVE('',#499,#491,#501,.T.);
#499 = VERTEX_POINT('',#500);
#500 = CARTESIAN_POINT('',(46.7,-54.8,12.99));
#501 = CIRCLE('',#502,1.1);
#502 = AXIS2_PLACEMENT_3D('',#503,#504,#505);
#503 = CARTESIAN_POINT('',(46.7,-53.7,12.99));
#504 = DIRECTION('',(-0.,0.,1.));
#505 = DIRECTION('',(0.,-1.,0.));
#506 = ORIENTED_EDGE('',*,*,#507,.F.);
#507 = EDGE_CURVE('',#508,#499,#510,.T.);
#508 = VERTEX_POINT('',#509);
#509 = CARTESIAN_POINT('',(27.3,-54.8,12.99));
#510 = LINE('',#511,#512);
#511 = CARTESIAN_POINT('',(27.3,-54.8,12.99));
#512 = VECTOR('',#513,1.);
#513 = DIRECTION('',(1.,0.,0.));
#514 = ORIENTED_EDGE('',*,*,#515,.F.);
#515 = EDGE_CURVE('',#516,#508,#518,.T.);
#516 = VERTEX_POINT('',#517);
#517 = CARTESIAN_POINT('',(26.2,-53.7,12.99));
#518 = CIRCLE('',#519,1.1);
#519 = AXIS2_PLACEMENT_3D('',#520,#521,#522);
#520 = CARTESIAN_POINT('',(27.3,-53.7,12.99));
#521 = DIRECTION('',(0.,0.,1.));
#522 = DIRECTION('',(-1.,6.46E-15,0.));
#523 = ORIENTED_EDGE('',*,*,#524,.F.);
#524 = EDGE_CURVE('',#467,#516,#525,.T.);
#525 = LINE('',#526,#527);
#526 = CARTESIAN_POINT('',(26.2,-13.3,12.99));
#527 = VECTOR('',#528,1.);
#528 = DIRECTION('',(0.,-1.,0.));
#529 = ORIENTED_EDGE('',*,*,#474,.F.);
#530 = ORIENTED_EDGE('',*,*,#409,.F.);
#531 = FACE_BOUND('',#532,.T.);
#532 = EDGE_LOOP('',(#533,#544,#552,#560,#568,#576,#584,#592,#600,#609,
    #617,#626));
#533 = ORIENTED_EDGE('',*,*,#534,.T.);
#534 = EDGE_CURVE('',#535,#537,#539,.T.);
#535 = VERTEX_POINT('',#536);
#536 = CARTESIAN_POINT('',(45.55,-14.95,12.99));
#537 = VERTEX_POINT('',#538);
#538 = CARTESIAN_POINT('',(45.25,-14.65,12.99));
#539 = CIRCLE('',#540,0.3);
#540 = AXIS2_PLACEMENT_3D('',#541,#542,#543);
#541 = CARTESIAN_POINT('',(45.25,-14.95,12.99));
#542 = DIRECTION('',(0.,-0.,1.));
#543 = DIRECTION('',(1.,5.92E-15,0.));
#544 = ORIENTED_EDGE('',*,*,#545,.T.);
#545 = EDGE_CURVE('',#537,#546,#548,.T.);
#546 = VERTEX_POINT('',#547);
#547 = CARTESIAN_POINT('',(29.45,-14.65,12.99));
#548 = LINE('',#549,#550);
#549 = CARTESIAN_POINT('',(45.25,-14.65,12.99));
#550 = VECTOR('',#551,1.);
#551 = DIRECTION('',(-1.,0.,0.));
#552 = ORIENTED_EDGE('',*,*,#553,.T.);
#553 = EDGE_CURVE('',#546,#554,#556,.T.);
#554 = VERTEX_POINT('',#555);
#555 = CARTESIAN_POINT('',(31.8,-12.3,12.99));
#556 = LINE('',#557,#558);
#557 = CARTESIAN_POINT('',(26.5,-17.6,12.99));
#558 = VECTOR('',#559,1.);
#559 = DIRECTION('',(0.707106781187,0.707106781187,0.));
#560 = ORIENTED_EDGE('',*,*,#561,.T.);
#561 = EDGE_CURVE('',#554,#562,#564,.T.);
#562 = VERTEX_POINT('',#563);
#563 = CARTESIAN_POINT('',(30.,-12.3,12.99));
#564 = LINE('',#565,#566);
#565 = CARTESIAN_POINT('',(31.8,-12.3,12.99));
#566 = VECTOR('',#567,1.);
#567 = DIRECTION('',(-1.,0.,0.));
#568 = ORIENTED_EDGE('',*,*,#569,.T.);
#569 = EDGE_CURVE('',#562,#570,#572,.T.);
#570 = VERTEX_POINT('',#571);
#571 = CARTESIAN_POINT('',(26.5,-15.8,12.99));
#572 = LINE('',#573,#574);
#573 = CARTESIAN_POINT('',(30.,-12.3,12.99));
#574 = VECTOR('',#575,1.);
#575 = DIRECTION('',(-0.707106781187,-0.707106781187,0.));
#576 = ORIENTED_EDGE('',*,*,#577,.T.);
#577 = EDGE_CURVE('',#570,#578,#580,.T.);
#578 = VERTEX_POINT('',#579);
#579 = CARTESIAN_POINT('',(26.5,-17.6,12.99));
#580 = LINE('',#581,#582);
#581 = CARTESIAN_POINT('',(26.5,-15.8,12.99));
#582 = VECTOR('',#583,1.);
#583 = DIRECTION('',(0.,-1.,0.));
#584 = ORIENTED_EDGE('',*,*,#585,.T.);
#585 = EDGE_CURVE('',#578,#586,#588,.T.);
#586 = VERTEX_POINT('',#587);
#587 = CARTESIAN_POINT('',(28.85,-15.25,12.99));
#588 = LINE('',#589,#590);
#589 = CARTESIAN_POINT('',(26.5,-17.6,12.99));
#590 = VECTOR('',#591,1.);
#591 = DIRECTION('',(0.707106781187,0.707106781187,0.));
#592 = ORIENTED_EDGE('',*,*,#593,.T.);
#593 = EDGE_CURVE('',#586,#594,#596,.T.);
#594 = VERTEX_POINT('',#595);
#595 = CARTESIAN_POINT('',(28.85,-52.95,12.99));
#596 = LINE('',#597,#598);
#597 = CARTESIAN_POINT('',(28.85,-14.95,12.99));
#598 = VECTOR('',#599,1.);
#599 = DIRECTION('',(0.,-1.,0.));
#600 = ORIENTED_EDGE('',*,*,#601,.T.);
#601 = EDGE_CURVE('',#594,#602,#604,.T.);
#602 = VERTEX_POINT('',#603);
#603 = CARTESIAN_POINT('',(29.15,-53.25,12.99));
#604 = CIRCLE('',#605,0.3);
#605 = AXIS2_PLACEMENT_3D('',#606,#607,#608);
#606 = CARTESIAN_POINT('',(29.15,-52.95,12.99));
#607 = DIRECTION('',(0.,0.,1.));
#608 = DIRECTION('',(-1.,4.737E-14,0.));
#609 = ORIENTED_EDGE('',*,*,#610,.T.);
#610 = EDGE_CURVE('',#602,#611,#613,.T.);
#611 = VERTEX_POINT('',#612);
#612 = CARTESIAN_POINT('',(45.25,-53.25,12.99));
#613 = LINE('',#614,#615);
#614 = CARTESIAN_POINT('',(29.15,-53.25,12.99));
#615 = VECTOR('',#616,1.);
#616 = DIRECTION('',(1.,0.,0.));
#617 = ORIENTED_EDGE('',*,*,#618,.T.);
#618 = EDGE_CURVE('',#611,#619,#621,.T.);
#619 = VERTEX_POINT('',#620);
#620 = CARTESIAN_POINT('',(45.55,-52.95,12.99));
#621 = CIRCLE('',#622,0.3);
#622 = AXIS2_PLACEMENT_3D('',#623,#624,#625);
#623 = CARTESIAN_POINT('',(45.25,-52.95,12.99));
#624 = DIRECTION('',(-0.,0.,1.));
#625 = DIRECTION('',(2.368E-14,-1.,0.));
#626 = ORIENTED_EDGE('',*,*,#627,.T.);
#627 = EDGE_CURVE('',#619,#535,#628,.T.);
#628 = LINE('',#629,#630);
#629 = CARTESIAN_POINT('',(45.55,-52.95,12.99));
#630 = VECTOR('',#631,1.);
#631 = DIRECTION('',(0.,1.,0.));
#632 = PLANE('',#633);
#633 = AXIS2_PLACEMENT_3D('',#634,#635,#636);
#634 = CARTESIAN_POINT('',(37.,-33.5,12.99));
#635 = DIRECTION('',(-0.,-0.,-1.));
#636 = DIRECTION('',(-1.,0.,0.));
#637 = ADVANCED_FACE('',(#638,#683),#784,.T.);
#638 = FACE_BOUND('',#639,.T.);
#639 = EDGE_LOOP('',(#640,#641,#642,#650,#659,#667,#676,#682));
#640 = ORIENTED_EDGE('',*,*,#393,.T.);
#641 = ORIENTED_EDGE('',*,*,#457,.T.);
#642 = ORIENTED_EDGE('',*,*,#643,.T.);
#643 = EDGE_CURVE('',#458,#644,#646,.T.);
#644 = VERTEX_POINT('',#645);
#645 = CARTESIAN_POINT('',(26.2,-53.7,13.39));
#646 = LINE('',#647,#648);
#647 = CARTESIAN_POINT('',(26.2,-13.3,13.39));
#648 = VECTOR('',#649,1.);
#649 = DIRECTION('',(0.,-1.,0.));
#650 = ORIENTED_EDGE('',*,*,#651,.T.);
#651 = EDGE_CURVE('',#644,#652,#654,.T.);
#652 = VERTEX_POINT('',#653);
#653 = CARTESIAN_POINT('',(27.3,-54.8,13.39));
#654 = CIRCLE('',#655,1.1);
#655 = AXIS2_PLACEMENT_3D('',#656,#657,#658);
#656 = CARTESIAN_POINT('',(27.3,-53.7,13.39));
#657 = DIRECTION('',(0.,0.,1.));
#658 = DIRECTION('',(-1.,6.46E-15,0.));
#659 = ORIENTED_EDGE('',*,*,#660,.T.);
#660 = EDGE_CURVE('',#652,#661,#663,.T.);
#661 = VERTEX_POINT('',#662);
#662 = CARTESIAN_POINT('',(46.7,-54.8,13.39));
#663 = LINE('',#664,#665);
#664 = CARTESIAN_POINT('',(27.3,-54.8,13.39));
#665 = VECTOR('',#666,1.);
#666 = DIRECTION('',(1.,0.,0.));
#667 = ORIENTED_EDGE('',*,*,#668,.T.);
#668 = EDGE_CURVE('',#661,#669,#671,.T.);
#669 = VERTEX_POINT('',#670);
#670 = CARTESIAN_POINT('',(47.8,-53.7,13.39));
#671 = CIRCLE('',#672,1.1);
#672 = AXIS2_PLACEMENT_3D('',#673,#674,#675);
#673 = CARTESIAN_POINT('',(46.7,-53.7,13.39));
#674 = DIRECTION('',(-0.,0.,1.));
#675 = DIRECTION('',(0.,-1.,0.));
#676 = ORIENTED_EDGE('',*,*,#677,.T.);
#677 = EDGE_CURVE('',#669,#426,#678,.T.);
#678 = LINE('',#679,#680);
#679 = CARTESIAN_POINT('',(47.8,-53.7,13.39));
#680 = VECTOR('',#681,1.);
#681 = DIRECTION('',(0.,1.,0.));
#682 = ORIENTED_EDGE('',*,*,#433,.T.);
#683 = FACE_BOUND('',#684,.T.);
#684 = EDGE_LOOP('',(#685,#695,#704,#712,#721,#729,#738,#746,#754,#762,
    #770,#778));
#685 = ORIENTED_EDGE('',*,*,#686,.F.);
#686 = EDGE_CURVE('',#687,#689,#691,.T.);
#687 = VERTEX_POINT('',#688);
#688 = CARTESIAN_POINT('',(45.25,-14.65,13.39));
#689 = VERTEX_POINT('',#690);
#690 = CARTESIAN_POINT('',(29.45,-14.65,13.39));
#691 = LINE('',#692,#693);
#692 = CARTESIAN_POINT('',(45.25,-14.65,13.39));
#693 = VECTOR('',#694,1.);
#694 = DIRECTION('',(-1.,0.,0.));
#695 = ORIENTED_EDGE('',*,*,#696,.F.);
#696 = EDGE_CURVE('',#697,#687,#699,.T.);
#697 = VERTEX_POINT('',#698);
#698 = CARTESIAN_POINT('',(45.55,-14.95,13.39));
#699 = CIRCLE('',#700,0.3);
#700 = AXIS2_PLACEMENT_3D('',#701,#702,#703);
#701 = CARTESIAN_POINT('',(45.25,-14.95,13.39));
#702 = DIRECTION('',(0.,-0.,1.));
#703 = DIRECTION('',(1.,5.92E-15,0.));
#704 = ORIENTED_EDGE('',*,*,#705,.F.);
#705 = EDGE_CURVE('',#706,#697,#708,.T.);
#706 = VERTEX_POINT('',#707);
#707 = CARTESIAN_POINT('',(45.55,-52.95,13.39));
#708 = LINE('',#709,#710);
#709 = CARTESIAN_POINT('',(45.55,-52.95,13.39));
#710 = VECTOR('',#711,1.);
#711 = DIRECTION('',(0.,1.,0.));
#712 = ORIENTED_EDGE('',*,*,#713,.F.);
#713 = EDGE_CURVE('',#714,#706,#716,.T.);
#714 = VERTEX_POINT('',#715);
#715 = CARTESIAN_POINT('',(45.25,-53.25,13.39));
#716 = CIRCLE('',#717,0.3);
#717 = AXIS2_PLACEMENT_3D('',#718,#719,#720);
#718 = CARTESIAN_POINT('',(45.25,-52.95,13.39));
#719 = DIRECTION('',(-0.,0.,1.));
#720 = DIRECTION('',(2.368E-14,-1.,0.));
#721 = ORIENTED_EDGE('',*,*,#722,.F.);
#722 = EDGE_CURVE('',#723,#714,#725,.T.);
#723 = VERTEX_POINT('',#724);
#724 = CARTESIAN_POINT('',(29.15,-53.25,13.39));
#725 = LINE('',#726,#727);
#726 = CARTESIAN_POINT('',(29.15,-53.25,13.39));
#727 = VECTOR('',#728,1.);
#728 = DIRECTION('',(1.,0.,0.));
#729 = ORIENTED_EDGE('',*,*,#730,.F.);
#730 = EDGE_CURVE('',#731,#723,#733,.T.);
#731 = VERTEX_POINT('',#732);
#732 = CARTESIAN_POINT('',(28.85,-52.95,13.39));
#733 = CIRCLE('',#734,0.3);
#734 = AXIS2_PLACEMENT_3D('',#735,#736,#737);
#735 = CARTESIAN_POINT('',(29.15,-52.95,13.39));
#736 = DIRECTION('',(0.,0.,1.));
#737 = DIRECTION('',(-1.,4.737E-14,0.));
#738 = ORIENTED_EDGE('',*,*,#739,.F.);
#739 = EDGE_CURVE('',#740,#731,#742,.T.);
#740 = VERTEX_POINT('',#741);
#741 = CARTESIAN_POINT('',(28.85,-15.25,13.39));
#742 = LINE('',#743,#744);
#743 = CARTESIAN_POINT('',(28.85,-14.95,13.39));
#744 = VECTOR('',#745,1.);
#745 = DIRECTION('',(0.,-1.,0.));
#746 = ORIENTED_EDGE('',*,*,#747,.F.);
#747 = EDGE_CURVE('',#748,#740,#750,.T.);
#748 = VERTEX_POINT('',#749);
#749 = CARTESIAN_POINT('',(26.5,-17.6,13.39));
#750 = LINE('',#751,#752);
#751 = CARTESIAN_POINT('',(26.5,-17.6,13.39));
#752 = VECTOR('',#753,1.);
#753 = DIRECTION('',(0.707106781187,0.707106781187,0.));
#754 = ORIENTED_EDGE('',*,*,#755,.F.);
#755 = EDGE_CURVE('',#756,#748,#758,.T.);
#756 = VERTEX_POINT('',#757);
#757 = CARTESIAN_POINT('',(26.5,-15.8,13.39));
#758 = LINE('',#759,#760);
#759 = CARTESIAN_POINT('',(26.5,-15.8,13.39));
#760 = VECTOR('',#761,1.);
#761 = DIRECTION('',(0.,-1.,0.));
#762 = ORIENTED_EDGE('',*,*,#763,.F.);
#763 = EDGE_CURVE('',#764,#756,#766,.T.);
#764 = VERTEX_POINT('',#765);
#765 = CARTESIAN_POINT('',(30.,-12.3,13.39));
#766 = LINE('',#767,#768);
#767 = CARTESIAN_POINT('',(30.,-12.3,13.39));
#768 = VECTOR('',#769,1.);
#769 = DIRECTION('',(-0.707106781187,-0.707106781187,0.));
#770 = ORIENTED_EDGE('',*,*,#771,.F.);
#771 = EDGE_CURVE('',#772,#764,#774,.T.);
#772 = VERTEX_POINT('',#773);
#773 = CARTESIAN_POINT('',(31.8,-12.3,13.39));
#774 = LINE('',#775,#776);
#775 = CARTESIAN_POINT('',(31.8,-12.3,13.39));
#776 = VECTOR('',#777,1.);
#777 = DIRECTION('',(-1.,0.,0.));
#778 = ORIENTED_EDGE('',*,*,#779,.F.);
#779 = EDGE_CURVE('',#689,#772,#780,.T.);
#780 = LINE('',#781,#782);
#781 = CARTESIAN_POINT('',(26.5,-17.6,13.39));
#782 = VECTOR('',#783,1.);
#783 = DIRECTION('',(0.707106781187,0.707106781187,0.));
#784 = PLANE('',#785);
#785 = AXIS2_PLACEMENT_3D('',#786,#787,#788);
#786 = CARTESIAN_POINT('',(37.,-33.5,13.39));
#787 = DIRECTION('',(0.,0.,1.));
#788 = DIRECTION('',(1.,0.,0.));
#789 = ADVANCED_FACE('',(#790),#801,.F.);
#790 = FACE_BOUND('',#791,.F.);
#791 = EDGE_LOOP('',(#792,#798,#799,#800));
#792 = ORIENTED_EDGE('',*,*,#793,.T.);
#793 = EDGE_CURVE('',#491,#669,#794,.T.);
#794 = LINE('',#795,#796);
#795 = CARTESIAN_POINT('',(47.8,-53.7,12.99));
#796 = VECTOR('',#797,1.);
#797 = DIRECTION('',(0.,0.,1.));
#798 = ORIENTED_EDGE('',*,*,#677,.T.);
#799 = ORIENTED_EDGE('',*,*,#423,.F.);
#800 = ORIENTED_EDGE('',*,*,#490,.F.);
#801 = PLANE('',#802);
#802 = AXIS2_PLACEMENT_3D('',#803,#804,#805);
#803 = CARTESIAN_POINT('',(47.8,-53.7,12.99));
#804 = DIRECTION('',(-1.,0.,0.));
#805 = DIRECTION('',(0.,1.,0.));
#806 = ADVANCED_FACE('',(#807),#818,.F.);
#807 = FACE_BOUND('',#808,.F.);
#808 = EDGE_LOOP('',(#809,#810,#811,#817));
#809 = ORIENTED_EDGE('',*,*,#466,.T.);
#810 = ORIENTED_EDGE('',*,*,#643,.T.);
#811 = ORIENTED_EDGE('',*,*,#812,.F.);
#812 = EDGE_CURVE('',#516,#644,#813,.T.);
#813 = LINE('',#814,#815);
#814 = CARTESIAN_POINT('',(26.2,-53.7,12.99));
#815 = VECTOR('',#816,1.);
#816 = DIRECTION('',(0.,0.,1.));
#817 = ORIENTED_EDGE('',*,*,#524,.F.);
#818 = PLANE('',#819);
#819 = AXIS2_PLACEMENT_3D('',#820,#821,#822);
#820 = CARTESIAN_POINT('',(26.2,-13.3,12.99));
#821 = DIRECTION('',(1.,0.,0.));
#822 = DIRECTION('',(0.,-1.,0.));
#823 = ADVANCED_FACE('',(#824),#835,.T.);
#824 = FACE_BOUND('',#825,.F.);
#825 = EDGE_LOOP('',(#826,#832,#833,#834));
#826 = ORIENTED_EDGE('',*,*,#827,.T.);
#827 = EDGE_CURVE('',#499,#661,#828,.T.);
#828 = LINE('',#829,#830);
#829 = CARTESIAN_POINT('',(46.7,-54.8,12.99));
#830 = VECTOR('',#831,1.);
#831 = DIRECTION('',(0.,0.,1.));
#832 = ORIENTED_EDGE('',*,*,#668,.T.);
#833 = ORIENTED_EDGE('',*,*,#793,.F.);
#834 = ORIENTED_EDGE('',*,*,#498,.F.);
#835 = CYLINDRICAL_SURFACE('',#836,1.1);
#836 = AXIS2_PLACEMENT_3D('',#837,#838,#839);
#837 = CARTESIAN_POINT('',(46.7,-53.7,12.99));
#838 = DIRECTION('',(0.,0.,-1.));
#839 = DIRECTION('',(0.,-1.,0.));
#840 = ADVANCED_FACE('',(#841),#852,.F.);
#841 = FACE_BOUND('',#842,.F.);
#842 = EDGE_LOOP('',(#843,#849,#850,#851));
#843 = ORIENTED_EDGE('',*,*,#844,.T.);
#844 = EDGE_CURVE('',#508,#652,#845,.T.);
#845 = LINE('',#846,#847);
#846 = CARTESIAN_POINT('',(27.3,-54.8,12.99));
#847 = VECTOR('',#848,1.);
#848 = DIRECTION('',(0.,0.,1.));
#849 = ORIENTED_EDGE('',*,*,#660,.T.);
#850 = ORIENTED_EDGE('',*,*,#827,.F.);
#851 = ORIENTED_EDGE('',*,*,#507,.F.);
#852 = PLANE('',#853);
#853 = AXIS2_PLACEMENT_3D('',#854,#855,#856);
#854 = CARTESIAN_POINT('',(27.3,-54.8,12.99));
#855 = DIRECTION('',(0.,1.,0.));
#856 = DIRECTION('',(1.,0.,0.));
#857 = ADVANCED_FACE('',(#858),#864,.T.);
#858 = FACE_BOUND('',#859,.F.);
#859 = EDGE_LOOP('',(#860,#861,#862,#863));
#860 = ORIENTED_EDGE('',*,*,#812,.T.);
#861 = ORIENTED_EDGE('',*,*,#651,.T.);
#862 = ORIENTED_EDGE('',*,*,#844,.F.);
#863 = ORIENTED_EDGE('',*,*,#515,.F.);
#864 = CYLINDRICAL_SURFACE('',#865,1.1);
#865 = AXIS2_PLACEMENT_3D('',#866,#867,#868);
#866 = CARTESIAN_POINT('',(27.3,-53.7,12.99));
#867 = DIRECTION('',(-0.,-0.,-1.));
#868 = DIRECTION('',(-1.,6.46E-15,0.));
#869 = ADVANCED_FACE('',(#870),#886,.F.);
#870 = FACE_BOUND('',#871,.T.);
#871 = EDGE_LOOP('',(#872,#878,#879,#885));
#872 = ORIENTED_EDGE('',*,*,#873,.T.);
#873 = EDGE_CURVE('',#535,#697,#874,.T.);
#874 = LINE('',#875,#876);
#875 = CARTESIAN_POINT('',(45.55,-14.95,12.99));
#876 = VECTOR('',#877,1.);
#877 = DIRECTION('',(0.,0.,1.));
#878 = ORIENTED_EDGE('',*,*,#696,.T.);
#879 = ORIENTED_EDGE('',*,*,#880,.F.);
#880 = EDGE_CURVE('',#537,#687,#881,.T.);
#881 = LINE('',#882,#883);
#882 = CARTESIAN_POINT('',(45.25,-14.65,12.99));
#883 = VECTOR('',#884,1.);
#884 = DIRECTION('',(0.,0.,1.));
#885 = ORIENTED_EDGE('',*,*,#534,.F.);
#886 = CYLINDRICAL_SURFACE('',#887,0.3);
#887 = AXIS2_PLACEMENT_3D('',#888,#889,#890);
#888 = CARTESIAN_POINT('',(45.25,-14.95,12.99));
#889 = DIRECTION('',(0.,0.,-1.));
#890 = DIRECTION('',(1.,5.92E-15,0.));
#891 = ADVANCED_FACE('',(#892),#903,.T.);
#892 = FACE_BOUND('',#893,.T.);
#893 = EDGE_LOOP('',(#894,#900,#901,#902));
#894 = ORIENTED_EDGE('',*,*,#895,.T.);
#895 = EDGE_CURVE('',#619,#706,#896,.T.);
#896 = LINE('',#897,#898);
#897 = CARTESIAN_POINT('',(45.55,-52.95,12.99));
#898 = VECTOR('',#899,1.);
#899 = DIRECTION('',(0.,0.,1.));
#900 = ORIENTED_EDGE('',*,*,#705,.T.);
#901 = ORIENTED_EDGE('',*,*,#873,.F.);
#902 = ORIENTED_EDGE('',*,*,#627,.F.);
#903 = PLANE('',#904);
#904 = AXIS2_PLACEMENT_3D('',#905,#906,#907);
#905 = CARTESIAN_POINT('',(45.55,-52.95,12.99));
#906 = DIRECTION('',(-1.,0.,0.));
#907 = DIRECTION('',(0.,1.,0.));
#908 = ADVANCED_FACE('',(#909),#920,.F.);
#909 = FACE_BOUND('',#910,.T.);
#910 = EDGE_LOOP('',(#911,#917,#918,#919));
#911 = ORIENTED_EDGE('',*,*,#912,.T.);
#912 = EDGE_CURVE('',#611,#714,#913,.T.);
#913 = LINE('',#914,#915);
#914 = CARTESIAN_POINT('',(45.25,-53.25,12.99));
#915 = VECTOR('',#916,1.);
#916 = DIRECTION('',(0.,0.,1.));
#917 = ORIENTED_EDGE('',*,*,#713,.T.);
#918 = ORIENTED_EDGE('',*,*,#895,.F.);
#919 = ORIENTED_EDGE('',*,*,#618,.F.);
#920 = CYLINDRICAL_SURFACE('',#921,0.3);
#921 = AXIS2_PLACEMENT_3D('',#922,#923,#924);
#922 = CARTESIAN_POINT('',(45.25,-52.95,12.99));
#923 = DIRECTION('',(0.,0.,-1.));
#924 = DIRECTION('',(2.368E-14,-1.,0.));
#925 = ADVANCED_FACE('',(#926),#937,.T.);
#926 = FACE_BOUND('',#927,.T.);
#927 = EDGE_LOOP('',(#928,#934,#935,#936));
#928 = ORIENTED_EDGE('',*,*,#929,.T.);
#929 = EDGE_CURVE('',#602,#723,#930,.T.);
#930 = LINE('',#931,#932);
#931 = CARTESIAN_POINT('',(29.15,-53.25,12.99));
#932 = VECTOR('',#933,1.);
#933 = DIRECTION('',(0.,0.,1.));
#934 = ORIENTED_EDGE('',*,*,#722,.T.);
#935 = ORIENTED_EDGE('',*,*,#912,.F.);
#936 = ORIENTED_EDGE('',*,*,#610,.F.);
#937 = PLANE('',#938);
#938 = AXIS2_PLACEMENT_3D('',#939,#940,#941);
#939 = CARTESIAN_POINT('',(29.15,-53.25,12.99));
#940 = DIRECTION('',(0.,1.,0.));
#941 = DIRECTION('',(1.,0.,0.));
#942 = ADVANCED_FACE('',(#943),#954,.F.);
#943 = FACE_BOUND('',#944,.T.);
#944 = EDGE_LOOP('',(#945,#951,#952,#953));
#945 = ORIENTED_EDGE('',*,*,#946,.T.);
#946 = EDGE_CURVE('',#594,#731,#947,.T.);
#947 = LINE('',#948,#949);
#948 = CARTESIAN_POINT('',(28.85,-52.95,12.99));
#949 = VECTOR('',#950,1.);
#950 = DIRECTION('',(0.,0.,1.));
#951 = ORIENTED_EDGE('',*,*,#730,.T.);
#952 = ORIENTED_EDGE('',*,*,#929,.F.);
#953 = ORIENTED_EDGE('',*,*,#601,.F.);
#954 = CYLINDRICAL_SURFACE('',#955,0.3);
#955 = AXIS2_PLACEMENT_3D('',#956,#957,#958);
#956 = CARTESIAN_POINT('',(29.15,-52.95,12.99));
#957 = DIRECTION('',(-0.,-0.,-1.));
#958 = DIRECTION('',(-1.,4.737E-14,0.));
#959 = ADVANCED_FACE('',(#960),#971,.T.);
#960 = FACE_BOUND('',#961,.T.);
#961 = EDGE_LOOP('',(#962,#963,#969,#970));
#962 = ORIENTED_EDGE('',*,*,#593,.F.);
#963 = ORIENTED_EDGE('',*,*,#964,.T.);
#964 = EDGE_CURVE('',#586,#740,#965,.T.);
#965 = LINE('',#966,#967);
#966 = CARTESIAN_POINT('',(28.85,-15.25,12.99));
#967 = VECTOR('',#968,1.);
#968 = DIRECTION('',(0.,0.,1.));
#969 = ORIENTED_EDGE('',*,*,#739,.T.);
#970 = ORIENTED_EDGE('',*,*,#946,.F.);
#971 = PLANE('',#972);
#972 = AXIS2_PLACEMENT_3D('',#973,#974,#975);
#973 = CARTESIAN_POINT('',(28.85,-14.95,12.99));
#974 = DIRECTION('',(1.,0.,0.));
#975 = DIRECTION('',(0.,-1.,0.));
#976 = ADVANCED_FACE('',(#977),#988,.T.);
#977 = FACE_BOUND('',#978,.T.);
#978 = EDGE_LOOP('',(#979,#980,#986,#987));
#979 = ORIENTED_EDGE('',*,*,#585,.F.);
#980 = ORIENTED_EDGE('',*,*,#981,.T.);
#981 = EDGE_CURVE('',#578,#748,#982,.T.);
#982 = LINE('',#983,#984);
#983 = CARTESIAN_POINT('',(26.5,-17.6,12.99));
#984 = VECTOR('',#985,1.);
#985 = DIRECTION('',(0.,0.,1.));
#986 = ORIENTED_EDGE('',*,*,#747,.T.);
#987 = ORIENTED_EDGE('',*,*,#964,.F.);
#988 = PLANE('',#989);
#989 = AXIS2_PLACEMENT_3D('',#990,#991,#992);
#990 = CARTESIAN_POINT('',(26.5,-17.6,12.99));
#991 = DIRECTION('',(-0.707106781187,0.707106781187,0.));
#992 = DIRECTION('',(0.707106781187,0.707106781187,0.));
#993 = ADVANCED_FACE('',(#994),#1005,.T.);
#994 = FACE_BOUND('',#995,.T.);
#995 = EDGE_LOOP('',(#996,#1002,#1003,#1004));
#996 = ORIENTED_EDGE('',*,*,#997,.T.);
#997 = EDGE_CURVE('',#570,#756,#998,.T.);
#998 = LINE('',#999,#1000);
#999 = CARTESIAN_POINT('',(26.5,-15.8,12.99));
#1000 = VECTOR('',#1001,1.);
#1001 = DIRECTION('',(0.,0.,1.));
#1002 = ORIENTED_EDGE('',*,*,#755,.T.);
#1003 = ORIENTED_EDGE('',*,*,#981,.F.);
#1004 = ORIENTED_EDGE('',*,*,#577,.F.);
#1005 = PLANE('',#1006);
#1006 = AXIS2_PLACEMENT_3D('',#1007,#1008,#1009);
#1007 = CARTESIAN_POINT('',(26.5,-15.8,12.99));
#1008 = DIRECTION('',(1.,0.,0.));
#1009 = DIRECTION('',(0.,-1.,0.));
#1010 = ADVANCED_FACE('',(#1011),#1022,.T.);
#1011 = FACE_BOUND('',#1012,.T.);
#1012 = EDGE_LOOP('',(#1013,#1019,#1020,#1021));
#1013 = ORIENTED_EDGE('',*,*,#1014,.T.);
#1014 = EDGE_CURVE('',#562,#764,#1015,.T.);
#1015 = LINE('',#1016,#1017);
#1016 = CARTESIAN_POINT('',(30.,-12.3,12.99));
#1017 = VECTOR('',#1018,1.);
#1018 = DIRECTION('',(0.,0.,1.));
#1019 = ORIENTED_EDGE('',*,*,#763,.T.);
#1020 = ORIENTED_EDGE('',*,*,#997,.F.);
#1021 = ORIENTED_EDGE('',*,*,#569,.F.);
#1022 = PLANE('',#1023);
#1023 = AXIS2_PLACEMENT_3D('',#1024,#1025,#1026);
#1024 = CARTESIAN_POINT('',(30.,-12.3,12.99));
#1025 = DIRECTION('',(0.707106781187,-0.707106781187,0.));
#1026 = DIRECTION('',(-0.707106781187,-0.707106781187,0.));
#1027 = ADVANCED_FACE('',(#1028),#1039,.T.);
#1028 = FACE_BOUND('',#1029,.T.);
#1029 = EDGE_LOOP('',(#1030,#1036,#1037,#1038));
#1030 = ORIENTED_EDGE('',*,*,#1031,.T.);
#1031 = EDGE_CURVE('',#554,#772,#1032,.T.);
#1032 = LINE('',#1033,#1034);
#1033 = CARTESIAN_POINT('',(31.8,-12.3,12.99));
#1034 = VECTOR('',#1035,1.);
#1035 = DIRECTION('',(0.,0.,1.));
#1036 = ORIENTED_EDGE('',*,*,#771,.T.);
#1037 = ORIENTED_EDGE('',*,*,#1014,.F.);
#1038 = ORIENTED_EDGE('',*,*,#561,.F.);
#1039 = PLANE('',#1040);
#1040 = AXIS2_PLACEMENT_3D('',#1041,#1042,#1043);
#1041 = CARTESIAN_POINT('',(31.8,-12.3,12.99));
#1042 = DIRECTION('',(0.,-1.,0.));
#1043 = DIRECTION('',(-1.,0.,0.));
#1044 = ADVANCED_FACE('',(#1045),#1056,.T.);
#1045 = FACE_BOUND('',#1046,.T.);
#1046 = EDGE_LOOP('',(#1047,#1048,#1054,#1055));
#1047 = ORIENTED_EDGE('',*,*,#553,.F.);
#1048 = ORIENTED_EDGE('',*,*,#1049,.F.);
#1049 = EDGE_CURVE('',#689,#546,#1050,.T.);
#1050 = LINE('',#1051,#1052);
#1051 = CARTESIAN_POINT('',(29.45,-14.65,12.99));
#1052 = VECTOR('',#1053,1.);
#1053 = DIRECTION('',(-0.,-0.,-1.));
#1054 = ORIENTED_EDGE('',*,*,#779,.T.);
#1055 = ORIENTED_EDGE('',*,*,#1031,.F.);
#1056 = PLANE('',#1057);
#1057 = AXIS2_PLACEMENT_3D('',#1058,#1059,#1060);
#1058 = CARTESIAN_POINT('',(26.5,-17.6,12.99));
#1059 = DIRECTION('',(-0.707106781187,0.707106781187,0.));
#1060 = DIRECTION('',(0.707106781187,0.707106781187,0.));
#1061 = ADVANCED_FACE('',(#1062),#1068,.T.);
#1062 = FACE_BOUND('',#1063,.T.);
#1063 = EDGE_LOOP('',(#1064,#1065,#1066,#1067));
#1064 = ORIENTED_EDGE('',*,*,#545,.F.);
#1065 = ORIENTED_EDGE('',*,*,#880,.T.);
#1066 = ORIENTED_EDGE('',*,*,#686,.T.);
#1067 = ORIENTED_EDGE('',*,*,#1049,.T.);
#1068 = PLANE('',#1069);
#1069 = AXIS2_PLACEMENT_3D('',#1070,#1071,#1072);
#1070 = CARTESIAN_POINT('',(45.25,-14.65,12.99));
#1071 = DIRECTION('',(0.,-1.,0.));
#1072 = DIRECTION('',(-1.,0.,0.));
#1073 = ( GEOMETRIC_REPRESENTATION_CONTEXT(3) 
GLOBAL_UNCERTAINTY_ASSIGNED_CONTEXT((#1077)) 
GLOBAL_UNIT_ASSIGNED_CONTEXT((#1074,#1075,#1076)) REPRESENTATION_CONTEXT
('Context #1','3D Context with UNIT and UNCERTAINTY') );
#1074 = ( LENGTH_UNIT() NAMED_UNIT(*) SI_UNIT(.MILLI.,.METRE.) );
#1075 = ( NAMED_UNIT(*) PLANE_ANGLE_UNIT() SI_UNIT($,.RADIAN.) );
#1076 = ( NAMED_UNIT(*) SI_UNIT($,.STERADIAN.) SOLID_ANGLE_UNIT() );
#1077 = UNCERTAINTY_MEASURE_WITH_UNIT(LENGTH_MEASURE(1.E-05),#1074,
  'distance_accuracy_value','confusion accuracy');
#1078 = PRODUCT_RELATED_PRODUCT_CATEGORY('part',$,(#7));
ENDSEC;
END-ISO-10303-21;
