ISO-10303-21;
HEADER;
FILE_DESCRIPTION(('FreeCAD Model'),'2;1');
FILE_NAME('Open CASCADE Shape Model','2026-09-28T17:28:24',('FreeCAD'),(
    'FreeCAD'),'Open CASCADE STEP processor 7.8','FreeCAD','Unknown');
FILE_SCHEMA(('AUTOMOTIVE_DESIGN { 1 0 10303 214 1 1 1 1 }'));
ENDSEC;
DATA;
#1 = APPLICATION_PROTOCOL_DEFINITION('international standard',
  'automotive_design',2000,#2);
#2 = APPLICATION_CONTEXT(
  'core data for automotive mechanical design processes');
#3 = SHAPE_DEFINITION_REPRESENTATION(#4,#10);
#4 = PRODUCT_DEFINITION_SHAPE('','',#5);
#5 = PRODUCT_DEFINITION('design','',#6,#9);
#6 = PRODUCT_DEFINITION_FORMATION('','',#7);
#7 = PRODUCT('Open CASCADE STEP translator 7.8 98',
  'Open CASCADE STEP translator 7.8 98','',(#8));
#8 = PRODUCT_CONTEXT('',#2,'mechanical');
#9 = PRODUCT_DEFINITION_CONTEXT('part definition',#2,'design');
#10 = ADVANCED_BREP_SHAPE_REPRESENTATION('',(#11,#15),#371);
#11 = AXIS2_PLACEMENT_3D('',#12,#13,#14);
#12 = CARTESIAN_POINT('',(0.,0.,0.));
#13 = DIRECTION('',(0.,0.,1.));
#14 = DIRECTION('',(1.,0.,-0.));
#15 = MANIFOLD_SOLID_BREP('',#16);
#16 = CLOSED_SHELL('',(#17,#62,#98,#134,#198,#262,#282,#302,#322,#339,
    #354));
#17 = ADVANCED_FACE('',(#18),#54,.T.);
#18 = FACE_BOUND('',#19,.T.);
#19 = EDGE_LOOP('',(#20,#30,#39,#47));
#20 = ORIENTED_EDGE('',*,*,#21,.T.);
#21 = EDGE_CURVE('',#22,#24,#26,.T.);
#22 = VERTEX_POINT('',#23);
#23 = CARTESIAN_POINT('',(47.55,-32.5,12.99));
#24 = VERTEX_POINT('',#25);
#25 = CARTESIAN_POINT('',(47.55,-32.5,13.39));
#26 = LINE('',#27,#28);
#27 = CARTESIAN_POINT('',(47.55,-32.5,12.99));
#28 = VECTOR('',#29,1.);
#29 = DIRECTION('',(0.,0.,1.));
#30 = ORIENTED_EDGE('',*,*,#31,.T.);
#31 = EDGE_CURVE('',#24,#32,#34,.T.);
#32 = VERTEX_POINT('',#33);
#33 = CARTESIAN_POINT('',(45.85,-54.5,13.39));
#34 = B_SPLINE_CURVE_WITH_KNOTS('',3,(#35,#36,#37,#38),.UNSPECIFIED.,.F.
  ,.F.,(4,4),(0.,1.),.PIECEWISE_BEZIER_KNOTS.);
#35 = CARTESIAN_POINT('',(47.55,-32.5,13.39));
#36 = CARTESIAN_POINT('',(47.5,-44.,13.39));
#37 = CARTESIAN_POINT('',(47.1,-50.9,13.39));
#38 = CARTESIAN_POINT('',(45.85,-54.5,13.39));
#39 = ORIENTED_EDGE('',*,*,#40,.F.);
#40 = EDGE_CURVE('',#41,#32,#43,.T.);
#41 = VERTEX_POINT('',#42);
#42 = CARTESIAN_POINT('',(45.85,-54.5,12.99));
#43 = LINE('',#44,#45);
#44 = CARTESIAN_POINT('',(45.85,-54.5,12.99));
#45 = VECTOR('',#46,1.);
#46 = DIRECTION('',(0.,0.,1.));
#47 = ORIENTED_EDGE('',*,*,#48,.F.);
#48 = EDGE_CURVE('',#22,#41,#49,.T.);
#49 = B_SPLINE_CURVE_WITH_KNOTS('',3,(#50,#51,#52,#53),.UNSPECIFIED.,.F.
  ,.F.,(4,4),(0.,1.),.PIECEWISE_BEZIER_KNOTS.);
#50 = CARTESIAN_POINT('',(47.55,-32.5,12.99));
#51 = CARTESIAN_POINT('',(47.5,-44.,12.99));
#52 = CARTESIAN_POINT('',(47.1,-50.9,12.99));
#53 = CARTESIAN_POINT('',(45.85,-54.5,12.99));
#54 = SURFACE_OF_LINEAR_EXTRUSION('',#55,#60);
#55 = B_SPLINE_CURVE_WITH_KNOTS('',3,(#56,#57,#58,#59),.UNSPECIFIED.,.F.
  ,.F.,(4,4),(0.,1.),.PIECEWISE_BEZIER_KNOTS.);
#56 = CARTESIAN_POINT('',(47.55,-32.5,12.99));
#57 = CARTESIAN_POINT('',(47.5,-44.,12.99));
#58 = CARTESIAN_POINT('',(47.1,-50.9,12.99));
#59 = CARTESIAN_POINT('',(45.85,-54.5,12.99));
#60 = VECTOR('',#61,1.);
#61 = DIRECTION('',(-0.,-0.,-1.));
#62 = ADVANCED_FACE('',(#63),#90,.T.);
#63 = FACE_BOUND('',#64,.T.);
#64 = EDGE_LOOP('',(#65,#75,#82,#83));
#65 = ORIENTED_EDGE('',*,*,#66,.T.);
#66 = EDGE_CURVE('',#67,#69,#71,.T.);
#67 = VERTEX_POINT('',#68);
#68 = CARTESIAN_POINT('',(42.2,-57.5,12.99));
#69 = VERTEX_POINT('',#70);
#70 = CARTESIAN_POINT('',(42.2,-57.5,13.39));
#71 = LINE('',#72,#73);
#72 = CARTESIAN_POINT('',(42.2,-57.5,12.99));
#73 = VECTOR('',#74,1.);
#74 = DIRECTION('',(0.,0.,1.));
#75 = ORIENTED_EDGE('',*,*,#76,.T.);
#76 = EDGE_CURVE('',#69,#24,#77,.T.);
#77 = B_SPLINE_CURVE_WITH_KNOTS('',3,(#78,#79,#80,#81),.UNSPECIFIED.,.F.
  ,.F.,(4,4),(0.,1.),.PIECEWISE_BEZIER_KNOTS.);
#78 = CARTESIAN_POINT('',(42.2,-57.5,13.39));
#79 = CARTESIAN_POINT('',(46.5,-54.5,13.39));
#80 = CARTESIAN_POINT('',(46.8,-48.4,13.39));
#81 = CARTESIAN_POINT('',(47.55,-32.5,13.39));
#82 = ORIENTED_EDGE('',*,*,#21,.F.);
#83 = ORIENTED_EDGE('',*,*,#84,.F.);
#84 = EDGE_CURVE('',#67,#22,#85,.T.);
#85 = B_SPLINE_CURVE_WITH_KNOTS('',3,(#86,#87,#88,#89),.UNSPECIFIED.,.F.
  ,.F.,(4,4),(0.,1.),.PIECEWISE_BEZIER_KNOTS.);
#86 = CARTESIAN_POINT('',(42.2,-57.5,12.99));
#87 = CARTESIAN_POINT('',(46.5,-54.5,12.99));
#88 = CARTESIAN_POINT('',(46.8,-48.4,12.99));
#89 = CARTESIAN_POINT('',(47.55,-32.5,12.99));
#90 = SURFACE_OF_LINEAR_EXTRUSION('',#91,#96);
#91 = B_SPLINE_CURVE_WITH_KNOTS('',3,(#92,#93,#94,#95),.UNSPECIFIED.,.F.
  ,.F.,(4,4),(0.,1.),.PIECEWISE_BEZIER_KNOTS.);
#92 = CARTESIAN_POINT('',(42.2,-57.5,12.99));
#93 = CARTESIAN_POINT('',(46.5,-54.5,12.99));
#94 = CARTESIAN_POINT('',(46.8,-48.4,12.99));
#95 = CARTESIAN_POINT('',(47.55,-32.5,12.99));
#96 = VECTOR('',#97,1.);
#97 = DIRECTION('',(-0.,-0.,-1.));
#98 = ADVANCED_FACE('',(#99),#126,.T.);
#99 = FACE_BOUND('',#100,.T.);
#100 = EDGE_LOOP('',(#101,#102,#111,#119));
#101 = ORIENTED_EDGE('',*,*,#40,.T.);
#102 = ORIENTED_EDGE('',*,*,#103,.T.);
#103 = EDGE_CURVE('',#32,#104,#106,.T.);
#104 = VERTEX_POINT('',#105);
#105 = CARTESIAN_POINT('',(32.,-64.1,13.39));
#106 = B_SPLINE_CURVE_WITH_KNOTS('',3,(#107,#108,#109,#110),
  .UNSPECIFIED.,.F.,.F.,(4,4),(0.,1.),.PIECEWISE_BEZIER_KNOTS.);
#107 = CARTESIAN_POINT('',(45.85,-54.5,13.39));
#108 = CARTESIAN_POINT('',(43.5,-62.9,13.39));
#109 = CARTESIAN_POINT('',(38.9,-66.1,13.39));
#110 = CARTESIAN_POINT('',(32.,-64.1,13.39));
#111 = ORIENTED_EDGE('',*,*,#112,.F.);
#112 = EDGE_CURVE('',#113,#104,#115,.T.);
#113 = VERTEX_POINT('',#114);
#114 = CARTESIAN_POINT('',(32.,-64.1,12.99));
#115 = LINE('',#116,#117);
#116 = CARTESIAN_POINT('',(32.,-64.1,12.99));
#117 = VECTOR('',#118,1.);
#118 = DIRECTION('',(0.,0.,1.));
#119 = ORIENTED_EDGE('',*,*,#120,.F.);
#120 = EDGE_CURVE('',#41,#113,#121,.T.);
#121 = B_SPLINE_CURVE_WITH_KNOTS('',3,(#122,#123,#124,#125),
  .UNSPECIFIED.,.F.,.F.,(4,4),(0.,1.),.PIECEWISE_BEZIER_KNOTS.);
#122 = CARTESIAN_POINT('',(45.85,-54.5,12.99));
#123 = CARTESIAN_POINT('',(43.5,-62.9,12.99));
#124 = CARTESIAN_POINT('',(38.9,-66.1,12.99));
#125 = CARTESIAN_POINT('',(32.,-64.1,12.99));
#126 = SURFACE_OF_LINEAR_EXTRUSION('',#127,#132);
#127 = B_SPLINE_CURVE_WITH_KNOTS('',3,(#128,#129,#130,#131),
  .UNSPECIFIED.,.F.,.F.,(4,4),(0.,1.),.PIECEWISE_BEZIER_KNOTS.);
#128 = CARTESIAN_POINT('',(45.85,-54.5,12.99));
#129 = CARTESIAN_POINT('',(43.5,-62.9,12.99));
#130 = CARTESIAN_POINT('',(38.9,-66.1,12.99));
#131 = CARTESIAN_POINT('',(32.,-64.1,12.99));
#132 = VECTOR('',#133,1.);
#133 = DIRECTION('',(-0.,-0.,-1.));
#134 = ADVANCED_FACE('',(#135,#182),#193,.F.);
#135 = FACE_BOUND('',#136,.F.);
#136 = EDGE_LOOP('',(#137,#138,#139,#148,#157,#166,#174,#181));
#137 = ORIENTED_EDGE('',*,*,#48,.F.);
#138 = ORIENTED_EDGE('',*,*,#84,.F.);
#139 = ORIENTED_EDGE('',*,*,#140,.F.);
#140 = EDGE_CURVE('',#141,#67,#143,.T.);
#141 = VERTEX_POINT('',#142);
#142 = CARTESIAN_POINT('',(37.5,-56.5,12.99));
#143 = B_SPLINE_CURVE_WITH_KNOTS('',3,(#144,#145,#146,#147),
  .UNSPECIFIED.,.F.,.F.,(4,4),(0.,1.),.PIECEWISE_BEZIER_KNOTS.);
#144 = CARTESIAN_POINT('',(37.5,-56.5,12.99));
#145 = CARTESIAN_POINT('',(40.6,-56.5,12.99));
#146 = CARTESIAN_POINT('',(40.4,-59.5,12.99));
#147 = CARTESIAN_POINT('',(42.2,-57.5,12.99));
#148 = ORIENTED_EDGE('',*,*,#149,.F.);
#149 = EDGE_CURVE('',#150,#141,#152,.T.);
#150 = VERTEX_POINT('',#151);
#151 = CARTESIAN_POINT('',(33.3,-60.7,12.99));
#152 = B_SPLINE_CURVE_WITH_KNOTS('',3,(#153,#154,#155,#156),
  .UNSPECIFIED.,.F.,.F.,(4,4),(0.,1.),.PIECEWISE_BEZIER_KNOTS.);
#153 = CARTESIAN_POINT('',(33.3,-60.7,12.99));
#154 = CARTESIAN_POINT('',(34.4,-60.5,12.99));
#155 = CARTESIAN_POINT('',(34.1,-56.5,12.99));
#156 = CARTESIAN_POINT('',(37.5,-56.5,12.99));
#157 = ORIENTED_EDGE('',*,*,#158,.F.);
#158 = EDGE_CURVE('',#159,#150,#161,.T.);
#159 = VERTEX_POINT('',#160);
#160 = CARTESIAN_POINT('',(26.5,-55.8,12.99));
#161 = B_SPLINE_CURVE_WITH_KNOTS('',3,(#162,#163,#164,#165),
  .UNSPECIFIED.,.F.,.F.,(4,4),(0.,1.),.PIECEWISE_BEZIER_KNOTS.);
#162 = CARTESIAN_POINT('',(26.5,-55.8,12.99));
#163 = CARTESIAN_POINT('',(28.4,-59.8,12.99));
#164 = CARTESIAN_POINT('',(30.9,-61.1,12.99));
#165 = CARTESIAN_POINT('',(33.3,-60.7,12.99));
#166 = ORIENTED_EDGE('',*,*,#167,.F.);
#167 = EDGE_CURVE('',#168,#159,#170,.T.);
#168 = VERTEX_POINT('',#169);
#169 = CARTESIAN_POINT('',(26.5,-61.1,12.99));
#170 = LINE('',#171,#172);
#171 = CARTESIAN_POINT('',(26.5,-61.1,12.99));
#172 = VECTOR('',#173,1.);
#173 = DIRECTION('',(0.,1.,0.));
#174 = ORIENTED_EDGE('',*,*,#175,.F.);
#175 = EDGE_CURVE('',#113,#168,#176,.T.);
#176 = B_SPLINE_CURVE_WITH_KNOTS('',3,(#177,#178,#179,#180),
  .UNSPECIFIED.,.F.,.F.,(4,4),(0.,1.),.PIECEWISE_BEZIER_KNOTS.);
#177 = CARTESIAN_POINT('',(32.,-64.1,12.99));
#178 = CARTESIAN_POINT('',(29.8,-63.6,12.99));
#179 = CARTESIAN_POINT('',(27.5,-62.5,12.99));
#180 = CARTESIAN_POINT('',(26.5,-61.1,12.99));
#181 = ORIENTED_EDGE('',*,*,#120,.F.);
#182 = FACE_BOUND('',#183,.F.);
#183 = EDGE_LOOP('',(#184));
#184 = ORIENTED_EDGE('',*,*,#185,.F.);
#185 = EDGE_CURVE('',#186,#186,#188,.T.);
#186 = VERTEX_POINT('',#187);
#187 = CARTESIAN_POINT('',(39.8,-60.4,12.99));
#188 = CIRCLE('',#189,2.6);
#189 = AXIS2_PLACEMENT_3D('',#190,#191,#192);
#190 = CARTESIAN_POINT('',(37.2,-60.4,12.99));
#191 = DIRECTION('',(0.,0.,1.));
#192 = DIRECTION('',(1.,0.,0.));
#193 = PLANE('',#194);
#194 = AXIS2_PLACEMENT_3D('',#195,#196,#197);
#195 = CARTESIAN_POINT('',(40.55146160232,-52.52588204065,12.99));
#196 = DIRECTION('',(0.,0.,1.));
#197 = DIRECTION('',(1.,0.,0.));
#198 = ADVANCED_FACE('',(#199,#246),#257,.T.);
#199 = FACE_BOUND('',#200,.T.);
#200 = EDGE_LOOP('',(#201,#202,#203,#212,#221,#230,#238,#245));
#201 = ORIENTED_EDGE('',*,*,#31,.F.);
#202 = ORIENTED_EDGE('',*,*,#76,.F.);
#203 = ORIENTED_EDGE('',*,*,#204,.F.);
#204 = EDGE_CURVE('',#205,#69,#207,.T.);
#205 = VERTEX_POINT('',#206);
#206 = CARTESIAN_POINT('',(37.5,-56.5,13.39));
#207 = B_SPLINE_CURVE_WITH_KNOTS('',3,(#208,#209,#210,#211),
  .UNSPECIFIED.,.F.,.F.,(4,4),(0.,1.),.PIECEWISE_BEZIER_KNOTS.);
#208 = CARTESIAN_POINT('',(37.5,-56.5,13.39));
#209 = CARTESIAN_POINT('',(40.6,-56.5,13.39));
#210 = CARTESIAN_POINT('',(40.4,-59.5,13.39));
#211 = CARTESIAN_POINT('',(42.2,-57.5,13.39));
#212 = ORIENTED_EDGE('',*,*,#213,.F.);
#213 = EDGE_CURVE('',#214,#205,#216,.T.);
#214 = VERTEX_POINT('',#215);
#215 = CARTESIAN_POINT('',(33.3,-60.7,13.39));
#216 = B_SPLINE_CURVE_WITH_KNOTS('',3,(#217,#218,#219,#220),
  .UNSPECIFIED.,.F.,.F.,(4,4),(0.,1.),.PIECEWISE_BEZIER_KNOTS.);
#217 = CARTESIAN_POINT('',(33.3,-60.7,13.39));
#218 = CARTESIAN_POINT('',(34.4,-60.5,13.39));
#219 = CARTESIAN_POINT('',(34.1,-56.5,13.39));
#220 = CARTESIAN_POINT('',(37.5,-56.5,13.39));
#221 = ORIENTED_EDGE('',*,*,#222,.F.);
#222 = EDGE_CURVE('',#223,#214,#225,.T.);
#223 = VERTEX_POINT('',#224);
#224 = CARTESIAN_POINT('',(26.5,-55.8,13.39));
#225 = B_SPLINE_CURVE_WITH_KNOTS('',3,(#226,#227,#228,#229),
  .UNSPECIFIED.,.F.,.F.,(4,4),(0.,1.),.PIECEWISE_BEZIER_KNOTS.);
#226 = CARTESIAN_POINT('',(26.5,-55.8,13.39));
#227 = CARTESIAN_POINT('',(28.4,-59.8,13.39));
#228 = CARTESIAN_POINT('',(30.9,-61.1,13.39));
#229 = CARTESIAN_POINT('',(33.3,-60.7,13.39));
#230 = ORIENTED_EDGE('',*,*,#231,.F.);
#231 = EDGE_CURVE('',#232,#223,#234,.T.);
#232 = VERTEX_POINT('',#233);
#233 = CARTESIAN_POINT('',(26.5,-61.1,13.39));
#234 = LINE('',#235,#236);
#235 = CARTESIAN_POINT('',(26.5,-61.1,13.39));
#236 = VECTOR('',#237,1.);
#237 = DIRECTION('',(0.,1.,0.));
#238 = ORIENTED_EDGE('',*,*,#239,.F.);
#239 = EDGE_CURVE('',#104,#232,#240,.T.);
#240 = B_SPLINE_CURVE_WITH_KNOTS('',3,(#241,#242,#243,#244),
  .UNSPECIFIED.,.F.,.F.,(4,4),(0.,1.),.PIECEWISE_BEZIER_KNOTS.);
#241 = CARTESIAN_POINT('',(32.,-64.1,13.39));
#242 = CARTESIAN_POINT('',(29.8,-63.6,13.39));
#243 = CARTESIAN_POINT('',(27.5,-62.5,13.39));
#244 = CARTESIAN_POINT('',(26.5,-61.1,13.39));
#245 = ORIENTED_EDGE('',*,*,#103,.F.);
#246 = FACE_BOUND('',#247,.T.);
#247 = EDGE_LOOP('',(#248));
#248 = ORIENTED_EDGE('',*,*,#249,.F.);
#249 = EDGE_CURVE('',#250,#250,#252,.T.);
#250 = VERTEX_POINT('',#251);
#251 = CARTESIAN_POINT('',(39.8,-60.4,13.39));
#252 = CIRCLE('',#253,2.6);
#253 = AXIS2_PLACEMENT_3D('',#254,#255,#256);
#254 = CARTESIAN_POINT('',(37.2,-60.4,13.39));
#255 = DIRECTION('',(0.,0.,1.));
#256 = DIRECTION('',(1.,0.,0.));
#257 = PLANE('',#258);
#258 = AXIS2_PLACEMENT_3D('',#259,#260,#261);
#259 = CARTESIAN_POINT('',(40.55146160232,-52.52588204065,13.39));
#260 = DIRECTION('',(0.,0.,1.));
#261 = DIRECTION('',(1.,0.,0.));
#262 = ADVANCED_FACE('',(#263),#274,.T.);
#263 = FACE_BOUND('',#264,.T.);
#264 = EDGE_LOOP('',(#265,#271,#272,#273));
#265 = ORIENTED_EDGE('',*,*,#266,.T.);
#266 = EDGE_CURVE('',#141,#205,#267,.T.);
#267 = LINE('',#268,#269);
#268 = CARTESIAN_POINT('',(37.5,-56.5,12.99));
#269 = VECTOR('',#270,1.);
#270 = DIRECTION('',(0.,0.,1.));
#271 = ORIENTED_EDGE('',*,*,#204,.T.);
#272 = ORIENTED_EDGE('',*,*,#66,.F.);
#273 = ORIENTED_EDGE('',*,*,#140,.F.);
#274 = SURFACE_OF_LINEAR_EXTRUSION('',#275,#280);
#275 = B_SPLINE_CURVE_WITH_KNOTS('',3,(#276,#277,#278,#279),
  .UNSPECIFIED.,.F.,.F.,(4,4),(0.,1.),.PIECEWISE_BEZIER_KNOTS.);
#276 = CARTESIAN_POINT('',(37.5,-56.5,12.99));
#277 = CARTESIAN_POINT('',(40.6,-56.5,12.99));
#278 = CARTESIAN_POINT('',(40.4,-59.5,12.99));
#279 = CARTESIAN_POINT('',(42.2,-57.5,12.99));
#280 = VECTOR('',#281,1.);
#281 = DIRECTION('',(-0.,-0.,-1.));
#282 = ADVANCED_FACE('',(#283),#294,.T.);
#283 = FACE_BOUND('',#284,.T.);
#284 = EDGE_LOOP('',(#285,#286,#287,#293));
#285 = ORIENTED_EDGE('',*,*,#112,.T.);
#286 = ORIENTED_EDGE('',*,*,#239,.T.);
#287 = ORIENTED_EDGE('',*,*,#288,.F.);
#288 = EDGE_CURVE('',#168,#232,#289,.T.);
#289 = LINE('',#290,#291);
#290 = CARTESIAN_POINT('',(26.5,-61.1,12.99));
#291 = VECTOR('',#292,1.);
#292 = DIRECTION('',(0.,0.,1.));
#293 = ORIENTED_EDGE('',*,*,#175,.F.);
#294 = SURFACE_OF_LINEAR_EXTRUSION('',#295,#300);
#295 = B_SPLINE_CURVE_WITH_KNOTS('',3,(#296,#297,#298,#299),
  .UNSPECIFIED.,.F.,.F.,(4,4),(0.,1.),.PIECEWISE_BEZIER_KNOTS.);
#296 = CARTESIAN_POINT('',(32.,-64.1,12.99));
#297 = CARTESIAN_POINT('',(29.8,-63.6,12.99));
#298 = CARTESIAN_POINT('',(27.5,-62.5,12.99));
#299 = CARTESIAN_POINT('',(26.5,-61.1,12.99));
#300 = VECTOR('',#301,1.);
#301 = DIRECTION('',(-0.,-0.,-1.));
#302 = ADVANCED_FACE('',(#303),#314,.T.);
#303 = FACE_BOUND('',#304,.T.);
#304 = EDGE_LOOP('',(#305,#311,#312,#313));
#305 = ORIENTED_EDGE('',*,*,#306,.T.);
#306 = EDGE_CURVE('',#150,#214,#307,.T.);
#307 = LINE('',#308,#309);
#308 = CARTESIAN_POINT('',(33.3,-60.7,12.99));
#309 = VECTOR('',#310,1.);
#310 = DIRECTION('',(0.,0.,1.));
#311 = ORIENTED_EDGE('',*,*,#213,.T.);
#312 = ORIENTED_EDGE('',*,*,#266,.F.);
#313 = ORIENTED_EDGE('',*,*,#149,.F.);
#314 = SURFACE_OF_LINEAR_EXTRUSION('',#315,#320);
#315 = B_SPLINE_CURVE_WITH_KNOTS('',3,(#316,#317,#318,#319),
  .UNSPECIFIED.,.F.,.F.,(4,4),(0.,1.),.PIECEWISE_BEZIER_KNOTS.);
#316 = CARTESIAN_POINT('',(33.3,-60.7,12.99));
#317 = CARTESIAN_POINT('',(34.4,-60.5,12.99));
#318 = CARTESIAN_POINT('',(34.1,-56.5,12.99));
#319 = CARTESIAN_POINT('',(37.5,-56.5,12.99));
#320 = VECTOR('',#321,1.);
#321 = DIRECTION('',(-0.,-0.,-1.));
#322 = ADVANCED_FACE('',(#323),#334,.T.);
#323 = FACE_BOUND('',#324,.T.);
#324 = EDGE_LOOP('',(#325,#326,#327,#333));
#325 = ORIENTED_EDGE('',*,*,#288,.T.);
#326 = ORIENTED_EDGE('',*,*,#231,.T.);
#327 = ORIENTED_EDGE('',*,*,#328,.F.);
#328 = EDGE_CURVE('',#159,#223,#329,.T.);
#329 = LINE('',#330,#331);
#330 = CARTESIAN_POINT('',(26.5,-55.8,12.99));
#331 = VECTOR('',#332,1.);
#332 = DIRECTION('',(0.,0.,1.));
#333 = ORIENTED_EDGE('',*,*,#167,.F.);
#334 = PLANE('',#335);
#335 = AXIS2_PLACEMENT_3D('',#336,#337,#338);
#336 = CARTESIAN_POINT('',(26.5,-61.1,12.99));
#337 = DIRECTION('',(-1.,0.,0.));
#338 = DIRECTION('',(0.,1.,0.));
#339 = ADVANCED_FACE('',(#340),#346,.T.);
#340 = FACE_BOUND('',#341,.T.);
#341 = EDGE_LOOP('',(#342,#343,#344,#345));
#342 = ORIENTED_EDGE('',*,*,#328,.T.);
#343 = ORIENTED_EDGE('',*,*,#222,.T.);
#344 = ORIENTED_EDGE('',*,*,#306,.F.);
#345 = ORIENTED_EDGE('',*,*,#158,.F.);
#346 = SURFACE_OF_LINEAR_EXTRUSION('',#347,#352);
#347 = B_SPLINE_CURVE_WITH_KNOTS('',3,(#348,#349,#350,#351),
  .UNSPECIFIED.,.F.,.F.,(4,4),(0.,1.),.PIECEWISE_BEZIER_KNOTS.);
#348 = CARTESIAN_POINT('',(26.5,-55.8,12.99));
#349 = CARTESIAN_POINT('',(28.4,-59.8,12.99));
#350 = CARTESIAN_POINT('',(30.9,-61.1,12.99));
#351 = CARTESIAN_POINT('',(33.3,-60.7,12.99));
#352 = VECTOR('',#353,1.);
#353 = DIRECTION('',(-0.,-0.,-1.));
#354 = ADVANCED_FACE('',(#355),#366,.F.);
#355 = FACE_BOUND('',#356,.T.);
#356 = EDGE_LOOP('',(#357,#363,#364,#365));
#357 = ORIENTED_EDGE('',*,*,#358,.T.);
#358 = EDGE_CURVE('',#186,#250,#359,.T.);
#359 = LINE('',#360,#361);
#360 = CARTESIAN_POINT('',(39.8,-60.4,12.99));
#361 = VECTOR('',#362,1.);
#362 = DIRECTION('',(0.,0.,1.));
#363 = ORIENTED_EDGE('',*,*,#249,.T.);
#364 = ORIENTED_EDGE('',*,*,#358,.F.);
#365 = ORIENTED_EDGE('',*,*,#185,.F.);
#366 = CYLINDRICAL_SURFACE('',#367,2.6);
#367 = AXIS2_PLACEMENT_3D('',#368,#369,#370);
#368 = CARTESIAN_POINT('',(37.2,-60.4,12.99));
#369 = DIRECTION('',(-0.,-0.,-1.));
#370 = DIRECTION('',(1.,0.,0.));
#371 = ( GEOMETRIC_REPRESENTATION_CONTEXT(3) 
GLOBAL_UNCERTAINTY_ASSIGNED_CONTEXT((#375)) GLOBAL_UNIT_ASSIGNED_CONTEXT
((#372,#373,#374)) REPRESENTATION_CONTEXT('Context #1',
  '3D Context with UNIT and UNCERTAINTY') );
#372 = ( LENGTH_UNIT() NAMED_UNIT(*) SI_UNIT(.MILLI.,.METRE.) );
#373 = ( NAMED_UNIT(*) PLANE_ANGLE_UNIT() SI_UNIT($,.RADIAN.) );
#374 = ( NAMED_UNIT(*) SI_UNIT($,.STERADIAN.) SOLID_ANGLE_UNIT() );
#375 = UNCERTAINTY_MEASURE_WITH_UNIT(LENGTH_MEASURE(1.E-07),#372,
  'distance_accuracy_value','confusion accuracy');
#376 = PRODUCT_RELATED_PRODUCT_CATEGORY('part',$,(#7));
ENDSEC;
END-ISO-10303-21;
