ISO-10303-21;
HEADER;
FILE_DESCRIPTION(('FreeCAD Model'),'2;1');
FILE_NAME('Open CASCADE Shape Model','2026-10-07T22:42:05',('FreeCAD'),(
    'FreeCAD'),'Open CASCADE STEP processor 7.8','FreeCAD','Unknown');
FILE_SCHEMA(('AUTOMOTIVE_DESIGN { 1 0 10303 214 1 1 1 1 }'));
ENDSEC;
DATA;
#1 = APPLICATION_PROTOCOL_DEFINITION('international standard',
  'automotive_design',2000,#2);
#2 = APPLICATION_CONTEXT(
  'core data for automotive mechanical design processes');
#3 = SHAPE_DEFINITION_REPRESENTATION(#4,#10);
#4 = PRODUCT_DEFINITION_SHAPE('','',#5);
#5 = PRODUCT_DEFINITION('design','',#6,#9);
#6 = PRODUCT_DEFINITION_FORMATION('','',#7);
#7 = PRODUCT('Open CASCADE STEP translator 7.8 148',
  'Open CASCADE STEP translator 7.8 148','',(#8));
#8 = PRODUCT_CONTEXT('',#2,'mechanical');
#9 = PRODUCT_DEFINITION_CONTEXT('part definition',#2,'design');
#10 = SHAPE_REPRESENTATION('',(#11,#15,#155),#479);
#11 = AXIS2_PLACEMENT_3D('',#12,#13,#14);
#12 = CARTESIAN_POINT('',(0.,0.,0.));
#13 = DIRECTION('',(0.,0.,1.));
#14 = DIRECTION('',(1.,0.,-0.));
#15 = MANIFOLD_SOLID_BREP('',#16);
#16 = CLOSED_SHELL('',(#17,#60,#91,#107,#145));
#17 = ADVANCED_FACE('',(#18),#55,.F.);
#18 = FACE_BOUND('',#19,.F.);
#19 = EDGE_LOOP('',(#20,#30,#39,#48));
#20 = ORIENTED_EDGE('',*,*,#21,.F.);
#21 = EDGE_CURVE('',#22,#24,#26,.T.);
#22 = VERTEX_POINT('',#23);
#23 = CARTESIAN_POINT('',(37.994987437107,-15.1,13.19));
#24 = VERTEX_POINT('',#25);
#25 = CARTESIAN_POINT('',(36.005012562893,-15.1,13.19));
#26 = LINE('',#27,#28);
#27 = CARTESIAN_POINT('',(14.525,-15.1,13.19));
#28 = VECTOR('',#29,1.);
#29 = DIRECTION('',(-1.,0.,0.));
#30 = ORIENTED_EDGE('',*,*,#31,.F.);
#31 = EDGE_CURVE('',#32,#22,#34,.T.);
#32 = VERTEX_POINT('',#33);
#33 = CARTESIAN_POINT('',(38.8,-13.6,13.19));
#34 = CIRCLE('',#35,1.8);
#35 = AXIS2_PLACEMENT_3D('',#36,#37,#38);
#36 = CARTESIAN_POINT('',(37.,-13.6,13.19));
#37 = DIRECTION('',(0.,0.,-1.));
#38 = DIRECTION('',(1.,1.97E-15,0.));
#39 = ORIENTED_EDGE('',*,*,#40,.F.);
#40 = EDGE_CURVE('',#41,#32,#43,.T.);
#41 = VERTEX_POINT('',#42);
#42 = CARTESIAN_POINT('',(35.2,-13.6,13.19));
#43 = CIRCLE('',#44,1.8);
#44 = AXIS2_PLACEMENT_3D('',#45,#46,#47);
#45 = CARTESIAN_POINT('',(37.,-13.6,13.19));
#46 = DIRECTION('',(0.,0.,-1.));
#47 = DIRECTION('',(-1.,-9.9E-16,-0.));
#48 = ORIENTED_EDGE('',*,*,#49,.F.);
#49 = EDGE_CURVE('',#24,#41,#50,.T.);
#50 = CIRCLE('',#51,1.8);
#51 = AXIS2_PLACEMENT_3D('',#52,#53,#54);
#52 = CARTESIAN_POINT('',(37.,-13.6,13.19));
#53 = DIRECTION('',(0.,0.,-1.));
#54 = DIRECTION('',(1.,1.97E-15,0.));
#55 = PLANE('',#56);
#56 = AXIS2_PLACEMENT_3D('',#57,#58,#59);
#57 = CARTESIAN_POINT('',(0.,-120.,13.19));
#58 = DIRECTION('',(0.,0.,1.));
#59 = DIRECTION('',(1.,0.,0.));
#60 = ADVANCED_FACE('',(#61),#86,.T.);
#61 = FACE_BOUND('',#62,.T.);
#62 = EDGE_LOOP('',(#63,#71,#79,#85));
#63 = ORIENTED_EDGE('',*,*,#64,.T.);
#64 = EDGE_CURVE('',#22,#65,#67,.T.);
#65 = VERTEX_POINT('',#66);
#66 = CARTESIAN_POINT('',(37.994987437107,-15.1,12.725));
#67 = LINE('',#68,#69);
#68 = CARTESIAN_POINT('',(37.994987437107,-15.1,0.));
#69 = VECTOR('',#70,1.);
#70 = DIRECTION('',(0.,0.,-1.));
#71 = ORIENTED_EDGE('',*,*,#72,.F.);
#72 = EDGE_CURVE('',#73,#65,#75,.T.);
#73 = VERTEX_POINT('',#74);
#74 = CARTESIAN_POINT('',(36.005012562893,-15.1,12.725));
#75 = LINE('',#76,#77);
#76 = CARTESIAN_POINT('',(29.05,-15.1,12.725));
#77 = VECTOR('',#78,1.);
#78 = DIRECTION('',(1.,0.,0.));
#79 = ORIENTED_EDGE('',*,*,#80,.F.);
#80 = EDGE_CURVE('',#24,#73,#81,.T.);
#81 = LINE('',#82,#83);
#82 = CARTESIAN_POINT('',(36.005012562893,-15.1,0.));
#83 = VECTOR('',#84,1.);
#84 = DIRECTION('',(0.,0.,-1.));
#85 = ORIENTED_EDGE('',*,*,#21,.F.);
#86 = PLANE('',#87);
#87 = AXIS2_PLACEMENT_3D('',#88,#89,#90);
#88 = CARTESIAN_POINT('',(29.05,-15.1,12.725));
#89 = DIRECTION('',(0.,1.,0.));
#90 = DIRECTION('',(0.,0.,1.));
#91 = ADVANCED_FACE('',(#92),#102,.F.);
#92 = FACE_BOUND('',#93,.F.);
#93 = EDGE_LOOP('',(#94,#95));
#94 = ORIENTED_EDGE('',*,*,#72,.F.);
#95 = ORIENTED_EDGE('',*,*,#96,.F.);
#96 = EDGE_CURVE('',#65,#73,#97,.T.);
#97 = CIRCLE('',#98,1.8);
#98 = AXIS2_PLACEMENT_3D('',#99,#100,#101);
#99 = CARTESIAN_POINT('',(37.,-13.6,12.725));
#100 = DIRECTION('',(0.,0.,-1.));
#101 = DIRECTION('',(1.,1.97E-15,0.));
#102 = PLANE('',#103);
#103 = AXIS2_PLACEMENT_3D('',#104,#105,#106);
#104 = CARTESIAN_POINT('',(29.05,-53.,12.725));
#105 = DIRECTION('',(0.,0.,1.));
#106 = DIRECTION('',(1.,0.,0.));
#107 = ADVANCED_FACE('',(#108),#140,.T.);
#108 = FACE_BOUND('',#109,.T.);
#109 = EDGE_LOOP('',(#110,#111,#112,#113,#114,#115,#116,#123,#132,#139)
  );
#110 = ORIENTED_EDGE('',*,*,#49,.F.);
#111 = ORIENTED_EDGE('',*,*,#80,.T.);
#112 = ORIENTED_EDGE('',*,*,#96,.F.);
#113 = ORIENTED_EDGE('',*,*,#64,.F.);
#114 = ORIENTED_EDGE('',*,*,#31,.F.);
#115 = ORIENTED_EDGE('',*,*,#40,.F.);
#116 = ORIENTED_EDGE('',*,*,#117,.F.);
#117 = EDGE_CURVE('',#118,#41,#120,.T.);
#118 = VERTEX_POINT('',#119);
#119 = CARTESIAN_POINT('',(35.2,-13.6,13.59));
#120 = B_SPLINE_CURVE_WITH_KNOTS('',1,(#121,#122),.UNSPECIFIED.,.F.,.F.,
  (2,2),(-13.59,-13.19),.PIECEWISE_BEZIER_KNOTS.);
#121 = CARTESIAN_POINT('',(35.2,-13.6,13.59));
#122 = CARTESIAN_POINT('',(35.2,-13.6,13.19));
#123 = ORIENTED_EDGE('',*,*,#124,.T.);
#124 = EDGE_CURVE('',#118,#125,#127,.T.);
#125 = VERTEX_POINT('',#126);
#126 = CARTESIAN_POINT('',(38.8,-13.6,13.59));
#127 = CIRCLE('',#128,1.8);
#128 = AXIS2_PLACEMENT_3D('',#129,#130,#131);
#129 = CARTESIAN_POINT('',(37.,-13.6,13.59));
#130 = DIRECTION('',(0.,0.,-1.));
#131 = DIRECTION('',(-1.,-9.9E-16,-0.));
#132 = ORIENTED_EDGE('',*,*,#133,.T.);
#133 = EDGE_CURVE('',#125,#118,#134,.T.);
#134 = CIRCLE('',#135,1.8);
#135 = AXIS2_PLACEMENT_3D('',#136,#137,#138);
#136 = CARTESIAN_POINT('',(37.,-13.6,13.59));
#137 = DIRECTION('',(0.,0.,-1.));
#138 = DIRECTION('',(1.,1.97E-15,0.));
#139 = ORIENTED_EDGE('',*,*,#117,.T.);
#140 = CYLINDRICAL_SURFACE('',#141,1.8);
#141 = AXIS2_PLACEMENT_3D('',#142,#143,#144);
#142 = CARTESIAN_POINT('',(37.,-13.6,0.));
#143 = DIRECTION('',(0.,0.,-1.));
#144 = DIRECTION('',(-1.,-9.9E-16,-0.));
#145 = ADVANCED_FACE('',(#146),#150,.T.);
#146 = FACE_BOUND('',#147,.T.);
#147 = EDGE_LOOP('',(#148,#149));
#148 = ORIENTED_EDGE('',*,*,#124,.F.);
#149 = ORIENTED_EDGE('',*,*,#133,.F.);
#150 = PLANE('',#151);
#151 = AXIS2_PLACEMENT_3D('',#152,#153,#154);
#152 = CARTESIAN_POINT('',(0.,-120.,13.59));
#153 = DIRECTION('',(0.,0.,1.));
#154 = DIRECTION('',(1.,0.,0.));
#155 = MANIFOLD_SOLID_BREP('',#156);
#156 = CLOSED_SHELL('',(#157,#197,#279,#303,#378,#400,#417,#434,#451,
    #463));
#157 = ADVANCED_FACE('',(#158),#192,.F.);
#158 = FACE_BOUND('',#159,.F.);
#159 = EDGE_LOOP('',(#160,#170,#178,#186));
#160 = ORIENTED_EDGE('',*,*,#161,.F.);
#161 = EDGE_CURVE('',#162,#164,#166,.T.);
#162 = VERTEX_POINT('',#163);
#163 = CARTESIAN_POINT('',(32.092194041194,-60.50085998278,13.19));
#164 = VERTEX_POINT('',#165);
#165 = CARTESIAN_POINT('',(32.802030729558,-59.8296013753,13.19));
#166 = LINE('',#167,#168);
#167 = CARTESIAN_POINT('',(8.769688987166,-82.55583758822,13.19));
#168 = VECTOR('',#169,1.);
#169 = DIRECTION('',(0.726574967353,0.687087197389,0.));
#170 = ORIENTED_EDGE('',*,*,#171,.T.);
#171 = EDGE_CURVE('',#162,#172,#174,.T.);
#172 = VERTEX_POINT('',#173);
#173 = CARTESIAN_POINT('',(32.092194041194,-60.50085998278,13.59));
#174 = LINE('',#175,#176);
#175 = CARTESIAN_POINT('',(32.092194041194,-60.50085998278,0.));
#176 = VECTOR('',#177,1.);
#177 = DIRECTION('',(0.,0.,1.));
#178 = ORIENTED_EDGE('',*,*,#179,.T.);
#179 = EDGE_CURVE('',#172,#180,#182,.T.);
#180 = VERTEX_POINT('',#181);
#181 = CARTESIAN_POINT('',(32.802030729558,-59.8296013753,13.59));
#182 = LINE('',#183,#184);
#183 = CARTESIAN_POINT('',(8.769688987166,-82.55583758822,13.59));
#184 = VECTOR('',#185,1.);
#185 = DIRECTION('',(0.726574967353,0.687087197389,0.));
#186 = ORIENTED_EDGE('',*,*,#187,.F.);
#187 = EDGE_CURVE('',#164,#180,#188,.T.);
#188 = LINE('',#189,#190);
#189 = CARTESIAN_POINT('',(32.802030729558,-59.8296013753,0.));
#190 = VECTOR('',#191,1.);
#191 = DIRECTION('',(0.,0.,1.));
#192 = PLANE('',#193);
#193 = AXIS2_PLACEMENT_3D('',#194,#195,#196);
#194 = CARTESIAN_POINT('',(32.092194041194,-60.50085998278,0.));
#195 = DIRECTION('',(-0.687087197389,0.726574967353,0.));
#196 = DIRECTION('',(0.726574967353,0.687087197389,0.));
#197 = ADVANCED_FACE('',(#198),#274,.F.);
#198 = FACE_BOUND('',#199,.F.);
#199 = EDGE_LOOP('',(#200,#209,#210,#218,#226,#234,#242,#250,#258,#267)
  );
#200 = ORIENTED_EDGE('',*,*,#201,.F.);
#201 = EDGE_CURVE('',#162,#202,#204,.T.);
#202 = VERTEX_POINT('',#203);
#203 = CARTESIAN_POINT('',(31.7,-58.5,13.19));
#204 = CIRCLE('',#205,5.3);
#205 = AXIS2_PLACEMENT_3D('',#206,#207,#208);
#206 = CARTESIAN_POINT('',(37.,-58.5,13.19));
#207 = DIRECTION('',(0.,0.,-1.));
#208 = DIRECTION('',(1.,0.,0.));
#209 = ORIENTED_EDGE('',*,*,#161,.T.);
#210 = ORIENTED_EDGE('',*,*,#211,.T.);
#211 = EDGE_CURVE('',#164,#212,#214,.T.);
#212 = VERTEX_POINT('',#213);
#213 = CARTESIAN_POINT('',(32.8,-59.83,13.19));
#214 = LINE('',#215,#216);
#215 = CARTESIAN_POINT('',(11.323035864324,-64.04584851552,13.19));
#216 = VECTOR('',#217,1.);
#217 = DIRECTION('',(-0.981273361413,-0.1926203265,0.));
#218 = ORIENTED_EDGE('',*,*,#219,.T.);
#219 = EDGE_CURVE('',#212,#220,#222,.T.);
#220 = VERTEX_POINT('',#221);
#221 = CARTESIAN_POINT('',(35.9,-56.9,13.19));
#222 = LINE('',#223,#224);
#223 = CARTESIAN_POINT('',(9.119405162985,-82.21198157175,13.19));
#224 = VECTOR('',#225,1.);
#225 = DIRECTION('',(0.726753040378,0.686898841389,0.));
#226 = ORIENTED_EDGE('',*,*,#227,.T.);
#227 = EDGE_CURVE('',#220,#228,#230,.T.);
#228 = VERTEX_POINT('',#229);
#229 = CARTESIAN_POINT('',(38.1,-56.9,13.19));
#230 = LINE('',#231,#232);
#231 = CARTESIAN_POINT('',(17.95,-56.9,13.19));
#232 = VECTOR('',#233,1.);
#233 = DIRECTION('',(1.,0.,0.));
#234 = ORIENTED_EDGE('',*,*,#235,.T.);
#235 = EDGE_CURVE('',#228,#236,#238,.T.);
#236 = VERTEX_POINT('',#237);
#237 = CARTESIAN_POINT('',(41.2,-59.83,13.19));
#238 = LINE('',#239,#240);
#239 = CARTESIAN_POINT('',(43.788305514183,-62.27636617953,13.19));
#240 = VECTOR('',#241,1.);
#241 = DIRECTION('',(0.726753040378,-0.686898841389,0.));
#242 = ORIENTED_EDGE('',*,*,#243,.T.);
#243 = EDGE_CURVE('',#236,#244,#246,.T.);
#244 = VERTEX_POINT('',#245);
#245 = CARTESIAN_POINT('',(41.197969270442,-59.8296013753,13.19));
#246 = LINE('',#247,#248);
#247 = CARTESIAN_POINT('',(27.050775337146,-57.05255960321,13.19));
#248 = VECTOR('',#249,1.);
#249 = DIRECTION('',(-0.981273361413,0.1926203265,0.));
#250 = ORIENTED_EDGE('',*,*,#251,.T.);
#251 = EDGE_CURVE('',#244,#252,#254,.T.);
#252 = VERTEX_POINT('',#253);
#253 = CARTESIAN_POINT('',(41.907805958806,-60.50085998278,13.19));
#254 = LINE('',#255,#256);
#255 = CARTESIAN_POINT('',(45.342678890819,-63.74905503805,13.19));
#256 = VECTOR('',#257,1.);
#257 = DIRECTION('',(0.726574967353,-0.687087197389,0.));
#258 = ORIENTED_EDGE('',*,*,#259,.F.);
#259 = EDGE_CURVE('',#260,#252,#262,.T.);
#260 = VERTEX_POINT('',#261);
#261 = CARTESIAN_POINT('',(42.3,-58.5,13.19));
#262 = CIRCLE('',#263,5.3);
#263 = AXIS2_PLACEMENT_3D('',#264,#265,#266);
#264 = CARTESIAN_POINT('',(37.,-58.5,13.19));
#265 = DIRECTION('',(0.,0.,-1.));
#266 = DIRECTION('',(1.,0.,0.));
#267 = ORIENTED_EDGE('',*,*,#268,.F.);
#268 = EDGE_CURVE('',#202,#260,#269,.T.);
#269 = CIRCLE('',#270,5.3);
#270 = AXIS2_PLACEMENT_3D('',#271,#272,#273);
#271 = CARTESIAN_POINT('',(37.,-58.5,13.19));
#272 = DIRECTION('',(0.,0.,-1.));
#273 = DIRECTION('',(-1.,0.,0.));
#274 = PLANE('',#275);
#275 = AXIS2_PLACEMENT_3D('',#276,#277,#278);
#276 = CARTESIAN_POINT('',(0.,-120.,13.19));
#277 = DIRECTION('',(0.,0.,1.));
#278 = DIRECTION('',(1.,0.,0.));
#279 = ADVANCED_FACE('',(#280),#298,.F.);
#280 = FACE_BOUND('',#281,.F.);
#281 = EDGE_LOOP('',(#282,#283,#284,#292));
#282 = ORIENTED_EDGE('',*,*,#211,.F.);
#283 = ORIENTED_EDGE('',*,*,#187,.T.);
#284 = ORIENTED_EDGE('',*,*,#285,.T.);
#285 = EDGE_CURVE('',#180,#286,#288,.T.);
#286 = VERTEX_POINT('',#287);
#287 = CARTESIAN_POINT('',(32.8,-59.83,13.59));
#288 = LINE('',#289,#290);
#289 = CARTESIAN_POINT('',(11.323035864324,-64.04584851552,13.59));
#290 = VECTOR('',#291,1.);
#291 = DIRECTION('',(-0.981273361413,-0.1926203265,0.));
#292 = ORIENTED_EDGE('',*,*,#293,.F.);
#293 = EDGE_CURVE('',#212,#286,#294,.T.);
#294 = LINE('',#295,#296);
#295 = CARTESIAN_POINT('',(32.8,-59.83,0.));
#296 = VECTOR('',#297,1.);
#297 = DIRECTION('',(0.,0.,1.));
#298 = PLANE('',#299);
#299 = AXIS2_PLACEMENT_3D('',#300,#301,#302);
#300 = CARTESIAN_POINT('',(32.802030729558,-59.8296013753,0.));
#301 = DIRECTION('',(0.1926203265,-0.981273361413,0.));
#302 = DIRECTION('',(-0.981273361413,-0.1926203265,0.));
#303 = ADVANCED_FACE('',(#304),#373,.T.);
#304 = FACE_BOUND('',#305,.T.);
#305 = EDGE_LOOP('',(#306,#315,#316,#317,#325,#333,#341,#349,#357,#366)
  );
#306 = ORIENTED_EDGE('',*,*,#307,.F.);
#307 = EDGE_CURVE('',#172,#308,#310,.T.);
#308 = VERTEX_POINT('',#309);
#309 = CARTESIAN_POINT('',(31.7,-58.5,13.59));
#310 = CIRCLE('',#311,5.3);
#311 = AXIS2_PLACEMENT_3D('',#312,#313,#314);
#312 = CARTESIAN_POINT('',(37.,-58.5,13.59));
#313 = DIRECTION('',(0.,0.,-1.));
#314 = DIRECTION('',(1.,0.,0.));
#315 = ORIENTED_EDGE('',*,*,#179,.T.);
#316 = ORIENTED_EDGE('',*,*,#285,.T.);
#317 = ORIENTED_EDGE('',*,*,#318,.T.);
#318 = EDGE_CURVE('',#286,#319,#321,.T.);
#319 = VERTEX_POINT('',#320);
#320 = CARTESIAN_POINT('',(35.9,-56.9,13.59));
#321 = LINE('',#322,#323);
#322 = CARTESIAN_POINT('',(9.119405162985,-82.21198157175,13.59));
#323 = VECTOR('',#324,1.);
#324 = DIRECTION('',(0.726753040378,0.686898841389,0.));
#325 = ORIENTED_EDGE('',*,*,#326,.T.);
#326 = EDGE_CURVE('',#319,#327,#329,.T.);
#327 = VERTEX_POINT('',#328);
#328 = CARTESIAN_POINT('',(38.1,-56.9,13.59));
#329 = LINE('',#330,#331);
#330 = CARTESIAN_POINT('',(17.95,-56.9,13.59));
#331 = VECTOR('',#332,1.);
#332 = DIRECTION('',(1.,0.,0.));
#333 = ORIENTED_EDGE('',*,*,#334,.T.);
#334 = EDGE_CURVE('',#327,#335,#337,.T.);
#335 = VERTEX_POINT('',#336);
#336 = CARTESIAN_POINT('',(41.2,-59.83,13.59));
#337 = LINE('',#338,#339);
#338 = CARTESIAN_POINT('',(43.788305514183,-62.27636617953,13.59));
#339 = VECTOR('',#340,1.);
#340 = DIRECTION('',(0.726753040378,-0.686898841389,0.));
#341 = ORIENTED_EDGE('',*,*,#342,.T.);
#342 = EDGE_CURVE('',#335,#343,#345,.T.);
#343 = VERTEX_POINT('',#344);
#344 = CARTESIAN_POINT('',(41.197969270442,-59.8296013753,13.59));
#345 = LINE('',#346,#347);
#346 = CARTESIAN_POINT('',(27.050775337146,-57.05255960321,13.59));
#347 = VECTOR('',#348,1.);
#348 = DIRECTION('',(-0.981273361413,0.1926203265,0.));
#349 = ORIENTED_EDGE('',*,*,#350,.T.);
#350 = EDGE_CURVE('',#343,#351,#353,.T.);
#351 = VERTEX_POINT('',#352);
#352 = CARTESIAN_POINT('',(41.907805958806,-60.50085998278,13.59));
#353 = LINE('',#354,#355);
#354 = CARTESIAN_POINT('',(45.342678890819,-63.74905503805,13.59));
#355 = VECTOR('',#356,1.);
#356 = DIRECTION('',(0.726574967353,-0.687087197389,0.));
#357 = ORIENTED_EDGE('',*,*,#358,.F.);
#358 = EDGE_CURVE('',#359,#351,#361,.T.);
#359 = VERTEX_POINT('',#360);
#360 = CARTESIAN_POINT('',(42.3,-58.5,13.59));
#361 = CIRCLE('',#362,5.3);
#362 = AXIS2_PLACEMENT_3D('',#363,#364,#365);
#363 = CARTESIAN_POINT('',(37.,-58.5,13.59));
#364 = DIRECTION('',(0.,0.,-1.));
#365 = DIRECTION('',(1.,0.,0.));
#366 = ORIENTED_EDGE('',*,*,#367,.F.);
#367 = EDGE_CURVE('',#308,#359,#368,.T.);
#368 = CIRCLE('',#369,5.3);
#369 = AXIS2_PLACEMENT_3D('',#370,#371,#372);
#370 = CARTESIAN_POINT('',(37.,-58.5,13.59));
#371 = DIRECTION('',(0.,0.,-1.));
#372 = DIRECTION('',(-1.,0.,0.));
#373 = PLANE('',#374);
#374 = AXIS2_PLACEMENT_3D('',#375,#376,#377);
#375 = CARTESIAN_POINT('',(0.,-120.,13.59));
#376 = DIRECTION('',(0.,0.,1.));
#377 = DIRECTION('',(1.,0.,0.));
#378 = ADVANCED_FACE('',(#379),#395,.F.);
#379 = FACE_BOUND('',#380,.F.);
#380 = EDGE_LOOP('',(#381,#382,#388,#389));
#381 = ORIENTED_EDGE('',*,*,#251,.F.);
#382 = ORIENTED_EDGE('',*,*,#383,.T.);
#383 = EDGE_CURVE('',#244,#343,#384,.T.);
#384 = LINE('',#385,#386);
#385 = CARTESIAN_POINT('',(41.197969270442,-59.8296013753,0.));
#386 = VECTOR('',#387,1.);
#387 = DIRECTION('',(0.,0.,1.));
#388 = ORIENTED_EDGE('',*,*,#350,.T.);
#389 = ORIENTED_EDGE('',*,*,#390,.F.);
#390 = EDGE_CURVE('',#252,#351,#391,.T.);
#391 = LINE('',#392,#393);
#392 = CARTESIAN_POINT('',(41.907805958806,-60.50085998278,0.));
#393 = VECTOR('',#394,1.);
#394 = DIRECTION('',(0.,0.,1.));
#395 = PLANE('',#396);
#396 = AXIS2_PLACEMENT_3D('',#397,#398,#399);
#397 = CARTESIAN_POINT('',(41.197969270442,-59.8296013753,0.));
#398 = DIRECTION('',(0.687087197389,0.726574967353,0.));
#399 = DIRECTION('',(0.726574967353,-0.687087197389,0.));
#400 = ADVANCED_FACE('',(#401),#412,.F.);
#401 = FACE_BOUND('',#402,.F.);
#402 = EDGE_LOOP('',(#403,#404,#410,#411));
#403 = ORIENTED_EDGE('',*,*,#243,.F.);
#404 = ORIENTED_EDGE('',*,*,#405,.T.);
#405 = EDGE_CURVE('',#236,#335,#406,.T.);
#406 = LINE('',#407,#408);
#407 = CARTESIAN_POINT('',(41.2,-59.83,0.));
#408 = VECTOR('',#409,1.);
#409 = DIRECTION('',(0.,0.,1.));
#410 = ORIENTED_EDGE('',*,*,#342,.T.);
#411 = ORIENTED_EDGE('',*,*,#383,.F.);
#412 = PLANE('',#413);
#413 = AXIS2_PLACEMENT_3D('',#414,#415,#416);
#414 = CARTESIAN_POINT('',(41.2,-59.83,0.));
#415 = DIRECTION('',(-0.1926203265,-0.981273361413,0.));
#416 = DIRECTION('',(-0.981273361413,0.1926203265,0.));
#417 = ADVANCED_FACE('',(#418),#429,.F.);
#418 = FACE_BOUND('',#419,.F.);
#419 = EDGE_LOOP('',(#420,#421,#427,#428));
#420 = ORIENTED_EDGE('',*,*,#235,.F.);
#421 = ORIENTED_EDGE('',*,*,#422,.T.);
#422 = EDGE_CURVE('',#228,#327,#423,.T.);
#423 = LINE('',#424,#425);
#424 = CARTESIAN_POINT('',(38.1,-56.9,0.));
#425 = VECTOR('',#426,1.);
#426 = DIRECTION('',(0.,0.,1.));
#427 = ORIENTED_EDGE('',*,*,#334,.T.);
#428 = ORIENTED_EDGE('',*,*,#405,.F.);
#429 = PLANE('',#430);
#430 = AXIS2_PLACEMENT_3D('',#431,#432,#433);
#431 = CARTESIAN_POINT('',(38.1,-56.9,0.));
#432 = DIRECTION('',(0.686898841389,0.726753040378,0.));
#433 = DIRECTION('',(0.726753040378,-0.686898841389,0.));
#434 = ADVANCED_FACE('',(#435),#446,.F.);
#435 = FACE_BOUND('',#436,.F.);
#436 = EDGE_LOOP('',(#437,#438,#444,#445));
#437 = ORIENTED_EDGE('',*,*,#227,.F.);
#438 = ORIENTED_EDGE('',*,*,#439,.T.);
#439 = EDGE_CURVE('',#220,#319,#440,.T.);
#440 = LINE('',#441,#442);
#441 = CARTESIAN_POINT('',(35.9,-56.9,0.));
#442 = VECTOR('',#443,1.);
#443 = DIRECTION('',(0.,0.,1.));
#444 = ORIENTED_EDGE('',*,*,#326,.T.);
#445 = ORIENTED_EDGE('',*,*,#422,.F.);
#446 = PLANE('',#447);
#447 = AXIS2_PLACEMENT_3D('',#448,#449,#450);
#448 = CARTESIAN_POINT('',(35.9,-56.9,0.));
#449 = DIRECTION('',(0.,1.,0.));
#450 = DIRECTION('',(1.,0.,0.));
#451 = ADVANCED_FACE('',(#452),#458,.F.);
#452 = FACE_BOUND('',#453,.F.);
#453 = EDGE_LOOP('',(#454,#455,#456,#457));
#454 = ORIENTED_EDGE('',*,*,#219,.F.);
#455 = ORIENTED_EDGE('',*,*,#293,.T.);
#456 = ORIENTED_EDGE('',*,*,#318,.T.);
#457 = ORIENTED_EDGE('',*,*,#439,.F.);
#458 = PLANE('',#459);
#459 = AXIS2_PLACEMENT_3D('',#460,#461,#462);
#460 = CARTESIAN_POINT('',(32.8,-59.83,0.));
#461 = DIRECTION('',(-0.686898841389,0.726753040378,0.));
#462 = DIRECTION('',(0.726753040378,0.686898841389,0.));
#463 = ADVANCED_FACE('',(#464),#474,.T.);
#464 = FACE_BOUND('',#465,.T.);
#465 = EDGE_LOOP('',(#466,#467,#468,#469,#470,#471,#472,#473));
#466 = ORIENTED_EDGE('',*,*,#358,.T.);
#467 = ORIENTED_EDGE('',*,*,#390,.F.);
#468 = ORIENTED_EDGE('',*,*,#259,.F.);
#469 = ORIENTED_EDGE('',*,*,#268,.F.);
#470 = ORIENTED_EDGE('',*,*,#201,.F.);
#471 = ORIENTED_EDGE('',*,*,#171,.T.);
#472 = ORIENTED_EDGE('',*,*,#307,.T.);
#473 = ORIENTED_EDGE('',*,*,#367,.T.);
#474 = CYLINDRICAL_SURFACE('',#475,5.3);
#475 = AXIS2_PLACEMENT_3D('',#476,#477,#478);
#476 = CARTESIAN_POINT('',(37.,-58.5,0.));
#477 = DIRECTION('',(0.,0.,-1.));
#478 = DIRECTION('',(1.,0.,0.));
#479 = ( GEOMETRIC_REPRESENTATION_CONTEXT(3) 
GLOBAL_UNCERTAINTY_ASSIGNED_CONTEXT((#483)) GLOBAL_UNIT_ASSIGNED_CONTEXT
((#480,#481,#482)) REPRESENTATION_CONTEXT('Context #1',
  '3D Context with UNIT and UNCERTAINTY') );
#480 = ( LENGTH_UNIT() NAMED_UNIT(*) SI_UNIT(.MILLI.,.METRE.) );
#481 = ( NAMED_UNIT(*) PLANE_ANGLE_UNIT() SI_UNIT($,.RADIAN.) );
#482 = ( NAMED_UNIT(*) SI_UNIT($,.STERADIAN.) SOLID_ANGLE_UNIT() );
#483 = UNCERTAINTY_MEASURE_WITH_UNIT(LENGTH_MEASURE(1.E-04),#480,
  'distance_accuracy_value','confusion accuracy');
#484 = PRODUCT_RELATED_PRODUCT_CATEGORY('part',$,(#7));
ENDSEC;
END-ISO-10303-21;
