ISO-10303-21;
HEADER;
FILE_DESCRIPTION(('FreeCAD Model'),'2;1');
FILE_NAME('Open CASCADE Shape Model','2026-10-07T22:42:05',('FreeCAD'),(
    'FreeCAD'),'Open CASCADE STEP processor 7.8','FreeCAD','Unknown');
FILE_SCHEMA(('AUTOMOTIVE_DESIGN { 1 0 10303 214 1 1 1 1 }'));
ENDSEC;
DATA;
#1 = APPLICATION_PROTOCOL_DEFINITION('international standard',
  'automotive_design',2000,#2);
#2 = APPLICATION_CONTEXT(
  'core data for automotive mechanical design processes');
#3 = SHAPE_DEFINITION_REPRESENTATION(#4,#10);
#4 = PRODUCT_DEFINITION_SHAPE('','',#5);
#5 = PRODUCT_DEFINITION('design','',#6,#9);
#6 = PRODUCT_DEFINITION_FORMATION('','',#7);
#7 = PRODUCT('Open CASCADE STEP translator 7.8 147',
  'Open CASCADE STEP translator 7.8 147','',(#8));
#8 = PRODUCT_CONTEXT('',#2,'mechanical');
#9 = PRODUCT_DEFINITION_CONTEXT('part definition',#2,'design');
#10 = SHAPE_REPRESENTATION('',(#11,#15,#709),#1121);
#11 = AXIS2_PLACEMENT_3D('',#12,#13,#14);
#12 = CARTESIAN_POINT('',(0.,0.,0.));
#13 = DIRECTION('',(0.,0.,1.));
#14 = DIRECTION('',(1.,0.,-0.));
#15 = MANIFOLD_SOLID_BREP('',#16);
#16 = CLOSED_SHELL('',(#17,#57,#190,#232,#325,#359,#383,#415,#455,#479,
    #503,#527,#544,#571,#593,#610,#627,#639,#656,#668,#685,#697));
#17 = ADVANCED_FACE('',(#18),#52,.T.);
#18 = FACE_BOUND('',#19,.T.);
#19 = EDGE_LOOP('',(#20,#30,#38,#46));
#20 = ORIENTED_EDGE('',*,*,#21,.F.);
#21 = EDGE_CURVE('',#22,#24,#26,.T.);
#22 = VERTEX_POINT('',#23);
#23 = CARTESIAN_POINT('',(30.05,-16.15,12.725));
#24 = VERTEX_POINT('',#25);
#25 = CARTESIAN_POINT('',(43.95,-16.15,12.725));
#26 = LINE('',#27,#28);
#27 = CARTESIAN_POINT('',(29.55,-16.15,12.725));
#28 = VECTOR('',#29,1.);
#29 = DIRECTION('',(1.,0.,0.));
#30 = ORIENTED_EDGE('',*,*,#31,.T.);
#31 = EDGE_CURVE('',#22,#32,#34,.T.);
#32 = VERTEX_POINT('',#33);
#33 = CARTESIAN_POINT('',(30.05,-16.15,13.59));
#34 = LINE('',#35,#36);
#35 = CARTESIAN_POINT('',(30.05,-16.15,0.));
#36 = VECTOR('',#37,1.);
#37 = DIRECTION('',(0.,0.,1.));
#38 = ORIENTED_EDGE('',*,*,#39,.T.);
#39 = EDGE_CURVE('',#32,#40,#42,.T.);
#40 = VERTEX_POINT('',#41);
#41 = CARTESIAN_POINT('',(43.95,-16.15,13.59));
#42 = LINE('',#43,#44);
#43 = CARTESIAN_POINT('',(15.025,-16.15,13.59));
#44 = VECTOR('',#45,1.);
#45 = DIRECTION('',(1.,0.,0.));
#46 = ORIENTED_EDGE('',*,*,#47,.F.);
#47 = EDGE_CURVE('',#24,#40,#48,.T.);
#48 = LINE('',#49,#50);
#49 = CARTESIAN_POINT('',(43.95,-16.15,0.));
#50 = VECTOR('',#51,1.);
#51 = DIRECTION('',(0.,0.,1.));
#52 = PLANE('',#53);
#53 = AXIS2_PLACEMENT_3D('',#54,#55,#56);
#54 = CARTESIAN_POINT('',(30.05,-16.15,0.));
#55 = DIRECTION('',(0.,1.,0.));
#56 = DIRECTION('',(1.,0.,0.));
#57 = ADVANCED_FACE('',(#58,#151),#185,.F.);
#58 = FACE_BOUND('',#59,.F.);
#59 = EDGE_LOOP('',(#60,#70,#79,#87,#95,#103,#111,#119,#128,#136,#143,
    #144));
#60 = ORIENTED_EDGE('',*,*,#61,.F.);
#61 = EDGE_CURVE('',#62,#64,#66,.T.);
#62 = VERTEX_POINT('',#63);
#63 = CARTESIAN_POINT('',(29.05,-51.23174242292,12.725));
#64 = VERTEX_POINT('',#65);
#65 = CARTESIAN_POINT('',(29.05,-16.36825757707,12.725));
#66 = LINE('',#67,#68);
#67 = CARTESIAN_POINT('',(29.05,-53.,12.725));
#68 = VECTOR('',#69,1.);
#69 = DIRECTION('',(0.,1.,0.));
#70 = ORIENTED_EDGE('',*,*,#71,.F.);
#71 = EDGE_CURVE('',#72,#62,#74,.T.);
#72 = VERTEX_POINT('',#73);
#73 = CARTESIAN_POINT('',(30.05,-51.45,12.725));
#74 = CIRCLE('',#75,2.4);
#75 = AXIS2_PLACEMENT_3D('',#76,#77,#78);
#76 = CARTESIAN_POINT('',(30.05,-49.05,12.725));
#77 = DIRECTION('',(0.,0.,-1.));
#78 = DIRECTION('',(-1.48E-15,-1.,-0.));
#79 = ORIENTED_EDGE('',*,*,#80,.F.);
#80 = EDGE_CURVE('',#81,#72,#83,.T.);
#81 = VERTEX_POINT('',#82);
#82 = CARTESIAN_POINT('',(30.15,-51.45,12.725));
#83 = LINE('',#84,#85);
#84 = CARTESIAN_POINT('',(36.5,-51.45,12.725));
#85 = VECTOR('',#86,1.);
#86 = DIRECTION('',(-1.,0.,0.));
#87 = ORIENTED_EDGE('',*,*,#88,.T.);
#88 = EDGE_CURVE('',#81,#89,#91,.T.);
#89 = VERTEX_POINT('',#90);
#90 = CARTESIAN_POINT('',(30.15,-49.1,12.725));
#91 = LINE('',#92,#93);
#92 = CARTESIAN_POINT('',(30.15,-52.8,12.725));
#93 = VECTOR('',#94,1.);
#94 = DIRECTION('',(0.,1.,0.));
#95 = ORIENTED_EDGE('',*,*,#96,.F.);
#96 = EDGE_CURVE('',#97,#89,#99,.T.);
#97 = VERTEX_POINT('',#98);
#98 = CARTESIAN_POINT('',(43.85,-49.1,12.725));
#99 = LINE('',#100,#101);
#100 = CARTESIAN_POINT('',(29.6,-49.1,12.725));
#101 = VECTOR('',#102,1.);
#102 = DIRECTION('',(-1.,0.,0.));
#103 = ORIENTED_EDGE('',*,*,#104,.F.);
#104 = EDGE_CURVE('',#105,#97,#107,.T.);
#105 = VERTEX_POINT('',#106);
#106 = CARTESIAN_POINT('',(43.85,-51.45,12.725));
#107 = LINE('',#108,#109);
#108 = CARTESIAN_POINT('',(43.85,-52.8,12.725));
#109 = VECTOR('',#110,1.);
#110 = DIRECTION('',(0.,1.,0.));
#111 = ORIENTED_EDGE('',*,*,#112,.F.);
#112 = EDGE_CURVE('',#113,#105,#115,.T.);
#113 = VERTEX_POINT('',#114);
#114 = CARTESIAN_POINT('',(43.95,-51.45,12.725));
#115 = LINE('',#116,#117);
#116 = CARTESIAN_POINT('',(36.5,-51.45,12.725));
#117 = VECTOR('',#118,1.);
#118 = DIRECTION('',(-1.,0.,0.));
#119 = ORIENTED_EDGE('',*,*,#120,.F.);
#120 = EDGE_CURVE('',#121,#113,#123,.T.);
#121 = VERTEX_POINT('',#122);
#122 = CARTESIAN_POINT('',(44.95,-51.23174242292,12.725));
#123 = CIRCLE('',#124,2.4);
#124 = AXIS2_PLACEMENT_3D('',#125,#126,#127);
#125 = CARTESIAN_POINT('',(43.95,-49.05,12.725));
#126 = DIRECTION('',(0.,0.,-1.));
#127 = DIRECTION('',(1.,0.,0.));
#128 = ORIENTED_EDGE('',*,*,#129,.T.);
#129 = EDGE_CURVE('',#121,#130,#132,.T.);
#130 = VERTEX_POINT('',#131);
#131 = CARTESIAN_POINT('',(44.95,-16.36825757707,12.725));
#132 = LINE('',#133,#134);
#133 = CARTESIAN_POINT('',(44.95,-53.,12.725));
#134 = VECTOR('',#135,1.);
#135 = DIRECTION('',(0.,1.,0.));
#136 = ORIENTED_EDGE('',*,*,#137,.F.);
#137 = EDGE_CURVE('',#24,#130,#138,.T.);
#138 = CIRCLE('',#139,2.4);
#139 = AXIS2_PLACEMENT_3D('',#140,#141,#142);
#140 = CARTESIAN_POINT('',(43.95,-18.55,12.725));
#141 = DIRECTION('',(0.,0.,-1.));
#142 = DIRECTION('',(0.,1.,0.));
#143 = ORIENTED_EDGE('',*,*,#21,.F.);
#144 = ORIENTED_EDGE('',*,*,#145,.F.);
#145 = EDGE_CURVE('',#64,#22,#146,.T.);
#146 = CIRCLE('',#147,2.4);
#147 = AXIS2_PLACEMENT_3D('',#148,#149,#150);
#148 = CARTESIAN_POINT('',(30.05,-18.55,12.725));
#149 = DIRECTION('',(0.,0.,-1.));
#150 = DIRECTION('',(-1.,0.,0.));
#151 = FACE_BOUND('',#152,.F.);
#152 = EDGE_LOOP('',(#153,#163,#171,#179));
#153 = ORIENTED_EDGE('',*,*,#154,.F.);
#154 = EDGE_CURVE('',#155,#157,#159,.T.);
#155 = VERTEX_POINT('',#156);
#156 = CARTESIAN_POINT('',(43.95,-49.05,12.725));
#157 = VERTEX_POINT('',#158);
#158 = CARTESIAN_POINT('',(43.95,-18.55,12.725));
#159 = LINE('',#160,#161);
#160 = CARTESIAN_POINT('',(43.95,-51.025,12.725));
#161 = VECTOR('',#162,1.);
#162 = DIRECTION('',(0.,1.,0.));
#163 = ORIENTED_EDGE('',*,*,#164,.T.);
#164 = EDGE_CURVE('',#155,#165,#167,.T.);
#165 = VERTEX_POINT('',#166);
#166 = CARTESIAN_POINT('',(30.05,-49.05,12.725));
#167 = LINE('',#168,#169);
#168 = CARTESIAN_POINT('',(29.55,-49.05,12.725));
#169 = VECTOR('',#170,1.);
#170 = DIRECTION('',(-1.,0.,0.));
#171 = ORIENTED_EDGE('',*,*,#172,.T.);
#172 = EDGE_CURVE('',#165,#173,#175,.T.);
#173 = VERTEX_POINT('',#174);
#174 = CARTESIAN_POINT('',(30.05,-18.55,12.725));
#175 = LINE('',#176,#177);
#176 = CARTESIAN_POINT('',(30.05,-51.025,12.725));
#177 = VECTOR('',#178,1.);
#178 = DIRECTION('',(0.,1.,0.));
#179 = ORIENTED_EDGE('',*,*,#180,.F.);
#180 = EDGE_CURVE('',#157,#173,#181,.T.);
#181 = LINE('',#182,#183);
#182 = CARTESIAN_POINT('',(29.55,-18.55,12.725));
#183 = VECTOR('',#184,1.);
#184 = DIRECTION('',(-1.,0.,0.));
#185 = PLANE('',#186);
#186 = AXIS2_PLACEMENT_3D('',#187,#188,#189);
#187 = CARTESIAN_POINT('',(29.05,-53.,12.725));
#188 = DIRECTION('',(0.,0.,1.));
#189 = DIRECTION('',(1.,0.,0.));
#190 = ADVANCED_FACE('',(#191),#227,.T.);
#191 = FACE_BOUND('',#192,.T.);
#192 = EDGE_LOOP('',(#193,#194,#195,#204,#212,#221));
#193 = ORIENTED_EDGE('',*,*,#137,.F.);
#194 = ORIENTED_EDGE('',*,*,#47,.T.);
#195 = ORIENTED_EDGE('',*,*,#196,.T.);
#196 = EDGE_CURVE('',#40,#197,#199,.T.);
#197 = VERTEX_POINT('',#198);
#198 = CARTESIAN_POINT('',(46.35,-18.55,13.59));
#199 = CIRCLE('',#200,2.4);
#200 = AXIS2_PLACEMENT_3D('',#201,#202,#203);
#201 = CARTESIAN_POINT('',(43.95,-18.55,13.59));
#202 = DIRECTION('',(0.,0.,-1.));
#203 = DIRECTION('',(0.,1.,0.));
#204 = ORIENTED_EDGE('',*,*,#205,.F.);
#205 = EDGE_CURVE('',#206,#197,#208,.T.);
#206 = VERTEX_POINT('',#207);
#207 = CARTESIAN_POINT('',(46.35,-18.55,13.19));
#208 = LINE('',#209,#210);
#209 = CARTESIAN_POINT('',(46.35,-18.55,0.));
#210 = VECTOR('',#211,1.);
#211 = DIRECTION('',(0.,0.,1.));
#212 = ORIENTED_EDGE('',*,*,#213,.F.);
#213 = EDGE_CURVE('',#214,#206,#216,.T.);
#214 = VERTEX_POINT('',#215);
#215 = CARTESIAN_POINT('',(44.95,-16.36825757707,13.19));
#216 = CIRCLE('',#217,2.4);
#217 = AXIS2_PLACEMENT_3D('',#218,#219,#220);
#218 = CARTESIAN_POINT('',(43.95,-18.55,13.19));
#219 = DIRECTION('',(0.,0.,-1.));
#220 = DIRECTION('',(0.,1.,0.));
#221 = ORIENTED_EDGE('',*,*,#222,.T.);
#222 = EDGE_CURVE('',#214,#130,#223,.T.);
#223 = LINE('',#224,#225);
#224 = CARTESIAN_POINT('',(44.95,-16.36825757707,0.));
#225 = VECTOR('',#226,1.);
#226 = DIRECTION('',(0.,0.,-1.));
#227 = CYLINDRICAL_SURFACE('',#228,2.4);
#228 = AXIS2_PLACEMENT_3D('',#229,#230,#231);
#229 = CARTESIAN_POINT('',(43.95,-18.55,0.));
#230 = DIRECTION('',(0.,0.,-1.));
#231 = DIRECTION('',(0.,1.,0.));
#232 = ADVANCED_FACE('',(#233,#286),#320,.T.);
#233 = FACE_BOUND('',#234,.T.);
#234 = EDGE_LOOP('',(#235,#236,#245,#253,#262,#270,#279,#285));
#235 = ORIENTED_EDGE('',*,*,#39,.F.);
#236 = ORIENTED_EDGE('',*,*,#237,.F.);
#237 = EDGE_CURVE('',#238,#32,#240,.T.);
#238 = VERTEX_POINT('',#239);
#239 = CARTESIAN_POINT('',(27.65,-18.55,13.59));
#240 = CIRCLE('',#241,2.4);
#241 = AXIS2_PLACEMENT_3D('',#242,#243,#244);
#242 = CARTESIAN_POINT('',(30.05,-18.55,13.59));
#243 = DIRECTION('',(0.,0.,-1.));
#244 = DIRECTION('',(-1.,0.,0.));
#245 = ORIENTED_EDGE('',*,*,#246,.F.);
#246 = EDGE_CURVE('',#247,#238,#249,.T.);
#247 = VERTEX_POINT('',#248);
#248 = CARTESIAN_POINT('',(27.65,-49.05,13.59));
#249 = LINE('',#250,#251);
#250 = CARTESIAN_POINT('',(27.65,-84.525,13.59));
#251 = VECTOR('',#252,1.);
#252 = DIRECTION('',(0.,1.,0.));
#253 = ORIENTED_EDGE('',*,*,#254,.F.);
#254 = EDGE_CURVE('',#255,#247,#257,.T.);
#255 = VERTEX_POINT('',#256);
#256 = CARTESIAN_POINT('',(30.05,-51.45,13.59));
#257 = CIRCLE('',#258,2.4);
#258 = AXIS2_PLACEMENT_3D('',#259,#260,#261);
#259 = CARTESIAN_POINT('',(30.05,-49.05,13.59));
#260 = DIRECTION('',(0.,0.,-1.));
#261 = DIRECTION('',(-1.48E-15,-1.,-0.));
#262 = ORIENTED_EDGE('',*,*,#263,.F.);
#263 = EDGE_CURVE('',#264,#255,#266,.T.);
#264 = VERTEX_POINT('',#265);
#265 = CARTESIAN_POINT('',(43.95,-51.45,13.59));
#266 = LINE('',#267,#268);
#267 = CARTESIAN_POINT('',(21.975,-51.45,13.59));
#268 = VECTOR('',#269,1.);
#269 = DIRECTION('',(-1.,0.,0.));
#270 = ORIENTED_EDGE('',*,*,#271,.F.);
#271 = EDGE_CURVE('',#272,#264,#274,.T.);
#272 = VERTEX_POINT('',#273);
#273 = CARTESIAN_POINT('',(46.35,-49.05,13.59));
#274 = CIRCLE('',#275,2.4);
#275 = AXIS2_PLACEMENT_3D('',#276,#277,#278);
#276 = CARTESIAN_POINT('',(43.95,-49.05,13.59));
#277 = DIRECTION('',(0.,0.,-1.));
#278 = DIRECTION('',(1.,0.,0.));
#279 = ORIENTED_EDGE('',*,*,#280,.F.);
#280 = EDGE_CURVE('',#197,#272,#281,.T.);
#281 = LINE('',#282,#283);
#282 = CARTESIAN_POINT('',(46.35,-69.275,13.59));
#283 = VECTOR('',#284,1.);
#284 = DIRECTION('',(0.,-1.,0.));
#285 = ORIENTED_EDGE('',*,*,#196,.F.);
#286 = FACE_BOUND('',#287,.T.);
#287 = EDGE_LOOP('',(#288,#298,#306,#314));
#288 = ORIENTED_EDGE('',*,*,#289,.F.);
#289 = EDGE_CURVE('',#290,#292,#294,.T.);
#290 = VERTEX_POINT('',#291);
#291 = CARTESIAN_POINT('',(43.95,-49.05,13.59));
#292 = VERTEX_POINT('',#293);
#293 = CARTESIAN_POINT('',(43.95,-18.55,13.59));
#294 = LINE('',#295,#296);
#295 = CARTESIAN_POINT('',(43.95,-44.07393884022,13.59));
#296 = VECTOR('',#297,1.);
#297 = DIRECTION('',(0.,1.,0.));
#298 = ORIENTED_EDGE('',*,*,#299,.T.);
#299 = EDGE_CURVE('',#290,#300,#302,.T.);
#300 = VERTEX_POINT('',#301);
#301 = CARTESIAN_POINT('',(30.05,-49.05,13.59));
#302 = LINE('',#303,#304);
#303 = CARTESIAN_POINT('',(33.546656284918,-49.05,13.59));
#304 = VECTOR('',#305,1.);
#305 = DIRECTION('',(-1.,0.,0.));
#306 = ORIENTED_EDGE('',*,*,#307,.T.);
#307 = EDGE_CURVE('',#300,#308,#310,.T.);
#308 = VERTEX_POINT('',#309);
#309 = CARTESIAN_POINT('',(30.05,-18.55,13.59));
#310 = LINE('',#311,#312);
#311 = CARTESIAN_POINT('',(30.05,-44.07393884022,13.59));
#312 = VECTOR('',#313,1.);
#313 = DIRECTION('',(0.,1.,0.));
#314 = ORIENTED_EDGE('',*,*,#315,.F.);
#315 = EDGE_CURVE('',#292,#308,#316,.T.);
#316 = LINE('',#317,#318);
#317 = CARTESIAN_POINT('',(33.546656284918,-18.55,13.59));
#318 = VECTOR('',#319,1.);
#319 = DIRECTION('',(-1.,0.,0.));
#320 = PLANE('',#321);
#321 = AXIS2_PLACEMENT_3D('',#322,#323,#324);
#322 = CARTESIAN_POINT('',(0.,-120.,13.59));
#323 = DIRECTION('',(0.,0.,1.));
#324 = DIRECTION('',(1.,0.,0.));
#325 = ADVANCED_FACE('',(#326),#354,.T.);
#326 = FACE_BOUND('',#327,.T.);
#327 = EDGE_LOOP('',(#328,#339,#345,#346,#347,#348));
#328 = ORIENTED_EDGE('',*,*,#329,.F.);
#329 = EDGE_CURVE('',#330,#332,#334,.T.);
#330 = VERTEX_POINT('',#331);
#331 = CARTESIAN_POINT('',(27.65,-18.55,13.19));
#332 = VERTEX_POINT('',#333);
#333 = CARTESIAN_POINT('',(29.05,-16.36825757707,13.19));
#334 = CIRCLE('',#335,2.4);
#335 = AXIS2_PLACEMENT_3D('',#336,#337,#338);
#336 = CARTESIAN_POINT('',(30.05,-18.55,13.19));
#337 = DIRECTION('',(0.,0.,-1.));
#338 = DIRECTION('',(-1.,0.,0.));
#339 = ORIENTED_EDGE('',*,*,#340,.T.);
#340 = EDGE_CURVE('',#330,#238,#341,.T.);
#341 = LINE('',#342,#343);
#342 = CARTESIAN_POINT('',(27.65,-18.55,0.));
#343 = VECTOR('',#344,1.);
#344 = DIRECTION('',(0.,0.,1.));
#345 = ORIENTED_EDGE('',*,*,#237,.T.);
#346 = ORIENTED_EDGE('',*,*,#31,.F.);
#347 = ORIENTED_EDGE('',*,*,#145,.F.);
#348 = ORIENTED_EDGE('',*,*,#349,.F.);
#349 = EDGE_CURVE('',#332,#64,#350,.T.);
#350 = LINE('',#351,#352);
#351 = CARTESIAN_POINT('',(29.05,-16.36825757707,0.));
#352 = VECTOR('',#353,1.);
#353 = DIRECTION('',(0.,0.,-1.));
#354 = CYLINDRICAL_SURFACE('',#355,2.4);
#355 = AXIS2_PLACEMENT_3D('',#356,#357,#358);
#356 = CARTESIAN_POINT('',(30.05,-18.55,0.));
#357 = DIRECTION('',(0.,0.,-1.));
#358 = DIRECTION('',(-1.,0.,0.));
#359 = ADVANCED_FACE('',(#360),#378,.F.);
#360 = FACE_BOUND('',#361,.F.);
#361 = EDGE_LOOP('',(#362,#370,#371,#372));
#362 = ORIENTED_EDGE('',*,*,#363,.T.);
#363 = EDGE_CURVE('',#364,#62,#366,.T.);
#364 = VERTEX_POINT('',#365);
#365 = CARTESIAN_POINT('',(29.05,-51.23174242292,13.19));
#366 = LINE('',#367,#368);
#367 = CARTESIAN_POINT('',(29.05,-51.23174242292,0.));
#368 = VECTOR('',#369,1.);
#369 = DIRECTION('',(0.,0.,-1.));
#370 = ORIENTED_EDGE('',*,*,#61,.T.);
#371 = ORIENTED_EDGE('',*,*,#349,.F.);
#372 = ORIENTED_EDGE('',*,*,#373,.F.);
#373 = EDGE_CURVE('',#364,#332,#374,.T.);
#374 = LINE('',#375,#376);
#375 = CARTESIAN_POINT('',(29.05,-86.5,13.19));
#376 = VECTOR('',#377,1.);
#377 = DIRECTION('',(0.,1.,0.));
#378 = PLANE('',#379);
#379 = AXIS2_PLACEMENT_3D('',#380,#381,#382);
#380 = CARTESIAN_POINT('',(29.05,-53.,12.725));
#381 = DIRECTION('',(1.,0.,0.));
#382 = DIRECTION('',(0.,0.,1.));
#383 = ADVANCED_FACE('',(#384),#410,.T.);
#384 = FACE_BOUND('',#385,.T.);
#385 = EDGE_LOOP('',(#386,#387,#393,#394,#402,#409));
#386 = ORIENTED_EDGE('',*,*,#71,.F.);
#387 = ORIENTED_EDGE('',*,*,#388,.T.);
#388 = EDGE_CURVE('',#72,#255,#389,.T.);
#389 = LINE('',#390,#391);
#390 = CARTESIAN_POINT('',(30.05,-51.45,0.));
#391 = VECTOR('',#392,1.);
#392 = DIRECTION('',(0.,0.,1.));
#393 = ORIENTED_EDGE('',*,*,#254,.T.);
#394 = ORIENTED_EDGE('',*,*,#395,.F.);
#395 = EDGE_CURVE('',#396,#247,#398,.T.);
#396 = VERTEX_POINT('',#397);
#397 = CARTESIAN_POINT('',(27.65,-49.05,13.19));
#398 = LINE('',#399,#400);
#399 = CARTESIAN_POINT('',(27.65,-49.05,0.));
#400 = VECTOR('',#401,1.);
#401 = DIRECTION('',(0.,0.,1.));
#402 = ORIENTED_EDGE('',*,*,#403,.F.);
#403 = EDGE_CURVE('',#364,#396,#404,.T.);
#404 = CIRCLE('',#405,2.4);
#405 = AXIS2_PLACEMENT_3D('',#406,#407,#408);
#406 = CARTESIAN_POINT('',(30.05,-49.05,13.19));
#407 = DIRECTION('',(0.,0.,-1.));
#408 = DIRECTION('',(-1.48E-15,-1.,-0.));
#409 = ORIENTED_EDGE('',*,*,#363,.T.);
#410 = CYLINDRICAL_SURFACE('',#411,2.4);
#411 = AXIS2_PLACEMENT_3D('',#412,#413,#414);
#412 = CARTESIAN_POINT('',(30.05,-49.05,0.));
#413 = DIRECTION('',(0.,0.,-1.));
#414 = DIRECTION('',(-1.48E-15,-1.,-0.));
#415 = ADVANCED_FACE('',(#416),#450,.T.);
#416 = FACE_BOUND('',#417,.T.);
#417 = EDGE_LOOP('',(#418,#419,#425,#426,#427,#428,#436,#444));
#418 = ORIENTED_EDGE('',*,*,#112,.F.);
#419 = ORIENTED_EDGE('',*,*,#420,.T.);
#420 = EDGE_CURVE('',#113,#264,#421,.T.);
#421 = LINE('',#422,#423);
#422 = CARTESIAN_POINT('',(43.95,-51.45,0.));
#423 = VECTOR('',#424,1.);
#424 = DIRECTION('',(0.,0.,1.));
#425 = ORIENTED_EDGE('',*,*,#263,.T.);
#426 = ORIENTED_EDGE('',*,*,#388,.F.);
#427 = ORIENTED_EDGE('',*,*,#80,.F.);
#428 = ORIENTED_EDGE('',*,*,#429,.T.);
#429 = EDGE_CURVE('',#81,#430,#432,.T.);
#430 = VERTEX_POINT('',#431);
#431 = CARTESIAN_POINT('',(30.15,-51.45,13.19));
#432 = LINE('',#433,#434);
#433 = CARTESIAN_POINT('',(30.15,-51.45,0.));
#434 = VECTOR('',#435,1.);
#435 = DIRECTION('',(0.,0.,1.));
#436 = ORIENTED_EDGE('',*,*,#437,.F.);
#437 = EDGE_CURVE('',#438,#430,#440,.T.);
#438 = VERTEX_POINT('',#439);
#439 = CARTESIAN_POINT('',(43.85,-51.45,13.19));
#440 = LINE('',#441,#442);
#441 = CARTESIAN_POINT('',(21.975,-51.45,13.19));
#442 = VECTOR('',#443,1.);
#443 = DIRECTION('',(-1.,0.,0.));
#444 = ORIENTED_EDGE('',*,*,#445,.F.);
#445 = EDGE_CURVE('',#105,#438,#446,.T.);
#446 = LINE('',#447,#448);
#447 = CARTESIAN_POINT('',(43.85,-51.45,0.));
#448 = VECTOR('',#449,1.);
#449 = DIRECTION('',(0.,0.,1.));
#450 = PLANE('',#451);
#451 = AXIS2_PLACEMENT_3D('',#452,#453,#454);
#452 = CARTESIAN_POINT('',(43.95,-51.45,0.));
#453 = DIRECTION('',(0.,-1.,0.));
#454 = DIRECTION('',(-1.,0.,0.));
#455 = ADVANCED_FACE('',(#456),#474,.T.);
#456 = FACE_BOUND('',#457,.T.);
#457 = EDGE_LOOP('',(#458,#459,#460,#468));
#458 = ORIENTED_EDGE('',*,*,#429,.F.);
#459 = ORIENTED_EDGE('',*,*,#88,.T.);
#460 = ORIENTED_EDGE('',*,*,#461,.T.);
#461 = EDGE_CURVE('',#89,#462,#464,.T.);
#462 = VERTEX_POINT('',#463);
#463 = CARTESIAN_POINT('',(30.15,-49.1,13.19));
#464 = LINE('',#465,#466);
#465 = CARTESIAN_POINT('',(30.15,-49.1,0.));
#466 = VECTOR('',#467,1.);
#467 = DIRECTION('',(0.,0.,1.));
#468 = ORIENTED_EDGE('',*,*,#469,.F.);
#469 = EDGE_CURVE('',#430,#462,#470,.T.);
#470 = LINE('',#471,#472);
#471 = CARTESIAN_POINT('',(30.15,-86.3,13.19));
#472 = VECTOR('',#473,1.);
#473 = DIRECTION('',(0.,1.,0.));
#474 = PLANE('',#475);
#475 = AXIS2_PLACEMENT_3D('',#476,#477,#478);
#476 = CARTESIAN_POINT('',(30.15,-52.6,0.));
#477 = DIRECTION('',(1.,0.,0.));
#478 = DIRECTION('',(0.,0.,1.));
#479 = ADVANCED_FACE('',(#480),#498,.F.);
#480 = FACE_BOUND('',#481,.F.);
#481 = EDGE_LOOP('',(#482,#490,#491,#492));
#482 = ORIENTED_EDGE('',*,*,#483,.F.);
#483 = EDGE_CURVE('',#97,#484,#486,.T.);
#484 = VERTEX_POINT('',#485);
#485 = CARTESIAN_POINT('',(43.85,-49.1,13.19));
#486 = LINE('',#487,#488);
#487 = CARTESIAN_POINT('',(43.85,-49.1,0.));
#488 = VECTOR('',#489,1.);
#489 = DIRECTION('',(0.,0.,1.));
#490 = ORIENTED_EDGE('',*,*,#96,.T.);
#491 = ORIENTED_EDGE('',*,*,#461,.T.);
#492 = ORIENTED_EDGE('',*,*,#493,.F.);
#493 = EDGE_CURVE('',#484,#462,#494,.T.);
#494 = LINE('',#495,#496);
#495 = CARTESIAN_POINT('',(15.075,-49.1,13.19));
#496 = VECTOR('',#497,1.);
#497 = DIRECTION('',(-1.,0.,0.));
#498 = PLANE('',#499);
#499 = AXIS2_PLACEMENT_3D('',#500,#501,#502);
#500 = CARTESIAN_POINT('',(30.15,-49.1,0.));
#501 = DIRECTION('',(0.,1.,0.));
#502 = DIRECTION('',(0.,0.,1.));
#503 = ADVANCED_FACE('',(#504),#522,.T.);
#504 = FACE_BOUND('',#505,.T.);
#505 = EDGE_LOOP('',(#506,#514,#515,#516));
#506 = ORIENTED_EDGE('',*,*,#507,.T.);
#507 = EDGE_CURVE('',#508,#121,#510,.T.);
#508 = VERTEX_POINT('',#509);
#509 = CARTESIAN_POINT('',(44.95,-51.23174242292,13.19));
#510 = LINE('',#511,#512);
#511 = CARTESIAN_POINT('',(44.95,-51.23174242292,0.));
#512 = VECTOR('',#513,1.);
#513 = DIRECTION('',(0.,0.,-1.));
#514 = ORIENTED_EDGE('',*,*,#129,.T.);
#515 = ORIENTED_EDGE('',*,*,#222,.F.);
#516 = ORIENTED_EDGE('',*,*,#517,.F.);
#517 = EDGE_CURVE('',#508,#214,#518,.T.);
#518 = LINE('',#519,#520);
#519 = CARTESIAN_POINT('',(44.95,-86.5,13.19));
#520 = VECTOR('',#521,1.);
#521 = DIRECTION('',(0.,1.,0.));
#522 = PLANE('',#523);
#523 = AXIS2_PLACEMENT_3D('',#524,#525,#526);
#524 = CARTESIAN_POINT('',(44.95,-53.,12.725));
#525 = DIRECTION('',(1.,0.,0.));
#526 = DIRECTION('',(0.,0.,1.));
#527 = ADVANCED_FACE('',(#528),#539,.F.);
#528 = FACE_BOUND('',#529,.F.);
#529 = EDGE_LOOP('',(#530,#531,#532,#533));
#530 = ORIENTED_EDGE('',*,*,#445,.F.);
#531 = ORIENTED_EDGE('',*,*,#104,.T.);
#532 = ORIENTED_EDGE('',*,*,#483,.T.);
#533 = ORIENTED_EDGE('',*,*,#534,.F.);
#534 = EDGE_CURVE('',#438,#484,#535,.T.);
#535 = LINE('',#536,#537);
#536 = CARTESIAN_POINT('',(43.85,-86.3,13.19));
#537 = VECTOR('',#538,1.);
#538 = DIRECTION('',(0.,1.,0.));
#539 = PLANE('',#540);
#540 = AXIS2_PLACEMENT_3D('',#541,#542,#543);
#541 = CARTESIAN_POINT('',(43.85,-52.6,0.));
#542 = DIRECTION('',(1.,0.,0.));
#543 = DIRECTION('',(0.,0.,1.));
#544 = ADVANCED_FACE('',(#545),#566,.T.);
#545 = FACE_BOUND('',#546,.T.);
#546 = EDGE_LOOP('',(#547,#556,#562,#563,#564,#565));
#547 = ORIENTED_EDGE('',*,*,#548,.F.);
#548 = EDGE_CURVE('',#549,#508,#551,.T.);
#549 = VERTEX_POINT('',#550);
#550 = CARTESIAN_POINT('',(46.35,-49.05,13.19));
#551 = CIRCLE('',#552,2.4);
#552 = AXIS2_PLACEMENT_3D('',#553,#554,#555);
#553 = CARTESIAN_POINT('',(43.95,-49.05,13.19));
#554 = DIRECTION('',(0.,0.,-1.));
#555 = DIRECTION('',(1.,0.,0.));
#556 = ORIENTED_EDGE('',*,*,#557,.T.);
#557 = EDGE_CURVE('',#549,#272,#558,.T.);
#558 = LINE('',#559,#560);
#559 = CARTESIAN_POINT('',(46.35,-49.05,0.));
#560 = VECTOR('',#561,1.);
#561 = DIRECTION('',(0.,0.,1.));
#562 = ORIENTED_EDGE('',*,*,#271,.T.);
#563 = ORIENTED_EDGE('',*,*,#420,.F.);
#564 = ORIENTED_EDGE('',*,*,#120,.F.);
#565 = ORIENTED_EDGE('',*,*,#507,.F.);
#566 = CYLINDRICAL_SURFACE('',#567,2.4);
#567 = AXIS2_PLACEMENT_3D('',#568,#569,#570);
#568 = CARTESIAN_POINT('',(43.95,-49.05,0.));
#569 = DIRECTION('',(0.,0.,-1.));
#570 = DIRECTION('',(1.,0.,0.));
#571 = ADVANCED_FACE('',(#572),#588,.F.);
#572 = FACE_BOUND('',#573,.F.);
#573 = EDGE_LOOP('',(#574,#580,#581,#587));
#574 = ORIENTED_EDGE('',*,*,#575,.F.);
#575 = EDGE_CURVE('',#155,#290,#576,.T.);
#576 = LINE('',#577,#578);
#577 = CARTESIAN_POINT('',(43.95,-49.05,12.39));
#578 = VECTOR('',#579,1.);
#579 = DIRECTION('',(0.,0.,1.));
#580 = ORIENTED_EDGE('',*,*,#154,.T.);
#581 = ORIENTED_EDGE('',*,*,#582,.T.);
#582 = EDGE_CURVE('',#157,#292,#583,.T.);
#583 = LINE('',#584,#585);
#584 = CARTESIAN_POINT('',(43.95,-18.55,12.39));
#585 = VECTOR('',#586,1.);
#586 = DIRECTION('',(0.,0.,1.));
#587 = ORIENTED_EDGE('',*,*,#289,.F.);
#588 = PLANE('',#589);
#589 = AXIS2_PLACEMENT_3D('',#590,#591,#592);
#590 = CARTESIAN_POINT('',(43.95,-49.05,12.39));
#591 = DIRECTION('',(1.,0.,0.));
#592 = DIRECTION('',(0.,0.,1.));
#593 = ADVANCED_FACE('',(#594),#605,.F.);
#594 = FACE_BOUND('',#595,.F.);
#595 = EDGE_LOOP('',(#596,#597,#598,#604));
#596 = ORIENTED_EDGE('',*,*,#582,.F.);
#597 = ORIENTED_EDGE('',*,*,#180,.T.);
#598 = ORIENTED_EDGE('',*,*,#599,.T.);
#599 = EDGE_CURVE('',#173,#308,#600,.T.);
#600 = LINE('',#601,#602);
#601 = CARTESIAN_POINT('',(30.05,-18.55,12.39));
#602 = VECTOR('',#603,1.);
#603 = DIRECTION('',(0.,0.,1.));
#604 = ORIENTED_EDGE('',*,*,#315,.F.);
#605 = PLANE('',#606);
#606 = AXIS2_PLACEMENT_3D('',#607,#608,#609);
#607 = CARTESIAN_POINT('',(30.05,-18.55,12.39));
#608 = DIRECTION('',(0.,1.,0.));
#609 = DIRECTION('',(0.,0.,1.));
#610 = ADVANCED_FACE('',(#611),#622,.T.);
#611 = FACE_BOUND('',#612,.T.);
#612 = EDGE_LOOP('',(#613,#619,#620,#621));
#613 = ORIENTED_EDGE('',*,*,#614,.F.);
#614 = EDGE_CURVE('',#165,#300,#615,.T.);
#615 = LINE('',#616,#617);
#616 = CARTESIAN_POINT('',(30.05,-49.05,12.39));
#617 = VECTOR('',#618,1.);
#618 = DIRECTION('',(0.,0.,1.));
#619 = ORIENTED_EDGE('',*,*,#172,.T.);
#620 = ORIENTED_EDGE('',*,*,#599,.T.);
#621 = ORIENTED_EDGE('',*,*,#307,.F.);
#622 = PLANE('',#623);
#623 = AXIS2_PLACEMENT_3D('',#624,#625,#626);
#624 = CARTESIAN_POINT('',(30.05,-49.05,12.39));
#625 = DIRECTION('',(1.,0.,0.));
#626 = DIRECTION('',(0.,0.,1.));
#627 = ADVANCED_FACE('',(#628),#634,.T.);
#628 = FACE_BOUND('',#629,.T.);
#629 = EDGE_LOOP('',(#630,#631,#632,#633));
#630 = ORIENTED_EDGE('',*,*,#575,.F.);
#631 = ORIENTED_EDGE('',*,*,#164,.T.);
#632 = ORIENTED_EDGE('',*,*,#614,.T.);
#633 = ORIENTED_EDGE('',*,*,#299,.F.);
#634 = PLANE('',#635);
#635 = AXIS2_PLACEMENT_3D('',#636,#637,#638);
#636 = CARTESIAN_POINT('',(30.05,-49.05,12.39));
#637 = DIRECTION('',(0.,1.,0.));
#638 = DIRECTION('',(0.,0.,1.));
#639 = ADVANCED_FACE('',(#640),#651,.F.);
#640 = FACE_BOUND('',#641,.F.);
#641 = EDGE_LOOP('',(#642,#643,#644,#650));
#642 = ORIENTED_EDGE('',*,*,#517,.F.);
#643 = ORIENTED_EDGE('',*,*,#548,.F.);
#644 = ORIENTED_EDGE('',*,*,#645,.F.);
#645 = EDGE_CURVE('',#206,#549,#646,.T.);
#646 = LINE('',#647,#648);
#647 = CARTESIAN_POINT('',(46.35,-69.275,13.19));
#648 = VECTOR('',#649,1.);
#649 = DIRECTION('',(0.,-1.,0.));
#650 = ORIENTED_EDGE('',*,*,#213,.F.);
#651 = PLANE('',#652);
#652 = AXIS2_PLACEMENT_3D('',#653,#654,#655);
#653 = CARTESIAN_POINT('',(0.,-120.,13.19));
#654 = DIRECTION('',(0.,0.,1.));
#655 = DIRECTION('',(1.,0.,0.));
#656 = ADVANCED_FACE('',(#657),#663,.T.);
#657 = FACE_BOUND('',#658,.T.);
#658 = EDGE_LOOP('',(#659,#660,#661,#662));
#659 = ORIENTED_EDGE('',*,*,#645,.F.);
#660 = ORIENTED_EDGE('',*,*,#205,.T.);
#661 = ORIENTED_EDGE('',*,*,#280,.T.);
#662 = ORIENTED_EDGE('',*,*,#557,.F.);
#663 = PLANE('',#664);
#664 = AXIS2_PLACEMENT_3D('',#665,#666,#667);
#665 = CARTESIAN_POINT('',(46.35,-18.55,0.));
#666 = DIRECTION('',(1.,0.,0.));
#667 = DIRECTION('',(0.,-1.,0.));
#668 = ADVANCED_FACE('',(#669),#680,.T.);
#669 = FACE_BOUND('',#670,.T.);
#670 = EDGE_LOOP('',(#671,#677,#678,#679));
#671 = ORIENTED_EDGE('',*,*,#672,.F.);
#672 = EDGE_CURVE('',#396,#330,#673,.T.);
#673 = LINE('',#674,#675);
#674 = CARTESIAN_POINT('',(27.65,-84.525,13.19));
#675 = VECTOR('',#676,1.);
#676 = DIRECTION('',(0.,1.,0.));
#677 = ORIENTED_EDGE('',*,*,#395,.T.);
#678 = ORIENTED_EDGE('',*,*,#246,.T.);
#679 = ORIENTED_EDGE('',*,*,#340,.F.);
#680 = PLANE('',#681);
#681 = AXIS2_PLACEMENT_3D('',#682,#683,#684);
#682 = CARTESIAN_POINT('',(27.65,-49.05,0.));
#683 = DIRECTION('',(-1.,0.,0.));
#684 = DIRECTION('',(0.,1.,0.));
#685 = ADVANCED_FACE('',(#686),#692,.F.);
#686 = FACE_BOUND('',#687,.F.);
#687 = EDGE_LOOP('',(#688,#689,#690,#691));
#688 = ORIENTED_EDGE('',*,*,#403,.F.);
#689 = ORIENTED_EDGE('',*,*,#373,.T.);
#690 = ORIENTED_EDGE('',*,*,#329,.F.);
#691 = ORIENTED_EDGE('',*,*,#672,.F.);
#692 = PLANE('',#693);
#693 = AXIS2_PLACEMENT_3D('',#694,#695,#696);
#694 = CARTESIAN_POINT('',(0.,-120.,13.19));
#695 = DIRECTION('',(0.,0.,1.));
#696 = DIRECTION('',(1.,0.,0.));
#697 = ADVANCED_FACE('',(#698),#704,.F.);
#698 = FACE_BOUND('',#699,.F.);
#699 = EDGE_LOOP('',(#700,#701,#702,#703));
#700 = ORIENTED_EDGE('',*,*,#437,.F.);
#701 = ORIENTED_EDGE('',*,*,#534,.T.);
#702 = ORIENTED_EDGE('',*,*,#493,.T.);
#703 = ORIENTED_EDGE('',*,*,#469,.F.);
#704 = PLANE('',#705);
#705 = AXIS2_PLACEMENT_3D('',#706,#707,#708);
#706 = CARTESIAN_POINT('',(0.,-120.,13.19));
#707 = DIRECTION('',(0.,0.,1.));
#708 = DIRECTION('',(1.,0.,0.));
#709 = MANIFOLD_SOLID_BREP('',#710);
#710 = CLOSED_SHELL('',(#711,#751,#876,#917,#1021,#1038,#1058,#1075,
    #1092,#1109));
#711 = ADVANCED_FACE('',(#712),#746,.T.);
#712 = FACE_BOUND('',#713,.T.);
#713 = EDGE_LOOP('',(#714,#724,#732,#740));
#714 = ORIENTED_EDGE('',*,*,#715,.F.);
#715 = EDGE_CURVE('',#716,#718,#720,.T.);
#716 = VERTEX_POINT('',#717);
#717 = CARTESIAN_POINT('',(41.197969270442,-59.8296013753,13.19));
#718 = VERTEX_POINT('',#719);
#719 = CARTESIAN_POINT('',(45.444702795165,-63.84553416499,13.19));
#720 = LINE('',#721,#722);
#721 = CARTESIAN_POINT('',(45.342678890819,-63.74905503805,13.19));
#722 = VECTOR('',#723,1.);
#723 = DIRECTION('',(0.726574967353,-0.687087197389,0.));
#724 = ORIENTED_EDGE('',*,*,#725,.T.);
#725 = EDGE_CURVE('',#716,#726,#728,.T.);
#726 = VERTEX_POINT('',#727);
#727 = CARTESIAN_POINT('',(41.197969270442,-59.8296013753,13.59));
#728 = LINE('',#729,#730);
#729 = CARTESIAN_POINT('',(41.197969270442,-59.8296013753,0.));
#730 = VECTOR('',#731,1.);
#731 = DIRECTION('',(0.,0.,1.));
#732 = ORIENTED_EDGE('',*,*,#733,.T.);
#733 = EDGE_CURVE('',#726,#734,#736,.T.);
#734 = VERTEX_POINT('',#735);
#735 = CARTESIAN_POINT('',(45.444702795165,-63.84553416499,13.59));
#736 = LINE('',#737,#738);
#737 = CARTESIAN_POINT('',(45.342678890819,-63.74905503805,13.59));
#738 = VECTOR('',#739,1.);
#739 = DIRECTION('',(0.726574967353,-0.687087197389,0.));
#740 = ORIENTED_EDGE('',*,*,#741,.F.);
#741 = EDGE_CURVE('',#718,#734,#742,.T.);
#742 = LINE('',#743,#744);
#743 = CARTESIAN_POINT('',(45.444702795165,-63.84553416499,0.));
#744 = VECTOR('',#745,1.);
#745 = DIRECTION('',(0.,0.,1.));
#746 = PLANE('',#747);
#747 = AXIS2_PLACEMENT_3D('',#748,#749,#750);
#748 = CARTESIAN_POINT('',(41.197969270442,-59.8296013753,0.));
#749 = DIRECTION('',(0.687087197389,0.726574967353,0.));
#750 = DIRECTION('',(0.726574967353,-0.687087197389,0.));
#751 = ADVANCED_FACE('',(#752),#871,.F.);
#752 = FACE_BOUND('',#753,.F.);
#753 = EDGE_LOOP('',(#754,#755,#763,#771,#779,#787,#795,#851));
#754 = ORIENTED_EDGE('',*,*,#715,.F.);
#755 = ORIENTED_EDGE('',*,*,#756,.T.);
#756 = EDGE_CURVE('',#716,#757,#759,.T.);
#757 = VERTEX_POINT('',#758);
#758 = CARTESIAN_POINT('',(38.5,-59.3,13.19));
#759 = LINE('',#760,#761);
#760 = CARTESIAN_POINT('',(27.049759972367,-57.05236029087,13.19));
#761 = VECTOR('',#762,1.);
#762 = DIRECTION('',(-0.981273361413,0.1926203265,0.));
#763 = ORIENTED_EDGE('',*,*,#764,.T.);
#764 = EDGE_CURVE('',#757,#765,#767,.T.);
#765 = VERTEX_POINT('',#766);
#766 = CARTESIAN_POINT('',(37.,-60.1,13.19));
#767 = LINE('',#768,#769);
#768 = CARTESIAN_POINT('',(10.910899653979,-74.01418685121,13.19));
#769 = VECTOR('',#770,1.);
#770 = DIRECTION('',(-0.882352941176,-0.470588235294,0.));
#771 = ORIENTED_EDGE('',*,*,#772,.T.);
#772 = EDGE_CURVE('',#765,#773,#775,.T.);
#773 = VERTEX_POINT('',#774);
#774 = CARTESIAN_POINT('',(35.5,-59.3,13.19));
#775 = LINE('',#776,#777);
#776 = CARTESIAN_POINT('',(35.032871972318,-59.0508650519,13.19));
#777 = VECTOR('',#778,1.);
#778 = DIRECTION('',(-0.882352941176,0.470588235294,0.));
#779 = ORIENTED_EDGE('',*,*,#780,.T.);
#780 = EDGE_CURVE('',#773,#781,#783,.T.);
#781 = VERTEX_POINT('',#782);
#782 = CARTESIAN_POINT('',(32.802030729558,-59.8296013753,13.19));
#783 = LINE('',#784,#785);
#784 = CARTESIAN_POINT('',(12.672020499544,-63.78104782786,13.19));
#785 = VECTOR('',#786,1.);
#786 = DIRECTION('',(-0.981273361413,-0.1926203265,0.));
#787 = ORIENTED_EDGE('',*,*,#788,.F.);
#788 = EDGE_CURVE('',#789,#781,#791,.T.);
#789 = VERTEX_POINT('',#790);
#790 = CARTESIAN_POINT('',(29.12434588197,-63.30741204639,13.19));
#791 = LINE('',#792,#793);
#792 = CARTESIAN_POINT('',(7.285764907554,-83.95911362003,13.19));
#793 = VECTOR('',#794,1.);
#794 = DIRECTION('',(0.726574967353,0.687087197389,0.));
#795 = ORIENTED_EDGE('',*,*,#796,.F.);
#796 = EDGE_CURVE('',#797,#789,#799,.T.);
#797 = VERTEX_POINT('',#798);
#798 = CARTESIAN_POINT('',(40.,-64.3,13.19));
#799 = B_SPLINE_CURVE_WITH_KNOTS('',8,(#800,#801,#802,#803,#804,#805,
    #806,#807,#808,#809,#810,#811,#812,#813,#814,#815,#816,#817,#818,
    #819,#820,#821,#822,#823,#824,#825,#826,#827,#828,#829,#830,#831,
    #832,#833,#834,#835,#836,#837,#838,#839,#840,#841,#842,#843,#844,
    #845,#846,#847,#848,#849,#850),.UNSPECIFIED.,.F.,.F.,(9,7,7,7,7,7,7,
    9),(0.,8.036906720292E-02,0.439060195522,0.506316591496,
    0.566102806709,0.621455293804,0.847227800284,1.),.UNSPECIFIED.);
#800 = CARTESIAN_POINT('',(40.,-64.3,13.19));
#801 = CARTESIAN_POINT('',(39.890951406666,-64.31744777493,13.19));
#802 = CARTESIAN_POINT('',(39.781713626799,-64.33368854966,13.19));
#803 = CARTESIAN_POINT('',(39.672300855168,-64.34870878588,13.19));
#804 = CARTESIAN_POINT('',(39.562727791049,-64.36249690215,13.19));
#805 = CARTESIAN_POINT('',(39.453009666265,-64.37504351453,13.19));
#806 = CARTESIAN_POINT('',(39.34316227322,-64.38634167724,13.19));
#807 = CARTESIAN_POINT('',(39.233201992933,-64.39638712323,13.19));
#808 = CARTESIAN_POINT('',(38.631959684915,-64.44441487656,13.19));
#809 = CARTESIAN_POINT('',(38.138557117188,-64.45869630201,13.19));
#810 = CARTESIAN_POINT('',(37.644996765253,-64.44780380603,13.19));
#811 = CARTESIAN_POINT('',(37.152754676808,-64.41290193105,13.19));
#812 = CARTESIAN_POINT('',(36.66273202471,-64.35657672338,13.19));
#813 = CARTESIAN_POINT('',(36.175279809435,-64.28273910411,13.19));
#814 = CARTESIAN_POINT('',(35.690270415062,-64.19600616053,13.19));
#815 = CARTESIAN_POINT('',(35.116559986801,-64.08342947203,13.19));
#816 = CARTESIAN_POINT('',(35.026028530029,-64.06536810706,13.19));
#817 = CARTESIAN_POINT('',(34.935548186222,-64.04705262139,13.19));
#818 = CARTESIAN_POINT('',(34.845113304765,-64.02851469443,13.19));
#819 = CARTESIAN_POINT('',(34.75471792408,-64.00978611006,13.19));
#820 = CARTESIAN_POINT('',(34.664355771627,-63.99089875662,13.19));
#821 = CARTESIAN_POINT('',(34.574020263906,-63.97188462689,13.19));
#822 = CARTESIAN_POINT('',(34.403420137453,-63.93578942843,13.19));
#823 = CARTESIAN_POINT('',(34.323151532757,-63.91872813724,13.19));
#824 = CARTESIAN_POINT('',(34.24289387647,-63.90161445502,13.19));
#825 = CARTESIAN_POINT('',(34.162642364845,-63.88447079019,13.19));
#826 = CARTESIAN_POINT('',(34.08239220629,-63.86731944913,13.19));
#827 = CARTESIAN_POINT('',(34.002138621362,-63.85018263621,13.19));
#828 = CARTESIAN_POINT('',(33.921876842771,-63.83308245373,13.19));
#829 = CARTESIAN_POINT('',(33.767280538139,-63.80026314673,13.19));
#830 = CARTESIAN_POINT('',(33.692947960573,-63.78453559746,13.19));
#831 = CARTESIAN_POINT('',(33.61860062944,-63.76887570336,13.19));
#832 = CARTESIAN_POINT('',(33.544234929998,-63.75330073732,13.19));
#833 = CARTESIAN_POINT('',(33.469847386009,-63.73782779596,13.19));
#834 = CARTESIAN_POINT('',(33.395434659732,-63.72247379961,13.19));
#835 = CARTESIAN_POINT('',(33.320993551929,-63.70725549232,13.19));
#836 = CARTESIAN_POINT('',(32.942761312372,-63.63073782236,13.19));
#837 = CARTESIAN_POINT('',(32.638479527738,-63.57181915019,13.19));
#838 = CARTESIAN_POINT('',(32.333463509961,-63.5165518169,13.19));
#839 = CARTESIAN_POINT('',(32.027573200035,-63.46599861354,13.19));
#840 = CARTESIAN_POINT('',(31.720746711456,-63.42112813683,13.19));
#841 = CARTESIAN_POINT('',(31.413005408641,-63.38278349267,13.19));
#842 = CARTESIAN_POINT('',(31.104457970251,-63.35165829725,13.19));
#843 = CARTESIAN_POINT('',(30.586109595498,-63.3124606992,13.19));
#844 = CARTESIAN_POINT('',(30.376630688238,-63.3001878319,13.19));
#845 = CARTESIAN_POINT('',(30.166932652983,-63.29162646509,13.19));
#846 = CARTESIAN_POINT('',(29.95708788456,-63.28690449601,13.19));
#847 = CARTESIAN_POINT('',(29.747175256034,-63.28611419951,13.19));
#848 = CARTESIAN_POINT('',(29.537280139461,-63.28931379994,13.19));
#849 = CARTESIAN_POINT('',(29.327494426637,-63.29652904308,13.19));
#850 = CARTESIAN_POINT('',(29.117916549856,-63.30775476806,13.19));
#851 = ORIENTED_EDGE('',*,*,#852,.F.);
#852 = EDGE_CURVE('',#718,#797,#853,.T.);
#853 = B_SPLINE_CURVE_WITH_KNOTS('',6,(#854,#855,#856,#857,#858,#859,
    #860,#861,#862,#863,#864,#865,#866,#867,#868,#869,#870),
  .UNSPECIFIED.,.F.,.F.,(7,5,5,7),(0.,0.266928276592,0.580993113634,1.),
  .UNSPECIFIED.);
#854 = CARTESIAN_POINT('',(45.447508783486,-63.84580407599,13.19));
#855 = CARTESIAN_POINT('',(45.205807965714,-63.82251857477,13.19));
#856 = CARTESIAN_POINT('',(44.963344374653,-63.8066104865,13.19));
#857 = CARTESIAN_POINT('',(44.720400611472,-63.79796223691,13.19));
#858 = CARTESIAN_POINT('',(44.47720744328,-63.79600743997,13.19));
#859 = CARTESIAN_POINT('',(44.233952739227,-63.79997419208,13.19));
#860 = CARTESIAN_POINT('',(43.704631519753,-63.81986776807,13.19));
#861 = CARTESIAN_POINT('',(43.41858943166,-63.83778259996,13.19));
#862 = CARTESIAN_POINT('',(43.132764643887,-63.86163021113,13.19));
#863 = CARTESIAN_POINT('',(42.84721943793,-63.8902204932,13.19));
#864 = CARTESIAN_POINT('',(42.561959466123,-63.92265484384,13.19));
#865 = CARTESIAN_POINT('',(41.896639311269,-64.00566055628,13.19));
#866 = CARTESIAN_POINT('',(41.516798752137,-64.05866652441,13.19));
#867 = CARTESIAN_POINT('',(41.137285694483,-64.11553284594,13.19));
#868 = CARTESIAN_POINT('',(40.75803215403,-64.17517190249,13.19));
#869 = CARTESIAN_POINT('',(40.378967198278,-64.23683880028,13.19));
#870 = CARTESIAN_POINT('',(40.,-64.3,13.19));
#871 = PLANE('',#872);
#872 = AXIS2_PLACEMENT_3D('',#873,#874,#875);
#873 = CARTESIAN_POINT('',(0.,-120.,13.19));
#874 = DIRECTION('',(0.,0.,1.));
#875 = DIRECTION('',(1.,0.,0.));
#876 = ADVANCED_FACE('',(#877),#909,.F.);
#877 = FACE_BOUND('',#878,.F.);
#878 = EDGE_LOOP('',(#879,#880,#888,#908));
#879 = ORIENTED_EDGE('',*,*,#852,.T.);
#880 = ORIENTED_EDGE('',*,*,#881,.T.);
#881 = EDGE_CURVE('',#797,#882,#884,.T.);
#882 = VERTEX_POINT('',#883);
#883 = CARTESIAN_POINT('',(40.,-64.3,13.59));
#884 = LINE('',#885,#886);
#885 = CARTESIAN_POINT('',(40.,-64.3,0.));
#886 = VECTOR('',#887,1.);
#887 = DIRECTION('',(0.,0.,1.));
#888 = ORIENTED_EDGE('',*,*,#889,.F.);
#889 = EDGE_CURVE('',#734,#882,#890,.T.);
#890 = B_SPLINE_CURVE_WITH_KNOTS('',6,(#891,#892,#893,#894,#895,#896,
    #897,#898,#899,#900,#901,#902,#903,#904,#905,#906,#907),
  .UNSPECIFIED.,.F.,.F.,(7,5,5,7),(0.,0.266928276592,0.580993113634,1.),
  .UNSPECIFIED.);
#891 = CARTESIAN_POINT('',(45.447508783486,-63.84580407599,13.59));
#892 = CARTESIAN_POINT('',(45.205807965714,-63.82251857477,13.59));
#893 = CARTESIAN_POINT('',(44.963344374653,-63.8066104865,13.59));
#894 = CARTESIAN_POINT('',(44.720400611472,-63.79796223691,13.59));
#895 = CARTESIAN_POINT('',(44.47720744328,-63.79600743997,13.59));
#896 = CARTESIAN_POINT('',(44.233952739227,-63.79997419208,13.59));
#897 = CARTESIAN_POINT('',(43.704631519753,-63.81986776807,13.59));
#898 = CARTESIAN_POINT('',(43.41858943166,-63.83778259996,13.59));
#899 = CARTESIAN_POINT('',(43.132764643887,-63.86163021113,13.59));
#900 = CARTESIAN_POINT('',(42.84721943793,-63.8902204932,13.59));
#901 = CARTESIAN_POINT('',(42.561959466123,-63.92265484384,13.59));
#902 = CARTESIAN_POINT('',(41.896639311269,-64.00566055628,13.59));
#903 = CARTESIAN_POINT('',(41.516798752137,-64.05866652441,13.59));
#904 = CARTESIAN_POINT('',(41.137285694483,-64.11553284594,13.59));
#905 = CARTESIAN_POINT('',(40.75803215403,-64.17517190249,13.59));
#906 = CARTESIAN_POINT('',(40.378967198278,-64.23683880028,13.59));
#907 = CARTESIAN_POINT('',(40.,-64.3,13.59));
#908 = ORIENTED_EDGE('',*,*,#741,.F.);
#909 = SURFACE_OF_LINEAR_EXTRUSION('',#910,#915);
#910 = B_SPLINE_CURVE_WITH_KNOTS('',3,(#911,#912,#913,#914),
  .UNSPECIFIED.,.F.,.F.,(4,4),(0.,1.),.PIECEWISE_BEZIER_KNOTS.);
#911 = CARTESIAN_POINT('',(40.,-64.3,0.));
#912 = CARTESIAN_POINT('',(43.9,-63.65,0.));
#913 = CARTESIAN_POINT('',(45.4,-63.6,0.));
#914 = CARTESIAN_POINT('',(47.8,-64.35,0.));
#915 = VECTOR('',#916,1.);
#916 = DIRECTION('',(-0.,-0.,-1.));
#917 = ADVANCED_FACE('',(#918),#1016,.T.);
#918 = FACE_BOUND('',#919,.T.);
#919 = EDGE_LOOP('',(#920,#921,#929,#937,#945,#953,#961,#1015));
#920 = ORIENTED_EDGE('',*,*,#733,.F.);
#921 = ORIENTED_EDGE('',*,*,#922,.T.);
#922 = EDGE_CURVE('',#726,#923,#925,.T.);
#923 = VERTEX_POINT('',#924);
#924 = CARTESIAN_POINT('',(38.5,-59.3,13.59));
#925 = LINE('',#926,#927);
#926 = CARTESIAN_POINT('',(27.049759972367,-57.05236029087,13.59));
#927 = VECTOR('',#928,1.);
#928 = DIRECTION('',(-0.981273361413,0.1926203265,0.));
#929 = ORIENTED_EDGE('',*,*,#930,.T.);
#930 = EDGE_CURVE('',#923,#931,#933,.T.);
#931 = VERTEX_POINT('',#932);
#932 = CARTESIAN_POINT('',(37.,-60.1,13.59));
#933 = LINE('',#934,#935);
#934 = CARTESIAN_POINT('',(10.910899653979,-74.01418685121,13.59));
#935 = VECTOR('',#936,1.);
#936 = DIRECTION('',(-0.882352941176,-0.470588235294,0.));
#937 = ORIENTED_EDGE('',*,*,#938,.T.);
#938 = EDGE_CURVE('',#931,#939,#941,.T.);
#939 = VERTEX_POINT('',#940);
#940 = CARTESIAN_POINT('',(35.5,-59.3,13.59));
#941 = LINE('',#942,#943);
#942 = CARTESIAN_POINT('',(35.032871972318,-59.0508650519,13.59));
#943 = VECTOR('',#944,1.);
#944 = DIRECTION('',(-0.882352941176,0.470588235294,0.));
#945 = ORIENTED_EDGE('',*,*,#946,.T.);
#946 = EDGE_CURVE('',#939,#947,#949,.T.);
#947 = VERTEX_POINT('',#948);
#948 = CARTESIAN_POINT('',(32.802030729558,-59.8296013753,13.59));
#949 = LINE('',#950,#951);
#950 = CARTESIAN_POINT('',(12.672020499544,-63.78104782786,13.59));
#951 = VECTOR('',#952,1.);
#952 = DIRECTION('',(-0.981273361413,-0.1926203265,0.));
#953 = ORIENTED_EDGE('',*,*,#954,.F.);
#954 = EDGE_CURVE('',#955,#947,#957,.T.);
#955 = VERTEX_POINT('',#956);
#956 = CARTESIAN_POINT('',(29.12434588197,-63.30741204639,13.59));
#957 = LINE('',#958,#959);
#958 = CARTESIAN_POINT('',(7.285764907554,-83.95911362003,13.59));
#959 = VECTOR('',#960,1.);
#960 = DIRECTION('',(0.726574967353,0.687087197389,0.));
#961 = ORIENTED_EDGE('',*,*,#962,.F.);
#962 = EDGE_CURVE('',#882,#955,#963,.T.);
#963 = B_SPLINE_CURVE_WITH_KNOTS('',8,(#964,#965,#966,#967,#968,#969,
    #970,#971,#972,#973,#974,#975,#976,#977,#978,#979,#980,#981,#982,
    #983,#984,#985,#986,#987,#988,#989,#990,#991,#992,#993,#994,#995,
    #996,#997,#998,#999,#1000,#1001,#1002,#1003,#1004,#1005,#1006,#1007,
    #1008,#1009,#1010,#1011,#1012,#1013,#1014),.UNSPECIFIED.,.F.,.F.,(9,
    7,7,7,7,7,7,9),(0.,8.036906720292E-02,0.439060195522,0.506316591496,
    0.566102806709,0.621455293804,0.847227800284,1.),.UNSPECIFIED.);
#964 = CARTESIAN_POINT('',(40.,-64.3,13.59));
#965 = CARTESIAN_POINT('',(39.890951406666,-64.31744777493,13.59));
#966 = CARTESIAN_POINT('',(39.781713626799,-64.33368854966,13.59));
#967 = CARTESIAN_POINT('',(39.672300855168,-64.34870878588,13.59));
#968 = CARTESIAN_POINT('',(39.562727791049,-64.36249690215,13.59));
#969 = CARTESIAN_POINT('',(39.453009666265,-64.37504351453,13.59));
#970 = CARTESIAN_POINT('',(39.34316227322,-64.38634167724,13.59));
#971 = CARTESIAN_POINT('',(39.233201992933,-64.39638712323,13.59));
#972 = CARTESIAN_POINT('',(38.631959684915,-64.44441487656,13.59));
#973 = CARTESIAN_POINT('',(38.138557117188,-64.45869630201,13.59));
#974 = CARTESIAN_POINT('',(37.644996765253,-64.44780380603,13.59));
#975 = CARTESIAN_POINT('',(37.152754676808,-64.41290193105,13.59));
#976 = CARTESIAN_POINT('',(36.66273202471,-64.35657672338,13.59));
#977 = CARTESIAN_POINT('',(36.175279809435,-64.28273910411,13.59));
#978 = CARTESIAN_POINT('',(35.690270415062,-64.19600616053,13.59));
#979 = CARTESIAN_POINT('',(35.116559986801,-64.08342947203,13.59));
#980 = CARTESIAN_POINT('',(35.026028530029,-64.06536810706,13.59));
#981 = CARTESIAN_POINT('',(34.935548186222,-64.04705262139,13.59));
#982 = CARTESIAN_POINT('',(34.845113304765,-64.02851469443,13.59));
#983 = CARTESIAN_POINT('',(34.75471792408,-64.00978611006,13.59));
#984 = CARTESIAN_POINT('',(34.664355771627,-63.99089875662,13.59));
#985 = CARTESIAN_POINT('',(34.574020263906,-63.97188462689,13.59));
#986 = CARTESIAN_POINT('',(34.403420137453,-63.93578942843,13.59));
#987 = CARTESIAN_POINT('',(34.323151532757,-63.91872813724,13.59));
#988 = CARTESIAN_POINT('',(34.24289387647,-63.90161445502,13.59));
#989 = CARTESIAN_POINT('',(34.162642364845,-63.88447079019,13.59));
#990 = CARTESIAN_POINT('',(34.08239220629,-63.86731944913,13.59));
#991 = CARTESIAN_POINT('',(34.002138621362,-63.85018263621,13.59));
#992 = CARTESIAN_POINT('',(33.921876842771,-63.83308245373,13.59));
#993 = CARTESIAN_POINT('',(33.767280538139,-63.80026314673,13.59));
#994 = CARTESIAN_POINT('',(33.692947960573,-63.78453559746,13.59));
#995 = CARTESIAN_POINT('',(33.61860062944,-63.76887570336,13.59));
#996 = CARTESIAN_POINT('',(33.544234929998,-63.75330073732,13.59));
#997 = CARTESIAN_POINT('',(33.469847386009,-63.73782779596,13.59));
#998 = CARTESIAN_POINT('',(33.395434659732,-63.72247379961,13.59));
#999 = CARTESIAN_POINT('',(33.320993551929,-63.70725549232,13.59));
#1000 = CARTESIAN_POINT('',(32.942761312372,-63.63073782236,13.59));
#1001 = CARTESIAN_POINT('',(32.638479527738,-63.57181915019,13.59));
#1002 = CARTESIAN_POINT('',(32.333463509961,-63.5165518169,13.59));
#1003 = CARTESIAN_POINT('',(32.027573200035,-63.46599861354,13.59));
#1004 = CARTESIAN_POINT('',(31.720746711456,-63.42112813683,13.59));
#1005 = CARTESIAN_POINT('',(31.413005408641,-63.38278349267,13.59));
#1006 = CARTESIAN_POINT('',(31.104457970251,-63.35165829725,13.59));
#1007 = CARTESIAN_POINT('',(30.586109595498,-63.3124606992,13.59));
#1008 = CARTESIAN_POINT('',(30.376630688238,-63.3001878319,13.59));
#1009 = CARTESIAN_POINT('',(30.166932652983,-63.29162646509,13.59));
#1010 = CARTESIAN_POINT('',(29.95708788456,-63.28690449601,13.59));
#1011 = CARTESIAN_POINT('',(29.747175256034,-63.28611419951,13.59));
#1012 = CARTESIAN_POINT('',(29.537280139461,-63.28931379994,13.59));
#1013 = CARTESIAN_POINT('',(29.327494426637,-63.29652904308,13.59));
#1014 = CARTESIAN_POINT('',(29.117916549856,-63.30775476806,13.59));
#1015 = ORIENTED_EDGE('',*,*,#889,.F.);
#1016 = PLANE('',#1017);
#1017 = AXIS2_PLACEMENT_3D('',#1018,#1019,#1020);
#1018 = CARTESIAN_POINT('',(0.,-120.,13.59));
#1019 = DIRECTION('',(0.,0.,1.));
#1020 = DIRECTION('',(1.,0.,0.));
#1021 = ADVANCED_FACE('',(#1022),#1033,.F.);
#1022 = FACE_BOUND('',#1023,.F.);
#1023 = EDGE_LOOP('',(#1024,#1025,#1026,#1027));
#1024 = ORIENTED_EDGE('',*,*,#756,.F.);
#1025 = ORIENTED_EDGE('',*,*,#725,.T.);
#1026 = ORIENTED_EDGE('',*,*,#922,.T.);
#1027 = ORIENTED_EDGE('',*,*,#1028,.F.);
#1028 = EDGE_CURVE('',#757,#923,#1029,.T.);
#1029 = LINE('',#1030,#1031);
#1030 = CARTESIAN_POINT('',(38.5,-59.3,0.));
#1031 = VECTOR('',#1032,1.);
#1032 = DIRECTION('',(0.,0.,1.));
#1033 = PLANE('',#1034);
#1034 = AXIS2_PLACEMENT_3D('',#1035,#1036,#1037);
#1035 = CARTESIAN_POINT('',(41.197969270442,-59.8296013753,0.));
#1036 = DIRECTION('',(-0.1926203265,-0.981273361413,0.));
#1037 = DIRECTION('',(-0.981273361413,0.1926203265,0.));
#1038 = ADVANCED_FACE('',(#1039),#1050,.F.);
#1039 = FACE_BOUND('',#1040,.F.);
#1040 = EDGE_LOOP('',(#1041,#1042,#1048,#1049));
#1041 = ORIENTED_EDGE('',*,*,#796,.T.);
#1042 = ORIENTED_EDGE('',*,*,#1043,.T.);
#1043 = EDGE_CURVE('',#789,#955,#1044,.T.);
#1044 = LINE('',#1045,#1046);
#1045 = CARTESIAN_POINT('',(29.12434588197,-63.30741204639,0.));
#1046 = VECTOR('',#1047,1.);
#1047 = DIRECTION('',(0.,0.,1.));
#1048 = ORIENTED_EDGE('',*,*,#962,.F.);
#1049 = ORIENTED_EDGE('',*,*,#881,.F.);
#1050 = SURFACE_OF_LINEAR_EXTRUSION('',#1051,#1056);
#1051 = B_SPLINE_CURVE_WITH_KNOTS('',3,(#1052,#1053,#1054,#1055),
  .UNSPECIFIED.,.F.,.F.,(4,4),(0.,1.),.PIECEWISE_BEZIER_KNOTS.);
#1052 = CARTESIAN_POINT('',(26.2,-63.8,0.));
#1053 = CARTESIAN_POINT('',(32.1,-62.15,0.));
#1054 = CARTESIAN_POINT('',(35.,-65.1,0.));
#1055 = CARTESIAN_POINT('',(40.,-64.3,0.));
#1056 = VECTOR('',#1057,1.);
#1057 = DIRECTION('',(-0.,-0.,-1.));
#1058 = ADVANCED_FACE('',(#1059),#1070,.T.);
#1059 = FACE_BOUND('',#1060,.T.);
#1060 = EDGE_LOOP('',(#1061,#1062,#1063,#1064));
#1061 = ORIENTED_EDGE('',*,*,#788,.F.);
#1062 = ORIENTED_EDGE('',*,*,#1043,.T.);
#1063 = ORIENTED_EDGE('',*,*,#954,.T.);
#1064 = ORIENTED_EDGE('',*,*,#1065,.F.);
#1065 = EDGE_CURVE('',#781,#947,#1066,.T.);
#1066 = LINE('',#1067,#1068);
#1067 = CARTESIAN_POINT('',(32.802030729558,-59.8296013753,0.));
#1068 = VECTOR('',#1069,1.);
#1069 = DIRECTION('',(0.,0.,1.));
#1070 = PLANE('',#1071);
#1071 = AXIS2_PLACEMENT_3D('',#1072,#1073,#1074);
#1072 = CARTESIAN_POINT('',(29.12434588197,-63.30741204639,0.));
#1073 = DIRECTION('',(-0.687087197389,0.726574967353,0.));
#1074 = DIRECTION('',(0.726574967353,0.687087197389,0.));
#1075 = ADVANCED_FACE('',(#1076),#1087,.F.);
#1076 = FACE_BOUND('',#1077,.F.);
#1077 = EDGE_LOOP('',(#1078,#1079,#1085,#1086));
#1078 = ORIENTED_EDGE('',*,*,#780,.F.);
#1079 = ORIENTED_EDGE('',*,*,#1080,.T.);
#1080 = EDGE_CURVE('',#773,#939,#1081,.T.);
#1081 = LINE('',#1082,#1083);
#1082 = CARTESIAN_POINT('',(35.5,-59.3,0.));
#1083 = VECTOR('',#1084,1.);
#1084 = DIRECTION('',(0.,0.,1.));
#1085 = ORIENTED_EDGE('',*,*,#946,.T.);
#1086 = ORIENTED_EDGE('',*,*,#1065,.F.);
#1087 = PLANE('',#1088);
#1088 = AXIS2_PLACEMENT_3D('',#1089,#1090,#1091);
#1089 = CARTESIAN_POINT('',(35.5,-59.3,0.));
#1090 = DIRECTION('',(0.1926203265,-0.981273361413,0.));
#1091 = DIRECTION('',(-0.981273361413,-0.1926203265,0.));
#1092 = ADVANCED_FACE('',(#1093),#1104,.F.);
#1093 = FACE_BOUND('',#1094,.F.);
#1094 = EDGE_LOOP('',(#1095,#1096,#1102,#1103));
#1095 = ORIENTED_EDGE('',*,*,#772,.F.);
#1096 = ORIENTED_EDGE('',*,*,#1097,.T.);
#1097 = EDGE_CURVE('',#765,#931,#1098,.T.);
#1098 = LINE('',#1099,#1100);
#1099 = CARTESIAN_POINT('',(37.,-60.1,0.));
#1100 = VECTOR('',#1101,1.);
#1101 = DIRECTION('',(0.,0.,1.));
#1102 = ORIENTED_EDGE('',*,*,#938,.T.);
#1103 = ORIENTED_EDGE('',*,*,#1080,.F.);
#1104 = PLANE('',#1105);
#1105 = AXIS2_PLACEMENT_3D('',#1106,#1107,#1108);
#1106 = CARTESIAN_POINT('',(37.,-60.1,0.));
#1107 = DIRECTION('',(-0.470588235294,-0.882352941176,0.));
#1108 = DIRECTION('',(-0.882352941176,0.470588235294,0.));
#1109 = ADVANCED_FACE('',(#1110),#1116,.F.);
#1110 = FACE_BOUND('',#1111,.F.);
#1111 = EDGE_LOOP('',(#1112,#1113,#1114,#1115));
#1112 = ORIENTED_EDGE('',*,*,#764,.F.);
#1113 = ORIENTED_EDGE('',*,*,#1028,.T.);
#1114 = ORIENTED_EDGE('',*,*,#930,.T.);
#1115 = ORIENTED_EDGE('',*,*,#1097,.F.);
#1116 = PLANE('',#1117);
#1117 = AXIS2_PLACEMENT_3D('',#1118,#1119,#1120);
#1118 = CARTESIAN_POINT('',(38.5,-59.3,0.));
#1119 = DIRECTION('',(0.470588235294,-0.882352941176,0.));
#1120 = DIRECTION('',(-0.882352941176,-0.470588235294,0.));
#1121 = ( GEOMETRIC_REPRESENTATION_CONTEXT(3) 
GLOBAL_UNCERTAINTY_ASSIGNED_CONTEXT((#1125)) 
GLOBAL_UNIT_ASSIGNED_CONTEXT((#1122,#1123,#1124)) REPRESENTATION_CONTEXT
('Context #1','3D Context with UNIT and UNCERTAINTY') );
#1122 = ( LENGTH_UNIT() NAMED_UNIT(*) SI_UNIT(.MILLI.,.METRE.) );
#1123 = ( NAMED_UNIT(*) PLANE_ANGLE_UNIT() SI_UNIT($,.RADIAN.) );
#1124 = ( NAMED_UNIT(*) SI_UNIT($,.STERADIAN.) SOLID_ANGLE_UNIT() );
#1125 = UNCERTAINTY_MEASURE_WITH_UNIT(LENGTH_MEASURE(5.E-05),#1122,
  'distance_accuracy_value','confusion accuracy');
#1126 = PRODUCT_RELATED_PRODUCT_CATEGORY('part',$,(#7));
ENDSEC;
END-ISO-10303-21;
