ISO-10303-21;
HEADER;
FILE_DESCRIPTION(('FreeCAD Model'),'2;1');
FILE_NAME('Open CASCADE Shape Model','2026-09-28T17:28:28',('FreeCAD'),(
    'FreeCAD'),'Open CASCADE STEP processor 7.8','FreeCAD','Unknown');
FILE_SCHEMA(('AUTOMOTIVE_DESIGN { 1 0 10303 214 1 1 1 1 }'));
ENDSEC;
DATA;
#1 = APPLICATION_PROTOCOL_DEFINITION('international standard',
  'automotive_design',2000,#2);
#2 = APPLICATION_CONTEXT(
  'core data for automotive mechanical design processes');
#3 = SHAPE_DEFINITION_REPRESENTATION(#4,#10);
#4 = PRODUCT_DEFINITION_SHAPE('','',#5);
#5 = PRODUCT_DEFINITION('design','',#6,#9);
#6 = PRODUCT_DEFINITION_FORMATION('','',#7);
#7 = PRODUCT('Open CASCADE STEP translator 7.8 107',
  'Open CASCADE STEP translator 7.8 107','',(#8));
#8 = PRODUCT_CONTEXT('',#2,'mechanical');
#9 = PRODUCT_DEFINITION_CONTEXT('part definition',#2,'design');
#10 = ADVANCED_BREP_SHAPE_REPRESENTATION('',(#11,#15),#581);
#11 = AXIS2_PLACEMENT_3D('',#12,#13,#14);
#12 = CARTESIAN_POINT('',(0.,0.,0.));
#13 = DIRECTION('',(0.,0.,1.));
#14 = DIRECTION('',(1.,0.,-0.));
#15 = MANIFOLD_SOLID_BREP('',#16);
#16 = CLOSED_SHELL('',(#17,#57,#90,#123,#244,#268,#292,#317,#342,#359,
    #390,#415,#439,#464,#488,#513,#537,#555));
#17 = ADVANCED_FACE('',(#18),#52,.F.);
#18 = FACE_BOUND('',#19,.F.);
#19 = EDGE_LOOP('',(#20,#30,#38,#46));
#20 = ORIENTED_EDGE('',*,*,#21,.T.);
#21 = EDGE_CURVE('',#22,#24,#26,.T.);
#22 = VERTEX_POINT('',#23);
#23 = CARTESIAN_POINT('',(46.7,-12.2,12.99));
#24 = VERTEX_POINT('',#25);
#25 = CARTESIAN_POINT('',(46.7,-12.2,13.39));
#26 = LINE('',#27,#28);
#27 = CARTESIAN_POINT('',(46.7,-12.2,12.99));
#28 = VECTOR('',#29,1.);
#29 = DIRECTION('',(0.,0.,1.));
#30 = ORIENTED_EDGE('',*,*,#31,.T.);
#31 = EDGE_CURVE('',#24,#32,#34,.T.);
#32 = VERTEX_POINT('',#33);
#33 = CARTESIAN_POINT('',(27.3,-12.2,13.39));
#34 = LINE('',#35,#36);
#35 = CARTESIAN_POINT('',(46.7,-12.2,13.39));
#36 = VECTOR('',#37,1.);
#37 = DIRECTION('',(-1.,0.,0.));
#38 = ORIENTED_EDGE('',*,*,#39,.F.);
#39 = EDGE_CURVE('',#40,#32,#42,.T.);
#40 = VERTEX_POINT('',#41);
#41 = CARTESIAN_POINT('',(27.3,-12.2,12.99));
#42 = LINE('',#43,#44);
#43 = CARTESIAN_POINT('',(27.3,-12.2,12.99));
#44 = VECTOR('',#45,1.);
#45 = DIRECTION('',(0.,0.,1.));
#46 = ORIENTED_EDGE('',*,*,#47,.F.);
#47 = EDGE_CURVE('',#22,#40,#48,.T.);
#48 = LINE('',#49,#50);
#49 = CARTESIAN_POINT('',(46.7,-12.2,12.99));
#50 = VECTOR('',#51,1.);
#51 = DIRECTION('',(-1.,0.,0.));
#52 = PLANE('',#53);
#53 = AXIS2_PLACEMENT_3D('',#54,#55,#56);
#54 = CARTESIAN_POINT('',(46.7,-12.2,12.99));
#55 = DIRECTION('',(0.,-1.,0.));
#56 = DIRECTION('',(-1.,0.,0.));
#57 = ADVANCED_FACE('',(#58),#85,.T.);
#58 = FACE_BOUND('',#59,.F.);
#59 = EDGE_LOOP('',(#60,#70,#77,#78));
#60 = ORIENTED_EDGE('',*,*,#61,.T.);
#61 = EDGE_CURVE('',#62,#64,#66,.T.);
#62 = VERTEX_POINT('',#63);
#63 = CARTESIAN_POINT('',(47.8,-13.3,12.99));
#64 = VERTEX_POINT('',#65);
#65 = CARTESIAN_POINT('',(47.8,-13.3,13.39));
#66 = LINE('',#67,#68);
#67 = CARTESIAN_POINT('',(47.8,-13.3,12.99));
#68 = VECTOR('',#69,1.);
#69 = DIRECTION('',(0.,0.,1.));
#70 = ORIENTED_EDGE('',*,*,#71,.T.);
#71 = EDGE_CURVE('',#64,#24,#72,.T.);
#72 = CIRCLE('',#73,1.1);
#73 = AXIS2_PLACEMENT_3D('',#74,#75,#76);
#74 = CARTESIAN_POINT('',(46.7,-13.3,13.39));
#75 = DIRECTION('',(0.,0.,1.));
#76 = DIRECTION('',(1.,0.,0.));
#77 = ORIENTED_EDGE('',*,*,#21,.F.);
#78 = ORIENTED_EDGE('',*,*,#79,.F.);
#79 = EDGE_CURVE('',#62,#22,#80,.T.);
#80 = CIRCLE('',#81,1.1);
#81 = AXIS2_PLACEMENT_3D('',#82,#83,#84);
#82 = CARTESIAN_POINT('',(46.7,-13.3,12.99));
#83 = DIRECTION('',(0.,0.,1.));
#84 = DIRECTION('',(1.,0.,0.));
#85 = CYLINDRICAL_SURFACE('',#86,1.1);
#86 = AXIS2_PLACEMENT_3D('',#87,#88,#89);
#87 = CARTESIAN_POINT('',(46.7,-13.3,12.99));
#88 = DIRECTION('',(-0.,-0.,-1.));
#89 = DIRECTION('',(1.,0.,0.));
#90 = ADVANCED_FACE('',(#91),#118,.T.);
#91 = FACE_BOUND('',#92,.F.);
#92 = EDGE_LOOP('',(#93,#94,#103,#111));
#93 = ORIENTED_EDGE('',*,*,#39,.T.);
#94 = ORIENTED_EDGE('',*,*,#95,.T.);
#95 = EDGE_CURVE('',#32,#96,#98,.T.);
#96 = VERTEX_POINT('',#97);
#97 = CARTESIAN_POINT('',(26.2,-13.3,13.39));
#98 = CIRCLE('',#99,1.1);
#99 = AXIS2_PLACEMENT_3D('',#100,#101,#102);
#100 = CARTESIAN_POINT('',(27.3,-13.3,13.39));
#101 = DIRECTION('',(0.,0.,1.));
#102 = DIRECTION('',(-3.23E-15,1.,0.));
#103 = ORIENTED_EDGE('',*,*,#104,.F.);
#104 = EDGE_CURVE('',#105,#96,#107,.T.);
#105 = VERTEX_POINT('',#106);
#106 = CARTESIAN_POINT('',(26.2,-13.3,12.99));
#107 = LINE('',#108,#109);
#108 = CARTESIAN_POINT('',(26.2,-13.3,12.99));
#109 = VECTOR('',#110,1.);
#110 = DIRECTION('',(0.,0.,1.));
#111 = ORIENTED_EDGE('',*,*,#112,.F.);
#112 = EDGE_CURVE('',#40,#105,#113,.T.);
#113 = CIRCLE('',#114,1.1);
#114 = AXIS2_PLACEMENT_3D('',#115,#116,#117);
#115 = CARTESIAN_POINT('',(27.3,-13.3,12.99));
#116 = DIRECTION('',(0.,0.,1.));
#117 = DIRECTION('',(-3.23E-15,1.,0.));
#118 = CYLINDRICAL_SURFACE('',#119,1.1);
#119 = AXIS2_PLACEMENT_3D('',#120,#121,#122);
#120 = CARTESIAN_POINT('',(27.3,-13.3,12.99));
#121 = DIRECTION('',(-0.,-0.,-1.));
#122 = DIRECTION('',(-3.23E-15,1.,0.));
#123 = ADVANCED_FACE('',(#124,#169),#239,.T.);
#124 = FACE_BOUND('',#125,.T.);
#125 = EDGE_LOOP('',(#126,#127,#128,#136,#145,#153,#162,#168));
#126 = ORIENTED_EDGE('',*,*,#31,.T.);
#127 = ORIENTED_EDGE('',*,*,#95,.T.);
#128 = ORIENTED_EDGE('',*,*,#129,.T.);
#129 = EDGE_CURVE('',#96,#130,#132,.T.);
#130 = VERTEX_POINT('',#131);
#131 = CARTESIAN_POINT('',(26.2,-53.,13.39));
#132 = LINE('',#133,#134);
#133 = CARTESIAN_POINT('',(26.2,-13.3,13.39));
#134 = VECTOR('',#135,1.);
#135 = DIRECTION('',(0.,-1.,0.));
#136 = ORIENTED_EDGE('',*,*,#137,.T.);
#137 = EDGE_CURVE('',#130,#138,#140,.T.);
#138 = VERTEX_POINT('',#139);
#139 = CARTESIAN_POINT('',(27.3,-54.1,13.39));
#140 = CIRCLE('',#141,1.1);
#141 = AXIS2_PLACEMENT_3D('',#142,#143,#144);
#142 = CARTESIAN_POINT('',(27.3,-53.,13.39));
#143 = DIRECTION('',(0.,0.,1.));
#144 = DIRECTION('',(-1.,0.,0.));
#145 = ORIENTED_EDGE('',*,*,#146,.T.);
#146 = EDGE_CURVE('',#138,#147,#149,.T.);
#147 = VERTEX_POINT('',#148);
#148 = CARTESIAN_POINT('',(46.7,-54.1,13.39));
#149 = LINE('',#150,#151);
#150 = CARTESIAN_POINT('',(27.3,-54.1,13.39));
#151 = VECTOR('',#152,1.);
#152 = DIRECTION('',(1.,0.,0.));
#153 = ORIENTED_EDGE('',*,*,#154,.T.);
#154 = EDGE_CURVE('',#147,#155,#157,.T.);
#155 = VERTEX_POINT('',#156);
#156 = CARTESIAN_POINT('',(47.8,-53.,13.39));
#157 = CIRCLE('',#158,1.1);
#158 = AXIS2_PLACEMENT_3D('',#159,#160,#161);
#159 = CARTESIAN_POINT('',(46.7,-53.,13.39));
#160 = DIRECTION('',(-0.,0.,1.));
#161 = DIRECTION('',(6.46E-15,-1.,0.));
#162 = ORIENTED_EDGE('',*,*,#163,.T.);
#163 = EDGE_CURVE('',#155,#64,#164,.T.);
#164 = LINE('',#165,#166);
#165 = CARTESIAN_POINT('',(47.8,-53.,13.39));
#166 = VECTOR('',#167,1.);
#167 = DIRECTION('',(0.,1.,0.));
#168 = ORIENTED_EDGE('',*,*,#71,.T.);
#169 = FACE_BOUND('',#170,.T.);
#170 = EDGE_LOOP('',(#171,#181,#190,#198,#207,#215,#224,#232));
#171 = ORIENTED_EDGE('',*,*,#172,.F.);
#172 = EDGE_CURVE('',#173,#175,#177,.T.);
#173 = VERTEX_POINT('',#174);
#174 = CARTESIAN_POINT('',(45.25,-14.65,13.39));
#175 = VERTEX_POINT('',#176);
#176 = CARTESIAN_POINT('',(29.15,-14.65,13.39));
#177 = LINE('',#178,#179);
#178 = CARTESIAN_POINT('',(45.25,-14.65,13.39));
#179 = VECTOR('',#180,1.);
#180 = DIRECTION('',(-1.,0.,0.));
#181 = ORIENTED_EDGE('',*,*,#182,.F.);
#182 = EDGE_CURVE('',#183,#173,#185,.T.);
#183 = VERTEX_POINT('',#184);
#184 = CARTESIAN_POINT('',(45.55,-14.95,13.39));
#185 = CIRCLE('',#186,0.3);
#186 = AXIS2_PLACEMENT_3D('',#187,#188,#189);
#187 = CARTESIAN_POINT('',(45.25,-14.95,13.39));
#188 = DIRECTION('',(0.,-0.,1.));
#189 = DIRECTION('',(1.,5.92E-15,0.));
#190 = ORIENTED_EDGE('',*,*,#191,.F.);
#191 = EDGE_CURVE('',#192,#183,#194,.T.);
#192 = VERTEX_POINT('',#193);
#193 = CARTESIAN_POINT('',(45.55,-52.95,13.39));
#194 = LINE('',#195,#196);
#195 = CARTESIAN_POINT('',(45.55,-52.95,13.39));
#196 = VECTOR('',#197,1.);
#197 = DIRECTION('',(0.,1.,0.));
#198 = ORIENTED_EDGE('',*,*,#199,.F.);
#199 = EDGE_CURVE('',#200,#192,#202,.T.);
#200 = VERTEX_POINT('',#201);
#201 = CARTESIAN_POINT('',(45.25,-53.25,13.39));
#202 = CIRCLE('',#203,0.3);
#203 = AXIS2_PLACEMENT_3D('',#204,#205,#206);
#204 = CARTESIAN_POINT('',(45.25,-52.95,13.39));
#205 = DIRECTION('',(-0.,0.,1.));
#206 = DIRECTION('',(2.368E-14,-1.,0.));
#207 = ORIENTED_EDGE('',*,*,#208,.F.);
#208 = EDGE_CURVE('',#209,#200,#211,.T.);
#209 = VERTEX_POINT('',#210);
#210 = CARTESIAN_POINT('',(29.15,-53.25,13.39));
#211 = LINE('',#212,#213);
#212 = CARTESIAN_POINT('',(29.15,-53.25,13.39));
#213 = VECTOR('',#214,1.);
#214 = DIRECTION('',(1.,0.,0.));
#215 = ORIENTED_EDGE('',*,*,#216,.F.);
#216 = EDGE_CURVE('',#217,#209,#219,.T.);
#217 = VERTEX_POINT('',#218);
#218 = CARTESIAN_POINT('',(28.85,-52.95,13.39));
#219 = CIRCLE('',#220,0.3);
#220 = AXIS2_PLACEMENT_3D('',#221,#222,#223);
#221 = CARTESIAN_POINT('',(29.15,-52.95,13.39));
#222 = DIRECTION('',(0.,0.,1.));
#223 = DIRECTION('',(-1.,4.737E-14,0.));
#224 = ORIENTED_EDGE('',*,*,#225,.F.);
#225 = EDGE_CURVE('',#226,#217,#228,.T.);
#226 = VERTEX_POINT('',#227);
#227 = CARTESIAN_POINT('',(28.85,-14.95,13.39));
#228 = LINE('',#229,#230);
#229 = CARTESIAN_POINT('',(28.85,-14.95,13.39));
#230 = VECTOR('',#231,1.);
#231 = DIRECTION('',(0.,-1.,0.));
#232 = ORIENTED_EDGE('',*,*,#233,.F.);
#233 = EDGE_CURVE('',#175,#226,#234,.T.);
#234 = CIRCLE('',#235,0.3);
#235 = AXIS2_PLACEMENT_3D('',#236,#237,#238);
#236 = CARTESIAN_POINT('',(29.15,-14.95,13.39));
#237 = DIRECTION('',(0.,-0.,1.));
#238 = DIRECTION('',(1.1842E-13,1.,0.));
#239 = PLANE('',#240);
#240 = AXIS2_PLACEMENT_3D('',#241,#242,#243);
#241 = CARTESIAN_POINT('',(37.,-33.15,13.39));
#242 = DIRECTION('',(0.,0.,1.));
#243 = DIRECTION('',(1.,0.,0.));
#244 = ADVANCED_FACE('',(#245),#263,.F.);
#245 = FACE_BOUND('',#246,.F.);
#246 = EDGE_LOOP('',(#247,#255,#256,#257));
#247 = ORIENTED_EDGE('',*,*,#248,.T.);
#248 = EDGE_CURVE('',#249,#155,#251,.T.);
#249 = VERTEX_POINT('',#250);
#250 = CARTESIAN_POINT('',(47.8,-53.,12.99));
#251 = LINE('',#252,#253);
#252 = CARTESIAN_POINT('',(47.8,-53.,12.99));
#253 = VECTOR('',#254,1.);
#254 = DIRECTION('',(0.,0.,1.));
#255 = ORIENTED_EDGE('',*,*,#163,.T.);
#256 = ORIENTED_EDGE('',*,*,#61,.F.);
#257 = ORIENTED_EDGE('',*,*,#258,.F.);
#258 = EDGE_CURVE('',#249,#62,#259,.T.);
#259 = LINE('',#260,#261);
#260 = CARTESIAN_POINT('',(47.8,-53.,12.99));
#261 = VECTOR('',#262,1.);
#262 = DIRECTION('',(0.,1.,0.));
#263 = PLANE('',#264);
#264 = AXIS2_PLACEMENT_3D('',#265,#266,#267);
#265 = CARTESIAN_POINT('',(47.8,-53.,12.99));
#266 = DIRECTION('',(-1.,0.,0.));
#267 = DIRECTION('',(0.,1.,0.));
#268 = ADVANCED_FACE('',(#269),#287,.F.);
#269 = FACE_BOUND('',#270,.F.);
#270 = EDGE_LOOP('',(#271,#272,#273,#281));
#271 = ORIENTED_EDGE('',*,*,#104,.T.);
#272 = ORIENTED_EDGE('',*,*,#129,.T.);
#273 = ORIENTED_EDGE('',*,*,#274,.F.);
#274 = EDGE_CURVE('',#275,#130,#277,.T.);
#275 = VERTEX_POINT('',#276);
#276 = CARTESIAN_POINT('',(26.2,-53.,12.99));
#277 = LINE('',#278,#279);
#278 = CARTESIAN_POINT('',(26.2,-53.,12.99));
#279 = VECTOR('',#280,1.);
#280 = DIRECTION('',(0.,0.,1.));
#281 = ORIENTED_EDGE('',*,*,#282,.F.);
#282 = EDGE_CURVE('',#105,#275,#283,.T.);
#283 = LINE('',#284,#285);
#284 = CARTESIAN_POINT('',(26.2,-13.3,12.99));
#285 = VECTOR('',#286,1.);
#286 = DIRECTION('',(0.,-1.,0.));
#287 = PLANE('',#288);
#288 = AXIS2_PLACEMENT_3D('',#289,#290,#291);
#289 = CARTESIAN_POINT('',(26.2,-13.3,12.99));
#290 = DIRECTION('',(1.,0.,0.));
#291 = DIRECTION('',(0.,-1.,0.));
#292 = ADVANCED_FACE('',(#293),#312,.T.);
#293 = FACE_BOUND('',#294,.F.);
#294 = EDGE_LOOP('',(#295,#303,#304,#305));
#295 = ORIENTED_EDGE('',*,*,#296,.T.);
#296 = EDGE_CURVE('',#297,#147,#299,.T.);
#297 = VERTEX_POINT('',#298);
#298 = CARTESIAN_POINT('',(46.7,-54.1,12.99));
#299 = LINE('',#300,#301);
#300 = CARTESIAN_POINT('',(46.7,-54.1,12.99));
#301 = VECTOR('',#302,1.);
#302 = DIRECTION('',(0.,0.,1.));
#303 = ORIENTED_EDGE('',*,*,#154,.T.);
#304 = ORIENTED_EDGE('',*,*,#248,.F.);
#305 = ORIENTED_EDGE('',*,*,#306,.F.);
#306 = EDGE_CURVE('',#297,#249,#307,.T.);
#307 = CIRCLE('',#308,1.1);
#308 = AXIS2_PLACEMENT_3D('',#309,#310,#311);
#309 = CARTESIAN_POINT('',(46.7,-53.,12.99));
#310 = DIRECTION('',(-0.,0.,1.));
#311 = DIRECTION('',(6.46E-15,-1.,0.));
#312 = CYLINDRICAL_SURFACE('',#313,1.1);
#313 = AXIS2_PLACEMENT_3D('',#314,#315,#316);
#314 = CARTESIAN_POINT('',(46.7,-53.,12.99));
#315 = DIRECTION('',(0.,0.,-1.));
#316 = DIRECTION('',(6.46E-15,-1.,0.));
#317 = ADVANCED_FACE('',(#318),#337,.T.);
#318 = FACE_BOUND('',#319,.F.);
#319 = EDGE_LOOP('',(#320,#321,#322,#330));
#320 = ORIENTED_EDGE('',*,*,#274,.T.);
#321 = ORIENTED_EDGE('',*,*,#137,.T.);
#322 = ORIENTED_EDGE('',*,*,#323,.F.);
#323 = EDGE_CURVE('',#324,#138,#326,.T.);
#324 = VERTEX_POINT('',#325);
#325 = CARTESIAN_POINT('',(27.3,-54.1,12.99));
#326 = LINE('',#327,#328);
#327 = CARTESIAN_POINT('',(27.3,-54.1,12.99));
#328 = VECTOR('',#329,1.);
#329 = DIRECTION('',(0.,0.,1.));
#330 = ORIENTED_EDGE('',*,*,#331,.F.);
#331 = EDGE_CURVE('',#275,#324,#332,.T.);
#332 = CIRCLE('',#333,1.1);
#333 = AXIS2_PLACEMENT_3D('',#334,#335,#336);
#334 = CARTESIAN_POINT('',(27.3,-53.,12.99));
#335 = DIRECTION('',(0.,0.,1.));
#336 = DIRECTION('',(-1.,0.,0.));
#337 = CYLINDRICAL_SURFACE('',#338,1.1);
#338 = AXIS2_PLACEMENT_3D('',#339,#340,#341);
#339 = CARTESIAN_POINT('',(27.3,-53.,12.99));
#340 = DIRECTION('',(-0.,-0.,-1.));
#341 = DIRECTION('',(-1.,0.,0.));
#342 = ADVANCED_FACE('',(#343),#354,.F.);
#343 = FACE_BOUND('',#344,.F.);
#344 = EDGE_LOOP('',(#345,#346,#347,#348));
#345 = ORIENTED_EDGE('',*,*,#323,.T.);
#346 = ORIENTED_EDGE('',*,*,#146,.T.);
#347 = ORIENTED_EDGE('',*,*,#296,.F.);
#348 = ORIENTED_EDGE('',*,*,#349,.F.);
#349 = EDGE_CURVE('',#324,#297,#350,.T.);
#350 = LINE('',#351,#352);
#351 = CARTESIAN_POINT('',(27.3,-54.1,12.99));
#352 = VECTOR('',#353,1.);
#353 = DIRECTION('',(1.,0.,0.));
#354 = PLANE('',#355);
#355 = AXIS2_PLACEMENT_3D('',#356,#357,#358);
#356 = CARTESIAN_POINT('',(27.3,-54.1,12.99));
#357 = DIRECTION('',(0.,1.,0.));
#358 = DIRECTION('',(1.,0.,0.));
#359 = ADVANCED_FACE('',(#360),#385,.T.);
#360 = FACE_BOUND('',#361,.T.);
#361 = EDGE_LOOP('',(#362,#370,#371,#379));
#362 = ORIENTED_EDGE('',*,*,#363,.T.);
#363 = EDGE_CURVE('',#364,#173,#366,.T.);
#364 = VERTEX_POINT('',#365);
#365 = CARTESIAN_POINT('',(45.25,-14.65,12.99));
#366 = LINE('',#367,#368);
#367 = CARTESIAN_POINT('',(45.25,-14.65,12.99));
#368 = VECTOR('',#369,1.);
#369 = DIRECTION('',(0.,0.,1.));
#370 = ORIENTED_EDGE('',*,*,#172,.T.);
#371 = ORIENTED_EDGE('',*,*,#372,.F.);
#372 = EDGE_CURVE('',#373,#175,#375,.T.);
#373 = VERTEX_POINT('',#374);
#374 = CARTESIAN_POINT('',(29.15,-14.65,12.99));
#375 = LINE('',#376,#377);
#376 = CARTESIAN_POINT('',(29.15,-14.65,12.99));
#377 = VECTOR('',#378,1.);
#378 = DIRECTION('',(0.,0.,1.));
#379 = ORIENTED_EDGE('',*,*,#380,.F.);
#380 = EDGE_CURVE('',#364,#373,#381,.T.);
#381 = LINE('',#382,#383);
#382 = CARTESIAN_POINT('',(45.25,-14.65,12.99));
#383 = VECTOR('',#384,1.);
#384 = DIRECTION('',(-1.,0.,0.));
#385 = PLANE('',#386);
#386 = AXIS2_PLACEMENT_3D('',#387,#388,#389);
#387 = CARTESIAN_POINT('',(45.25,-14.65,12.99));
#388 = DIRECTION('',(0.,-1.,0.));
#389 = DIRECTION('',(-1.,0.,0.));
#390 = ADVANCED_FACE('',(#391),#410,.F.);
#391 = FACE_BOUND('',#392,.T.);
#392 = EDGE_LOOP('',(#393,#394,#395,#403));
#393 = ORIENTED_EDGE('',*,*,#372,.T.);
#394 = ORIENTED_EDGE('',*,*,#233,.T.);
#395 = ORIENTED_EDGE('',*,*,#396,.F.);
#396 = EDGE_CURVE('',#397,#226,#399,.T.);
#397 = VERTEX_POINT('',#398);
#398 = CARTESIAN_POINT('',(28.85,-14.95,12.99));
#399 = LINE('',#400,#401);
#400 = CARTESIAN_POINT('',(28.85,-14.95,12.99));
#401 = VECTOR('',#402,1.);
#402 = DIRECTION('',(0.,0.,1.));
#403 = ORIENTED_EDGE('',*,*,#404,.F.);
#404 = EDGE_CURVE('',#373,#397,#405,.T.);
#405 = CIRCLE('',#406,0.3);
#406 = AXIS2_PLACEMENT_3D('',#407,#408,#409);
#407 = CARTESIAN_POINT('',(29.15,-14.95,12.99));
#408 = DIRECTION('',(0.,-0.,1.));
#409 = DIRECTION('',(1.1842E-13,1.,0.));
#410 = CYLINDRICAL_SURFACE('',#411,0.3);
#411 = AXIS2_PLACEMENT_3D('',#412,#413,#414);
#412 = CARTESIAN_POINT('',(29.15,-14.95,12.99));
#413 = DIRECTION('',(0.,0.,-1.));
#414 = DIRECTION('',(1.1842E-13,1.,0.));
#415 = ADVANCED_FACE('',(#416),#434,.T.);
#416 = FACE_BOUND('',#417,.T.);
#417 = EDGE_LOOP('',(#418,#419,#420,#428));
#418 = ORIENTED_EDGE('',*,*,#396,.T.);
#419 = ORIENTED_EDGE('',*,*,#225,.T.);
#420 = ORIENTED_EDGE('',*,*,#421,.F.);
#421 = EDGE_CURVE('',#422,#217,#424,.T.);
#422 = VERTEX_POINT('',#423);
#423 = CARTESIAN_POINT('',(28.85,-52.95,12.99));
#424 = LINE('',#425,#426);
#425 = CARTESIAN_POINT('',(28.85,-52.95,12.99));
#426 = VECTOR('',#427,1.);
#427 = DIRECTION('',(0.,0.,1.));
#428 = ORIENTED_EDGE('',*,*,#429,.F.);
#429 = EDGE_CURVE('',#397,#422,#430,.T.);
#430 = LINE('',#431,#432);
#431 = CARTESIAN_POINT('',(28.85,-14.95,12.99));
#432 = VECTOR('',#433,1.);
#433 = DIRECTION('',(0.,-1.,0.));
#434 = PLANE('',#435);
#435 = AXIS2_PLACEMENT_3D('',#436,#437,#438);
#436 = CARTESIAN_POINT('',(28.85,-14.95,12.99));
#437 = DIRECTION('',(1.,0.,0.));
#438 = DIRECTION('',(0.,-1.,0.));
#439 = ADVANCED_FACE('',(#440),#459,.F.);
#440 = FACE_BOUND('',#441,.T.);
#441 = EDGE_LOOP('',(#442,#443,#444,#452));
#442 = ORIENTED_EDGE('',*,*,#421,.T.);
#443 = ORIENTED_EDGE('',*,*,#216,.T.);
#444 = ORIENTED_EDGE('',*,*,#445,.F.);
#445 = EDGE_CURVE('',#446,#209,#448,.T.);
#446 = VERTEX_POINT('',#447);
#447 = CARTESIAN_POINT('',(29.15,-53.25,12.99));
#448 = LINE('',#449,#450);
#449 = CARTESIAN_POINT('',(29.15,-53.25,12.99));
#450 = VECTOR('',#451,1.);
#451 = DIRECTION('',(0.,0.,1.));
#452 = ORIENTED_EDGE('',*,*,#453,.F.);
#453 = EDGE_CURVE('',#422,#446,#454,.T.);
#454 = CIRCLE('',#455,0.3);
#455 = AXIS2_PLACEMENT_3D('',#456,#457,#458);
#456 = CARTESIAN_POINT('',(29.15,-52.95,12.99));
#457 = DIRECTION('',(0.,0.,1.));
#458 = DIRECTION('',(-1.,4.737E-14,0.));
#459 = CYLINDRICAL_SURFACE('',#460,0.3);
#460 = AXIS2_PLACEMENT_3D('',#461,#462,#463);
#461 = CARTESIAN_POINT('',(29.15,-52.95,12.99));
#462 = DIRECTION('',(-0.,-0.,-1.));
#463 = DIRECTION('',(-1.,4.737E-14,0.));
#464 = ADVANCED_FACE('',(#465),#483,.T.);
#465 = FACE_BOUND('',#466,.T.);
#466 = EDGE_LOOP('',(#467,#468,#469,#477));
#467 = ORIENTED_EDGE('',*,*,#445,.T.);
#468 = ORIENTED_EDGE('',*,*,#208,.T.);
#469 = ORIENTED_EDGE('',*,*,#470,.F.);
#470 = EDGE_CURVE('',#471,#200,#473,.T.);
#471 = VERTEX_POINT('',#472);
#472 = CARTESIAN_POINT('',(45.25,-53.25,12.99));
#473 = LINE('',#474,#475);
#474 = CARTESIAN_POINT('',(45.25,-53.25,12.99));
#475 = VECTOR('',#476,1.);
#476 = DIRECTION('',(0.,0.,1.));
#477 = ORIENTED_EDGE('',*,*,#478,.F.);
#478 = EDGE_CURVE('',#446,#471,#479,.T.);
#479 = LINE('',#480,#481);
#480 = CARTESIAN_POINT('',(29.15,-53.25,12.99));
#481 = VECTOR('',#482,1.);
#482 = DIRECTION('',(1.,0.,0.));
#483 = PLANE('',#484);
#484 = AXIS2_PLACEMENT_3D('',#485,#486,#487);
#485 = CARTESIAN_POINT('',(29.15,-53.25,12.99));
#486 = DIRECTION('',(0.,1.,0.));
#487 = DIRECTION('',(1.,0.,0.));
#488 = ADVANCED_FACE('',(#489),#508,.F.);
#489 = FACE_BOUND('',#490,.T.);
#490 = EDGE_LOOP('',(#491,#492,#493,#501));
#491 = ORIENTED_EDGE('',*,*,#470,.T.);
#492 = ORIENTED_EDGE('',*,*,#199,.T.);
#493 = ORIENTED_EDGE('',*,*,#494,.F.);
#494 = EDGE_CURVE('',#495,#192,#497,.T.);
#495 = VERTEX_POINT('',#496);
#496 = CARTESIAN_POINT('',(45.55,-52.95,12.99));
#497 = LINE('',#498,#499);
#498 = CARTESIAN_POINT('',(45.55,-52.95,12.99));
#499 = VECTOR('',#500,1.);
#500 = DIRECTION('',(0.,0.,1.));
#501 = ORIENTED_EDGE('',*,*,#502,.F.);
#502 = EDGE_CURVE('',#471,#495,#503,.T.);
#503 = CIRCLE('',#504,0.3);
#504 = AXIS2_PLACEMENT_3D('',#505,#506,#507);
#505 = CARTESIAN_POINT('',(45.25,-52.95,12.99));
#506 = DIRECTION('',(-0.,0.,1.));
#507 = DIRECTION('',(2.368E-14,-1.,0.));
#508 = CYLINDRICAL_SURFACE('',#509,0.3);
#509 = AXIS2_PLACEMENT_3D('',#510,#511,#512);
#510 = CARTESIAN_POINT('',(45.25,-52.95,12.99));
#511 = DIRECTION('',(0.,0.,-1.));
#512 = DIRECTION('',(2.368E-14,-1.,0.));
#513 = ADVANCED_FACE('',(#514),#532,.T.);
#514 = FACE_BOUND('',#515,.T.);
#515 = EDGE_LOOP('',(#516,#517,#518,#526));
#516 = ORIENTED_EDGE('',*,*,#494,.T.);
#517 = ORIENTED_EDGE('',*,*,#191,.T.);
#518 = ORIENTED_EDGE('',*,*,#519,.F.);
#519 = EDGE_CURVE('',#520,#183,#522,.T.);
#520 = VERTEX_POINT('',#521);
#521 = CARTESIAN_POINT('',(45.55,-14.95,12.99));
#522 = LINE('',#523,#524);
#523 = CARTESIAN_POINT('',(45.55,-14.95,12.99));
#524 = VECTOR('',#525,1.);
#525 = DIRECTION('',(0.,0.,1.));
#526 = ORIENTED_EDGE('',*,*,#527,.F.);
#527 = EDGE_CURVE('',#495,#520,#528,.T.);
#528 = LINE('',#529,#530);
#529 = CARTESIAN_POINT('',(45.55,-52.95,12.99));
#530 = VECTOR('',#531,1.);
#531 = DIRECTION('',(0.,1.,0.));
#532 = PLANE('',#533);
#533 = AXIS2_PLACEMENT_3D('',#534,#535,#536);
#534 = CARTESIAN_POINT('',(45.55,-52.95,12.99));
#535 = DIRECTION('',(-1.,0.,0.));
#536 = DIRECTION('',(0.,1.,0.));
#537 = ADVANCED_FACE('',(#538),#550,.F.);
#538 = FACE_BOUND('',#539,.T.);
#539 = EDGE_LOOP('',(#540,#541,#542,#543));
#540 = ORIENTED_EDGE('',*,*,#519,.T.);
#541 = ORIENTED_EDGE('',*,*,#182,.T.);
#542 = ORIENTED_EDGE('',*,*,#363,.F.);
#543 = ORIENTED_EDGE('',*,*,#544,.F.);
#544 = EDGE_CURVE('',#520,#364,#545,.T.);
#545 = CIRCLE('',#546,0.3);
#546 = AXIS2_PLACEMENT_3D('',#547,#548,#549);
#547 = CARTESIAN_POINT('',(45.25,-14.95,12.99));
#548 = DIRECTION('',(0.,-0.,1.));
#549 = DIRECTION('',(1.,5.92E-15,0.));
#550 = CYLINDRICAL_SURFACE('',#551,0.3);
#551 = AXIS2_PLACEMENT_3D('',#552,#553,#554);
#552 = CARTESIAN_POINT('',(45.25,-14.95,12.99));
#553 = DIRECTION('',(0.,0.,-1.));
#554 = DIRECTION('',(1.,5.92E-15,0.));
#555 = ADVANCED_FACE('',(#556,#566),#576,.T.);
#556 = FACE_BOUND('',#557,.T.);
#557 = EDGE_LOOP('',(#558,#559,#560,#561,#562,#563,#564,#565));
#558 = ORIENTED_EDGE('',*,*,#79,.F.);
#559 = ORIENTED_EDGE('',*,*,#258,.F.);
#560 = ORIENTED_EDGE('',*,*,#306,.F.);
#561 = ORIENTED_EDGE('',*,*,#349,.F.);
#562 = ORIENTED_EDGE('',*,*,#331,.F.);
#563 = ORIENTED_EDGE('',*,*,#282,.F.);
#564 = ORIENTED_EDGE('',*,*,#112,.F.);
#565 = ORIENTED_EDGE('',*,*,#47,.F.);
#566 = FACE_BOUND('',#567,.T.);
#567 = EDGE_LOOP('',(#568,#569,#570,#571,#572,#573,#574,#575));
#568 = ORIENTED_EDGE('',*,*,#380,.T.);
#569 = ORIENTED_EDGE('',*,*,#404,.T.);
#570 = ORIENTED_EDGE('',*,*,#429,.T.);
#571 = ORIENTED_EDGE('',*,*,#453,.T.);
#572 = ORIENTED_EDGE('',*,*,#478,.T.);
#573 = ORIENTED_EDGE('',*,*,#502,.T.);
#574 = ORIENTED_EDGE('',*,*,#527,.T.);
#575 = ORIENTED_EDGE('',*,*,#544,.T.);
#576 = PLANE('',#577);
#577 = AXIS2_PLACEMENT_3D('',#578,#579,#580);
#578 = CARTESIAN_POINT('',(37.,-33.15,12.99));
#579 = DIRECTION('',(-0.,-0.,-1.));
#580 = DIRECTION('',(-1.,0.,0.));
#581 = ( GEOMETRIC_REPRESENTATION_CONTEXT(3) 
GLOBAL_UNCERTAINTY_ASSIGNED_CONTEXT((#585)) GLOBAL_UNIT_ASSIGNED_CONTEXT
((#582,#583,#584)) REPRESENTATION_CONTEXT('Context #1',
  '3D Context with UNIT and UNCERTAINTY') );
#582 = ( LENGTH_UNIT() NAMED_UNIT(*) SI_UNIT(.MILLI.,.METRE.) );
#583 = ( NAMED_UNIT(*) PLANE_ANGLE_UNIT() SI_UNIT($,.RADIAN.) );
#584 = ( NAMED_UNIT(*) SI_UNIT($,.STERADIAN.) SOLID_ANGLE_UNIT() );
#585 = UNCERTAINTY_MEASURE_WITH_UNIT(LENGTH_MEASURE(5.E-06),#582,
  'distance_accuracy_value','confusion accuracy');
#586 = PRODUCT_RELATED_PRODUCT_CATEGORY('part',$,(#7));
ENDSEC;
END-ISO-10303-21;
